%TF.GenerationSoftware,KiCad,Pcbnew,8.0.4*%
%TF.CreationDate,2025-08-17T17:27:13+02:00*%
%TF.ProjectId,stm32l432kcu6_eval,73746d33-326c-4343-9332-6b6375365f65,rev?*%
%TF.SameCoordinates,Original*%
%TF.FileFunction,Drillmap*%
%TF.FilePolarity,Positive*%
%FSLAX45Y45*%
G04 Gerber Fmt 4.5, Leading zero omitted, Abs format (unit mm)*
G04 Created by KiCad (PCBNEW 8.0.4) date 2025-08-17 17:27:13*
%MOMM*%
%LPD*%
G01*
G04 APERTURE LIST*
%ADD10C,0.050000*%
%ADD11C,0.200000*%
%ADD12C,0.100000*%
G04 APERTURE END LIST*
D10*
X13630000Y-7450000D02*
G75*
G02*
X13730000Y-7350000I100000J0D01*
G01*
X16370000Y-7450000D02*
X16370000Y-12550000D01*
X16270000Y-7350000D02*
G75*
G02*
X16370000Y-7450000I0J-100000D01*
G01*
X16370000Y-12550000D02*
G75*
G02*
X16270000Y-12650000I-100000J0D01*
G01*
X13730000Y-12650000D02*
G75*
G02*
X13630000Y-12550000I0J100000D01*
G01*
X16270000Y-12650000D02*
X13730000Y-12650000D01*
X13630000Y-12550000D02*
X13630000Y-7450000D01*
X13730000Y-7350000D02*
X16270000Y-7350000D01*
D11*
D12*
X14848579Y-9990000D02*
X14868579Y-10010000D01*
X14868579Y-9990000D02*
X14848579Y-10010000D01*
X14919289Y-9919289D02*
X14939289Y-9939289D01*
X14939289Y-9919289D02*
X14919289Y-9939289D01*
X14919289Y-10060711D02*
X14939289Y-10080711D01*
X14939289Y-10060711D02*
X14919289Y-10080711D01*
X14990000Y-9848579D02*
X15010000Y-9868579D01*
X15010000Y-9848579D02*
X14990000Y-9868579D01*
X14990000Y-9990000D02*
X15010000Y-10010000D01*
X15010000Y-9990000D02*
X14990000Y-10010000D01*
X14990000Y-10131421D02*
X15010000Y-10151421D01*
X15010000Y-10131421D02*
X14990000Y-10151421D01*
X15060711Y-9919289D02*
X15080711Y-9939289D01*
X15080711Y-9919289D02*
X15060711Y-9939289D01*
X15060711Y-10060711D02*
X15080711Y-10080711D01*
X15080711Y-10060711D02*
X15060711Y-10080711D01*
X15131421Y-9990000D02*
X15151421Y-10010000D01*
X15151421Y-9990000D02*
X15131421Y-10010000D01*
X14137456Y-7514175D02*
G75*
G02*
X14107456Y-7514175I-15000J0D01*
G01*
X14107456Y-7514175D02*
G75*
G02*
X14137456Y-7514175I15000J0D01*
G01*
X14137456Y-7768175D02*
G75*
G02*
X14107456Y-7768175I-15000J0D01*
G01*
X14107456Y-7768175D02*
G75*
G02*
X14137456Y-7768175I15000J0D01*
G01*
X14137456Y-8022175D02*
G75*
G02*
X14107456Y-8022175I-15000J0D01*
G01*
X14107456Y-8022175D02*
G75*
G02*
X14137456Y-8022175I15000J0D01*
G01*
X14137456Y-8276175D02*
G75*
G02*
X14107456Y-8276175I-15000J0D01*
G01*
X14107456Y-8276175D02*
G75*
G02*
X14137456Y-8276175I15000J0D01*
G01*
X14137456Y-9292175D02*
G75*
G02*
X14107456Y-9292175I-15000J0D01*
G01*
X14107456Y-9292175D02*
G75*
G02*
X14137456Y-9292175I15000J0D01*
G01*
X14137456Y-11578175D02*
G75*
G02*
X14107456Y-11578175I-15000J0D01*
G01*
X14107456Y-11578175D02*
G75*
G02*
X14137456Y-11578175I15000J0D01*
G01*
X14145000Y-9450000D02*
G75*
G02*
X14115000Y-9450000I-15000J0D01*
G01*
X14115000Y-9450000D02*
G75*
G02*
X14145000Y-9450000I15000J0D01*
G01*
X14165000Y-10440000D02*
G75*
G02*
X14135000Y-10440000I-15000J0D01*
G01*
X14135000Y-10440000D02*
G75*
G02*
X14165000Y-10440000I15000J0D01*
G01*
X14285000Y-8647500D02*
G75*
G02*
X14255000Y-8647500I-15000J0D01*
G01*
X14255000Y-8647500D02*
G75*
G02*
X14285000Y-8647500I15000J0D01*
G01*
X14285000Y-9410000D02*
G75*
G02*
X14255000Y-9410000I-15000J0D01*
G01*
X14255000Y-9410000D02*
G75*
G02*
X14285000Y-9410000I15000J0D01*
G01*
X14345000Y-9570000D02*
G75*
G02*
X14315000Y-9570000I-15000J0D01*
G01*
X14315000Y-9570000D02*
G75*
G02*
X14345000Y-9570000I15000J0D01*
G01*
X14355000Y-10610000D02*
G75*
G02*
X14325000Y-10610000I-15000J0D01*
G01*
X14325000Y-10610000D02*
G75*
G02*
X14355000Y-10610000I15000J0D01*
G01*
X14391456Y-7514175D02*
G75*
G02*
X14361456Y-7514175I-15000J0D01*
G01*
X14361456Y-7514175D02*
G75*
G02*
X14391456Y-7514175I15000J0D01*
G01*
X14391456Y-7768175D02*
G75*
G02*
X14361456Y-7768175I-15000J0D01*
G01*
X14361456Y-7768175D02*
G75*
G02*
X14391456Y-7768175I15000J0D01*
G01*
X14391456Y-8022175D02*
G75*
G02*
X14361456Y-8022175I-15000J0D01*
G01*
X14361456Y-8022175D02*
G75*
G02*
X14391456Y-8022175I15000J0D01*
G01*
X14391456Y-8276175D02*
G75*
G02*
X14361456Y-8276175I-15000J0D01*
G01*
X14361456Y-8276175D02*
G75*
G02*
X14391456Y-8276175I15000J0D01*
G01*
X14445000Y-9170000D02*
G75*
G02*
X14415000Y-9170000I-15000J0D01*
G01*
X14415000Y-9170000D02*
G75*
G02*
X14445000Y-9170000I15000J0D01*
G01*
X14645456Y-7514175D02*
G75*
G02*
X14615456Y-7514175I-15000J0D01*
G01*
X14615456Y-7514175D02*
G75*
G02*
X14645456Y-7514175I15000J0D01*
G01*
X14645456Y-7768175D02*
G75*
G02*
X14615456Y-7768175I-15000J0D01*
G01*
X14615456Y-7768175D02*
G75*
G02*
X14645456Y-7768175I15000J0D01*
G01*
X14645456Y-8022175D02*
G75*
G02*
X14615456Y-8022175I-15000J0D01*
G01*
X14615456Y-8022175D02*
G75*
G02*
X14645456Y-8022175I15000J0D01*
G01*
X14645456Y-11578175D02*
G75*
G02*
X14615456Y-11578175I-15000J0D01*
G01*
X14615456Y-11578175D02*
G75*
G02*
X14645456Y-11578175I15000J0D01*
G01*
X14695000Y-9610000D02*
G75*
G02*
X14665000Y-9610000I-15000J0D01*
G01*
X14665000Y-9610000D02*
G75*
G02*
X14695000Y-9610000I15000J0D01*
G01*
X14722500Y-10290000D02*
G75*
G02*
X14692500Y-10290000I-15000J0D01*
G01*
X14692500Y-10290000D02*
G75*
G02*
X14722500Y-10290000I15000J0D01*
G01*
X14745000Y-11300000D02*
G75*
G02*
X14715000Y-11300000I-15000J0D01*
G01*
X14715000Y-11300000D02*
G75*
G02*
X14745000Y-11300000I15000J0D01*
G01*
X14772500Y-10360000D02*
G75*
G02*
X14742500Y-10360000I-15000J0D01*
G01*
X14742500Y-10360000D02*
G75*
G02*
X14772500Y-10360000I15000J0D01*
G01*
X14775000Y-9570000D02*
G75*
G02*
X14745000Y-9570000I-15000J0D01*
G01*
X14745000Y-9570000D02*
G75*
G02*
X14775000Y-9570000I15000J0D01*
G01*
X14855000Y-9610000D02*
G75*
G02*
X14825000Y-9610000I-15000J0D01*
G01*
X14825000Y-9610000D02*
G75*
G02*
X14855000Y-9610000I15000J0D01*
G01*
X14885000Y-11470000D02*
G75*
G02*
X14855000Y-11470000I-15000J0D01*
G01*
X14855000Y-11470000D02*
G75*
G02*
X14885000Y-11470000I15000J0D01*
G01*
X14895000Y-10460000D02*
G75*
G02*
X14865000Y-10460000I-15000J0D01*
G01*
X14865000Y-10460000D02*
G75*
G02*
X14895000Y-10460000I15000J0D01*
G01*
X14899456Y-7514175D02*
G75*
G02*
X14869456Y-7514175I-15000J0D01*
G01*
X14869456Y-7514175D02*
G75*
G02*
X14899456Y-7514175I15000J0D01*
G01*
X14899456Y-7768175D02*
G75*
G02*
X14869456Y-7768175I-15000J0D01*
G01*
X14869456Y-7768175D02*
G75*
G02*
X14899456Y-7768175I15000J0D01*
G01*
X14899456Y-8022175D02*
G75*
G02*
X14869456Y-8022175I-15000J0D01*
G01*
X14869456Y-8022175D02*
G75*
G02*
X14899456Y-8022175I15000J0D01*
G01*
X14905000Y-9180000D02*
G75*
G02*
X14875000Y-9180000I-15000J0D01*
G01*
X14875000Y-9180000D02*
G75*
G02*
X14905000Y-9180000I15000J0D01*
G01*
X14935000Y-9610000D02*
G75*
G02*
X14905000Y-9610000I-15000J0D01*
G01*
X14905000Y-9610000D02*
G75*
G02*
X14935000Y-9610000I15000J0D01*
G01*
X14980000Y-11510000D02*
G75*
G02*
X14950000Y-11510000I-15000J0D01*
G01*
X14950000Y-11510000D02*
G75*
G02*
X14980000Y-11510000I15000J0D01*
G01*
X15015000Y-10470000D02*
G75*
G02*
X14985000Y-10470000I-15000J0D01*
G01*
X14985000Y-10470000D02*
G75*
G02*
X15015000Y-10470000I15000J0D01*
G01*
X15025000Y-9380000D02*
G75*
G02*
X14995000Y-9380000I-15000J0D01*
G01*
X14995000Y-9380000D02*
G75*
G02*
X15025000Y-9380000I15000J0D01*
G01*
X15075000Y-11470000D02*
G75*
G02*
X15045000Y-11470000I-15000J0D01*
G01*
X15045000Y-11470000D02*
G75*
G02*
X15075000Y-11470000I15000J0D01*
G01*
X15085000Y-10620000D02*
G75*
G02*
X15055000Y-10620000I-15000J0D01*
G01*
X15055000Y-10620000D02*
G75*
G02*
X15085000Y-10620000I15000J0D01*
G01*
X15095000Y-10850000D02*
G75*
G02*
X15065000Y-10850000I-15000J0D01*
G01*
X15065000Y-10850000D02*
G75*
G02*
X15095000Y-10850000I15000J0D01*
G01*
X15129154Y-9570000D02*
G75*
G02*
X15099154Y-9570000I-15000J0D01*
G01*
X15099154Y-9570000D02*
G75*
G02*
X15129154Y-9570000I15000J0D01*
G01*
X15153456Y-7514175D02*
G75*
G02*
X15123456Y-7514175I-15000J0D01*
G01*
X15123456Y-7514175D02*
G75*
G02*
X15153456Y-7514175I15000J0D01*
G01*
X15153456Y-7768175D02*
G75*
G02*
X15123456Y-7768175I-15000J0D01*
G01*
X15123456Y-7768175D02*
G75*
G02*
X15153456Y-7768175I15000J0D01*
G01*
X15153456Y-8022175D02*
G75*
G02*
X15123456Y-8022175I-15000J0D01*
G01*
X15123456Y-8022175D02*
G75*
G02*
X15153456Y-8022175I15000J0D01*
G01*
X15195000Y-11700000D02*
G75*
G02*
X15165000Y-11700000I-15000J0D01*
G01*
X15165000Y-11700000D02*
G75*
G02*
X15195000Y-11700000I15000J0D01*
G01*
X15255000Y-10630000D02*
G75*
G02*
X15225000Y-10630000I-15000J0D01*
G01*
X15225000Y-10630000D02*
G75*
G02*
X15255000Y-10630000I15000J0D01*
G01*
X15275000Y-8590000D02*
G75*
G02*
X15245000Y-8590000I-15000J0D01*
G01*
X15245000Y-8590000D02*
G75*
G02*
X15275000Y-8590000I15000J0D01*
G01*
X15285000Y-9160000D02*
G75*
G02*
X15255000Y-9160000I-15000J0D01*
G01*
X15255000Y-9160000D02*
G75*
G02*
X15285000Y-9160000I15000J0D01*
G01*
X15285000Y-10800000D02*
G75*
G02*
X15255000Y-10800000I-15000J0D01*
G01*
X15255000Y-10800000D02*
G75*
G02*
X15285000Y-10800000I15000J0D01*
G01*
X15355000Y-9570000D02*
G75*
G02*
X15325000Y-9570000I-15000J0D01*
G01*
X15325000Y-9570000D02*
G75*
G02*
X15355000Y-9570000I15000J0D01*
G01*
X15405000Y-10120000D02*
G75*
G02*
X15375000Y-10120000I-15000J0D01*
G01*
X15375000Y-10120000D02*
G75*
G02*
X15405000Y-10120000I15000J0D01*
G01*
X15405000Y-11230000D02*
G75*
G02*
X15375000Y-11230000I-15000J0D01*
G01*
X15375000Y-11230000D02*
G75*
G02*
X15405000Y-11230000I15000J0D01*
G01*
X15407456Y-7514175D02*
G75*
G02*
X15377456Y-7514175I-15000J0D01*
G01*
X15377456Y-7514175D02*
G75*
G02*
X15407456Y-7514175I15000J0D01*
G01*
X15407456Y-7768175D02*
G75*
G02*
X15377456Y-7768175I-15000J0D01*
G01*
X15377456Y-7768175D02*
G75*
G02*
X15407456Y-7768175I15000J0D01*
G01*
X15407456Y-8022175D02*
G75*
G02*
X15377456Y-8022175I-15000J0D01*
G01*
X15377456Y-8022175D02*
G75*
G02*
X15407456Y-8022175I15000J0D01*
G01*
X15407456Y-11578175D02*
G75*
G02*
X15377456Y-11578175I-15000J0D01*
G01*
X15377456Y-11578175D02*
G75*
G02*
X15407456Y-11578175I15000J0D01*
G01*
X15455000Y-10520000D02*
G75*
G02*
X15425000Y-10520000I-15000J0D01*
G01*
X15425000Y-10520000D02*
G75*
G02*
X15455000Y-10520000I15000J0D01*
G01*
X15465000Y-9602500D02*
G75*
G02*
X15435000Y-9602500I-15000J0D01*
G01*
X15435000Y-9602500D02*
G75*
G02*
X15465000Y-9602500I15000J0D01*
G01*
X15465000Y-11948125D02*
G75*
G02*
X15435000Y-11948125I-15000J0D01*
G01*
X15435000Y-11948125D02*
G75*
G02*
X15465000Y-11948125I15000J0D01*
G01*
X15475000Y-9948735D02*
G75*
G02*
X15445000Y-9948735I-15000J0D01*
G01*
X15445000Y-9948735D02*
G75*
G02*
X15475000Y-9948735I15000J0D01*
G01*
X15495000Y-10051265D02*
G75*
G02*
X15465000Y-10051265I-15000J0D01*
G01*
X15465000Y-10051265D02*
G75*
G02*
X15495000Y-10051265I15000J0D01*
G01*
X15661456Y-7514175D02*
G75*
G02*
X15631456Y-7514175I-15000J0D01*
G01*
X15631456Y-7514175D02*
G75*
G02*
X15661456Y-7514175I15000J0D01*
G01*
X15661456Y-7768175D02*
G75*
G02*
X15631456Y-7768175I-15000J0D01*
G01*
X15631456Y-7768175D02*
G75*
G02*
X15661456Y-7768175I15000J0D01*
G01*
X15661456Y-8022175D02*
G75*
G02*
X15631456Y-8022175I-15000J0D01*
G01*
X15631456Y-8022175D02*
G75*
G02*
X15661456Y-8022175I15000J0D01*
G01*
X15661456Y-8276175D02*
G75*
G02*
X15631456Y-8276175I-15000J0D01*
G01*
X15631456Y-8276175D02*
G75*
G02*
X15661456Y-8276175I15000J0D01*
G01*
X15661456Y-8530175D02*
G75*
G02*
X15631456Y-8530175I-15000J0D01*
G01*
X15631456Y-8530175D02*
G75*
G02*
X15661456Y-8530175I15000J0D01*
G01*
X15675000Y-11800000D02*
G75*
G02*
X15645000Y-11800000I-15000J0D01*
G01*
X15645000Y-11800000D02*
G75*
G02*
X15675000Y-11800000I15000J0D01*
G01*
X15755000Y-10790000D02*
G75*
G02*
X15725000Y-10790000I-15000J0D01*
G01*
X15725000Y-10790000D02*
G75*
G02*
X15755000Y-10790000I15000J0D01*
G01*
X15835000Y-9600000D02*
G75*
G02*
X15805000Y-9600000I-15000J0D01*
G01*
X15805000Y-9600000D02*
G75*
G02*
X15835000Y-9600000I15000J0D01*
G01*
X15845000Y-12170000D02*
G75*
G02*
X15815000Y-12170000I-15000J0D01*
G01*
X15815000Y-12170000D02*
G75*
G02*
X15845000Y-12170000I15000J0D01*
G01*
X15845000Y-12330000D02*
G75*
G02*
X15815000Y-12330000I-15000J0D01*
G01*
X15815000Y-12330000D02*
G75*
G02*
X15845000Y-12330000I15000J0D01*
G01*
X15845000Y-12470000D02*
G75*
G02*
X15815000Y-12470000I-15000J0D01*
G01*
X15815000Y-12470000D02*
G75*
G02*
X15845000Y-12470000I15000J0D01*
G01*
X15865000Y-11260000D02*
G75*
G02*
X15835000Y-11260000I-15000J0D01*
G01*
X15835000Y-11260000D02*
G75*
G02*
X15865000Y-11260000I15000J0D01*
G01*
X15885000Y-10490000D02*
G75*
G02*
X15855000Y-10490000I-15000J0D01*
G01*
X15855000Y-10490000D02*
G75*
G02*
X15885000Y-10490000I15000J0D01*
G01*
X15915000Y-9270000D02*
G75*
G02*
X15885000Y-9270000I-15000J0D01*
G01*
X15885000Y-9270000D02*
G75*
G02*
X15915000Y-9270000I15000J0D01*
G01*
X15915456Y-7514175D02*
G75*
G02*
X15885456Y-7514175I-15000J0D01*
G01*
X15885456Y-7514175D02*
G75*
G02*
X15915456Y-7514175I15000J0D01*
G01*
X15915456Y-7768175D02*
G75*
G02*
X15885456Y-7768175I-15000J0D01*
G01*
X15885456Y-7768175D02*
G75*
G02*
X15915456Y-7768175I15000J0D01*
G01*
X15915456Y-8022175D02*
G75*
G02*
X15885456Y-8022175I-15000J0D01*
G01*
X15885456Y-8022175D02*
G75*
G02*
X15915456Y-8022175I15000J0D01*
G01*
X15915456Y-8276175D02*
G75*
G02*
X15885456Y-8276175I-15000J0D01*
G01*
X15885456Y-8276175D02*
G75*
G02*
X15915456Y-8276175I15000J0D01*
G01*
X14130000Y-11180000D02*
X14130000Y-11220000D01*
X14110000Y-11200000D02*
X14150000Y-11200000D01*
X14130000Y-11340000D02*
X14130000Y-11380000D01*
X14110000Y-11360000D02*
X14150000Y-11360000D01*
X14150000Y-10000000D02*
X14150000Y-10040000D01*
X14130000Y-10020000D02*
X14170000Y-10020000D01*
X14210000Y-11740000D02*
X14210000Y-11780000D01*
X14190000Y-11760000D02*
X14230000Y-11760000D01*
X14270000Y-11040000D02*
X14270000Y-11080000D01*
X14250000Y-11060000D02*
X14290000Y-11060000D01*
X14450000Y-11040000D02*
X14450000Y-11080000D01*
X14430000Y-11060000D02*
X14470000Y-11060000D01*
X14460000Y-9840000D02*
X14460000Y-9880000D01*
X14440000Y-9860000D02*
X14480000Y-9860000D01*
X14590000Y-11180000D02*
X14590000Y-11220000D01*
X14570000Y-11200000D02*
X14610000Y-11200000D01*
X14590000Y-11340000D02*
X14590000Y-11380000D01*
X14570000Y-11360000D02*
X14610000Y-11360000D01*
X15200000Y-11850000D02*
X15200000Y-11890000D01*
X15180000Y-11870000D02*
X15220000Y-11870000D01*
X15300000Y-11920000D02*
X15300000Y-11960000D01*
X15280000Y-11940000D02*
X15320000Y-11940000D01*
X14671213Y-12524963D02*
X14671213Y-12482537D01*
X14628787Y-12482537D01*
X14628787Y-12524963D01*
X14671213Y-12524963D01*
X14680000Y-12538750D02*
X14680000Y-12468750D01*
X14620000Y-12468750D02*
G75*
G02*
X14680000Y-12468750I30000J0D01*
G01*
X14620000Y-12468750D02*
X14620000Y-12538750D01*
X14620000Y-12538750D02*
G75*
G03*
X14680000Y-12538750I30000J0D01*
G01*
X15371213Y-12524963D02*
X15371213Y-12482537D01*
X15328787Y-12482537D01*
X15328787Y-12524963D01*
X15371213Y-12524963D01*
X15320000Y-12468750D02*
X15320000Y-12538750D01*
X15380000Y-12538750D02*
G75*
G02*
X15320000Y-12538750I-30000J0D01*
G01*
X15380000Y-12538750D02*
X15380000Y-12468750D01*
X15380000Y-12468750D02*
G75*
G03*
X15320000Y-12468750I-30000J0D01*
G01*
X14750000Y-12276250D02*
X14792500Y-12233750D01*
X14750000Y-12191250D01*
X14707500Y-12233750D01*
X14750000Y-12276250D01*
X15250000Y-12276250D02*
X15292500Y-12233750D01*
X15250000Y-12191250D01*
X15207500Y-12233750D01*
X15250000Y-12276250D01*
X13807000Y-7537000D02*
X13907000Y-7637000D01*
X13907000Y-7537000D02*
X13807000Y-7637000D01*
X13907000Y-7587000D02*
G75*
G02*
X13807000Y-7587000I-50000J0D01*
G01*
X13807000Y-7587000D02*
G75*
G02*
X13907000Y-7587000I50000J0D01*
G01*
X13807000Y-7791000D02*
X13907000Y-7891000D01*
X13907000Y-7791000D02*
X13807000Y-7891000D01*
X13907000Y-7841000D02*
G75*
G02*
X13807000Y-7841000I-50000J0D01*
G01*
X13807000Y-7841000D02*
G75*
G02*
X13907000Y-7841000I50000J0D01*
G01*
X13807000Y-8045000D02*
X13907000Y-8145000D01*
X13907000Y-8045000D02*
X13807000Y-8145000D01*
X13907000Y-8095000D02*
G75*
G02*
X13807000Y-8095000I-50000J0D01*
G01*
X13807000Y-8095000D02*
G75*
G02*
X13907000Y-8095000I50000J0D01*
G01*
X13807000Y-8299000D02*
X13907000Y-8399000D01*
X13907000Y-8299000D02*
X13807000Y-8399000D01*
X13907000Y-8349000D02*
G75*
G02*
X13807000Y-8349000I-50000J0D01*
G01*
X13807000Y-8349000D02*
G75*
G02*
X13907000Y-8349000I50000J0D01*
G01*
X13807000Y-8553000D02*
X13907000Y-8653000D01*
X13907000Y-8553000D02*
X13807000Y-8653000D01*
X13907000Y-8603000D02*
G75*
G02*
X13807000Y-8603000I-50000J0D01*
G01*
X13807000Y-8603000D02*
G75*
G02*
X13907000Y-8603000I50000J0D01*
G01*
X13807000Y-8807000D02*
X13907000Y-8907000D01*
X13907000Y-8807000D02*
X13807000Y-8907000D01*
X13907000Y-8857000D02*
G75*
G02*
X13807000Y-8857000I-50000J0D01*
G01*
X13807000Y-8857000D02*
G75*
G02*
X13907000Y-8857000I50000J0D01*
G01*
X13807000Y-9061000D02*
X13907000Y-9161000D01*
X13907000Y-9061000D02*
X13807000Y-9161000D01*
X13907000Y-9111000D02*
G75*
G02*
X13807000Y-9111000I-50000J0D01*
G01*
X13807000Y-9111000D02*
G75*
G02*
X13907000Y-9111000I50000J0D01*
G01*
X13807000Y-9315000D02*
X13907000Y-9415000D01*
X13907000Y-9315000D02*
X13807000Y-9415000D01*
X13907000Y-9365000D02*
G75*
G02*
X13807000Y-9365000I-50000J0D01*
G01*
X13807000Y-9365000D02*
G75*
G02*
X13907000Y-9365000I50000J0D01*
G01*
X13807000Y-9569000D02*
X13907000Y-9669000D01*
X13907000Y-9569000D02*
X13807000Y-9669000D01*
X13907000Y-9619000D02*
G75*
G02*
X13807000Y-9619000I-50000J0D01*
G01*
X13807000Y-9619000D02*
G75*
G02*
X13907000Y-9619000I50000J0D01*
G01*
X13807000Y-9823000D02*
X13907000Y-9923000D01*
X13907000Y-9823000D02*
X13807000Y-9923000D01*
X13907000Y-9873000D02*
G75*
G02*
X13807000Y-9873000I-50000J0D01*
G01*
X13807000Y-9873000D02*
G75*
G02*
X13907000Y-9873000I50000J0D01*
G01*
X13807000Y-10077000D02*
X13907000Y-10177000D01*
X13907000Y-10077000D02*
X13807000Y-10177000D01*
X13907000Y-10127000D02*
G75*
G02*
X13807000Y-10127000I-50000J0D01*
G01*
X13807000Y-10127000D02*
G75*
G02*
X13907000Y-10127000I50000J0D01*
G01*
X13807000Y-10331000D02*
X13907000Y-10431000D01*
X13907000Y-10331000D02*
X13807000Y-10431000D01*
X13907000Y-10381000D02*
G75*
G02*
X13807000Y-10381000I-50000J0D01*
G01*
X13807000Y-10381000D02*
G75*
G02*
X13907000Y-10381000I50000J0D01*
G01*
X13807000Y-10585000D02*
X13907000Y-10685000D01*
X13907000Y-10585000D02*
X13807000Y-10685000D01*
X13907000Y-10635000D02*
G75*
G02*
X13807000Y-10635000I-50000J0D01*
G01*
X13807000Y-10635000D02*
G75*
G02*
X13907000Y-10635000I50000J0D01*
G01*
X13807000Y-10839000D02*
X13907000Y-10939000D01*
X13907000Y-10839000D02*
X13807000Y-10939000D01*
X13907000Y-10889000D02*
G75*
G02*
X13807000Y-10889000I-50000J0D01*
G01*
X13807000Y-10889000D02*
G75*
G02*
X13907000Y-10889000I50000J0D01*
G01*
X13807000Y-11093000D02*
X13907000Y-11193000D01*
X13907000Y-11093000D02*
X13807000Y-11193000D01*
X13907000Y-11143000D02*
G75*
G02*
X13807000Y-11143000I-50000J0D01*
G01*
X13807000Y-11143000D02*
G75*
G02*
X13907000Y-11143000I50000J0D01*
G01*
X13807000Y-11347000D02*
X13907000Y-11447000D01*
X13907000Y-11347000D02*
X13807000Y-11447000D01*
X13907000Y-11397000D02*
G75*
G02*
X13807000Y-11397000I-50000J0D01*
G01*
X13807000Y-11397000D02*
G75*
G02*
X13907000Y-11397000I50000J0D01*
G01*
X13807000Y-11601000D02*
X13907000Y-11701000D01*
X13907000Y-11601000D02*
X13807000Y-11701000D01*
X13907000Y-11651000D02*
G75*
G02*
X13807000Y-11651000I-50000J0D01*
G01*
X13807000Y-11651000D02*
G75*
G02*
X13907000Y-11651000I50000J0D01*
G01*
X13807000Y-11855000D02*
X13907000Y-11955000D01*
X13907000Y-11855000D02*
X13807000Y-11955000D01*
X13907000Y-11905000D02*
G75*
G02*
X13807000Y-11905000I-50000J0D01*
G01*
X13807000Y-11905000D02*
G75*
G02*
X13907000Y-11905000I50000J0D01*
G01*
X13807000Y-12109000D02*
X13907000Y-12209000D01*
X13907000Y-12109000D02*
X13807000Y-12209000D01*
X13907000Y-12159000D02*
G75*
G02*
X13807000Y-12159000I-50000J0D01*
G01*
X13807000Y-12159000D02*
G75*
G02*
X13907000Y-12159000I50000J0D01*
G01*
X13807000Y-12363000D02*
X13907000Y-12463000D01*
X13907000Y-12363000D02*
X13807000Y-12463000D01*
X13907000Y-12413000D02*
G75*
G02*
X13807000Y-12413000I-50000J0D01*
G01*
X13807000Y-12413000D02*
G75*
G02*
X13907000Y-12413000I50000J0D01*
G01*
X14569000Y-8360000D02*
X14669000Y-8460000D01*
X14669000Y-8360000D02*
X14569000Y-8460000D01*
X14669000Y-8410000D02*
G75*
G02*
X14569000Y-8410000I-50000J0D01*
G01*
X14569000Y-8410000D02*
G75*
G02*
X14669000Y-8410000I50000J0D01*
G01*
X14823000Y-8360000D02*
X14923000Y-8460000D01*
X14923000Y-8360000D02*
X14823000Y-8460000D01*
X14923000Y-8410000D02*
G75*
G02*
X14823000Y-8410000I-50000J0D01*
G01*
X14823000Y-8410000D02*
G75*
G02*
X14923000Y-8410000I50000J0D01*
G01*
X15077000Y-8360000D02*
X15177000Y-8460000D01*
X15177000Y-8360000D02*
X15077000Y-8460000D01*
X15177000Y-8410000D02*
G75*
G02*
X15077000Y-8410000I-50000J0D01*
G01*
X15077000Y-8410000D02*
G75*
G02*
X15177000Y-8410000I50000J0D01*
G01*
X15331000Y-8360000D02*
X15431000Y-8460000D01*
X15431000Y-8360000D02*
X15331000Y-8460000D01*
X15431000Y-8410000D02*
G75*
G02*
X15331000Y-8410000I-50000J0D01*
G01*
X15331000Y-8410000D02*
G75*
G02*
X15431000Y-8410000I50000J0D01*
G01*
X16093000Y-7537000D02*
X16193000Y-7637000D01*
X16193000Y-7537000D02*
X16093000Y-7637000D01*
X16193000Y-7587000D02*
G75*
G02*
X16093000Y-7587000I-50000J0D01*
G01*
X16093000Y-7587000D02*
G75*
G02*
X16193000Y-7587000I50000J0D01*
G01*
X16093000Y-7791000D02*
X16193000Y-7891000D01*
X16193000Y-7791000D02*
X16093000Y-7891000D01*
X16193000Y-7841000D02*
G75*
G02*
X16093000Y-7841000I-50000J0D01*
G01*
X16093000Y-7841000D02*
G75*
G02*
X16193000Y-7841000I50000J0D01*
G01*
X16093000Y-8045000D02*
X16193000Y-8145000D01*
X16193000Y-8045000D02*
X16093000Y-8145000D01*
X16193000Y-8095000D02*
G75*
G02*
X16093000Y-8095000I-50000J0D01*
G01*
X16093000Y-8095000D02*
G75*
G02*
X16193000Y-8095000I50000J0D01*
G01*
X16093000Y-8299000D02*
X16193000Y-8399000D01*
X16193000Y-8299000D02*
X16093000Y-8399000D01*
X16193000Y-8349000D02*
G75*
G02*
X16093000Y-8349000I-50000J0D01*
G01*
X16093000Y-8349000D02*
G75*
G02*
X16193000Y-8349000I50000J0D01*
G01*
X16093000Y-8553000D02*
X16193000Y-8653000D01*
X16193000Y-8553000D02*
X16093000Y-8653000D01*
X16193000Y-8603000D02*
G75*
G02*
X16093000Y-8603000I-50000J0D01*
G01*
X16093000Y-8603000D02*
G75*
G02*
X16193000Y-8603000I50000J0D01*
G01*
X16093000Y-8807000D02*
X16193000Y-8907000D01*
X16193000Y-8807000D02*
X16093000Y-8907000D01*
X16193000Y-8857000D02*
G75*
G02*
X16093000Y-8857000I-50000J0D01*
G01*
X16093000Y-8857000D02*
G75*
G02*
X16193000Y-8857000I50000J0D01*
G01*
X16093000Y-9061000D02*
X16193000Y-9161000D01*
X16193000Y-9061000D02*
X16093000Y-9161000D01*
X16193000Y-9111000D02*
G75*
G02*
X16093000Y-9111000I-50000J0D01*
G01*
X16093000Y-9111000D02*
G75*
G02*
X16193000Y-9111000I50000J0D01*
G01*
X16093000Y-9315000D02*
X16193000Y-9415000D01*
X16193000Y-9315000D02*
X16093000Y-9415000D01*
X16193000Y-9365000D02*
G75*
G02*
X16093000Y-9365000I-50000J0D01*
G01*
X16093000Y-9365000D02*
G75*
G02*
X16193000Y-9365000I50000J0D01*
G01*
X16093000Y-9569000D02*
X16193000Y-9669000D01*
X16193000Y-9569000D02*
X16093000Y-9669000D01*
X16193000Y-9619000D02*
G75*
G02*
X16093000Y-9619000I-50000J0D01*
G01*
X16093000Y-9619000D02*
G75*
G02*
X16193000Y-9619000I50000J0D01*
G01*
X16093000Y-9823000D02*
X16193000Y-9923000D01*
X16193000Y-9823000D02*
X16093000Y-9923000D01*
X16193000Y-9873000D02*
G75*
G02*
X16093000Y-9873000I-50000J0D01*
G01*
X16093000Y-9873000D02*
G75*
G02*
X16193000Y-9873000I50000J0D01*
G01*
X16093000Y-10077000D02*
X16193000Y-10177000D01*
X16193000Y-10077000D02*
X16093000Y-10177000D01*
X16193000Y-10127000D02*
G75*
G02*
X16093000Y-10127000I-50000J0D01*
G01*
X16093000Y-10127000D02*
G75*
G02*
X16193000Y-10127000I50000J0D01*
G01*
X16093000Y-10331000D02*
X16193000Y-10431000D01*
X16193000Y-10331000D02*
X16093000Y-10431000D01*
X16193000Y-10381000D02*
G75*
G02*
X16093000Y-10381000I-50000J0D01*
G01*
X16093000Y-10381000D02*
G75*
G02*
X16193000Y-10381000I50000J0D01*
G01*
X16093000Y-10585000D02*
X16193000Y-10685000D01*
X16193000Y-10585000D02*
X16093000Y-10685000D01*
X16193000Y-10635000D02*
G75*
G02*
X16093000Y-10635000I-50000J0D01*
G01*
X16093000Y-10635000D02*
G75*
G02*
X16193000Y-10635000I50000J0D01*
G01*
X16093000Y-10839000D02*
X16193000Y-10939000D01*
X16193000Y-10839000D02*
X16093000Y-10939000D01*
X16193000Y-10889000D02*
G75*
G02*
X16093000Y-10889000I-50000J0D01*
G01*
X16093000Y-10889000D02*
G75*
G02*
X16193000Y-10889000I50000J0D01*
G01*
X16093000Y-11093000D02*
X16193000Y-11193000D01*
X16193000Y-11093000D02*
X16093000Y-11193000D01*
X16193000Y-11143000D02*
G75*
G02*
X16093000Y-11143000I-50000J0D01*
G01*
X16093000Y-11143000D02*
G75*
G02*
X16193000Y-11143000I50000J0D01*
G01*
X16093000Y-11347000D02*
X16193000Y-11447000D01*
X16193000Y-11347000D02*
X16093000Y-11447000D01*
X16193000Y-11397000D02*
G75*
G02*
X16093000Y-11397000I-50000J0D01*
G01*
X16093000Y-11397000D02*
G75*
G02*
X16193000Y-11397000I50000J0D01*
G01*
X16093000Y-11601000D02*
X16193000Y-11701000D01*
X16193000Y-11601000D02*
X16093000Y-11701000D01*
X16193000Y-11651000D02*
G75*
G02*
X16093000Y-11651000I-50000J0D01*
G01*
X16093000Y-11651000D02*
G75*
G02*
X16193000Y-11651000I50000J0D01*
G01*
X16093000Y-11855000D02*
X16193000Y-11955000D01*
X16193000Y-11855000D02*
X16093000Y-11955000D01*
X16193000Y-11905000D02*
G75*
G02*
X16093000Y-11905000I-50000J0D01*
G01*
X16093000Y-11905000D02*
G75*
G02*
X16193000Y-11905000I50000J0D01*
G01*
X16093000Y-12109000D02*
X16193000Y-12209000D01*
X16193000Y-12109000D02*
X16093000Y-12209000D01*
X16193000Y-12159000D02*
G75*
G02*
X16093000Y-12159000I-50000J0D01*
G01*
X16093000Y-12159000D02*
G75*
G02*
X16193000Y-12159000I50000J0D01*
G01*
X16093000Y-12363000D02*
X16193000Y-12463000D01*
X16193000Y-12363000D02*
X16093000Y-12463000D01*
X16193000Y-12413000D02*
G75*
G02*
X16093000Y-12413000I-50000J0D01*
G01*
X16093000Y-12413000D02*
G75*
G02*
X16193000Y-12413000I50000J0D01*
G01*
D11*
X13888277Y-12963984D02*
X13888277Y-12763984D01*
X13888277Y-12763984D02*
X13935896Y-12763984D01*
X13935896Y-12763984D02*
X13964467Y-12773508D01*
X13964467Y-12773508D02*
X13983515Y-12792555D01*
X13983515Y-12792555D02*
X13993039Y-12811603D01*
X13993039Y-12811603D02*
X14002562Y-12849698D01*
X14002562Y-12849698D02*
X14002562Y-12878269D01*
X14002562Y-12878269D02*
X13993039Y-12916365D01*
X13993039Y-12916365D02*
X13983515Y-12935412D01*
X13983515Y-12935412D02*
X13964467Y-12954460D01*
X13964467Y-12954460D02*
X13935896Y-12963984D01*
X13935896Y-12963984D02*
X13888277Y-12963984D01*
X14088277Y-12963984D02*
X14088277Y-12830650D01*
X14088277Y-12868746D02*
X14097801Y-12849698D01*
X14097801Y-12849698D02*
X14107324Y-12840174D01*
X14107324Y-12840174D02*
X14126372Y-12830650D01*
X14126372Y-12830650D02*
X14145420Y-12830650D01*
X14212086Y-12963984D02*
X14212086Y-12830650D01*
X14212086Y-12763984D02*
X14202562Y-12773508D01*
X14202562Y-12773508D02*
X14212086Y-12783031D01*
X14212086Y-12783031D02*
X14221610Y-12773508D01*
X14221610Y-12773508D02*
X14212086Y-12763984D01*
X14212086Y-12763984D02*
X14212086Y-12783031D01*
X14335896Y-12963984D02*
X14316848Y-12954460D01*
X14316848Y-12954460D02*
X14307324Y-12935412D01*
X14307324Y-12935412D02*
X14307324Y-12763984D01*
X14440658Y-12963984D02*
X14421610Y-12954460D01*
X14421610Y-12954460D02*
X14412086Y-12935412D01*
X14412086Y-12935412D02*
X14412086Y-12763984D01*
X14669229Y-12963984D02*
X14669229Y-12763984D01*
X14669229Y-12763984D02*
X14735896Y-12906841D01*
X14735896Y-12906841D02*
X14802562Y-12763984D01*
X14802562Y-12763984D02*
X14802562Y-12963984D01*
X14983515Y-12963984D02*
X14983515Y-12859222D01*
X14983515Y-12859222D02*
X14973991Y-12840174D01*
X14973991Y-12840174D02*
X14954943Y-12830650D01*
X14954943Y-12830650D02*
X14916848Y-12830650D01*
X14916848Y-12830650D02*
X14897801Y-12840174D01*
X14983515Y-12954460D02*
X14964467Y-12963984D01*
X14964467Y-12963984D02*
X14916848Y-12963984D01*
X14916848Y-12963984D02*
X14897801Y-12954460D01*
X14897801Y-12954460D02*
X14888277Y-12935412D01*
X14888277Y-12935412D02*
X14888277Y-12916365D01*
X14888277Y-12916365D02*
X14897801Y-12897317D01*
X14897801Y-12897317D02*
X14916848Y-12887793D01*
X14916848Y-12887793D02*
X14964467Y-12887793D01*
X14964467Y-12887793D02*
X14983515Y-12878269D01*
X15078753Y-12830650D02*
X15078753Y-13030650D01*
X15078753Y-12840174D02*
X15097801Y-12830650D01*
X15097801Y-12830650D02*
X15135896Y-12830650D01*
X15135896Y-12830650D02*
X15154943Y-12840174D01*
X15154943Y-12840174D02*
X15164467Y-12849698D01*
X15164467Y-12849698D02*
X15173991Y-12868746D01*
X15173991Y-12868746D02*
X15173991Y-12925888D01*
X15173991Y-12925888D02*
X15164467Y-12944936D01*
X15164467Y-12944936D02*
X15154943Y-12954460D01*
X15154943Y-12954460D02*
X15135896Y-12963984D01*
X15135896Y-12963984D02*
X15097801Y-12963984D01*
X15097801Y-12963984D02*
X15078753Y-12954460D01*
X15259705Y-12944936D02*
X15269229Y-12954460D01*
X15269229Y-12954460D02*
X15259705Y-12963984D01*
X15259705Y-12963984D02*
X15250182Y-12954460D01*
X15250182Y-12954460D02*
X15259705Y-12944936D01*
X15259705Y-12944936D02*
X15259705Y-12963984D01*
X15259705Y-12840174D02*
X15269229Y-12849698D01*
X15269229Y-12849698D02*
X15259705Y-12859222D01*
X15259705Y-12859222D02*
X15250182Y-12849698D01*
X15250182Y-12849698D02*
X15259705Y-12840174D01*
X15259705Y-12840174D02*
X15259705Y-12859222D01*
D12*
X13607500Y-13282500D02*
X13627500Y-13302500D01*
X13627500Y-13282500D02*
X13607500Y-13302500D01*
D11*
X13926372Y-13183984D02*
X13945420Y-13183984D01*
X13945420Y-13183984D02*
X13964467Y-13193508D01*
X13964467Y-13193508D02*
X13973991Y-13203031D01*
X13973991Y-13203031D02*
X13983515Y-13222079D01*
X13983515Y-13222079D02*
X13993039Y-13260174D01*
X13993039Y-13260174D02*
X13993039Y-13307793D01*
X13993039Y-13307793D02*
X13983515Y-13345888D01*
X13983515Y-13345888D02*
X13973991Y-13364936D01*
X13973991Y-13364936D02*
X13964467Y-13374460D01*
X13964467Y-13374460D02*
X13945420Y-13383984D01*
X13945420Y-13383984D02*
X13926372Y-13383984D01*
X13926372Y-13383984D02*
X13907324Y-13374460D01*
X13907324Y-13374460D02*
X13897801Y-13364936D01*
X13897801Y-13364936D02*
X13888277Y-13345888D01*
X13888277Y-13345888D02*
X13878753Y-13307793D01*
X13878753Y-13307793D02*
X13878753Y-13260174D01*
X13878753Y-13260174D02*
X13888277Y-13222079D01*
X13888277Y-13222079D02*
X13897801Y-13203031D01*
X13897801Y-13203031D02*
X13907324Y-13193508D01*
X13907324Y-13193508D02*
X13926372Y-13183984D01*
X14078753Y-13364936D02*
X14088277Y-13374460D01*
X14088277Y-13374460D02*
X14078753Y-13383984D01*
X14078753Y-13383984D02*
X14069229Y-13374460D01*
X14069229Y-13374460D02*
X14078753Y-13364936D01*
X14078753Y-13364936D02*
X14078753Y-13383984D01*
X14164467Y-13203031D02*
X14173991Y-13193508D01*
X14173991Y-13193508D02*
X14193039Y-13183984D01*
X14193039Y-13183984D02*
X14240658Y-13183984D01*
X14240658Y-13183984D02*
X14259705Y-13193508D01*
X14259705Y-13193508D02*
X14269229Y-13203031D01*
X14269229Y-13203031D02*
X14278753Y-13222079D01*
X14278753Y-13222079D02*
X14278753Y-13241127D01*
X14278753Y-13241127D02*
X14269229Y-13269698D01*
X14269229Y-13269698D02*
X14154943Y-13383984D01*
X14154943Y-13383984D02*
X14278753Y-13383984D01*
X14402562Y-13183984D02*
X14421610Y-13183984D01*
X14421610Y-13183984D02*
X14440658Y-13193508D01*
X14440658Y-13193508D02*
X14450182Y-13203031D01*
X14450182Y-13203031D02*
X14459705Y-13222079D01*
X14459705Y-13222079D02*
X14469229Y-13260174D01*
X14469229Y-13260174D02*
X14469229Y-13307793D01*
X14469229Y-13307793D02*
X14459705Y-13345888D01*
X14459705Y-13345888D02*
X14450182Y-13364936D01*
X14450182Y-13364936D02*
X14440658Y-13374460D01*
X14440658Y-13374460D02*
X14421610Y-13383984D01*
X14421610Y-13383984D02*
X14402562Y-13383984D01*
X14402562Y-13383984D02*
X14383515Y-13374460D01*
X14383515Y-13374460D02*
X14373991Y-13364936D01*
X14373991Y-13364936D02*
X14364467Y-13345888D01*
X14364467Y-13345888D02*
X14354943Y-13307793D01*
X14354943Y-13307793D02*
X14354943Y-13260174D01*
X14354943Y-13260174D02*
X14364467Y-13222079D01*
X14364467Y-13222079D02*
X14373991Y-13203031D01*
X14373991Y-13203031D02*
X14383515Y-13193508D01*
X14383515Y-13193508D02*
X14402562Y-13183984D01*
X14593039Y-13183984D02*
X14612086Y-13183984D01*
X14612086Y-13183984D02*
X14631134Y-13193508D01*
X14631134Y-13193508D02*
X14640658Y-13203031D01*
X14640658Y-13203031D02*
X14650182Y-13222079D01*
X14650182Y-13222079D02*
X14659705Y-13260174D01*
X14659705Y-13260174D02*
X14659705Y-13307793D01*
X14659705Y-13307793D02*
X14650182Y-13345888D01*
X14650182Y-13345888D02*
X14640658Y-13364936D01*
X14640658Y-13364936D02*
X14631134Y-13374460D01*
X14631134Y-13374460D02*
X14612086Y-13383984D01*
X14612086Y-13383984D02*
X14593039Y-13383984D01*
X14593039Y-13383984D02*
X14573991Y-13374460D01*
X14573991Y-13374460D02*
X14564467Y-13364936D01*
X14564467Y-13364936D02*
X14554943Y-13345888D01*
X14554943Y-13345888D02*
X14545420Y-13307793D01*
X14545420Y-13307793D02*
X14545420Y-13260174D01*
X14545420Y-13260174D02*
X14554943Y-13222079D01*
X14554943Y-13222079D02*
X14564467Y-13203031D01*
X14564467Y-13203031D02*
X14573991Y-13193508D01*
X14573991Y-13193508D02*
X14593039Y-13183984D01*
X14745420Y-13383984D02*
X14745420Y-13250650D01*
X14745420Y-13269698D02*
X14754943Y-13260174D01*
X14754943Y-13260174D02*
X14773991Y-13250650D01*
X14773991Y-13250650D02*
X14802563Y-13250650D01*
X14802563Y-13250650D02*
X14821610Y-13260174D01*
X14821610Y-13260174D02*
X14831134Y-13279222D01*
X14831134Y-13279222D02*
X14831134Y-13383984D01*
X14831134Y-13279222D02*
X14840658Y-13260174D01*
X14840658Y-13260174D02*
X14859705Y-13250650D01*
X14859705Y-13250650D02*
X14888277Y-13250650D01*
X14888277Y-13250650D02*
X14907324Y-13260174D01*
X14907324Y-13260174D02*
X14916848Y-13279222D01*
X14916848Y-13279222D02*
X14916848Y-13383984D01*
X15012086Y-13383984D02*
X15012086Y-13250650D01*
X15012086Y-13269698D02*
X15021610Y-13260174D01*
X15021610Y-13260174D02*
X15040658Y-13250650D01*
X15040658Y-13250650D02*
X15069229Y-13250650D01*
X15069229Y-13250650D02*
X15088277Y-13260174D01*
X15088277Y-13260174D02*
X15097801Y-13279222D01*
X15097801Y-13279222D02*
X15097801Y-13383984D01*
X15097801Y-13279222D02*
X15107324Y-13260174D01*
X15107324Y-13260174D02*
X15126372Y-13250650D01*
X15126372Y-13250650D02*
X15154943Y-13250650D01*
X15154943Y-13250650D02*
X15173991Y-13260174D01*
X15173991Y-13260174D02*
X15183515Y-13279222D01*
X15183515Y-13279222D02*
X15183515Y-13383984D01*
X15573991Y-13174460D02*
X15402563Y-13431603D01*
X15831134Y-13183984D02*
X15850182Y-13183984D01*
X15850182Y-13183984D02*
X15869229Y-13193508D01*
X15869229Y-13193508D02*
X15878753Y-13203031D01*
X15878753Y-13203031D02*
X15888277Y-13222079D01*
X15888277Y-13222079D02*
X15897801Y-13260174D01*
X15897801Y-13260174D02*
X15897801Y-13307793D01*
X15897801Y-13307793D02*
X15888277Y-13345888D01*
X15888277Y-13345888D02*
X15878753Y-13364936D01*
X15878753Y-13364936D02*
X15869229Y-13374460D01*
X15869229Y-13374460D02*
X15850182Y-13383984D01*
X15850182Y-13383984D02*
X15831134Y-13383984D01*
X15831134Y-13383984D02*
X15812086Y-13374460D01*
X15812086Y-13374460D02*
X15802563Y-13364936D01*
X15802563Y-13364936D02*
X15793039Y-13345888D01*
X15793039Y-13345888D02*
X15783515Y-13307793D01*
X15783515Y-13307793D02*
X15783515Y-13260174D01*
X15783515Y-13260174D02*
X15793039Y-13222079D01*
X15793039Y-13222079D02*
X15802563Y-13203031D01*
X15802563Y-13203031D02*
X15812086Y-13193508D01*
X15812086Y-13193508D02*
X15831134Y-13183984D01*
X15983515Y-13364936D02*
X15993039Y-13374460D01*
X15993039Y-13374460D02*
X15983515Y-13383984D01*
X15983515Y-13383984D02*
X15973991Y-13374460D01*
X15973991Y-13374460D02*
X15983515Y-13364936D01*
X15983515Y-13364936D02*
X15983515Y-13383984D01*
X16116848Y-13183984D02*
X16135896Y-13183984D01*
X16135896Y-13183984D02*
X16154944Y-13193508D01*
X16154944Y-13193508D02*
X16164467Y-13203031D01*
X16164467Y-13203031D02*
X16173991Y-13222079D01*
X16173991Y-13222079D02*
X16183515Y-13260174D01*
X16183515Y-13260174D02*
X16183515Y-13307793D01*
X16183515Y-13307793D02*
X16173991Y-13345888D01*
X16173991Y-13345888D02*
X16164467Y-13364936D01*
X16164467Y-13364936D02*
X16154944Y-13374460D01*
X16154944Y-13374460D02*
X16135896Y-13383984D01*
X16135896Y-13383984D02*
X16116848Y-13383984D01*
X16116848Y-13383984D02*
X16097801Y-13374460D01*
X16097801Y-13374460D02*
X16088277Y-13364936D01*
X16088277Y-13364936D02*
X16078753Y-13345888D01*
X16078753Y-13345888D02*
X16069229Y-13307793D01*
X16069229Y-13307793D02*
X16069229Y-13260174D01*
X16069229Y-13260174D02*
X16078753Y-13222079D01*
X16078753Y-13222079D02*
X16088277Y-13203031D01*
X16088277Y-13203031D02*
X16097801Y-13193508D01*
X16097801Y-13193508D02*
X16116848Y-13183984D01*
X16307325Y-13183984D02*
X16326372Y-13183984D01*
X16326372Y-13183984D02*
X16345420Y-13193508D01*
X16345420Y-13193508D02*
X16354944Y-13203031D01*
X16354944Y-13203031D02*
X16364467Y-13222079D01*
X16364467Y-13222079D02*
X16373991Y-13260174D01*
X16373991Y-13260174D02*
X16373991Y-13307793D01*
X16373991Y-13307793D02*
X16364467Y-13345888D01*
X16364467Y-13345888D02*
X16354944Y-13364936D01*
X16354944Y-13364936D02*
X16345420Y-13374460D01*
X16345420Y-13374460D02*
X16326372Y-13383984D01*
X16326372Y-13383984D02*
X16307325Y-13383984D01*
X16307325Y-13383984D02*
X16288277Y-13374460D01*
X16288277Y-13374460D02*
X16278753Y-13364936D01*
X16278753Y-13364936D02*
X16269229Y-13345888D01*
X16269229Y-13345888D02*
X16259706Y-13307793D01*
X16259706Y-13307793D02*
X16259706Y-13260174D01*
X16259706Y-13260174D02*
X16269229Y-13222079D01*
X16269229Y-13222079D02*
X16278753Y-13203031D01*
X16278753Y-13203031D02*
X16288277Y-13193508D01*
X16288277Y-13193508D02*
X16307325Y-13183984D01*
X16440658Y-13183984D02*
X16573991Y-13183984D01*
X16573991Y-13183984D02*
X16488277Y-13383984D01*
X16659706Y-13383984D02*
X16697801Y-13383984D01*
X16697801Y-13383984D02*
X16716848Y-13374460D01*
X16716848Y-13374460D02*
X16726372Y-13364936D01*
X16726372Y-13364936D02*
X16745420Y-13336365D01*
X16745420Y-13336365D02*
X16754944Y-13298269D01*
X16754944Y-13298269D02*
X16754944Y-13222079D01*
X16754944Y-13222079D02*
X16745420Y-13203031D01*
X16745420Y-13203031D02*
X16735896Y-13193508D01*
X16735896Y-13193508D02*
X16716848Y-13183984D01*
X16716848Y-13183984D02*
X16678753Y-13183984D01*
X16678753Y-13183984D02*
X16659706Y-13193508D01*
X16659706Y-13193508D02*
X16650182Y-13203031D01*
X16650182Y-13203031D02*
X16640658Y-13222079D01*
X16640658Y-13222079D02*
X16640658Y-13269698D01*
X16640658Y-13269698D02*
X16650182Y-13288746D01*
X16650182Y-13288746D02*
X16659706Y-13298269D01*
X16659706Y-13298269D02*
X16678753Y-13307793D01*
X16678753Y-13307793D02*
X16716848Y-13307793D01*
X16716848Y-13307793D02*
X16735896Y-13298269D01*
X16735896Y-13298269D02*
X16745420Y-13288746D01*
X16745420Y-13288746D02*
X16754944Y-13269698D01*
X16831134Y-13183984D02*
X16831134Y-13222079D01*
X16907325Y-13183984D02*
X16907325Y-13222079D01*
X17202563Y-13460174D02*
X17193039Y-13450650D01*
X17193039Y-13450650D02*
X17173991Y-13422079D01*
X17173991Y-13422079D02*
X17164468Y-13403031D01*
X17164468Y-13403031D02*
X17154944Y-13374460D01*
X17154944Y-13374460D02*
X17145420Y-13326841D01*
X17145420Y-13326841D02*
X17145420Y-13288746D01*
X17145420Y-13288746D02*
X17154944Y-13241127D01*
X17154944Y-13241127D02*
X17164468Y-13212555D01*
X17164468Y-13212555D02*
X17173991Y-13193508D01*
X17173991Y-13193508D02*
X17193039Y-13164936D01*
X17193039Y-13164936D02*
X17202563Y-13155412D01*
X17288277Y-13383984D02*
X17326372Y-13383984D01*
X17326372Y-13383984D02*
X17345420Y-13374460D01*
X17345420Y-13374460D02*
X17354944Y-13364936D01*
X17354944Y-13364936D02*
X17373991Y-13336365D01*
X17373991Y-13336365D02*
X17383515Y-13298269D01*
X17383515Y-13298269D02*
X17383515Y-13222079D01*
X17383515Y-13222079D02*
X17373991Y-13203031D01*
X17373991Y-13203031D02*
X17364468Y-13193508D01*
X17364468Y-13193508D02*
X17345420Y-13183984D01*
X17345420Y-13183984D02*
X17307325Y-13183984D01*
X17307325Y-13183984D02*
X17288277Y-13193508D01*
X17288277Y-13193508D02*
X17278753Y-13203031D01*
X17278753Y-13203031D02*
X17269230Y-13222079D01*
X17269230Y-13222079D02*
X17269230Y-13269698D01*
X17269230Y-13269698D02*
X17278753Y-13288746D01*
X17278753Y-13288746D02*
X17288277Y-13298269D01*
X17288277Y-13298269D02*
X17307325Y-13307793D01*
X17307325Y-13307793D02*
X17345420Y-13307793D01*
X17345420Y-13307793D02*
X17364468Y-13298269D01*
X17364468Y-13298269D02*
X17373991Y-13288746D01*
X17373991Y-13288746D02*
X17383515Y-13269698D01*
X17621611Y-13383984D02*
X17621611Y-13183984D01*
X17707325Y-13383984D02*
X17707325Y-13279222D01*
X17707325Y-13279222D02*
X17697801Y-13260174D01*
X17697801Y-13260174D02*
X17678753Y-13250650D01*
X17678753Y-13250650D02*
X17650182Y-13250650D01*
X17650182Y-13250650D02*
X17631134Y-13260174D01*
X17631134Y-13260174D02*
X17621611Y-13269698D01*
X17831134Y-13383984D02*
X17812087Y-13374460D01*
X17812087Y-13374460D02*
X17802563Y-13364936D01*
X17802563Y-13364936D02*
X17793039Y-13345888D01*
X17793039Y-13345888D02*
X17793039Y-13288746D01*
X17793039Y-13288746D02*
X17802563Y-13269698D01*
X17802563Y-13269698D02*
X17812087Y-13260174D01*
X17812087Y-13260174D02*
X17831134Y-13250650D01*
X17831134Y-13250650D02*
X17859706Y-13250650D01*
X17859706Y-13250650D02*
X17878753Y-13260174D01*
X17878753Y-13260174D02*
X17888277Y-13269698D01*
X17888277Y-13269698D02*
X17897801Y-13288746D01*
X17897801Y-13288746D02*
X17897801Y-13345888D01*
X17897801Y-13345888D02*
X17888277Y-13364936D01*
X17888277Y-13364936D02*
X17878753Y-13374460D01*
X17878753Y-13374460D02*
X17859706Y-13383984D01*
X17859706Y-13383984D02*
X17831134Y-13383984D01*
X18012087Y-13383984D02*
X17993039Y-13374460D01*
X17993039Y-13374460D02*
X17983515Y-13355412D01*
X17983515Y-13355412D02*
X17983515Y-13183984D01*
X18164468Y-13374460D02*
X18145420Y-13383984D01*
X18145420Y-13383984D02*
X18107325Y-13383984D01*
X18107325Y-13383984D02*
X18088277Y-13374460D01*
X18088277Y-13374460D02*
X18078753Y-13355412D01*
X18078753Y-13355412D02*
X18078753Y-13279222D01*
X18078753Y-13279222D02*
X18088277Y-13260174D01*
X18088277Y-13260174D02*
X18107325Y-13250650D01*
X18107325Y-13250650D02*
X18145420Y-13250650D01*
X18145420Y-13250650D02*
X18164468Y-13260174D01*
X18164468Y-13260174D02*
X18173992Y-13279222D01*
X18173992Y-13279222D02*
X18173992Y-13298269D01*
X18173992Y-13298269D02*
X18078753Y-13317317D01*
X18250182Y-13374460D02*
X18269230Y-13383984D01*
X18269230Y-13383984D02*
X18307325Y-13383984D01*
X18307325Y-13383984D02*
X18326373Y-13374460D01*
X18326373Y-13374460D02*
X18335896Y-13355412D01*
X18335896Y-13355412D02*
X18335896Y-13345888D01*
X18335896Y-13345888D02*
X18326373Y-13326841D01*
X18326373Y-13326841D02*
X18307325Y-13317317D01*
X18307325Y-13317317D02*
X18278753Y-13317317D01*
X18278753Y-13317317D02*
X18259706Y-13307793D01*
X18259706Y-13307793D02*
X18250182Y-13288746D01*
X18250182Y-13288746D02*
X18250182Y-13279222D01*
X18250182Y-13279222D02*
X18259706Y-13260174D01*
X18259706Y-13260174D02*
X18278753Y-13250650D01*
X18278753Y-13250650D02*
X18307325Y-13250650D01*
X18307325Y-13250650D02*
X18326373Y-13260174D01*
X18402563Y-13460174D02*
X18412087Y-13450650D01*
X18412087Y-13450650D02*
X18431134Y-13422079D01*
X18431134Y-13422079D02*
X18440658Y-13403031D01*
X18440658Y-13403031D02*
X18450182Y-13374460D01*
X18450182Y-13374460D02*
X18459706Y-13326841D01*
X18459706Y-13326841D02*
X18459706Y-13288746D01*
X18459706Y-13288746D02*
X18450182Y-13241127D01*
X18450182Y-13241127D02*
X18440658Y-13212555D01*
X18440658Y-13212555D02*
X18431134Y-13193508D01*
X18431134Y-13193508D02*
X18412087Y-13164936D01*
X18412087Y-13164936D02*
X18402563Y-13155412D01*
D12*
X13627500Y-13556500D02*
G75*
G02*
X13597500Y-13556500I-15000J0D01*
G01*
X13597500Y-13556500D02*
G75*
G02*
X13627500Y-13556500I15000J0D01*
G01*
D11*
X13926372Y-13447984D02*
X13945420Y-13447984D01*
X13945420Y-13447984D02*
X13964467Y-13457508D01*
X13964467Y-13457508D02*
X13973991Y-13467031D01*
X13973991Y-13467031D02*
X13983515Y-13486079D01*
X13983515Y-13486079D02*
X13993039Y-13524174D01*
X13993039Y-13524174D02*
X13993039Y-13571793D01*
X13993039Y-13571793D02*
X13983515Y-13609888D01*
X13983515Y-13609888D02*
X13973991Y-13628936D01*
X13973991Y-13628936D02*
X13964467Y-13638460D01*
X13964467Y-13638460D02*
X13945420Y-13647984D01*
X13945420Y-13647984D02*
X13926372Y-13647984D01*
X13926372Y-13647984D02*
X13907324Y-13638460D01*
X13907324Y-13638460D02*
X13897801Y-13628936D01*
X13897801Y-13628936D02*
X13888277Y-13609888D01*
X13888277Y-13609888D02*
X13878753Y-13571793D01*
X13878753Y-13571793D02*
X13878753Y-13524174D01*
X13878753Y-13524174D02*
X13888277Y-13486079D01*
X13888277Y-13486079D02*
X13897801Y-13467031D01*
X13897801Y-13467031D02*
X13907324Y-13457508D01*
X13907324Y-13457508D02*
X13926372Y-13447984D01*
X14078753Y-13628936D02*
X14088277Y-13638460D01*
X14088277Y-13638460D02*
X14078753Y-13647984D01*
X14078753Y-13647984D02*
X14069229Y-13638460D01*
X14069229Y-13638460D02*
X14078753Y-13628936D01*
X14078753Y-13628936D02*
X14078753Y-13647984D01*
X14154943Y-13447984D02*
X14278753Y-13447984D01*
X14278753Y-13447984D02*
X14212086Y-13524174D01*
X14212086Y-13524174D02*
X14240658Y-13524174D01*
X14240658Y-13524174D02*
X14259705Y-13533698D01*
X14259705Y-13533698D02*
X14269229Y-13543222D01*
X14269229Y-13543222D02*
X14278753Y-13562269D01*
X14278753Y-13562269D02*
X14278753Y-13609888D01*
X14278753Y-13609888D02*
X14269229Y-13628936D01*
X14269229Y-13628936D02*
X14259705Y-13638460D01*
X14259705Y-13638460D02*
X14240658Y-13647984D01*
X14240658Y-13647984D02*
X14183515Y-13647984D01*
X14183515Y-13647984D02*
X14164467Y-13638460D01*
X14164467Y-13638460D02*
X14154943Y-13628936D01*
X14402562Y-13447984D02*
X14421610Y-13447984D01*
X14421610Y-13447984D02*
X14440658Y-13457508D01*
X14440658Y-13457508D02*
X14450182Y-13467031D01*
X14450182Y-13467031D02*
X14459705Y-13486079D01*
X14459705Y-13486079D02*
X14469229Y-13524174D01*
X14469229Y-13524174D02*
X14469229Y-13571793D01*
X14469229Y-13571793D02*
X14459705Y-13609888D01*
X14459705Y-13609888D02*
X14450182Y-13628936D01*
X14450182Y-13628936D02*
X14440658Y-13638460D01*
X14440658Y-13638460D02*
X14421610Y-13647984D01*
X14421610Y-13647984D02*
X14402562Y-13647984D01*
X14402562Y-13647984D02*
X14383515Y-13638460D01*
X14383515Y-13638460D02*
X14373991Y-13628936D01*
X14373991Y-13628936D02*
X14364467Y-13609888D01*
X14364467Y-13609888D02*
X14354943Y-13571793D01*
X14354943Y-13571793D02*
X14354943Y-13524174D01*
X14354943Y-13524174D02*
X14364467Y-13486079D01*
X14364467Y-13486079D02*
X14373991Y-13467031D01*
X14373991Y-13467031D02*
X14383515Y-13457508D01*
X14383515Y-13457508D02*
X14402562Y-13447984D01*
X14593039Y-13447984D02*
X14612086Y-13447984D01*
X14612086Y-13447984D02*
X14631134Y-13457508D01*
X14631134Y-13457508D02*
X14640658Y-13467031D01*
X14640658Y-13467031D02*
X14650182Y-13486079D01*
X14650182Y-13486079D02*
X14659705Y-13524174D01*
X14659705Y-13524174D02*
X14659705Y-13571793D01*
X14659705Y-13571793D02*
X14650182Y-13609888D01*
X14650182Y-13609888D02*
X14640658Y-13628936D01*
X14640658Y-13628936D02*
X14631134Y-13638460D01*
X14631134Y-13638460D02*
X14612086Y-13647984D01*
X14612086Y-13647984D02*
X14593039Y-13647984D01*
X14593039Y-13647984D02*
X14573991Y-13638460D01*
X14573991Y-13638460D02*
X14564467Y-13628936D01*
X14564467Y-13628936D02*
X14554943Y-13609888D01*
X14554943Y-13609888D02*
X14545420Y-13571793D01*
X14545420Y-13571793D02*
X14545420Y-13524174D01*
X14545420Y-13524174D02*
X14554943Y-13486079D01*
X14554943Y-13486079D02*
X14564467Y-13467031D01*
X14564467Y-13467031D02*
X14573991Y-13457508D01*
X14573991Y-13457508D02*
X14593039Y-13447984D01*
X14745420Y-13647984D02*
X14745420Y-13514650D01*
X14745420Y-13533698D02*
X14754943Y-13524174D01*
X14754943Y-13524174D02*
X14773991Y-13514650D01*
X14773991Y-13514650D02*
X14802563Y-13514650D01*
X14802563Y-13514650D02*
X14821610Y-13524174D01*
X14821610Y-13524174D02*
X14831134Y-13543222D01*
X14831134Y-13543222D02*
X14831134Y-13647984D01*
X14831134Y-13543222D02*
X14840658Y-13524174D01*
X14840658Y-13524174D02*
X14859705Y-13514650D01*
X14859705Y-13514650D02*
X14888277Y-13514650D01*
X14888277Y-13514650D02*
X14907324Y-13524174D01*
X14907324Y-13524174D02*
X14916848Y-13543222D01*
X14916848Y-13543222D02*
X14916848Y-13647984D01*
X15012086Y-13647984D02*
X15012086Y-13514650D01*
X15012086Y-13533698D02*
X15021610Y-13524174D01*
X15021610Y-13524174D02*
X15040658Y-13514650D01*
X15040658Y-13514650D02*
X15069229Y-13514650D01*
X15069229Y-13514650D02*
X15088277Y-13524174D01*
X15088277Y-13524174D02*
X15097801Y-13543222D01*
X15097801Y-13543222D02*
X15097801Y-13647984D01*
X15097801Y-13543222D02*
X15107324Y-13524174D01*
X15107324Y-13524174D02*
X15126372Y-13514650D01*
X15126372Y-13514650D02*
X15154943Y-13514650D01*
X15154943Y-13514650D02*
X15173991Y-13524174D01*
X15173991Y-13524174D02*
X15183515Y-13543222D01*
X15183515Y-13543222D02*
X15183515Y-13647984D01*
X15573991Y-13438460D02*
X15402563Y-13695603D01*
X15831134Y-13447984D02*
X15850182Y-13447984D01*
X15850182Y-13447984D02*
X15869229Y-13457508D01*
X15869229Y-13457508D02*
X15878753Y-13467031D01*
X15878753Y-13467031D02*
X15888277Y-13486079D01*
X15888277Y-13486079D02*
X15897801Y-13524174D01*
X15897801Y-13524174D02*
X15897801Y-13571793D01*
X15897801Y-13571793D02*
X15888277Y-13609888D01*
X15888277Y-13609888D02*
X15878753Y-13628936D01*
X15878753Y-13628936D02*
X15869229Y-13638460D01*
X15869229Y-13638460D02*
X15850182Y-13647984D01*
X15850182Y-13647984D02*
X15831134Y-13647984D01*
X15831134Y-13647984D02*
X15812086Y-13638460D01*
X15812086Y-13638460D02*
X15802563Y-13628936D01*
X15802563Y-13628936D02*
X15793039Y-13609888D01*
X15793039Y-13609888D02*
X15783515Y-13571793D01*
X15783515Y-13571793D02*
X15783515Y-13524174D01*
X15783515Y-13524174D02*
X15793039Y-13486079D01*
X15793039Y-13486079D02*
X15802563Y-13467031D01*
X15802563Y-13467031D02*
X15812086Y-13457508D01*
X15812086Y-13457508D02*
X15831134Y-13447984D01*
X15983515Y-13628936D02*
X15993039Y-13638460D01*
X15993039Y-13638460D02*
X15983515Y-13647984D01*
X15983515Y-13647984D02*
X15973991Y-13638460D01*
X15973991Y-13638460D02*
X15983515Y-13628936D01*
X15983515Y-13628936D02*
X15983515Y-13647984D01*
X16116848Y-13447984D02*
X16135896Y-13447984D01*
X16135896Y-13447984D02*
X16154944Y-13457508D01*
X16154944Y-13457508D02*
X16164467Y-13467031D01*
X16164467Y-13467031D02*
X16173991Y-13486079D01*
X16173991Y-13486079D02*
X16183515Y-13524174D01*
X16183515Y-13524174D02*
X16183515Y-13571793D01*
X16183515Y-13571793D02*
X16173991Y-13609888D01*
X16173991Y-13609888D02*
X16164467Y-13628936D01*
X16164467Y-13628936D02*
X16154944Y-13638460D01*
X16154944Y-13638460D02*
X16135896Y-13647984D01*
X16135896Y-13647984D02*
X16116848Y-13647984D01*
X16116848Y-13647984D02*
X16097801Y-13638460D01*
X16097801Y-13638460D02*
X16088277Y-13628936D01*
X16088277Y-13628936D02*
X16078753Y-13609888D01*
X16078753Y-13609888D02*
X16069229Y-13571793D01*
X16069229Y-13571793D02*
X16069229Y-13524174D01*
X16069229Y-13524174D02*
X16078753Y-13486079D01*
X16078753Y-13486079D02*
X16088277Y-13467031D01*
X16088277Y-13467031D02*
X16097801Y-13457508D01*
X16097801Y-13457508D02*
X16116848Y-13447984D01*
X16373991Y-13647984D02*
X16259706Y-13647984D01*
X16316848Y-13647984D02*
X16316848Y-13447984D01*
X16316848Y-13447984D02*
X16297801Y-13476555D01*
X16297801Y-13476555D02*
X16278753Y-13495603D01*
X16278753Y-13495603D02*
X16259706Y-13505127D01*
X16564467Y-13647984D02*
X16450182Y-13647984D01*
X16507325Y-13647984D02*
X16507325Y-13447984D01*
X16507325Y-13447984D02*
X16488277Y-13476555D01*
X16488277Y-13476555D02*
X16469229Y-13495603D01*
X16469229Y-13495603D02*
X16450182Y-13505127D01*
X16678753Y-13533698D02*
X16659706Y-13524174D01*
X16659706Y-13524174D02*
X16650182Y-13514650D01*
X16650182Y-13514650D02*
X16640658Y-13495603D01*
X16640658Y-13495603D02*
X16640658Y-13486079D01*
X16640658Y-13486079D02*
X16650182Y-13467031D01*
X16650182Y-13467031D02*
X16659706Y-13457508D01*
X16659706Y-13457508D02*
X16678753Y-13447984D01*
X16678753Y-13447984D02*
X16716848Y-13447984D01*
X16716848Y-13447984D02*
X16735896Y-13457508D01*
X16735896Y-13457508D02*
X16745420Y-13467031D01*
X16745420Y-13467031D02*
X16754944Y-13486079D01*
X16754944Y-13486079D02*
X16754944Y-13495603D01*
X16754944Y-13495603D02*
X16745420Y-13514650D01*
X16745420Y-13514650D02*
X16735896Y-13524174D01*
X16735896Y-13524174D02*
X16716848Y-13533698D01*
X16716848Y-13533698D02*
X16678753Y-13533698D01*
X16678753Y-13533698D02*
X16659706Y-13543222D01*
X16659706Y-13543222D02*
X16650182Y-13552746D01*
X16650182Y-13552746D02*
X16640658Y-13571793D01*
X16640658Y-13571793D02*
X16640658Y-13609888D01*
X16640658Y-13609888D02*
X16650182Y-13628936D01*
X16650182Y-13628936D02*
X16659706Y-13638460D01*
X16659706Y-13638460D02*
X16678753Y-13647984D01*
X16678753Y-13647984D02*
X16716848Y-13647984D01*
X16716848Y-13647984D02*
X16735896Y-13638460D01*
X16735896Y-13638460D02*
X16745420Y-13628936D01*
X16745420Y-13628936D02*
X16754944Y-13609888D01*
X16754944Y-13609888D02*
X16754944Y-13571793D01*
X16754944Y-13571793D02*
X16745420Y-13552746D01*
X16745420Y-13552746D02*
X16735896Y-13543222D01*
X16735896Y-13543222D02*
X16716848Y-13533698D01*
X16831134Y-13447984D02*
X16831134Y-13486079D01*
X16907325Y-13447984D02*
X16907325Y-13486079D01*
X17202563Y-13724174D02*
X17193039Y-13714650D01*
X17193039Y-13714650D02*
X17173991Y-13686079D01*
X17173991Y-13686079D02*
X17164468Y-13667031D01*
X17164468Y-13667031D02*
X17154944Y-13638460D01*
X17154944Y-13638460D02*
X17145420Y-13590841D01*
X17145420Y-13590841D02*
X17145420Y-13552746D01*
X17145420Y-13552746D02*
X17154944Y-13505127D01*
X17154944Y-13505127D02*
X17164468Y-13476555D01*
X17164468Y-13476555D02*
X17173991Y-13457508D01*
X17173991Y-13457508D02*
X17193039Y-13428936D01*
X17193039Y-13428936D02*
X17202563Y-13419412D01*
X17259706Y-13447984D02*
X17393039Y-13447984D01*
X17393039Y-13447984D02*
X17307325Y-13647984D01*
X17478753Y-13647984D02*
X17516849Y-13647984D01*
X17516849Y-13647984D02*
X17535896Y-13638460D01*
X17535896Y-13638460D02*
X17545420Y-13628936D01*
X17545420Y-13628936D02*
X17564468Y-13600365D01*
X17564468Y-13600365D02*
X17573991Y-13562269D01*
X17573991Y-13562269D02*
X17573991Y-13486079D01*
X17573991Y-13486079D02*
X17564468Y-13467031D01*
X17564468Y-13467031D02*
X17554944Y-13457508D01*
X17554944Y-13457508D02*
X17535896Y-13447984D01*
X17535896Y-13447984D02*
X17497801Y-13447984D01*
X17497801Y-13447984D02*
X17478753Y-13457508D01*
X17478753Y-13457508D02*
X17469230Y-13467031D01*
X17469230Y-13467031D02*
X17459706Y-13486079D01*
X17459706Y-13486079D02*
X17459706Y-13533698D01*
X17459706Y-13533698D02*
X17469230Y-13552746D01*
X17469230Y-13552746D02*
X17478753Y-13562269D01*
X17478753Y-13562269D02*
X17497801Y-13571793D01*
X17497801Y-13571793D02*
X17535896Y-13571793D01*
X17535896Y-13571793D02*
X17554944Y-13562269D01*
X17554944Y-13562269D02*
X17564468Y-13552746D01*
X17564468Y-13552746D02*
X17573991Y-13533698D01*
X17812087Y-13647984D02*
X17812087Y-13447984D01*
X17897801Y-13647984D02*
X17897801Y-13543222D01*
X17897801Y-13543222D02*
X17888277Y-13524174D01*
X17888277Y-13524174D02*
X17869230Y-13514650D01*
X17869230Y-13514650D02*
X17840658Y-13514650D01*
X17840658Y-13514650D02*
X17821611Y-13524174D01*
X17821611Y-13524174D02*
X17812087Y-13533698D01*
X18021611Y-13647984D02*
X18002563Y-13638460D01*
X18002563Y-13638460D02*
X17993039Y-13628936D01*
X17993039Y-13628936D02*
X17983515Y-13609888D01*
X17983515Y-13609888D02*
X17983515Y-13552746D01*
X17983515Y-13552746D02*
X17993039Y-13533698D01*
X17993039Y-13533698D02*
X18002563Y-13524174D01*
X18002563Y-13524174D02*
X18021611Y-13514650D01*
X18021611Y-13514650D02*
X18050182Y-13514650D01*
X18050182Y-13514650D02*
X18069230Y-13524174D01*
X18069230Y-13524174D02*
X18078753Y-13533698D01*
X18078753Y-13533698D02*
X18088277Y-13552746D01*
X18088277Y-13552746D02*
X18088277Y-13609888D01*
X18088277Y-13609888D02*
X18078753Y-13628936D01*
X18078753Y-13628936D02*
X18069230Y-13638460D01*
X18069230Y-13638460D02*
X18050182Y-13647984D01*
X18050182Y-13647984D02*
X18021611Y-13647984D01*
X18202563Y-13647984D02*
X18183515Y-13638460D01*
X18183515Y-13638460D02*
X18173992Y-13619412D01*
X18173992Y-13619412D02*
X18173992Y-13447984D01*
X18354944Y-13638460D02*
X18335896Y-13647984D01*
X18335896Y-13647984D02*
X18297801Y-13647984D01*
X18297801Y-13647984D02*
X18278753Y-13638460D01*
X18278753Y-13638460D02*
X18269230Y-13619412D01*
X18269230Y-13619412D02*
X18269230Y-13543222D01*
X18269230Y-13543222D02*
X18278753Y-13524174D01*
X18278753Y-13524174D02*
X18297801Y-13514650D01*
X18297801Y-13514650D02*
X18335896Y-13514650D01*
X18335896Y-13514650D02*
X18354944Y-13524174D01*
X18354944Y-13524174D02*
X18364468Y-13543222D01*
X18364468Y-13543222D02*
X18364468Y-13562269D01*
X18364468Y-13562269D02*
X18269230Y-13581317D01*
X18440658Y-13638460D02*
X18459706Y-13647984D01*
X18459706Y-13647984D02*
X18497801Y-13647984D01*
X18497801Y-13647984D02*
X18516849Y-13638460D01*
X18516849Y-13638460D02*
X18526373Y-13619412D01*
X18526373Y-13619412D02*
X18526373Y-13609888D01*
X18526373Y-13609888D02*
X18516849Y-13590841D01*
X18516849Y-13590841D02*
X18497801Y-13581317D01*
X18497801Y-13581317D02*
X18469230Y-13581317D01*
X18469230Y-13581317D02*
X18450182Y-13571793D01*
X18450182Y-13571793D02*
X18440658Y-13552746D01*
X18440658Y-13552746D02*
X18440658Y-13543222D01*
X18440658Y-13543222D02*
X18450182Y-13524174D01*
X18450182Y-13524174D02*
X18469230Y-13514650D01*
X18469230Y-13514650D02*
X18497801Y-13514650D01*
X18497801Y-13514650D02*
X18516849Y-13524174D01*
X18593039Y-13724174D02*
X18602563Y-13714650D01*
X18602563Y-13714650D02*
X18621611Y-13686079D01*
X18621611Y-13686079D02*
X18631134Y-13667031D01*
X18631134Y-13667031D02*
X18640658Y-13638460D01*
X18640658Y-13638460D02*
X18650182Y-13590841D01*
X18650182Y-13590841D02*
X18650182Y-13552746D01*
X18650182Y-13552746D02*
X18640658Y-13505127D01*
X18640658Y-13505127D02*
X18631134Y-13476555D01*
X18631134Y-13476555D02*
X18621611Y-13457508D01*
X18621611Y-13457508D02*
X18602563Y-13428936D01*
X18602563Y-13428936D02*
X18593039Y-13419412D01*
D12*
X13607500Y-13800500D02*
X13607500Y-13840500D01*
X13587500Y-13820500D02*
X13627500Y-13820500D01*
D11*
X13926372Y-13711984D02*
X13945420Y-13711984D01*
X13945420Y-13711984D02*
X13964467Y-13721508D01*
X13964467Y-13721508D02*
X13973991Y-13731031D01*
X13973991Y-13731031D02*
X13983515Y-13750079D01*
X13983515Y-13750079D02*
X13993039Y-13788174D01*
X13993039Y-13788174D02*
X13993039Y-13835793D01*
X13993039Y-13835793D02*
X13983515Y-13873888D01*
X13983515Y-13873888D02*
X13973991Y-13892936D01*
X13973991Y-13892936D02*
X13964467Y-13902460D01*
X13964467Y-13902460D02*
X13945420Y-13911984D01*
X13945420Y-13911984D02*
X13926372Y-13911984D01*
X13926372Y-13911984D02*
X13907324Y-13902460D01*
X13907324Y-13902460D02*
X13897801Y-13892936D01*
X13897801Y-13892936D02*
X13888277Y-13873888D01*
X13888277Y-13873888D02*
X13878753Y-13835793D01*
X13878753Y-13835793D02*
X13878753Y-13788174D01*
X13878753Y-13788174D02*
X13888277Y-13750079D01*
X13888277Y-13750079D02*
X13897801Y-13731031D01*
X13897801Y-13731031D02*
X13907324Y-13721508D01*
X13907324Y-13721508D02*
X13926372Y-13711984D01*
X14078753Y-13892936D02*
X14088277Y-13902460D01*
X14088277Y-13902460D02*
X14078753Y-13911984D01*
X14078753Y-13911984D02*
X14069229Y-13902460D01*
X14069229Y-13902460D02*
X14078753Y-13892936D01*
X14078753Y-13892936D02*
X14078753Y-13911984D01*
X14259705Y-13778650D02*
X14259705Y-13911984D01*
X14212086Y-13702460D02*
X14164467Y-13845317D01*
X14164467Y-13845317D02*
X14288277Y-13845317D01*
X14402562Y-13711984D02*
X14421610Y-13711984D01*
X14421610Y-13711984D02*
X14440658Y-13721508D01*
X14440658Y-13721508D02*
X14450182Y-13731031D01*
X14450182Y-13731031D02*
X14459705Y-13750079D01*
X14459705Y-13750079D02*
X14469229Y-13788174D01*
X14469229Y-13788174D02*
X14469229Y-13835793D01*
X14469229Y-13835793D02*
X14459705Y-13873888D01*
X14459705Y-13873888D02*
X14450182Y-13892936D01*
X14450182Y-13892936D02*
X14440658Y-13902460D01*
X14440658Y-13902460D02*
X14421610Y-13911984D01*
X14421610Y-13911984D02*
X14402562Y-13911984D01*
X14402562Y-13911984D02*
X14383515Y-13902460D01*
X14383515Y-13902460D02*
X14373991Y-13892936D01*
X14373991Y-13892936D02*
X14364467Y-13873888D01*
X14364467Y-13873888D02*
X14354943Y-13835793D01*
X14354943Y-13835793D02*
X14354943Y-13788174D01*
X14354943Y-13788174D02*
X14364467Y-13750079D01*
X14364467Y-13750079D02*
X14373991Y-13731031D01*
X14373991Y-13731031D02*
X14383515Y-13721508D01*
X14383515Y-13721508D02*
X14402562Y-13711984D01*
X14593039Y-13711984D02*
X14612086Y-13711984D01*
X14612086Y-13711984D02*
X14631134Y-13721508D01*
X14631134Y-13721508D02*
X14640658Y-13731031D01*
X14640658Y-13731031D02*
X14650182Y-13750079D01*
X14650182Y-13750079D02*
X14659705Y-13788174D01*
X14659705Y-13788174D02*
X14659705Y-13835793D01*
X14659705Y-13835793D02*
X14650182Y-13873888D01*
X14650182Y-13873888D02*
X14640658Y-13892936D01*
X14640658Y-13892936D02*
X14631134Y-13902460D01*
X14631134Y-13902460D02*
X14612086Y-13911984D01*
X14612086Y-13911984D02*
X14593039Y-13911984D01*
X14593039Y-13911984D02*
X14573991Y-13902460D01*
X14573991Y-13902460D02*
X14564467Y-13892936D01*
X14564467Y-13892936D02*
X14554943Y-13873888D01*
X14554943Y-13873888D02*
X14545420Y-13835793D01*
X14545420Y-13835793D02*
X14545420Y-13788174D01*
X14545420Y-13788174D02*
X14554943Y-13750079D01*
X14554943Y-13750079D02*
X14564467Y-13731031D01*
X14564467Y-13731031D02*
X14573991Y-13721508D01*
X14573991Y-13721508D02*
X14593039Y-13711984D01*
X14745420Y-13911984D02*
X14745420Y-13778650D01*
X14745420Y-13797698D02*
X14754943Y-13788174D01*
X14754943Y-13788174D02*
X14773991Y-13778650D01*
X14773991Y-13778650D02*
X14802563Y-13778650D01*
X14802563Y-13778650D02*
X14821610Y-13788174D01*
X14821610Y-13788174D02*
X14831134Y-13807222D01*
X14831134Y-13807222D02*
X14831134Y-13911984D01*
X14831134Y-13807222D02*
X14840658Y-13788174D01*
X14840658Y-13788174D02*
X14859705Y-13778650D01*
X14859705Y-13778650D02*
X14888277Y-13778650D01*
X14888277Y-13778650D02*
X14907324Y-13788174D01*
X14907324Y-13788174D02*
X14916848Y-13807222D01*
X14916848Y-13807222D02*
X14916848Y-13911984D01*
X15012086Y-13911984D02*
X15012086Y-13778650D01*
X15012086Y-13797698D02*
X15021610Y-13788174D01*
X15021610Y-13788174D02*
X15040658Y-13778650D01*
X15040658Y-13778650D02*
X15069229Y-13778650D01*
X15069229Y-13778650D02*
X15088277Y-13788174D01*
X15088277Y-13788174D02*
X15097801Y-13807222D01*
X15097801Y-13807222D02*
X15097801Y-13911984D01*
X15097801Y-13807222D02*
X15107324Y-13788174D01*
X15107324Y-13788174D02*
X15126372Y-13778650D01*
X15126372Y-13778650D02*
X15154943Y-13778650D01*
X15154943Y-13778650D02*
X15173991Y-13788174D01*
X15173991Y-13788174D02*
X15183515Y-13807222D01*
X15183515Y-13807222D02*
X15183515Y-13911984D01*
X15573991Y-13702460D02*
X15402563Y-13959603D01*
X15831134Y-13711984D02*
X15850182Y-13711984D01*
X15850182Y-13711984D02*
X15869229Y-13721508D01*
X15869229Y-13721508D02*
X15878753Y-13731031D01*
X15878753Y-13731031D02*
X15888277Y-13750079D01*
X15888277Y-13750079D02*
X15897801Y-13788174D01*
X15897801Y-13788174D02*
X15897801Y-13835793D01*
X15897801Y-13835793D02*
X15888277Y-13873888D01*
X15888277Y-13873888D02*
X15878753Y-13892936D01*
X15878753Y-13892936D02*
X15869229Y-13902460D01*
X15869229Y-13902460D02*
X15850182Y-13911984D01*
X15850182Y-13911984D02*
X15831134Y-13911984D01*
X15831134Y-13911984D02*
X15812086Y-13902460D01*
X15812086Y-13902460D02*
X15802563Y-13892936D01*
X15802563Y-13892936D02*
X15793039Y-13873888D01*
X15793039Y-13873888D02*
X15783515Y-13835793D01*
X15783515Y-13835793D02*
X15783515Y-13788174D01*
X15783515Y-13788174D02*
X15793039Y-13750079D01*
X15793039Y-13750079D02*
X15802563Y-13731031D01*
X15802563Y-13731031D02*
X15812086Y-13721508D01*
X15812086Y-13721508D02*
X15831134Y-13711984D01*
X15983515Y-13892936D02*
X15993039Y-13902460D01*
X15993039Y-13902460D02*
X15983515Y-13911984D01*
X15983515Y-13911984D02*
X15973991Y-13902460D01*
X15973991Y-13902460D02*
X15983515Y-13892936D01*
X15983515Y-13892936D02*
X15983515Y-13911984D01*
X16116848Y-13711984D02*
X16135896Y-13711984D01*
X16135896Y-13711984D02*
X16154944Y-13721508D01*
X16154944Y-13721508D02*
X16164467Y-13731031D01*
X16164467Y-13731031D02*
X16173991Y-13750079D01*
X16173991Y-13750079D02*
X16183515Y-13788174D01*
X16183515Y-13788174D02*
X16183515Y-13835793D01*
X16183515Y-13835793D02*
X16173991Y-13873888D01*
X16173991Y-13873888D02*
X16164467Y-13892936D01*
X16164467Y-13892936D02*
X16154944Y-13902460D01*
X16154944Y-13902460D02*
X16135896Y-13911984D01*
X16135896Y-13911984D02*
X16116848Y-13911984D01*
X16116848Y-13911984D02*
X16097801Y-13902460D01*
X16097801Y-13902460D02*
X16088277Y-13892936D01*
X16088277Y-13892936D02*
X16078753Y-13873888D01*
X16078753Y-13873888D02*
X16069229Y-13835793D01*
X16069229Y-13835793D02*
X16069229Y-13788174D01*
X16069229Y-13788174D02*
X16078753Y-13750079D01*
X16078753Y-13750079D02*
X16088277Y-13731031D01*
X16088277Y-13731031D02*
X16097801Y-13721508D01*
X16097801Y-13721508D02*
X16116848Y-13711984D01*
X16373991Y-13911984D02*
X16259706Y-13911984D01*
X16316848Y-13911984D02*
X16316848Y-13711984D01*
X16316848Y-13711984D02*
X16297801Y-13740555D01*
X16297801Y-13740555D02*
X16278753Y-13759603D01*
X16278753Y-13759603D02*
X16259706Y-13769127D01*
X16554944Y-13711984D02*
X16459706Y-13711984D01*
X16459706Y-13711984D02*
X16450182Y-13807222D01*
X16450182Y-13807222D02*
X16459706Y-13797698D01*
X16459706Y-13797698D02*
X16478753Y-13788174D01*
X16478753Y-13788174D02*
X16526372Y-13788174D01*
X16526372Y-13788174D02*
X16545420Y-13797698D01*
X16545420Y-13797698D02*
X16554944Y-13807222D01*
X16554944Y-13807222D02*
X16564467Y-13826269D01*
X16564467Y-13826269D02*
X16564467Y-13873888D01*
X16564467Y-13873888D02*
X16554944Y-13892936D01*
X16554944Y-13892936D02*
X16545420Y-13902460D01*
X16545420Y-13902460D02*
X16526372Y-13911984D01*
X16526372Y-13911984D02*
X16478753Y-13911984D01*
X16478753Y-13911984D02*
X16459706Y-13902460D01*
X16459706Y-13902460D02*
X16450182Y-13892936D01*
X16631134Y-13711984D02*
X16764467Y-13711984D01*
X16764467Y-13711984D02*
X16678753Y-13911984D01*
X16831134Y-13711984D02*
X16831134Y-13750079D01*
X16907325Y-13711984D02*
X16907325Y-13750079D01*
X17202563Y-13988174D02*
X17193039Y-13978650D01*
X17193039Y-13978650D02*
X17173991Y-13950079D01*
X17173991Y-13950079D02*
X17164468Y-13931031D01*
X17164468Y-13931031D02*
X17154944Y-13902460D01*
X17154944Y-13902460D02*
X17145420Y-13854841D01*
X17145420Y-13854841D02*
X17145420Y-13816746D01*
X17145420Y-13816746D02*
X17154944Y-13769127D01*
X17154944Y-13769127D02*
X17164468Y-13740555D01*
X17164468Y-13740555D02*
X17173991Y-13721508D01*
X17173991Y-13721508D02*
X17193039Y-13692936D01*
X17193039Y-13692936D02*
X17202563Y-13683412D01*
X17383515Y-13911984D02*
X17269230Y-13911984D01*
X17326372Y-13911984D02*
X17326372Y-13711984D01*
X17326372Y-13711984D02*
X17307325Y-13740555D01*
X17307325Y-13740555D02*
X17288277Y-13759603D01*
X17288277Y-13759603D02*
X17269230Y-13769127D01*
X17573991Y-13911984D02*
X17459706Y-13911984D01*
X17516849Y-13911984D02*
X17516849Y-13711984D01*
X17516849Y-13711984D02*
X17497801Y-13740555D01*
X17497801Y-13740555D02*
X17478753Y-13759603D01*
X17478753Y-13759603D02*
X17459706Y-13769127D01*
X17812087Y-13911984D02*
X17812087Y-13711984D01*
X17897801Y-13911984D02*
X17897801Y-13807222D01*
X17897801Y-13807222D02*
X17888277Y-13788174D01*
X17888277Y-13788174D02*
X17869230Y-13778650D01*
X17869230Y-13778650D02*
X17840658Y-13778650D01*
X17840658Y-13778650D02*
X17821611Y-13788174D01*
X17821611Y-13788174D02*
X17812087Y-13797698D01*
X18021611Y-13911984D02*
X18002563Y-13902460D01*
X18002563Y-13902460D02*
X17993039Y-13892936D01*
X17993039Y-13892936D02*
X17983515Y-13873888D01*
X17983515Y-13873888D02*
X17983515Y-13816746D01*
X17983515Y-13816746D02*
X17993039Y-13797698D01*
X17993039Y-13797698D02*
X18002563Y-13788174D01*
X18002563Y-13788174D02*
X18021611Y-13778650D01*
X18021611Y-13778650D02*
X18050182Y-13778650D01*
X18050182Y-13778650D02*
X18069230Y-13788174D01*
X18069230Y-13788174D02*
X18078753Y-13797698D01*
X18078753Y-13797698D02*
X18088277Y-13816746D01*
X18088277Y-13816746D02*
X18088277Y-13873888D01*
X18088277Y-13873888D02*
X18078753Y-13892936D01*
X18078753Y-13892936D02*
X18069230Y-13902460D01*
X18069230Y-13902460D02*
X18050182Y-13911984D01*
X18050182Y-13911984D02*
X18021611Y-13911984D01*
X18202563Y-13911984D02*
X18183515Y-13902460D01*
X18183515Y-13902460D02*
X18173992Y-13883412D01*
X18173992Y-13883412D02*
X18173992Y-13711984D01*
X18354944Y-13902460D02*
X18335896Y-13911984D01*
X18335896Y-13911984D02*
X18297801Y-13911984D01*
X18297801Y-13911984D02*
X18278753Y-13902460D01*
X18278753Y-13902460D02*
X18269230Y-13883412D01*
X18269230Y-13883412D02*
X18269230Y-13807222D01*
X18269230Y-13807222D02*
X18278753Y-13788174D01*
X18278753Y-13788174D02*
X18297801Y-13778650D01*
X18297801Y-13778650D02*
X18335896Y-13778650D01*
X18335896Y-13778650D02*
X18354944Y-13788174D01*
X18354944Y-13788174D02*
X18364468Y-13807222D01*
X18364468Y-13807222D02*
X18364468Y-13826269D01*
X18364468Y-13826269D02*
X18269230Y-13845317D01*
X18440658Y-13902460D02*
X18459706Y-13911984D01*
X18459706Y-13911984D02*
X18497801Y-13911984D01*
X18497801Y-13911984D02*
X18516849Y-13902460D01*
X18516849Y-13902460D02*
X18526373Y-13883412D01*
X18526373Y-13883412D02*
X18526373Y-13873888D01*
X18526373Y-13873888D02*
X18516849Y-13854841D01*
X18516849Y-13854841D02*
X18497801Y-13845317D01*
X18497801Y-13845317D02*
X18469230Y-13845317D01*
X18469230Y-13845317D02*
X18450182Y-13835793D01*
X18450182Y-13835793D02*
X18440658Y-13816746D01*
X18440658Y-13816746D02*
X18440658Y-13807222D01*
X18440658Y-13807222D02*
X18450182Y-13788174D01*
X18450182Y-13788174D02*
X18469230Y-13778650D01*
X18469230Y-13778650D02*
X18497801Y-13778650D01*
X18497801Y-13778650D02*
X18516849Y-13788174D01*
X18593039Y-13988174D02*
X18602563Y-13978650D01*
X18602563Y-13978650D02*
X18621611Y-13950079D01*
X18621611Y-13950079D02*
X18631134Y-13931031D01*
X18631134Y-13931031D02*
X18640658Y-13902460D01*
X18640658Y-13902460D02*
X18650182Y-13854841D01*
X18650182Y-13854841D02*
X18650182Y-13816746D01*
X18650182Y-13816746D02*
X18640658Y-13769127D01*
X18640658Y-13769127D02*
X18631134Y-13740555D01*
X18631134Y-13740555D02*
X18621611Y-13721508D01*
X18621611Y-13721508D02*
X18602563Y-13692936D01*
X18602563Y-13692936D02*
X18593039Y-13683412D01*
D12*
X13618713Y-14105713D02*
X13618713Y-14063287D01*
X13576287Y-14063287D01*
X13576287Y-14105713D01*
X13618713Y-14105713D01*
D11*
X13926372Y-13975984D02*
X13945420Y-13975984D01*
X13945420Y-13975984D02*
X13964467Y-13985508D01*
X13964467Y-13985508D02*
X13973991Y-13995031D01*
X13973991Y-13995031D02*
X13983515Y-14014079D01*
X13983515Y-14014079D02*
X13993039Y-14052174D01*
X13993039Y-14052174D02*
X13993039Y-14099793D01*
X13993039Y-14099793D02*
X13983515Y-14137888D01*
X13983515Y-14137888D02*
X13973991Y-14156936D01*
X13973991Y-14156936D02*
X13964467Y-14166460D01*
X13964467Y-14166460D02*
X13945420Y-14175984D01*
X13945420Y-14175984D02*
X13926372Y-14175984D01*
X13926372Y-14175984D02*
X13907324Y-14166460D01*
X13907324Y-14166460D02*
X13897801Y-14156936D01*
X13897801Y-14156936D02*
X13888277Y-14137888D01*
X13888277Y-14137888D02*
X13878753Y-14099793D01*
X13878753Y-14099793D02*
X13878753Y-14052174D01*
X13878753Y-14052174D02*
X13888277Y-14014079D01*
X13888277Y-14014079D02*
X13897801Y-13995031D01*
X13897801Y-13995031D02*
X13907324Y-13985508D01*
X13907324Y-13985508D02*
X13926372Y-13975984D01*
X14078753Y-14156936D02*
X14088277Y-14166460D01*
X14088277Y-14166460D02*
X14078753Y-14175984D01*
X14078753Y-14175984D02*
X14069229Y-14166460D01*
X14069229Y-14166460D02*
X14078753Y-14156936D01*
X14078753Y-14156936D02*
X14078753Y-14175984D01*
X14259705Y-13975984D02*
X14221610Y-13975984D01*
X14221610Y-13975984D02*
X14202562Y-13985508D01*
X14202562Y-13985508D02*
X14193039Y-13995031D01*
X14193039Y-13995031D02*
X14173991Y-14023603D01*
X14173991Y-14023603D02*
X14164467Y-14061698D01*
X14164467Y-14061698D02*
X14164467Y-14137888D01*
X14164467Y-14137888D02*
X14173991Y-14156936D01*
X14173991Y-14156936D02*
X14183515Y-14166460D01*
X14183515Y-14166460D02*
X14202562Y-14175984D01*
X14202562Y-14175984D02*
X14240658Y-14175984D01*
X14240658Y-14175984D02*
X14259705Y-14166460D01*
X14259705Y-14166460D02*
X14269229Y-14156936D01*
X14269229Y-14156936D02*
X14278753Y-14137888D01*
X14278753Y-14137888D02*
X14278753Y-14090269D01*
X14278753Y-14090269D02*
X14269229Y-14071222D01*
X14269229Y-14071222D02*
X14259705Y-14061698D01*
X14259705Y-14061698D02*
X14240658Y-14052174D01*
X14240658Y-14052174D02*
X14202562Y-14052174D01*
X14202562Y-14052174D02*
X14183515Y-14061698D01*
X14183515Y-14061698D02*
X14173991Y-14071222D01*
X14173991Y-14071222D02*
X14164467Y-14090269D01*
X14402562Y-13975984D02*
X14421610Y-13975984D01*
X14421610Y-13975984D02*
X14440658Y-13985508D01*
X14440658Y-13985508D02*
X14450182Y-13995031D01*
X14450182Y-13995031D02*
X14459705Y-14014079D01*
X14459705Y-14014079D02*
X14469229Y-14052174D01*
X14469229Y-14052174D02*
X14469229Y-14099793D01*
X14469229Y-14099793D02*
X14459705Y-14137888D01*
X14459705Y-14137888D02*
X14450182Y-14156936D01*
X14450182Y-14156936D02*
X14440658Y-14166460D01*
X14440658Y-14166460D02*
X14421610Y-14175984D01*
X14421610Y-14175984D02*
X14402562Y-14175984D01*
X14402562Y-14175984D02*
X14383515Y-14166460D01*
X14383515Y-14166460D02*
X14373991Y-14156936D01*
X14373991Y-14156936D02*
X14364467Y-14137888D01*
X14364467Y-14137888D02*
X14354943Y-14099793D01*
X14354943Y-14099793D02*
X14354943Y-14052174D01*
X14354943Y-14052174D02*
X14364467Y-14014079D01*
X14364467Y-14014079D02*
X14373991Y-13995031D01*
X14373991Y-13995031D02*
X14383515Y-13985508D01*
X14383515Y-13985508D02*
X14402562Y-13975984D01*
X14593039Y-13975984D02*
X14612086Y-13975984D01*
X14612086Y-13975984D02*
X14631134Y-13985508D01*
X14631134Y-13985508D02*
X14640658Y-13995031D01*
X14640658Y-13995031D02*
X14650182Y-14014079D01*
X14650182Y-14014079D02*
X14659705Y-14052174D01*
X14659705Y-14052174D02*
X14659705Y-14099793D01*
X14659705Y-14099793D02*
X14650182Y-14137888D01*
X14650182Y-14137888D02*
X14640658Y-14156936D01*
X14640658Y-14156936D02*
X14631134Y-14166460D01*
X14631134Y-14166460D02*
X14612086Y-14175984D01*
X14612086Y-14175984D02*
X14593039Y-14175984D01*
X14593039Y-14175984D02*
X14573991Y-14166460D01*
X14573991Y-14166460D02*
X14564467Y-14156936D01*
X14564467Y-14156936D02*
X14554943Y-14137888D01*
X14554943Y-14137888D02*
X14545420Y-14099793D01*
X14545420Y-14099793D02*
X14545420Y-14052174D01*
X14545420Y-14052174D02*
X14554943Y-14014079D01*
X14554943Y-14014079D02*
X14564467Y-13995031D01*
X14564467Y-13995031D02*
X14573991Y-13985508D01*
X14573991Y-13985508D02*
X14593039Y-13975984D01*
X14745420Y-14175984D02*
X14745420Y-14042650D01*
X14745420Y-14061698D02*
X14754943Y-14052174D01*
X14754943Y-14052174D02*
X14773991Y-14042650D01*
X14773991Y-14042650D02*
X14802563Y-14042650D01*
X14802563Y-14042650D02*
X14821610Y-14052174D01*
X14821610Y-14052174D02*
X14831134Y-14071222D01*
X14831134Y-14071222D02*
X14831134Y-14175984D01*
X14831134Y-14071222D02*
X14840658Y-14052174D01*
X14840658Y-14052174D02*
X14859705Y-14042650D01*
X14859705Y-14042650D02*
X14888277Y-14042650D01*
X14888277Y-14042650D02*
X14907324Y-14052174D01*
X14907324Y-14052174D02*
X14916848Y-14071222D01*
X14916848Y-14071222D02*
X14916848Y-14175984D01*
X15012086Y-14175984D02*
X15012086Y-14042650D01*
X15012086Y-14061698D02*
X15021610Y-14052174D01*
X15021610Y-14052174D02*
X15040658Y-14042650D01*
X15040658Y-14042650D02*
X15069229Y-14042650D01*
X15069229Y-14042650D02*
X15088277Y-14052174D01*
X15088277Y-14052174D02*
X15097801Y-14071222D01*
X15097801Y-14071222D02*
X15097801Y-14175984D01*
X15097801Y-14071222D02*
X15107324Y-14052174D01*
X15107324Y-14052174D02*
X15126372Y-14042650D01*
X15126372Y-14042650D02*
X15154943Y-14042650D01*
X15154943Y-14042650D02*
X15173991Y-14052174D01*
X15173991Y-14052174D02*
X15183515Y-14071222D01*
X15183515Y-14071222D02*
X15183515Y-14175984D01*
X15573991Y-13966460D02*
X15402563Y-14223603D01*
X15831134Y-13975984D02*
X15850182Y-13975984D01*
X15850182Y-13975984D02*
X15869229Y-13985508D01*
X15869229Y-13985508D02*
X15878753Y-13995031D01*
X15878753Y-13995031D02*
X15888277Y-14014079D01*
X15888277Y-14014079D02*
X15897801Y-14052174D01*
X15897801Y-14052174D02*
X15897801Y-14099793D01*
X15897801Y-14099793D02*
X15888277Y-14137888D01*
X15888277Y-14137888D02*
X15878753Y-14156936D01*
X15878753Y-14156936D02*
X15869229Y-14166460D01*
X15869229Y-14166460D02*
X15850182Y-14175984D01*
X15850182Y-14175984D02*
X15831134Y-14175984D01*
X15831134Y-14175984D02*
X15812086Y-14166460D01*
X15812086Y-14166460D02*
X15802563Y-14156936D01*
X15802563Y-14156936D02*
X15793039Y-14137888D01*
X15793039Y-14137888D02*
X15783515Y-14099793D01*
X15783515Y-14099793D02*
X15783515Y-14052174D01*
X15783515Y-14052174D02*
X15793039Y-14014079D01*
X15793039Y-14014079D02*
X15802563Y-13995031D01*
X15802563Y-13995031D02*
X15812086Y-13985508D01*
X15812086Y-13985508D02*
X15831134Y-13975984D01*
X15983515Y-14156936D02*
X15993039Y-14166460D01*
X15993039Y-14166460D02*
X15983515Y-14175984D01*
X15983515Y-14175984D02*
X15973991Y-14166460D01*
X15973991Y-14166460D02*
X15983515Y-14156936D01*
X15983515Y-14156936D02*
X15983515Y-14175984D01*
X16116848Y-13975984D02*
X16135896Y-13975984D01*
X16135896Y-13975984D02*
X16154944Y-13985508D01*
X16154944Y-13985508D02*
X16164467Y-13995031D01*
X16164467Y-13995031D02*
X16173991Y-14014079D01*
X16173991Y-14014079D02*
X16183515Y-14052174D01*
X16183515Y-14052174D02*
X16183515Y-14099793D01*
X16183515Y-14099793D02*
X16173991Y-14137888D01*
X16173991Y-14137888D02*
X16164467Y-14156936D01*
X16164467Y-14156936D02*
X16154944Y-14166460D01*
X16154944Y-14166460D02*
X16135896Y-14175984D01*
X16135896Y-14175984D02*
X16116848Y-14175984D01*
X16116848Y-14175984D02*
X16097801Y-14166460D01*
X16097801Y-14166460D02*
X16088277Y-14156936D01*
X16088277Y-14156936D02*
X16078753Y-14137888D01*
X16078753Y-14137888D02*
X16069229Y-14099793D01*
X16069229Y-14099793D02*
X16069229Y-14052174D01*
X16069229Y-14052174D02*
X16078753Y-14014079D01*
X16078753Y-14014079D02*
X16088277Y-13995031D01*
X16088277Y-13995031D02*
X16097801Y-13985508D01*
X16097801Y-13985508D02*
X16116848Y-13975984D01*
X16259706Y-13995031D02*
X16269229Y-13985508D01*
X16269229Y-13985508D02*
X16288277Y-13975984D01*
X16288277Y-13975984D02*
X16335896Y-13975984D01*
X16335896Y-13975984D02*
X16354944Y-13985508D01*
X16354944Y-13985508D02*
X16364467Y-13995031D01*
X16364467Y-13995031D02*
X16373991Y-14014079D01*
X16373991Y-14014079D02*
X16373991Y-14033127D01*
X16373991Y-14033127D02*
X16364467Y-14061698D01*
X16364467Y-14061698D02*
X16250182Y-14175984D01*
X16250182Y-14175984D02*
X16373991Y-14175984D01*
X16440658Y-13975984D02*
X16564467Y-13975984D01*
X16564467Y-13975984D02*
X16497801Y-14052174D01*
X16497801Y-14052174D02*
X16526372Y-14052174D01*
X16526372Y-14052174D02*
X16545420Y-14061698D01*
X16545420Y-14061698D02*
X16554944Y-14071222D01*
X16554944Y-14071222D02*
X16564467Y-14090269D01*
X16564467Y-14090269D02*
X16564467Y-14137888D01*
X16564467Y-14137888D02*
X16554944Y-14156936D01*
X16554944Y-14156936D02*
X16545420Y-14166460D01*
X16545420Y-14166460D02*
X16526372Y-14175984D01*
X16526372Y-14175984D02*
X16469229Y-14175984D01*
X16469229Y-14175984D02*
X16450182Y-14166460D01*
X16450182Y-14166460D02*
X16440658Y-14156936D01*
X16735896Y-13975984D02*
X16697801Y-13975984D01*
X16697801Y-13975984D02*
X16678753Y-13985508D01*
X16678753Y-13985508D02*
X16669229Y-13995031D01*
X16669229Y-13995031D02*
X16650182Y-14023603D01*
X16650182Y-14023603D02*
X16640658Y-14061698D01*
X16640658Y-14061698D02*
X16640658Y-14137888D01*
X16640658Y-14137888D02*
X16650182Y-14156936D01*
X16650182Y-14156936D02*
X16659706Y-14166460D01*
X16659706Y-14166460D02*
X16678753Y-14175984D01*
X16678753Y-14175984D02*
X16716848Y-14175984D01*
X16716848Y-14175984D02*
X16735896Y-14166460D01*
X16735896Y-14166460D02*
X16745420Y-14156936D01*
X16745420Y-14156936D02*
X16754944Y-14137888D01*
X16754944Y-14137888D02*
X16754944Y-14090269D01*
X16754944Y-14090269D02*
X16745420Y-14071222D01*
X16745420Y-14071222D02*
X16735896Y-14061698D01*
X16735896Y-14061698D02*
X16716848Y-14052174D01*
X16716848Y-14052174D02*
X16678753Y-14052174D01*
X16678753Y-14052174D02*
X16659706Y-14061698D01*
X16659706Y-14061698D02*
X16650182Y-14071222D01*
X16650182Y-14071222D02*
X16640658Y-14090269D01*
X16831134Y-13975984D02*
X16831134Y-14014079D01*
X16907325Y-13975984D02*
X16907325Y-14014079D01*
X17202563Y-14252174D02*
X17193039Y-14242650D01*
X17193039Y-14242650D02*
X17173991Y-14214079D01*
X17173991Y-14214079D02*
X17164468Y-14195031D01*
X17164468Y-14195031D02*
X17154944Y-14166460D01*
X17154944Y-14166460D02*
X17145420Y-14118841D01*
X17145420Y-14118841D02*
X17145420Y-14080746D01*
X17145420Y-14080746D02*
X17154944Y-14033127D01*
X17154944Y-14033127D02*
X17164468Y-14004555D01*
X17164468Y-14004555D02*
X17173991Y-13985508D01*
X17173991Y-13985508D02*
X17193039Y-13956936D01*
X17193039Y-13956936D02*
X17202563Y-13947412D01*
X17316849Y-13975984D02*
X17335896Y-13975984D01*
X17335896Y-13975984D02*
X17354944Y-13985508D01*
X17354944Y-13985508D02*
X17364468Y-13995031D01*
X17364468Y-13995031D02*
X17373991Y-14014079D01*
X17373991Y-14014079D02*
X17383515Y-14052174D01*
X17383515Y-14052174D02*
X17383515Y-14099793D01*
X17383515Y-14099793D02*
X17373991Y-14137888D01*
X17373991Y-14137888D02*
X17364468Y-14156936D01*
X17364468Y-14156936D02*
X17354944Y-14166460D01*
X17354944Y-14166460D02*
X17335896Y-14175984D01*
X17335896Y-14175984D02*
X17316849Y-14175984D01*
X17316849Y-14175984D02*
X17297801Y-14166460D01*
X17297801Y-14166460D02*
X17288277Y-14156936D01*
X17288277Y-14156936D02*
X17278753Y-14137888D01*
X17278753Y-14137888D02*
X17269230Y-14099793D01*
X17269230Y-14099793D02*
X17269230Y-14052174D01*
X17269230Y-14052174D02*
X17278753Y-14014079D01*
X17278753Y-14014079D02*
X17288277Y-13995031D01*
X17288277Y-13995031D02*
X17297801Y-13985508D01*
X17297801Y-13985508D02*
X17316849Y-13975984D01*
X17621611Y-14175984D02*
X17621611Y-13975984D01*
X17707325Y-14175984D02*
X17707325Y-14071222D01*
X17707325Y-14071222D02*
X17697801Y-14052174D01*
X17697801Y-14052174D02*
X17678753Y-14042650D01*
X17678753Y-14042650D02*
X17650182Y-14042650D01*
X17650182Y-14042650D02*
X17631134Y-14052174D01*
X17631134Y-14052174D02*
X17621611Y-14061698D01*
X17831134Y-14175984D02*
X17812087Y-14166460D01*
X17812087Y-14166460D02*
X17802563Y-14156936D01*
X17802563Y-14156936D02*
X17793039Y-14137888D01*
X17793039Y-14137888D02*
X17793039Y-14080746D01*
X17793039Y-14080746D02*
X17802563Y-14061698D01*
X17802563Y-14061698D02*
X17812087Y-14052174D01*
X17812087Y-14052174D02*
X17831134Y-14042650D01*
X17831134Y-14042650D02*
X17859706Y-14042650D01*
X17859706Y-14042650D02*
X17878753Y-14052174D01*
X17878753Y-14052174D02*
X17888277Y-14061698D01*
X17888277Y-14061698D02*
X17897801Y-14080746D01*
X17897801Y-14080746D02*
X17897801Y-14137888D01*
X17897801Y-14137888D02*
X17888277Y-14156936D01*
X17888277Y-14156936D02*
X17878753Y-14166460D01*
X17878753Y-14166460D02*
X17859706Y-14175984D01*
X17859706Y-14175984D02*
X17831134Y-14175984D01*
X18012087Y-14175984D02*
X17993039Y-14166460D01*
X17993039Y-14166460D02*
X17983515Y-14147412D01*
X17983515Y-14147412D02*
X17983515Y-13975984D01*
X18164468Y-14166460D02*
X18145420Y-14175984D01*
X18145420Y-14175984D02*
X18107325Y-14175984D01*
X18107325Y-14175984D02*
X18088277Y-14166460D01*
X18088277Y-14166460D02*
X18078753Y-14147412D01*
X18078753Y-14147412D02*
X18078753Y-14071222D01*
X18078753Y-14071222D02*
X18088277Y-14052174D01*
X18088277Y-14052174D02*
X18107325Y-14042650D01*
X18107325Y-14042650D02*
X18145420Y-14042650D01*
X18145420Y-14042650D02*
X18164468Y-14052174D01*
X18164468Y-14052174D02*
X18173992Y-14071222D01*
X18173992Y-14071222D02*
X18173992Y-14090269D01*
X18173992Y-14090269D02*
X18078753Y-14109317D01*
X18250182Y-14166460D02*
X18269230Y-14175984D01*
X18269230Y-14175984D02*
X18307325Y-14175984D01*
X18307325Y-14175984D02*
X18326373Y-14166460D01*
X18326373Y-14166460D02*
X18335896Y-14147412D01*
X18335896Y-14147412D02*
X18335896Y-14137888D01*
X18335896Y-14137888D02*
X18326373Y-14118841D01*
X18326373Y-14118841D02*
X18307325Y-14109317D01*
X18307325Y-14109317D02*
X18278753Y-14109317D01*
X18278753Y-14109317D02*
X18259706Y-14099793D01*
X18259706Y-14099793D02*
X18250182Y-14080746D01*
X18250182Y-14080746D02*
X18250182Y-14071222D01*
X18250182Y-14071222D02*
X18259706Y-14052174D01*
X18259706Y-14052174D02*
X18278753Y-14042650D01*
X18278753Y-14042650D02*
X18307325Y-14042650D01*
X18307325Y-14042650D02*
X18326373Y-14052174D01*
X18573992Y-14099793D02*
X18726373Y-14099793D01*
X18650182Y-14175984D02*
X18650182Y-14023603D01*
X18964468Y-13995031D02*
X18973992Y-13985508D01*
X18973992Y-13985508D02*
X18993039Y-13975984D01*
X18993039Y-13975984D02*
X19040658Y-13975984D01*
X19040658Y-13975984D02*
X19059706Y-13985508D01*
X19059706Y-13985508D02*
X19069230Y-13995031D01*
X19069230Y-13995031D02*
X19078754Y-14014079D01*
X19078754Y-14014079D02*
X19078754Y-14033127D01*
X19078754Y-14033127D02*
X19069230Y-14061698D01*
X19069230Y-14061698D02*
X18954944Y-14175984D01*
X18954944Y-14175984D02*
X19078754Y-14175984D01*
X19307325Y-14166460D02*
X19326373Y-14175984D01*
X19326373Y-14175984D02*
X19364468Y-14175984D01*
X19364468Y-14175984D02*
X19383516Y-14166460D01*
X19383516Y-14166460D02*
X19393039Y-14147412D01*
X19393039Y-14147412D02*
X19393039Y-14137888D01*
X19393039Y-14137888D02*
X19383516Y-14118841D01*
X19383516Y-14118841D02*
X19364468Y-14109317D01*
X19364468Y-14109317D02*
X19335896Y-14109317D01*
X19335896Y-14109317D02*
X19316849Y-14099793D01*
X19316849Y-14099793D02*
X19307325Y-14080746D01*
X19307325Y-14080746D02*
X19307325Y-14071222D01*
X19307325Y-14071222D02*
X19316849Y-14052174D01*
X19316849Y-14052174D02*
X19335896Y-14042650D01*
X19335896Y-14042650D02*
X19364468Y-14042650D01*
X19364468Y-14042650D02*
X19383516Y-14052174D01*
X19507325Y-14175984D02*
X19488277Y-14166460D01*
X19488277Y-14166460D02*
X19478754Y-14147412D01*
X19478754Y-14147412D02*
X19478754Y-13975984D01*
X19612087Y-14175984D02*
X19593039Y-14166460D01*
X19593039Y-14166460D02*
X19583516Y-14156936D01*
X19583516Y-14156936D02*
X19573992Y-14137888D01*
X19573992Y-14137888D02*
X19573992Y-14080746D01*
X19573992Y-14080746D02*
X19583516Y-14061698D01*
X19583516Y-14061698D02*
X19593039Y-14052174D01*
X19593039Y-14052174D02*
X19612087Y-14042650D01*
X19612087Y-14042650D02*
X19640658Y-14042650D01*
X19640658Y-14042650D02*
X19659706Y-14052174D01*
X19659706Y-14052174D02*
X19669230Y-14061698D01*
X19669230Y-14061698D02*
X19678754Y-14080746D01*
X19678754Y-14080746D02*
X19678754Y-14137888D01*
X19678754Y-14137888D02*
X19669230Y-14156936D01*
X19669230Y-14156936D02*
X19659706Y-14166460D01*
X19659706Y-14166460D02*
X19640658Y-14175984D01*
X19640658Y-14175984D02*
X19612087Y-14175984D01*
X19735897Y-14042650D02*
X19812087Y-14042650D01*
X19764468Y-13975984D02*
X19764468Y-14147412D01*
X19764468Y-14147412D02*
X19773992Y-14166460D01*
X19773992Y-14166460D02*
X19793039Y-14175984D01*
X19793039Y-14175984D02*
X19812087Y-14175984D01*
X19869230Y-14166460D02*
X19888277Y-14175984D01*
X19888277Y-14175984D02*
X19926373Y-14175984D01*
X19926373Y-14175984D02*
X19945420Y-14166460D01*
X19945420Y-14166460D02*
X19954944Y-14147412D01*
X19954944Y-14147412D02*
X19954944Y-14137888D01*
X19954944Y-14137888D02*
X19945420Y-14118841D01*
X19945420Y-14118841D02*
X19926373Y-14109317D01*
X19926373Y-14109317D02*
X19897801Y-14109317D01*
X19897801Y-14109317D02*
X19878754Y-14099793D01*
X19878754Y-14099793D02*
X19869230Y-14080746D01*
X19869230Y-14080746D02*
X19869230Y-14071222D01*
X19869230Y-14071222D02*
X19878754Y-14052174D01*
X19878754Y-14052174D02*
X19897801Y-14042650D01*
X19897801Y-14042650D02*
X19926373Y-14042650D01*
X19926373Y-14042650D02*
X19945420Y-14052174D01*
X20021611Y-14252174D02*
X20031135Y-14242650D01*
X20031135Y-14242650D02*
X20050182Y-14214079D01*
X20050182Y-14214079D02*
X20059706Y-14195031D01*
X20059706Y-14195031D02*
X20069230Y-14166460D01*
X20069230Y-14166460D02*
X20078754Y-14118841D01*
X20078754Y-14118841D02*
X20078754Y-14080746D01*
X20078754Y-14080746D02*
X20069230Y-14033127D01*
X20069230Y-14033127D02*
X20059706Y-14004555D01*
X20059706Y-14004555D02*
X20050182Y-13985508D01*
X20050182Y-13985508D02*
X20031135Y-13956936D01*
X20031135Y-13956936D02*
X20021611Y-13947412D01*
D12*
X13585000Y-14391000D02*
X13627500Y-14348500D01*
X13585000Y-14306000D01*
X13542500Y-14348500D01*
X13585000Y-14391000D01*
D11*
X13926372Y-14239984D02*
X13945420Y-14239984D01*
X13945420Y-14239984D02*
X13964467Y-14249508D01*
X13964467Y-14249508D02*
X13973991Y-14259031D01*
X13973991Y-14259031D02*
X13983515Y-14278079D01*
X13983515Y-14278079D02*
X13993039Y-14316174D01*
X13993039Y-14316174D02*
X13993039Y-14363793D01*
X13993039Y-14363793D02*
X13983515Y-14401888D01*
X13983515Y-14401888D02*
X13973991Y-14420936D01*
X13973991Y-14420936D02*
X13964467Y-14430460D01*
X13964467Y-14430460D02*
X13945420Y-14439984D01*
X13945420Y-14439984D02*
X13926372Y-14439984D01*
X13926372Y-14439984D02*
X13907324Y-14430460D01*
X13907324Y-14430460D02*
X13897801Y-14420936D01*
X13897801Y-14420936D02*
X13888277Y-14401888D01*
X13888277Y-14401888D02*
X13878753Y-14363793D01*
X13878753Y-14363793D02*
X13878753Y-14316174D01*
X13878753Y-14316174D02*
X13888277Y-14278079D01*
X13888277Y-14278079D02*
X13897801Y-14259031D01*
X13897801Y-14259031D02*
X13907324Y-14249508D01*
X13907324Y-14249508D02*
X13926372Y-14239984D01*
X14078753Y-14420936D02*
X14088277Y-14430460D01*
X14088277Y-14430460D02*
X14078753Y-14439984D01*
X14078753Y-14439984D02*
X14069229Y-14430460D01*
X14069229Y-14430460D02*
X14078753Y-14420936D01*
X14078753Y-14420936D02*
X14078753Y-14439984D01*
X14202562Y-14325698D02*
X14183515Y-14316174D01*
X14183515Y-14316174D02*
X14173991Y-14306650D01*
X14173991Y-14306650D02*
X14164467Y-14287603D01*
X14164467Y-14287603D02*
X14164467Y-14278079D01*
X14164467Y-14278079D02*
X14173991Y-14259031D01*
X14173991Y-14259031D02*
X14183515Y-14249508D01*
X14183515Y-14249508D02*
X14202562Y-14239984D01*
X14202562Y-14239984D02*
X14240658Y-14239984D01*
X14240658Y-14239984D02*
X14259705Y-14249508D01*
X14259705Y-14249508D02*
X14269229Y-14259031D01*
X14269229Y-14259031D02*
X14278753Y-14278079D01*
X14278753Y-14278079D02*
X14278753Y-14287603D01*
X14278753Y-14287603D02*
X14269229Y-14306650D01*
X14269229Y-14306650D02*
X14259705Y-14316174D01*
X14259705Y-14316174D02*
X14240658Y-14325698D01*
X14240658Y-14325698D02*
X14202562Y-14325698D01*
X14202562Y-14325698D02*
X14183515Y-14335222D01*
X14183515Y-14335222D02*
X14173991Y-14344746D01*
X14173991Y-14344746D02*
X14164467Y-14363793D01*
X14164467Y-14363793D02*
X14164467Y-14401888D01*
X14164467Y-14401888D02*
X14173991Y-14420936D01*
X14173991Y-14420936D02*
X14183515Y-14430460D01*
X14183515Y-14430460D02*
X14202562Y-14439984D01*
X14202562Y-14439984D02*
X14240658Y-14439984D01*
X14240658Y-14439984D02*
X14259705Y-14430460D01*
X14259705Y-14430460D02*
X14269229Y-14420936D01*
X14269229Y-14420936D02*
X14278753Y-14401888D01*
X14278753Y-14401888D02*
X14278753Y-14363793D01*
X14278753Y-14363793D02*
X14269229Y-14344746D01*
X14269229Y-14344746D02*
X14259705Y-14335222D01*
X14259705Y-14335222D02*
X14240658Y-14325698D01*
X14459705Y-14239984D02*
X14364467Y-14239984D01*
X14364467Y-14239984D02*
X14354943Y-14335222D01*
X14354943Y-14335222D02*
X14364467Y-14325698D01*
X14364467Y-14325698D02*
X14383515Y-14316174D01*
X14383515Y-14316174D02*
X14431134Y-14316174D01*
X14431134Y-14316174D02*
X14450182Y-14325698D01*
X14450182Y-14325698D02*
X14459705Y-14335222D01*
X14459705Y-14335222D02*
X14469229Y-14354269D01*
X14469229Y-14354269D02*
X14469229Y-14401888D01*
X14469229Y-14401888D02*
X14459705Y-14420936D01*
X14459705Y-14420936D02*
X14450182Y-14430460D01*
X14450182Y-14430460D02*
X14431134Y-14439984D01*
X14431134Y-14439984D02*
X14383515Y-14439984D01*
X14383515Y-14439984D02*
X14364467Y-14430460D01*
X14364467Y-14430460D02*
X14354943Y-14420936D01*
X14593039Y-14239984D02*
X14612086Y-14239984D01*
X14612086Y-14239984D02*
X14631134Y-14249508D01*
X14631134Y-14249508D02*
X14640658Y-14259031D01*
X14640658Y-14259031D02*
X14650182Y-14278079D01*
X14650182Y-14278079D02*
X14659705Y-14316174D01*
X14659705Y-14316174D02*
X14659705Y-14363793D01*
X14659705Y-14363793D02*
X14650182Y-14401888D01*
X14650182Y-14401888D02*
X14640658Y-14420936D01*
X14640658Y-14420936D02*
X14631134Y-14430460D01*
X14631134Y-14430460D02*
X14612086Y-14439984D01*
X14612086Y-14439984D02*
X14593039Y-14439984D01*
X14593039Y-14439984D02*
X14573991Y-14430460D01*
X14573991Y-14430460D02*
X14564467Y-14420936D01*
X14564467Y-14420936D02*
X14554943Y-14401888D01*
X14554943Y-14401888D02*
X14545420Y-14363793D01*
X14545420Y-14363793D02*
X14545420Y-14316174D01*
X14545420Y-14316174D02*
X14554943Y-14278079D01*
X14554943Y-14278079D02*
X14564467Y-14259031D01*
X14564467Y-14259031D02*
X14573991Y-14249508D01*
X14573991Y-14249508D02*
X14593039Y-14239984D01*
X14745420Y-14439984D02*
X14745420Y-14306650D01*
X14745420Y-14325698D02*
X14754943Y-14316174D01*
X14754943Y-14316174D02*
X14773991Y-14306650D01*
X14773991Y-14306650D02*
X14802563Y-14306650D01*
X14802563Y-14306650D02*
X14821610Y-14316174D01*
X14821610Y-14316174D02*
X14831134Y-14335222D01*
X14831134Y-14335222D02*
X14831134Y-14439984D01*
X14831134Y-14335222D02*
X14840658Y-14316174D01*
X14840658Y-14316174D02*
X14859705Y-14306650D01*
X14859705Y-14306650D02*
X14888277Y-14306650D01*
X14888277Y-14306650D02*
X14907324Y-14316174D01*
X14907324Y-14316174D02*
X14916848Y-14335222D01*
X14916848Y-14335222D02*
X14916848Y-14439984D01*
X15012086Y-14439984D02*
X15012086Y-14306650D01*
X15012086Y-14325698D02*
X15021610Y-14316174D01*
X15021610Y-14316174D02*
X15040658Y-14306650D01*
X15040658Y-14306650D02*
X15069229Y-14306650D01*
X15069229Y-14306650D02*
X15088277Y-14316174D01*
X15088277Y-14316174D02*
X15097801Y-14335222D01*
X15097801Y-14335222D02*
X15097801Y-14439984D01*
X15097801Y-14335222D02*
X15107324Y-14316174D01*
X15107324Y-14316174D02*
X15126372Y-14306650D01*
X15126372Y-14306650D02*
X15154943Y-14306650D01*
X15154943Y-14306650D02*
X15173991Y-14316174D01*
X15173991Y-14316174D02*
X15183515Y-14335222D01*
X15183515Y-14335222D02*
X15183515Y-14439984D01*
X15573991Y-14230460D02*
X15402563Y-14487603D01*
X15831134Y-14239984D02*
X15850182Y-14239984D01*
X15850182Y-14239984D02*
X15869229Y-14249508D01*
X15869229Y-14249508D02*
X15878753Y-14259031D01*
X15878753Y-14259031D02*
X15888277Y-14278079D01*
X15888277Y-14278079D02*
X15897801Y-14316174D01*
X15897801Y-14316174D02*
X15897801Y-14363793D01*
X15897801Y-14363793D02*
X15888277Y-14401888D01*
X15888277Y-14401888D02*
X15878753Y-14420936D01*
X15878753Y-14420936D02*
X15869229Y-14430460D01*
X15869229Y-14430460D02*
X15850182Y-14439984D01*
X15850182Y-14439984D02*
X15831134Y-14439984D01*
X15831134Y-14439984D02*
X15812086Y-14430460D01*
X15812086Y-14430460D02*
X15802563Y-14420936D01*
X15802563Y-14420936D02*
X15793039Y-14401888D01*
X15793039Y-14401888D02*
X15783515Y-14363793D01*
X15783515Y-14363793D02*
X15783515Y-14316174D01*
X15783515Y-14316174D02*
X15793039Y-14278079D01*
X15793039Y-14278079D02*
X15802563Y-14259031D01*
X15802563Y-14259031D02*
X15812086Y-14249508D01*
X15812086Y-14249508D02*
X15831134Y-14239984D01*
X15983515Y-14420936D02*
X15993039Y-14430460D01*
X15993039Y-14430460D02*
X15983515Y-14439984D01*
X15983515Y-14439984D02*
X15973991Y-14430460D01*
X15973991Y-14430460D02*
X15983515Y-14420936D01*
X15983515Y-14420936D02*
X15983515Y-14439984D01*
X16116848Y-14239984D02*
X16135896Y-14239984D01*
X16135896Y-14239984D02*
X16154944Y-14249508D01*
X16154944Y-14249508D02*
X16164467Y-14259031D01*
X16164467Y-14259031D02*
X16173991Y-14278079D01*
X16173991Y-14278079D02*
X16183515Y-14316174D01*
X16183515Y-14316174D02*
X16183515Y-14363793D01*
X16183515Y-14363793D02*
X16173991Y-14401888D01*
X16173991Y-14401888D02*
X16164467Y-14420936D01*
X16164467Y-14420936D02*
X16154944Y-14430460D01*
X16154944Y-14430460D02*
X16135896Y-14439984D01*
X16135896Y-14439984D02*
X16116848Y-14439984D01*
X16116848Y-14439984D02*
X16097801Y-14430460D01*
X16097801Y-14430460D02*
X16088277Y-14420936D01*
X16088277Y-14420936D02*
X16078753Y-14401888D01*
X16078753Y-14401888D02*
X16069229Y-14363793D01*
X16069229Y-14363793D02*
X16069229Y-14316174D01*
X16069229Y-14316174D02*
X16078753Y-14278079D01*
X16078753Y-14278079D02*
X16088277Y-14259031D01*
X16088277Y-14259031D02*
X16097801Y-14249508D01*
X16097801Y-14249508D02*
X16116848Y-14239984D01*
X16250182Y-14239984D02*
X16373991Y-14239984D01*
X16373991Y-14239984D02*
X16307325Y-14316174D01*
X16307325Y-14316174D02*
X16335896Y-14316174D01*
X16335896Y-14316174D02*
X16354944Y-14325698D01*
X16354944Y-14325698D02*
X16364467Y-14335222D01*
X16364467Y-14335222D02*
X16373991Y-14354269D01*
X16373991Y-14354269D02*
X16373991Y-14401888D01*
X16373991Y-14401888D02*
X16364467Y-14420936D01*
X16364467Y-14420936D02*
X16354944Y-14430460D01*
X16354944Y-14430460D02*
X16335896Y-14439984D01*
X16335896Y-14439984D02*
X16278753Y-14439984D01*
X16278753Y-14439984D02*
X16259706Y-14430460D01*
X16259706Y-14430460D02*
X16250182Y-14420936D01*
X16440658Y-14239984D02*
X16564467Y-14239984D01*
X16564467Y-14239984D02*
X16497801Y-14316174D01*
X16497801Y-14316174D02*
X16526372Y-14316174D01*
X16526372Y-14316174D02*
X16545420Y-14325698D01*
X16545420Y-14325698D02*
X16554944Y-14335222D01*
X16554944Y-14335222D02*
X16564467Y-14354269D01*
X16564467Y-14354269D02*
X16564467Y-14401888D01*
X16564467Y-14401888D02*
X16554944Y-14420936D01*
X16554944Y-14420936D02*
X16545420Y-14430460D01*
X16545420Y-14430460D02*
X16526372Y-14439984D01*
X16526372Y-14439984D02*
X16469229Y-14439984D01*
X16469229Y-14439984D02*
X16450182Y-14430460D01*
X16450182Y-14430460D02*
X16440658Y-14420936D01*
X16745420Y-14239984D02*
X16650182Y-14239984D01*
X16650182Y-14239984D02*
X16640658Y-14335222D01*
X16640658Y-14335222D02*
X16650182Y-14325698D01*
X16650182Y-14325698D02*
X16669229Y-14316174D01*
X16669229Y-14316174D02*
X16716848Y-14316174D01*
X16716848Y-14316174D02*
X16735896Y-14325698D01*
X16735896Y-14325698D02*
X16745420Y-14335222D01*
X16745420Y-14335222D02*
X16754944Y-14354269D01*
X16754944Y-14354269D02*
X16754944Y-14401888D01*
X16754944Y-14401888D02*
X16745420Y-14420936D01*
X16745420Y-14420936D02*
X16735896Y-14430460D01*
X16735896Y-14430460D02*
X16716848Y-14439984D01*
X16716848Y-14439984D02*
X16669229Y-14439984D01*
X16669229Y-14439984D02*
X16650182Y-14430460D01*
X16650182Y-14430460D02*
X16640658Y-14420936D01*
X16831134Y-14239984D02*
X16831134Y-14278079D01*
X16907325Y-14239984D02*
X16907325Y-14278079D01*
X17202563Y-14516174D02*
X17193039Y-14506650D01*
X17193039Y-14506650D02*
X17173991Y-14478079D01*
X17173991Y-14478079D02*
X17164468Y-14459031D01*
X17164468Y-14459031D02*
X17154944Y-14430460D01*
X17154944Y-14430460D02*
X17145420Y-14382841D01*
X17145420Y-14382841D02*
X17145420Y-14344746D01*
X17145420Y-14344746D02*
X17154944Y-14297127D01*
X17154944Y-14297127D02*
X17164468Y-14268555D01*
X17164468Y-14268555D02*
X17173991Y-14249508D01*
X17173991Y-14249508D02*
X17193039Y-14220936D01*
X17193039Y-14220936D02*
X17202563Y-14211412D01*
X17269230Y-14259031D02*
X17278753Y-14249508D01*
X17278753Y-14249508D02*
X17297801Y-14239984D01*
X17297801Y-14239984D02*
X17345420Y-14239984D01*
X17345420Y-14239984D02*
X17364468Y-14249508D01*
X17364468Y-14249508D02*
X17373991Y-14259031D01*
X17373991Y-14259031D02*
X17383515Y-14278079D01*
X17383515Y-14278079D02*
X17383515Y-14297127D01*
X17383515Y-14297127D02*
X17373991Y-14325698D01*
X17373991Y-14325698D02*
X17259706Y-14439984D01*
X17259706Y-14439984D02*
X17383515Y-14439984D01*
X17621611Y-14439984D02*
X17621611Y-14239984D01*
X17707325Y-14439984D02*
X17707325Y-14335222D01*
X17707325Y-14335222D02*
X17697801Y-14316174D01*
X17697801Y-14316174D02*
X17678753Y-14306650D01*
X17678753Y-14306650D02*
X17650182Y-14306650D01*
X17650182Y-14306650D02*
X17631134Y-14316174D01*
X17631134Y-14316174D02*
X17621611Y-14325698D01*
X17831134Y-14439984D02*
X17812087Y-14430460D01*
X17812087Y-14430460D02*
X17802563Y-14420936D01*
X17802563Y-14420936D02*
X17793039Y-14401888D01*
X17793039Y-14401888D02*
X17793039Y-14344746D01*
X17793039Y-14344746D02*
X17802563Y-14325698D01*
X17802563Y-14325698D02*
X17812087Y-14316174D01*
X17812087Y-14316174D02*
X17831134Y-14306650D01*
X17831134Y-14306650D02*
X17859706Y-14306650D01*
X17859706Y-14306650D02*
X17878753Y-14316174D01*
X17878753Y-14316174D02*
X17888277Y-14325698D01*
X17888277Y-14325698D02*
X17897801Y-14344746D01*
X17897801Y-14344746D02*
X17897801Y-14401888D01*
X17897801Y-14401888D02*
X17888277Y-14420936D01*
X17888277Y-14420936D02*
X17878753Y-14430460D01*
X17878753Y-14430460D02*
X17859706Y-14439984D01*
X17859706Y-14439984D02*
X17831134Y-14439984D01*
X18012087Y-14439984D02*
X17993039Y-14430460D01*
X17993039Y-14430460D02*
X17983515Y-14411412D01*
X17983515Y-14411412D02*
X17983515Y-14239984D01*
X18164468Y-14430460D02*
X18145420Y-14439984D01*
X18145420Y-14439984D02*
X18107325Y-14439984D01*
X18107325Y-14439984D02*
X18088277Y-14430460D01*
X18088277Y-14430460D02*
X18078753Y-14411412D01*
X18078753Y-14411412D02*
X18078753Y-14335222D01*
X18078753Y-14335222D02*
X18088277Y-14316174D01*
X18088277Y-14316174D02*
X18107325Y-14306650D01*
X18107325Y-14306650D02*
X18145420Y-14306650D01*
X18145420Y-14306650D02*
X18164468Y-14316174D01*
X18164468Y-14316174D02*
X18173992Y-14335222D01*
X18173992Y-14335222D02*
X18173992Y-14354269D01*
X18173992Y-14354269D02*
X18078753Y-14373317D01*
X18250182Y-14430460D02*
X18269230Y-14439984D01*
X18269230Y-14439984D02*
X18307325Y-14439984D01*
X18307325Y-14439984D02*
X18326373Y-14430460D01*
X18326373Y-14430460D02*
X18335896Y-14411412D01*
X18335896Y-14411412D02*
X18335896Y-14401888D01*
X18335896Y-14401888D02*
X18326373Y-14382841D01*
X18326373Y-14382841D02*
X18307325Y-14373317D01*
X18307325Y-14373317D02*
X18278753Y-14373317D01*
X18278753Y-14373317D02*
X18259706Y-14363793D01*
X18259706Y-14363793D02*
X18250182Y-14344746D01*
X18250182Y-14344746D02*
X18250182Y-14335222D01*
X18250182Y-14335222D02*
X18259706Y-14316174D01*
X18259706Y-14316174D02*
X18278753Y-14306650D01*
X18278753Y-14306650D02*
X18307325Y-14306650D01*
X18307325Y-14306650D02*
X18326373Y-14316174D01*
X18402563Y-14516174D02*
X18412087Y-14506650D01*
X18412087Y-14506650D02*
X18431134Y-14478079D01*
X18431134Y-14478079D02*
X18440658Y-14459031D01*
X18440658Y-14459031D02*
X18450182Y-14430460D01*
X18450182Y-14430460D02*
X18459706Y-14382841D01*
X18459706Y-14382841D02*
X18459706Y-14344746D01*
X18459706Y-14344746D02*
X18450182Y-14297127D01*
X18450182Y-14297127D02*
X18440658Y-14268555D01*
X18440658Y-14268555D02*
X18431134Y-14249508D01*
X18431134Y-14249508D02*
X18412087Y-14220936D01*
X18412087Y-14220936D02*
X18402563Y-14211412D01*
D12*
X13527500Y-14562500D02*
X13627500Y-14662500D01*
X13627500Y-14562500D02*
X13527500Y-14662500D01*
X13627500Y-14612500D02*
G75*
G02*
X13527500Y-14612500I-50000J0D01*
G01*
X13527500Y-14612500D02*
G75*
G02*
X13627500Y-14612500I50000J0D01*
G01*
D11*
X13993039Y-14703984D02*
X13878753Y-14703984D01*
X13935896Y-14703984D02*
X13935896Y-14503984D01*
X13935896Y-14503984D02*
X13916848Y-14532555D01*
X13916848Y-14532555D02*
X13897801Y-14551603D01*
X13897801Y-14551603D02*
X13878753Y-14561127D01*
X14078753Y-14684936D02*
X14088277Y-14694460D01*
X14088277Y-14694460D02*
X14078753Y-14703984D01*
X14078753Y-14703984D02*
X14069229Y-14694460D01*
X14069229Y-14694460D02*
X14078753Y-14684936D01*
X14078753Y-14684936D02*
X14078753Y-14703984D01*
X14212086Y-14503984D02*
X14231134Y-14503984D01*
X14231134Y-14503984D02*
X14250182Y-14513508D01*
X14250182Y-14513508D02*
X14259705Y-14523031D01*
X14259705Y-14523031D02*
X14269229Y-14542079D01*
X14269229Y-14542079D02*
X14278753Y-14580174D01*
X14278753Y-14580174D02*
X14278753Y-14627793D01*
X14278753Y-14627793D02*
X14269229Y-14665888D01*
X14269229Y-14665888D02*
X14259705Y-14684936D01*
X14259705Y-14684936D02*
X14250182Y-14694460D01*
X14250182Y-14694460D02*
X14231134Y-14703984D01*
X14231134Y-14703984D02*
X14212086Y-14703984D01*
X14212086Y-14703984D02*
X14193039Y-14694460D01*
X14193039Y-14694460D02*
X14183515Y-14684936D01*
X14183515Y-14684936D02*
X14173991Y-14665888D01*
X14173991Y-14665888D02*
X14164467Y-14627793D01*
X14164467Y-14627793D02*
X14164467Y-14580174D01*
X14164467Y-14580174D02*
X14173991Y-14542079D01*
X14173991Y-14542079D02*
X14183515Y-14523031D01*
X14183515Y-14523031D02*
X14193039Y-14513508D01*
X14193039Y-14513508D02*
X14212086Y-14503984D01*
X14402562Y-14503984D02*
X14421610Y-14503984D01*
X14421610Y-14503984D02*
X14440658Y-14513508D01*
X14440658Y-14513508D02*
X14450182Y-14523031D01*
X14450182Y-14523031D02*
X14459705Y-14542079D01*
X14459705Y-14542079D02*
X14469229Y-14580174D01*
X14469229Y-14580174D02*
X14469229Y-14627793D01*
X14469229Y-14627793D02*
X14459705Y-14665888D01*
X14459705Y-14665888D02*
X14450182Y-14684936D01*
X14450182Y-14684936D02*
X14440658Y-14694460D01*
X14440658Y-14694460D02*
X14421610Y-14703984D01*
X14421610Y-14703984D02*
X14402562Y-14703984D01*
X14402562Y-14703984D02*
X14383515Y-14694460D01*
X14383515Y-14694460D02*
X14373991Y-14684936D01*
X14373991Y-14684936D02*
X14364467Y-14665888D01*
X14364467Y-14665888D02*
X14354943Y-14627793D01*
X14354943Y-14627793D02*
X14354943Y-14580174D01*
X14354943Y-14580174D02*
X14364467Y-14542079D01*
X14364467Y-14542079D02*
X14373991Y-14523031D01*
X14373991Y-14523031D02*
X14383515Y-14513508D01*
X14383515Y-14513508D02*
X14402562Y-14503984D01*
X14593039Y-14503984D02*
X14612086Y-14503984D01*
X14612086Y-14503984D02*
X14631134Y-14513508D01*
X14631134Y-14513508D02*
X14640658Y-14523031D01*
X14640658Y-14523031D02*
X14650182Y-14542079D01*
X14650182Y-14542079D02*
X14659705Y-14580174D01*
X14659705Y-14580174D02*
X14659705Y-14627793D01*
X14659705Y-14627793D02*
X14650182Y-14665888D01*
X14650182Y-14665888D02*
X14640658Y-14684936D01*
X14640658Y-14684936D02*
X14631134Y-14694460D01*
X14631134Y-14694460D02*
X14612086Y-14703984D01*
X14612086Y-14703984D02*
X14593039Y-14703984D01*
X14593039Y-14703984D02*
X14573991Y-14694460D01*
X14573991Y-14694460D02*
X14564467Y-14684936D01*
X14564467Y-14684936D02*
X14554943Y-14665888D01*
X14554943Y-14665888D02*
X14545420Y-14627793D01*
X14545420Y-14627793D02*
X14545420Y-14580174D01*
X14545420Y-14580174D02*
X14554943Y-14542079D01*
X14554943Y-14542079D02*
X14564467Y-14523031D01*
X14564467Y-14523031D02*
X14573991Y-14513508D01*
X14573991Y-14513508D02*
X14593039Y-14503984D01*
X14745420Y-14703984D02*
X14745420Y-14570650D01*
X14745420Y-14589698D02*
X14754943Y-14580174D01*
X14754943Y-14580174D02*
X14773991Y-14570650D01*
X14773991Y-14570650D02*
X14802563Y-14570650D01*
X14802563Y-14570650D02*
X14821610Y-14580174D01*
X14821610Y-14580174D02*
X14831134Y-14599222D01*
X14831134Y-14599222D02*
X14831134Y-14703984D01*
X14831134Y-14599222D02*
X14840658Y-14580174D01*
X14840658Y-14580174D02*
X14859705Y-14570650D01*
X14859705Y-14570650D02*
X14888277Y-14570650D01*
X14888277Y-14570650D02*
X14907324Y-14580174D01*
X14907324Y-14580174D02*
X14916848Y-14599222D01*
X14916848Y-14599222D02*
X14916848Y-14703984D01*
X15012086Y-14703984D02*
X15012086Y-14570650D01*
X15012086Y-14589698D02*
X15021610Y-14580174D01*
X15021610Y-14580174D02*
X15040658Y-14570650D01*
X15040658Y-14570650D02*
X15069229Y-14570650D01*
X15069229Y-14570650D02*
X15088277Y-14580174D01*
X15088277Y-14580174D02*
X15097801Y-14599222D01*
X15097801Y-14599222D02*
X15097801Y-14703984D01*
X15097801Y-14599222D02*
X15107324Y-14580174D01*
X15107324Y-14580174D02*
X15126372Y-14570650D01*
X15126372Y-14570650D02*
X15154943Y-14570650D01*
X15154943Y-14570650D02*
X15173991Y-14580174D01*
X15173991Y-14580174D02*
X15183515Y-14599222D01*
X15183515Y-14599222D02*
X15183515Y-14703984D01*
X15573991Y-14494460D02*
X15402563Y-14751603D01*
X15831134Y-14503984D02*
X15850182Y-14503984D01*
X15850182Y-14503984D02*
X15869229Y-14513508D01*
X15869229Y-14513508D02*
X15878753Y-14523031D01*
X15878753Y-14523031D02*
X15888277Y-14542079D01*
X15888277Y-14542079D02*
X15897801Y-14580174D01*
X15897801Y-14580174D02*
X15897801Y-14627793D01*
X15897801Y-14627793D02*
X15888277Y-14665888D01*
X15888277Y-14665888D02*
X15878753Y-14684936D01*
X15878753Y-14684936D02*
X15869229Y-14694460D01*
X15869229Y-14694460D02*
X15850182Y-14703984D01*
X15850182Y-14703984D02*
X15831134Y-14703984D01*
X15831134Y-14703984D02*
X15812086Y-14694460D01*
X15812086Y-14694460D02*
X15802563Y-14684936D01*
X15802563Y-14684936D02*
X15793039Y-14665888D01*
X15793039Y-14665888D02*
X15783515Y-14627793D01*
X15783515Y-14627793D02*
X15783515Y-14580174D01*
X15783515Y-14580174D02*
X15793039Y-14542079D01*
X15793039Y-14542079D02*
X15802563Y-14523031D01*
X15802563Y-14523031D02*
X15812086Y-14513508D01*
X15812086Y-14513508D02*
X15831134Y-14503984D01*
X15983515Y-14684936D02*
X15993039Y-14694460D01*
X15993039Y-14694460D02*
X15983515Y-14703984D01*
X15983515Y-14703984D02*
X15973991Y-14694460D01*
X15973991Y-14694460D02*
X15983515Y-14684936D01*
X15983515Y-14684936D02*
X15983515Y-14703984D01*
X16116848Y-14503984D02*
X16135896Y-14503984D01*
X16135896Y-14503984D02*
X16154944Y-14513508D01*
X16154944Y-14513508D02*
X16164467Y-14523031D01*
X16164467Y-14523031D02*
X16173991Y-14542079D01*
X16173991Y-14542079D02*
X16183515Y-14580174D01*
X16183515Y-14580174D02*
X16183515Y-14627793D01*
X16183515Y-14627793D02*
X16173991Y-14665888D01*
X16173991Y-14665888D02*
X16164467Y-14684936D01*
X16164467Y-14684936D02*
X16154944Y-14694460D01*
X16154944Y-14694460D02*
X16135896Y-14703984D01*
X16135896Y-14703984D02*
X16116848Y-14703984D01*
X16116848Y-14703984D02*
X16097801Y-14694460D01*
X16097801Y-14694460D02*
X16088277Y-14684936D01*
X16088277Y-14684936D02*
X16078753Y-14665888D01*
X16078753Y-14665888D02*
X16069229Y-14627793D01*
X16069229Y-14627793D02*
X16069229Y-14580174D01*
X16069229Y-14580174D02*
X16078753Y-14542079D01*
X16078753Y-14542079D02*
X16088277Y-14523031D01*
X16088277Y-14523031D02*
X16097801Y-14513508D01*
X16097801Y-14513508D02*
X16116848Y-14503984D01*
X16250182Y-14503984D02*
X16373991Y-14503984D01*
X16373991Y-14503984D02*
X16307325Y-14580174D01*
X16307325Y-14580174D02*
X16335896Y-14580174D01*
X16335896Y-14580174D02*
X16354944Y-14589698D01*
X16354944Y-14589698D02*
X16364467Y-14599222D01*
X16364467Y-14599222D02*
X16373991Y-14618269D01*
X16373991Y-14618269D02*
X16373991Y-14665888D01*
X16373991Y-14665888D02*
X16364467Y-14684936D01*
X16364467Y-14684936D02*
X16354944Y-14694460D01*
X16354944Y-14694460D02*
X16335896Y-14703984D01*
X16335896Y-14703984D02*
X16278753Y-14703984D01*
X16278753Y-14703984D02*
X16259706Y-14694460D01*
X16259706Y-14694460D02*
X16250182Y-14684936D01*
X16469229Y-14703984D02*
X16507325Y-14703984D01*
X16507325Y-14703984D02*
X16526372Y-14694460D01*
X16526372Y-14694460D02*
X16535896Y-14684936D01*
X16535896Y-14684936D02*
X16554944Y-14656365D01*
X16554944Y-14656365D02*
X16564467Y-14618269D01*
X16564467Y-14618269D02*
X16564467Y-14542079D01*
X16564467Y-14542079D02*
X16554944Y-14523031D01*
X16554944Y-14523031D02*
X16545420Y-14513508D01*
X16545420Y-14513508D02*
X16526372Y-14503984D01*
X16526372Y-14503984D02*
X16488277Y-14503984D01*
X16488277Y-14503984D02*
X16469229Y-14513508D01*
X16469229Y-14513508D02*
X16459706Y-14523031D01*
X16459706Y-14523031D02*
X16450182Y-14542079D01*
X16450182Y-14542079D02*
X16450182Y-14589698D01*
X16450182Y-14589698D02*
X16459706Y-14608746D01*
X16459706Y-14608746D02*
X16469229Y-14618269D01*
X16469229Y-14618269D02*
X16488277Y-14627793D01*
X16488277Y-14627793D02*
X16526372Y-14627793D01*
X16526372Y-14627793D02*
X16545420Y-14618269D01*
X16545420Y-14618269D02*
X16554944Y-14608746D01*
X16554944Y-14608746D02*
X16564467Y-14589698D01*
X16735896Y-14570650D02*
X16735896Y-14703984D01*
X16688277Y-14494460D02*
X16640658Y-14637317D01*
X16640658Y-14637317D02*
X16764467Y-14637317D01*
X16831134Y-14503984D02*
X16831134Y-14542079D01*
X16907325Y-14503984D02*
X16907325Y-14542079D01*
X17202563Y-14780174D02*
X17193039Y-14770650D01*
X17193039Y-14770650D02*
X17173991Y-14742079D01*
X17173991Y-14742079D02*
X17164468Y-14723031D01*
X17164468Y-14723031D02*
X17154944Y-14694460D01*
X17154944Y-14694460D02*
X17145420Y-14646841D01*
X17145420Y-14646841D02*
X17145420Y-14608746D01*
X17145420Y-14608746D02*
X17154944Y-14561127D01*
X17154944Y-14561127D02*
X17164468Y-14532555D01*
X17164468Y-14532555D02*
X17173991Y-14513508D01*
X17173991Y-14513508D02*
X17193039Y-14484936D01*
X17193039Y-14484936D02*
X17202563Y-14475412D01*
X17364468Y-14570650D02*
X17364468Y-14703984D01*
X17316849Y-14494460D02*
X17269230Y-14637317D01*
X17269230Y-14637317D02*
X17393039Y-14637317D01*
X17554944Y-14570650D02*
X17554944Y-14703984D01*
X17507325Y-14494460D02*
X17459706Y-14637317D01*
X17459706Y-14637317D02*
X17583515Y-14637317D01*
X17812087Y-14703984D02*
X17812087Y-14503984D01*
X17897801Y-14703984D02*
X17897801Y-14599222D01*
X17897801Y-14599222D02*
X17888277Y-14580174D01*
X17888277Y-14580174D02*
X17869230Y-14570650D01*
X17869230Y-14570650D02*
X17840658Y-14570650D01*
X17840658Y-14570650D02*
X17821611Y-14580174D01*
X17821611Y-14580174D02*
X17812087Y-14589698D01*
X18021611Y-14703984D02*
X18002563Y-14694460D01*
X18002563Y-14694460D02*
X17993039Y-14684936D01*
X17993039Y-14684936D02*
X17983515Y-14665888D01*
X17983515Y-14665888D02*
X17983515Y-14608746D01*
X17983515Y-14608746D02*
X17993039Y-14589698D01*
X17993039Y-14589698D02*
X18002563Y-14580174D01*
X18002563Y-14580174D02*
X18021611Y-14570650D01*
X18021611Y-14570650D02*
X18050182Y-14570650D01*
X18050182Y-14570650D02*
X18069230Y-14580174D01*
X18069230Y-14580174D02*
X18078753Y-14589698D01*
X18078753Y-14589698D02*
X18088277Y-14608746D01*
X18088277Y-14608746D02*
X18088277Y-14665888D01*
X18088277Y-14665888D02*
X18078753Y-14684936D01*
X18078753Y-14684936D02*
X18069230Y-14694460D01*
X18069230Y-14694460D02*
X18050182Y-14703984D01*
X18050182Y-14703984D02*
X18021611Y-14703984D01*
X18202563Y-14703984D02*
X18183515Y-14694460D01*
X18183515Y-14694460D02*
X18173992Y-14675412D01*
X18173992Y-14675412D02*
X18173992Y-14503984D01*
X18354944Y-14694460D02*
X18335896Y-14703984D01*
X18335896Y-14703984D02*
X18297801Y-14703984D01*
X18297801Y-14703984D02*
X18278753Y-14694460D01*
X18278753Y-14694460D02*
X18269230Y-14675412D01*
X18269230Y-14675412D02*
X18269230Y-14599222D01*
X18269230Y-14599222D02*
X18278753Y-14580174D01*
X18278753Y-14580174D02*
X18297801Y-14570650D01*
X18297801Y-14570650D02*
X18335896Y-14570650D01*
X18335896Y-14570650D02*
X18354944Y-14580174D01*
X18354944Y-14580174D02*
X18364468Y-14599222D01*
X18364468Y-14599222D02*
X18364468Y-14618269D01*
X18364468Y-14618269D02*
X18269230Y-14637317D01*
X18440658Y-14694460D02*
X18459706Y-14703984D01*
X18459706Y-14703984D02*
X18497801Y-14703984D01*
X18497801Y-14703984D02*
X18516849Y-14694460D01*
X18516849Y-14694460D02*
X18526373Y-14675412D01*
X18526373Y-14675412D02*
X18526373Y-14665888D01*
X18526373Y-14665888D02*
X18516849Y-14646841D01*
X18516849Y-14646841D02*
X18497801Y-14637317D01*
X18497801Y-14637317D02*
X18469230Y-14637317D01*
X18469230Y-14637317D02*
X18450182Y-14627793D01*
X18450182Y-14627793D02*
X18440658Y-14608746D01*
X18440658Y-14608746D02*
X18440658Y-14599222D01*
X18440658Y-14599222D02*
X18450182Y-14580174D01*
X18450182Y-14580174D02*
X18469230Y-14570650D01*
X18469230Y-14570650D02*
X18497801Y-14570650D01*
X18497801Y-14570650D02*
X18516849Y-14580174D01*
X18593039Y-14780174D02*
X18602563Y-14770650D01*
X18602563Y-14770650D02*
X18621611Y-14742079D01*
X18621611Y-14742079D02*
X18631134Y-14723031D01*
X18631134Y-14723031D02*
X18640658Y-14694460D01*
X18640658Y-14694460D02*
X18650182Y-14646841D01*
X18650182Y-14646841D02*
X18650182Y-14608746D01*
X18650182Y-14608746D02*
X18640658Y-14561127D01*
X18640658Y-14561127D02*
X18631134Y-14532555D01*
X18631134Y-14532555D02*
X18621611Y-14513508D01*
X18621611Y-14513508D02*
X18602563Y-14484936D01*
X18602563Y-14484936D02*
X18593039Y-14475412D01*
M02*
