%TF.GenerationSoftware,KiCad,Pcbnew,8.0.4*%
%TF.CreationDate,2025-08-17T23:08:21+02:00*%
%TF.ProjectId,stm32l432kcu6_eval,73746d33-326c-4343-9332-6b6375365f65,rev?*%
%TF.SameCoordinates,Original*%
%TF.FileFunction,Legend,Bot*%
%TF.FilePolarity,Positive*%
%FSLAX46Y46*%
G04 Gerber Fmt 4.6, Leading zero omitted, Abs format (unit mm)*
G04 Created by KiCad (PCBNEW 8.0.4) date 2025-08-17 23:08:21*
%MOMM*%
%LPD*%
G01*
G04 APERTURE LIST*
%ADD10C,0.150000*%
%ADD11C,0.100000*%
%ADD12C,0.000000*%
%ADD13C,0.120000*%
G04 APERTURE END LIST*
D10*
X155307800Y-108047619D02*
X155260180Y-107952381D01*
X155260180Y-107952381D02*
X155260180Y-107761905D01*
X155260180Y-107761905D02*
X155307800Y-107666667D01*
X155307800Y-107666667D02*
X155403038Y-107619048D01*
X155403038Y-107619048D02*
X155450657Y-107619048D01*
X155450657Y-107619048D02*
X155545895Y-107666667D01*
X155545895Y-107666667D02*
X155593514Y-107761905D01*
X155593514Y-107761905D02*
X155593514Y-107904762D01*
X155593514Y-107904762D02*
X155641133Y-108000000D01*
X155641133Y-108000000D02*
X155736371Y-108047619D01*
X155736371Y-108047619D02*
X155783990Y-108047619D01*
X155783990Y-108047619D02*
X155879228Y-108000000D01*
X155879228Y-108000000D02*
X155926847Y-107904762D01*
X155926847Y-107904762D02*
X155926847Y-107761905D01*
X155926847Y-107761905D02*
X155879228Y-107666667D01*
X155926847Y-107333333D02*
X155926847Y-106952381D01*
X156260180Y-107190476D02*
X155403038Y-107190476D01*
X155403038Y-107190476D02*
X155307800Y-107142857D01*
X155307800Y-107142857D02*
X155260180Y-107047619D01*
X155260180Y-107047619D02*
X155260180Y-106952381D01*
X155260180Y-106619047D02*
X155926847Y-106619047D01*
X155831609Y-106619047D02*
X155879228Y-106571428D01*
X155879228Y-106571428D02*
X155926847Y-106476190D01*
X155926847Y-106476190D02*
X155926847Y-106333333D01*
X155926847Y-106333333D02*
X155879228Y-106238095D01*
X155879228Y-106238095D02*
X155783990Y-106190476D01*
X155783990Y-106190476D02*
X155260180Y-106190476D01*
X155783990Y-106190476D02*
X155879228Y-106142857D01*
X155879228Y-106142857D02*
X155926847Y-106047619D01*
X155926847Y-106047619D02*
X155926847Y-105904762D01*
X155926847Y-105904762D02*
X155879228Y-105809523D01*
X155879228Y-105809523D02*
X155783990Y-105761904D01*
X155783990Y-105761904D02*
X155260180Y-105761904D01*
X156260180Y-105380952D02*
X156260180Y-104761905D01*
X156260180Y-104761905D02*
X155879228Y-105095238D01*
X155879228Y-105095238D02*
X155879228Y-104952381D01*
X155879228Y-104952381D02*
X155831609Y-104857143D01*
X155831609Y-104857143D02*
X155783990Y-104809524D01*
X155783990Y-104809524D02*
X155688752Y-104761905D01*
X155688752Y-104761905D02*
X155450657Y-104761905D01*
X155450657Y-104761905D02*
X155355419Y-104809524D01*
X155355419Y-104809524D02*
X155307800Y-104857143D01*
X155307800Y-104857143D02*
X155260180Y-104952381D01*
X155260180Y-104952381D02*
X155260180Y-105238095D01*
X155260180Y-105238095D02*
X155307800Y-105333333D01*
X155307800Y-105333333D02*
X155355419Y-105380952D01*
X156164942Y-104380952D02*
X156212561Y-104333333D01*
X156212561Y-104333333D02*
X156260180Y-104238095D01*
X156260180Y-104238095D02*
X156260180Y-104000000D01*
X156260180Y-104000000D02*
X156212561Y-103904762D01*
X156212561Y-103904762D02*
X156164942Y-103857143D01*
X156164942Y-103857143D02*
X156069704Y-103809524D01*
X156069704Y-103809524D02*
X155974466Y-103809524D01*
X155974466Y-103809524D02*
X155831609Y-103857143D01*
X155831609Y-103857143D02*
X155260180Y-104428571D01*
X155260180Y-104428571D02*
X155260180Y-103809524D01*
X155260180Y-102904762D02*
X155260180Y-103380952D01*
X155260180Y-103380952D02*
X156260180Y-103380952D01*
X155926847Y-102142857D02*
X155260180Y-102142857D01*
X156307800Y-102380952D02*
X155593514Y-102619047D01*
X155593514Y-102619047D02*
X155593514Y-102000000D01*
X156260180Y-101714285D02*
X156260180Y-101095238D01*
X156260180Y-101095238D02*
X155879228Y-101428571D01*
X155879228Y-101428571D02*
X155879228Y-101285714D01*
X155879228Y-101285714D02*
X155831609Y-101190476D01*
X155831609Y-101190476D02*
X155783990Y-101142857D01*
X155783990Y-101142857D02*
X155688752Y-101095238D01*
X155688752Y-101095238D02*
X155450657Y-101095238D01*
X155450657Y-101095238D02*
X155355419Y-101142857D01*
X155355419Y-101142857D02*
X155307800Y-101190476D01*
X155307800Y-101190476D02*
X155260180Y-101285714D01*
X155260180Y-101285714D02*
X155260180Y-101571428D01*
X155260180Y-101571428D02*
X155307800Y-101666666D01*
X155307800Y-101666666D02*
X155355419Y-101714285D01*
X156164942Y-100714285D02*
X156212561Y-100666666D01*
X156212561Y-100666666D02*
X156260180Y-100571428D01*
X156260180Y-100571428D02*
X156260180Y-100333333D01*
X156260180Y-100333333D02*
X156212561Y-100238095D01*
X156212561Y-100238095D02*
X156164942Y-100190476D01*
X156164942Y-100190476D02*
X156069704Y-100142857D01*
X156069704Y-100142857D02*
X155974466Y-100142857D01*
X155974466Y-100142857D02*
X155831609Y-100190476D01*
X155831609Y-100190476D02*
X155260180Y-100761904D01*
X155260180Y-100761904D02*
X155260180Y-100142857D01*
X155260180Y-99714285D02*
X156260180Y-99714285D01*
X155260180Y-99142857D02*
X155831609Y-99571428D01*
X156260180Y-99142857D02*
X155688752Y-99714285D01*
X155355419Y-98142857D02*
X155307800Y-98190476D01*
X155307800Y-98190476D02*
X155260180Y-98333333D01*
X155260180Y-98333333D02*
X155260180Y-98428571D01*
X155260180Y-98428571D02*
X155307800Y-98571428D01*
X155307800Y-98571428D02*
X155403038Y-98666666D01*
X155403038Y-98666666D02*
X155498276Y-98714285D01*
X155498276Y-98714285D02*
X155688752Y-98761904D01*
X155688752Y-98761904D02*
X155831609Y-98761904D01*
X155831609Y-98761904D02*
X156022085Y-98714285D01*
X156022085Y-98714285D02*
X156117323Y-98666666D01*
X156117323Y-98666666D02*
X156212561Y-98571428D01*
X156212561Y-98571428D02*
X156260180Y-98428571D01*
X156260180Y-98428571D02*
X156260180Y-98333333D01*
X156260180Y-98333333D02*
X156212561Y-98190476D01*
X156212561Y-98190476D02*
X156164942Y-98142857D01*
X156260180Y-97714285D02*
X155450657Y-97714285D01*
X155450657Y-97714285D02*
X155355419Y-97666666D01*
X155355419Y-97666666D02*
X155307800Y-97619047D01*
X155307800Y-97619047D02*
X155260180Y-97523809D01*
X155260180Y-97523809D02*
X155260180Y-97333333D01*
X155260180Y-97333333D02*
X155307800Y-97238095D01*
X155307800Y-97238095D02*
X155355419Y-97190476D01*
X155355419Y-97190476D02*
X155450657Y-97142857D01*
X155450657Y-97142857D02*
X156260180Y-97142857D01*
X156260180Y-96238095D02*
X156260180Y-96428571D01*
X156260180Y-96428571D02*
X156212561Y-96523809D01*
X156212561Y-96523809D02*
X156164942Y-96571428D01*
X156164942Y-96571428D02*
X156022085Y-96666666D01*
X156022085Y-96666666D02*
X155831609Y-96714285D01*
X155831609Y-96714285D02*
X155450657Y-96714285D01*
X155450657Y-96714285D02*
X155355419Y-96666666D01*
X155355419Y-96666666D02*
X155307800Y-96619047D01*
X155307800Y-96619047D02*
X155260180Y-96523809D01*
X155260180Y-96523809D02*
X155260180Y-96333333D01*
X155260180Y-96333333D02*
X155307800Y-96238095D01*
X155307800Y-96238095D02*
X155355419Y-96190476D01*
X155355419Y-96190476D02*
X155450657Y-96142857D01*
X155450657Y-96142857D02*
X155688752Y-96142857D01*
X155688752Y-96142857D02*
X155783990Y-96190476D01*
X155783990Y-96190476D02*
X155831609Y-96238095D01*
X155831609Y-96238095D02*
X155879228Y-96333333D01*
X155879228Y-96333333D02*
X155879228Y-96523809D01*
X155879228Y-96523809D02*
X155831609Y-96619047D01*
X155831609Y-96619047D02*
X155783990Y-96666666D01*
X155783990Y-96666666D02*
X155688752Y-96714285D01*
X155164942Y-95952381D02*
X155164942Y-95190476D01*
X155783990Y-94952380D02*
X155783990Y-94619047D01*
X155260180Y-94476190D02*
X155260180Y-94952380D01*
X155260180Y-94952380D02*
X156260180Y-94952380D01*
X156260180Y-94952380D02*
X156260180Y-94476190D01*
X156260180Y-94190475D02*
X155260180Y-93857142D01*
X155260180Y-93857142D02*
X156260180Y-93523809D01*
X155545895Y-93238094D02*
X155545895Y-92761904D01*
X155260180Y-93333332D02*
X156260180Y-92999999D01*
X156260180Y-92999999D02*
X155260180Y-92666666D01*
X155260180Y-91857142D02*
X155260180Y-92333332D01*
X155260180Y-92333332D02*
X156260180Y-92333332D01*
X141733333Y-75354819D02*
X141733333Y-76069104D01*
X141733333Y-76069104D02*
X141780952Y-76211961D01*
X141780952Y-76211961D02*
X141876190Y-76307200D01*
X141876190Y-76307200D02*
X142019047Y-76354819D01*
X142019047Y-76354819D02*
X142114285Y-76354819D01*
X141304761Y-75450057D02*
X141257142Y-75402438D01*
X141257142Y-75402438D02*
X141161904Y-75354819D01*
X141161904Y-75354819D02*
X140923809Y-75354819D01*
X140923809Y-75354819D02*
X140828571Y-75402438D01*
X140828571Y-75402438D02*
X140780952Y-75450057D01*
X140780952Y-75450057D02*
X140733333Y-75545295D01*
X140733333Y-75545295D02*
X140733333Y-75640533D01*
X140733333Y-75640533D02*
X140780952Y-75783390D01*
X140780952Y-75783390D02*
X141352380Y-76354819D01*
X141352380Y-76354819D02*
X140733333Y-76354819D01*
D11*
X159349999Y-123691764D02*
X159349999Y-124227478D01*
X159349999Y-124227478D02*
X159385714Y-124334621D01*
X159385714Y-124334621D02*
X159457142Y-124406050D01*
X159457142Y-124406050D02*
X159564285Y-124441764D01*
X159564285Y-124441764D02*
X159635714Y-124441764D01*
X159064285Y-123691764D02*
X158599999Y-123691764D01*
X158599999Y-123691764D02*
X158849999Y-123977478D01*
X158849999Y-123977478D02*
X158742856Y-123977478D01*
X158742856Y-123977478D02*
X158671428Y-124013192D01*
X158671428Y-124013192D02*
X158635713Y-124048907D01*
X158635713Y-124048907D02*
X158599999Y-124120335D01*
X158599999Y-124120335D02*
X158599999Y-124298907D01*
X158599999Y-124298907D02*
X158635713Y-124370335D01*
X158635713Y-124370335D02*
X158671428Y-124406050D01*
X158671428Y-124406050D02*
X158742856Y-124441764D01*
X158742856Y-124441764D02*
X158957142Y-124441764D01*
X158957142Y-124441764D02*
X159028570Y-124406050D01*
X159028570Y-124406050D02*
X159064285Y-124370335D01*
D12*
%TO.C,G\u002A\u002A\u002A*%
G36*
X148016846Y-77164423D02*
G01*
X148011962Y-77169307D01*
X148007077Y-77164423D01*
X148011962Y-77159538D01*
X148016846Y-77164423D01*
G37*
G36*
X150285140Y-75453018D02*
G01*
X150289662Y-75456535D01*
X150279238Y-75458921D01*
X150269329Y-75458230D01*
X150266415Y-75453790D01*
X150269872Y-75451854D01*
X150285140Y-75453018D01*
G37*
G36*
X149943827Y-80629774D02*
G01*
X150073270Y-80632500D01*
X150076355Y-80969538D01*
X150076518Y-80989033D01*
X150076980Y-81090677D01*
X150076966Y-81204511D01*
X150076507Y-81324484D01*
X150075634Y-81444543D01*
X150074380Y-81558636D01*
X150072774Y-81660711D01*
X150066108Y-82014846D01*
X149940247Y-82014846D01*
X149814385Y-82014846D01*
X149814385Y-81320947D01*
X149814385Y-80627048D01*
X149943827Y-80629774D01*
G37*
G36*
X148419827Y-80629774D02*
G01*
X148549270Y-80632500D01*
X148550432Y-81065048D01*
X148550640Y-81130940D01*
X148551194Y-81234632D01*
X148552133Y-81321700D01*
X148553633Y-81394017D01*
X148555870Y-81453450D01*
X148559019Y-81501872D01*
X148563255Y-81541152D01*
X148568756Y-81573161D01*
X148575696Y-81599767D01*
X148584252Y-81622843D01*
X148594599Y-81644257D01*
X148606913Y-81665881D01*
X148644382Y-81713415D01*
X148696918Y-81753403D01*
X148758307Y-81780639D01*
X148825161Y-81794782D01*
X148894093Y-81795489D01*
X148961717Y-81782419D01*
X149024643Y-81755230D01*
X149079485Y-81713579D01*
X149097253Y-81695946D01*
X149112738Y-81679360D01*
X149125631Y-81662611D01*
X149136185Y-81643939D01*
X149144650Y-81621582D01*
X149151280Y-81593779D01*
X149156327Y-81558768D01*
X149160041Y-81514788D01*
X149162676Y-81460077D01*
X149164484Y-81392875D01*
X149165716Y-81311419D01*
X149166624Y-81213948D01*
X149167461Y-81098701D01*
X149170807Y-80627056D01*
X149299654Y-80629778D01*
X149428500Y-80632500D01*
X149425544Y-81077000D01*
X149425037Y-81145761D01*
X149423898Y-81258088D01*
X149422391Y-81353631D01*
X149420403Y-81434177D01*
X149417815Y-81501509D01*
X149414513Y-81557411D01*
X149410380Y-81603668D01*
X149405300Y-81642064D01*
X149399158Y-81674384D01*
X149391837Y-81702413D01*
X149383221Y-81727933D01*
X149367062Y-81765490D01*
X149319514Y-81841437D01*
X149257093Y-81906631D01*
X149181587Y-81959698D01*
X149094781Y-81999264D01*
X148998462Y-82023954D01*
X148995382Y-82024446D01*
X148959677Y-82028493D01*
X148914479Y-82031638D01*
X148868800Y-82033235D01*
X148762323Y-82027085D01*
X148660272Y-82004618D01*
X148568712Y-81966515D01*
X148488585Y-81913549D01*
X148420833Y-81846490D01*
X148366398Y-81766111D01*
X148326222Y-81673182D01*
X148301247Y-81568474D01*
X148299145Y-81549149D01*
X148296588Y-81506707D01*
X148294431Y-81447033D01*
X148292704Y-81371457D01*
X148291435Y-81281311D01*
X148290652Y-81177926D01*
X148290385Y-81062633D01*
X148290385Y-80627048D01*
X148419827Y-80629774D01*
G37*
G36*
X152428935Y-80616086D02*
G01*
X152496014Y-80621219D01*
X152551106Y-80630540D01*
X152603935Y-80645781D01*
X152708247Y-80690427D01*
X152804875Y-80751526D01*
X152891696Y-80827360D01*
X152966593Y-80916213D01*
X153027443Y-81016366D01*
X153041798Y-81046783D01*
X153062915Y-81104447D01*
X153076831Y-81166238D01*
X153084514Y-81237133D01*
X153086933Y-81322110D01*
X153086148Y-81367962D01*
X153076195Y-81474457D01*
X153053834Y-81569120D01*
X153017833Y-81655198D01*
X152966962Y-81735935D01*
X152899986Y-81814577D01*
X152819306Y-81888744D01*
X152734066Y-81946155D01*
X152640693Y-81988561D01*
X152535116Y-82018233D01*
X152532310Y-82018823D01*
X152434667Y-82031529D01*
X152330843Y-82031596D01*
X152226572Y-82019669D01*
X152127587Y-81996394D01*
X152039620Y-81962417D01*
X152014452Y-81948729D01*
X151979565Y-81926878D01*
X151942472Y-81901430D01*
X151906930Y-81875175D01*
X151876693Y-81850902D01*
X151855517Y-81831401D01*
X151847157Y-81819461D01*
X151847151Y-81818098D01*
X151849648Y-81811798D01*
X151857710Y-81801400D01*
X151873493Y-81784569D01*
X151899149Y-81758970D01*
X151936835Y-81722268D01*
X152011950Y-81649497D01*
X152034187Y-81670041D01*
X152063673Y-81692910D01*
X152108439Y-81720581D01*
X152159655Y-81747174D01*
X152210895Y-81769089D01*
X152252555Y-81782305D01*
X152340279Y-81795946D01*
X152427966Y-81792023D01*
X152512958Y-81771593D01*
X152592595Y-81735712D01*
X152664219Y-81685436D01*
X152725170Y-81621821D01*
X152772789Y-81545923D01*
X152779741Y-81530904D01*
X152805812Y-81450529D01*
X152818689Y-81362627D01*
X152818312Y-81272627D01*
X152804623Y-81185958D01*
X152777561Y-81108050D01*
X152769794Y-81092868D01*
X152731057Y-81036124D01*
X152680277Y-80981593D01*
X152622916Y-80934594D01*
X152564437Y-80900450D01*
X152535783Y-80888581D01*
X152445096Y-80864554D01*
X152351762Y-80858984D01*
X152257926Y-80871649D01*
X152165733Y-80902327D01*
X152077329Y-80950797D01*
X152020063Y-80989037D01*
X151936506Y-80904153D01*
X151852949Y-80819269D01*
X151896071Y-80781605D01*
X151929599Y-80756695D01*
X151978169Y-80727178D01*
X152034770Y-80697144D01*
X152093933Y-80669316D01*
X152150192Y-80646417D01*
X152198077Y-80631172D01*
X152224533Y-80625701D01*
X152286318Y-80618340D01*
X152356744Y-80615131D01*
X152428935Y-80616086D01*
G37*
G36*
X151524000Y-81320568D02*
G01*
X151524000Y-82014846D01*
X151392116Y-82014846D01*
X151260231Y-82014846D01*
X151260231Y-81785269D01*
X151260231Y-81555692D01*
X151135673Y-81555759D01*
X151011116Y-81555825D01*
X150967154Y-81618197D01*
X150965397Y-81620685D01*
X150944672Y-81649688D01*
X150915276Y-81690419D01*
X150879811Y-81739293D01*
X150840877Y-81792724D01*
X150801077Y-81847127D01*
X150678962Y-82013685D01*
X150525302Y-82014265D01*
X150371642Y-82014846D01*
X150538674Y-81792596D01*
X150544537Y-81784798D01*
X150588236Y-81726837D01*
X150628679Y-81673474D01*
X150664174Y-81626917D01*
X150693034Y-81589376D01*
X150713567Y-81563059D01*
X150724084Y-81550178D01*
X150739082Y-81531002D01*
X150740012Y-81519887D01*
X150725366Y-81516607D01*
X150714201Y-81514718D01*
X150686125Y-81504880D01*
X150650508Y-81489033D01*
X150612906Y-81469898D01*
X150578872Y-81450196D01*
X150553962Y-81432649D01*
X150540890Y-81421157D01*
X150486788Y-81359043D01*
X150448434Y-81286308D01*
X150425551Y-81202286D01*
X150417859Y-81106307D01*
X150418133Y-81098388D01*
X150690748Y-81098388D01*
X150693698Y-81141198D01*
X150707657Y-81195870D01*
X150734824Y-81239035D01*
X150777231Y-81273528D01*
X150836911Y-81302183D01*
X150844033Y-81304873D01*
X150866659Y-81312240D01*
X150891022Y-81317729D01*
X150920684Y-81321733D01*
X150959204Y-81324648D01*
X151010142Y-81326866D01*
X151077058Y-81328783D01*
X151260231Y-81333351D01*
X151260231Y-81097714D01*
X151260231Y-80862077D01*
X151119911Y-80862077D01*
X151088157Y-80862218D01*
X151015563Y-80864147D01*
X150957002Y-80868787D01*
X150908544Y-80876705D01*
X150866259Y-80888473D01*
X150826215Y-80904661D01*
X150825189Y-80905137D01*
X150765191Y-80941122D01*
X150722933Y-80985116D01*
X150698192Y-81037432D01*
X150690748Y-81098388D01*
X150418133Y-81098388D01*
X150419348Y-81063203D01*
X150434988Y-80969102D01*
X150467368Y-80884851D01*
X150516129Y-80810928D01*
X150580913Y-80747808D01*
X150661362Y-80695967D01*
X150757116Y-80655883D01*
X150772838Y-80650866D01*
X150791049Y-80645842D01*
X150810549Y-80641822D01*
X150833619Y-80638663D01*
X150862540Y-80636223D01*
X150899593Y-80634358D01*
X150947059Y-80632928D01*
X151007220Y-80631789D01*
X151082357Y-80630799D01*
X151174750Y-80629815D01*
X151524000Y-80626290D01*
X151524000Y-81097714D01*
X151524000Y-81320568D01*
G37*
G36*
X147517973Y-80616819D02*
G01*
X147563952Y-80617913D01*
X147599119Y-80620662D01*
X147629024Y-80625859D01*
X147659217Y-80634300D01*
X147695247Y-80646779D01*
X147749954Y-80669980D01*
X147824816Y-80714918D01*
X147886968Y-80769437D01*
X147934236Y-80831503D01*
X147964450Y-80899079D01*
X147965421Y-80902521D01*
X147971679Y-80936174D01*
X147976096Y-80979654D01*
X147977770Y-81024455D01*
X147976333Y-81064253D01*
X147965399Y-81132396D01*
X147942775Y-81192527D01*
X147907346Y-81245615D01*
X147857996Y-81292624D01*
X147793610Y-81334522D01*
X147713072Y-81372276D01*
X147615266Y-81406851D01*
X147499077Y-81439215D01*
X147476458Y-81444938D01*
X147408945Y-81462812D01*
X147356923Y-81478311D01*
X147317539Y-81492564D01*
X147287943Y-81506702D01*
X147265281Y-81521851D01*
X147246704Y-81539143D01*
X147235223Y-81554528D01*
X147219255Y-81589451D01*
X147210776Y-81626957D01*
X147212320Y-81658269D01*
X147220869Y-81680077D01*
X147251157Y-81721062D01*
X147295598Y-81753885D01*
X147351521Y-81778048D01*
X147416255Y-81793050D01*
X147487128Y-81798390D01*
X147561470Y-81793569D01*
X147636610Y-81778086D01*
X147709877Y-81751441D01*
X147750846Y-81731146D01*
X147800233Y-81702650D01*
X147843557Y-81673512D01*
X147874733Y-81647564D01*
X147878057Y-81643999D01*
X147883009Y-81638852D01*
X147888000Y-81637345D01*
X147895064Y-81641412D01*
X147906233Y-81652983D01*
X147923543Y-81673989D01*
X147949024Y-81706363D01*
X147984712Y-81752035D01*
X148035616Y-81817052D01*
X147989596Y-81855494D01*
X147958750Y-81880555D01*
X147890648Y-81929475D01*
X147824613Y-81966246D01*
X147754689Y-81993894D01*
X147674923Y-82015448D01*
X147667795Y-82017024D01*
X147623630Y-82025162D01*
X147579389Y-82029789D01*
X147528623Y-82031363D01*
X147464885Y-82030342D01*
X147432917Y-82029010D01*
X147325116Y-82017739D01*
X147232760Y-81996015D01*
X147154645Y-81963233D01*
X147089572Y-81918785D01*
X147036336Y-81862064D01*
X146993738Y-81792464D01*
X146983694Y-81771951D01*
X146970885Y-81743343D01*
X146963006Y-81718717D01*
X146958879Y-81692192D01*
X146957328Y-81657889D01*
X146957174Y-81609929D01*
X146957675Y-81572141D01*
X146960315Y-81524912D01*
X146965640Y-81490400D01*
X146974132Y-81464465D01*
X146993671Y-81427729D01*
X147042981Y-81366264D01*
X147109324Y-81312102D01*
X147191784Y-81265812D01*
X147289443Y-81227963D01*
X147401385Y-81199125D01*
X147428948Y-81193315D01*
X147524887Y-81168962D01*
X147601760Y-81141940D01*
X147659824Y-81112048D01*
X147699336Y-81079087D01*
X147720552Y-81042856D01*
X147723730Y-81003157D01*
X147709126Y-80959789D01*
X147683447Y-80923860D01*
X147639607Y-80889949D01*
X147584627Y-80866908D01*
X147521318Y-80854746D01*
X147452486Y-80853476D01*
X147380942Y-80863111D01*
X147309492Y-80883661D01*
X147240945Y-80915139D01*
X147178110Y-80957556D01*
X147135565Y-80992065D01*
X147109945Y-80958821D01*
X147091297Y-80936042D01*
X147064065Y-80904750D01*
X147035258Y-80873118D01*
X146986193Y-80820659D01*
X147042958Y-80768997D01*
X147054233Y-80758935D01*
X147125911Y-80704455D01*
X147201531Y-80664111D01*
X147284357Y-80636776D01*
X147377655Y-80621325D01*
X147484687Y-80616630D01*
X147517973Y-80616819D01*
G37*
G36*
X149221743Y-74984608D02*
G01*
X149226393Y-75010307D01*
X149226439Y-75010812D01*
X149228220Y-75024785D01*
X149231773Y-75046728D01*
X149237318Y-75077755D01*
X149245075Y-75118984D01*
X149255265Y-75171529D01*
X149268108Y-75236508D01*
X149283826Y-75315036D01*
X149302637Y-75408229D01*
X149324764Y-75517204D01*
X149350426Y-75643076D01*
X149379843Y-75786961D01*
X149388267Y-75828128D01*
X149409544Y-75932189D01*
X149432292Y-76043543D01*
X149455434Y-76156903D01*
X149477890Y-76266982D01*
X149498580Y-76368495D01*
X149516426Y-76456154D01*
X149526574Y-76505993D01*
X149554667Y-76643573D01*
X149584155Y-76787464D01*
X149614452Y-76934837D01*
X149644973Y-77082863D01*
X149675132Y-77228713D01*
X149704343Y-77369557D01*
X149732022Y-77502568D01*
X149757583Y-77624915D01*
X149780440Y-77733770D01*
X149800007Y-77826304D01*
X149813605Y-77890452D01*
X149826533Y-77951748D01*
X149837515Y-78004149D01*
X149846019Y-78045103D01*
X149851512Y-78072056D01*
X149853462Y-78082453D01*
X149852877Y-78084126D01*
X149844803Y-78096118D01*
X149826945Y-78119208D01*
X149798924Y-78153851D01*
X149760358Y-78200501D01*
X149710868Y-78259616D01*
X149650074Y-78331648D01*
X149577594Y-78417054D01*
X149493048Y-78516289D01*
X149396056Y-78629807D01*
X149387325Y-78640016D01*
X149321719Y-78716719D01*
X149258087Y-78791128D01*
X149197960Y-78861447D01*
X149142872Y-78925885D01*
X149094355Y-78982648D01*
X149053942Y-79029944D01*
X149023164Y-79065979D01*
X149003556Y-79088961D01*
X148991007Y-79103473D01*
X148950367Y-79148559D01*
X148907082Y-79194413D01*
X148868622Y-79233057D01*
X148836348Y-79262607D01*
X148805406Y-79286779D01*
X148783681Y-79298498D01*
X148772480Y-79297096D01*
X148773113Y-79281904D01*
X148775544Y-79269418D01*
X148779464Y-79240468D01*
X148783948Y-79200721D01*
X148788426Y-79154904D01*
X148790704Y-79129771D01*
X148796646Y-79064254D01*
X148802878Y-78995596D01*
X148808374Y-78935096D01*
X148811172Y-78904793D01*
X148816780Y-78846062D01*
X148822441Y-78788859D01*
X148827276Y-78742154D01*
X148827621Y-78738924D01*
X148832790Y-78688400D01*
X148837871Y-78635344D01*
X148841813Y-78590730D01*
X148849025Y-78505183D01*
X148865160Y-78327396D01*
X148881842Y-78160884D01*
X148882899Y-78150840D01*
X148889602Y-78085922D01*
X148897120Y-78011494D01*
X148904610Y-77935981D01*
X148911225Y-77867807D01*
X148913806Y-77841101D01*
X148921007Y-77768630D01*
X148929209Y-77688215D01*
X148937589Y-77607881D01*
X148945324Y-77535654D01*
X148950529Y-77487841D01*
X148961910Y-77382942D01*
X148971537Y-77293519D01*
X148979702Y-77216770D01*
X148986696Y-77149893D01*
X148992811Y-77090087D01*
X148998338Y-77034550D01*
X149003567Y-76980480D01*
X149008791Y-76925077D01*
X149014781Y-76861753D01*
X149026240Y-76744151D01*
X149038850Y-76618330D01*
X149051907Y-76491212D01*
X149064702Y-76369718D01*
X149076533Y-76260769D01*
X149081847Y-76211557D01*
X149088721Y-76145825D01*
X149096267Y-76072030D01*
X149103885Y-75996042D01*
X149110976Y-75923730D01*
X149117875Y-75853899D01*
X149125365Y-75780699D01*
X149132776Y-75710565D01*
X149139529Y-75648960D01*
X149145048Y-75601346D01*
X149148976Y-75567937D01*
X149156485Y-75499662D01*
X149163732Y-75429021D01*
X149169578Y-75366884D01*
X149173012Y-75328711D01*
X149178720Y-75267981D01*
X149184470Y-75209441D01*
X149189425Y-75161730D01*
X149190751Y-75149336D01*
X149195517Y-75102106D01*
X149199587Y-75057919D01*
X149202198Y-75024961D01*
X149203326Y-75012279D01*
X149208486Y-74986637D01*
X149215199Y-74977065D01*
X149221743Y-74984608D01*
G37*
G36*
X149299124Y-74805198D02*
G01*
X149316882Y-74824692D01*
X149327898Y-74838262D01*
X149351116Y-74868712D01*
X149378918Y-74906629D01*
X149407443Y-74946807D01*
X149416577Y-74959866D01*
X149440975Y-74994595D01*
X149474293Y-75041901D01*
X149515003Y-75099617D01*
X149561578Y-75165580D01*
X149612489Y-75237626D01*
X149666210Y-75313590D01*
X149721211Y-75391307D01*
X149746862Y-75427541D01*
X149803414Y-75507440D01*
X149859068Y-75586090D01*
X149912092Y-75661042D01*
X149960754Y-75729847D01*
X150003321Y-75790056D01*
X150038060Y-75839218D01*
X150063240Y-75874884D01*
X150070030Y-75884511D01*
X150111619Y-75943471D01*
X150158268Y-76009605D01*
X150204754Y-76075507D01*
X150245852Y-76133769D01*
X150246027Y-76134018D01*
X150268619Y-76165977D01*
X150301221Y-76212000D01*
X150342528Y-76270251D01*
X150391236Y-76338891D01*
X150446041Y-76416085D01*
X150505638Y-76499995D01*
X150568724Y-76588785D01*
X150633995Y-76680617D01*
X150700146Y-76773654D01*
X150749571Y-76843161D01*
X150821548Y-76944403D01*
X150894556Y-77047118D01*
X150966831Y-77148821D01*
X151036607Y-77247028D01*
X151102119Y-77339253D01*
X151161601Y-77423012D01*
X151213287Y-77495820D01*
X151255413Y-77555192D01*
X151289359Y-77603051D01*
X151348391Y-77686271D01*
X151413744Y-77778394D01*
X151482410Y-77875180D01*
X151551381Y-77972389D01*
X151617649Y-78065780D01*
X151678205Y-78151115D01*
X151732052Y-78227056D01*
X151784261Y-78300937D01*
X151826819Y-78361600D01*
X151860649Y-78410477D01*
X151886671Y-78448999D01*
X151905807Y-78478595D01*
X151918978Y-78500697D01*
X151927105Y-78516734D01*
X151931110Y-78528138D01*
X151931913Y-78536338D01*
X151930437Y-78542766D01*
X151926354Y-78550855D01*
X151918995Y-78555036D01*
X151904775Y-78554145D01*
X151879777Y-78547886D01*
X151840087Y-78535965D01*
X151819241Y-78529163D01*
X151780219Y-78515808D01*
X151727487Y-78497391D01*
X151663525Y-78474803D01*
X151590810Y-78448937D01*
X151511824Y-78420683D01*
X151429045Y-78390933D01*
X151344953Y-78360578D01*
X151262028Y-78330509D01*
X151182748Y-78301619D01*
X151109593Y-78274797D01*
X151045043Y-78250936D01*
X150991577Y-78230927D01*
X150951747Y-78215954D01*
X150896600Y-78195328D01*
X150830628Y-78170726D01*
X150757625Y-78143560D01*
X150681382Y-78115244D01*
X150605693Y-78087190D01*
X150601434Y-78085613D01*
X150504563Y-78049351D01*
X150424587Y-78018518D01*
X150359927Y-77992394D01*
X150309006Y-77970257D01*
X150270244Y-77951388D01*
X150242065Y-77935068D01*
X150222889Y-77920576D01*
X150211139Y-77907192D01*
X150209698Y-77904930D01*
X150205618Y-77897614D01*
X150201032Y-77887527D01*
X150195434Y-77873073D01*
X150188322Y-77852656D01*
X150179192Y-77824678D01*
X150167539Y-77787545D01*
X150152861Y-77739658D01*
X150134652Y-77679422D01*
X150112410Y-77605240D01*
X150085631Y-77515516D01*
X150053810Y-77408654D01*
X150034341Y-77343300D01*
X150006149Y-77248849D01*
X149976634Y-77150148D01*
X149947517Y-77052943D01*
X149920519Y-76962978D01*
X149897358Y-76886000D01*
X149857746Y-76754530D01*
X149812721Y-76604931D01*
X149772162Y-76469959D01*
X149735394Y-76347354D01*
X149701740Y-76234854D01*
X149670525Y-76130199D01*
X149641071Y-76031128D01*
X149612704Y-75935379D01*
X149584746Y-75840692D01*
X149565497Y-75775570D01*
X149536191Y-75676903D01*
X149504955Y-75572200D01*
X149473643Y-75467658D01*
X149444109Y-75369474D01*
X149418206Y-75283846D01*
X149406660Y-75245757D01*
X149373429Y-75135155D01*
X149345969Y-75042045D01*
X149324053Y-74965602D01*
X149307452Y-74905004D01*
X149295940Y-74859427D01*
X149289288Y-74828046D01*
X149287268Y-74810038D01*
X149287368Y-74807406D01*
X149290241Y-74799908D01*
X149299124Y-74805198D01*
G37*
G36*
X150385733Y-75461054D02*
G01*
X150434731Y-75466005D01*
X150573215Y-75485427D01*
X150788691Y-75529768D01*
X150993887Y-75590399D01*
X151189735Y-75667758D01*
X151377166Y-75762281D01*
X151557112Y-75874408D01*
X151730504Y-76004574D01*
X151898275Y-76153218D01*
X151999614Y-76257048D01*
X152127099Y-76410016D01*
X152241809Y-76574689D01*
X152342626Y-76748879D01*
X152428430Y-76930395D01*
X152498104Y-77117048D01*
X152550530Y-77306647D01*
X152584587Y-77497002D01*
X152589908Y-77543423D01*
X152593908Y-77592696D01*
X152596422Y-77646410D01*
X152597566Y-77708334D01*
X152597458Y-77782236D01*
X152596214Y-77871881D01*
X152594819Y-77943485D01*
X152593118Y-78008133D01*
X152590942Y-78060446D01*
X152587956Y-78104222D01*
X152583829Y-78143258D01*
X152578225Y-78181351D01*
X152570811Y-78222298D01*
X152561255Y-78269896D01*
X152552833Y-78309230D01*
X152496289Y-78519222D01*
X152421940Y-78721224D01*
X152329925Y-78914975D01*
X152220378Y-79100212D01*
X152093437Y-79276672D01*
X151949238Y-79444093D01*
X151921077Y-79473766D01*
X151853043Y-79541943D01*
X151786188Y-79603013D01*
X151714373Y-79662412D01*
X151631462Y-79725578D01*
X151513184Y-79807825D01*
X151335427Y-79912888D01*
X151149444Y-80001208D01*
X150952500Y-80074187D01*
X150951023Y-80074664D01*
X150890693Y-80093740D01*
X150837086Y-80109521D01*
X150785854Y-80123003D01*
X150732652Y-80135183D01*
X150673135Y-80147058D01*
X150602956Y-80159624D01*
X150517770Y-80173878D01*
X150496172Y-80176297D01*
X150457805Y-80179147D01*
X150407671Y-80182031D01*
X150349793Y-80184720D01*
X150288193Y-80186984D01*
X150244866Y-80188207D01*
X150135362Y-80189496D01*
X150038169Y-80187447D01*
X149948136Y-80181779D01*
X149860113Y-80172208D01*
X149768947Y-80158451D01*
X149630588Y-80130539D01*
X149440292Y-80077612D01*
X149252848Y-80009120D01*
X149070764Y-79926353D01*
X148896548Y-79830601D01*
X148732709Y-79723154D01*
X148581755Y-79605301D01*
X148446196Y-79478332D01*
X148403313Y-79433066D01*
X148261369Y-79267069D01*
X148134563Y-79092334D01*
X148023770Y-78910398D01*
X147929864Y-78722795D01*
X147853719Y-78531060D01*
X147796209Y-78336730D01*
X147795967Y-78335741D01*
X147776260Y-78251579D01*
X147760718Y-78175185D01*
X147748799Y-78102012D01*
X147739964Y-78027512D01*
X147733671Y-77947138D01*
X147729382Y-77856342D01*
X147726554Y-77750577D01*
X147725817Y-77709195D01*
X147725034Y-77640550D01*
X147724974Y-77584757D01*
X147725561Y-77542651D01*
X147726716Y-77515069D01*
X147728361Y-77502845D01*
X147730420Y-77506817D01*
X147732814Y-77527819D01*
X147735466Y-77566688D01*
X147738298Y-77624259D01*
X147749496Y-77788936D01*
X147772210Y-77964001D01*
X147806691Y-78130969D01*
X147854114Y-78294492D01*
X147915656Y-78459220D01*
X147992493Y-78629807D01*
X148052068Y-78744462D01*
X148161633Y-78922057D01*
X148285827Y-79087275D01*
X148423948Y-79239598D01*
X148575289Y-79378508D01*
X148739149Y-79503489D01*
X148914823Y-79614022D01*
X149101606Y-79709590D01*
X149298796Y-79789674D01*
X149505687Y-79853758D01*
X149721577Y-79901324D01*
X149758766Y-79906675D01*
X149823219Y-79912728D01*
X149899909Y-79917325D01*
X149984657Y-79920404D01*
X150073284Y-79921906D01*
X150161611Y-79921768D01*
X150245459Y-79919932D01*
X150320649Y-79916336D01*
X150383003Y-79910919D01*
X150568350Y-79882895D01*
X150757092Y-79839190D01*
X150934718Y-79781183D01*
X151102826Y-79708426D01*
X151267848Y-79619486D01*
X151442986Y-79505455D01*
X151605610Y-79377903D01*
X151755004Y-79237800D01*
X151890456Y-79086115D01*
X152011251Y-78923819D01*
X152116676Y-78751880D01*
X152206015Y-78571269D01*
X152278555Y-78382955D01*
X152333582Y-78187908D01*
X152370382Y-77987097D01*
X152377320Y-77920680D01*
X152382388Y-77839515D01*
X152385300Y-77750798D01*
X152386016Y-77659917D01*
X152384495Y-77572263D01*
X152380697Y-77493224D01*
X152374580Y-77428192D01*
X152358110Y-77319849D01*
X152316851Y-77132658D01*
X152259962Y-76954379D01*
X152186409Y-76781988D01*
X152095154Y-76612461D01*
X152042998Y-76527236D01*
X151987419Y-76443660D01*
X151931206Y-76368094D01*
X151870525Y-76295719D01*
X151801546Y-76221715D01*
X151720435Y-76141265D01*
X151567905Y-76005534D01*
X151394078Y-75875029D01*
X151210947Y-75760909D01*
X151019663Y-75663821D01*
X150821378Y-75584408D01*
X150617241Y-75523315D01*
X150590864Y-75517022D01*
X150539998Y-75506030D01*
X150484694Y-75495159D01*
X150429652Y-75485242D01*
X150379573Y-75477108D01*
X150339157Y-75471590D01*
X150313104Y-75469519D01*
X150306479Y-75468296D01*
X150308220Y-75460884D01*
X150318744Y-75458613D01*
X150345889Y-75458542D01*
X150385733Y-75461054D01*
G37*
D13*
%TO.C,J2*%
X137240000Y-77140000D02*
X139900000Y-77140000D01*
X137240000Y-125460000D02*
X137240000Y-77140000D01*
X137240000Y-125460000D02*
X139900000Y-125460000D01*
X138570000Y-74540000D02*
X139900000Y-74540000D01*
X139900000Y-74540000D02*
X139900000Y-75870000D01*
X139900000Y-125460000D02*
X139900000Y-77140000D01*
%TO.C,J3*%
X160100000Y-74540000D02*
X160100000Y-122860000D01*
X160100000Y-125460000D02*
X160100000Y-124130000D01*
X161430000Y-125460000D02*
X160100000Y-125460000D01*
X162760000Y-74540000D02*
X160100000Y-74540000D01*
X162760000Y-74540000D02*
X162760000Y-122860000D01*
X162760000Y-122860000D02*
X160100000Y-122860000D01*
%TD*%
M02*
