%TF.GenerationSoftware,KiCad,Pcbnew,8.0.4*%
%TF.CreationDate,2025-08-18T19:59:25+02:00*%
%TF.ProjectId,stm32l432kcu6_eval,73746d33-326c-4343-9332-6b6375365f65,rev?*%
%TF.SameCoordinates,Original*%
%TF.FileFunction,Legend,Top*%
%TF.FilePolarity,Positive*%
%FSLAX46Y46*%
G04 Gerber Fmt 4.6, Leading zero omitted, Abs format (unit mm)*
G04 Created by KiCad (PCBNEW 8.0.4) date 2025-08-18 19:59:25*
%MOMM*%
%LPD*%
G01*
G04 APERTURE LIST*
%ADD10C,0.100000*%
%ADD11C,0.150000*%
%ADD12C,0.254000*%
%ADD13C,0.120000*%
%ADD14C,0.200000*%
%ADD15C,0.000000*%
G04 APERTURE END LIST*
D10*
X154707500Y-123220000D02*
X157667500Y-123220000D01*
X140789422Y-121447143D02*
X140789422Y-121090000D01*
X140789422Y-121090000D02*
X140432279Y-121054286D01*
X140432279Y-121054286D02*
X140467994Y-121090000D01*
X140467994Y-121090000D02*
X140503708Y-121161429D01*
X140503708Y-121161429D02*
X140503708Y-121340000D01*
X140503708Y-121340000D02*
X140467994Y-121411429D01*
X140467994Y-121411429D02*
X140432279Y-121447143D01*
X140432279Y-121447143D02*
X140360851Y-121482857D01*
X140360851Y-121482857D02*
X140182279Y-121482857D01*
X140182279Y-121482857D02*
X140110851Y-121447143D01*
X140110851Y-121447143D02*
X140075137Y-121411429D01*
X140075137Y-121411429D02*
X140039422Y-121340000D01*
X140039422Y-121340000D02*
X140039422Y-121161429D01*
X140039422Y-121161429D02*
X140075137Y-121090000D01*
X140075137Y-121090000D02*
X140110851Y-121054286D01*
X140789422Y-121697143D02*
X140039422Y-121947143D01*
X140039422Y-121947143D02*
X140789422Y-122197143D01*
X157007066Y-88911764D02*
X157007066Y-88161764D01*
X157007066Y-88161764D02*
X157292780Y-88161764D01*
X157292780Y-88161764D02*
X157364209Y-88197478D01*
X157364209Y-88197478D02*
X157399923Y-88233192D01*
X157399923Y-88233192D02*
X157435637Y-88304621D01*
X157435637Y-88304621D02*
X157435637Y-88411764D01*
X157435637Y-88411764D02*
X157399923Y-88483192D01*
X157399923Y-88483192D02*
X157364209Y-88518907D01*
X157364209Y-88518907D02*
X157292780Y-88554621D01*
X157292780Y-88554621D02*
X157007066Y-88554621D01*
X157721352Y-88697478D02*
X158078495Y-88697478D01*
X157649923Y-88911764D02*
X157899923Y-88161764D01*
X157899923Y-88161764D02*
X158149923Y-88911764D01*
X158792780Y-88911764D02*
X158364209Y-88911764D01*
X158578494Y-88911764D02*
X158578494Y-88161764D01*
X158578494Y-88161764D02*
X158507066Y-88268907D01*
X158507066Y-88268907D02*
X158435637Y-88340335D01*
X158435637Y-88340335D02*
X158364209Y-88376050D01*
X159078495Y-88233192D02*
X159114209Y-88197478D01*
X159114209Y-88197478D02*
X159185638Y-88161764D01*
X159185638Y-88161764D02*
X159364209Y-88161764D01*
X159364209Y-88161764D02*
X159435638Y-88197478D01*
X159435638Y-88197478D02*
X159471352Y-88233192D01*
X159471352Y-88233192D02*
X159507066Y-88304621D01*
X159507066Y-88304621D02*
X159507066Y-88376050D01*
X159507066Y-88376050D02*
X159471352Y-88483192D01*
X159471352Y-88483192D02*
X159042780Y-88911764D01*
X159042780Y-88911764D02*
X159507066Y-88911764D01*
X140528647Y-83831764D02*
X140528647Y-83081764D01*
X140528647Y-83081764D02*
X140814361Y-83081764D01*
X140814361Y-83081764D02*
X140885790Y-83117478D01*
X140885790Y-83117478D02*
X140921504Y-83153192D01*
X140921504Y-83153192D02*
X140957218Y-83224621D01*
X140957218Y-83224621D02*
X140957218Y-83331764D01*
X140957218Y-83331764D02*
X140921504Y-83403192D01*
X140921504Y-83403192D02*
X140885790Y-83438907D01*
X140885790Y-83438907D02*
X140814361Y-83474621D01*
X140814361Y-83474621D02*
X140528647Y-83474621D01*
X141242933Y-83617478D02*
X141600076Y-83617478D01*
X141171504Y-83831764D02*
X141421504Y-83081764D01*
X141421504Y-83081764D02*
X141671504Y-83831764D01*
X142314361Y-83831764D02*
X141885790Y-83831764D01*
X142100075Y-83831764D02*
X142100075Y-83081764D01*
X142100075Y-83081764D02*
X142028647Y-83188907D01*
X142028647Y-83188907D02*
X141957218Y-83260335D01*
X141957218Y-83260335D02*
X141885790Y-83296050D01*
X142992933Y-83081764D02*
X142635790Y-83081764D01*
X142635790Y-83081764D02*
X142600076Y-83438907D01*
X142600076Y-83438907D02*
X142635790Y-83403192D01*
X142635790Y-83403192D02*
X142707219Y-83367478D01*
X142707219Y-83367478D02*
X142885790Y-83367478D01*
X142885790Y-83367478D02*
X142957219Y-83403192D01*
X142957219Y-83403192D02*
X142992933Y-83438907D01*
X142992933Y-83438907D02*
X143028647Y-83510335D01*
X143028647Y-83510335D02*
X143028647Y-83688907D01*
X143028647Y-83688907D02*
X142992933Y-83760335D01*
X142992933Y-83760335D02*
X142957219Y-83796050D01*
X142957219Y-83796050D02*
X142885790Y-83831764D01*
X142885790Y-83831764D02*
X142707219Y-83831764D01*
X142707219Y-83831764D02*
X142635790Y-83796050D01*
X142635790Y-83796050D02*
X142600076Y-83760335D01*
X157935638Y-80577478D02*
X157864210Y-80541764D01*
X157864210Y-80541764D02*
X157757067Y-80541764D01*
X157757067Y-80541764D02*
X157649924Y-80577478D01*
X157649924Y-80577478D02*
X157578495Y-80648907D01*
X157578495Y-80648907D02*
X157542781Y-80720335D01*
X157542781Y-80720335D02*
X157507067Y-80863192D01*
X157507067Y-80863192D02*
X157507067Y-80970335D01*
X157507067Y-80970335D02*
X157542781Y-81113192D01*
X157542781Y-81113192D02*
X157578495Y-81184621D01*
X157578495Y-81184621D02*
X157649924Y-81256050D01*
X157649924Y-81256050D02*
X157757067Y-81291764D01*
X157757067Y-81291764D02*
X157828495Y-81291764D01*
X157828495Y-81291764D02*
X157935638Y-81256050D01*
X157935638Y-81256050D02*
X157971352Y-81220335D01*
X157971352Y-81220335D02*
X157971352Y-80970335D01*
X157971352Y-80970335D02*
X157828495Y-80970335D01*
X158292781Y-81291764D02*
X158292781Y-80541764D01*
X158292781Y-80541764D02*
X158721352Y-81291764D01*
X158721352Y-81291764D02*
X158721352Y-80541764D01*
X159078495Y-81291764D02*
X159078495Y-80541764D01*
X159078495Y-80541764D02*
X159257066Y-80541764D01*
X159257066Y-80541764D02*
X159364209Y-80577478D01*
X159364209Y-80577478D02*
X159435638Y-80648907D01*
X159435638Y-80648907D02*
X159471352Y-80720335D01*
X159471352Y-80720335D02*
X159507066Y-80863192D01*
X159507066Y-80863192D02*
X159507066Y-80970335D01*
X159507066Y-80970335D02*
X159471352Y-81113192D01*
X159471352Y-81113192D02*
X159435638Y-81184621D01*
X159435638Y-81184621D02*
X159364209Y-81256050D01*
X159364209Y-81256050D02*
X159257066Y-81291764D01*
X159257066Y-81291764D02*
X159078495Y-81291764D01*
X140039422Y-87641428D02*
X140789422Y-87641428D01*
X140789422Y-87641428D02*
X140789422Y-87927142D01*
X140789422Y-87927142D02*
X140753708Y-87998571D01*
X140753708Y-87998571D02*
X140717994Y-88034285D01*
X140717994Y-88034285D02*
X140646565Y-88069999D01*
X140646565Y-88069999D02*
X140539422Y-88069999D01*
X140539422Y-88069999D02*
X140467994Y-88034285D01*
X140467994Y-88034285D02*
X140432279Y-87998571D01*
X140432279Y-87998571D02*
X140396565Y-87927142D01*
X140396565Y-87927142D02*
X140396565Y-87641428D01*
X140432279Y-88641428D02*
X140396565Y-88748571D01*
X140396565Y-88748571D02*
X140360851Y-88784285D01*
X140360851Y-88784285D02*
X140289422Y-88819999D01*
X140289422Y-88819999D02*
X140182279Y-88819999D01*
X140182279Y-88819999D02*
X140110851Y-88784285D01*
X140110851Y-88784285D02*
X140075137Y-88748571D01*
X140075137Y-88748571D02*
X140039422Y-88677142D01*
X140039422Y-88677142D02*
X140039422Y-88391428D01*
X140039422Y-88391428D02*
X140789422Y-88391428D01*
X140789422Y-88391428D02*
X140789422Y-88641428D01*
X140789422Y-88641428D02*
X140753708Y-88712857D01*
X140753708Y-88712857D02*
X140717994Y-88748571D01*
X140717994Y-88748571D02*
X140646565Y-88784285D01*
X140646565Y-88784285D02*
X140575137Y-88784285D01*
X140575137Y-88784285D02*
X140503708Y-88748571D01*
X140503708Y-88748571D02*
X140467994Y-88712857D01*
X140467994Y-88712857D02*
X140432279Y-88641428D01*
X140432279Y-88641428D02*
X140432279Y-88391428D01*
X140539422Y-89462857D02*
X140039422Y-89462857D01*
X140825137Y-89284285D02*
X140289422Y-89105714D01*
X140289422Y-89105714D02*
X140289422Y-89569999D01*
X140789422Y-123987143D02*
X140789422Y-123630000D01*
X140789422Y-123630000D02*
X140432279Y-123594286D01*
X140432279Y-123594286D02*
X140467994Y-123630000D01*
X140467994Y-123630000D02*
X140503708Y-123701429D01*
X140503708Y-123701429D02*
X140503708Y-123880000D01*
X140503708Y-123880000D02*
X140467994Y-123951429D01*
X140467994Y-123951429D02*
X140432279Y-123987143D01*
X140432279Y-123987143D02*
X140360851Y-124022857D01*
X140360851Y-124022857D02*
X140182279Y-124022857D01*
X140182279Y-124022857D02*
X140110851Y-123987143D01*
X140110851Y-123987143D02*
X140075137Y-123951429D01*
X140075137Y-123951429D02*
X140039422Y-123880000D01*
X140039422Y-123880000D02*
X140039422Y-123701429D01*
X140039422Y-123701429D02*
X140075137Y-123630000D01*
X140075137Y-123630000D02*
X140110851Y-123594286D01*
X140789422Y-124237143D02*
X140039422Y-124487143D01*
X140039422Y-124487143D02*
X140789422Y-124737143D01*
X150008277Y-76867857D02*
X150758277Y-76867857D01*
X150758277Y-76867857D02*
X150758277Y-77046428D01*
X150758277Y-77046428D02*
X150722563Y-77153571D01*
X150722563Y-77153571D02*
X150651134Y-77225000D01*
X150651134Y-77225000D02*
X150579706Y-77260714D01*
X150579706Y-77260714D02*
X150436849Y-77296428D01*
X150436849Y-77296428D02*
X150329706Y-77296428D01*
X150329706Y-77296428D02*
X150186849Y-77260714D01*
X150186849Y-77260714D02*
X150115420Y-77225000D01*
X150115420Y-77225000D02*
X150043992Y-77153571D01*
X150043992Y-77153571D02*
X150008277Y-77046428D01*
X150008277Y-77046428D02*
X150008277Y-76867857D01*
X150008277Y-77617857D02*
X150758277Y-77617857D01*
X150758277Y-78117857D02*
X150758277Y-78260714D01*
X150758277Y-78260714D02*
X150722563Y-78332143D01*
X150722563Y-78332143D02*
X150651134Y-78403571D01*
X150651134Y-78403571D02*
X150508277Y-78439286D01*
X150508277Y-78439286D02*
X150258277Y-78439286D01*
X150258277Y-78439286D02*
X150115420Y-78403571D01*
X150115420Y-78403571D02*
X150043992Y-78332143D01*
X150043992Y-78332143D02*
X150008277Y-78260714D01*
X150008277Y-78260714D02*
X150008277Y-78117857D01*
X150008277Y-78117857D02*
X150043992Y-78046429D01*
X150043992Y-78046429D02*
X150115420Y-77975000D01*
X150115420Y-77975000D02*
X150258277Y-77939286D01*
X150258277Y-77939286D02*
X150508277Y-77939286D01*
X150508277Y-77939286D02*
X150651134Y-77975000D01*
X150651134Y-77975000D02*
X150722563Y-78046429D01*
X150722563Y-78046429D02*
X150758277Y-78117857D01*
X140039422Y-113095000D02*
X140789422Y-113095000D01*
X140789422Y-113095000D02*
X140789422Y-113380714D01*
X140789422Y-113380714D02*
X140753708Y-113452143D01*
X140753708Y-113452143D02*
X140717994Y-113487857D01*
X140717994Y-113487857D02*
X140646565Y-113523571D01*
X140646565Y-113523571D02*
X140539422Y-113523571D01*
X140539422Y-113523571D02*
X140467994Y-113487857D01*
X140467994Y-113487857D02*
X140432279Y-113452143D01*
X140432279Y-113452143D02*
X140396565Y-113380714D01*
X140396565Y-113380714D02*
X140396565Y-113095000D01*
X140253708Y-113809286D02*
X140253708Y-114166429D01*
X140039422Y-113737857D02*
X140789422Y-113987857D01*
X140789422Y-113987857D02*
X140039422Y-114237857D01*
X140717994Y-114452143D02*
X140753708Y-114487857D01*
X140753708Y-114487857D02*
X140789422Y-114559286D01*
X140789422Y-114559286D02*
X140789422Y-114737857D01*
X140789422Y-114737857D02*
X140753708Y-114809286D01*
X140753708Y-114809286D02*
X140717994Y-114845000D01*
X140717994Y-114845000D02*
X140646565Y-114880714D01*
X140646565Y-114880714D02*
X140575137Y-114880714D01*
X140575137Y-114880714D02*
X140467994Y-114845000D01*
X140467994Y-114845000D02*
X140039422Y-114416428D01*
X140039422Y-114416428D02*
X140039422Y-114880714D01*
X159210577Y-125058571D02*
X159210577Y-124594285D01*
X159210577Y-124594285D02*
X159496291Y-124844285D01*
X159496291Y-124844285D02*
X159496291Y-124737142D01*
X159496291Y-124737142D02*
X159532005Y-124665714D01*
X159532005Y-124665714D02*
X159567720Y-124629999D01*
X159567720Y-124629999D02*
X159639148Y-124594285D01*
X159639148Y-124594285D02*
X159817720Y-124594285D01*
X159817720Y-124594285D02*
X159889148Y-124629999D01*
X159889148Y-124629999D02*
X159924863Y-124665714D01*
X159924863Y-124665714D02*
X159960577Y-124737142D01*
X159960577Y-124737142D02*
X159960577Y-124951428D01*
X159960577Y-124951428D02*
X159924863Y-125022856D01*
X159924863Y-125022856D02*
X159889148Y-125058571D01*
X159210577Y-124379999D02*
X159960577Y-124129999D01*
X159960577Y-124129999D02*
X159210577Y-123879999D01*
X159210577Y-123701428D02*
X159210577Y-123237142D01*
X159210577Y-123237142D02*
X159496291Y-123487142D01*
X159496291Y-123487142D02*
X159496291Y-123379999D01*
X159496291Y-123379999D02*
X159532005Y-123308571D01*
X159532005Y-123308571D02*
X159567720Y-123272856D01*
X159567720Y-123272856D02*
X159639148Y-123237142D01*
X159639148Y-123237142D02*
X159817720Y-123237142D01*
X159817720Y-123237142D02*
X159889148Y-123272856D01*
X159889148Y-123272856D02*
X159924863Y-123308571D01*
X159924863Y-123308571D02*
X159960577Y-123379999D01*
X159960577Y-123379999D02*
X159960577Y-123594285D01*
X159960577Y-123594285D02*
X159924863Y-123665713D01*
X159924863Y-123665713D02*
X159889148Y-123701428D01*
X140039422Y-97783571D02*
X140789422Y-97783571D01*
X140789422Y-97783571D02*
X140789422Y-98069285D01*
X140789422Y-98069285D02*
X140753708Y-98140714D01*
X140753708Y-98140714D02*
X140717994Y-98176428D01*
X140717994Y-98176428D02*
X140646565Y-98212142D01*
X140646565Y-98212142D02*
X140539422Y-98212142D01*
X140539422Y-98212142D02*
X140467994Y-98176428D01*
X140467994Y-98176428D02*
X140432279Y-98140714D01*
X140432279Y-98140714D02*
X140396565Y-98069285D01*
X140396565Y-98069285D02*
X140396565Y-97783571D01*
X140039422Y-98533571D02*
X140789422Y-98533571D01*
X140432279Y-98533571D02*
X140432279Y-98962142D01*
X140039422Y-98962142D02*
X140789422Y-98962142D01*
X140789422Y-99247856D02*
X140789422Y-99712142D01*
X140789422Y-99712142D02*
X140503708Y-99462142D01*
X140503708Y-99462142D02*
X140503708Y-99569285D01*
X140503708Y-99569285D02*
X140467994Y-99640714D01*
X140467994Y-99640714D02*
X140432279Y-99676428D01*
X140432279Y-99676428D02*
X140360851Y-99712142D01*
X140360851Y-99712142D02*
X140182279Y-99712142D01*
X140182279Y-99712142D02*
X140110851Y-99676428D01*
X140110851Y-99676428D02*
X140075137Y-99640714D01*
X140075137Y-99640714D02*
X140039422Y-99569285D01*
X140039422Y-99569285D02*
X140039422Y-99354999D01*
X140039422Y-99354999D02*
X140075137Y-99283571D01*
X140075137Y-99283571D02*
X140110851Y-99247856D01*
X140457218Y-78001764D02*
X140921504Y-78001764D01*
X140921504Y-78001764D02*
X140671504Y-78287478D01*
X140671504Y-78287478D02*
X140778647Y-78287478D01*
X140778647Y-78287478D02*
X140850076Y-78323192D01*
X140850076Y-78323192D02*
X140885790Y-78358907D01*
X140885790Y-78358907D02*
X140921504Y-78430335D01*
X140921504Y-78430335D02*
X140921504Y-78608907D01*
X140921504Y-78608907D02*
X140885790Y-78680335D01*
X140885790Y-78680335D02*
X140850076Y-78716050D01*
X140850076Y-78716050D02*
X140778647Y-78751764D01*
X140778647Y-78751764D02*
X140564361Y-78751764D01*
X140564361Y-78751764D02*
X140492933Y-78716050D01*
X140492933Y-78716050D02*
X140457218Y-78680335D01*
X141135790Y-78001764D02*
X141385790Y-78751764D01*
X141385790Y-78751764D02*
X141635790Y-78001764D01*
X141814361Y-78001764D02*
X142278647Y-78001764D01*
X142278647Y-78001764D02*
X142028647Y-78287478D01*
X142028647Y-78287478D02*
X142135790Y-78287478D01*
X142135790Y-78287478D02*
X142207219Y-78323192D01*
X142207219Y-78323192D02*
X142242933Y-78358907D01*
X142242933Y-78358907D02*
X142278647Y-78430335D01*
X142278647Y-78430335D02*
X142278647Y-78608907D01*
X142278647Y-78608907D02*
X142242933Y-78680335D01*
X142242933Y-78680335D02*
X142207219Y-78716050D01*
X142207219Y-78716050D02*
X142135790Y-78751764D01*
X142135790Y-78751764D02*
X141921504Y-78751764D01*
X141921504Y-78751764D02*
X141850076Y-78716050D01*
X141850076Y-78716050D02*
X141814361Y-78680335D01*
X157614209Y-101611764D02*
X157614209Y-100861764D01*
X157614209Y-100861764D02*
X157899923Y-100861764D01*
X157899923Y-100861764D02*
X157971352Y-100897478D01*
X157971352Y-100897478D02*
X158007066Y-100933192D01*
X158007066Y-100933192D02*
X158042780Y-101004621D01*
X158042780Y-101004621D02*
X158042780Y-101111764D01*
X158042780Y-101111764D02*
X158007066Y-101183192D01*
X158007066Y-101183192D02*
X157971352Y-101218907D01*
X157971352Y-101218907D02*
X157899923Y-101254621D01*
X157899923Y-101254621D02*
X157614209Y-101254621D01*
X158614209Y-101218907D02*
X158721352Y-101254621D01*
X158721352Y-101254621D02*
X158757066Y-101290335D01*
X158757066Y-101290335D02*
X158792780Y-101361764D01*
X158792780Y-101361764D02*
X158792780Y-101468907D01*
X158792780Y-101468907D02*
X158757066Y-101540335D01*
X158757066Y-101540335D02*
X158721352Y-101576050D01*
X158721352Y-101576050D02*
X158649923Y-101611764D01*
X158649923Y-101611764D02*
X158364209Y-101611764D01*
X158364209Y-101611764D02*
X158364209Y-100861764D01*
X158364209Y-100861764D02*
X158614209Y-100861764D01*
X158614209Y-100861764D02*
X158685638Y-100897478D01*
X158685638Y-100897478D02*
X158721352Y-100933192D01*
X158721352Y-100933192D02*
X158757066Y-101004621D01*
X158757066Y-101004621D02*
X158757066Y-101076050D01*
X158757066Y-101076050D02*
X158721352Y-101147478D01*
X158721352Y-101147478D02*
X158685638Y-101183192D01*
X158685638Y-101183192D02*
X158614209Y-101218907D01*
X158614209Y-101218907D02*
X158364209Y-101218907D01*
X159507066Y-101611764D02*
X159078495Y-101611764D01*
X159292780Y-101611764D02*
X159292780Y-100861764D01*
X159292780Y-100861764D02*
X159221352Y-100968907D01*
X159221352Y-100968907D02*
X159149923Y-101040335D01*
X159149923Y-101040335D02*
X159078495Y-101076050D01*
X140457218Y-118641764D02*
X140921504Y-118641764D01*
X140921504Y-118641764D02*
X140671504Y-118927478D01*
X140671504Y-118927478D02*
X140778647Y-118927478D01*
X140778647Y-118927478D02*
X140850076Y-118963192D01*
X140850076Y-118963192D02*
X140885790Y-118998907D01*
X140885790Y-118998907D02*
X140921504Y-119070335D01*
X140921504Y-119070335D02*
X140921504Y-119248907D01*
X140921504Y-119248907D02*
X140885790Y-119320335D01*
X140885790Y-119320335D02*
X140850076Y-119356050D01*
X140850076Y-119356050D02*
X140778647Y-119391764D01*
X140778647Y-119391764D02*
X140564361Y-119391764D01*
X140564361Y-119391764D02*
X140492933Y-119356050D01*
X140492933Y-119356050D02*
X140457218Y-119320335D01*
X141135790Y-118641764D02*
X141385790Y-119391764D01*
X141385790Y-119391764D02*
X141635790Y-118641764D01*
X141814361Y-118641764D02*
X142278647Y-118641764D01*
X142278647Y-118641764D02*
X142028647Y-118927478D01*
X142028647Y-118927478D02*
X142135790Y-118927478D01*
X142135790Y-118927478D02*
X142207219Y-118963192D01*
X142207219Y-118963192D02*
X142242933Y-118998907D01*
X142242933Y-118998907D02*
X142278647Y-119070335D01*
X142278647Y-119070335D02*
X142278647Y-119248907D01*
X142278647Y-119248907D02*
X142242933Y-119320335D01*
X142242933Y-119320335D02*
X142207219Y-119356050D01*
X142207219Y-119356050D02*
X142135790Y-119391764D01*
X142135790Y-119391764D02*
X141921504Y-119391764D01*
X141921504Y-119391764D02*
X141850076Y-119356050D01*
X141850076Y-119356050D02*
X141814361Y-119320335D01*
X157007066Y-86371764D02*
X157007066Y-85621764D01*
X157007066Y-85621764D02*
X157292780Y-85621764D01*
X157292780Y-85621764D02*
X157364209Y-85657478D01*
X157364209Y-85657478D02*
X157399923Y-85693192D01*
X157399923Y-85693192D02*
X157435637Y-85764621D01*
X157435637Y-85764621D02*
X157435637Y-85871764D01*
X157435637Y-85871764D02*
X157399923Y-85943192D01*
X157399923Y-85943192D02*
X157364209Y-85978907D01*
X157364209Y-85978907D02*
X157292780Y-86014621D01*
X157292780Y-86014621D02*
X157007066Y-86014621D01*
X157721352Y-86157478D02*
X158078495Y-86157478D01*
X157649923Y-86371764D02*
X157899923Y-85621764D01*
X157899923Y-85621764D02*
X158149923Y-86371764D01*
X158792780Y-86371764D02*
X158364209Y-86371764D01*
X158578494Y-86371764D02*
X158578494Y-85621764D01*
X158578494Y-85621764D02*
X158507066Y-85728907D01*
X158507066Y-85728907D02*
X158435637Y-85800335D01*
X158435637Y-85800335D02*
X158364209Y-85836050D01*
X159042780Y-85621764D02*
X159507066Y-85621764D01*
X159507066Y-85621764D02*
X159257066Y-85907478D01*
X159257066Y-85907478D02*
X159364209Y-85907478D01*
X159364209Y-85907478D02*
X159435638Y-85943192D01*
X159435638Y-85943192D02*
X159471352Y-85978907D01*
X159471352Y-85978907D02*
X159507066Y-86050335D01*
X159507066Y-86050335D02*
X159507066Y-86228907D01*
X159507066Y-86228907D02*
X159471352Y-86300335D01*
X159471352Y-86300335D02*
X159435638Y-86336050D01*
X159435638Y-86336050D02*
X159364209Y-86371764D01*
X159364209Y-86371764D02*
X159149923Y-86371764D01*
X159149923Y-86371764D02*
X159078495Y-86336050D01*
X159078495Y-86336050D02*
X159042780Y-86300335D01*
X157007066Y-83831764D02*
X157007066Y-83081764D01*
X157007066Y-83081764D02*
X157292780Y-83081764D01*
X157292780Y-83081764D02*
X157364209Y-83117478D01*
X157364209Y-83117478D02*
X157399923Y-83153192D01*
X157399923Y-83153192D02*
X157435637Y-83224621D01*
X157435637Y-83224621D02*
X157435637Y-83331764D01*
X157435637Y-83331764D02*
X157399923Y-83403192D01*
X157399923Y-83403192D02*
X157364209Y-83438907D01*
X157364209Y-83438907D02*
X157292780Y-83474621D01*
X157292780Y-83474621D02*
X157007066Y-83474621D01*
X157721352Y-83617478D02*
X158078495Y-83617478D01*
X157649923Y-83831764D02*
X157899923Y-83081764D01*
X157899923Y-83081764D02*
X158149923Y-83831764D01*
X158792780Y-83831764D02*
X158364209Y-83831764D01*
X158578494Y-83831764D02*
X158578494Y-83081764D01*
X158578494Y-83081764D02*
X158507066Y-83188907D01*
X158507066Y-83188907D02*
X158435637Y-83260335D01*
X158435637Y-83260335D02*
X158364209Y-83296050D01*
X159435638Y-83331764D02*
X159435638Y-83831764D01*
X159257066Y-83046050D02*
X159078495Y-83581764D01*
X159078495Y-83581764D02*
X159542780Y-83581764D01*
X147252206Y-77296428D02*
X147216492Y-77260714D01*
X147216492Y-77260714D02*
X147180777Y-77153571D01*
X147180777Y-77153571D02*
X147180777Y-77082143D01*
X147180777Y-77082143D02*
X147216492Y-76975000D01*
X147216492Y-76975000D02*
X147287920Y-76903571D01*
X147287920Y-76903571D02*
X147359349Y-76867857D01*
X147359349Y-76867857D02*
X147502206Y-76832143D01*
X147502206Y-76832143D02*
X147609349Y-76832143D01*
X147609349Y-76832143D02*
X147752206Y-76867857D01*
X147752206Y-76867857D02*
X147823634Y-76903571D01*
X147823634Y-76903571D02*
X147895063Y-76975000D01*
X147895063Y-76975000D02*
X147930777Y-77082143D01*
X147930777Y-77082143D02*
X147930777Y-77153571D01*
X147930777Y-77153571D02*
X147895063Y-77260714D01*
X147895063Y-77260714D02*
X147859349Y-77296428D01*
X147180777Y-77975000D02*
X147180777Y-77617857D01*
X147180777Y-77617857D02*
X147930777Y-77617857D01*
X147180777Y-78225000D02*
X147930777Y-78225000D01*
X147180777Y-78653571D02*
X147609349Y-78332143D01*
X147930777Y-78653571D02*
X147502206Y-78225000D01*
X157721352Y-106691764D02*
X157721352Y-105941764D01*
X157721352Y-105941764D02*
X158007066Y-105941764D01*
X158007066Y-105941764D02*
X158078495Y-105977478D01*
X158078495Y-105977478D02*
X158114209Y-106013192D01*
X158114209Y-106013192D02*
X158149923Y-106084621D01*
X158149923Y-106084621D02*
X158149923Y-106191764D01*
X158149923Y-106191764D02*
X158114209Y-106263192D01*
X158114209Y-106263192D02*
X158078495Y-106298907D01*
X158078495Y-106298907D02*
X158007066Y-106334621D01*
X158007066Y-106334621D02*
X157721352Y-106334621D01*
X158435638Y-106477478D02*
X158792781Y-106477478D01*
X158364209Y-106691764D02*
X158614209Y-105941764D01*
X158614209Y-105941764D02*
X158864209Y-106691764D01*
X159042780Y-105941764D02*
X159542780Y-105941764D01*
X159542780Y-105941764D02*
X159221352Y-106691764D01*
X140039422Y-110555000D02*
X140789422Y-110555000D01*
X140789422Y-110555000D02*
X140789422Y-110840714D01*
X140789422Y-110840714D02*
X140753708Y-110912143D01*
X140753708Y-110912143D02*
X140717994Y-110947857D01*
X140717994Y-110947857D02*
X140646565Y-110983571D01*
X140646565Y-110983571D02*
X140539422Y-110983571D01*
X140539422Y-110983571D02*
X140467994Y-110947857D01*
X140467994Y-110947857D02*
X140432279Y-110912143D01*
X140432279Y-110912143D02*
X140396565Y-110840714D01*
X140396565Y-110840714D02*
X140396565Y-110555000D01*
X140253708Y-111269286D02*
X140253708Y-111626429D01*
X140039422Y-111197857D02*
X140789422Y-111447857D01*
X140789422Y-111447857D02*
X140039422Y-111697857D01*
X140039422Y-112340714D02*
X140039422Y-111912143D01*
X140039422Y-112126428D02*
X140789422Y-112126428D01*
X140789422Y-112126428D02*
X140682279Y-112055000D01*
X140682279Y-112055000D02*
X140610851Y-111983571D01*
X140610851Y-111983571D02*
X140575137Y-111912143D01*
X157721352Y-111771764D02*
X157721352Y-111021764D01*
X157721352Y-111021764D02*
X158007066Y-111021764D01*
X158007066Y-111021764D02*
X158078495Y-111057478D01*
X158078495Y-111057478D02*
X158114209Y-111093192D01*
X158114209Y-111093192D02*
X158149923Y-111164621D01*
X158149923Y-111164621D02*
X158149923Y-111271764D01*
X158149923Y-111271764D02*
X158114209Y-111343192D01*
X158114209Y-111343192D02*
X158078495Y-111378907D01*
X158078495Y-111378907D02*
X158007066Y-111414621D01*
X158007066Y-111414621D02*
X157721352Y-111414621D01*
X158435638Y-111557478D02*
X158792781Y-111557478D01*
X158364209Y-111771764D02*
X158614209Y-111021764D01*
X158614209Y-111021764D02*
X158864209Y-111771764D01*
X159471352Y-111021764D02*
X159114209Y-111021764D01*
X159114209Y-111021764D02*
X159078495Y-111378907D01*
X159078495Y-111378907D02*
X159114209Y-111343192D01*
X159114209Y-111343192D02*
X159185638Y-111307478D01*
X159185638Y-111307478D02*
X159364209Y-111307478D01*
X159364209Y-111307478D02*
X159435638Y-111343192D01*
X159435638Y-111343192D02*
X159471352Y-111378907D01*
X159471352Y-111378907D02*
X159507066Y-111450335D01*
X159507066Y-111450335D02*
X159507066Y-111628907D01*
X159507066Y-111628907D02*
X159471352Y-111700335D01*
X159471352Y-111700335D02*
X159435638Y-111736050D01*
X159435638Y-111736050D02*
X159364209Y-111771764D01*
X159364209Y-111771764D02*
X159185638Y-111771764D01*
X159185638Y-111771764D02*
X159114209Y-111736050D01*
X159114209Y-111736050D02*
X159078495Y-111700335D01*
X145355063Y-77260714D02*
X145390777Y-77189286D01*
X145390777Y-77189286D02*
X145390777Y-77082143D01*
X145390777Y-77082143D02*
X145355063Y-76975000D01*
X145355063Y-76975000D02*
X145283634Y-76903571D01*
X145283634Y-76903571D02*
X145212206Y-76867857D01*
X145212206Y-76867857D02*
X145069349Y-76832143D01*
X145069349Y-76832143D02*
X144962206Y-76832143D01*
X144962206Y-76832143D02*
X144819349Y-76867857D01*
X144819349Y-76867857D02*
X144747920Y-76903571D01*
X144747920Y-76903571D02*
X144676492Y-76975000D01*
X144676492Y-76975000D02*
X144640777Y-77082143D01*
X144640777Y-77082143D02*
X144640777Y-77153571D01*
X144640777Y-77153571D02*
X144676492Y-77260714D01*
X144676492Y-77260714D02*
X144712206Y-77296428D01*
X144712206Y-77296428D02*
X144962206Y-77296428D01*
X144962206Y-77296428D02*
X144962206Y-77153571D01*
X144640777Y-77617857D02*
X145390777Y-77617857D01*
X145390777Y-77617857D02*
X144640777Y-78046428D01*
X144640777Y-78046428D02*
X145390777Y-78046428D01*
X144640777Y-78403571D02*
X145390777Y-78403571D01*
X145390777Y-78403571D02*
X145390777Y-78582142D01*
X145390777Y-78582142D02*
X145355063Y-78689285D01*
X145355063Y-78689285D02*
X145283634Y-78760714D01*
X145283634Y-78760714D02*
X145212206Y-78796428D01*
X145212206Y-78796428D02*
X145069349Y-78832142D01*
X145069349Y-78832142D02*
X144962206Y-78832142D01*
X144962206Y-78832142D02*
X144819349Y-78796428D01*
X144819349Y-78796428D02*
X144747920Y-78760714D01*
X144747920Y-78760714D02*
X144676492Y-78689285D01*
X144676492Y-78689285D02*
X144640777Y-78582142D01*
X144640777Y-78582142D02*
X144640777Y-78403571D01*
X140528647Y-106691764D02*
X140528647Y-105941764D01*
X140528647Y-105941764D02*
X140957218Y-106691764D01*
X140957218Y-106691764D02*
X140957218Y-105941764D01*
X141742932Y-106691764D02*
X141492932Y-106334621D01*
X141314361Y-106691764D02*
X141314361Y-105941764D01*
X141314361Y-105941764D02*
X141600075Y-105941764D01*
X141600075Y-105941764D02*
X141671504Y-105977478D01*
X141671504Y-105977478D02*
X141707218Y-106013192D01*
X141707218Y-106013192D02*
X141742932Y-106084621D01*
X141742932Y-106084621D02*
X141742932Y-106191764D01*
X141742932Y-106191764D02*
X141707218Y-106263192D01*
X141707218Y-106263192D02*
X141671504Y-106298907D01*
X141671504Y-106298907D02*
X141600075Y-106334621D01*
X141600075Y-106334621D02*
X141314361Y-106334621D01*
X142028647Y-106656050D02*
X142135790Y-106691764D01*
X142135790Y-106691764D02*
X142314361Y-106691764D01*
X142314361Y-106691764D02*
X142385790Y-106656050D01*
X142385790Y-106656050D02*
X142421504Y-106620335D01*
X142421504Y-106620335D02*
X142457218Y-106548907D01*
X142457218Y-106548907D02*
X142457218Y-106477478D01*
X142457218Y-106477478D02*
X142421504Y-106406050D01*
X142421504Y-106406050D02*
X142385790Y-106370335D01*
X142385790Y-106370335D02*
X142314361Y-106334621D01*
X142314361Y-106334621D02*
X142171504Y-106298907D01*
X142171504Y-106298907D02*
X142100075Y-106263192D01*
X142100075Y-106263192D02*
X142064361Y-106227478D01*
X142064361Y-106227478D02*
X142028647Y-106156050D01*
X142028647Y-106156050D02*
X142028647Y-106084621D01*
X142028647Y-106084621D02*
X142064361Y-106013192D01*
X142064361Y-106013192D02*
X142100075Y-105977478D01*
X142100075Y-105977478D02*
X142171504Y-105941764D01*
X142171504Y-105941764D02*
X142350075Y-105941764D01*
X142350075Y-105941764D02*
X142457218Y-105977478D01*
X142671504Y-105941764D02*
X143100076Y-105941764D01*
X142885790Y-106691764D02*
X142885790Y-105941764D01*
X157935638Y-78037478D02*
X157864210Y-78001764D01*
X157864210Y-78001764D02*
X157757067Y-78001764D01*
X157757067Y-78001764D02*
X157649924Y-78037478D01*
X157649924Y-78037478D02*
X157578495Y-78108907D01*
X157578495Y-78108907D02*
X157542781Y-78180335D01*
X157542781Y-78180335D02*
X157507067Y-78323192D01*
X157507067Y-78323192D02*
X157507067Y-78430335D01*
X157507067Y-78430335D02*
X157542781Y-78573192D01*
X157542781Y-78573192D02*
X157578495Y-78644621D01*
X157578495Y-78644621D02*
X157649924Y-78716050D01*
X157649924Y-78716050D02*
X157757067Y-78751764D01*
X157757067Y-78751764D02*
X157828495Y-78751764D01*
X157828495Y-78751764D02*
X157935638Y-78716050D01*
X157935638Y-78716050D02*
X157971352Y-78680335D01*
X157971352Y-78680335D02*
X157971352Y-78430335D01*
X157971352Y-78430335D02*
X157828495Y-78430335D01*
X158292781Y-78751764D02*
X158292781Y-78001764D01*
X158292781Y-78001764D02*
X158721352Y-78751764D01*
X158721352Y-78751764D02*
X158721352Y-78001764D01*
X159078495Y-78751764D02*
X159078495Y-78001764D01*
X159078495Y-78001764D02*
X159257066Y-78001764D01*
X159257066Y-78001764D02*
X159364209Y-78037478D01*
X159364209Y-78037478D02*
X159435638Y-78108907D01*
X159435638Y-78108907D02*
X159471352Y-78180335D01*
X159471352Y-78180335D02*
X159507066Y-78323192D01*
X159507066Y-78323192D02*
X159507066Y-78430335D01*
X159507066Y-78430335D02*
X159471352Y-78573192D01*
X159471352Y-78573192D02*
X159435638Y-78644621D01*
X159435638Y-78644621D02*
X159364209Y-78716050D01*
X159364209Y-78716050D02*
X159257066Y-78751764D01*
X159257066Y-78751764D02*
X159078495Y-78751764D01*
X157721352Y-96531764D02*
X157721352Y-95781764D01*
X157721352Y-95781764D02*
X158007066Y-95781764D01*
X158007066Y-95781764D02*
X158078495Y-95817478D01*
X158078495Y-95817478D02*
X158114209Y-95853192D01*
X158114209Y-95853192D02*
X158149923Y-95924621D01*
X158149923Y-95924621D02*
X158149923Y-96031764D01*
X158149923Y-96031764D02*
X158114209Y-96103192D01*
X158114209Y-96103192D02*
X158078495Y-96138907D01*
X158078495Y-96138907D02*
X158007066Y-96174621D01*
X158007066Y-96174621D02*
X157721352Y-96174621D01*
X158435638Y-96317478D02*
X158792781Y-96317478D01*
X158364209Y-96531764D02*
X158614209Y-95781764D01*
X158614209Y-95781764D02*
X158864209Y-96531764D01*
X159149923Y-96531764D02*
X159292780Y-96531764D01*
X159292780Y-96531764D02*
X159364209Y-96496050D01*
X159364209Y-96496050D02*
X159399923Y-96460335D01*
X159399923Y-96460335D02*
X159471352Y-96353192D01*
X159471352Y-96353192D02*
X159507066Y-96210335D01*
X159507066Y-96210335D02*
X159507066Y-95924621D01*
X159507066Y-95924621D02*
X159471352Y-95853192D01*
X159471352Y-95853192D02*
X159435638Y-95817478D01*
X159435638Y-95817478D02*
X159364209Y-95781764D01*
X159364209Y-95781764D02*
X159221352Y-95781764D01*
X159221352Y-95781764D02*
X159149923Y-95817478D01*
X159149923Y-95817478D02*
X159114209Y-95853192D01*
X159114209Y-95853192D02*
X159078495Y-95924621D01*
X159078495Y-95924621D02*
X159078495Y-96103192D01*
X159078495Y-96103192D02*
X159114209Y-96174621D01*
X159114209Y-96174621D02*
X159149923Y-96210335D01*
X159149923Y-96210335D02*
X159221352Y-96246050D01*
X159221352Y-96246050D02*
X159364209Y-96246050D01*
X159364209Y-96246050D02*
X159435638Y-96210335D01*
X159435638Y-96210335D02*
X159471352Y-96174621D01*
X159471352Y-96174621D02*
X159507066Y-96103192D01*
X159246291Y-119621428D02*
X159210577Y-119692857D01*
X159210577Y-119692857D02*
X159210577Y-119799999D01*
X159210577Y-119799999D02*
X159246291Y-119907142D01*
X159246291Y-119907142D02*
X159317720Y-119978571D01*
X159317720Y-119978571D02*
X159389148Y-120014285D01*
X159389148Y-120014285D02*
X159532005Y-120049999D01*
X159532005Y-120049999D02*
X159639148Y-120049999D01*
X159639148Y-120049999D02*
X159782005Y-120014285D01*
X159782005Y-120014285D02*
X159853434Y-119978571D01*
X159853434Y-119978571D02*
X159924863Y-119907142D01*
X159924863Y-119907142D02*
X159960577Y-119799999D01*
X159960577Y-119799999D02*
X159960577Y-119728571D01*
X159960577Y-119728571D02*
X159924863Y-119621428D01*
X159924863Y-119621428D02*
X159889148Y-119585714D01*
X159889148Y-119585714D02*
X159639148Y-119585714D01*
X159639148Y-119585714D02*
X159639148Y-119728571D01*
X159960577Y-119264285D02*
X159210577Y-119264285D01*
X159210577Y-119264285D02*
X159960577Y-118835714D01*
X159960577Y-118835714D02*
X159210577Y-118835714D01*
X159960577Y-118478571D02*
X159210577Y-118478571D01*
X159210577Y-118478571D02*
X159210577Y-118300000D01*
X159210577Y-118300000D02*
X159246291Y-118192857D01*
X159246291Y-118192857D02*
X159317720Y-118121428D01*
X159317720Y-118121428D02*
X159389148Y-118085714D01*
X159389148Y-118085714D02*
X159532005Y-118050000D01*
X159532005Y-118050000D02*
X159639148Y-118050000D01*
X159639148Y-118050000D02*
X159782005Y-118085714D01*
X159782005Y-118085714D02*
X159853434Y-118121428D01*
X159853434Y-118121428D02*
X159924863Y-118192857D01*
X159924863Y-118192857D02*
X159960577Y-118300000D01*
X159960577Y-118300000D02*
X159960577Y-118478571D01*
X157007066Y-93991764D02*
X157007066Y-93241764D01*
X157007066Y-93241764D02*
X157292780Y-93241764D01*
X157292780Y-93241764D02*
X157364209Y-93277478D01*
X157364209Y-93277478D02*
X157399923Y-93313192D01*
X157399923Y-93313192D02*
X157435637Y-93384621D01*
X157435637Y-93384621D02*
X157435637Y-93491764D01*
X157435637Y-93491764D02*
X157399923Y-93563192D01*
X157399923Y-93563192D02*
X157364209Y-93598907D01*
X157364209Y-93598907D02*
X157292780Y-93634621D01*
X157292780Y-93634621D02*
X157007066Y-93634621D01*
X157721352Y-93777478D02*
X158078495Y-93777478D01*
X157649923Y-93991764D02*
X157899923Y-93241764D01*
X157899923Y-93241764D02*
X158149923Y-93991764D01*
X158792780Y-93991764D02*
X158364209Y-93991764D01*
X158578494Y-93991764D02*
X158578494Y-93241764D01*
X158578494Y-93241764D02*
X158507066Y-93348907D01*
X158507066Y-93348907D02*
X158435637Y-93420335D01*
X158435637Y-93420335D02*
X158364209Y-93456050D01*
X159257066Y-93241764D02*
X159328495Y-93241764D01*
X159328495Y-93241764D02*
X159399923Y-93277478D01*
X159399923Y-93277478D02*
X159435638Y-93313192D01*
X159435638Y-93313192D02*
X159471352Y-93384621D01*
X159471352Y-93384621D02*
X159507066Y-93527478D01*
X159507066Y-93527478D02*
X159507066Y-93706050D01*
X159507066Y-93706050D02*
X159471352Y-93848907D01*
X159471352Y-93848907D02*
X159435638Y-93920335D01*
X159435638Y-93920335D02*
X159399923Y-93956050D01*
X159399923Y-93956050D02*
X159328495Y-93991764D01*
X159328495Y-93991764D02*
X159257066Y-93991764D01*
X159257066Y-93991764D02*
X159185638Y-93956050D01*
X159185638Y-93956050D02*
X159149923Y-93920335D01*
X159149923Y-93920335D02*
X159114209Y-93848907D01*
X159114209Y-93848907D02*
X159078495Y-93706050D01*
X159078495Y-93706050D02*
X159078495Y-93527478D01*
X159078495Y-93527478D02*
X159114209Y-93384621D01*
X159114209Y-93384621D02*
X159149923Y-93313192D01*
X159149923Y-93313192D02*
X159185638Y-93277478D01*
X159185638Y-93277478D02*
X159257066Y-93241764D01*
X157721352Y-99071764D02*
X157721352Y-98321764D01*
X157721352Y-98321764D02*
X158007066Y-98321764D01*
X158007066Y-98321764D02*
X158078495Y-98357478D01*
X158078495Y-98357478D02*
X158114209Y-98393192D01*
X158114209Y-98393192D02*
X158149923Y-98464621D01*
X158149923Y-98464621D02*
X158149923Y-98571764D01*
X158149923Y-98571764D02*
X158114209Y-98643192D01*
X158114209Y-98643192D02*
X158078495Y-98678907D01*
X158078495Y-98678907D02*
X158007066Y-98714621D01*
X158007066Y-98714621D02*
X157721352Y-98714621D01*
X158435638Y-98857478D02*
X158792781Y-98857478D01*
X158364209Y-99071764D02*
X158614209Y-98321764D01*
X158614209Y-98321764D02*
X158864209Y-99071764D01*
X159221352Y-98643192D02*
X159149923Y-98607478D01*
X159149923Y-98607478D02*
X159114209Y-98571764D01*
X159114209Y-98571764D02*
X159078495Y-98500335D01*
X159078495Y-98500335D02*
X159078495Y-98464621D01*
X159078495Y-98464621D02*
X159114209Y-98393192D01*
X159114209Y-98393192D02*
X159149923Y-98357478D01*
X159149923Y-98357478D02*
X159221352Y-98321764D01*
X159221352Y-98321764D02*
X159364209Y-98321764D01*
X159364209Y-98321764D02*
X159435638Y-98357478D01*
X159435638Y-98357478D02*
X159471352Y-98393192D01*
X159471352Y-98393192D02*
X159507066Y-98464621D01*
X159507066Y-98464621D02*
X159507066Y-98500335D01*
X159507066Y-98500335D02*
X159471352Y-98571764D01*
X159471352Y-98571764D02*
X159435638Y-98607478D01*
X159435638Y-98607478D02*
X159364209Y-98643192D01*
X159364209Y-98643192D02*
X159221352Y-98643192D01*
X159221352Y-98643192D02*
X159149923Y-98678907D01*
X159149923Y-98678907D02*
X159114209Y-98714621D01*
X159114209Y-98714621D02*
X159078495Y-98786050D01*
X159078495Y-98786050D02*
X159078495Y-98928907D01*
X159078495Y-98928907D02*
X159114209Y-99000335D01*
X159114209Y-99000335D02*
X159149923Y-99036050D01*
X159149923Y-99036050D02*
X159221352Y-99071764D01*
X159221352Y-99071764D02*
X159364209Y-99071764D01*
X159364209Y-99071764D02*
X159435638Y-99036050D01*
X159435638Y-99036050D02*
X159471352Y-99000335D01*
X159471352Y-99000335D02*
X159507066Y-98928907D01*
X159507066Y-98928907D02*
X159507066Y-98786050D01*
X159507066Y-98786050D02*
X159471352Y-98714621D01*
X159471352Y-98714621D02*
X159435638Y-98678907D01*
X159435638Y-98678907D02*
X159364209Y-98643192D01*
X140528647Y-93991764D02*
X140528647Y-93241764D01*
X140528647Y-93241764D02*
X140814361Y-93241764D01*
X140814361Y-93241764D02*
X140885790Y-93277478D01*
X140885790Y-93277478D02*
X140921504Y-93313192D01*
X140921504Y-93313192D02*
X140957218Y-93384621D01*
X140957218Y-93384621D02*
X140957218Y-93491764D01*
X140957218Y-93491764D02*
X140921504Y-93563192D01*
X140921504Y-93563192D02*
X140885790Y-93598907D01*
X140885790Y-93598907D02*
X140814361Y-93634621D01*
X140814361Y-93634621D02*
X140528647Y-93634621D01*
X141528647Y-93598907D02*
X141635790Y-93634621D01*
X141635790Y-93634621D02*
X141671504Y-93670335D01*
X141671504Y-93670335D02*
X141707218Y-93741764D01*
X141707218Y-93741764D02*
X141707218Y-93848907D01*
X141707218Y-93848907D02*
X141671504Y-93920335D01*
X141671504Y-93920335D02*
X141635790Y-93956050D01*
X141635790Y-93956050D02*
X141564361Y-93991764D01*
X141564361Y-93991764D02*
X141278647Y-93991764D01*
X141278647Y-93991764D02*
X141278647Y-93241764D01*
X141278647Y-93241764D02*
X141528647Y-93241764D01*
X141528647Y-93241764D02*
X141600076Y-93277478D01*
X141600076Y-93277478D02*
X141635790Y-93313192D01*
X141635790Y-93313192D02*
X141671504Y-93384621D01*
X141671504Y-93384621D02*
X141671504Y-93456050D01*
X141671504Y-93456050D02*
X141635790Y-93527478D01*
X141635790Y-93527478D02*
X141600076Y-93563192D01*
X141600076Y-93563192D02*
X141528647Y-93598907D01*
X141528647Y-93598907D02*
X141278647Y-93598907D01*
X142350076Y-93241764D02*
X142207218Y-93241764D01*
X142207218Y-93241764D02*
X142135790Y-93277478D01*
X142135790Y-93277478D02*
X142100076Y-93313192D01*
X142100076Y-93313192D02*
X142028647Y-93420335D01*
X142028647Y-93420335D02*
X141992933Y-93563192D01*
X141992933Y-93563192D02*
X141992933Y-93848907D01*
X141992933Y-93848907D02*
X142028647Y-93920335D01*
X142028647Y-93920335D02*
X142064361Y-93956050D01*
X142064361Y-93956050D02*
X142135790Y-93991764D01*
X142135790Y-93991764D02*
X142278647Y-93991764D01*
X142278647Y-93991764D02*
X142350076Y-93956050D01*
X142350076Y-93956050D02*
X142385790Y-93920335D01*
X142385790Y-93920335D02*
X142421504Y-93848907D01*
X142421504Y-93848907D02*
X142421504Y-93670335D01*
X142421504Y-93670335D02*
X142385790Y-93598907D01*
X142385790Y-93598907D02*
X142350076Y-93563192D01*
X142350076Y-93563192D02*
X142278647Y-93527478D01*
X142278647Y-93527478D02*
X142135790Y-93527478D01*
X142135790Y-93527478D02*
X142064361Y-93563192D01*
X142064361Y-93563192D02*
X142028647Y-93598907D01*
X142028647Y-93598907D02*
X141992933Y-93670335D01*
X140921504Y-116137478D02*
X140850076Y-116101764D01*
X140850076Y-116101764D02*
X140742933Y-116101764D01*
X140742933Y-116101764D02*
X140635790Y-116137478D01*
X140635790Y-116137478D02*
X140564361Y-116208907D01*
X140564361Y-116208907D02*
X140528647Y-116280335D01*
X140528647Y-116280335D02*
X140492933Y-116423192D01*
X140492933Y-116423192D02*
X140492933Y-116530335D01*
X140492933Y-116530335D02*
X140528647Y-116673192D01*
X140528647Y-116673192D02*
X140564361Y-116744621D01*
X140564361Y-116744621D02*
X140635790Y-116816050D01*
X140635790Y-116816050D02*
X140742933Y-116851764D01*
X140742933Y-116851764D02*
X140814361Y-116851764D01*
X140814361Y-116851764D02*
X140921504Y-116816050D01*
X140921504Y-116816050D02*
X140957218Y-116780335D01*
X140957218Y-116780335D02*
X140957218Y-116530335D01*
X140957218Y-116530335D02*
X140814361Y-116530335D01*
X141278647Y-116851764D02*
X141278647Y-116101764D01*
X141278647Y-116101764D02*
X141707218Y-116851764D01*
X141707218Y-116851764D02*
X141707218Y-116101764D01*
X142064361Y-116851764D02*
X142064361Y-116101764D01*
X142064361Y-116101764D02*
X142242932Y-116101764D01*
X142242932Y-116101764D02*
X142350075Y-116137478D01*
X142350075Y-116137478D02*
X142421504Y-116208907D01*
X142421504Y-116208907D02*
X142457218Y-116280335D01*
X142457218Y-116280335D02*
X142492932Y-116423192D01*
X142492932Y-116423192D02*
X142492932Y-116530335D01*
X142492932Y-116530335D02*
X142457218Y-116673192D01*
X142457218Y-116673192D02*
X142421504Y-116744621D01*
X142421504Y-116744621D02*
X142350075Y-116816050D01*
X142350075Y-116816050D02*
X142242932Y-116851764D01*
X142242932Y-116851764D02*
X142064361Y-116851764D01*
X140039422Y-90181428D02*
X140789422Y-90181428D01*
X140789422Y-90181428D02*
X140789422Y-90467142D01*
X140789422Y-90467142D02*
X140753708Y-90538571D01*
X140753708Y-90538571D02*
X140717994Y-90574285D01*
X140717994Y-90574285D02*
X140646565Y-90609999D01*
X140646565Y-90609999D02*
X140539422Y-90609999D01*
X140539422Y-90609999D02*
X140467994Y-90574285D01*
X140467994Y-90574285D02*
X140432279Y-90538571D01*
X140432279Y-90538571D02*
X140396565Y-90467142D01*
X140396565Y-90467142D02*
X140396565Y-90181428D01*
X140432279Y-91181428D02*
X140396565Y-91288571D01*
X140396565Y-91288571D02*
X140360851Y-91324285D01*
X140360851Y-91324285D02*
X140289422Y-91359999D01*
X140289422Y-91359999D02*
X140182279Y-91359999D01*
X140182279Y-91359999D02*
X140110851Y-91324285D01*
X140110851Y-91324285D02*
X140075137Y-91288571D01*
X140075137Y-91288571D02*
X140039422Y-91217142D01*
X140039422Y-91217142D02*
X140039422Y-90931428D01*
X140039422Y-90931428D02*
X140789422Y-90931428D01*
X140789422Y-90931428D02*
X140789422Y-91181428D01*
X140789422Y-91181428D02*
X140753708Y-91252857D01*
X140753708Y-91252857D02*
X140717994Y-91288571D01*
X140717994Y-91288571D02*
X140646565Y-91324285D01*
X140646565Y-91324285D02*
X140575137Y-91324285D01*
X140575137Y-91324285D02*
X140503708Y-91288571D01*
X140503708Y-91288571D02*
X140467994Y-91252857D01*
X140467994Y-91252857D02*
X140432279Y-91181428D01*
X140432279Y-91181428D02*
X140432279Y-90931428D01*
X140789422Y-92002857D02*
X140789422Y-91859999D01*
X140789422Y-91859999D02*
X140753708Y-91788571D01*
X140753708Y-91788571D02*
X140717994Y-91752857D01*
X140717994Y-91752857D02*
X140610851Y-91681428D01*
X140610851Y-91681428D02*
X140467994Y-91645714D01*
X140467994Y-91645714D02*
X140182279Y-91645714D01*
X140182279Y-91645714D02*
X140110851Y-91681428D01*
X140110851Y-91681428D02*
X140075137Y-91717142D01*
X140075137Y-91717142D02*
X140039422Y-91788571D01*
X140039422Y-91788571D02*
X140039422Y-91931428D01*
X140039422Y-91931428D02*
X140075137Y-92002857D01*
X140075137Y-92002857D02*
X140110851Y-92038571D01*
X140110851Y-92038571D02*
X140182279Y-92074285D01*
X140182279Y-92074285D02*
X140360851Y-92074285D01*
X140360851Y-92074285D02*
X140432279Y-92038571D01*
X140432279Y-92038571D02*
X140467994Y-92002857D01*
X140467994Y-92002857D02*
X140503708Y-91931428D01*
X140503708Y-91931428D02*
X140503708Y-91788571D01*
X140503708Y-91788571D02*
X140467994Y-91717142D01*
X140467994Y-91717142D02*
X140432279Y-91681428D01*
X140432279Y-91681428D02*
X140360851Y-91645714D01*
X140528647Y-101611764D02*
X140528647Y-100861764D01*
X140528647Y-100861764D02*
X140814361Y-100861764D01*
X140814361Y-100861764D02*
X140885790Y-100897478D01*
X140885790Y-100897478D02*
X140921504Y-100933192D01*
X140921504Y-100933192D02*
X140957218Y-101004621D01*
X140957218Y-101004621D02*
X140957218Y-101111764D01*
X140957218Y-101111764D02*
X140921504Y-101183192D01*
X140921504Y-101183192D02*
X140885790Y-101218907D01*
X140885790Y-101218907D02*
X140814361Y-101254621D01*
X140814361Y-101254621D02*
X140528647Y-101254621D01*
X141707218Y-101540335D02*
X141671504Y-101576050D01*
X141671504Y-101576050D02*
X141564361Y-101611764D01*
X141564361Y-101611764D02*
X141492933Y-101611764D01*
X141492933Y-101611764D02*
X141385790Y-101576050D01*
X141385790Y-101576050D02*
X141314361Y-101504621D01*
X141314361Y-101504621D02*
X141278647Y-101433192D01*
X141278647Y-101433192D02*
X141242933Y-101290335D01*
X141242933Y-101290335D02*
X141242933Y-101183192D01*
X141242933Y-101183192D02*
X141278647Y-101040335D01*
X141278647Y-101040335D02*
X141314361Y-100968907D01*
X141314361Y-100968907D02*
X141385790Y-100897478D01*
X141385790Y-100897478D02*
X141492933Y-100861764D01*
X141492933Y-100861764D02*
X141564361Y-100861764D01*
X141564361Y-100861764D02*
X141671504Y-100897478D01*
X141671504Y-100897478D02*
X141707218Y-100933192D01*
X142421504Y-101611764D02*
X141992933Y-101611764D01*
X142207218Y-101611764D02*
X142207218Y-100861764D01*
X142207218Y-100861764D02*
X142135790Y-100968907D01*
X142135790Y-100968907D02*
X142064361Y-101040335D01*
X142064361Y-101040335D02*
X141992933Y-101076050D01*
X143064362Y-101111764D02*
X143064362Y-101611764D01*
X142885790Y-100826050D02*
X142707219Y-101361764D01*
X142707219Y-101361764D02*
X143171504Y-101361764D01*
X157721352Y-114311764D02*
X157721352Y-113561764D01*
X157721352Y-113561764D02*
X158007066Y-113561764D01*
X158007066Y-113561764D02*
X158078495Y-113597478D01*
X158078495Y-113597478D02*
X158114209Y-113633192D01*
X158114209Y-113633192D02*
X158149923Y-113704621D01*
X158149923Y-113704621D02*
X158149923Y-113811764D01*
X158149923Y-113811764D02*
X158114209Y-113883192D01*
X158114209Y-113883192D02*
X158078495Y-113918907D01*
X158078495Y-113918907D02*
X158007066Y-113954621D01*
X158007066Y-113954621D02*
X157721352Y-113954621D01*
X158435638Y-114097478D02*
X158792781Y-114097478D01*
X158364209Y-114311764D02*
X158614209Y-113561764D01*
X158614209Y-113561764D02*
X158864209Y-114311764D01*
X159435638Y-113811764D02*
X159435638Y-114311764D01*
X159257066Y-113526050D02*
X159078495Y-114061764D01*
X159078495Y-114061764D02*
X159542780Y-114061764D01*
X140528647Y-96531764D02*
X140528647Y-95781764D01*
X140528647Y-95781764D02*
X140814361Y-95781764D01*
X140814361Y-95781764D02*
X140885790Y-95817478D01*
X140885790Y-95817478D02*
X140921504Y-95853192D01*
X140921504Y-95853192D02*
X140957218Y-95924621D01*
X140957218Y-95924621D02*
X140957218Y-96031764D01*
X140957218Y-96031764D02*
X140921504Y-96103192D01*
X140921504Y-96103192D02*
X140885790Y-96138907D01*
X140885790Y-96138907D02*
X140814361Y-96174621D01*
X140814361Y-96174621D02*
X140528647Y-96174621D01*
X141528647Y-96138907D02*
X141635790Y-96174621D01*
X141635790Y-96174621D02*
X141671504Y-96210335D01*
X141671504Y-96210335D02*
X141707218Y-96281764D01*
X141707218Y-96281764D02*
X141707218Y-96388907D01*
X141707218Y-96388907D02*
X141671504Y-96460335D01*
X141671504Y-96460335D02*
X141635790Y-96496050D01*
X141635790Y-96496050D02*
X141564361Y-96531764D01*
X141564361Y-96531764D02*
X141278647Y-96531764D01*
X141278647Y-96531764D02*
X141278647Y-95781764D01*
X141278647Y-95781764D02*
X141528647Y-95781764D01*
X141528647Y-95781764D02*
X141600076Y-95817478D01*
X141600076Y-95817478D02*
X141635790Y-95853192D01*
X141635790Y-95853192D02*
X141671504Y-95924621D01*
X141671504Y-95924621D02*
X141671504Y-95996050D01*
X141671504Y-95996050D02*
X141635790Y-96067478D01*
X141635790Y-96067478D02*
X141600076Y-96103192D01*
X141600076Y-96103192D02*
X141528647Y-96138907D01*
X141528647Y-96138907D02*
X141278647Y-96138907D01*
X141957218Y-95781764D02*
X142457218Y-95781764D01*
X142457218Y-95781764D02*
X142135790Y-96531764D01*
X157007066Y-91451764D02*
X157007066Y-90701764D01*
X157007066Y-90701764D02*
X157292780Y-90701764D01*
X157292780Y-90701764D02*
X157364209Y-90737478D01*
X157364209Y-90737478D02*
X157399923Y-90773192D01*
X157399923Y-90773192D02*
X157435637Y-90844621D01*
X157435637Y-90844621D02*
X157435637Y-90951764D01*
X157435637Y-90951764D02*
X157399923Y-91023192D01*
X157399923Y-91023192D02*
X157364209Y-91058907D01*
X157364209Y-91058907D02*
X157292780Y-91094621D01*
X157292780Y-91094621D02*
X157007066Y-91094621D01*
X157721352Y-91237478D02*
X158078495Y-91237478D01*
X157649923Y-91451764D02*
X157899923Y-90701764D01*
X157899923Y-90701764D02*
X158149923Y-91451764D01*
X158792780Y-91451764D02*
X158364209Y-91451764D01*
X158578494Y-91451764D02*
X158578494Y-90701764D01*
X158578494Y-90701764D02*
X158507066Y-90808907D01*
X158507066Y-90808907D02*
X158435637Y-90880335D01*
X158435637Y-90880335D02*
X158364209Y-90916050D01*
X159507066Y-91451764D02*
X159078495Y-91451764D01*
X159292780Y-91451764D02*
X159292780Y-90701764D01*
X159292780Y-90701764D02*
X159221352Y-90808907D01*
X159221352Y-90808907D02*
X159149923Y-90880335D01*
X159149923Y-90880335D02*
X159078495Y-90916050D01*
X140921504Y-80577478D02*
X140850076Y-80541764D01*
X140850076Y-80541764D02*
X140742933Y-80541764D01*
X140742933Y-80541764D02*
X140635790Y-80577478D01*
X140635790Y-80577478D02*
X140564361Y-80648907D01*
X140564361Y-80648907D02*
X140528647Y-80720335D01*
X140528647Y-80720335D02*
X140492933Y-80863192D01*
X140492933Y-80863192D02*
X140492933Y-80970335D01*
X140492933Y-80970335D02*
X140528647Y-81113192D01*
X140528647Y-81113192D02*
X140564361Y-81184621D01*
X140564361Y-81184621D02*
X140635790Y-81256050D01*
X140635790Y-81256050D02*
X140742933Y-81291764D01*
X140742933Y-81291764D02*
X140814361Y-81291764D01*
X140814361Y-81291764D02*
X140921504Y-81256050D01*
X140921504Y-81256050D02*
X140957218Y-81220335D01*
X140957218Y-81220335D02*
X140957218Y-80970335D01*
X140957218Y-80970335D02*
X140814361Y-80970335D01*
X141278647Y-81291764D02*
X141278647Y-80541764D01*
X141278647Y-80541764D02*
X141707218Y-81291764D01*
X141707218Y-81291764D02*
X141707218Y-80541764D01*
X142064361Y-81291764D02*
X142064361Y-80541764D01*
X142064361Y-80541764D02*
X142242932Y-80541764D01*
X142242932Y-80541764D02*
X142350075Y-80577478D01*
X142350075Y-80577478D02*
X142421504Y-80648907D01*
X142421504Y-80648907D02*
X142457218Y-80720335D01*
X142457218Y-80720335D02*
X142492932Y-80863192D01*
X142492932Y-80863192D02*
X142492932Y-80970335D01*
X142492932Y-80970335D02*
X142457218Y-81113192D01*
X142457218Y-81113192D02*
X142421504Y-81184621D01*
X142421504Y-81184621D02*
X142350075Y-81256050D01*
X142350075Y-81256050D02*
X142242932Y-81291764D01*
X142242932Y-81291764D02*
X142064361Y-81291764D01*
X157721352Y-109231764D02*
X157721352Y-108481764D01*
X157721352Y-108481764D02*
X158007066Y-108481764D01*
X158007066Y-108481764D02*
X158078495Y-108517478D01*
X158078495Y-108517478D02*
X158114209Y-108553192D01*
X158114209Y-108553192D02*
X158149923Y-108624621D01*
X158149923Y-108624621D02*
X158149923Y-108731764D01*
X158149923Y-108731764D02*
X158114209Y-108803192D01*
X158114209Y-108803192D02*
X158078495Y-108838907D01*
X158078495Y-108838907D02*
X158007066Y-108874621D01*
X158007066Y-108874621D02*
X157721352Y-108874621D01*
X158435638Y-109017478D02*
X158792781Y-109017478D01*
X158364209Y-109231764D02*
X158614209Y-108481764D01*
X158614209Y-108481764D02*
X158864209Y-109231764D01*
X159435638Y-108481764D02*
X159292780Y-108481764D01*
X159292780Y-108481764D02*
X159221352Y-108517478D01*
X159221352Y-108517478D02*
X159185638Y-108553192D01*
X159185638Y-108553192D02*
X159114209Y-108660335D01*
X159114209Y-108660335D02*
X159078495Y-108803192D01*
X159078495Y-108803192D02*
X159078495Y-109088907D01*
X159078495Y-109088907D02*
X159114209Y-109160335D01*
X159114209Y-109160335D02*
X159149923Y-109196050D01*
X159149923Y-109196050D02*
X159221352Y-109231764D01*
X159221352Y-109231764D02*
X159364209Y-109231764D01*
X159364209Y-109231764D02*
X159435638Y-109196050D01*
X159435638Y-109196050D02*
X159471352Y-109160335D01*
X159471352Y-109160335D02*
X159507066Y-109088907D01*
X159507066Y-109088907D02*
X159507066Y-108910335D01*
X159507066Y-108910335D02*
X159471352Y-108838907D01*
X159471352Y-108838907D02*
X159435638Y-108803192D01*
X159435638Y-108803192D02*
X159364209Y-108767478D01*
X159364209Y-108767478D02*
X159221352Y-108767478D01*
X159221352Y-108767478D02*
X159149923Y-108803192D01*
X159149923Y-108803192D02*
X159114209Y-108838907D01*
X159114209Y-108838907D02*
X159078495Y-108910335D01*
X140457218Y-75461764D02*
X140921504Y-75461764D01*
X140921504Y-75461764D02*
X140671504Y-75747478D01*
X140671504Y-75747478D02*
X140778647Y-75747478D01*
X140778647Y-75747478D02*
X140850076Y-75783192D01*
X140850076Y-75783192D02*
X140885790Y-75818907D01*
X140885790Y-75818907D02*
X140921504Y-75890335D01*
X140921504Y-75890335D02*
X140921504Y-76068907D01*
X140921504Y-76068907D02*
X140885790Y-76140335D01*
X140885790Y-76140335D02*
X140850076Y-76176050D01*
X140850076Y-76176050D02*
X140778647Y-76211764D01*
X140778647Y-76211764D02*
X140564361Y-76211764D01*
X140564361Y-76211764D02*
X140492933Y-76176050D01*
X140492933Y-76176050D02*
X140457218Y-76140335D01*
X141135790Y-75461764D02*
X141385790Y-76211764D01*
X141385790Y-76211764D02*
X141635790Y-75461764D01*
X141814361Y-75461764D02*
X142278647Y-75461764D01*
X142278647Y-75461764D02*
X142028647Y-75747478D01*
X142028647Y-75747478D02*
X142135790Y-75747478D01*
X142135790Y-75747478D02*
X142207219Y-75783192D01*
X142207219Y-75783192D02*
X142242933Y-75818907D01*
X142242933Y-75818907D02*
X142278647Y-75890335D01*
X142278647Y-75890335D02*
X142278647Y-76068907D01*
X142278647Y-76068907D02*
X142242933Y-76140335D01*
X142242933Y-76140335D02*
X142207219Y-76176050D01*
X142207219Y-76176050D02*
X142135790Y-76211764D01*
X142135790Y-76211764D02*
X141921504Y-76211764D01*
X141921504Y-76211764D02*
X141850076Y-76176050D01*
X141850076Y-76176050D02*
X141814361Y-76140335D01*
X157685637Y-75461764D02*
X158149923Y-75461764D01*
X158149923Y-75461764D02*
X157899923Y-75747478D01*
X157899923Y-75747478D02*
X158007066Y-75747478D01*
X158007066Y-75747478D02*
X158078495Y-75783192D01*
X158078495Y-75783192D02*
X158114209Y-75818907D01*
X158114209Y-75818907D02*
X158149923Y-75890335D01*
X158149923Y-75890335D02*
X158149923Y-76068907D01*
X158149923Y-76068907D02*
X158114209Y-76140335D01*
X158114209Y-76140335D02*
X158078495Y-76176050D01*
X158078495Y-76176050D02*
X158007066Y-76211764D01*
X158007066Y-76211764D02*
X157792780Y-76211764D01*
X157792780Y-76211764D02*
X157721352Y-76176050D01*
X157721352Y-76176050D02*
X157685637Y-76140335D01*
X158364209Y-75461764D02*
X158614209Y-76211764D01*
X158614209Y-76211764D02*
X158864209Y-75461764D01*
X159042780Y-75461764D02*
X159507066Y-75461764D01*
X159507066Y-75461764D02*
X159257066Y-75747478D01*
X159257066Y-75747478D02*
X159364209Y-75747478D01*
X159364209Y-75747478D02*
X159435638Y-75783192D01*
X159435638Y-75783192D02*
X159471352Y-75818907D01*
X159471352Y-75818907D02*
X159507066Y-75890335D01*
X159507066Y-75890335D02*
X159507066Y-76068907D01*
X159507066Y-76068907D02*
X159471352Y-76140335D01*
X159471352Y-76140335D02*
X159435638Y-76176050D01*
X159435638Y-76176050D02*
X159364209Y-76211764D01*
X159364209Y-76211764D02*
X159149923Y-76211764D01*
X159149923Y-76211764D02*
X159078495Y-76176050D01*
X159078495Y-76176050D02*
X159042780Y-76140335D01*
X140528647Y-109231764D02*
X140528647Y-108481764D01*
X140528647Y-108481764D02*
X140814361Y-108481764D01*
X140814361Y-108481764D02*
X140885790Y-108517478D01*
X140885790Y-108517478D02*
X140921504Y-108553192D01*
X140921504Y-108553192D02*
X140957218Y-108624621D01*
X140957218Y-108624621D02*
X140957218Y-108731764D01*
X140957218Y-108731764D02*
X140921504Y-108803192D01*
X140921504Y-108803192D02*
X140885790Y-108838907D01*
X140885790Y-108838907D02*
X140814361Y-108874621D01*
X140814361Y-108874621D02*
X140528647Y-108874621D01*
X141242933Y-109017478D02*
X141600076Y-109017478D01*
X141171504Y-109231764D02*
X141421504Y-108481764D01*
X141421504Y-108481764D02*
X141671504Y-109231764D01*
X142064361Y-108481764D02*
X142135790Y-108481764D01*
X142135790Y-108481764D02*
X142207218Y-108517478D01*
X142207218Y-108517478D02*
X142242933Y-108553192D01*
X142242933Y-108553192D02*
X142278647Y-108624621D01*
X142278647Y-108624621D02*
X142314361Y-108767478D01*
X142314361Y-108767478D02*
X142314361Y-108946050D01*
X142314361Y-108946050D02*
X142278647Y-109088907D01*
X142278647Y-109088907D02*
X142242933Y-109160335D01*
X142242933Y-109160335D02*
X142207218Y-109196050D01*
X142207218Y-109196050D02*
X142135790Y-109231764D01*
X142135790Y-109231764D02*
X142064361Y-109231764D01*
X142064361Y-109231764D02*
X141992933Y-109196050D01*
X141992933Y-109196050D02*
X141957218Y-109160335D01*
X141957218Y-109160335D02*
X141921504Y-109088907D01*
X141921504Y-109088907D02*
X141885790Y-108946050D01*
X141885790Y-108946050D02*
X141885790Y-108767478D01*
X141885790Y-108767478D02*
X141921504Y-108624621D01*
X141921504Y-108624621D02*
X141957218Y-108553192D01*
X141957218Y-108553192D02*
X141992933Y-108517478D01*
X141992933Y-108517478D02*
X142064361Y-108481764D01*
X140528647Y-86371764D02*
X140528647Y-85621764D01*
X140528647Y-85621764D02*
X140814361Y-85621764D01*
X140814361Y-85621764D02*
X140885790Y-85657478D01*
X140885790Y-85657478D02*
X140921504Y-85693192D01*
X140921504Y-85693192D02*
X140957218Y-85764621D01*
X140957218Y-85764621D02*
X140957218Y-85871764D01*
X140957218Y-85871764D02*
X140921504Y-85943192D01*
X140921504Y-85943192D02*
X140885790Y-85978907D01*
X140885790Y-85978907D02*
X140814361Y-86014621D01*
X140814361Y-86014621D02*
X140528647Y-86014621D01*
X141528647Y-85978907D02*
X141635790Y-86014621D01*
X141635790Y-86014621D02*
X141671504Y-86050335D01*
X141671504Y-86050335D02*
X141707218Y-86121764D01*
X141707218Y-86121764D02*
X141707218Y-86228907D01*
X141707218Y-86228907D02*
X141671504Y-86300335D01*
X141671504Y-86300335D02*
X141635790Y-86336050D01*
X141635790Y-86336050D02*
X141564361Y-86371764D01*
X141564361Y-86371764D02*
X141278647Y-86371764D01*
X141278647Y-86371764D02*
X141278647Y-85621764D01*
X141278647Y-85621764D02*
X141528647Y-85621764D01*
X141528647Y-85621764D02*
X141600076Y-85657478D01*
X141600076Y-85657478D02*
X141635790Y-85693192D01*
X141635790Y-85693192D02*
X141671504Y-85764621D01*
X141671504Y-85764621D02*
X141671504Y-85836050D01*
X141671504Y-85836050D02*
X141635790Y-85907478D01*
X141635790Y-85907478D02*
X141600076Y-85943192D01*
X141600076Y-85943192D02*
X141528647Y-85978907D01*
X141528647Y-85978907D02*
X141278647Y-85978907D01*
X141957218Y-85621764D02*
X142421504Y-85621764D01*
X142421504Y-85621764D02*
X142171504Y-85907478D01*
X142171504Y-85907478D02*
X142278647Y-85907478D01*
X142278647Y-85907478D02*
X142350076Y-85943192D01*
X142350076Y-85943192D02*
X142385790Y-85978907D01*
X142385790Y-85978907D02*
X142421504Y-86050335D01*
X142421504Y-86050335D02*
X142421504Y-86228907D01*
X142421504Y-86228907D02*
X142385790Y-86300335D01*
X142385790Y-86300335D02*
X142350076Y-86336050D01*
X142350076Y-86336050D02*
X142278647Y-86371764D01*
X142278647Y-86371764D02*
X142064361Y-86371764D01*
X142064361Y-86371764D02*
X141992933Y-86336050D01*
X141992933Y-86336050D02*
X141957218Y-86300335D01*
X153288277Y-76796428D02*
X153288277Y-77260714D01*
X153288277Y-77260714D02*
X153002563Y-77010714D01*
X153002563Y-77010714D02*
X153002563Y-77117857D01*
X153002563Y-77117857D02*
X152966849Y-77189286D01*
X152966849Y-77189286D02*
X152931134Y-77225000D01*
X152931134Y-77225000D02*
X152859706Y-77260714D01*
X152859706Y-77260714D02*
X152681134Y-77260714D01*
X152681134Y-77260714D02*
X152609706Y-77225000D01*
X152609706Y-77225000D02*
X152573992Y-77189286D01*
X152573992Y-77189286D02*
X152538277Y-77117857D01*
X152538277Y-77117857D02*
X152538277Y-76903571D01*
X152538277Y-76903571D02*
X152573992Y-76832143D01*
X152573992Y-76832143D02*
X152609706Y-76796428D01*
X153288277Y-77475000D02*
X152538277Y-77725000D01*
X152538277Y-77725000D02*
X153288277Y-77975000D01*
X153288277Y-78153571D02*
X153288277Y-78617857D01*
X153288277Y-78617857D02*
X153002563Y-78367857D01*
X153002563Y-78367857D02*
X153002563Y-78475000D01*
X153002563Y-78475000D02*
X152966849Y-78546429D01*
X152966849Y-78546429D02*
X152931134Y-78582143D01*
X152931134Y-78582143D02*
X152859706Y-78617857D01*
X152859706Y-78617857D02*
X152681134Y-78617857D01*
X152681134Y-78617857D02*
X152609706Y-78582143D01*
X152609706Y-78582143D02*
X152573992Y-78546429D01*
X152573992Y-78546429D02*
X152538277Y-78475000D01*
X152538277Y-78475000D02*
X152538277Y-78260714D01*
X152538277Y-78260714D02*
X152573992Y-78189286D01*
X152573992Y-78189286D02*
X152609706Y-78153571D01*
X159246291Y-122161428D02*
X159210577Y-122232857D01*
X159210577Y-122232857D02*
X159210577Y-122339999D01*
X159210577Y-122339999D02*
X159246291Y-122447142D01*
X159246291Y-122447142D02*
X159317720Y-122518571D01*
X159317720Y-122518571D02*
X159389148Y-122554285D01*
X159389148Y-122554285D02*
X159532005Y-122589999D01*
X159532005Y-122589999D02*
X159639148Y-122589999D01*
X159639148Y-122589999D02*
X159782005Y-122554285D01*
X159782005Y-122554285D02*
X159853434Y-122518571D01*
X159853434Y-122518571D02*
X159924863Y-122447142D01*
X159924863Y-122447142D02*
X159960577Y-122339999D01*
X159960577Y-122339999D02*
X159960577Y-122268571D01*
X159960577Y-122268571D02*
X159924863Y-122161428D01*
X159924863Y-122161428D02*
X159889148Y-122125714D01*
X159889148Y-122125714D02*
X159639148Y-122125714D01*
X159639148Y-122125714D02*
X159639148Y-122268571D01*
X159960577Y-121804285D02*
X159210577Y-121804285D01*
X159210577Y-121804285D02*
X159960577Y-121375714D01*
X159960577Y-121375714D02*
X159210577Y-121375714D01*
X159960577Y-121018571D02*
X159210577Y-121018571D01*
X159210577Y-121018571D02*
X159210577Y-120840000D01*
X159210577Y-120840000D02*
X159246291Y-120732857D01*
X159246291Y-120732857D02*
X159317720Y-120661428D01*
X159317720Y-120661428D02*
X159389148Y-120625714D01*
X159389148Y-120625714D02*
X159532005Y-120590000D01*
X159532005Y-120590000D02*
X159639148Y-120590000D01*
X159639148Y-120590000D02*
X159782005Y-120625714D01*
X159782005Y-120625714D02*
X159853434Y-120661428D01*
X159853434Y-120661428D02*
X159924863Y-120732857D01*
X159924863Y-120732857D02*
X159960577Y-120840000D01*
X159960577Y-120840000D02*
X159960577Y-121018571D01*
X157721352Y-104151764D02*
X157721352Y-103401764D01*
X157721352Y-103401764D02*
X158007066Y-103401764D01*
X158007066Y-103401764D02*
X158078495Y-103437478D01*
X158078495Y-103437478D02*
X158114209Y-103473192D01*
X158114209Y-103473192D02*
X158149923Y-103544621D01*
X158149923Y-103544621D02*
X158149923Y-103651764D01*
X158149923Y-103651764D02*
X158114209Y-103723192D01*
X158114209Y-103723192D02*
X158078495Y-103758907D01*
X158078495Y-103758907D02*
X158007066Y-103794621D01*
X158007066Y-103794621D02*
X157721352Y-103794621D01*
X158435638Y-103937478D02*
X158792781Y-103937478D01*
X158364209Y-104151764D02*
X158614209Y-103401764D01*
X158614209Y-103401764D02*
X158864209Y-104151764D01*
X159221352Y-103723192D02*
X159149923Y-103687478D01*
X159149923Y-103687478D02*
X159114209Y-103651764D01*
X159114209Y-103651764D02*
X159078495Y-103580335D01*
X159078495Y-103580335D02*
X159078495Y-103544621D01*
X159078495Y-103544621D02*
X159114209Y-103473192D01*
X159114209Y-103473192D02*
X159149923Y-103437478D01*
X159149923Y-103437478D02*
X159221352Y-103401764D01*
X159221352Y-103401764D02*
X159364209Y-103401764D01*
X159364209Y-103401764D02*
X159435638Y-103437478D01*
X159435638Y-103437478D02*
X159471352Y-103473192D01*
X159471352Y-103473192D02*
X159507066Y-103544621D01*
X159507066Y-103544621D02*
X159507066Y-103580335D01*
X159507066Y-103580335D02*
X159471352Y-103651764D01*
X159471352Y-103651764D02*
X159435638Y-103687478D01*
X159435638Y-103687478D02*
X159364209Y-103723192D01*
X159364209Y-103723192D02*
X159221352Y-103723192D01*
X159221352Y-103723192D02*
X159149923Y-103758907D01*
X159149923Y-103758907D02*
X159114209Y-103794621D01*
X159114209Y-103794621D02*
X159078495Y-103866050D01*
X159078495Y-103866050D02*
X159078495Y-104008907D01*
X159078495Y-104008907D02*
X159114209Y-104080335D01*
X159114209Y-104080335D02*
X159149923Y-104116050D01*
X159149923Y-104116050D02*
X159221352Y-104151764D01*
X159221352Y-104151764D02*
X159364209Y-104151764D01*
X159364209Y-104151764D02*
X159435638Y-104116050D01*
X159435638Y-104116050D02*
X159471352Y-104080335D01*
X159471352Y-104080335D02*
X159507066Y-104008907D01*
X159507066Y-104008907D02*
X159507066Y-103866050D01*
X159507066Y-103866050D02*
X159471352Y-103794621D01*
X159471352Y-103794621D02*
X159435638Y-103758907D01*
X159435638Y-103758907D02*
X159364209Y-103723192D01*
X140039422Y-102524285D02*
X140789422Y-102524285D01*
X140789422Y-102524285D02*
X140789422Y-102809999D01*
X140789422Y-102809999D02*
X140753708Y-102881428D01*
X140753708Y-102881428D02*
X140717994Y-102917142D01*
X140717994Y-102917142D02*
X140646565Y-102952856D01*
X140646565Y-102952856D02*
X140539422Y-102952856D01*
X140539422Y-102952856D02*
X140467994Y-102917142D01*
X140467994Y-102917142D02*
X140432279Y-102881428D01*
X140432279Y-102881428D02*
X140396565Y-102809999D01*
X140396565Y-102809999D02*
X140396565Y-102524285D01*
X140110851Y-103702856D02*
X140075137Y-103667142D01*
X140075137Y-103667142D02*
X140039422Y-103559999D01*
X140039422Y-103559999D02*
X140039422Y-103488571D01*
X140039422Y-103488571D02*
X140075137Y-103381428D01*
X140075137Y-103381428D02*
X140146565Y-103309999D01*
X140146565Y-103309999D02*
X140217994Y-103274285D01*
X140217994Y-103274285D02*
X140360851Y-103238571D01*
X140360851Y-103238571D02*
X140467994Y-103238571D01*
X140467994Y-103238571D02*
X140610851Y-103274285D01*
X140610851Y-103274285D02*
X140682279Y-103309999D01*
X140682279Y-103309999D02*
X140753708Y-103381428D01*
X140753708Y-103381428D02*
X140789422Y-103488571D01*
X140789422Y-103488571D02*
X140789422Y-103559999D01*
X140789422Y-103559999D02*
X140753708Y-103667142D01*
X140753708Y-103667142D02*
X140717994Y-103702856D01*
X140039422Y-104417142D02*
X140039422Y-103988571D01*
X140039422Y-104202856D02*
X140789422Y-104202856D01*
X140789422Y-104202856D02*
X140682279Y-104131428D01*
X140682279Y-104131428D02*
X140610851Y-104059999D01*
X140610851Y-104059999D02*
X140575137Y-103988571D01*
X140789422Y-105095714D02*
X140789422Y-104738571D01*
X140789422Y-104738571D02*
X140432279Y-104702857D01*
X140432279Y-104702857D02*
X140467994Y-104738571D01*
X140467994Y-104738571D02*
X140503708Y-104810000D01*
X140503708Y-104810000D02*
X140503708Y-104988571D01*
X140503708Y-104988571D02*
X140467994Y-105060000D01*
X140467994Y-105060000D02*
X140432279Y-105095714D01*
X140432279Y-105095714D02*
X140360851Y-105131428D01*
X140360851Y-105131428D02*
X140182279Y-105131428D01*
X140182279Y-105131428D02*
X140110851Y-105095714D01*
X140110851Y-105095714D02*
X140075137Y-105060000D01*
X140075137Y-105060000D02*
X140039422Y-104988571D01*
X140039422Y-104988571D02*
X140039422Y-104810000D01*
X140039422Y-104810000D02*
X140075137Y-104738571D01*
X140075137Y-104738571D02*
X140110851Y-104702857D01*
X157721352Y-116851764D02*
X157721352Y-116101764D01*
X157721352Y-116101764D02*
X158007066Y-116101764D01*
X158007066Y-116101764D02*
X158078495Y-116137478D01*
X158078495Y-116137478D02*
X158114209Y-116173192D01*
X158114209Y-116173192D02*
X158149923Y-116244621D01*
X158149923Y-116244621D02*
X158149923Y-116351764D01*
X158149923Y-116351764D02*
X158114209Y-116423192D01*
X158114209Y-116423192D02*
X158078495Y-116458907D01*
X158078495Y-116458907D02*
X158007066Y-116494621D01*
X158007066Y-116494621D02*
X157721352Y-116494621D01*
X158435638Y-116637478D02*
X158792781Y-116637478D01*
X158364209Y-116851764D02*
X158614209Y-116101764D01*
X158614209Y-116101764D02*
X158864209Y-116851764D01*
X159042780Y-116101764D02*
X159507066Y-116101764D01*
X159507066Y-116101764D02*
X159257066Y-116387478D01*
X159257066Y-116387478D02*
X159364209Y-116387478D01*
X159364209Y-116387478D02*
X159435638Y-116423192D01*
X159435638Y-116423192D02*
X159471352Y-116458907D01*
X159471352Y-116458907D02*
X159507066Y-116530335D01*
X159507066Y-116530335D02*
X159507066Y-116708907D01*
X159507066Y-116708907D02*
X159471352Y-116780335D01*
X159471352Y-116780335D02*
X159435638Y-116816050D01*
X159435638Y-116816050D02*
X159364209Y-116851764D01*
X159364209Y-116851764D02*
X159149923Y-116851764D01*
X159149923Y-116851764D02*
X159078495Y-116816050D01*
X159078495Y-116816050D02*
X159042780Y-116780335D01*
X149750000Y-120279264D02*
X149750000Y-120814978D01*
X149750000Y-120814978D02*
X149714285Y-120922121D01*
X149714285Y-120922121D02*
X149642857Y-120993550D01*
X149642857Y-120993550D02*
X149535714Y-121029264D01*
X149535714Y-121029264D02*
X149464285Y-121029264D01*
X150500000Y-121029264D02*
X150071429Y-121029264D01*
X150285714Y-121029264D02*
X150285714Y-120279264D01*
X150285714Y-120279264D02*
X150214286Y-120386407D01*
X150214286Y-120386407D02*
X150142857Y-120457835D01*
X150142857Y-120457835D02*
X150071429Y-120493550D01*
X149506050Y-89671428D02*
X149541764Y-89564286D01*
X149541764Y-89564286D02*
X149541764Y-89385714D01*
X149541764Y-89385714D02*
X149506050Y-89314286D01*
X149506050Y-89314286D02*
X149470335Y-89278571D01*
X149470335Y-89278571D02*
X149398907Y-89242857D01*
X149398907Y-89242857D02*
X149327478Y-89242857D01*
X149327478Y-89242857D02*
X149256050Y-89278571D01*
X149256050Y-89278571D02*
X149220335Y-89314286D01*
X149220335Y-89314286D02*
X149184621Y-89385714D01*
X149184621Y-89385714D02*
X149148907Y-89528571D01*
X149148907Y-89528571D02*
X149113192Y-89600000D01*
X149113192Y-89600000D02*
X149077478Y-89635714D01*
X149077478Y-89635714D02*
X149006050Y-89671428D01*
X149006050Y-89671428D02*
X148934621Y-89671428D01*
X148934621Y-89671428D02*
X148863192Y-89635714D01*
X148863192Y-89635714D02*
X148827478Y-89600000D01*
X148827478Y-89600000D02*
X148791764Y-89528571D01*
X148791764Y-89528571D02*
X148791764Y-89350000D01*
X148791764Y-89350000D02*
X148827478Y-89242857D01*
X148863192Y-88957142D02*
X148827478Y-88921428D01*
X148827478Y-88921428D02*
X148791764Y-88850000D01*
X148791764Y-88850000D02*
X148791764Y-88671428D01*
X148791764Y-88671428D02*
X148827478Y-88600000D01*
X148827478Y-88600000D02*
X148863192Y-88564285D01*
X148863192Y-88564285D02*
X148934621Y-88528571D01*
X148934621Y-88528571D02*
X149006050Y-88528571D01*
X149006050Y-88528571D02*
X149113192Y-88564285D01*
X149113192Y-88564285D02*
X149541764Y-88992857D01*
X149541764Y-88992857D02*
X149541764Y-88528571D01*
X156906050Y-116046428D02*
X156941764Y-115939286D01*
X156941764Y-115939286D02*
X156941764Y-115760714D01*
X156941764Y-115760714D02*
X156906050Y-115689286D01*
X156906050Y-115689286D02*
X156870335Y-115653571D01*
X156870335Y-115653571D02*
X156798907Y-115617857D01*
X156798907Y-115617857D02*
X156727478Y-115617857D01*
X156727478Y-115617857D02*
X156656050Y-115653571D01*
X156656050Y-115653571D02*
X156620335Y-115689286D01*
X156620335Y-115689286D02*
X156584621Y-115760714D01*
X156584621Y-115760714D02*
X156548907Y-115903571D01*
X156548907Y-115903571D02*
X156513192Y-115975000D01*
X156513192Y-115975000D02*
X156477478Y-116010714D01*
X156477478Y-116010714D02*
X156406050Y-116046428D01*
X156406050Y-116046428D02*
X156334621Y-116046428D01*
X156334621Y-116046428D02*
X156263192Y-116010714D01*
X156263192Y-116010714D02*
X156227478Y-115975000D01*
X156227478Y-115975000D02*
X156191764Y-115903571D01*
X156191764Y-115903571D02*
X156191764Y-115725000D01*
X156191764Y-115725000D02*
X156227478Y-115617857D01*
X156191764Y-115367857D02*
X156191764Y-114903571D01*
X156191764Y-114903571D02*
X156477478Y-115153571D01*
X156477478Y-115153571D02*
X156477478Y-115046428D01*
X156477478Y-115046428D02*
X156513192Y-114975000D01*
X156513192Y-114975000D02*
X156548907Y-114939285D01*
X156548907Y-114939285D02*
X156620335Y-114903571D01*
X156620335Y-114903571D02*
X156798907Y-114903571D01*
X156798907Y-114903571D02*
X156870335Y-114939285D01*
X156870335Y-114939285D02*
X156906050Y-114975000D01*
X156906050Y-114975000D02*
X156941764Y-115046428D01*
X156941764Y-115046428D02*
X156941764Y-115260714D01*
X156941764Y-115260714D02*
X156906050Y-115332142D01*
X156906050Y-115332142D02*
X156870335Y-115367857D01*
X152617856Y-111870335D02*
X152582142Y-111906050D01*
X152582142Y-111906050D02*
X152474999Y-111941764D01*
X152474999Y-111941764D02*
X152403571Y-111941764D01*
X152403571Y-111941764D02*
X152296428Y-111906050D01*
X152296428Y-111906050D02*
X152224999Y-111834621D01*
X152224999Y-111834621D02*
X152189285Y-111763192D01*
X152189285Y-111763192D02*
X152153571Y-111620335D01*
X152153571Y-111620335D02*
X152153571Y-111513192D01*
X152153571Y-111513192D02*
X152189285Y-111370335D01*
X152189285Y-111370335D02*
X152224999Y-111298907D01*
X152224999Y-111298907D02*
X152296428Y-111227478D01*
X152296428Y-111227478D02*
X152403571Y-111191764D01*
X152403571Y-111191764D02*
X152474999Y-111191764D01*
X152474999Y-111191764D02*
X152582142Y-111227478D01*
X152582142Y-111227478D02*
X152617856Y-111263192D01*
X153332142Y-111941764D02*
X152903571Y-111941764D01*
X153117856Y-111941764D02*
X153117856Y-111191764D01*
X153117856Y-111191764D02*
X153046428Y-111298907D01*
X153046428Y-111298907D02*
X152974999Y-111370335D01*
X152974999Y-111370335D02*
X152903571Y-111406050D01*
X154046428Y-111941764D02*
X153617857Y-111941764D01*
X153832142Y-111941764D02*
X153832142Y-111191764D01*
X153832142Y-111191764D02*
X153760714Y-111298907D01*
X153760714Y-111298907D02*
X153689285Y-111370335D01*
X153689285Y-111370335D02*
X153617857Y-111406050D01*
X145574999Y-93270335D02*
X145539285Y-93306050D01*
X145539285Y-93306050D02*
X145432142Y-93341764D01*
X145432142Y-93341764D02*
X145360714Y-93341764D01*
X145360714Y-93341764D02*
X145253571Y-93306050D01*
X145253571Y-93306050D02*
X145182142Y-93234621D01*
X145182142Y-93234621D02*
X145146428Y-93163192D01*
X145146428Y-93163192D02*
X145110714Y-93020335D01*
X145110714Y-93020335D02*
X145110714Y-92913192D01*
X145110714Y-92913192D02*
X145146428Y-92770335D01*
X145146428Y-92770335D02*
X145182142Y-92698907D01*
X145182142Y-92698907D02*
X145253571Y-92627478D01*
X145253571Y-92627478D02*
X145360714Y-92591764D01*
X145360714Y-92591764D02*
X145432142Y-92591764D01*
X145432142Y-92591764D02*
X145539285Y-92627478D01*
X145539285Y-92627478D02*
X145574999Y-92663192D01*
X145932142Y-93341764D02*
X146074999Y-93341764D01*
X146074999Y-93341764D02*
X146146428Y-93306050D01*
X146146428Y-93306050D02*
X146182142Y-93270335D01*
X146182142Y-93270335D02*
X146253571Y-93163192D01*
X146253571Y-93163192D02*
X146289285Y-93020335D01*
X146289285Y-93020335D02*
X146289285Y-92734621D01*
X146289285Y-92734621D02*
X146253571Y-92663192D01*
X146253571Y-92663192D02*
X146217857Y-92627478D01*
X146217857Y-92627478D02*
X146146428Y-92591764D01*
X146146428Y-92591764D02*
X146003571Y-92591764D01*
X146003571Y-92591764D02*
X145932142Y-92627478D01*
X145932142Y-92627478D02*
X145896428Y-92663192D01*
X145896428Y-92663192D02*
X145860714Y-92734621D01*
X145860714Y-92734621D02*
X145860714Y-92913192D01*
X145860714Y-92913192D02*
X145896428Y-92984621D01*
X145896428Y-92984621D02*
X145932142Y-93020335D01*
X145932142Y-93020335D02*
X146003571Y-93056050D01*
X146003571Y-93056050D02*
X146146428Y-93056050D01*
X146146428Y-93056050D02*
X146217857Y-93020335D01*
X146217857Y-93020335D02*
X146253571Y-92984621D01*
X146253571Y-92984621D02*
X146289285Y-92913192D01*
X150502767Y-111579544D02*
X150502767Y-111630052D01*
X150502767Y-111630052D02*
X150452260Y-111731067D01*
X150452260Y-111731067D02*
X150401752Y-111781575D01*
X150401752Y-111781575D02*
X150300737Y-111832082D01*
X150300737Y-111832082D02*
X150199722Y-111832082D01*
X150199722Y-111832082D02*
X150123960Y-111806828D01*
X150123960Y-111806828D02*
X149997691Y-111731067D01*
X149997691Y-111731067D02*
X149921930Y-111655306D01*
X149921930Y-111655306D02*
X149846168Y-111529037D01*
X149846168Y-111529037D02*
X149820914Y-111453275D01*
X149820914Y-111453275D02*
X149820914Y-111352260D01*
X149820914Y-111352260D02*
X149871422Y-111251245D01*
X149871422Y-111251245D02*
X149921930Y-111200737D01*
X149921930Y-111200737D02*
X150022945Y-111150229D01*
X150022945Y-111150229D02*
X150073452Y-111150229D01*
X150199722Y-110922945D02*
X150528021Y-110594645D01*
X150528021Y-110594645D02*
X150553275Y-110973453D01*
X150553275Y-110973453D02*
X150629036Y-110897691D01*
X150629036Y-110897691D02*
X150704798Y-110872437D01*
X150704798Y-110872437D02*
X150755305Y-110872437D01*
X150755305Y-110872437D02*
X150831067Y-110897691D01*
X150831067Y-110897691D02*
X150957336Y-111023960D01*
X150957336Y-111023960D02*
X150982590Y-111099722D01*
X150982590Y-111099722D02*
X150982590Y-111150229D01*
X150982590Y-111150229D02*
X150957336Y-111225991D01*
X150957336Y-111225991D02*
X150805813Y-111377514D01*
X150805813Y-111377514D02*
X150730052Y-111402767D01*
X150730052Y-111402767D02*
X150679544Y-111402767D01*
X150274999Y-93341764D02*
X150024999Y-92984621D01*
X149846428Y-93341764D02*
X149846428Y-92591764D01*
X149846428Y-92591764D02*
X150132142Y-92591764D01*
X150132142Y-92591764D02*
X150203571Y-92627478D01*
X150203571Y-92627478D02*
X150239285Y-92663192D01*
X150239285Y-92663192D02*
X150274999Y-92734621D01*
X150274999Y-92734621D02*
X150274999Y-92841764D01*
X150274999Y-92841764D02*
X150239285Y-92913192D01*
X150239285Y-92913192D02*
X150203571Y-92948907D01*
X150203571Y-92948907D02*
X150132142Y-92984621D01*
X150132142Y-92984621D02*
X149846428Y-92984621D01*
X150524999Y-92591764D02*
X151024999Y-92591764D01*
X151024999Y-92591764D02*
X150703571Y-93341764D01*
X147174999Y-112270335D02*
X147139285Y-112306050D01*
X147139285Y-112306050D02*
X147032142Y-112341764D01*
X147032142Y-112341764D02*
X146960714Y-112341764D01*
X146960714Y-112341764D02*
X146853571Y-112306050D01*
X146853571Y-112306050D02*
X146782142Y-112234621D01*
X146782142Y-112234621D02*
X146746428Y-112163192D01*
X146746428Y-112163192D02*
X146710714Y-112020335D01*
X146710714Y-112020335D02*
X146710714Y-111913192D01*
X146710714Y-111913192D02*
X146746428Y-111770335D01*
X146746428Y-111770335D02*
X146782142Y-111698907D01*
X146782142Y-111698907D02*
X146853571Y-111627478D01*
X146853571Y-111627478D02*
X146960714Y-111591764D01*
X146960714Y-111591764D02*
X147032142Y-111591764D01*
X147032142Y-111591764D02*
X147139285Y-111627478D01*
X147139285Y-111627478D02*
X147174999Y-111663192D01*
X147460714Y-111663192D02*
X147496428Y-111627478D01*
X147496428Y-111627478D02*
X147567857Y-111591764D01*
X147567857Y-111591764D02*
X147746428Y-111591764D01*
X147746428Y-111591764D02*
X147817857Y-111627478D01*
X147817857Y-111627478D02*
X147853571Y-111663192D01*
X147853571Y-111663192D02*
X147889285Y-111734621D01*
X147889285Y-111734621D02*
X147889285Y-111806050D01*
X147889285Y-111806050D02*
X147853571Y-111913192D01*
X147853571Y-111913192D02*
X147424999Y-112341764D01*
X147424999Y-112341764D02*
X147889285Y-112341764D01*
X142902767Y-97979544D02*
X142902767Y-98030052D01*
X142902767Y-98030052D02*
X142852260Y-98131067D01*
X142852260Y-98131067D02*
X142801752Y-98181575D01*
X142801752Y-98181575D02*
X142700737Y-98232082D01*
X142700737Y-98232082D02*
X142599722Y-98232082D01*
X142599722Y-98232082D02*
X142523960Y-98206828D01*
X142523960Y-98206828D02*
X142397691Y-98131067D01*
X142397691Y-98131067D02*
X142321930Y-98055306D01*
X142321930Y-98055306D02*
X142246168Y-97929037D01*
X142246168Y-97929037D02*
X142220914Y-97853275D01*
X142220914Y-97853275D02*
X142220914Y-97752260D01*
X142220914Y-97752260D02*
X142271422Y-97651245D01*
X142271422Y-97651245D02*
X142321930Y-97600737D01*
X142321930Y-97600737D02*
X142422945Y-97550229D01*
X142422945Y-97550229D02*
X142473452Y-97550229D01*
X142953275Y-97423960D02*
X142877513Y-97449214D01*
X142877513Y-97449214D02*
X142827006Y-97449214D01*
X142827006Y-97449214D02*
X142751244Y-97423960D01*
X142751244Y-97423960D02*
X142725991Y-97398706D01*
X142725991Y-97398706D02*
X142700737Y-97322945D01*
X142700737Y-97322945D02*
X142700737Y-97272437D01*
X142700737Y-97272437D02*
X142725991Y-97196676D01*
X142725991Y-97196676D02*
X142827006Y-97095661D01*
X142827006Y-97095661D02*
X142902767Y-97070407D01*
X142902767Y-97070407D02*
X142953275Y-97070407D01*
X142953275Y-97070407D02*
X143029036Y-97095661D01*
X143029036Y-97095661D02*
X143054290Y-97120915D01*
X143054290Y-97120915D02*
X143079544Y-97196676D01*
X143079544Y-97196676D02*
X143079544Y-97247184D01*
X143079544Y-97247184D02*
X143054290Y-97322945D01*
X143054290Y-97322945D02*
X142953275Y-97423960D01*
X142953275Y-97423960D02*
X142928021Y-97499722D01*
X142928021Y-97499722D02*
X142928021Y-97550229D01*
X142928021Y-97550229D02*
X142953275Y-97625991D01*
X142953275Y-97625991D02*
X143054290Y-97727006D01*
X143054290Y-97727006D02*
X143130052Y-97752260D01*
X143130052Y-97752260D02*
X143180559Y-97752260D01*
X143180559Y-97752260D02*
X143256321Y-97727006D01*
X143256321Y-97727006D02*
X143357336Y-97625991D01*
X143357336Y-97625991D02*
X143382590Y-97550229D01*
X143382590Y-97550229D02*
X143382590Y-97499722D01*
X143382590Y-97499722D02*
X143357336Y-97423960D01*
X143357336Y-97423960D02*
X143256321Y-97322945D01*
X143256321Y-97322945D02*
X143180559Y-97297691D01*
X143180559Y-97297691D02*
X143130052Y-97297691D01*
X143130052Y-97297691D02*
X143054290Y-97322945D01*
X158174999Y-122841764D02*
X157924999Y-122484621D01*
X157746428Y-122841764D02*
X157746428Y-122091764D01*
X157746428Y-122091764D02*
X158032142Y-122091764D01*
X158032142Y-122091764D02*
X158103571Y-122127478D01*
X158103571Y-122127478D02*
X158139285Y-122163192D01*
X158139285Y-122163192D02*
X158174999Y-122234621D01*
X158174999Y-122234621D02*
X158174999Y-122341764D01*
X158174999Y-122341764D02*
X158139285Y-122413192D01*
X158139285Y-122413192D02*
X158103571Y-122448907D01*
X158103571Y-122448907D02*
X158032142Y-122484621D01*
X158032142Y-122484621D02*
X157746428Y-122484621D01*
X158424999Y-122091764D02*
X158889285Y-122091764D01*
X158889285Y-122091764D02*
X158639285Y-122377478D01*
X158639285Y-122377478D02*
X158746428Y-122377478D01*
X158746428Y-122377478D02*
X158817857Y-122413192D01*
X158817857Y-122413192D02*
X158853571Y-122448907D01*
X158853571Y-122448907D02*
X158889285Y-122520335D01*
X158889285Y-122520335D02*
X158889285Y-122698907D01*
X158889285Y-122698907D02*
X158853571Y-122770335D01*
X158853571Y-122770335D02*
X158817857Y-122806050D01*
X158817857Y-122806050D02*
X158746428Y-122841764D01*
X158746428Y-122841764D02*
X158532142Y-122841764D01*
X158532142Y-122841764D02*
X158460714Y-122806050D01*
X158460714Y-122806050D02*
X158424999Y-122770335D01*
X146175000Y-119548907D02*
X145925000Y-119548907D01*
X145925000Y-119941764D02*
X145925000Y-119191764D01*
X145925000Y-119191764D02*
X146282143Y-119191764D01*
X146817857Y-119548907D02*
X146925000Y-119584621D01*
X146925000Y-119584621D02*
X146960714Y-119620335D01*
X146960714Y-119620335D02*
X146996428Y-119691764D01*
X146996428Y-119691764D02*
X146996428Y-119798907D01*
X146996428Y-119798907D02*
X146960714Y-119870335D01*
X146960714Y-119870335D02*
X146925000Y-119906050D01*
X146925000Y-119906050D02*
X146853571Y-119941764D01*
X146853571Y-119941764D02*
X146567857Y-119941764D01*
X146567857Y-119941764D02*
X146567857Y-119191764D01*
X146567857Y-119191764D02*
X146817857Y-119191764D01*
X146817857Y-119191764D02*
X146889286Y-119227478D01*
X146889286Y-119227478D02*
X146925000Y-119263192D01*
X146925000Y-119263192D02*
X146960714Y-119334621D01*
X146960714Y-119334621D02*
X146960714Y-119406050D01*
X146960714Y-119406050D02*
X146925000Y-119477478D01*
X146925000Y-119477478D02*
X146889286Y-119513192D01*
X146889286Y-119513192D02*
X146817857Y-119548907D01*
X146817857Y-119548907D02*
X146567857Y-119548907D01*
X147710714Y-119941764D02*
X147282143Y-119941764D01*
X147496428Y-119941764D02*
X147496428Y-119191764D01*
X147496428Y-119191764D02*
X147425000Y-119298907D01*
X147425000Y-119298907D02*
X147353571Y-119370335D01*
X147353571Y-119370335D02*
X147282143Y-119406050D01*
D11*
X152446754Y-96275750D02*
X151874334Y-96848170D01*
X151874334Y-96848170D02*
X151840662Y-96949185D01*
X151840662Y-96949185D02*
X151840662Y-97016529D01*
X151840662Y-97016529D02*
X151874334Y-97117544D01*
X151874334Y-97117544D02*
X152009021Y-97252231D01*
X152009021Y-97252231D02*
X152110036Y-97285903D01*
X152110036Y-97285903D02*
X152177380Y-97285903D01*
X152177380Y-97285903D02*
X152278395Y-97252231D01*
X152278395Y-97252231D02*
X152850815Y-96679811D01*
X153120189Y-96949185D02*
X153557921Y-97386918D01*
X153557921Y-97386918D02*
X153052845Y-97420590D01*
X153052845Y-97420590D02*
X153153860Y-97521605D01*
X153153860Y-97521605D02*
X153187532Y-97622620D01*
X153187532Y-97622620D02*
X153187532Y-97689964D01*
X153187532Y-97689964D02*
X153153860Y-97790979D01*
X153153860Y-97790979D02*
X152985502Y-97959338D01*
X152985502Y-97959338D02*
X152884486Y-97993010D01*
X152884486Y-97993010D02*
X152817143Y-97993010D01*
X152817143Y-97993010D02*
X152716128Y-97959338D01*
X152716128Y-97959338D02*
X152514097Y-97757307D01*
X152514097Y-97757307D02*
X152480425Y-97656292D01*
X152480425Y-97656292D02*
X152480425Y-97588949D01*
D12*
X146647557Y-108853102D02*
X147075188Y-109280734D01*
X145877820Y-108682050D02*
X146647557Y-108853102D01*
X146647557Y-108853102D02*
X146476504Y-108083366D01*
X148144266Y-108211656D02*
X147631108Y-108724813D01*
X147887687Y-108468235D02*
X146989661Y-107570209D01*
X146989661Y-107570209D02*
X147032425Y-107784025D01*
X147032425Y-107784025D02*
X147032425Y-107955077D01*
X147032425Y-107955077D02*
X146989661Y-108083366D01*
D10*
X150862499Y-90441764D02*
X150612499Y-90084621D01*
X150433928Y-90441764D02*
X150433928Y-89691764D01*
X150433928Y-89691764D02*
X150719642Y-89691764D01*
X150719642Y-89691764D02*
X150791071Y-89727478D01*
X150791071Y-89727478D02*
X150826785Y-89763192D01*
X150826785Y-89763192D02*
X150862499Y-89834621D01*
X150862499Y-89834621D02*
X150862499Y-89941764D01*
X150862499Y-89941764D02*
X150826785Y-90013192D01*
X150826785Y-90013192D02*
X150791071Y-90048907D01*
X150791071Y-90048907D02*
X150719642Y-90084621D01*
X150719642Y-90084621D02*
X150433928Y-90084621D01*
X151541071Y-89691764D02*
X151183928Y-89691764D01*
X151183928Y-89691764D02*
X151148214Y-90048907D01*
X151148214Y-90048907D02*
X151183928Y-90013192D01*
X151183928Y-90013192D02*
X151255357Y-89977478D01*
X151255357Y-89977478D02*
X151433928Y-89977478D01*
X151433928Y-89977478D02*
X151505357Y-90013192D01*
X151505357Y-90013192D02*
X151541071Y-90048907D01*
X151541071Y-90048907D02*
X151576785Y-90120335D01*
X151576785Y-90120335D02*
X151576785Y-90298907D01*
X151576785Y-90298907D02*
X151541071Y-90370335D01*
X151541071Y-90370335D02*
X151505357Y-90406050D01*
X151505357Y-90406050D02*
X151433928Y-90441764D01*
X151433928Y-90441764D02*
X151255357Y-90441764D01*
X151255357Y-90441764D02*
X151183928Y-90406050D01*
X151183928Y-90406050D02*
X151148214Y-90370335D01*
X158174999Y-124341764D02*
X157924999Y-123984621D01*
X157746428Y-124341764D02*
X157746428Y-123591764D01*
X157746428Y-123591764D02*
X158032142Y-123591764D01*
X158032142Y-123591764D02*
X158103571Y-123627478D01*
X158103571Y-123627478D02*
X158139285Y-123663192D01*
X158139285Y-123663192D02*
X158174999Y-123734621D01*
X158174999Y-123734621D02*
X158174999Y-123841764D01*
X158174999Y-123841764D02*
X158139285Y-123913192D01*
X158139285Y-123913192D02*
X158103571Y-123948907D01*
X158103571Y-123948907D02*
X158032142Y-123984621D01*
X158032142Y-123984621D02*
X157746428Y-123984621D01*
X158889285Y-124341764D02*
X158460714Y-124341764D01*
X158674999Y-124341764D02*
X158674999Y-123591764D01*
X158674999Y-123591764D02*
X158603571Y-123698907D01*
X158603571Y-123698907D02*
X158532142Y-123770335D01*
X158532142Y-123770335D02*
X158460714Y-123806050D01*
X145223011Y-106199788D02*
X145223011Y-106250296D01*
X145223011Y-106250296D02*
X145172504Y-106351311D01*
X145172504Y-106351311D02*
X145121996Y-106401819D01*
X145121996Y-106401819D02*
X145020981Y-106452326D01*
X145020981Y-106452326D02*
X144919966Y-106452326D01*
X144919966Y-106452326D02*
X144844204Y-106427072D01*
X144844204Y-106427072D02*
X144717935Y-106351311D01*
X144717935Y-106351311D02*
X144642174Y-106275550D01*
X144642174Y-106275550D02*
X144566412Y-106149281D01*
X144566412Y-106149281D02*
X144541158Y-106073519D01*
X144541158Y-106073519D02*
X144541158Y-105972504D01*
X144541158Y-105972504D02*
X144591666Y-105871489D01*
X144591666Y-105871489D02*
X144642174Y-105820981D01*
X144642174Y-105820981D02*
X144743189Y-105770473D01*
X144743189Y-105770473D02*
X144793696Y-105770473D01*
X145374534Y-105442174D02*
X145728088Y-105795727D01*
X145046235Y-105366412D02*
X145298773Y-105871489D01*
X145298773Y-105871489D02*
X145627072Y-105543189D01*
X150433928Y-87541764D02*
X150433928Y-86791764D01*
X150433928Y-86791764D02*
X150612499Y-86791764D01*
X150612499Y-86791764D02*
X150719642Y-86827478D01*
X150719642Y-86827478D02*
X150791071Y-86898907D01*
X150791071Y-86898907D02*
X150826785Y-86970335D01*
X150826785Y-86970335D02*
X150862499Y-87113192D01*
X150862499Y-87113192D02*
X150862499Y-87220335D01*
X150862499Y-87220335D02*
X150826785Y-87363192D01*
X150826785Y-87363192D02*
X150791071Y-87434621D01*
X150791071Y-87434621D02*
X150719642Y-87506050D01*
X150719642Y-87506050D02*
X150612499Y-87541764D01*
X150612499Y-87541764D02*
X150433928Y-87541764D01*
X151148214Y-86863192D02*
X151183928Y-86827478D01*
X151183928Y-86827478D02*
X151255357Y-86791764D01*
X151255357Y-86791764D02*
X151433928Y-86791764D01*
X151433928Y-86791764D02*
X151505357Y-86827478D01*
X151505357Y-86827478D02*
X151541071Y-86863192D01*
X151541071Y-86863192D02*
X151576785Y-86934621D01*
X151576785Y-86934621D02*
X151576785Y-87006050D01*
X151576785Y-87006050D02*
X151541071Y-87113192D01*
X151541071Y-87113192D02*
X151112499Y-87541764D01*
X151112499Y-87541764D02*
X151576785Y-87541764D01*
X143559264Y-104523047D02*
X143559264Y-104573555D01*
X143559264Y-104573555D02*
X143508757Y-104674570D01*
X143508757Y-104674570D02*
X143458249Y-104725078D01*
X143458249Y-104725078D02*
X143357234Y-104775585D01*
X143357234Y-104775585D02*
X143256219Y-104775585D01*
X143256219Y-104775585D02*
X143180457Y-104750331D01*
X143180457Y-104750331D02*
X143054188Y-104674570D01*
X143054188Y-104674570D02*
X142978427Y-104598809D01*
X142978427Y-104598809D02*
X142902665Y-104472540D01*
X142902665Y-104472540D02*
X142877411Y-104396778D01*
X142877411Y-104396778D02*
X142877411Y-104295763D01*
X142877411Y-104295763D02*
X142927919Y-104194748D01*
X142927919Y-104194748D02*
X142978427Y-104144240D01*
X142978427Y-104144240D02*
X143079442Y-104093732D01*
X143079442Y-104093732D02*
X143129949Y-104093732D01*
X143559264Y-103563402D02*
X143306726Y-103815940D01*
X143306726Y-103815940D02*
X143534010Y-104093732D01*
X143534010Y-104093732D02*
X143534010Y-104043225D01*
X143534010Y-104043225D02*
X143559264Y-103967463D01*
X143559264Y-103967463D02*
X143685533Y-103841194D01*
X143685533Y-103841194D02*
X143761295Y-103815940D01*
X143761295Y-103815940D02*
X143811802Y-103815940D01*
X143811802Y-103815940D02*
X143887564Y-103841194D01*
X143887564Y-103841194D02*
X144013833Y-103967463D01*
X144013833Y-103967463D02*
X144039087Y-104043225D01*
X144039087Y-104043225D02*
X144039087Y-104093732D01*
X144039087Y-104093732D02*
X144013833Y-104169494D01*
X144013833Y-104169494D02*
X143887564Y-104295763D01*
X143887564Y-104295763D02*
X143811802Y-104321017D01*
X143811802Y-104321017D02*
X143761295Y-104321017D01*
X146374999Y-118370335D02*
X146339285Y-118406050D01*
X146339285Y-118406050D02*
X146232142Y-118441764D01*
X146232142Y-118441764D02*
X146160714Y-118441764D01*
X146160714Y-118441764D02*
X146053571Y-118406050D01*
X146053571Y-118406050D02*
X145982142Y-118334621D01*
X145982142Y-118334621D02*
X145946428Y-118263192D01*
X145946428Y-118263192D02*
X145910714Y-118120335D01*
X145910714Y-118120335D02*
X145910714Y-118013192D01*
X145910714Y-118013192D02*
X145946428Y-117870335D01*
X145946428Y-117870335D02*
X145982142Y-117798907D01*
X145982142Y-117798907D02*
X146053571Y-117727478D01*
X146053571Y-117727478D02*
X146160714Y-117691764D01*
X146160714Y-117691764D02*
X146232142Y-117691764D01*
X146232142Y-117691764D02*
X146339285Y-117727478D01*
X146339285Y-117727478D02*
X146374999Y-117763192D01*
X147089285Y-118441764D02*
X146660714Y-118441764D01*
X146874999Y-118441764D02*
X146874999Y-117691764D01*
X146874999Y-117691764D02*
X146803571Y-117798907D01*
X146803571Y-117798907D02*
X146732142Y-117870335D01*
X146732142Y-117870335D02*
X146660714Y-117906050D01*
X143737500Y-122478907D02*
X143487500Y-122478907D01*
X143487500Y-122871764D02*
X143487500Y-122121764D01*
X143487500Y-122121764D02*
X143844643Y-122121764D01*
X144523214Y-122871764D02*
X144094643Y-122871764D01*
X144308928Y-122871764D02*
X144308928Y-122121764D01*
X144308928Y-122121764D02*
X144237500Y-122228907D01*
X144237500Y-122228907D02*
X144166071Y-122300335D01*
X144166071Y-122300335D02*
X144094643Y-122336050D01*
X158174999Y-121341764D02*
X157924999Y-120984621D01*
X157746428Y-121341764D02*
X157746428Y-120591764D01*
X157746428Y-120591764D02*
X158032142Y-120591764D01*
X158032142Y-120591764D02*
X158103571Y-120627478D01*
X158103571Y-120627478D02*
X158139285Y-120663192D01*
X158139285Y-120663192D02*
X158174999Y-120734621D01*
X158174999Y-120734621D02*
X158174999Y-120841764D01*
X158174999Y-120841764D02*
X158139285Y-120913192D01*
X158139285Y-120913192D02*
X158103571Y-120948907D01*
X158103571Y-120948907D02*
X158032142Y-120984621D01*
X158032142Y-120984621D02*
X157746428Y-120984621D01*
X158817857Y-120841764D02*
X158817857Y-121341764D01*
X158639285Y-120556050D02*
X158460714Y-121091764D01*
X158460714Y-121091764D02*
X158924999Y-121091764D01*
X143511764Y-79964999D02*
X144047478Y-79964999D01*
X144047478Y-79964999D02*
X144154621Y-80000714D01*
X144154621Y-80000714D02*
X144226050Y-80072142D01*
X144226050Y-80072142D02*
X144261764Y-80179285D01*
X144261764Y-80179285D02*
X144261764Y-80250714D01*
X143761764Y-79286428D02*
X144261764Y-79286428D01*
X143476050Y-79464999D02*
X144011764Y-79643570D01*
X144011764Y-79643570D02*
X144011764Y-79179285D01*
X153262499Y-87511764D02*
X153012499Y-87154621D01*
X152833928Y-87511764D02*
X152833928Y-86761764D01*
X152833928Y-86761764D02*
X153119642Y-86761764D01*
X153119642Y-86761764D02*
X153191071Y-86797478D01*
X153191071Y-86797478D02*
X153226785Y-86833192D01*
X153226785Y-86833192D02*
X153262499Y-86904621D01*
X153262499Y-86904621D02*
X153262499Y-87011764D01*
X153262499Y-87011764D02*
X153226785Y-87083192D01*
X153226785Y-87083192D02*
X153191071Y-87118907D01*
X153191071Y-87118907D02*
X153119642Y-87154621D01*
X153119642Y-87154621D02*
X152833928Y-87154621D01*
X153905357Y-86761764D02*
X153762499Y-86761764D01*
X153762499Y-86761764D02*
X153691071Y-86797478D01*
X153691071Y-86797478D02*
X153655357Y-86833192D01*
X153655357Y-86833192D02*
X153583928Y-86940335D01*
X153583928Y-86940335D02*
X153548214Y-87083192D01*
X153548214Y-87083192D02*
X153548214Y-87368907D01*
X153548214Y-87368907D02*
X153583928Y-87440335D01*
X153583928Y-87440335D02*
X153619642Y-87476050D01*
X153619642Y-87476050D02*
X153691071Y-87511764D01*
X153691071Y-87511764D02*
X153833928Y-87511764D01*
X153833928Y-87511764D02*
X153905357Y-87476050D01*
X153905357Y-87476050D02*
X153941071Y-87440335D01*
X153941071Y-87440335D02*
X153976785Y-87368907D01*
X153976785Y-87368907D02*
X153976785Y-87190335D01*
X153976785Y-87190335D02*
X153941071Y-87118907D01*
X153941071Y-87118907D02*
X153905357Y-87083192D01*
X153905357Y-87083192D02*
X153833928Y-87047478D01*
X153833928Y-87047478D02*
X153691071Y-87047478D01*
X153691071Y-87047478D02*
X153619642Y-87083192D01*
X153619642Y-87083192D02*
X153583928Y-87118907D01*
X153583928Y-87118907D02*
X153548214Y-87190335D01*
X144902767Y-97879544D02*
X144902767Y-97930052D01*
X144902767Y-97930052D02*
X144852260Y-98031067D01*
X144852260Y-98031067D02*
X144801752Y-98081575D01*
X144801752Y-98081575D02*
X144700737Y-98132082D01*
X144700737Y-98132082D02*
X144599722Y-98132082D01*
X144599722Y-98132082D02*
X144523960Y-98106828D01*
X144523960Y-98106828D02*
X144397691Y-98031067D01*
X144397691Y-98031067D02*
X144321930Y-97955306D01*
X144321930Y-97955306D02*
X144246168Y-97829037D01*
X144246168Y-97829037D02*
X144220914Y-97753275D01*
X144220914Y-97753275D02*
X144220914Y-97652260D01*
X144220914Y-97652260D02*
X144271422Y-97551245D01*
X144271422Y-97551245D02*
X144321930Y-97500737D01*
X144321930Y-97500737D02*
X144422945Y-97450229D01*
X144422945Y-97450229D02*
X144473452Y-97450229D01*
X144599722Y-97222945D02*
X144953275Y-96869392D01*
X144953275Y-96869392D02*
X145256321Y-97627006D01*
X144906050Y-89646428D02*
X144941764Y-89539286D01*
X144941764Y-89539286D02*
X144941764Y-89360714D01*
X144941764Y-89360714D02*
X144906050Y-89289286D01*
X144906050Y-89289286D02*
X144870335Y-89253571D01*
X144870335Y-89253571D02*
X144798907Y-89217857D01*
X144798907Y-89217857D02*
X144727478Y-89217857D01*
X144727478Y-89217857D02*
X144656050Y-89253571D01*
X144656050Y-89253571D02*
X144620335Y-89289286D01*
X144620335Y-89289286D02*
X144584621Y-89360714D01*
X144584621Y-89360714D02*
X144548907Y-89503571D01*
X144548907Y-89503571D02*
X144513192Y-89575000D01*
X144513192Y-89575000D02*
X144477478Y-89610714D01*
X144477478Y-89610714D02*
X144406050Y-89646428D01*
X144406050Y-89646428D02*
X144334621Y-89646428D01*
X144334621Y-89646428D02*
X144263192Y-89610714D01*
X144263192Y-89610714D02*
X144227478Y-89575000D01*
X144227478Y-89575000D02*
X144191764Y-89503571D01*
X144191764Y-89503571D02*
X144191764Y-89325000D01*
X144191764Y-89325000D02*
X144227478Y-89217857D01*
X144941764Y-88503571D02*
X144941764Y-88932142D01*
X144941764Y-88717857D02*
X144191764Y-88717857D01*
X144191764Y-88717857D02*
X144298907Y-88789285D01*
X144298907Y-88789285D02*
X144370335Y-88860714D01*
X144370335Y-88860714D02*
X144406050Y-88932142D01*
X145901839Y-101293084D02*
X145649301Y-101545623D01*
X146002854Y-100838516D02*
X145901839Y-101293084D01*
X145901839Y-101293084D02*
X146356408Y-101192069D01*
X146457423Y-101394100D02*
X146507930Y-101394100D01*
X146507930Y-101394100D02*
X146583692Y-101419353D01*
X146583692Y-101419353D02*
X146709961Y-101545622D01*
X146709961Y-101545622D02*
X146735215Y-101621384D01*
X146735215Y-101621384D02*
X146735215Y-101671891D01*
X146735215Y-101671891D02*
X146709961Y-101747653D01*
X146709961Y-101747653D02*
X146659453Y-101798161D01*
X146659453Y-101798161D02*
X146558438Y-101848668D01*
X146558438Y-101848668D02*
X145952346Y-101848668D01*
X145952346Y-101848668D02*
X146280646Y-102176968D01*
X147002767Y-97979544D02*
X147002767Y-98030052D01*
X147002767Y-98030052D02*
X146952260Y-98131067D01*
X146952260Y-98131067D02*
X146901752Y-98181575D01*
X146901752Y-98181575D02*
X146800737Y-98232082D01*
X146800737Y-98232082D02*
X146699722Y-98232082D01*
X146699722Y-98232082D02*
X146623960Y-98206828D01*
X146623960Y-98206828D02*
X146497691Y-98131067D01*
X146497691Y-98131067D02*
X146421930Y-98055306D01*
X146421930Y-98055306D02*
X146346168Y-97929037D01*
X146346168Y-97929037D02*
X146320914Y-97853275D01*
X146320914Y-97853275D02*
X146320914Y-97752260D01*
X146320914Y-97752260D02*
X146371422Y-97651245D01*
X146371422Y-97651245D02*
X146421930Y-97600737D01*
X146421930Y-97600737D02*
X146522945Y-97550229D01*
X146522945Y-97550229D02*
X146573452Y-97550229D01*
X146977513Y-97045153D02*
X146876498Y-97146168D01*
X146876498Y-97146168D02*
X146851244Y-97221930D01*
X146851244Y-97221930D02*
X146851244Y-97272437D01*
X146851244Y-97272437D02*
X146876498Y-97398706D01*
X146876498Y-97398706D02*
X146952260Y-97524976D01*
X146952260Y-97524976D02*
X147154290Y-97727006D01*
X147154290Y-97727006D02*
X147230052Y-97752260D01*
X147230052Y-97752260D02*
X147280559Y-97752260D01*
X147280559Y-97752260D02*
X147356321Y-97727006D01*
X147356321Y-97727006D02*
X147457336Y-97625991D01*
X147457336Y-97625991D02*
X147482590Y-97550229D01*
X147482590Y-97550229D02*
X147482590Y-97499722D01*
X147482590Y-97499722D02*
X147457336Y-97423960D01*
X147457336Y-97423960D02*
X147331067Y-97297691D01*
X147331067Y-97297691D02*
X147255305Y-97272437D01*
X147255305Y-97272437D02*
X147204798Y-97272437D01*
X147204798Y-97272437D02*
X147129036Y-97297691D01*
X147129036Y-97297691D02*
X147028021Y-97398706D01*
X147028021Y-97398706D02*
X147002767Y-97474468D01*
X147002767Y-97474468D02*
X147002767Y-97524976D01*
X147002767Y-97524976D02*
X147028021Y-97600737D01*
X151641764Y-118071428D02*
X152248907Y-118071428D01*
X152248907Y-118071428D02*
X152320335Y-118035714D01*
X152320335Y-118035714D02*
X152356050Y-118000000D01*
X152356050Y-118000000D02*
X152391764Y-117928571D01*
X152391764Y-117928571D02*
X152391764Y-117785714D01*
X152391764Y-117785714D02*
X152356050Y-117714285D01*
X152356050Y-117714285D02*
X152320335Y-117678571D01*
X152320335Y-117678571D02*
X152248907Y-117642857D01*
X152248907Y-117642857D02*
X151641764Y-117642857D01*
X152391764Y-116892857D02*
X152391764Y-117321428D01*
X152391764Y-117107143D02*
X151641764Y-117107143D01*
X151641764Y-117107143D02*
X151748907Y-117178571D01*
X151748907Y-117178571D02*
X151820335Y-117250000D01*
X151820335Y-117250000D02*
X151856050Y-117321428D01*
X150217856Y-94770335D02*
X150182142Y-94806050D01*
X150182142Y-94806050D02*
X150074999Y-94841764D01*
X150074999Y-94841764D02*
X150003571Y-94841764D01*
X150003571Y-94841764D02*
X149896428Y-94806050D01*
X149896428Y-94806050D02*
X149824999Y-94734621D01*
X149824999Y-94734621D02*
X149789285Y-94663192D01*
X149789285Y-94663192D02*
X149753571Y-94520335D01*
X149753571Y-94520335D02*
X149753571Y-94413192D01*
X149753571Y-94413192D02*
X149789285Y-94270335D01*
X149789285Y-94270335D02*
X149824999Y-94198907D01*
X149824999Y-94198907D02*
X149896428Y-94127478D01*
X149896428Y-94127478D02*
X150003571Y-94091764D01*
X150003571Y-94091764D02*
X150074999Y-94091764D01*
X150074999Y-94091764D02*
X150182142Y-94127478D01*
X150182142Y-94127478D02*
X150217856Y-94163192D01*
X150932142Y-94841764D02*
X150503571Y-94841764D01*
X150717856Y-94841764D02*
X150717856Y-94091764D01*
X150717856Y-94091764D02*
X150646428Y-94198907D01*
X150646428Y-94198907D02*
X150574999Y-94270335D01*
X150574999Y-94270335D02*
X150503571Y-94306050D01*
X151396428Y-94091764D02*
X151467857Y-94091764D01*
X151467857Y-94091764D02*
X151539285Y-94127478D01*
X151539285Y-94127478D02*
X151575000Y-94163192D01*
X151575000Y-94163192D02*
X151610714Y-94234621D01*
X151610714Y-94234621D02*
X151646428Y-94377478D01*
X151646428Y-94377478D02*
X151646428Y-94556050D01*
X151646428Y-94556050D02*
X151610714Y-94698907D01*
X151610714Y-94698907D02*
X151575000Y-94770335D01*
X151575000Y-94770335D02*
X151539285Y-94806050D01*
X151539285Y-94806050D02*
X151467857Y-94841764D01*
X151467857Y-94841764D02*
X151396428Y-94841764D01*
X151396428Y-94841764D02*
X151325000Y-94806050D01*
X151325000Y-94806050D02*
X151289285Y-94770335D01*
X151289285Y-94770335D02*
X151253571Y-94698907D01*
X151253571Y-94698907D02*
X151217857Y-94556050D01*
X151217857Y-94556050D02*
X151217857Y-94377478D01*
X151217857Y-94377478D02*
X151253571Y-94234621D01*
X151253571Y-94234621D02*
X151289285Y-94163192D01*
X151289285Y-94163192D02*
X151325000Y-94127478D01*
X151325000Y-94127478D02*
X151396428Y-94091764D01*
X145591764Y-115471428D02*
X146198907Y-115471428D01*
X146198907Y-115471428D02*
X146270335Y-115435714D01*
X146270335Y-115435714D02*
X146306050Y-115400000D01*
X146306050Y-115400000D02*
X146341764Y-115328571D01*
X146341764Y-115328571D02*
X146341764Y-115185714D01*
X146341764Y-115185714D02*
X146306050Y-115114285D01*
X146306050Y-115114285D02*
X146270335Y-115078571D01*
X146270335Y-115078571D02*
X146198907Y-115042857D01*
X146198907Y-115042857D02*
X145591764Y-115042857D01*
X145663192Y-114721428D02*
X145627478Y-114685714D01*
X145627478Y-114685714D02*
X145591764Y-114614286D01*
X145591764Y-114614286D02*
X145591764Y-114435714D01*
X145591764Y-114435714D02*
X145627478Y-114364286D01*
X145627478Y-114364286D02*
X145663192Y-114328571D01*
X145663192Y-114328571D02*
X145734621Y-114292857D01*
X145734621Y-114292857D02*
X145806050Y-114292857D01*
X145806050Y-114292857D02*
X145913192Y-114328571D01*
X145913192Y-114328571D02*
X146341764Y-114757143D01*
X146341764Y-114757143D02*
X146341764Y-114292857D01*
X158174999Y-125841764D02*
X157924999Y-125484621D01*
X157746428Y-125841764D02*
X157746428Y-125091764D01*
X157746428Y-125091764D02*
X158032142Y-125091764D01*
X158032142Y-125091764D02*
X158103571Y-125127478D01*
X158103571Y-125127478D02*
X158139285Y-125163192D01*
X158139285Y-125163192D02*
X158174999Y-125234621D01*
X158174999Y-125234621D02*
X158174999Y-125341764D01*
X158174999Y-125341764D02*
X158139285Y-125413192D01*
X158139285Y-125413192D02*
X158103571Y-125448907D01*
X158103571Y-125448907D02*
X158032142Y-125484621D01*
X158032142Y-125484621D02*
X157746428Y-125484621D01*
X158460714Y-125163192D02*
X158496428Y-125127478D01*
X158496428Y-125127478D02*
X158567857Y-125091764D01*
X158567857Y-125091764D02*
X158746428Y-125091764D01*
X158746428Y-125091764D02*
X158817857Y-125127478D01*
X158817857Y-125127478D02*
X158853571Y-125163192D01*
X158853571Y-125163192D02*
X158889285Y-125234621D01*
X158889285Y-125234621D02*
X158889285Y-125306050D01*
X158889285Y-125306050D02*
X158853571Y-125413192D01*
X158853571Y-125413192D02*
X158424999Y-125841764D01*
X158424999Y-125841764D02*
X158889285Y-125841764D01*
X157746428Y-119841764D02*
X157746428Y-119091764D01*
X157746428Y-119091764D02*
X157924999Y-119091764D01*
X157924999Y-119091764D02*
X158032142Y-119127478D01*
X158032142Y-119127478D02*
X158103571Y-119198907D01*
X158103571Y-119198907D02*
X158139285Y-119270335D01*
X158139285Y-119270335D02*
X158174999Y-119413192D01*
X158174999Y-119413192D02*
X158174999Y-119520335D01*
X158174999Y-119520335D02*
X158139285Y-119663192D01*
X158139285Y-119663192D02*
X158103571Y-119734621D01*
X158103571Y-119734621D02*
X158032142Y-119806050D01*
X158032142Y-119806050D02*
X157924999Y-119841764D01*
X157924999Y-119841764D02*
X157746428Y-119841764D01*
X158889285Y-119841764D02*
X158460714Y-119841764D01*
X158674999Y-119841764D02*
X158674999Y-119091764D01*
X158674999Y-119091764D02*
X158603571Y-119198907D01*
X158603571Y-119198907D02*
X158532142Y-119270335D01*
X158532142Y-119270335D02*
X158460714Y-119306050D01*
D13*
%TO.C,J1*%
X146100000Y-122037500D02*
X146550000Y-122037500D01*
X146100000Y-123887500D02*
X146100000Y-122037500D01*
X146100000Y-126437500D02*
X146100000Y-126187500D01*
X148300000Y-121487500D02*
X148300000Y-121937500D01*
X148300000Y-121487500D02*
X148750000Y-121487500D01*
X153900000Y-122037500D02*
X153450000Y-122037500D01*
X153900000Y-123887500D02*
X153900000Y-122037500D01*
X153900000Y-126437500D02*
X153900000Y-126187500D01*
D14*
%TO.C,S2*%
X146050000Y-90600000D02*
X146050000Y-87600000D01*
D10*
X147300000Y-86499999D02*
X147300000Y-86499999D01*
X147300000Y-86600000D02*
X147300000Y-86600000D01*
D14*
X148550000Y-90600000D02*
X148550000Y-87600000D01*
D10*
X147300000Y-86499999D02*
G75*
G02*
X147300000Y-86600001I0J-50001D01*
G01*
X147300000Y-86600000D02*
G75*
G02*
X147300000Y-86499998I1J50001D01*
G01*
D14*
%TO.C,S3*%
X155350000Y-113975000D02*
X155350000Y-116975000D01*
D10*
X156600000Y-117975000D02*
X156600000Y-117975000D01*
X156600000Y-118075000D02*
X156600000Y-118075000D01*
D14*
X157850000Y-113975000D02*
X157850000Y-116975000D01*
D10*
X156600000Y-117975000D02*
G75*
G02*
X156600000Y-118075000I0J-50000D01*
G01*
X156600000Y-118075000D02*
G75*
G02*
X156600000Y-117975000I0J50000D01*
G01*
D13*
%TO.C,C11*%
X155940580Y-111130000D02*
X155659420Y-111130000D01*
X155940580Y-112150000D02*
X155659420Y-112150000D01*
%TO.C,C9*%
X143334420Y-92490000D02*
X143615580Y-92490000D01*
X143334420Y-93510000D02*
X143615580Y-93510000D01*
%TO.C,C3*%
X148939970Y-110038781D02*
X149138781Y-109839970D01*
X149661219Y-110760030D02*
X149860030Y-110561219D01*
%TO.C,R7*%
X147862742Y-92477500D02*
X148337258Y-92477500D01*
X147862742Y-93522500D02*
X148337258Y-93522500D01*
%TO.C,C2*%
X143459419Y-111490000D02*
X143740581Y-111490000D01*
X143459419Y-112510000D02*
X143740581Y-112510000D01*
%TO.C,C8*%
X140639970Y-99138781D02*
X140838781Y-98939970D01*
X141361219Y-99860030D02*
X141560030Y-99661219D01*
%TO.C,R3*%
X156424758Y-121958750D02*
X155950242Y-121958750D01*
X156424758Y-123003750D02*
X155950242Y-123003750D01*
%TO.C,FB1*%
X143812221Y-119090000D02*
X144137779Y-119090000D01*
X143812221Y-120110000D02*
X144137779Y-120110000D01*
%TO.C,U3*%
X146644778Y-99664124D02*
X146521035Y-99787868D01*
X146644778Y-100335876D02*
X146478608Y-100169706D01*
X149664124Y-96644778D02*
X150000000Y-96308903D01*
X150000000Y-96308903D02*
X150335876Y-96644778D01*
X150000000Y-103691097D02*
X149664124Y-103355222D01*
X150335876Y-103355222D02*
X150000000Y-103691097D01*
X153355222Y-100335876D02*
X153691097Y-100000000D01*
X153691097Y-100000000D02*
X153355222Y-99664124D01*
X146308903Y-100000000D02*
X145905852Y-99936360D01*
X146245263Y-99596949D01*
X146308903Y-100000000D01*
G36*
X146308903Y-100000000D02*
G01*
X145905852Y-99936360D01*
X146245263Y-99596949D01*
X146308903Y-100000000D01*
G37*
D14*
%TO.C,Y1*%
X144500862Y-108836396D02*
X146763604Y-111099138D01*
X146159735Y-107177524D02*
X146377524Y-106959735D01*
X148422476Y-109440265D02*
X148640265Y-109222476D01*
X150299138Y-107563604D02*
X148036396Y-105300862D01*
X147979041Y-110579414D02*
G75*
G02*
X147905661Y-110579414I-36690J0D01*
G01*
X147905661Y-110579414D02*
G75*
G02*
X147979041Y-110579414I36690J0D01*
G01*
D13*
%TO.C,R5*%
X153624758Y-89577500D02*
X153150242Y-89577500D01*
X153624758Y-90622500D02*
X153150242Y-90622500D01*
%TO.C,R1*%
X155950242Y-123427500D02*
X156424758Y-123427500D01*
X155950242Y-124472500D02*
X156424758Y-124472500D01*
%TO.C,C4*%
X144121693Y-104769190D02*
X143969190Y-104921693D01*
X144630810Y-105278307D02*
X144478307Y-105430810D01*
%TO.C,D2*%
X151902500Y-86365000D02*
X151902500Y-87835000D01*
X151902500Y-87835000D02*
X154187500Y-87835000D01*
X154187500Y-86365000D02*
X151902500Y-86365000D01*
%TO.C,C5*%
X142321693Y-103069190D02*
X142169190Y-103221693D01*
X142830810Y-103578307D02*
X142678307Y-103730810D01*
%TO.C,R8*%
X155562742Y-109677500D02*
X156037258Y-109677500D01*
X155562742Y-110722500D02*
X156037258Y-110722500D01*
%TO.C,C1*%
X144115581Y-117590000D02*
X143834419Y-117590000D01*
X144115581Y-118610000D02*
X143834419Y-118610000D01*
%TO.C,F1*%
X144150279Y-120590000D02*
X143824721Y-120590000D01*
X144150279Y-121610000D02*
X143824721Y-121610000D01*
%TO.C,R4*%
X155950242Y-120458750D02*
X156424758Y-120458750D01*
X155950242Y-121503750D02*
X156424758Y-121503750D01*
%TO.C,J4*%
X144860000Y-80000000D02*
X144860000Y-82660000D01*
X144860000Y-82660000D02*
X155140000Y-82660000D01*
X144920000Y-85370000D02*
X144920000Y-84100000D01*
X145810000Y-74000000D02*
X146570000Y-74000000D01*
X145810000Y-80000000D02*
X145810000Y-74000000D01*
X145810000Y-82990000D02*
X145810000Y-82660000D01*
X145870000Y-80000000D02*
X145870000Y-74000000D01*
X145990000Y-80000000D02*
X145990000Y-74000000D01*
X146110000Y-80000000D02*
X146110000Y-74000000D01*
X146190000Y-85370000D02*
X144920000Y-85370000D01*
X146230000Y-80000000D02*
X146230000Y-74000000D01*
X146350000Y-80000000D02*
X146350000Y-74000000D01*
X146470000Y-80000000D02*
X146470000Y-74000000D01*
X146570000Y-74000000D02*
X146570000Y-80000000D01*
X146570000Y-82990000D02*
X146570000Y-82660000D01*
X147460000Y-82660000D02*
X147460000Y-80000000D01*
X148350000Y-74000000D02*
X149110000Y-74000000D01*
X148350000Y-80000000D02*
X148350000Y-74000000D01*
X148350000Y-83057071D02*
X148350000Y-82660000D01*
X149110000Y-74000000D02*
X149110000Y-80000000D01*
X149110000Y-83057071D02*
X149110000Y-82660000D01*
X150000000Y-82660000D02*
X150000000Y-80000000D01*
X150890000Y-74000000D02*
X151650000Y-74000000D01*
X150890000Y-80000000D02*
X150890000Y-74000000D01*
X150890000Y-83057071D02*
X150890000Y-82660000D01*
X151650000Y-74000000D02*
X151650000Y-80000000D01*
X151650000Y-83057071D02*
X151650000Y-82660000D01*
X152540000Y-82660000D02*
X152540000Y-80000000D01*
X153430000Y-74000000D02*
X154190000Y-74000000D01*
X153430000Y-80000000D02*
X153430000Y-74000000D01*
X153430000Y-83057071D02*
X153430000Y-82660000D01*
X154190000Y-74000000D02*
X154190000Y-80000000D01*
X154190000Y-83057071D02*
X154190000Y-82660000D01*
X155140000Y-80000000D02*
X144860000Y-80000000D01*
X155140000Y-82660000D02*
X155140000Y-80000000D01*
%TO.C,R6*%
X153150242Y-88077500D02*
X153624758Y-88077500D01*
X153150242Y-89122500D02*
X153624758Y-89122500D01*
%TO.C,C7*%
X142639970Y-99138781D02*
X142838781Y-98939970D01*
X143361219Y-99860030D02*
X143560030Y-99661219D01*
D14*
%TO.C,S1*%
X141450000Y-90575000D02*
X141450000Y-87575000D01*
D10*
X142700000Y-86474999D02*
X142700000Y-86474999D01*
X142700000Y-86575000D02*
X142700000Y-86575000D01*
D14*
X143950000Y-90575000D02*
X143950000Y-87575000D01*
D10*
X142700000Y-86474999D02*
G75*
G02*
X142700000Y-86575001I0J-50001D01*
G01*
X142700000Y-86575000D02*
G75*
G02*
X142700000Y-86474998I1J50001D01*
G01*
%TO.C,Y2*%
X143986827Y-103147487D02*
X144552513Y-103713173D01*
X145047487Y-102086827D02*
X145613173Y-102652513D01*
D13*
%TO.C,C6*%
X144639970Y-99138781D02*
X144838781Y-98939970D01*
X145361219Y-99860030D02*
X145560030Y-99661219D01*
%TO.C,U1*%
X148089999Y-117500000D02*
X148090000Y-116700000D01*
X148089999Y-117500000D02*
X148090000Y-118300000D01*
X151210001Y-117500000D02*
X151210000Y-116700000D01*
X151210001Y-117500000D02*
X151210000Y-118300000D01*
X151490000Y-116440000D02*
X151160000Y-116200000D01*
X151490000Y-115960000D01*
X151490000Y-116440000D01*
G36*
X151490000Y-116440000D02*
G01*
X151160000Y-116200000D01*
X151490000Y-115960000D01*
X151490000Y-116440000D01*
G37*
D15*
%TO.C,G\u002A\u002A\u002A*%
G36*
X156492923Y-103754423D02*
G01*
X156488038Y-103759307D01*
X156483154Y-103754423D01*
X156488038Y-103749538D01*
X156492923Y-103754423D01*
G37*
G36*
X154233585Y-102043790D02*
G01*
X154230671Y-102048230D01*
X154220762Y-102048921D01*
X154210338Y-102046535D01*
X154214860Y-102043018D01*
X154230128Y-102041854D01*
X154233585Y-102043790D01*
G37*
G36*
X154685615Y-107910947D02*
G01*
X154685615Y-108604846D01*
X154559753Y-108604846D01*
X154433892Y-108604846D01*
X154427226Y-108250711D01*
X154425620Y-108148636D01*
X154424366Y-108034543D01*
X154423493Y-107914484D01*
X154423034Y-107794511D01*
X154423020Y-107680677D01*
X154423482Y-107579033D01*
X154423645Y-107559538D01*
X154426730Y-107222500D01*
X154556173Y-107219774D01*
X154685615Y-107217048D01*
X154685615Y-107910947D01*
G37*
G36*
X156209615Y-107652633D02*
G01*
X156209348Y-107767926D01*
X156208565Y-107871311D01*
X156207296Y-107961457D01*
X156205569Y-108037033D01*
X156203412Y-108096707D01*
X156200855Y-108139149D01*
X156198753Y-108158474D01*
X156173778Y-108263182D01*
X156133602Y-108356111D01*
X156079167Y-108436490D01*
X156011415Y-108503549D01*
X155931288Y-108556515D01*
X155839728Y-108594618D01*
X155737677Y-108617085D01*
X155631200Y-108623235D01*
X155585521Y-108621638D01*
X155540323Y-108618493D01*
X155504618Y-108614446D01*
X155501538Y-108613954D01*
X155405219Y-108589264D01*
X155318413Y-108549698D01*
X155242907Y-108496631D01*
X155180486Y-108431437D01*
X155132938Y-108355490D01*
X155116779Y-108317933D01*
X155108163Y-108292413D01*
X155100842Y-108264384D01*
X155094700Y-108232064D01*
X155089620Y-108193668D01*
X155085487Y-108147411D01*
X155082185Y-108091509D01*
X155079597Y-108024177D01*
X155077609Y-107943631D01*
X155076102Y-107848088D01*
X155074963Y-107735761D01*
X155074456Y-107667000D01*
X155071500Y-107222500D01*
X155200346Y-107219778D01*
X155329193Y-107217056D01*
X155332539Y-107688701D01*
X155333376Y-107803948D01*
X155334284Y-107901419D01*
X155335516Y-107982875D01*
X155337324Y-108050077D01*
X155339959Y-108104788D01*
X155343673Y-108148768D01*
X155348720Y-108183779D01*
X155355350Y-108211582D01*
X155363815Y-108233939D01*
X155374369Y-108252611D01*
X155387262Y-108269360D01*
X155402747Y-108285946D01*
X155420515Y-108303579D01*
X155475357Y-108345230D01*
X155538283Y-108372419D01*
X155605907Y-108385489D01*
X155674839Y-108384782D01*
X155741693Y-108370639D01*
X155803082Y-108343403D01*
X155855618Y-108303415D01*
X155893087Y-108255881D01*
X155905401Y-108234257D01*
X155915748Y-108212843D01*
X155924304Y-108189767D01*
X155931244Y-108163161D01*
X155936745Y-108131152D01*
X155940981Y-108091872D01*
X155944130Y-108043450D01*
X155946367Y-107984017D01*
X155947867Y-107911700D01*
X155948806Y-107824632D01*
X155949360Y-107720940D01*
X155949568Y-107655048D01*
X155950730Y-107222500D01*
X156080173Y-107219774D01*
X156209615Y-107217048D01*
X156209615Y-107652633D01*
G37*
G36*
X152213682Y-107208340D02*
G01*
X152275467Y-107215701D01*
X152301923Y-107221172D01*
X152349808Y-107236417D01*
X152406067Y-107259316D01*
X152465230Y-107287144D01*
X152521831Y-107317178D01*
X152570401Y-107346695D01*
X152603929Y-107371605D01*
X152647051Y-107409269D01*
X152563494Y-107494153D01*
X152479937Y-107579037D01*
X152422671Y-107540797D01*
X152334267Y-107492327D01*
X152242074Y-107461649D01*
X152148238Y-107448984D01*
X152054904Y-107454554D01*
X151964217Y-107478581D01*
X151935563Y-107490450D01*
X151877084Y-107524594D01*
X151819723Y-107571593D01*
X151768943Y-107626124D01*
X151730206Y-107682868D01*
X151722439Y-107698050D01*
X151695377Y-107775958D01*
X151681688Y-107862627D01*
X151681311Y-107952627D01*
X151694188Y-108040529D01*
X151720259Y-108120904D01*
X151727211Y-108135923D01*
X151774830Y-108211821D01*
X151835781Y-108275436D01*
X151907405Y-108325712D01*
X151987042Y-108361593D01*
X152072034Y-108382023D01*
X152159721Y-108385946D01*
X152247445Y-108372305D01*
X152289105Y-108359089D01*
X152340345Y-108337174D01*
X152391561Y-108310581D01*
X152436327Y-108282910D01*
X152465813Y-108260041D01*
X152488050Y-108239497D01*
X152563165Y-108312268D01*
X152600851Y-108348970D01*
X152626507Y-108374569D01*
X152642290Y-108391400D01*
X152650352Y-108401798D01*
X152652849Y-108408098D01*
X152652843Y-108409461D01*
X152644483Y-108421401D01*
X152623307Y-108440902D01*
X152593070Y-108465175D01*
X152557528Y-108491430D01*
X152520435Y-108516878D01*
X152485548Y-108538729D01*
X152460380Y-108552417D01*
X152372413Y-108586394D01*
X152273428Y-108609669D01*
X152169157Y-108621596D01*
X152065333Y-108621529D01*
X151967690Y-108608823D01*
X151964884Y-108608233D01*
X151859307Y-108578561D01*
X151765934Y-108536155D01*
X151680694Y-108478744D01*
X151600014Y-108404577D01*
X151533038Y-108325935D01*
X151482167Y-108245198D01*
X151446166Y-108159120D01*
X151423805Y-108064457D01*
X151413852Y-107957962D01*
X151413067Y-107912110D01*
X151415486Y-107827133D01*
X151423169Y-107756238D01*
X151437085Y-107694447D01*
X151458202Y-107636783D01*
X151472557Y-107606366D01*
X151533407Y-107506213D01*
X151608304Y-107417360D01*
X151695125Y-107341526D01*
X151791753Y-107280427D01*
X151896065Y-107235781D01*
X151948894Y-107220540D01*
X152003986Y-107211219D01*
X152071065Y-107206086D01*
X152143256Y-107205131D01*
X152213682Y-107208340D01*
G37*
G36*
X153325250Y-107219815D02*
G01*
X153417643Y-107220799D01*
X153492780Y-107221789D01*
X153552941Y-107222928D01*
X153600407Y-107224358D01*
X153637460Y-107226223D01*
X153666381Y-107228663D01*
X153689451Y-107231822D01*
X153708951Y-107235842D01*
X153727162Y-107240866D01*
X153742884Y-107245883D01*
X153838638Y-107285967D01*
X153919087Y-107337808D01*
X153983871Y-107400928D01*
X154032632Y-107474851D01*
X154065012Y-107559102D01*
X154080652Y-107653203D01*
X154082141Y-107696307D01*
X154074449Y-107792286D01*
X154051566Y-107876308D01*
X154013212Y-107949043D01*
X153959110Y-108011157D01*
X153946038Y-108022649D01*
X153921128Y-108040196D01*
X153887094Y-108059898D01*
X153849492Y-108079033D01*
X153813875Y-108094880D01*
X153785799Y-108104718D01*
X153774634Y-108106607D01*
X153759988Y-108109887D01*
X153760918Y-108121002D01*
X153775916Y-108140178D01*
X153786433Y-108153059D01*
X153806966Y-108179376D01*
X153835826Y-108216917D01*
X153871321Y-108263474D01*
X153911764Y-108316837D01*
X153955463Y-108374798D01*
X153961326Y-108382596D01*
X154128358Y-108604846D01*
X153974698Y-108604265D01*
X153821038Y-108603685D01*
X153698923Y-108437127D01*
X153659123Y-108382724D01*
X153620189Y-108329293D01*
X153584724Y-108280419D01*
X153555328Y-108239688D01*
X153534603Y-108210685D01*
X153532846Y-108208197D01*
X153488884Y-108145825D01*
X153364327Y-108145759D01*
X153239769Y-108145692D01*
X153239769Y-108375269D01*
X153239769Y-108604846D01*
X153107884Y-108604846D01*
X152976000Y-108604846D01*
X152976000Y-107923351D01*
X153239769Y-107923351D01*
X153422942Y-107918783D01*
X153489858Y-107916866D01*
X153540796Y-107914648D01*
X153579316Y-107911733D01*
X153608978Y-107907729D01*
X153633341Y-107902240D01*
X153655967Y-107894873D01*
X153663089Y-107892183D01*
X153722769Y-107863528D01*
X153765176Y-107829035D01*
X153792343Y-107785870D01*
X153806302Y-107731198D01*
X153809252Y-107688388D01*
X153801808Y-107627432D01*
X153777067Y-107575116D01*
X153734809Y-107531122D01*
X153674811Y-107495137D01*
X153673785Y-107494661D01*
X153633741Y-107478473D01*
X153591456Y-107466705D01*
X153542998Y-107458787D01*
X153484437Y-107454147D01*
X153411843Y-107452218D01*
X153380089Y-107452077D01*
X153239769Y-107452077D01*
X153239769Y-107687714D01*
X153239769Y-107923351D01*
X152976000Y-107923351D01*
X152976000Y-107910568D01*
X152976000Y-107687714D01*
X152976000Y-107216290D01*
X153325250Y-107219815D01*
G37*
G36*
X157122345Y-107211325D02*
G01*
X157215643Y-107226776D01*
X157298469Y-107254111D01*
X157374089Y-107294455D01*
X157445767Y-107348935D01*
X157457042Y-107358997D01*
X157513807Y-107410659D01*
X157464742Y-107463118D01*
X157435935Y-107494750D01*
X157408703Y-107526042D01*
X157390055Y-107548821D01*
X157364435Y-107582065D01*
X157321890Y-107547556D01*
X157259055Y-107505139D01*
X157190508Y-107473661D01*
X157119058Y-107453111D01*
X157047514Y-107443476D01*
X156978682Y-107444746D01*
X156915373Y-107456908D01*
X156860393Y-107479949D01*
X156816553Y-107513860D01*
X156790874Y-107549789D01*
X156776270Y-107593157D01*
X156779448Y-107632856D01*
X156800664Y-107669087D01*
X156840176Y-107702048D01*
X156898240Y-107731940D01*
X156975113Y-107758962D01*
X157071052Y-107783315D01*
X157098615Y-107789125D01*
X157210557Y-107817963D01*
X157308216Y-107855812D01*
X157390676Y-107902102D01*
X157457019Y-107956264D01*
X157506329Y-108017729D01*
X157525868Y-108054465D01*
X157534360Y-108080400D01*
X157539685Y-108114912D01*
X157542325Y-108162141D01*
X157542826Y-108199929D01*
X157542672Y-108247889D01*
X157541121Y-108282192D01*
X157536994Y-108308717D01*
X157529115Y-108333343D01*
X157516306Y-108361951D01*
X157506262Y-108382464D01*
X157463664Y-108452064D01*
X157410428Y-108508785D01*
X157345355Y-108553233D01*
X157267240Y-108586015D01*
X157174884Y-108607739D01*
X157067083Y-108619010D01*
X157035115Y-108620342D01*
X156971377Y-108621363D01*
X156920611Y-108619789D01*
X156876370Y-108615162D01*
X156832205Y-108607024D01*
X156825077Y-108605448D01*
X156745311Y-108583894D01*
X156675387Y-108556246D01*
X156609352Y-108519475D01*
X156541250Y-108470555D01*
X156510404Y-108445494D01*
X156464384Y-108407052D01*
X156515288Y-108342035D01*
X156550976Y-108296363D01*
X156576457Y-108263989D01*
X156593767Y-108242983D01*
X156604936Y-108231412D01*
X156612000Y-108227345D01*
X156616991Y-108228852D01*
X156621943Y-108233999D01*
X156625267Y-108237564D01*
X156656443Y-108263512D01*
X156699767Y-108292650D01*
X156749154Y-108321146D01*
X156790123Y-108341441D01*
X156863390Y-108368086D01*
X156938530Y-108383569D01*
X157012872Y-108388390D01*
X157083745Y-108383050D01*
X157148479Y-108368048D01*
X157204402Y-108343885D01*
X157248843Y-108311062D01*
X157279131Y-108270077D01*
X157287680Y-108248269D01*
X157289224Y-108216957D01*
X157280745Y-108179451D01*
X157264777Y-108144528D01*
X157253296Y-108129143D01*
X157234719Y-108111851D01*
X157212057Y-108096702D01*
X157182461Y-108082564D01*
X157143077Y-108068311D01*
X157091055Y-108052812D01*
X157023542Y-108034938D01*
X157000923Y-108029215D01*
X156884734Y-107996851D01*
X156786928Y-107962276D01*
X156706390Y-107924522D01*
X156642004Y-107882624D01*
X156592654Y-107835615D01*
X156557225Y-107782527D01*
X156534601Y-107722396D01*
X156523667Y-107654253D01*
X156522230Y-107614455D01*
X156523904Y-107569654D01*
X156528321Y-107526174D01*
X156534579Y-107492521D01*
X156535550Y-107489079D01*
X156565764Y-107421503D01*
X156613032Y-107359437D01*
X156675184Y-107304918D01*
X156750046Y-107259980D01*
X156804753Y-107236779D01*
X156840783Y-107224300D01*
X156870976Y-107215859D01*
X156900881Y-107210662D01*
X156936048Y-107207913D01*
X156982027Y-107206819D01*
X157015313Y-107206630D01*
X157122345Y-107211325D01*
G37*
G36*
X155291514Y-101576637D02*
G01*
X155296674Y-101602279D01*
X155297802Y-101614961D01*
X155300413Y-101647919D01*
X155304483Y-101692106D01*
X155309249Y-101739336D01*
X155310575Y-101751730D01*
X155315530Y-101799441D01*
X155321280Y-101857981D01*
X155326988Y-101918711D01*
X155330422Y-101956884D01*
X155336268Y-102019021D01*
X155343515Y-102089662D01*
X155351024Y-102157937D01*
X155354952Y-102191346D01*
X155360471Y-102238960D01*
X155367224Y-102300565D01*
X155374635Y-102370699D01*
X155382125Y-102443899D01*
X155389024Y-102513730D01*
X155396115Y-102586042D01*
X155403733Y-102662030D01*
X155411279Y-102735825D01*
X155418153Y-102801557D01*
X155423467Y-102850769D01*
X155435298Y-102959718D01*
X155448093Y-103081212D01*
X155461150Y-103208330D01*
X155473760Y-103334151D01*
X155485219Y-103451753D01*
X155491209Y-103515077D01*
X155496433Y-103570480D01*
X155501662Y-103624550D01*
X155507189Y-103680087D01*
X155513304Y-103739893D01*
X155520298Y-103806770D01*
X155528463Y-103883519D01*
X155538090Y-103972942D01*
X155549471Y-104077841D01*
X155554676Y-104125654D01*
X155562411Y-104197881D01*
X155570791Y-104278215D01*
X155578993Y-104358630D01*
X155586194Y-104431101D01*
X155588775Y-104457807D01*
X155595390Y-104525981D01*
X155602880Y-104601494D01*
X155610398Y-104675922D01*
X155617101Y-104740840D01*
X155618158Y-104750884D01*
X155634840Y-104917396D01*
X155650975Y-105095183D01*
X155658187Y-105180730D01*
X155662129Y-105225344D01*
X155667210Y-105278400D01*
X155672379Y-105328924D01*
X155672724Y-105332154D01*
X155677559Y-105378859D01*
X155683220Y-105436062D01*
X155688828Y-105494793D01*
X155691626Y-105525096D01*
X155697122Y-105585596D01*
X155703354Y-105654254D01*
X155709296Y-105719771D01*
X155711574Y-105744904D01*
X155716052Y-105790721D01*
X155720536Y-105830468D01*
X155724456Y-105859418D01*
X155726887Y-105871904D01*
X155727520Y-105887096D01*
X155716319Y-105888498D01*
X155694594Y-105876779D01*
X155663652Y-105852607D01*
X155631378Y-105823057D01*
X155592918Y-105784413D01*
X155549633Y-105738559D01*
X155508993Y-105693473D01*
X155496444Y-105678961D01*
X155476836Y-105655979D01*
X155446058Y-105619944D01*
X155405645Y-105572648D01*
X155357128Y-105515885D01*
X155302040Y-105451447D01*
X155241913Y-105381128D01*
X155178281Y-105306719D01*
X155112675Y-105230016D01*
X155103944Y-105219807D01*
X155006952Y-105106289D01*
X154922406Y-105007054D01*
X154849926Y-104921648D01*
X154789132Y-104849616D01*
X154739642Y-104790501D01*
X154701076Y-104743851D01*
X154673055Y-104709208D01*
X154655197Y-104686118D01*
X154647123Y-104674126D01*
X154646538Y-104672453D01*
X154648488Y-104662056D01*
X154653981Y-104635103D01*
X154662485Y-104594149D01*
X154673467Y-104541748D01*
X154686395Y-104480452D01*
X154699993Y-104416304D01*
X154719560Y-104323770D01*
X154742417Y-104214915D01*
X154767978Y-104092568D01*
X154795657Y-103959557D01*
X154824868Y-103818713D01*
X154855027Y-103672863D01*
X154885548Y-103524837D01*
X154915845Y-103377464D01*
X154945333Y-103233573D01*
X154973426Y-103095993D01*
X154983574Y-103046154D01*
X155001420Y-102958495D01*
X155022110Y-102856982D01*
X155044566Y-102746903D01*
X155067708Y-102633543D01*
X155090456Y-102522189D01*
X155111733Y-102418128D01*
X155120157Y-102376961D01*
X155149574Y-102233076D01*
X155175236Y-102107204D01*
X155197363Y-101998229D01*
X155216174Y-101905036D01*
X155231892Y-101826508D01*
X155244735Y-101761529D01*
X155254925Y-101708984D01*
X155262682Y-101667755D01*
X155268227Y-101636728D01*
X155271780Y-101614785D01*
X155273561Y-101600812D01*
X155273607Y-101600307D01*
X155278257Y-101574608D01*
X155284801Y-101567065D01*
X155291514Y-101576637D01*
G37*
G36*
X155212632Y-101397406D02*
G01*
X155212732Y-101400038D01*
X155210712Y-101418046D01*
X155204060Y-101449427D01*
X155192548Y-101495004D01*
X155175947Y-101555602D01*
X155154031Y-101632045D01*
X155126571Y-101725155D01*
X155093340Y-101835757D01*
X155081794Y-101873846D01*
X155055891Y-101959474D01*
X155026357Y-102057658D01*
X154995045Y-102162200D01*
X154963809Y-102266903D01*
X154934503Y-102365570D01*
X154915254Y-102430692D01*
X154887296Y-102525379D01*
X154858929Y-102621128D01*
X154829475Y-102720199D01*
X154798260Y-102824854D01*
X154764606Y-102937354D01*
X154727838Y-103059959D01*
X154687279Y-103194931D01*
X154642254Y-103344530D01*
X154602642Y-103476000D01*
X154579481Y-103552978D01*
X154552483Y-103642943D01*
X154523366Y-103740148D01*
X154493851Y-103838849D01*
X154465659Y-103933300D01*
X154446190Y-103998654D01*
X154414369Y-104105516D01*
X154387590Y-104195240D01*
X154365348Y-104269422D01*
X154347139Y-104329658D01*
X154332461Y-104377545D01*
X154320808Y-104414678D01*
X154311678Y-104442656D01*
X154304566Y-104463073D01*
X154298968Y-104477527D01*
X154294382Y-104487614D01*
X154290302Y-104494930D01*
X154288861Y-104497192D01*
X154277111Y-104510576D01*
X154257935Y-104525068D01*
X154229756Y-104541388D01*
X154190994Y-104560257D01*
X154140073Y-104582394D01*
X154075413Y-104608518D01*
X153995437Y-104639351D01*
X153898566Y-104675613D01*
X153894307Y-104677190D01*
X153818618Y-104705244D01*
X153742375Y-104733560D01*
X153669372Y-104760726D01*
X153603400Y-104785328D01*
X153548253Y-104805954D01*
X153508423Y-104820927D01*
X153454957Y-104840936D01*
X153390407Y-104864797D01*
X153317252Y-104891619D01*
X153237972Y-104920509D01*
X153155047Y-104950578D01*
X153070955Y-104980933D01*
X152988176Y-105010683D01*
X152909190Y-105038937D01*
X152836475Y-105064803D01*
X152772513Y-105087391D01*
X152719781Y-105105808D01*
X152680759Y-105119163D01*
X152659913Y-105125965D01*
X152620223Y-105137886D01*
X152595225Y-105144145D01*
X152581005Y-105145036D01*
X152573646Y-105140855D01*
X152569563Y-105132766D01*
X152568087Y-105126338D01*
X152568890Y-105118138D01*
X152572895Y-105106734D01*
X152581022Y-105090697D01*
X152594193Y-105068595D01*
X152613329Y-105038999D01*
X152639351Y-105000477D01*
X152673181Y-104951600D01*
X152715739Y-104890937D01*
X152767948Y-104817056D01*
X152821795Y-104741115D01*
X152882351Y-104655780D01*
X152948619Y-104562389D01*
X153017590Y-104465180D01*
X153086256Y-104368394D01*
X153151609Y-104276271D01*
X153210641Y-104193051D01*
X153244587Y-104145192D01*
X153286713Y-104085820D01*
X153338399Y-104013012D01*
X153397881Y-103929253D01*
X153463393Y-103837028D01*
X153533169Y-103738821D01*
X153605444Y-103637118D01*
X153678452Y-103534403D01*
X153750429Y-103433161D01*
X153799854Y-103363654D01*
X153866005Y-103270617D01*
X153931276Y-103178785D01*
X153994362Y-103089995D01*
X154053959Y-103006085D01*
X154108764Y-102928891D01*
X154157472Y-102860251D01*
X154198779Y-102802000D01*
X154231381Y-102755977D01*
X154253973Y-102724018D01*
X154254148Y-102723769D01*
X154295246Y-102665507D01*
X154341732Y-102599605D01*
X154388381Y-102533471D01*
X154429970Y-102474511D01*
X154436760Y-102464884D01*
X154461940Y-102429218D01*
X154496679Y-102380056D01*
X154539246Y-102319847D01*
X154587908Y-102251042D01*
X154640932Y-102176090D01*
X154696586Y-102097440D01*
X154753138Y-102017541D01*
X154778789Y-101981307D01*
X154833790Y-101903590D01*
X154887511Y-101827626D01*
X154938422Y-101755580D01*
X154984997Y-101689617D01*
X155025707Y-101631901D01*
X155059025Y-101584595D01*
X155083423Y-101549866D01*
X155092557Y-101536807D01*
X155121082Y-101496629D01*
X155148884Y-101458712D01*
X155172102Y-101428262D01*
X155183118Y-101414692D01*
X155200876Y-101395198D01*
X155209759Y-101389908D01*
X155212632Y-101397406D01*
G37*
G36*
X154181256Y-102048613D02*
G01*
X154191780Y-102050884D01*
X154193521Y-102058296D01*
X154186896Y-102059519D01*
X154160843Y-102061590D01*
X154120427Y-102067108D01*
X154070348Y-102075242D01*
X154015306Y-102085159D01*
X153960002Y-102096030D01*
X153909136Y-102107022D01*
X153882759Y-102113315D01*
X153678622Y-102174408D01*
X153480337Y-102253821D01*
X153289053Y-102350909D01*
X153105922Y-102465029D01*
X152932095Y-102595534D01*
X152779565Y-102731265D01*
X152698454Y-102811715D01*
X152629475Y-102885719D01*
X152568794Y-102958094D01*
X152512581Y-103033660D01*
X152457002Y-103117236D01*
X152404846Y-103202461D01*
X152313591Y-103371988D01*
X152240038Y-103544379D01*
X152183149Y-103722658D01*
X152141890Y-103909849D01*
X152125420Y-104018192D01*
X152119303Y-104083224D01*
X152115505Y-104162263D01*
X152113984Y-104249917D01*
X152114700Y-104340798D01*
X152117612Y-104429515D01*
X152122680Y-104510680D01*
X152129618Y-104577097D01*
X152166418Y-104777908D01*
X152221445Y-104972955D01*
X152293985Y-105161269D01*
X152383324Y-105341880D01*
X152488749Y-105513819D01*
X152609544Y-105676115D01*
X152744996Y-105827800D01*
X152894390Y-105967903D01*
X153057014Y-106095455D01*
X153232152Y-106209486D01*
X153397174Y-106298426D01*
X153565282Y-106371183D01*
X153742908Y-106429190D01*
X153931650Y-106472895D01*
X154116997Y-106500919D01*
X154179351Y-106506336D01*
X154254541Y-106509932D01*
X154338389Y-106511768D01*
X154426716Y-106511906D01*
X154515343Y-106510404D01*
X154600091Y-106507325D01*
X154676781Y-106502728D01*
X154741234Y-106496675D01*
X154778423Y-106491324D01*
X154994313Y-106443758D01*
X155201204Y-106379674D01*
X155398394Y-106299590D01*
X155585177Y-106204022D01*
X155760851Y-106093489D01*
X155924711Y-105968508D01*
X156076052Y-105829598D01*
X156214173Y-105677275D01*
X156338367Y-105512057D01*
X156447932Y-105334462D01*
X156507507Y-105219807D01*
X156584344Y-105049220D01*
X156645886Y-104884492D01*
X156693309Y-104720969D01*
X156727790Y-104554001D01*
X156750504Y-104378936D01*
X156761702Y-104214259D01*
X156764534Y-104156688D01*
X156767186Y-104117819D01*
X156769580Y-104096817D01*
X156771639Y-104092845D01*
X156773284Y-104105069D01*
X156774439Y-104132651D01*
X156775026Y-104174757D01*
X156774966Y-104230550D01*
X156774183Y-104299195D01*
X156773446Y-104340577D01*
X156770618Y-104446342D01*
X156766329Y-104537138D01*
X156760036Y-104617512D01*
X156751201Y-104692012D01*
X156739282Y-104765185D01*
X156723740Y-104841579D01*
X156704033Y-104925741D01*
X156703791Y-104926730D01*
X156646281Y-105121060D01*
X156570136Y-105312795D01*
X156476230Y-105500398D01*
X156365437Y-105682334D01*
X156238631Y-105857069D01*
X156096687Y-106023066D01*
X156053804Y-106068332D01*
X155918245Y-106195301D01*
X155767291Y-106313154D01*
X155603452Y-106420601D01*
X155429236Y-106516353D01*
X155247152Y-106599120D01*
X155059708Y-106667612D01*
X154869412Y-106720539D01*
X154731053Y-106748451D01*
X154639887Y-106762208D01*
X154551864Y-106771779D01*
X154461831Y-106777447D01*
X154364638Y-106779496D01*
X154255134Y-106778207D01*
X154211807Y-106776984D01*
X154150207Y-106774720D01*
X154092329Y-106772031D01*
X154042195Y-106769147D01*
X154003828Y-106766297D01*
X153982230Y-106763878D01*
X153897044Y-106749624D01*
X153826865Y-106737058D01*
X153767348Y-106725183D01*
X153714146Y-106713003D01*
X153662914Y-106699521D01*
X153609307Y-106683740D01*
X153548977Y-106664664D01*
X153547500Y-106664187D01*
X153350556Y-106591208D01*
X153164573Y-106502888D01*
X152986816Y-106397825D01*
X152868538Y-106315578D01*
X152785627Y-106252412D01*
X152713812Y-106193013D01*
X152646957Y-106131943D01*
X152578923Y-106063766D01*
X152550762Y-106034093D01*
X152406563Y-105866672D01*
X152279622Y-105690212D01*
X152170075Y-105504975D01*
X152078060Y-105311224D01*
X152003711Y-105109222D01*
X151947167Y-104899230D01*
X151938745Y-104859896D01*
X151929189Y-104812298D01*
X151921775Y-104771351D01*
X151916171Y-104733258D01*
X151912044Y-104694222D01*
X151909058Y-104650446D01*
X151906882Y-104598133D01*
X151905181Y-104533485D01*
X151903786Y-104461881D01*
X151902542Y-104372236D01*
X151902434Y-104298334D01*
X151903578Y-104236410D01*
X151906092Y-104182696D01*
X151910092Y-104133423D01*
X151915413Y-104087002D01*
X151949470Y-103896647D01*
X152001896Y-103707048D01*
X152071570Y-103520395D01*
X152157374Y-103338879D01*
X152258191Y-103164689D01*
X152372901Y-103000016D01*
X152500386Y-102847048D01*
X152601725Y-102743218D01*
X152769496Y-102594574D01*
X152942888Y-102464408D01*
X153122834Y-102352281D01*
X153310265Y-102257758D01*
X153506113Y-102180399D01*
X153711309Y-102119768D01*
X153926785Y-102075427D01*
X154065269Y-102056005D01*
X154114267Y-102051054D01*
X154154111Y-102048542D01*
X154181256Y-102048613D01*
G37*
D13*
%TO.C,C10*%
X147959420Y-93990000D02*
X148240580Y-93990000D01*
X147959420Y-95010000D02*
X148240580Y-95010000D01*
%TO.C,U2*%
X142040000Y-114900000D02*
X142040000Y-114100000D01*
X142040000Y-114900000D02*
X142040000Y-115700000D01*
X145160000Y-114900000D02*
X145160000Y-114100000D01*
X145160000Y-114900000D02*
X145160000Y-115700000D01*
X145440000Y-113840000D02*
X145110000Y-113600000D01*
X145440000Y-113360000D01*
X145440000Y-113840000D01*
G36*
X145440000Y-113840000D02*
G01*
X145110000Y-113600000D01*
X145440000Y-113360000D01*
X145440000Y-113840000D01*
G37*
%TO.C,R2*%
X155950242Y-124927500D02*
X156424758Y-124927500D01*
X155950242Y-125972500D02*
X156424758Y-125972500D01*
%TO.C,D1*%
X154702500Y-118746250D02*
X154702500Y-120216250D01*
X154702500Y-120216250D02*
X156987500Y-120216250D01*
X156987500Y-118746250D02*
X154702500Y-118746250D01*
%TD*%
M02*
