%TF.GenerationSoftware,KiCad,Pcbnew,8.0.4*%
%TF.CreationDate,2025-08-18T19:59:25+02:00*%
%TF.ProjectId,stm32l432kcu6_eval,73746d33-326c-4343-9332-6b6375365f65,rev?*%
%TF.SameCoordinates,Original*%
%TF.FileFunction,Copper,L1,Top*%
%TF.FilePolarity,Positive*%
%FSLAX46Y46*%
G04 Gerber Fmt 4.6, Leading zero omitted, Abs format (unit mm)*
G04 Created by KiCad (PCBNEW 8.0.4) date 2025-08-18 19:59:25*
%MOMM*%
%LPD*%
G01*
G04 APERTURE LIST*
G04 Aperture macros list*
%AMRoundRect*
0 Rectangle with rounded corners*
0 $1 Rounding radius*
0 $2 $3 $4 $5 $6 $7 $8 $9 X,Y pos of 4 corners*
0 Add a 4 corners polygon primitive as box body*
4,1,4,$2,$3,$4,$5,$6,$7,$8,$9,$2,$3,0*
0 Add four circle primitives for the rounded corners*
1,1,$1+$1,$2,$3*
1,1,$1+$1,$4,$5*
1,1,$1+$1,$6,$7*
1,1,$1+$1,$8,$9*
0 Add four rect primitives between the rounded corners*
20,1,$1+$1,$2,$3,$4,$5,0*
20,1,$1+$1,$4,$5,$6,$7,0*
20,1,$1+$1,$6,$7,$8,$9,0*
20,1,$1+$1,$8,$9,$2,$3,0*%
%AMRotRect*
0 Rectangle, with rotation*
0 The origin of the aperture is its center*
0 $1 length*
0 $2 width*
0 $3 Rotation angle, in degrees counterclockwise*
0 Add horizontal line*
21,1,$1,$2,0,0,$3*%
G04 Aperture macros list end*
%TA.AperFunction,SMDPad,CuDef*%
%ADD10R,0.400000X1.350000*%
%TD*%
%TA.AperFunction,ComponentPad*%
%ADD11O,1.200000X1.900000*%
%TD*%
%TA.AperFunction,SMDPad,CuDef*%
%ADD12R,1.200000X1.900000*%
%TD*%
%TA.AperFunction,ComponentPad*%
%ADD13C,1.450000*%
%TD*%
%TA.AperFunction,SMDPad,CuDef*%
%ADD14R,1.500000X1.900000*%
%TD*%
%TA.AperFunction,SMDPad,CuDef*%
%ADD15R,1.700000X0.800000*%
%TD*%
%TA.AperFunction,SMDPad,CuDef*%
%ADD16RoundRect,0.225000X0.225000X0.250000X-0.225000X0.250000X-0.225000X-0.250000X0.225000X-0.250000X0*%
%TD*%
%TA.AperFunction,SMDPad,CuDef*%
%ADD17RoundRect,0.225000X-0.225000X-0.250000X0.225000X-0.250000X0.225000X0.250000X-0.225000X0.250000X0*%
%TD*%
%TA.AperFunction,SMDPad,CuDef*%
%ADD18RoundRect,0.225000X0.017678X-0.335876X0.335876X-0.017678X-0.017678X0.335876X-0.335876X0.017678X0*%
%TD*%
%TA.AperFunction,SMDPad,CuDef*%
%ADD19RoundRect,0.200000X-0.200000X-0.275000X0.200000X-0.275000X0.200000X0.275000X-0.200000X0.275000X0*%
%TD*%
%TA.AperFunction,SMDPad,CuDef*%
%ADD20RoundRect,0.200000X0.200000X0.275000X-0.200000X0.275000X-0.200000X-0.275000X0.200000X-0.275000X0*%
%TD*%
%TA.AperFunction,SMDPad,CuDef*%
%ADD21RoundRect,0.218750X-0.218750X-0.256250X0.218750X-0.256250X0.218750X0.256250X-0.218750X0.256250X0*%
%TD*%
%TA.AperFunction,SMDPad,CuDef*%
%ADD22RoundRect,0.062500X-0.176777X-0.265165X0.265165X0.176777X0.176777X0.265165X-0.265165X-0.176777X0*%
%TD*%
%TA.AperFunction,SMDPad,CuDef*%
%ADD23RoundRect,0.062500X0.176777X-0.265165X0.265165X-0.176777X-0.176777X0.265165X-0.265165X0.176777X0*%
%TD*%
%TA.AperFunction,HeatsinkPad*%
%ADD24C,0.500000*%
%TD*%
%TA.AperFunction,HeatsinkPad*%
%ADD25RotRect,3.650000X3.650000X45.000000*%
%TD*%
%TA.AperFunction,SMDPad,CuDef*%
%ADD26RotRect,1.500000X1.700000X135.000000*%
%TD*%
%TA.AperFunction,SMDPad,CuDef*%
%ADD27RoundRect,0.140000X-0.021213X0.219203X-0.219203X0.021213X0.021213X-0.219203X0.219203X-0.021213X0*%
%TD*%
%TA.AperFunction,SMDPad,CuDef*%
%ADD28RoundRect,0.218750X0.218750X0.256250X-0.218750X0.256250X-0.218750X-0.256250X0.218750X-0.256250X0*%
%TD*%
%TA.AperFunction,ComponentPad*%
%ADD29R,1.700000X1.700000*%
%TD*%
%TA.AperFunction,ComponentPad*%
%ADD30O,1.700000X1.700000*%
%TD*%
%TA.AperFunction,SMDPad,CuDef*%
%ADD31RotRect,1.000000X1.800000X315.000000*%
%TD*%
%TA.AperFunction,SMDPad,CuDef*%
%ADD32RoundRect,0.150000X-0.150000X0.512500X-0.150000X-0.512500X0.150000X-0.512500X0.150000X0.512500X0*%
%TD*%
%TA.AperFunction,ViaPad*%
%ADD33C,0.600000*%
%TD*%
%TA.AperFunction,ViaPad*%
%ADD34C,0.800000*%
%TD*%
%TA.AperFunction,Conductor*%
%ADD35C,0.350000*%
%TD*%
%TA.AperFunction,Conductor*%
%ADD36C,0.250000*%
%TD*%
%TA.AperFunction,Conductor*%
%ADD37C,0.200000*%
%TD*%
%TA.AperFunction,Conductor*%
%ADD38C,0.280000*%
%TD*%
G04 APERTURE END LIST*
D10*
%TO.P,J1,1,VBUS*%
%TO.N,+5V_USB*%
X148700000Y-122337500D03*
%TO.P,J1,2,D-*%
%TO.N,/power_usb/USB_M-*%
X149350000Y-122337500D03*
%TO.P,J1,3,D+*%
%TO.N,/power_usb/USB_M+*%
X150000000Y-122337500D03*
%TO.P,J1,4,ID*%
%TO.N,Net-(J1-ID)*%
X150650000Y-122337500D03*
%TO.P,J1,5,GND*%
%TO.N,GND*%
X151300000Y-122337500D03*
D11*
%TO.P,J1,6,Shield*%
X146500000Y-125037500D03*
D12*
X147100000Y-125037500D03*
D13*
X147500000Y-122337500D03*
D14*
X149000000Y-125037500D03*
X151000000Y-125037500D03*
D13*
X152500000Y-122337500D03*
D12*
X152900000Y-125037500D03*
D11*
X153500000Y-125037500D03*
%TD*%
D15*
%TO.P,S2,1*%
%TO.N,+3V3*%
X147300000Y-87399999D03*
%TO.P,S2,2*%
%TO.N,/connectors_gpios_2_5_4/PH3(BOOT0)*%
X147300000Y-90800001D03*
%TD*%
%TO.P,S3,1*%
%TO.N,GND*%
X156600000Y-117175000D03*
%TO.P,S3,2*%
%TO.N,Net-(C11-Pad1)*%
X156600000Y-113775000D03*
%TD*%
D16*
%TO.P,C11,1*%
%TO.N,Net-(C11-Pad1)*%
X156575000Y-111640000D03*
%TO.P,C11,2*%
%TO.N,GND*%
X155025000Y-111640000D03*
%TD*%
D17*
%TO.P,C9,1*%
%TO.N,/connectors_gpios_2_5_4/NRST*%
X142700000Y-93000000D03*
%TO.P,C9,2*%
%TO.N,GND*%
X144250000Y-93000000D03*
%TD*%
D18*
%TO.P,C3,1*%
%TO.N,+3V3*%
X148851992Y-110848008D03*
%TO.P,C3,2*%
%TO.N,GND*%
X149948008Y-109751992D03*
%TD*%
D19*
%TO.P,R7,1*%
%TO.N,/connectors_gpios_2_5_4/PH3(BOOT0)*%
X147275000Y-93000000D03*
%TO.P,R7,2*%
%TO.N,GND*%
X148925000Y-93000000D03*
%TD*%
D17*
%TO.P,C2,1*%
%TO.N,+3V3*%
X142825000Y-112000000D03*
%TO.P,C2,2*%
%TO.N,GND*%
X144375000Y-112000000D03*
%TD*%
D18*
%TO.P,C8,1*%
%TO.N,+3V3*%
X140551992Y-99948008D03*
%TO.P,C8,2*%
%TO.N,GND*%
X141648008Y-98851992D03*
%TD*%
D20*
%TO.P,R3,1*%
%TO.N,+3V3*%
X157012500Y-122481250D03*
%TO.P,R3,2*%
%TO.N,Net-(R3-Pad2)*%
X155362500Y-122481250D03*
%TD*%
D21*
%TO.P,FB1,1*%
%TO.N,Net-(F1-Pad2)*%
X143187500Y-119600000D03*
%TO.P,FB1,2*%
%TO.N,Net-(U2-VI)*%
X144762500Y-119600000D03*
%TD*%
D22*
%TO.P,U3,1,VDD*%
%TO.N,+3V3*%
X147012474Y-100512652D03*
%TO.P,U3,2,PC14*%
%TO.N,/connectors_gpios_2_5_4/PC14(OSC_IN)*%
X147366027Y-100866206D03*
%TO.P,U3,3,PC15*%
%TO.N,/connectors_gpios_2_5_4/PC15(OSC_OUT)*%
X147719581Y-101219759D03*
%TO.P,U3,4,NRST*%
%TO.N,/connectors_gpios_2_5_4/NRST*%
X148073134Y-101573313D03*
%TO.P,U3,5,VDDA*%
%TO.N,+3V3*%
X148426687Y-101926866D03*
%TO.P,U3,6,PA0*%
%TO.N,/connectors_gpios_2_5_4/PA0*%
X148780241Y-102280419D03*
%TO.P,U3,7,PA1*%
%TO.N,/connectors_gpios_2_5_4/PA1*%
X149133794Y-102633973D03*
%TO.P,U3,8,PA2*%
%TO.N,/connectors_gpios_2_5_4/PA2*%
X149487348Y-102987526D03*
D23*
%TO.P,U3,9,PA3*%
%TO.N,/connectors_gpios_2_5_4/PA3*%
X150512652Y-102987526D03*
%TO.P,U3,10,PA4*%
%TO.N,/connectors_gpios_2_5_4/PA4*%
X150866206Y-102633973D03*
%TO.P,U3,11,PA5*%
%TO.N,/connectors_gpios_2_5_4/PA5*%
X151219759Y-102280419D03*
%TO.P,U3,12,PA6*%
%TO.N,/connectors_gpios_2_5_4/PA6*%
X151573313Y-101926866D03*
%TO.P,U3,13,PA7*%
%TO.N,/connectors_gpios_2_5_4/PA7*%
X151926866Y-101573313D03*
%TO.P,U3,14,PB0*%
%TO.N,/connectors_gpios_2_5_4/PB0*%
X152280419Y-101219759D03*
%TO.P,U3,15,PB1*%
%TO.N,/connectors_gpios_2_5_4/PB1*%
X152633973Y-100866206D03*
%TO.P,U3,16,VSS*%
%TO.N,GND*%
X152987526Y-100512652D03*
D22*
%TO.P,U3,17,VDD*%
%TO.N,+3V3*%
X152987526Y-99487348D03*
%TO.P,U3,18,PA8*%
%TO.N,/connectors_gpios_2_5_4/PA8*%
X152633973Y-99133794D03*
%TO.P,U3,19,PA9*%
%TO.N,/connectors_gpios_2_5_4/PA9*%
X152280419Y-98780241D03*
%TO.P,U3,20,PA10*%
%TO.N,/connectors_gpios_2_5_4/PA10*%
X151926866Y-98426687D03*
%TO.P,U3,21,PA11*%
%TO.N,/connectors_gpios_2_5_4/PA11*%
X151573313Y-98073134D03*
%TO.P,U3,22,PA12*%
%TO.N,/connectors_gpios_2_5_4/PA12*%
X151219759Y-97719581D03*
%TO.P,U3,23,PA13*%
%TO.N,/connectors_gpios_2_5_4/PA13*%
X150866206Y-97366027D03*
%TO.P,U3,24,PA14*%
%TO.N,/connectors_gpios_2_5_4/PA14*%
X150512652Y-97012474D03*
D23*
%TO.P,U3,25,PA15*%
%TO.N,/connectors_gpios_2_5_4/PA15*%
X149487348Y-97012474D03*
%TO.P,U3,26,PB3*%
%TO.N,/connectors_gpios_2_5_4/PB3*%
X149133794Y-97366027D03*
%TO.P,U3,27,PB4*%
%TO.N,/connectors_gpios_2_5_4/PB4*%
X148780241Y-97719581D03*
%TO.P,U3,28,PB5*%
%TO.N,/connectors_gpios_2_5_4/PB5*%
X148426687Y-98073134D03*
%TO.P,U3,29,PB6*%
%TO.N,/connectors_gpios_2_5_4/PB6*%
X148073134Y-98426687D03*
%TO.P,U3,30,PB7*%
%TO.N,/connectors_gpios_2_5_4/PB7*%
X147719581Y-98780241D03*
%TO.P,U3,31,PH3*%
%TO.N,/connectors_gpios_2_5_4/PH3(BOOT0)*%
X147366027Y-99133794D03*
%TO.P,U3,32,VSS*%
%TO.N,GND*%
X147012474Y-99487348D03*
D24*
%TO.P,U3,33,VSS*%
X148585786Y-100000000D03*
X149292893Y-100707107D03*
X150000000Y-101414214D03*
X149292893Y-99292893D03*
X150000000Y-100000000D03*
D25*
X150000000Y-100000000D03*
D24*
X150707107Y-100707107D03*
X150000000Y-98585786D03*
X150707107Y-99292893D03*
X151414214Y-100000000D03*
%TD*%
D26*
%TO.P,Y1,1,TRI-STATE*%
%TO.N,+3V3*%
X147279792Y-109875843D03*
%TO.P,Y1,2,GND*%
%TO.N,GND*%
X149075843Y-108079792D03*
%TO.P,Y1,3,OUTPUT*%
%TO.N,/connectors_gpios_2_5_4/PA0*%
X147520208Y-106524157D03*
%TO.P,Y1,4,VDD*%
%TO.N,+3V3*%
X145724157Y-108320208D03*
%TD*%
D20*
%TO.P,R5,1*%
%TO.N,/connectors_gpios_2_5_4/PB1*%
X154212500Y-90100000D03*
%TO.P,R5,2*%
%TO.N,Net-(R5-Pad2)*%
X152562500Y-90100000D03*
%TD*%
D19*
%TO.P,R1,1*%
%TO.N,Net-(J1-ID)*%
X155362500Y-123950000D03*
%TO.P,R1,2*%
%TO.N,GND*%
X157012500Y-123950000D03*
%TD*%
D27*
%TO.P,C4,1*%
%TO.N,/connectors_gpios_2_5_4/PC15(OSC_OUT)*%
X144639411Y-104760589D03*
%TO.P,C4,2*%
%TO.N,GND*%
X143960589Y-105439411D03*
%TD*%
D21*
%TO.P,D2,1,K*%
%TO.N,GND*%
X152600000Y-87100000D03*
%TO.P,D2,2,A*%
%TO.N,Net-(D2-A)*%
X154175000Y-87100000D03*
%TD*%
D27*
%TO.P,C5,1*%
%TO.N,/connectors_gpios_2_5_4/PC14(OSC_IN)*%
X142839411Y-103060589D03*
%TO.P,C5,2*%
%TO.N,GND*%
X142160589Y-103739411D03*
%TD*%
D19*
%TO.P,R8,1*%
%TO.N,/connectors_gpios_2_5_4/PA1*%
X154975000Y-110200000D03*
%TO.P,R8,2*%
%TO.N,Net-(C11-Pad1)*%
X156625000Y-110200000D03*
%TD*%
D16*
%TO.P,C1,1*%
%TO.N,Net-(U2-VI)*%
X144750000Y-118100000D03*
%TO.P,C1,2*%
%TO.N,GND*%
X143200000Y-118100000D03*
%TD*%
D28*
%TO.P,F1,1*%
%TO.N,+5V_USB*%
X144775000Y-121100000D03*
%TO.P,F1,2*%
%TO.N,Net-(F1-Pad2)*%
X143200000Y-121100000D03*
%TD*%
D19*
%TO.P,R4,1*%
%TO.N,Net-(R3-Pad2)*%
X155362500Y-120981250D03*
%TO.P,R4,2*%
%TO.N,Net-(D1-A)*%
X157012500Y-120981250D03*
%TD*%
D29*
%TO.P,J4,1,Pin_1*%
%TO.N,GND*%
X146190000Y-84100000D03*
D30*
%TO.P,J4,2,Pin_2*%
%TO.N,/connectors_gpios_2_5_4/PA14*%
X148730000Y-84100000D03*
%TO.P,J4,3,Pin_3*%
%TO.N,/connectors_gpios_2_5_4/PA13*%
X151270000Y-84100000D03*
%TO.P,J4,4,Pin_4*%
%TO.N,+3V3*%
X153810000Y-84100000D03*
%TD*%
D19*
%TO.P,R6,1*%
%TO.N,Net-(R5-Pad2)*%
X152562500Y-88600000D03*
%TO.P,R6,2*%
%TO.N,Net-(D2-A)*%
X154212500Y-88600000D03*
%TD*%
D18*
%TO.P,C7,1*%
%TO.N,+3V3*%
X142551992Y-99948008D03*
%TO.P,C7,2*%
%TO.N,GND*%
X143648008Y-98851992D03*
%TD*%
D15*
%TO.P,S1,1*%
%TO.N,GND*%
X142700000Y-87374999D03*
%TO.P,S1,2*%
%TO.N,/connectors_gpios_2_5_4/NRST*%
X142700000Y-90775001D03*
%TD*%
D31*
%TO.P,Y2,1*%
%TO.N,/connectors_gpios_2_5_4/PC14(OSC_IN)*%
X143916117Y-102016117D03*
%TO.P,Y2,2,X2*%
%TO.N,/connectors_gpios_2_5_4/PC15(OSC_OUT)*%
X145683883Y-103783883D03*
%TD*%
D18*
%TO.P,C6,1*%
%TO.N,+3V3*%
X144551992Y-99948008D03*
%TO.P,C6,2*%
%TO.N,GND*%
X145648008Y-98851992D03*
%TD*%
D32*
%TO.P,U1,1,I/O1*%
%TO.N,/connectors_gpios_2_5_4/PA12*%
X150599999Y-116362500D03*
%TO.P,U1,2,GND*%
%TO.N,GND*%
X149650000Y-116362500D03*
%TO.P,U1,3,I/O2*%
%TO.N,/connectors_gpios_2_5_4/PA11*%
X148700001Y-116362500D03*
%TO.P,U1,4,I/O2*%
%TO.N,/power_usb/USB_M-*%
X148700001Y-118637500D03*
%TO.P,U1,5,VBUS*%
%TO.N,+5V_USB*%
X149650000Y-118637500D03*
%TO.P,U1,6,I/O1*%
%TO.N,/power_usb/USB_M+*%
X150599999Y-118637500D03*
%TD*%
D17*
%TO.P,C10,1*%
%TO.N,/connectors_gpios_2_5_4/PH3(BOOT0)*%
X147325000Y-94500000D03*
%TO.P,C10,2*%
%TO.N,GND*%
X148875000Y-94500000D03*
%TD*%
D32*
%TO.P,U2,1,GND*%
%TO.N,GND*%
X144550000Y-113762500D03*
%TO.P,U2,2,VO*%
%TO.N,+3V3*%
X142650000Y-113762500D03*
%TO.P,U2,3,VI*%
%TO.N,Net-(U2-VI)*%
X143600000Y-116037500D03*
%TD*%
D19*
%TO.P,R2,1*%
%TO.N,Net-(J1-ID)*%
X155362500Y-125450000D03*
%TO.P,R2,2*%
%TO.N,/connectors_gpios_2_5_4/PA4*%
X157012500Y-125450000D03*
%TD*%
D21*
%TO.P,D1,1,K*%
%TO.N,GND*%
X155400000Y-119481250D03*
%TO.P,D1,2,A*%
%TO.N,Net-(D1-A)*%
X156975000Y-119481250D03*
%TD*%
D29*
%TO.P,J2,1,Pin_1*%
%TO.N,+3V3*%
X138570000Y-75870000D03*
D30*
%TO.P,J2,2,Pin_2*%
X138570000Y-78410000D03*
%TO.P,J2,3,Pin_3*%
%TO.N,GND*%
X138570000Y-80950000D03*
%TO.P,J2,4,Pin_4*%
%TO.N,/connectors_gpios_2_5_4/PA15*%
X138570000Y-83490000D03*
%TO.P,J2,5,Pin_5*%
%TO.N,/connectors_gpios_2_5_4/PB3*%
X138570000Y-86030000D03*
%TO.P,J2,6,Pin_6*%
%TO.N,/connectors_gpios_2_5_4/PB4*%
X138570000Y-88570000D03*
%TO.P,J2,7,Pin_7*%
%TO.N,/connectors_gpios_2_5_4/PB5*%
X138570000Y-91110000D03*
%TO.P,J2,8,Pin_8*%
%TO.N,/connectors_gpios_2_5_4/PB6*%
X138570000Y-93650000D03*
%TO.P,J2,9,Pin_9*%
%TO.N,/connectors_gpios_2_5_4/PB7*%
X138570000Y-96190000D03*
%TO.P,J2,10,Pin_10*%
%TO.N,/connectors_gpios_2_5_4/PH3(BOOT0)*%
X138570000Y-98730000D03*
%TO.P,J2,11,Pin_11*%
%TO.N,/connectors_gpios_2_5_4/PC14(OSC_IN)*%
X138570000Y-101270000D03*
%TO.P,J2,12,Pin_12*%
%TO.N,/connectors_gpios_2_5_4/PC15(OSC_OUT)*%
X138570000Y-103810000D03*
%TO.P,J2,13,Pin_13*%
%TO.N,/connectors_gpios_2_5_4/NRST*%
X138570000Y-106350000D03*
%TO.P,J2,14,Pin_14*%
%TO.N,/connectors_gpios_2_5_4/PA0*%
X138570000Y-108890000D03*
%TO.P,J2,15,Pin_15*%
%TO.N,/connectors_gpios_2_5_4/PA1*%
X138570000Y-111430000D03*
%TO.P,J2,16,Pin_16*%
%TO.N,/connectors_gpios_2_5_4/PA2*%
X138570000Y-113970000D03*
%TO.P,J2,17,Pin_17*%
%TO.N,GND*%
X138570000Y-116510000D03*
%TO.P,J2,18,Pin_18*%
%TO.N,+3V3*%
X138570000Y-119050000D03*
%TO.P,J2,19,Pin_19*%
%TO.N,+5V_USB*%
X138570000Y-121590000D03*
%TO.P,J2,20,Pin_20*%
X138570000Y-124130000D03*
%TD*%
D29*
%TO.P,J3,1,Pin_1*%
%TO.N,+3V3*%
X161430000Y-124130000D03*
D30*
%TO.P,J3,2,Pin_2*%
%TO.N,GND*%
X161430000Y-121590000D03*
%TO.P,J3,3,Pin_3*%
X161430000Y-119050000D03*
%TO.P,J3,4,Pin_4*%
%TO.N,/connectors_gpios_2_5_4/PA3*%
X161430000Y-116510000D03*
%TO.P,J3,5,Pin_5*%
%TO.N,/connectors_gpios_2_5_4/PA4*%
X161430000Y-113970000D03*
%TO.P,J3,6,Pin_6*%
%TO.N,/connectors_gpios_2_5_4/PA5*%
X161430000Y-111430000D03*
%TO.P,J3,7,Pin_7*%
%TO.N,/connectors_gpios_2_5_4/PA6*%
X161430000Y-108890000D03*
%TO.P,J3,8,Pin_8*%
%TO.N,/connectors_gpios_2_5_4/PA7*%
X161430000Y-106350000D03*
%TO.P,J3,9,Pin_9*%
%TO.N,/connectors_gpios_2_5_4/PB0*%
X161430000Y-103810000D03*
%TO.P,J3,10,Pin_10*%
%TO.N,/connectors_gpios_2_5_4/PB1*%
X161430000Y-101270000D03*
%TO.P,J3,11,Pin_11*%
%TO.N,/connectors_gpios_2_5_4/PA8*%
X161430000Y-98730000D03*
%TO.P,J3,12,Pin_12*%
%TO.N,/connectors_gpios_2_5_4/PA9*%
X161430000Y-96190000D03*
%TO.P,J3,13,Pin_13*%
%TO.N,/connectors_gpios_2_5_4/PA10*%
X161430000Y-93650000D03*
%TO.P,J3,14,Pin_14*%
%TO.N,/connectors_gpios_2_5_4/PA11*%
X161430000Y-91110000D03*
%TO.P,J3,15,Pin_15*%
%TO.N,/connectors_gpios_2_5_4/PA12*%
X161430000Y-88570000D03*
%TO.P,J3,16,Pin_16*%
%TO.N,/connectors_gpios_2_5_4/PA13*%
X161430000Y-86030000D03*
%TO.P,J3,17,Pin_17*%
%TO.N,/connectors_gpios_2_5_4/PA14*%
X161430000Y-83490000D03*
%TO.P,J3,18,Pin_18*%
%TO.N,GND*%
X161430000Y-80950000D03*
%TO.P,J3,19,Pin_19*%
X161430000Y-78410000D03*
%TO.P,J3,20,Pin_20*%
%TO.N,+3V3*%
X161430000Y-75870000D03*
%TD*%
D33*
%TO.N,/connectors_gpios_2_5_4/PH3(BOOT0)*%
X143300000Y-95700000D03*
D34*
%TO.N,GND*%
X153000000Y-119400000D03*
D33*
X149650000Y-115100000D03*
X146304563Y-75141750D03*
X150800000Y-108500000D03*
X159004563Y-80221750D03*
X148844563Y-80221750D03*
X153900000Y-112300000D03*
X156464563Y-75141750D03*
D34*
X145900000Y-112000000D03*
D33*
X146304563Y-115781750D03*
X141224563Y-75141750D03*
X156600000Y-118000000D03*
X143764563Y-75141750D03*
X153924563Y-75141750D03*
X141224563Y-80221750D03*
X151384563Y-75141750D03*
X154500000Y-119481250D03*
X148844563Y-77681750D03*
X143764563Y-77681750D03*
X156464563Y-77681750D03*
X143400000Y-106100000D03*
X159004563Y-75141750D03*
X156464563Y-82761750D03*
X159004563Y-77681750D03*
D34*
X144600000Y-98600000D03*
X152000000Y-118700000D03*
D33*
X146304563Y-80221750D03*
X141224563Y-115781750D03*
X154400000Y-105200000D03*
X144300000Y-91700000D03*
X158500000Y-112600000D03*
X158700000Y-104900000D03*
X141224563Y-77681750D03*
X143764563Y-80221750D03*
X142700000Y-86474999D03*
X154600000Y-100512652D03*
X153924563Y-80221750D03*
X143764563Y-82761750D03*
D34*
X144500000Y-110600000D03*
D33*
X148844563Y-75141750D03*
X146304563Y-77681750D03*
X157400000Y-107900000D03*
X159004563Y-82761750D03*
X141224563Y-92921750D03*
X151384563Y-77681750D03*
X156464563Y-80221750D03*
X158200000Y-96000000D03*
X151384563Y-80221750D03*
X151800000Y-117000000D03*
X152600000Y-85900000D03*
X152700000Y-108000000D03*
D34*
X142100000Y-117600000D03*
D33*
X141224563Y-82761750D03*
X159000000Y-92700000D03*
X153924563Y-115781750D03*
X147300000Y-113000000D03*
X158300000Y-123300000D03*
X153924563Y-77681750D03*
X156464563Y-85301750D03*
D34*
X145900000Y-113600000D03*
X142600000Y-98500000D03*
D33*
X141500000Y-104400000D03*
X141300000Y-94500000D03*
X148900000Y-91800000D03*
D34*
%TO.N,+3V3*%
X141300000Y-112000000D03*
X141500000Y-100200000D03*
D33*
X148500000Y-112000000D03*
D34*
X142700000Y-110600000D03*
D33*
X147575000Y-103600000D03*
X154600000Y-99487348D03*
D34*
X141300000Y-113600000D03*
D33*
X158300000Y-121700000D03*
X147300000Y-86500000D03*
%TO.N,/connectors_gpios_2_5_4/PA14*%
X150100000Y-93800000D03*
%TO.N,/connectors_gpios_2_5_4/PA13*%
X151141542Y-95700000D03*
%TO.N,/connectors_gpios_2_5_4/PA15*%
X149200000Y-96100000D03*
%TO.N,/connectors_gpios_2_5_4/PA11*%
X154500000Y-96025000D03*
X148700001Y-114700001D03*
%TO.N,/connectors_gpios_2_5_4/PA4*%
X158300000Y-124700000D03*
%TO.N,/connectors_gpios_2_5_4/PA2*%
X150000000Y-104700000D03*
%TO.N,/connectors_gpios_2_5_4/PA12*%
X153400000Y-95700000D03*
X150600000Y-114700000D03*
%TO.N,/connectors_gpios_2_5_4/PA1*%
X150700000Y-106200000D03*
X152400000Y-106300000D03*
X148800000Y-104600000D03*
%TO.N,/connectors_gpios_2_5_4/NRST*%
X142700000Y-94100000D03*
X147075000Y-102900000D03*
%TO.N,/connectors_gpios_2_5_4/PB4*%
X147600000Y-95700000D03*
%TO.N,/connectors_gpios_2_5_4/PB1*%
X153900000Y-101200000D03*
X152700000Y-91600000D03*
%TO.N,/connectors_gpios_2_5_4/PB5*%
X146800000Y-96100000D03*
%TO.N,/connectors_gpios_2_5_4/PB3*%
X148399997Y-96100000D03*
%TD*%
D35*
%TO.N,Net-(U2-VI)*%
X144750000Y-118100000D02*
X143600000Y-116950000D01*
X144762500Y-119600000D02*
X144762500Y-118112500D01*
X143600000Y-116950000D02*
X143600000Y-116037500D01*
%TO.N,Net-(F1-Pad2)*%
X143200000Y-121100000D02*
X143200000Y-119612500D01*
%TO.N,+5V_USB*%
X148128383Y-117600000D02*
X149300000Y-117600000D01*
X147137500Y-118590883D02*
X148128383Y-117600000D01*
X146337500Y-121100000D02*
X144775000Y-121100000D01*
X142750000Y-122750000D02*
X141590000Y-121590000D01*
X142950000Y-122750000D02*
X142750000Y-122750000D01*
X148700000Y-122337500D02*
X148700000Y-121862500D01*
X144600000Y-121100000D02*
X144775000Y-121100000D01*
X138570000Y-124130000D02*
X139900000Y-122800000D01*
X141590000Y-121590000D02*
X138570000Y-121590000D01*
X139900000Y-122800000D02*
X142900000Y-122800000D01*
X148700000Y-121862500D02*
X147137500Y-120300000D01*
X149650000Y-117950000D02*
X149650000Y-118637500D01*
X147137500Y-120300000D02*
X146337500Y-121100000D01*
X149300000Y-117600000D02*
X149650000Y-117950000D01*
X147137500Y-120300000D02*
X147137500Y-118590883D01*
X142900000Y-122800000D02*
X144600000Y-121100000D01*
D36*
%TO.N,/connectors_gpios_2_5_4/PH3(BOOT0)*%
X139525000Y-97775000D02*
X138570000Y-98730000D01*
X147250000Y-94450000D02*
X147300000Y-94500000D01*
X147275000Y-93000000D02*
X147275000Y-94450000D01*
X147300000Y-90800001D02*
X147300000Y-92975000D01*
X147366027Y-99133794D02*
X146007233Y-97775000D01*
X143300000Y-95700000D02*
X144500000Y-94500000D01*
X147275000Y-94450000D02*
X147325000Y-94500000D01*
X146007233Y-97775000D02*
X139525000Y-97775000D01*
X147300000Y-92975000D02*
X147275000Y-93000000D01*
X138940000Y-99100000D02*
X138570000Y-98730000D01*
X144500000Y-94500000D02*
X147325000Y-94500000D01*
X147300000Y-92950000D02*
X147250000Y-93000000D01*
X147225000Y-94450000D02*
X147275000Y-94500000D01*
%TO.N,GND*%
X148875000Y-93050000D02*
X148925000Y-93000000D01*
D35*
X144712500Y-113600000D02*
X144550000Y-113762500D01*
X151300000Y-121600000D02*
X151300000Y-121100000D01*
D36*
X157650000Y-123950000D02*
X158300000Y-123300000D01*
D35*
X143296016Y-98500000D02*
X143648008Y-98851992D01*
X142600000Y-98500000D02*
X143296016Y-98500000D01*
D36*
X151800000Y-117000000D02*
X151450000Y-117350000D01*
X157012500Y-123950000D02*
X157650000Y-123950000D01*
D35*
X145900000Y-113600000D02*
X144712500Y-113600000D01*
D36*
X149975001Y-117350000D02*
X149650000Y-117024999D01*
D35*
X144375000Y-112000000D02*
X145900000Y-112000000D01*
D36*
X142700000Y-87374999D02*
X142700000Y-86474999D01*
D35*
X144500000Y-111875000D02*
X144375000Y-112000000D01*
X151300000Y-121100000D02*
X153000000Y-119400000D01*
X144500000Y-110600000D02*
X144500000Y-111875000D01*
D36*
X148925000Y-91825000D02*
X148925000Y-93000000D01*
X148900000Y-91800000D02*
X148925000Y-91825000D01*
X149075843Y-108079792D02*
X149948008Y-108951957D01*
D37*
X143400000Y-106100000D02*
X143400000Y-106000000D01*
D35*
X142600000Y-98500000D02*
X142000000Y-98500000D01*
X142100000Y-117600000D02*
X142600000Y-118100000D01*
X144500000Y-113712500D02*
X144550000Y-113762500D01*
X152000000Y-119500000D02*
X151300000Y-120200000D01*
D37*
X156600000Y-117175000D02*
X156600000Y-118000000D01*
D35*
X142000000Y-98500000D02*
X141648008Y-98851992D01*
D36*
X144300000Y-92950000D02*
X144250000Y-93000000D01*
X146377118Y-98851992D02*
X147012474Y-99487348D01*
X149650000Y-117024999D02*
X149650000Y-116362500D01*
D35*
X144600000Y-98600000D02*
X143900000Y-98600000D01*
D36*
X149948008Y-108951957D02*
X149948008Y-109751992D01*
D37*
X146925126Y-99400000D02*
X147012474Y-99487348D01*
D35*
X145396016Y-98600000D02*
X145648008Y-98851992D01*
D36*
X155025000Y-111640000D02*
X154560000Y-111640000D01*
X152000000Y-118500000D02*
X152000000Y-118700000D01*
D35*
X142600000Y-118100000D02*
X143200000Y-118100000D01*
X151300000Y-120200000D02*
X151300000Y-121600000D01*
D36*
X152600000Y-87100000D02*
X152600000Y-85900000D01*
D35*
X144550000Y-113762500D02*
X144550000Y-112175000D01*
D36*
X154600000Y-100512652D02*
X152987526Y-100512652D01*
X151450000Y-117350000D02*
X149975001Y-117350000D01*
D35*
X143900000Y-98600000D02*
X143648008Y-98851992D01*
D36*
X148875000Y-94500000D02*
X148875000Y-93050000D01*
D35*
X151300000Y-121600000D02*
X151300000Y-122337500D01*
D37*
X143400000Y-106000000D02*
X143960589Y-105439411D01*
D36*
X149650000Y-115100000D02*
X149650000Y-116362500D01*
X145648008Y-98851992D02*
X146377118Y-98851992D01*
X154560000Y-111640000D02*
X153900000Y-112300000D01*
D35*
X152000000Y-118700000D02*
X152000000Y-119500000D01*
D37*
X157212500Y-123750000D02*
X157012500Y-123950000D01*
D36*
X149650000Y-116362500D02*
X149650000Y-116750908D01*
X144300000Y-91700000D02*
X144300000Y-92950000D01*
D37*
X149948008Y-109751992D02*
X149948008Y-109351992D01*
X141500000Y-104400000D02*
X142160589Y-103739411D01*
D35*
X144600000Y-98600000D02*
X145396016Y-98600000D01*
X144550000Y-112175000D02*
X144375000Y-112000000D01*
D36*
X149948008Y-109351992D02*
X150800000Y-108500000D01*
%TO.N,+3V3*%
X147700000Y-103475000D02*
X147700000Y-102653553D01*
X144551992Y-99948008D02*
X142551992Y-99948008D01*
X157518750Y-122481250D02*
X157012500Y-122481250D01*
D35*
X142487500Y-113600000D02*
X142650000Y-113762500D01*
D36*
X141500000Y-100200000D02*
X140803984Y-100200000D01*
X147300000Y-87399999D02*
X147300000Y-86500000D01*
D35*
X141300000Y-113600000D02*
X142487500Y-113600000D01*
D36*
X158300000Y-121700000D02*
X157518750Y-122481250D01*
D35*
X142825000Y-112000000D02*
X141300000Y-112000000D01*
D36*
X154600000Y-99487348D02*
X152987526Y-99487348D01*
X147879827Y-109875843D02*
X148851992Y-110848008D01*
X144551992Y-99948008D02*
X146447830Y-99948008D01*
D37*
X147279792Y-109875843D02*
X147879827Y-109875843D01*
D36*
X142300000Y-100200000D02*
X142551992Y-99948008D01*
X147575000Y-103600000D02*
X147700000Y-103475000D01*
D35*
X142650000Y-113762500D02*
X142650000Y-112175000D01*
D36*
X141500000Y-100200000D02*
X142300000Y-100200000D01*
X140803984Y-100200000D02*
X140551992Y-99948008D01*
X148851992Y-110848008D02*
X148851992Y-111648008D01*
D35*
X142700000Y-111875000D02*
X142825000Y-112000000D01*
X142650000Y-112175000D02*
X142825000Y-112000000D01*
X142700000Y-113712500D02*
X142650000Y-113762500D01*
X142700000Y-110600000D02*
X142700000Y-111875000D01*
D36*
X146447830Y-99948008D02*
X147012474Y-100512652D01*
X145724157Y-108320208D02*
X147279792Y-109875843D01*
X147700000Y-102653553D02*
X148426687Y-101926866D01*
X148851992Y-111648008D02*
X148500000Y-112000000D01*
D37*
%TO.N,/connectors_gpios_2_5_4/PA14*%
X152600000Y-93100000D02*
X151900000Y-93800000D01*
D36*
X150100000Y-93800000D02*
X150100000Y-96599822D01*
D37*
X151900000Y-93800000D02*
X150100000Y-93800000D01*
D36*
X150100000Y-96599822D02*
X150512652Y-97012474D01*
D37*
X161430000Y-84270000D02*
X161430000Y-83490000D01*
X152600000Y-93100000D02*
X161430000Y-84270000D01*
D36*
%TO.N,/connectors_gpios_2_5_4/PA13*%
X150866206Y-97366027D02*
X151141542Y-97090691D01*
X151700000Y-95700000D02*
X161370000Y-86030000D01*
D37*
X151141542Y-84572582D02*
X150969480Y-84400520D01*
D36*
X151600000Y-84430000D02*
X151270000Y-84100000D01*
D37*
X151141542Y-84228458D02*
X151270000Y-84100000D01*
D36*
X151141542Y-95700000D02*
X151700000Y-95700000D01*
X151141542Y-97090691D02*
X151141542Y-95700000D01*
D37*
X161370000Y-86030000D02*
X161430000Y-86030000D01*
D36*
%TO.N,/connectors_gpios_2_5_4/PA6*%
X156040000Y-103500000D02*
X161430000Y-108890000D01*
X153600000Y-103500000D02*
X153146447Y-103500000D01*
X153600000Y-103500000D02*
X156040000Y-103500000D01*
X153146447Y-103500000D02*
X151573313Y-101926866D01*
%TO.N,/connectors_gpios_2_5_4/PA10*%
X152903553Y-97450000D02*
X154166116Y-97450000D01*
X151926866Y-98426687D02*
X152903553Y-97450000D01*
X157966116Y-93650000D02*
X161430000Y-93650000D01*
X154166116Y-97450000D02*
X157966116Y-93650000D01*
%TO.N,/connectors_gpios_2_5_4/PA9*%
X159520000Y-98100000D02*
X152960660Y-98100000D01*
X161430000Y-96190000D02*
X159520000Y-98100000D01*
X152960660Y-98100000D02*
X152280419Y-98780241D01*
%TO.N,/connectors_gpios_2_5_4/PA15*%
X149487348Y-96387348D02*
X149200000Y-96100000D01*
X149487348Y-97012474D02*
X149487348Y-96387348D01*
X149487348Y-97012474D02*
X149400000Y-96925126D01*
%TO.N,/connectors_gpios_2_5_4/PA3*%
X157116116Y-116400000D02*
X151600000Y-110883884D01*
X161320000Y-116400000D02*
X157116116Y-116400000D01*
X151600000Y-110883884D02*
X151600000Y-104616116D01*
X161430000Y-116510000D02*
X161320000Y-116400000D01*
X150512652Y-103528768D02*
X150512652Y-102987526D01*
X151600000Y-104616116D02*
X150512652Y-103528768D01*
%TO.N,/connectors_gpios_2_5_4/PA0*%
X148200000Y-104008884D02*
X147004442Y-105204442D01*
X146800000Y-105408884D02*
X146800000Y-105803949D01*
X143318884Y-108890000D02*
X138570000Y-108890000D01*
X148200000Y-102860660D02*
X148200000Y-104008884D01*
X147004442Y-105204442D02*
X146800000Y-105408884D01*
X148780241Y-102280419D02*
X148200000Y-102860660D01*
X146800000Y-105803949D02*
X147520208Y-106524157D01*
X147004442Y-105204442D02*
X143318884Y-108890000D01*
%TO.N,/connectors_gpios_2_5_4/PA11*%
X159390000Y-91110000D02*
X161430000Y-91110000D01*
X154500000Y-96025000D02*
X154500000Y-96000000D01*
D38*
X154200000Y-96325000D02*
X153321447Y-96325000D01*
X154500000Y-96025000D02*
X154200000Y-96325000D01*
X153321447Y-96325000D02*
X151573313Y-98073134D01*
D36*
X148700000Y-114700000D02*
X148700001Y-114700001D01*
X154500000Y-96000000D02*
X159390000Y-91110000D01*
D38*
X148700001Y-116362500D02*
X148700001Y-114700001D01*
D37*
%TO.N,/connectors_gpios_2_5_4/PA4*%
X157012500Y-125450000D02*
X156862500Y-125450000D01*
D36*
X151166542Y-103150426D02*
X151166542Y-102934309D01*
X157550000Y-125450000D02*
X158300000Y-124700000D01*
X151166542Y-102934309D02*
X150866206Y-102633973D01*
X157012500Y-125450000D02*
X157550000Y-125450000D01*
X151758058Y-103741942D02*
X151166542Y-103150426D01*
X161430000Y-113413884D02*
X161430000Y-113970000D01*
X151758058Y-103741942D02*
X161430000Y-113413884D01*
%TO.N,/connectors_gpios_2_5_4/PA5*%
X151219759Y-102280419D02*
X153139340Y-104200000D01*
X153139340Y-104200000D02*
X154900000Y-104200000D01*
X154900000Y-104200000D02*
X161430000Y-110730000D01*
X161430000Y-110730000D02*
X161430000Y-111430000D01*
%TO.N,/connectors_gpios_2_5_4/PA2*%
X149475000Y-102999874D02*
X149487348Y-102987526D01*
X150000000Y-104700000D02*
X149475000Y-104175000D01*
X149475000Y-104175000D02*
X149475000Y-102999874D01*
%TO.N,/connectors_gpios_2_5_4/PA7*%
X153078553Y-102725000D02*
X157805000Y-102725000D01*
X151926866Y-101573313D02*
X153078553Y-102725000D01*
X157805000Y-102725000D02*
X161430000Y-106350000D01*
%TO.N,/connectors_gpios_2_5_4/PA12*%
X153400000Y-95700000D02*
X153239340Y-95700000D01*
X153239340Y-95700000D02*
X151219759Y-97719581D01*
D37*
X153400000Y-95700000D02*
X153500000Y-95700000D01*
D36*
X153500000Y-95700000D02*
X160630000Y-88570000D01*
D38*
X150599999Y-116362500D02*
X150599999Y-114700001D01*
D37*
X160630000Y-88570000D02*
X161430000Y-88570000D01*
D36*
X151255114Y-97754936D02*
X151219759Y-97719581D01*
X150599999Y-114700001D02*
X150600000Y-114700000D01*
%TO.N,/connectors_gpios_2_5_4/PA8*%
X152633973Y-99133794D02*
X152967767Y-98800000D01*
X152967767Y-98800000D02*
X161360000Y-98800000D01*
X161360000Y-98800000D02*
X161430000Y-98730000D01*
%TO.N,/connectors_gpios_2_5_4/PA1*%
X148800000Y-102967767D02*
X148800000Y-104600000D01*
X150700000Y-106200000D02*
X150400000Y-106200000D01*
X152400000Y-106300000D02*
X154975000Y-108875000D01*
X149133794Y-102633973D02*
X148800000Y-102967767D01*
X154975000Y-108875000D02*
X154975000Y-110140000D01*
X150400000Y-106200000D02*
X148800000Y-104600000D01*
%TO.N,/connectors_gpios_2_5_4/NRST*%
X142700000Y-92974999D02*
X142700000Y-90775001D01*
X142700000Y-94100000D02*
X142700000Y-92974999D01*
X147699574Y-101873649D02*
X147772798Y-101873649D01*
X147772798Y-101873649D02*
X148073134Y-101573313D01*
X147075000Y-102900000D02*
X147075000Y-102498223D01*
X147075000Y-102498223D02*
X147699574Y-101873649D01*
%TO.N,/connectors_gpios_2_5_4/PC14(OSC_IN)*%
X139500000Y-102200000D02*
X138570000Y-101270000D01*
X146216116Y-102016117D02*
X147366027Y-100866206D01*
X142871645Y-103060589D02*
X143916117Y-102016117D01*
X141978822Y-102200000D02*
X139500000Y-102200000D01*
X142839411Y-103060589D02*
X142871645Y-103060589D01*
X142839411Y-103060589D02*
X141978822Y-102200000D01*
X143916117Y-102016117D02*
X146216116Y-102016117D01*
%TO.N,/connectors_gpios_2_5_4/PB7*%
X147719581Y-98780241D02*
X145839340Y-96900000D01*
X145839340Y-96900000D02*
X139280000Y-96900000D01*
X139280000Y-96900000D02*
X138570000Y-96190000D01*
%TO.N,/connectors_gpios_2_5_4/PB4*%
X148780241Y-97719581D02*
X147600000Y-96539340D01*
X147600000Y-96539340D02*
X147600000Y-95700000D01*
%TO.N,/connectors_gpios_2_5_4/PB1*%
X153900000Y-101200000D02*
X154000000Y-101300000D01*
X152967767Y-101200000D02*
X153900000Y-101200000D01*
X152700000Y-91600000D02*
X152900000Y-91600000D01*
X154212500Y-90287500D02*
X154212500Y-90100000D01*
X154000000Y-101300000D02*
X161400000Y-101300000D01*
X152900000Y-91600000D02*
X154212500Y-90287500D01*
X161400000Y-101300000D02*
X161430000Y-101270000D01*
X152633973Y-100866206D02*
X152967767Y-101200000D01*
%TO.N,/connectors_gpios_2_5_4/PB6*%
X141370000Y-96450000D02*
X138570000Y-93650000D01*
X146096447Y-96450000D02*
X141370000Y-96450000D01*
X148073134Y-98426687D02*
X146096447Y-96450000D01*
%TO.N,/connectors_gpios_2_5_4/PB5*%
X148426687Y-98073134D02*
X146800000Y-96446447D01*
X146800000Y-96446447D02*
X146800000Y-96100000D01*
X148426687Y-98073134D02*
X148373134Y-98073134D01*
%TO.N,Net-(D1-A)*%
X157012500Y-120981250D02*
X157012500Y-119618750D01*
%TO.N,Net-(D2-A)*%
X154212500Y-88600000D02*
X154212500Y-87137500D01*
D37*
X154212500Y-87137500D02*
X154175000Y-87100000D01*
D36*
%TO.N,/power_usb/USB_M-*%
X148650000Y-119025908D02*
X148650000Y-118637500D01*
D38*
X148700001Y-120782501D02*
X149350000Y-121432500D01*
D36*
X148700000Y-119025908D02*
X148700000Y-118637500D01*
D38*
X149350000Y-121432500D02*
X149350000Y-122337500D01*
X148700001Y-118637500D02*
X148700001Y-120782501D01*
D36*
%TO.N,/power_usb/USB_M+*%
X150550000Y-119025908D02*
X150550000Y-118637500D01*
D38*
X150599999Y-118637500D02*
X150599999Y-120832501D01*
D36*
X150600000Y-119025908D02*
X150600000Y-118637500D01*
D38*
X150000000Y-121432500D02*
X150000000Y-122337500D01*
X150599999Y-120832501D02*
X150000000Y-121432500D01*
D36*
%TO.N,Net-(C11-Pad1)*%
X156625000Y-110140000D02*
X156625000Y-111590000D01*
D37*
X156575000Y-113750000D02*
X156600000Y-113775000D01*
X156625000Y-111590000D02*
X156575000Y-111640000D01*
D36*
X156575000Y-111640000D02*
X156575000Y-113750000D01*
%TO.N,/connectors_gpios_2_5_4/PC15(OSC_OUT)*%
X145683883Y-103783883D02*
X145683883Y-103252944D01*
X144707177Y-104760589D02*
X145683883Y-103783883D01*
X142300000Y-105400000D02*
X140160000Y-105400000D01*
X142947536Y-104752464D02*
X142300000Y-105400000D01*
X147717068Y-101219759D02*
X147719581Y-101219759D01*
X144639411Y-104760589D02*
X144707177Y-104760589D01*
X144631286Y-104752464D02*
X142947536Y-104752464D01*
X145683883Y-103252944D02*
X147717068Y-101219759D01*
X144639411Y-104760589D02*
X144631286Y-104752464D01*
X140160000Y-105400000D02*
X138570000Y-103810000D01*
%TO.N,/connectors_gpios_2_5_4/PB3*%
X148399997Y-96632230D02*
X148399997Y-96100000D01*
X149133794Y-97366027D02*
X148399997Y-96632230D01*
%TO.N,/connectors_gpios_2_5_4/PB0*%
X153700000Y-102100000D02*
X159720000Y-102100000D01*
X152280419Y-101219759D02*
X153160660Y-102100000D01*
X159720000Y-102100000D02*
X161430000Y-103810000D01*
X153160660Y-102100000D02*
X153700000Y-102100000D01*
D37*
%TO.N,Net-(J1-ID)*%
X155012500Y-123600000D02*
X150900000Y-123600000D01*
X155362500Y-125450000D02*
X155512500Y-125450000D01*
X155362500Y-123950000D02*
X155012500Y-123600000D01*
X150900000Y-123600000D02*
X150650000Y-123350000D01*
X150650000Y-123350000D02*
X150650000Y-122337500D01*
D36*
X155362500Y-125450000D02*
X155362500Y-123950000D01*
%TO.N,Net-(R3-Pad2)*%
X155362500Y-122481250D02*
X155362500Y-120981250D01*
%TO.N,Net-(R5-Pad2)*%
X152562500Y-90100000D02*
X152562500Y-88600000D01*
%TD*%
%TA.AperFunction,Conductor*%
%TO.N,GND*%
G36*
X162706922Y-74001280D02*
G01*
X162797266Y-74011459D01*
X162824331Y-74017636D01*
X162903540Y-74045352D01*
X162928553Y-74057398D01*
X162999606Y-74102043D01*
X163021313Y-74119355D01*
X163080644Y-74178686D01*
X163097957Y-74200395D01*
X163142600Y-74271444D01*
X163154648Y-74296462D01*
X163182362Y-74375666D01*
X163188540Y-74402735D01*
X163198720Y-74493076D01*
X163199500Y-74506961D01*
X163199500Y-125493038D01*
X163198720Y-125506923D01*
X163188540Y-125597264D01*
X163182362Y-125624333D01*
X163154648Y-125703537D01*
X163142600Y-125728555D01*
X163097957Y-125799604D01*
X163080644Y-125821313D01*
X163021313Y-125880644D01*
X162999604Y-125897957D01*
X162928555Y-125942600D01*
X162903537Y-125954648D01*
X162824333Y-125982362D01*
X162797264Y-125988540D01*
X162717075Y-125997576D01*
X162706921Y-125998720D01*
X162693038Y-125999500D01*
X158184451Y-125999500D01*
X158117412Y-125979815D01*
X158071657Y-125927011D01*
X158061713Y-125857853D01*
X158090738Y-125794297D01*
X158096770Y-125787819D01*
X158217533Y-125667056D01*
X158358379Y-125526209D01*
X158419700Y-125492726D01*
X158432156Y-125490674D01*
X158479255Y-125485368D01*
X158649522Y-125425789D01*
X158802262Y-125329816D01*
X158929816Y-125202262D01*
X159025789Y-125049522D01*
X159085368Y-124879255D01*
X159087539Y-124859989D01*
X159105565Y-124700003D01*
X159105565Y-124699996D01*
X159085369Y-124520750D01*
X159085368Y-124520745D01*
X159079262Y-124503295D01*
X159025789Y-124350478D01*
X158929816Y-124197738D01*
X158802262Y-124070184D01*
X158649523Y-123974211D01*
X158479254Y-123914631D01*
X158479249Y-123914630D01*
X158300004Y-123894435D01*
X158299996Y-123894435D01*
X158120750Y-123914630D01*
X158120742Y-123914632D01*
X158077453Y-123929780D01*
X158007674Y-123933341D01*
X157947047Y-123898612D01*
X157914820Y-123836619D01*
X157912499Y-123812738D01*
X157912499Y-123618417D01*
X157906091Y-123547897D01*
X157906090Y-123547892D01*
X157855518Y-123385603D01*
X157791835Y-123280258D01*
X157773999Y-123212704D01*
X157791834Y-123151961D01*
X157855978Y-123045856D01*
X157857750Y-123040168D01*
X157896479Y-122982020D01*
X157907237Y-122973953D01*
X157917483Y-122967108D01*
X158004608Y-122879983D01*
X158004608Y-122879981D01*
X158014812Y-122869778D01*
X158014815Y-122869773D01*
X158358380Y-122526209D01*
X158419701Y-122492726D01*
X158432158Y-122490674D01*
X158479255Y-122485368D01*
X158649522Y-122425789D01*
X158802262Y-122329816D01*
X158929816Y-122202262D01*
X159025789Y-122049522D01*
X159085368Y-121879255D01*
X159089791Y-121840000D01*
X159105565Y-121700003D01*
X159105565Y-121699996D01*
X159085369Y-121520750D01*
X159085368Y-121520745D01*
X159037325Y-121383446D01*
X159025789Y-121350478D01*
X158929816Y-121197738D01*
X158802262Y-121070184D01*
X158721332Y-121019332D01*
X158649523Y-120974211D01*
X158479254Y-120914631D01*
X158479249Y-120914630D01*
X158300004Y-120894435D01*
X158299996Y-120894435D01*
X158120750Y-120914630D01*
X158120738Y-120914633D01*
X158077953Y-120929604D01*
X158008174Y-120933165D01*
X157947547Y-120898435D01*
X157915321Y-120836441D01*
X157913000Y-120812562D01*
X157913000Y-120649636D01*
X157906586Y-120579057D01*
X157906586Y-120579054D01*
X157855978Y-120416644D01*
X157778304Y-120288156D01*
X157760469Y-120220605D01*
X157778882Y-120158914D01*
X157850049Y-120043537D01*
X157902936Y-119883935D01*
X157913000Y-119785424D01*
X157913000Y-119177076D01*
X157902936Y-119078565D01*
X157850049Y-118918963D01*
X157850045Y-118918957D01*
X157850044Y-118918954D01*
X157761783Y-118775862D01*
X157761780Y-118775858D01*
X157642891Y-118656969D01*
X157642887Y-118656966D01*
X157499795Y-118568705D01*
X157499789Y-118568702D01*
X157499787Y-118568701D01*
X157340185Y-118515814D01*
X157340183Y-118515813D01*
X157241681Y-118505750D01*
X157241674Y-118505750D01*
X156708326Y-118505750D01*
X156708318Y-118505750D01*
X156609816Y-118515813D01*
X156609815Y-118515814D01*
X156530719Y-118542023D01*
X156450215Y-118568700D01*
X156450204Y-118568705D01*
X156307112Y-118656966D01*
X156307107Y-118656969D01*
X156274827Y-118689250D01*
X156213503Y-118722735D01*
X156143812Y-118717749D01*
X156099467Y-118689250D01*
X156067580Y-118657364D01*
X155924577Y-118569158D01*
X155924572Y-118569156D01*
X155765083Y-118516307D01*
X155666650Y-118506250D01*
X155650000Y-118506250D01*
X155650000Y-119607250D01*
X155630315Y-119674289D01*
X155577511Y-119720044D01*
X155526000Y-119731250D01*
X154462501Y-119731250D01*
X154462501Y-119785402D01*
X154472556Y-119883833D01*
X154525406Y-120043322D01*
X154525411Y-120043333D01*
X154596405Y-120158431D01*
X154614846Y-120225823D01*
X154596984Y-120287677D01*
X154519023Y-120416641D01*
X154519022Y-120416643D01*
X154519022Y-120416644D01*
X154517457Y-120421666D01*
X154468413Y-120579057D01*
X154462000Y-120649636D01*
X154462000Y-121312863D01*
X154468413Y-121383442D01*
X154468413Y-121383444D01*
X154468414Y-121383446D01*
X154479857Y-121420169D01*
X154519022Y-121545856D01*
X154592317Y-121667100D01*
X154610153Y-121734655D01*
X154592317Y-121795400D01*
X154519022Y-121916643D01*
X154468413Y-122079057D01*
X154467419Y-122090000D01*
X154462000Y-122149634D01*
X154462000Y-122812866D01*
X154462930Y-122823096D01*
X154466672Y-122864278D01*
X154453135Y-122932824D01*
X154404689Y-122983170D01*
X154343181Y-122999500D01*
X153737583Y-122999500D01*
X153670544Y-122979815D01*
X153624789Y-122927011D01*
X153614845Y-122857853D01*
X153625201Y-122823096D01*
X153655517Y-122758081D01*
X153655522Y-122758067D01*
X153710995Y-122551037D01*
X153710997Y-122551027D01*
X153729679Y-122337500D01*
X153729679Y-122337499D01*
X153710997Y-122123972D01*
X153710995Y-122123962D01*
X153655522Y-121916932D01*
X153655518Y-121916923D01*
X153564933Y-121722662D01*
X153525172Y-121665879D01*
X152921725Y-122269325D01*
X152896037Y-122173456D01*
X152840084Y-122076544D01*
X152760956Y-121997416D01*
X152664044Y-121941463D01*
X152568172Y-121915774D01*
X153171621Y-121312325D01*
X153114840Y-121272567D01*
X153114838Y-121272566D01*
X152920576Y-121181981D01*
X152920567Y-121181977D01*
X152713537Y-121126504D01*
X152713527Y-121126502D01*
X152500001Y-121107821D01*
X152499999Y-121107821D01*
X152286472Y-121126502D01*
X152286462Y-121126504D01*
X152079432Y-121181977D01*
X152079418Y-121181982D01*
X151908257Y-121261796D01*
X151839180Y-121272288D01*
X151781543Y-121248681D01*
X151742093Y-121219149D01*
X151742086Y-121219145D01*
X151607379Y-121168903D01*
X151607372Y-121168901D01*
X151547844Y-121162500D01*
X151500000Y-121162500D01*
X151500000Y-121323065D01*
X151480315Y-121390104D01*
X151427511Y-121435859D01*
X151358353Y-121445803D01*
X151294797Y-121416778D01*
X151276734Y-121397376D01*
X151207547Y-121304955D01*
X151199707Y-121299086D01*
X151157837Y-121243152D01*
X151152853Y-121173460D01*
X151166316Y-121142104D01*
X151164734Y-121141258D01*
X151167599Y-121135896D01*
X151167603Y-121135891D01*
X151215885Y-121019328D01*
X151240499Y-120895585D01*
X151240499Y-120769417D01*
X151240499Y-119629877D01*
X151260184Y-119562838D01*
X151266520Y-119553876D01*
X151268077Y-119551867D01*
X151268080Y-119551865D01*
X151351743Y-119410398D01*
X151397597Y-119252569D01*
X151400499Y-119215694D01*
X151400499Y-119177099D01*
X154462500Y-119177099D01*
X154462500Y-119231250D01*
X155150000Y-119231250D01*
X155150000Y-118506249D01*
X155133356Y-118506250D01*
X155034915Y-118516307D01*
X154875427Y-118569156D01*
X154875422Y-118569158D01*
X154732419Y-118657364D01*
X154613614Y-118776169D01*
X154525408Y-118919172D01*
X154525406Y-118919177D01*
X154472557Y-119078666D01*
X154462500Y-119177099D01*
X151400499Y-119177099D01*
X151400499Y-118074999D01*
X156053552Y-118074999D01*
X156053553Y-118075000D01*
X157146447Y-118075000D01*
X157146447Y-118074999D01*
X156600000Y-117528553D01*
X156053552Y-118074999D01*
X151400499Y-118074999D01*
X151400499Y-118059306D01*
X151397597Y-118022431D01*
X151383526Y-117974000D01*
X151351744Y-117864606D01*
X151351743Y-117864603D01*
X151351743Y-117864602D01*
X151268080Y-117723135D01*
X151268078Y-117723133D01*
X151268075Y-117723129D01*
X151151869Y-117606923D01*
X151151866Y-117606921D01*
X151151864Y-117606919D01*
X151151548Y-117606732D01*
X151151352Y-117606522D01*
X151145701Y-117602139D01*
X151146408Y-117601227D01*
X151103865Y-117555664D01*
X151091361Y-117486923D01*
X151118005Y-117422333D01*
X151145920Y-117398144D01*
X151145701Y-117397861D01*
X151150910Y-117393820D01*
X151151549Y-117393267D01*
X151151864Y-117393081D01*
X151268080Y-117276865D01*
X151351743Y-117135398D01*
X151392429Y-116995357D01*
X151397596Y-116977573D01*
X151397597Y-116977567D01*
X151397918Y-116973486D01*
X151400499Y-116940694D01*
X151400499Y-116727155D01*
X155250000Y-116727155D01*
X155250000Y-117622844D01*
X155256401Y-117682372D01*
X155256403Y-117682379D01*
X155306645Y-117817086D01*
X155306649Y-117817093D01*
X155392808Y-117932185D01*
X155392813Y-117932190D01*
X155447967Y-117973479D01*
X155447968Y-117973478D01*
X156246447Y-117175000D01*
X155447967Y-116376520D01*
X155447966Y-116376520D01*
X155392810Y-116417811D01*
X155392809Y-116417812D01*
X155306649Y-116532906D01*
X155306645Y-116532913D01*
X155256403Y-116667620D01*
X155256401Y-116667627D01*
X155250000Y-116727155D01*
X151400499Y-116727155D01*
X151400499Y-115784306D01*
X151397597Y-115747431D01*
X151390099Y-115721624D01*
X151351744Y-115589606D01*
X151351743Y-115589603D01*
X151351743Y-115589602D01*
X151308331Y-115516196D01*
X151268077Y-115448129D01*
X151266516Y-115446117D01*
X151265783Y-115444252D01*
X151264109Y-115441420D01*
X151264565Y-115441149D01*
X151240984Y-115381079D01*
X151240499Y-115370122D01*
X151240499Y-115220984D01*
X151259505Y-115155012D01*
X151269927Y-115138425D01*
X151325789Y-115049522D01*
X151385368Y-114879255D01*
X151389634Y-114841395D01*
X151405565Y-114700003D01*
X151405565Y-114699996D01*
X151385369Y-114520750D01*
X151385368Y-114520745D01*
X151354894Y-114433655D01*
X151325789Y-114350478D01*
X151319641Y-114340694D01*
X151277036Y-114272888D01*
X151229816Y-114197738D01*
X151102262Y-114070184D01*
X151010459Y-114012500D01*
X150949523Y-113974211D01*
X150779254Y-113914631D01*
X150779249Y-113914630D01*
X150600004Y-113894435D01*
X150599996Y-113894435D01*
X150420750Y-113914630D01*
X150420745Y-113914631D01*
X150250476Y-113974211D01*
X150097737Y-114070184D01*
X149970184Y-114197737D01*
X149874211Y-114350476D01*
X149814631Y-114520745D01*
X149814630Y-114520750D01*
X149794435Y-114699996D01*
X149794435Y-114700003D01*
X149814630Y-114879249D01*
X149814631Y-114879254D01*
X149874211Y-115049523D01*
X149889803Y-115074337D01*
X149908803Y-115141574D01*
X149900000Y-115170459D01*
X149900000Y-115468183D01*
X149882732Y-115531303D01*
X149848256Y-115589599D01*
X149848253Y-115589606D01*
X149802401Y-115747426D01*
X149802400Y-115747432D01*
X149799499Y-115784298D01*
X149799499Y-116488500D01*
X149779814Y-116555539D01*
X149727010Y-116601294D01*
X149675499Y-116612500D01*
X149624501Y-116612500D01*
X149557462Y-116592815D01*
X149511707Y-116540011D01*
X149500501Y-116488500D01*
X149500501Y-115784313D01*
X149500500Y-115784298D01*
X149497599Y-115747432D01*
X149497598Y-115747426D01*
X149451746Y-115589606D01*
X149451745Y-115589603D01*
X149451745Y-115589602D01*
X149444064Y-115576614D01*
X149417268Y-115531303D01*
X149400000Y-115468183D01*
X149400000Y-115179515D01*
X149395159Y-115171426D01*
X149397391Y-115101592D01*
X149410199Y-115074336D01*
X149425788Y-115049526D01*
X149425787Y-115049526D01*
X149425790Y-115049523D01*
X149485369Y-114879256D01*
X149485652Y-114876744D01*
X149505566Y-114700004D01*
X149505566Y-114699997D01*
X149485370Y-114520751D01*
X149485369Y-114520746D01*
X149454897Y-114433663D01*
X149425790Y-114350479D01*
X149419613Y-114340649D01*
X149345616Y-114222883D01*
X149329817Y-114197739D01*
X149202263Y-114070185D01*
X149202261Y-114070184D01*
X149049524Y-113974212D01*
X148879255Y-113914632D01*
X148879250Y-113914631D01*
X148700005Y-113894436D01*
X148699997Y-113894436D01*
X148520751Y-113914631D01*
X148520746Y-113914632D01*
X148350477Y-113974212D01*
X148197738Y-114070185D01*
X148070185Y-114197738D01*
X147974212Y-114350477D01*
X147914632Y-114520746D01*
X147914631Y-114520751D01*
X147894436Y-114699997D01*
X147894436Y-114700004D01*
X147914631Y-114879250D01*
X147914632Y-114879255D01*
X147974212Y-115049525D01*
X148040494Y-115155010D01*
X148059501Y-115220983D01*
X148059501Y-115370122D01*
X148039816Y-115437161D01*
X148033484Y-115446117D01*
X148031922Y-115448129D01*
X147948256Y-115589603D01*
X147948255Y-115589606D01*
X147902403Y-115747426D01*
X147902402Y-115747432D01*
X147899501Y-115784298D01*
X147899501Y-116880796D01*
X147879816Y-116947835D01*
X147827012Y-116993590D01*
X147822954Y-116995357D01*
X147808412Y-117001380D01*
X147808411Y-117001380D01*
X147697781Y-117075301D01*
X147697773Y-117075307D01*
X146612807Y-118160273D01*
X146612804Y-118160277D01*
X146538883Y-118270907D01*
X146538878Y-118270917D01*
X146487959Y-118393846D01*
X146487957Y-118393853D01*
X146467320Y-118497607D01*
X146467300Y-118497708D01*
X146465601Y-118506249D01*
X146462000Y-118524352D01*
X146462000Y-119968837D01*
X146442315Y-120035876D01*
X146425681Y-120056518D01*
X146094018Y-120388181D01*
X146032695Y-120421666D01*
X146006337Y-120424500D01*
X145697989Y-120424500D01*
X145630950Y-120404815D01*
X145585195Y-120352011D01*
X145575251Y-120282853D01*
X145592450Y-120235403D01*
X145599462Y-120224035D01*
X145637549Y-120162287D01*
X145690436Y-120002685D01*
X145700500Y-119904174D01*
X145700500Y-119295826D01*
X145690436Y-119197315D01*
X145637549Y-119037713D01*
X145637545Y-119037707D01*
X145637544Y-119037704D01*
X145560538Y-118912859D01*
X145542097Y-118845467D01*
X145560537Y-118782665D01*
X145637003Y-118658697D01*
X145690349Y-118497708D01*
X145700500Y-118398345D01*
X145700499Y-117801656D01*
X145692477Y-117723129D01*
X145690349Y-117702292D01*
X145690348Y-117702289D01*
X145684299Y-117684035D01*
X145637003Y-117541303D01*
X145636999Y-117541297D01*
X145636998Y-117541294D01*
X145547970Y-117396959D01*
X145547967Y-117396955D01*
X145428044Y-117277032D01*
X145428040Y-117277029D01*
X145283705Y-117188001D01*
X145283699Y-117187998D01*
X145283697Y-117187997D01*
X145282433Y-117187578D01*
X145122709Y-117134651D01*
X145023352Y-117124500D01*
X145023345Y-117124500D01*
X144781163Y-117124500D01*
X144714124Y-117104815D01*
X144693482Y-117088181D01*
X144417996Y-116812695D01*
X144384511Y-116751372D01*
X144386602Y-116690416D01*
X144393225Y-116667620D01*
X144397598Y-116652569D01*
X144400500Y-116615694D01*
X144400500Y-115459306D01*
X144397598Y-115422431D01*
X144351744Y-115264602D01*
X144268081Y-115123135D01*
X144268078Y-115123132D01*
X144263298Y-115116969D01*
X144264982Y-115115662D01*
X144236757Y-115063972D01*
X144241741Y-114994280D01*
X144273752Y-114946557D01*
X144299998Y-114922295D01*
X144800000Y-114922295D01*
X144800001Y-114922295D01*
X144802486Y-114922100D01*
X144960198Y-114876281D01*
X145101552Y-114792685D01*
X145101561Y-114792678D01*
X145217678Y-114676561D01*
X145217685Y-114676552D01*
X145301282Y-114535196D01*
X145301283Y-114535193D01*
X145347099Y-114377495D01*
X145347100Y-114377489D01*
X145349999Y-114340649D01*
X145350000Y-114340634D01*
X145350000Y-114012500D01*
X144800000Y-114012500D01*
X144800000Y-114922295D01*
X144299998Y-114922295D01*
X144300000Y-114922293D01*
X144300000Y-114012500D01*
X143750000Y-114012500D01*
X143750000Y-114340649D01*
X143752899Y-114377489D01*
X143752900Y-114377495D01*
X143798716Y-114535193D01*
X143798717Y-114535196D01*
X143886288Y-114683271D01*
X143884566Y-114684288D01*
X143906257Y-114739545D01*
X143892572Y-114808062D01*
X143844017Y-114858303D01*
X143782742Y-114874500D01*
X143417895Y-114874500D01*
X143350856Y-114854815D01*
X143305101Y-114802011D01*
X143295157Y-114732853D01*
X143315671Y-114684503D01*
X143314110Y-114683580D01*
X143352422Y-114618797D01*
X143401744Y-114535398D01*
X143447598Y-114377569D01*
X143450500Y-114340694D01*
X143450500Y-113184306D01*
X143447598Y-113147431D01*
X143443309Y-113132669D01*
X143402406Y-112991880D01*
X143402605Y-112922011D01*
X143440547Y-112863341D01*
X143456373Y-112851755D01*
X143503044Y-112822968D01*
X143512668Y-112813343D01*
X143573987Y-112779856D01*
X143643679Y-112784835D01*
X143688034Y-112813339D01*
X143697268Y-112822573D01*
X143744199Y-112851520D01*
X143790924Y-112903468D01*
X143802147Y-112972430D01*
X143798180Y-112991653D01*
X143752899Y-113147510D01*
X143750000Y-113184350D01*
X143750000Y-113512500D01*
X144300000Y-113512500D01*
X144300000Y-113018000D01*
X144249000Y-113018000D01*
X144181961Y-112998315D01*
X144136206Y-112945511D01*
X144125000Y-112894000D01*
X144125000Y-112557000D01*
X144625000Y-112557000D01*
X144676000Y-112557000D01*
X144743039Y-112576685D01*
X144788794Y-112629489D01*
X144800000Y-112681000D01*
X144800000Y-113512500D01*
X145350000Y-113512500D01*
X145350000Y-113184365D01*
X145349999Y-113184350D01*
X145347100Y-113147510D01*
X145347099Y-113147504D01*
X145301283Y-112989806D01*
X145301282Y-112989803D01*
X145217685Y-112848447D01*
X145217678Y-112848438D01*
X145203523Y-112834283D01*
X145170038Y-112772960D01*
X145175022Y-112703268D01*
X145185666Y-112681504D01*
X145261544Y-112558488D01*
X145261547Y-112558481D01*
X145314855Y-112397606D01*
X145324999Y-112298322D01*
X145325000Y-112298309D01*
X145325000Y-112250000D01*
X144625000Y-112250000D01*
X144625000Y-112557000D01*
X144125000Y-112557000D01*
X144125000Y-111750000D01*
X144625000Y-111750000D01*
X145324999Y-111750000D01*
X145324999Y-111701692D01*
X145324998Y-111701677D01*
X145314855Y-111602392D01*
X145261547Y-111441518D01*
X145261542Y-111441507D01*
X145172575Y-111297271D01*
X145172572Y-111297267D01*
X145052732Y-111177427D01*
X145052728Y-111177424D01*
X144908492Y-111088457D01*
X144908481Y-111088452D01*
X144747606Y-111035144D01*
X144648322Y-111025000D01*
X144625000Y-111025000D01*
X144625000Y-111750000D01*
X144125000Y-111750000D01*
X144125000Y-111024999D01*
X144101693Y-111025000D01*
X144101674Y-111025001D01*
X144002392Y-111035144D01*
X143841518Y-111088452D01*
X143841507Y-111088457D01*
X143697271Y-111177424D01*
X143697265Y-111177428D01*
X143688031Y-111186663D01*
X143626707Y-111220146D01*
X143557015Y-111215159D01*
X143512672Y-111186660D01*
X143509217Y-111183205D01*
X143475732Y-111121882D01*
X143480716Y-111052190D01*
X143489503Y-111033539D01*
X143527179Y-110968284D01*
X143585674Y-110788256D01*
X143605460Y-110600000D01*
X143585674Y-110411744D01*
X143527179Y-110231716D01*
X143432533Y-110067784D01*
X143305871Y-109927112D01*
X143305870Y-109927111D01*
X143152734Y-109815851D01*
X143152729Y-109815848D01*
X143011075Y-109752779D01*
X142957838Y-109707529D01*
X142937517Y-109640680D01*
X142956563Y-109573456D01*
X143008929Y-109527201D01*
X143061511Y-109515500D01*
X143380492Y-109515500D01*
X143380492Y-109515499D01*
X143455902Y-109500500D01*
X143455903Y-109500500D01*
X143467338Y-109498225D01*
X143501336Y-109491463D01*
X143537549Y-109476463D01*
X143615170Y-109444312D01*
X143666393Y-109410084D01*
X143717617Y-109375858D01*
X143804742Y-109288733D01*
X143804743Y-109288731D01*
X143811809Y-109281665D01*
X143811812Y-109281661D01*
X144206083Y-108887390D01*
X144267406Y-108853905D01*
X144337098Y-108858889D01*
X144381445Y-108887390D01*
X145333387Y-109839332D01*
X145333397Y-109839341D01*
X145380072Y-109876956D01*
X145510988Y-109936744D01*
X145530823Y-109939595D01*
X145552231Y-109942673D01*
X145615788Y-109971696D01*
X145653563Y-110030474D01*
X145657325Y-110047763D01*
X145663255Y-110089006D01*
X145663257Y-110089014D01*
X145723041Y-110219922D01*
X145723045Y-110219929D01*
X145732543Y-110231715D01*
X145760663Y-110266609D01*
X146889026Y-111394971D01*
X146889030Y-111394974D01*
X146889032Y-111394976D01*
X146935707Y-111432591D01*
X147066621Y-111492378D01*
X147066622Y-111492378D01*
X147066624Y-111492379D01*
X147209081Y-111512860D01*
X147351539Y-111492379D01*
X147482454Y-111432591D01*
X147529137Y-111394972D01*
X147713528Y-111210580D01*
X147774851Y-111177095D01*
X147844542Y-111182079D01*
X147900476Y-111223950D01*
X147905302Y-111230877D01*
X147905843Y-111231714D01*
X147938536Y-111271847D01*
X147965615Y-111336256D01*
X147953572Y-111405080D01*
X147930079Y-111437843D01*
X147870183Y-111497739D01*
X147774211Y-111650476D01*
X147714631Y-111820745D01*
X147714630Y-111820750D01*
X147694435Y-111999996D01*
X147694435Y-112000003D01*
X147714630Y-112179249D01*
X147714631Y-112179254D01*
X147774211Y-112349523D01*
X147848967Y-112468495D01*
X147870184Y-112502262D01*
X147997738Y-112629816D01*
X148066287Y-112672888D01*
X148145243Y-112722500D01*
X148150478Y-112725789D01*
X148285285Y-112772960D01*
X148320745Y-112785368D01*
X148320750Y-112785369D01*
X148499996Y-112805565D01*
X148500000Y-112805565D01*
X148500004Y-112805565D01*
X148679249Y-112785369D01*
X148679252Y-112785368D01*
X148679255Y-112785368D01*
X148849522Y-112725789D01*
X149002262Y-112629816D01*
X149129816Y-112502262D01*
X149225789Y-112349522D01*
X149285368Y-112179255D01*
X149290672Y-112132177D01*
X149317737Y-112067765D01*
X149326214Y-112058377D01*
X149328723Y-112055867D01*
X149337850Y-112046741D01*
X149406303Y-111944294D01*
X149406304Y-111944293D01*
X149406305Y-111944290D01*
X149406307Y-111944287D01*
X149406307Y-111944285D01*
X149453455Y-111830459D01*
X149453799Y-111828733D01*
X149477492Y-111709614D01*
X149477492Y-111653434D01*
X149497177Y-111586395D01*
X149513807Y-111565757D01*
X149735057Y-111344507D01*
X149798141Y-111267068D01*
X149874256Y-111115511D01*
X149913368Y-110950485D01*
X149913368Y-110936868D01*
X149933053Y-110869829D01*
X149985857Y-110824074D01*
X150037368Y-110812868D01*
X150050424Y-110812868D01*
X150215342Y-110773781D01*
X150366786Y-110697723D01*
X150366793Y-110697718D01*
X150444165Y-110634691D01*
X150444180Y-110634677D01*
X150762819Y-110316038D01*
X150824142Y-110282553D01*
X150893833Y-110287537D01*
X150949767Y-110329408D01*
X150974184Y-110394873D01*
X150974500Y-110403719D01*
X150974500Y-110945493D01*
X150979033Y-110968281D01*
X150979033Y-110968283D01*
X150995723Y-111052190D01*
X150998537Y-111066336D01*
X151004824Y-111081513D01*
X151009870Y-111093696D01*
X151009870Y-111093697D01*
X151045685Y-111180165D01*
X151045687Y-111180168D01*
X151045688Y-111180170D01*
X151055328Y-111194596D01*
X151075949Y-111225457D01*
X151075950Y-111225459D01*
X151114141Y-111282617D01*
X151205586Y-111374062D01*
X151205608Y-111374082D01*
X156010481Y-116178955D01*
X156043966Y-116240278D01*
X156042288Y-116263736D01*
X156600000Y-116821447D01*
X157752031Y-117973479D01*
X157807189Y-117932187D01*
X157807190Y-117932186D01*
X157893352Y-117817088D01*
X157893354Y-117817086D01*
X157943596Y-117682379D01*
X157943598Y-117682372D01*
X157949999Y-117622844D01*
X157950000Y-117622827D01*
X157950000Y-117149500D01*
X157969685Y-117082461D01*
X158022489Y-117036706D01*
X158074000Y-117025500D01*
X160101272Y-117025500D01*
X160168311Y-117045185D01*
X160213654Y-117097095D01*
X160255964Y-117187829D01*
X160255965Y-117187831D01*
X160361242Y-117338182D01*
X160390948Y-117380606D01*
X160391501Y-117381395D01*
X160391506Y-117381402D01*
X160558597Y-117548493D01*
X160558603Y-117548498D01*
X160744594Y-117678730D01*
X160788219Y-117733307D01*
X160795413Y-117802805D01*
X160763890Y-117865160D01*
X160744595Y-117881880D01*
X160558922Y-118011890D01*
X160558920Y-118011891D01*
X160391891Y-118178920D01*
X160391886Y-118178926D01*
X160256400Y-118372420D01*
X160256399Y-118372422D01*
X160156570Y-118586507D01*
X160156567Y-118586513D01*
X160099364Y-118799999D01*
X160099364Y-118800000D01*
X160996988Y-118800000D01*
X160964075Y-118857007D01*
X160930000Y-118984174D01*
X160930000Y-119115826D01*
X160964075Y-119242993D01*
X160996988Y-119300000D01*
X160099364Y-119300000D01*
X160156567Y-119513486D01*
X160156570Y-119513492D01*
X160256399Y-119727578D01*
X160391894Y-119921082D01*
X160558917Y-120088105D01*
X160745031Y-120218425D01*
X160788656Y-120273003D01*
X160795848Y-120342501D01*
X160764326Y-120404856D01*
X160745031Y-120421575D01*
X160558922Y-120551890D01*
X160558920Y-120551891D01*
X160391891Y-120718920D01*
X160391886Y-120718926D01*
X160256400Y-120912420D01*
X160256399Y-120912422D01*
X160156570Y-121126507D01*
X160156567Y-121126513D01*
X160099364Y-121339999D01*
X160099364Y-121340000D01*
X160996988Y-121340000D01*
X160964075Y-121397007D01*
X160930000Y-121524174D01*
X160930000Y-121655826D01*
X160964075Y-121782993D01*
X160996988Y-121840000D01*
X160099364Y-121840000D01*
X160156567Y-122053486D01*
X160156570Y-122053492D01*
X160256399Y-122267578D01*
X160391894Y-122461082D01*
X160513946Y-122583134D01*
X160547431Y-122644457D01*
X160542447Y-122714149D01*
X160500575Y-122770082D01*
X160469598Y-122786997D01*
X160337671Y-122836202D01*
X160337664Y-122836206D01*
X160222455Y-122922452D01*
X160222452Y-122922455D01*
X160136206Y-123037664D01*
X160136202Y-123037671D01*
X160085908Y-123172517D01*
X160081588Y-123212704D01*
X160079501Y-123232123D01*
X160079500Y-123232135D01*
X160079500Y-125027870D01*
X160079501Y-125027876D01*
X160085908Y-125087483D01*
X160136202Y-125222328D01*
X160136206Y-125222335D01*
X160222452Y-125337544D01*
X160222455Y-125337547D01*
X160337664Y-125423793D01*
X160337671Y-125423797D01*
X160472517Y-125474091D01*
X160472516Y-125474091D01*
X160479444Y-125474835D01*
X160532127Y-125480500D01*
X162327872Y-125480499D01*
X162387483Y-125474091D01*
X162522331Y-125423796D01*
X162637546Y-125337546D01*
X162723796Y-125222331D01*
X162774091Y-125087483D01*
X162780500Y-125027873D01*
X162780499Y-123232128D01*
X162774091Y-123172517D01*
X162723796Y-123037669D01*
X162723795Y-123037668D01*
X162723793Y-123037664D01*
X162637547Y-122922455D01*
X162637544Y-122922452D01*
X162522335Y-122836206D01*
X162522328Y-122836202D01*
X162390401Y-122786997D01*
X162334467Y-122745126D01*
X162310050Y-122679662D01*
X162324902Y-122611389D01*
X162346053Y-122583133D01*
X162468108Y-122461078D01*
X162603600Y-122267578D01*
X162703429Y-122053492D01*
X162703432Y-122053486D01*
X162760636Y-121840000D01*
X161863012Y-121840000D01*
X161895925Y-121782993D01*
X161930000Y-121655826D01*
X161930000Y-121524174D01*
X161895925Y-121397007D01*
X161863012Y-121340000D01*
X162760636Y-121340000D01*
X162760635Y-121339999D01*
X162703432Y-121126513D01*
X162703429Y-121126507D01*
X162603600Y-120912422D01*
X162603599Y-120912420D01*
X162468113Y-120718926D01*
X162468108Y-120718920D01*
X162301082Y-120551894D01*
X162114968Y-120421575D01*
X162071344Y-120366998D01*
X162064151Y-120297499D01*
X162095673Y-120235145D01*
X162114968Y-120218425D01*
X162301082Y-120088105D01*
X162468105Y-119921082D01*
X162603600Y-119727578D01*
X162703429Y-119513492D01*
X162703432Y-119513486D01*
X162760636Y-119300000D01*
X161863012Y-119300000D01*
X161895925Y-119242993D01*
X161930000Y-119115826D01*
X161930000Y-118984174D01*
X161895925Y-118857007D01*
X161863012Y-118800000D01*
X162760636Y-118800000D01*
X162760635Y-118799999D01*
X162703432Y-118586513D01*
X162703429Y-118586507D01*
X162603600Y-118372422D01*
X162603599Y-118372420D01*
X162468113Y-118178926D01*
X162468108Y-118178920D01*
X162301078Y-118011890D01*
X162115405Y-117881879D01*
X162071780Y-117827302D01*
X162064588Y-117757804D01*
X162096110Y-117695449D01*
X162115406Y-117678730D01*
X162116279Y-117678119D01*
X162301401Y-117548495D01*
X162468495Y-117381401D01*
X162604035Y-117187830D01*
X162703903Y-116973663D01*
X162765063Y-116745408D01*
X162785659Y-116510000D01*
X162765063Y-116274592D01*
X162703903Y-116046337D01*
X162604035Y-115832171D01*
X162570515Y-115784298D01*
X162468494Y-115638597D01*
X162301402Y-115471506D01*
X162301396Y-115471501D01*
X162115842Y-115341575D01*
X162072217Y-115286998D01*
X162065023Y-115217500D01*
X162096546Y-115155145D01*
X162115842Y-115138425D01*
X162217637Y-115067147D01*
X162301401Y-115008495D01*
X162468495Y-114841401D01*
X162604035Y-114647830D01*
X162703903Y-114433663D01*
X162765063Y-114205408D01*
X162785659Y-113970000D01*
X162765063Y-113734592D01*
X162703903Y-113506337D01*
X162604035Y-113292171D01*
X162594636Y-113278747D01*
X162468494Y-113098597D01*
X162301402Y-112931506D01*
X162301396Y-112931501D01*
X162115842Y-112801575D01*
X162072217Y-112746998D01*
X162065023Y-112677500D01*
X162096546Y-112615145D01*
X162115842Y-112598425D01*
X162175003Y-112557000D01*
X162301401Y-112468495D01*
X162468495Y-112301401D01*
X162604035Y-112107830D01*
X162703903Y-111893663D01*
X162765063Y-111665408D01*
X162785659Y-111430000D01*
X162765063Y-111194592D01*
X162704425Y-110968284D01*
X162703905Y-110966344D01*
X162703904Y-110966343D01*
X162703903Y-110966337D01*
X162604035Y-110752171D01*
X162565911Y-110697723D01*
X162468494Y-110558597D01*
X162301402Y-110391506D01*
X162301396Y-110391501D01*
X162115842Y-110261575D01*
X162072217Y-110206998D01*
X162065023Y-110137500D01*
X162096546Y-110075145D01*
X162115842Y-110058425D01*
X162155760Y-110030474D01*
X162301401Y-109928495D01*
X162468495Y-109761401D01*
X162604035Y-109567830D01*
X162703903Y-109353663D01*
X162765063Y-109125408D01*
X162785659Y-108890000D01*
X162765063Y-108654592D01*
X162703903Y-108426337D01*
X162604035Y-108212171D01*
X162603652Y-108211623D01*
X162468494Y-108018597D01*
X162301402Y-107851506D01*
X162301396Y-107851501D01*
X162115842Y-107721575D01*
X162072217Y-107666998D01*
X162065023Y-107597500D01*
X162096546Y-107535145D01*
X162115842Y-107518425D01*
X162138026Y-107502891D01*
X162301401Y-107388495D01*
X162468495Y-107221401D01*
X162604035Y-107027830D01*
X162703903Y-106813663D01*
X162765063Y-106585408D01*
X162785659Y-106350000D01*
X162765063Y-106114592D01*
X162703903Y-105886337D01*
X162604035Y-105672171D01*
X162578159Y-105635215D01*
X162468494Y-105478597D01*
X162301402Y-105311506D01*
X162301396Y-105311501D01*
X162115842Y-105181575D01*
X162072217Y-105126998D01*
X162065023Y-105057500D01*
X162096546Y-104995145D01*
X162115842Y-104978425D01*
X162219038Y-104906166D01*
X162301401Y-104848495D01*
X162468495Y-104681401D01*
X162604035Y-104487830D01*
X162703903Y-104273663D01*
X162765063Y-104045408D01*
X162785659Y-103810000D01*
X162765063Y-103574592D01*
X162705103Y-103350816D01*
X162703905Y-103346344D01*
X162703904Y-103346343D01*
X162703903Y-103346337D01*
X162604035Y-103132171D01*
X162507121Y-102993762D01*
X162468494Y-102938597D01*
X162301402Y-102771506D01*
X162301396Y-102771501D01*
X162115842Y-102641575D01*
X162072217Y-102586998D01*
X162065023Y-102517500D01*
X162096546Y-102455145D01*
X162115842Y-102438425D01*
X162138026Y-102422891D01*
X162301401Y-102308495D01*
X162468495Y-102141401D01*
X162604035Y-101947830D01*
X162703903Y-101733663D01*
X162765063Y-101505408D01*
X162785659Y-101270000D01*
X162765063Y-101034592D01*
X162710532Y-100831076D01*
X162703905Y-100806344D01*
X162703904Y-100806343D01*
X162703903Y-100806337D01*
X162604035Y-100592171D01*
X162592952Y-100576342D01*
X162468494Y-100398597D01*
X162301402Y-100231506D01*
X162301396Y-100231501D01*
X162115842Y-100101575D01*
X162072217Y-100046998D01*
X162065023Y-99977500D01*
X162096546Y-99915145D01*
X162115842Y-99898425D01*
X162223341Y-99823153D01*
X162301401Y-99768495D01*
X162468495Y-99601401D01*
X162604035Y-99407830D01*
X162703903Y-99193663D01*
X162765063Y-98965408D01*
X162785659Y-98730000D01*
X162765063Y-98494592D01*
X162703903Y-98266337D01*
X162604035Y-98052171D01*
X162468495Y-97858599D01*
X162468494Y-97858597D01*
X162301402Y-97691506D01*
X162301396Y-97691501D01*
X162115842Y-97561575D01*
X162072217Y-97506998D01*
X162065023Y-97437500D01*
X162096546Y-97375145D01*
X162115842Y-97358425D01*
X162152362Y-97332853D01*
X162301401Y-97228495D01*
X162468495Y-97061401D01*
X162604035Y-96867830D01*
X162703903Y-96653663D01*
X162765063Y-96425408D01*
X162785659Y-96190000D01*
X162765063Y-95954592D01*
X162710372Y-95750479D01*
X162703905Y-95726344D01*
X162703904Y-95726343D01*
X162703903Y-95726337D01*
X162604035Y-95512171D01*
X162507434Y-95374209D01*
X162468494Y-95318597D01*
X162301402Y-95151506D01*
X162301396Y-95151501D01*
X162115842Y-95021575D01*
X162072217Y-94966998D01*
X162065023Y-94897500D01*
X162096546Y-94835145D01*
X162115842Y-94818425D01*
X162213563Y-94750000D01*
X162301401Y-94688495D01*
X162468495Y-94521401D01*
X162604035Y-94327830D01*
X162703903Y-94113663D01*
X162765063Y-93885408D01*
X162785659Y-93650000D01*
X162765063Y-93414592D01*
X162703903Y-93186337D01*
X162604035Y-92972171D01*
X162603652Y-92971623D01*
X162468494Y-92778597D01*
X162301402Y-92611506D01*
X162301396Y-92611501D01*
X162115842Y-92481575D01*
X162072217Y-92426998D01*
X162065023Y-92357500D01*
X162096546Y-92295145D01*
X162115842Y-92278425D01*
X162138026Y-92262891D01*
X162301401Y-92148495D01*
X162468495Y-91981401D01*
X162604035Y-91787830D01*
X162703903Y-91573663D01*
X162765063Y-91345408D01*
X162785659Y-91110000D01*
X162765063Y-90874592D01*
X162703903Y-90646337D01*
X162604035Y-90432171D01*
X162603652Y-90431623D01*
X162468494Y-90238597D01*
X162301402Y-90071506D01*
X162301396Y-90071501D01*
X162115842Y-89941575D01*
X162072217Y-89886998D01*
X162065023Y-89817500D01*
X162096546Y-89755145D01*
X162115842Y-89738425D01*
X162173850Y-89697807D01*
X162301401Y-89608495D01*
X162468495Y-89441401D01*
X162604035Y-89247830D01*
X162703903Y-89033663D01*
X162765063Y-88805408D01*
X162785659Y-88570000D01*
X162765063Y-88334592D01*
X162703903Y-88106337D01*
X162604035Y-87892171D01*
X162602386Y-87889815D01*
X162468494Y-87698597D01*
X162301402Y-87531506D01*
X162301396Y-87531501D01*
X162115842Y-87401575D01*
X162072217Y-87346998D01*
X162065023Y-87277500D01*
X162096546Y-87215145D01*
X162115842Y-87198425D01*
X162138026Y-87182891D01*
X162301401Y-87068495D01*
X162468495Y-86901401D01*
X162604035Y-86707830D01*
X162703903Y-86493663D01*
X162765063Y-86265408D01*
X162785659Y-86030000D01*
X162765063Y-85794592D01*
X162703903Y-85566337D01*
X162604035Y-85352171D01*
X162549324Y-85274034D01*
X162468494Y-85158597D01*
X162301402Y-84991506D01*
X162301396Y-84991501D01*
X162115842Y-84861575D01*
X162072217Y-84806998D01*
X162065023Y-84737500D01*
X162096546Y-84675145D01*
X162115842Y-84658425D01*
X162199281Y-84600000D01*
X162301401Y-84528495D01*
X162468495Y-84361401D01*
X162604035Y-84167830D01*
X162703903Y-83953663D01*
X162765063Y-83725408D01*
X162785659Y-83490000D01*
X162765063Y-83254592D01*
X162703903Y-83026337D01*
X162604035Y-82812171D01*
X162600169Y-82806649D01*
X162468494Y-82618597D01*
X162301402Y-82451506D01*
X162301401Y-82451505D01*
X162115405Y-82321269D01*
X162071781Y-82266692D01*
X162064588Y-82197193D01*
X162096110Y-82134839D01*
X162115405Y-82118119D01*
X162301082Y-81988105D01*
X162468105Y-81821082D01*
X162603600Y-81627578D01*
X162703429Y-81413492D01*
X162703432Y-81413486D01*
X162760636Y-81200000D01*
X161863012Y-81200000D01*
X161895925Y-81142993D01*
X161930000Y-81015826D01*
X161930000Y-80884174D01*
X161895925Y-80757007D01*
X161863012Y-80700000D01*
X162760636Y-80700000D01*
X162760635Y-80699999D01*
X162703432Y-80486513D01*
X162703429Y-80486507D01*
X162603600Y-80272422D01*
X162603599Y-80272420D01*
X162468113Y-80078926D01*
X162468108Y-80078920D01*
X162301082Y-79911894D01*
X162114968Y-79781575D01*
X162071344Y-79726998D01*
X162064151Y-79657499D01*
X162095673Y-79595145D01*
X162114968Y-79578425D01*
X162301082Y-79448105D01*
X162468105Y-79281082D01*
X162603600Y-79087578D01*
X162703429Y-78873492D01*
X162703432Y-78873486D01*
X162760636Y-78660000D01*
X161863012Y-78660000D01*
X161895925Y-78602993D01*
X161930000Y-78475826D01*
X161930000Y-78344174D01*
X161895925Y-78217007D01*
X161863012Y-78160000D01*
X162760636Y-78160000D01*
X162760635Y-78159999D01*
X162703432Y-77946513D01*
X162703429Y-77946507D01*
X162603600Y-77732422D01*
X162603599Y-77732420D01*
X162468113Y-77538926D01*
X162468108Y-77538920D01*
X162301078Y-77371890D01*
X162115405Y-77241879D01*
X162071780Y-77187302D01*
X162064588Y-77117804D01*
X162096110Y-77055449D01*
X162115406Y-77038730D01*
X162301401Y-76908495D01*
X162468495Y-76741401D01*
X162604035Y-76547830D01*
X162703903Y-76333663D01*
X162765063Y-76105408D01*
X162785659Y-75870000D01*
X162765063Y-75634592D01*
X162703903Y-75406337D01*
X162604035Y-75192171D01*
X162468495Y-74998599D01*
X162468494Y-74998597D01*
X162301402Y-74831506D01*
X162301395Y-74831501D01*
X162107834Y-74695967D01*
X162107830Y-74695965D01*
X162107828Y-74695964D01*
X161893663Y-74596097D01*
X161893659Y-74596096D01*
X161893655Y-74596094D01*
X161665413Y-74534938D01*
X161665403Y-74534936D01*
X161430001Y-74514341D01*
X161429999Y-74514341D01*
X161194596Y-74534936D01*
X161194586Y-74534938D01*
X160966344Y-74596094D01*
X160966335Y-74596098D01*
X160752171Y-74695964D01*
X160752169Y-74695965D01*
X160558597Y-74831505D01*
X160391505Y-74998597D01*
X160255965Y-75192169D01*
X160255964Y-75192171D01*
X160156098Y-75406335D01*
X160156094Y-75406344D01*
X160094938Y-75634586D01*
X160094936Y-75634596D01*
X160074341Y-75869999D01*
X160074341Y-75870000D01*
X160094936Y-76105403D01*
X160094938Y-76105413D01*
X160156094Y-76333655D01*
X160156096Y-76333659D01*
X160156097Y-76333663D01*
X160255965Y-76547830D01*
X160255967Y-76547834D01*
X160391501Y-76741395D01*
X160391506Y-76741402D01*
X160558597Y-76908493D01*
X160558603Y-76908498D01*
X160744594Y-77038730D01*
X160788219Y-77093307D01*
X160795413Y-77162805D01*
X160763890Y-77225160D01*
X160744595Y-77241880D01*
X160558922Y-77371890D01*
X160558920Y-77371891D01*
X160391891Y-77538920D01*
X160391886Y-77538926D01*
X160256400Y-77732420D01*
X160256399Y-77732422D01*
X160156570Y-77946507D01*
X160156567Y-77946513D01*
X160099364Y-78159999D01*
X160099364Y-78160000D01*
X160996988Y-78160000D01*
X160964075Y-78217007D01*
X160930000Y-78344174D01*
X160930000Y-78475826D01*
X160964075Y-78602993D01*
X160996988Y-78660000D01*
X160099364Y-78660000D01*
X160156567Y-78873486D01*
X160156570Y-78873492D01*
X160256399Y-79087578D01*
X160391894Y-79281082D01*
X160558917Y-79448105D01*
X160745031Y-79578425D01*
X160788656Y-79633003D01*
X160795848Y-79702501D01*
X160764326Y-79764856D01*
X160745031Y-79781575D01*
X160558922Y-79911890D01*
X160558920Y-79911891D01*
X160391891Y-80078920D01*
X160391886Y-80078926D01*
X160256400Y-80272420D01*
X160256399Y-80272422D01*
X160156570Y-80486507D01*
X160156567Y-80486513D01*
X160099364Y-80699999D01*
X160099364Y-80700000D01*
X160996988Y-80700000D01*
X160964075Y-80757007D01*
X160930000Y-80884174D01*
X160930000Y-81015826D01*
X160964075Y-81142993D01*
X160996988Y-81200000D01*
X160099364Y-81200000D01*
X160156567Y-81413486D01*
X160156570Y-81413492D01*
X160256399Y-81627578D01*
X160391894Y-81821082D01*
X160558917Y-81988105D01*
X160744595Y-82118119D01*
X160788219Y-82172696D01*
X160795412Y-82242195D01*
X160763890Y-82304549D01*
X160744595Y-82321269D01*
X160558594Y-82451508D01*
X160391505Y-82618597D01*
X160255965Y-82812169D01*
X160255964Y-82812171D01*
X160156098Y-83026335D01*
X160156094Y-83026344D01*
X160094938Y-83254586D01*
X160094936Y-83254596D01*
X160074341Y-83489999D01*
X160074341Y-83490000D01*
X160094936Y-83725403D01*
X160094938Y-83725413D01*
X160156094Y-83953655D01*
X160156096Y-83953659D01*
X160156097Y-83953663D01*
X160193640Y-84034174D01*
X160255964Y-84167829D01*
X160255965Y-84167830D01*
X160372127Y-84333727D01*
X160394454Y-84399931D01*
X160377444Y-84467699D01*
X160358233Y-84492530D01*
X155262646Y-89588117D01*
X155201323Y-89621602D01*
X155131631Y-89616618D01*
X155075698Y-89574746D01*
X155059082Y-89542223D01*
X155059057Y-89542235D01*
X155058823Y-89541716D01*
X155056578Y-89537321D01*
X155055978Y-89535394D01*
X154982680Y-89414146D01*
X154964846Y-89346596D01*
X154982680Y-89285854D01*
X155055978Y-89164606D01*
X155106586Y-89002196D01*
X155113000Y-88931616D01*
X155113000Y-88268384D01*
X155106586Y-88197804D01*
X155055978Y-88035394D01*
X154978304Y-87906906D01*
X154960469Y-87839355D01*
X154978882Y-87777664D01*
X155050049Y-87662287D01*
X155102936Y-87502685D01*
X155113000Y-87404174D01*
X155113000Y-86795826D01*
X155102936Y-86697315D01*
X155050049Y-86537713D01*
X155050045Y-86537707D01*
X155050044Y-86537704D01*
X154961783Y-86394612D01*
X154961780Y-86394608D01*
X154842891Y-86275719D01*
X154842887Y-86275716D01*
X154699795Y-86187455D01*
X154699789Y-86187452D01*
X154699787Y-86187451D01*
X154540185Y-86134564D01*
X154540183Y-86134563D01*
X154441681Y-86124500D01*
X154441674Y-86124500D01*
X153908326Y-86124500D01*
X153908318Y-86124500D01*
X153809816Y-86134563D01*
X153809815Y-86134564D01*
X153761796Y-86150476D01*
X153650215Y-86187450D01*
X153650204Y-86187455D01*
X153507112Y-86275716D01*
X153507107Y-86275719D01*
X153474827Y-86308000D01*
X153413503Y-86341485D01*
X153343812Y-86336499D01*
X153299467Y-86308000D01*
X153267580Y-86276114D01*
X153124577Y-86187908D01*
X153124572Y-86187906D01*
X152965083Y-86135057D01*
X152866650Y-86125000D01*
X152850000Y-86125000D01*
X152850000Y-87226000D01*
X152830315Y-87293039D01*
X152777511Y-87338794D01*
X152726000Y-87350000D01*
X151662501Y-87350000D01*
X151662501Y-87404152D01*
X151672556Y-87502583D01*
X151725406Y-87662072D01*
X151725411Y-87662083D01*
X151796405Y-87777181D01*
X151814846Y-87844573D01*
X151796984Y-87906427D01*
X151719023Y-88035391D01*
X151719022Y-88035393D01*
X151719022Y-88035394D01*
X151696916Y-88106335D01*
X151668413Y-88197807D01*
X151662000Y-88268386D01*
X151662000Y-88931613D01*
X151668413Y-89002192D01*
X151668413Y-89002194D01*
X151668414Y-89002196D01*
X151678220Y-89033664D01*
X151719022Y-89164606D01*
X151792317Y-89285850D01*
X151810153Y-89353405D01*
X151792317Y-89414150D01*
X151719022Y-89535393D01*
X151668413Y-89697807D01*
X151664551Y-89740315D01*
X151662000Y-89768384D01*
X151662000Y-90431616D01*
X151663923Y-90452778D01*
X151668413Y-90502192D01*
X151719022Y-90664606D01*
X151807030Y-90810188D01*
X151927311Y-90930469D01*
X151927313Y-90930470D01*
X151927315Y-90930472D01*
X151999058Y-90973842D01*
X152046246Y-91025370D01*
X152058084Y-91094230D01*
X152039902Y-91145931D01*
X151974211Y-91250476D01*
X151914631Y-91420745D01*
X151914630Y-91420750D01*
X151894435Y-91599996D01*
X151894435Y-91600003D01*
X151914630Y-91779249D01*
X151914631Y-91779254D01*
X151974211Y-91949523D01*
X152025663Y-92031408D01*
X152070184Y-92102262D01*
X152197738Y-92229816D01*
X152325982Y-92310397D01*
X152372273Y-92362732D01*
X152382921Y-92431785D01*
X152354546Y-92495634D01*
X152347692Y-92503071D01*
X152231285Y-92619480D01*
X151687584Y-93163181D01*
X151626261Y-93196666D01*
X151599903Y-93199500D01*
X150682412Y-93199500D01*
X150615373Y-93179815D01*
X150605097Y-93172445D01*
X150602263Y-93170185D01*
X150602262Y-93170184D01*
X150531944Y-93126000D01*
X150449523Y-93074211D01*
X150279254Y-93014631D01*
X150279249Y-93014630D01*
X150100004Y-92994435D01*
X150099996Y-92994435D01*
X149962882Y-93009883D01*
X149894060Y-92997828D01*
X149842681Y-92950479D01*
X149824999Y-92886663D01*
X149824999Y-92668417D01*
X149818591Y-92597897D01*
X149818590Y-92597892D01*
X149768018Y-92435603D01*
X149680072Y-92290122D01*
X149559877Y-92169927D01*
X149414395Y-92081980D01*
X149414396Y-92081980D01*
X149252105Y-92031409D01*
X149252106Y-92031409D01*
X149181572Y-92025000D01*
X149175000Y-92025000D01*
X149175000Y-93916638D01*
X149155315Y-93983677D01*
X149138681Y-94004319D01*
X149125000Y-94018000D01*
X149125000Y-94626000D01*
X149105315Y-94693039D01*
X149052511Y-94738794D01*
X149001000Y-94750000D01*
X148749000Y-94750000D01*
X148681961Y-94730315D01*
X148636206Y-94677511D01*
X148625000Y-94626000D01*
X148625000Y-93583362D01*
X148644685Y-93516323D01*
X148661319Y-93495681D01*
X148675000Y-93482000D01*
X148675000Y-92025000D01*
X148674999Y-92024999D01*
X148668436Y-92025000D01*
X148668417Y-92025001D01*
X148597897Y-92031408D01*
X148597892Y-92031409D01*
X148435603Y-92081981D01*
X148290124Y-92169926D01*
X148188034Y-92272016D01*
X148126711Y-92305500D01*
X148057019Y-92300516D01*
X148012671Y-92272014D01*
X147961818Y-92221160D01*
X147928334Y-92159837D01*
X147925500Y-92133480D01*
X147925500Y-91824500D01*
X147945185Y-91757461D01*
X147997989Y-91711706D01*
X148049500Y-91700500D01*
X148197871Y-91700500D01*
X148197872Y-91700500D01*
X148257483Y-91694092D01*
X148392331Y-91643797D01*
X148507546Y-91557547D01*
X148593796Y-91442332D01*
X148644091Y-91307484D01*
X148650500Y-91247874D01*
X148650499Y-90352129D01*
X148644091Y-90292518D01*
X148634766Y-90267517D01*
X148593797Y-90157672D01*
X148593793Y-90157665D01*
X148507547Y-90042456D01*
X148507544Y-90042453D01*
X148392335Y-89956207D01*
X148392328Y-89956203D01*
X148257482Y-89905909D01*
X148257483Y-89905909D01*
X148197883Y-89899502D01*
X148197881Y-89899501D01*
X148197873Y-89899501D01*
X148197864Y-89899501D01*
X146402129Y-89899501D01*
X146402123Y-89899502D01*
X146342516Y-89905909D01*
X146207671Y-89956203D01*
X146207664Y-89956207D01*
X146092455Y-90042453D01*
X146092452Y-90042456D01*
X146006206Y-90157665D01*
X146006202Y-90157672D01*
X145955908Y-90292518D01*
X145952187Y-90327136D01*
X145949501Y-90352124D01*
X145949500Y-90352136D01*
X145949500Y-91247871D01*
X145949501Y-91247877D01*
X145955908Y-91307484D01*
X146006202Y-91442329D01*
X146006206Y-91442336D01*
X146092452Y-91557545D01*
X146092455Y-91557548D01*
X146207664Y-91643794D01*
X146207671Y-91643798D01*
X146252618Y-91660562D01*
X146342517Y-91694092D01*
X146402127Y-91700501D01*
X146550500Y-91700500D01*
X146617539Y-91720184D01*
X146663294Y-91772988D01*
X146674500Y-91824500D01*
X146674500Y-92083480D01*
X146654815Y-92150519D01*
X146638181Y-92171161D01*
X146519531Y-92289810D01*
X146519530Y-92289811D01*
X146431522Y-92435393D01*
X146380913Y-92597807D01*
X146374500Y-92668386D01*
X146374500Y-93331613D01*
X146380913Y-93402192D01*
X146380913Y-93402194D01*
X146380914Y-93402196D01*
X146431522Y-93564606D01*
X146505120Y-93686352D01*
X146522956Y-93753904D01*
X146501439Y-93820378D01*
X146447398Y-93864666D01*
X146399003Y-93874500D01*
X145163800Y-93874500D01*
X145096761Y-93854815D01*
X145051006Y-93802011D01*
X145041062Y-93732853D01*
X145058262Y-93685403D01*
X145136542Y-93558492D01*
X145136547Y-93558481D01*
X145189855Y-93397606D01*
X145199999Y-93298322D01*
X145200000Y-93298309D01*
X145200000Y-93250000D01*
X144124000Y-93250000D01*
X144056961Y-93230315D01*
X144011206Y-93177511D01*
X144000000Y-93126000D01*
X144000000Y-92750000D01*
X144500000Y-92750000D01*
X145199999Y-92750000D01*
X145199999Y-92701692D01*
X145199998Y-92701677D01*
X145189855Y-92602392D01*
X145136547Y-92441518D01*
X145136542Y-92441507D01*
X145047575Y-92297271D01*
X145047572Y-92297267D01*
X144927732Y-92177427D01*
X144927728Y-92177424D01*
X144783492Y-92088457D01*
X144783481Y-92088452D01*
X144622606Y-92035144D01*
X144523322Y-92025000D01*
X144500000Y-92025000D01*
X144500000Y-92750000D01*
X144000000Y-92750000D01*
X144000000Y-92024999D01*
X143976693Y-92025000D01*
X143976674Y-92025001D01*
X143877392Y-92035144D01*
X143716518Y-92088452D01*
X143716507Y-92088457D01*
X143572271Y-92177424D01*
X143572264Y-92177430D01*
X143563028Y-92186665D01*
X143501703Y-92220146D01*
X143432011Y-92215157D01*
X143387672Y-92186659D01*
X143378046Y-92177033D01*
X143372590Y-92172719D01*
X143332213Y-92115697D01*
X143325500Y-92075452D01*
X143325500Y-91799500D01*
X143345185Y-91732461D01*
X143397989Y-91686706D01*
X143449500Y-91675500D01*
X143597871Y-91675500D01*
X143597872Y-91675500D01*
X143657483Y-91669092D01*
X143792331Y-91618797D01*
X143907546Y-91532547D01*
X143993796Y-91417332D01*
X144044091Y-91282484D01*
X144050500Y-91222874D01*
X144050499Y-90327129D01*
X144044091Y-90267518D01*
X144033304Y-90238597D01*
X143993797Y-90132672D01*
X143993793Y-90132665D01*
X143907547Y-90017456D01*
X143907544Y-90017453D01*
X143792335Y-89931207D01*
X143792328Y-89931203D01*
X143657482Y-89880909D01*
X143657483Y-89880909D01*
X143597883Y-89874502D01*
X143597881Y-89874501D01*
X143597873Y-89874501D01*
X143597864Y-89874501D01*
X141802129Y-89874501D01*
X141802123Y-89874502D01*
X141742516Y-89880909D01*
X141607671Y-89931203D01*
X141607664Y-89931207D01*
X141492455Y-90017453D01*
X141492452Y-90017456D01*
X141406206Y-90132665D01*
X141406202Y-90132672D01*
X141355908Y-90267518D01*
X141349501Y-90327117D01*
X141349501Y-90327124D01*
X141349500Y-90327136D01*
X141349500Y-91222871D01*
X141349501Y-91222877D01*
X141355908Y-91282484D01*
X141406202Y-91417329D01*
X141406206Y-91417336D01*
X141492452Y-91532545D01*
X141492455Y-91532548D01*
X141607664Y-91618794D01*
X141607671Y-91618798D01*
X141652618Y-91635562D01*
X141742517Y-91669092D01*
X141802127Y-91675501D01*
X141950500Y-91675500D01*
X142017539Y-91695184D01*
X142063294Y-91747988D01*
X142074500Y-91799500D01*
X142074500Y-92075452D01*
X142054815Y-92142491D01*
X142027410Y-92172719D01*
X142021958Y-92177029D01*
X141902029Y-92296959D01*
X141813001Y-92441294D01*
X141812996Y-92441305D01*
X141759651Y-92602290D01*
X141749500Y-92701647D01*
X141749500Y-93298337D01*
X141749501Y-93298355D01*
X141759650Y-93397707D01*
X141759651Y-93397710D01*
X141812996Y-93558694D01*
X141813001Y-93558705D01*
X141902029Y-93703040D01*
X141902032Y-93703044D01*
X141912702Y-93713714D01*
X141946187Y-93775037D01*
X141942063Y-93842348D01*
X141914631Y-93920745D01*
X141914631Y-93920746D01*
X141894435Y-94099996D01*
X141894435Y-94100003D01*
X141914630Y-94279249D01*
X141914631Y-94279254D01*
X141974211Y-94449523D01*
X142019376Y-94521402D01*
X142070184Y-94602262D01*
X142197738Y-94729816D01*
X142229861Y-94750000D01*
X142347686Y-94824035D01*
X142350478Y-94825789D01*
X142409970Y-94846606D01*
X142520745Y-94885368D01*
X142520750Y-94885369D01*
X142679919Y-94903303D01*
X142744333Y-94930369D01*
X142783889Y-94987964D01*
X142786026Y-95057801D01*
X142753718Y-95114204D01*
X142670183Y-95197739D01*
X142574211Y-95350476D01*
X142514631Y-95520745D01*
X142514630Y-95520750D01*
X142494435Y-95699996D01*
X142494435Y-95700500D01*
X142494342Y-95700813D01*
X142493655Y-95706919D01*
X142492585Y-95706798D01*
X142474750Y-95767539D01*
X142421946Y-95813294D01*
X142370435Y-95824500D01*
X141680452Y-95824500D01*
X141613413Y-95804815D01*
X141592771Y-95788181D01*
X139910237Y-94105647D01*
X139876752Y-94044324D01*
X139878143Y-93985872D01*
X139905063Y-93885408D01*
X139925659Y-93650000D01*
X139905063Y-93414592D01*
X139843903Y-93186337D01*
X139744035Y-92972171D01*
X139743652Y-92971623D01*
X139608494Y-92778597D01*
X139441402Y-92611506D01*
X139441396Y-92611501D01*
X139255842Y-92481575D01*
X139212217Y-92426998D01*
X139205023Y-92357500D01*
X139236546Y-92295145D01*
X139255842Y-92278425D01*
X139278026Y-92262891D01*
X139441401Y-92148495D01*
X139608495Y-91981401D01*
X139744035Y-91787830D01*
X139843903Y-91573663D01*
X139905063Y-91345408D01*
X139925659Y-91110000D01*
X139905063Y-90874592D01*
X139843903Y-90646337D01*
X139744035Y-90432171D01*
X139743652Y-90431623D01*
X139608494Y-90238597D01*
X139441402Y-90071506D01*
X139441396Y-90071501D01*
X139255842Y-89941575D01*
X139212217Y-89886998D01*
X139205023Y-89817500D01*
X139236546Y-89755145D01*
X139255842Y-89738425D01*
X139313850Y-89697807D01*
X139441401Y-89608495D01*
X139608495Y-89441401D01*
X139744035Y-89247830D01*
X139843903Y-89033663D01*
X139905063Y-88805408D01*
X139925659Y-88570000D01*
X139905063Y-88334592D01*
X139889095Y-88274998D01*
X142153552Y-88274998D01*
X142153553Y-88274999D01*
X143246447Y-88274999D01*
X143246447Y-88274998D01*
X142700000Y-87728552D01*
X142153552Y-88274998D01*
X139889095Y-88274998D01*
X139843903Y-88106337D01*
X139744035Y-87892171D01*
X139742386Y-87889815D01*
X139608494Y-87698597D01*
X139441402Y-87531506D01*
X139441396Y-87531501D01*
X139255842Y-87401575D01*
X139212217Y-87346998D01*
X139205023Y-87277500D01*
X139236546Y-87215145D01*
X139255842Y-87198425D01*
X139278026Y-87182891D01*
X139441401Y-87068495D01*
X139582742Y-86927154D01*
X141350000Y-86927154D01*
X141350000Y-87822843D01*
X141356401Y-87882371D01*
X141356403Y-87882378D01*
X141406645Y-88017085D01*
X141406649Y-88017092D01*
X141492808Y-88132184D01*
X141492813Y-88132189D01*
X141547967Y-88173478D01*
X141547968Y-88173477D01*
X142346447Y-87374999D01*
X142346446Y-87374998D01*
X143053553Y-87374998D01*
X143053553Y-87375000D01*
X143852031Y-88173478D01*
X143907189Y-88132186D01*
X143907190Y-88132185D01*
X143993352Y-88017087D01*
X143993354Y-88017085D01*
X144043596Y-87882378D01*
X144043598Y-87882371D01*
X144049999Y-87822843D01*
X144050000Y-87822826D01*
X144050000Y-86952134D01*
X145949500Y-86952134D01*
X145949500Y-87847869D01*
X145949501Y-87847875D01*
X145955908Y-87907482D01*
X146006202Y-88042327D01*
X146006206Y-88042334D01*
X146092452Y-88157543D01*
X146092455Y-88157546D01*
X146207664Y-88243792D01*
X146207671Y-88243796D01*
X146342517Y-88294090D01*
X146342516Y-88294090D01*
X146349444Y-88294834D01*
X146402127Y-88300499D01*
X148197872Y-88300498D01*
X148257483Y-88294090D01*
X148392331Y-88243795D01*
X148507546Y-88157545D01*
X148593796Y-88042330D01*
X148644091Y-87907482D01*
X148650500Y-87847872D01*
X148650499Y-86952127D01*
X148644091Y-86892516D01*
X148608037Y-86795849D01*
X151662500Y-86795849D01*
X151662500Y-86850000D01*
X152350000Y-86850000D01*
X152350000Y-86124999D01*
X152333356Y-86125000D01*
X152234915Y-86135057D01*
X152075427Y-86187906D01*
X152075422Y-86187908D01*
X151932419Y-86276114D01*
X151813614Y-86394919D01*
X151725408Y-86537922D01*
X151725406Y-86537927D01*
X151672557Y-86697416D01*
X151662500Y-86795849D01*
X148608037Y-86795849D01*
X148593796Y-86757668D01*
X148593795Y-86757667D01*
X148593793Y-86757663D01*
X148507547Y-86642454D01*
X148507544Y-86642451D01*
X148392335Y-86556205D01*
X148392328Y-86556201D01*
X148257483Y-86505907D01*
X148203209Y-86500072D01*
X148138658Y-86473333D01*
X148098811Y-86415940D01*
X148093246Y-86390665D01*
X148085369Y-86320750D01*
X148085368Y-86320745D01*
X148038886Y-86187908D01*
X148025789Y-86150478D01*
X148016099Y-86135057D01*
X147986582Y-86088080D01*
X147929816Y-85997738D01*
X147802262Y-85870184D01*
X147681965Y-85794596D01*
X147649523Y-85774211D01*
X147479254Y-85714631D01*
X147479249Y-85714630D01*
X147300004Y-85694435D01*
X147299996Y-85694435D01*
X147120750Y-85714630D01*
X147120745Y-85714631D01*
X146950476Y-85774211D01*
X146797737Y-85870184D01*
X146670184Y-85997737D01*
X146574210Y-86150478D01*
X146514630Y-86320750D01*
X146506753Y-86390667D01*
X146479687Y-86455081D01*
X146422092Y-86494637D01*
X146396787Y-86500074D01*
X146342516Y-86505908D01*
X146207671Y-86556201D01*
X146207664Y-86556205D01*
X146092455Y-86642451D01*
X146092452Y-86642454D01*
X146006206Y-86757663D01*
X146006202Y-86757670D01*
X145955908Y-86892516D01*
X145952183Y-86927171D01*
X145949501Y-86952122D01*
X145949500Y-86952134D01*
X144050000Y-86952134D01*
X144050000Y-86927171D01*
X144049999Y-86927154D01*
X144043598Y-86867626D01*
X144043596Y-86867619D01*
X143993354Y-86732912D01*
X143993350Y-86732905D01*
X143907191Y-86617813D01*
X143907186Y-86617808D01*
X143852031Y-86576518D01*
X143852031Y-86576519D01*
X143053553Y-87374998D01*
X142346446Y-87374998D01*
X141547967Y-86576519D01*
X141547966Y-86576519D01*
X141492810Y-86617810D01*
X141492809Y-86617811D01*
X141406649Y-86732905D01*
X141406645Y-86732912D01*
X141356403Y-86867619D01*
X141356401Y-86867626D01*
X141350000Y-86927154D01*
X139582742Y-86927154D01*
X139608495Y-86901401D01*
X139744035Y-86707830D01*
X139843903Y-86493663D01*
X139848904Y-86474999D01*
X142153552Y-86474999D01*
X142700000Y-87021446D01*
X143246447Y-86474999D01*
X142153552Y-86474999D01*
X139848904Y-86474999D01*
X139905063Y-86265408D01*
X139925659Y-86030000D01*
X139905063Y-85794592D01*
X139843903Y-85566337D01*
X139744035Y-85352171D01*
X139689324Y-85274034D01*
X139608494Y-85158597D01*
X139441402Y-84991506D01*
X139441396Y-84991501D01*
X139255842Y-84861575D01*
X139212217Y-84806998D01*
X139205023Y-84737500D01*
X139236546Y-84675145D01*
X139255842Y-84658425D01*
X139339281Y-84600000D01*
X139441401Y-84528495D01*
X139608495Y-84361401D01*
X139744035Y-84167830D01*
X139843903Y-83953663D01*
X139905063Y-83725408D01*
X139925659Y-83490000D01*
X139905063Y-83254592D01*
X139891013Y-83202155D01*
X144840000Y-83202155D01*
X144840000Y-83850000D01*
X145756988Y-83850000D01*
X145724075Y-83907007D01*
X145690000Y-84034174D01*
X145690000Y-84165826D01*
X145724075Y-84292993D01*
X145756988Y-84350000D01*
X144840000Y-84350000D01*
X144840000Y-84997844D01*
X144846401Y-85057372D01*
X144846403Y-85057379D01*
X144896645Y-85192086D01*
X144896649Y-85192093D01*
X144982809Y-85307187D01*
X144982812Y-85307190D01*
X145097906Y-85393350D01*
X145097913Y-85393354D01*
X145232620Y-85443596D01*
X145232627Y-85443598D01*
X145292155Y-85449999D01*
X145292172Y-85450000D01*
X145940000Y-85450000D01*
X145940000Y-84533012D01*
X145997007Y-84565925D01*
X146124174Y-84600000D01*
X146255826Y-84600000D01*
X146382993Y-84565925D01*
X146440000Y-84533012D01*
X146440000Y-85450000D01*
X147087828Y-85450000D01*
X147087844Y-85449999D01*
X147147372Y-85443598D01*
X147147379Y-85443596D01*
X147282086Y-85393354D01*
X147282093Y-85393350D01*
X147397187Y-85307190D01*
X147397190Y-85307187D01*
X147483350Y-85192093D01*
X147483354Y-85192086D01*
X147532422Y-85060529D01*
X147574293Y-85004595D01*
X147639757Y-84980178D01*
X147708030Y-84995030D01*
X147736285Y-85016181D01*
X147858599Y-85138495D01*
X147935135Y-85192086D01*
X148052165Y-85274032D01*
X148052167Y-85274033D01*
X148052170Y-85274035D01*
X148266337Y-85373903D01*
X148494592Y-85435063D01*
X148665319Y-85450000D01*
X148729999Y-85455659D01*
X148730000Y-85455659D01*
X148730001Y-85455659D01*
X148794681Y-85450000D01*
X148965408Y-85435063D01*
X149193663Y-85373903D01*
X149407830Y-85274035D01*
X149601401Y-85138495D01*
X149768495Y-84971401D01*
X149898425Y-84785842D01*
X149953002Y-84742217D01*
X150022500Y-84735023D01*
X150084855Y-84766546D01*
X150101575Y-84785842D01*
X150231500Y-84971395D01*
X150231505Y-84971401D01*
X150398599Y-85138495D01*
X150475135Y-85192086D01*
X150592165Y-85274032D01*
X150592167Y-85274033D01*
X150592170Y-85274035D01*
X150806337Y-85373903D01*
X151034592Y-85435063D01*
X151205319Y-85450000D01*
X151269999Y-85455659D01*
X151270000Y-85455659D01*
X151270001Y-85455659D01*
X151334681Y-85450000D01*
X151505408Y-85435063D01*
X151733663Y-85373903D01*
X151947830Y-85274035D01*
X152141401Y-85138495D01*
X152308495Y-84971401D01*
X152438425Y-84785842D01*
X152493002Y-84742217D01*
X152562500Y-84735023D01*
X152624855Y-84766546D01*
X152641575Y-84785842D01*
X152771500Y-84971395D01*
X152771505Y-84971401D01*
X152938599Y-85138495D01*
X153015135Y-85192086D01*
X153132165Y-85274032D01*
X153132167Y-85274033D01*
X153132170Y-85274035D01*
X153346337Y-85373903D01*
X153574592Y-85435063D01*
X153745319Y-85450000D01*
X153809999Y-85455659D01*
X153810000Y-85455659D01*
X153810001Y-85455659D01*
X153874681Y-85450000D01*
X154045408Y-85435063D01*
X154273663Y-85373903D01*
X154487830Y-85274035D01*
X154681401Y-85138495D01*
X154848495Y-84971401D01*
X154984035Y-84777830D01*
X155083903Y-84563663D01*
X155145063Y-84335408D01*
X155165659Y-84100000D01*
X155145063Y-83864592D01*
X155083903Y-83636337D01*
X154984035Y-83422171D01*
X154978425Y-83414158D01*
X154848494Y-83228597D01*
X154681402Y-83061506D01*
X154681395Y-83061501D01*
X154487834Y-82925967D01*
X154487830Y-82925965D01*
X154416727Y-82892809D01*
X154273663Y-82826097D01*
X154273659Y-82826096D01*
X154273655Y-82826094D01*
X154045413Y-82764938D01*
X154045403Y-82764936D01*
X153810001Y-82744341D01*
X153809999Y-82744341D01*
X153574596Y-82764936D01*
X153574586Y-82764938D01*
X153346344Y-82826094D01*
X153346335Y-82826098D01*
X153132171Y-82925964D01*
X153132169Y-82925965D01*
X152938597Y-83061505D01*
X152771505Y-83228597D01*
X152641575Y-83414158D01*
X152586998Y-83457783D01*
X152517500Y-83464977D01*
X152455145Y-83433454D01*
X152438425Y-83414158D01*
X152308494Y-83228597D01*
X152141402Y-83061506D01*
X152141395Y-83061501D01*
X151947834Y-82925967D01*
X151947830Y-82925965D01*
X151876727Y-82892809D01*
X151733663Y-82826097D01*
X151733659Y-82826096D01*
X151733655Y-82826094D01*
X151505413Y-82764938D01*
X151505403Y-82764936D01*
X151270001Y-82744341D01*
X151269999Y-82744341D01*
X151034596Y-82764936D01*
X151034586Y-82764938D01*
X150806344Y-82826094D01*
X150806335Y-82826098D01*
X150592171Y-82925964D01*
X150592169Y-82925965D01*
X150398597Y-83061505D01*
X150231505Y-83228597D01*
X150101575Y-83414158D01*
X150046998Y-83457783D01*
X149977500Y-83464977D01*
X149915145Y-83433454D01*
X149898425Y-83414158D01*
X149768494Y-83228597D01*
X149601402Y-83061506D01*
X149601395Y-83061501D01*
X149407834Y-82925967D01*
X149407830Y-82925965D01*
X149336727Y-82892809D01*
X149193663Y-82826097D01*
X149193659Y-82826096D01*
X149193655Y-82826094D01*
X148965413Y-82764938D01*
X148965403Y-82764936D01*
X148730001Y-82744341D01*
X148729999Y-82744341D01*
X148494596Y-82764936D01*
X148494586Y-82764938D01*
X148266344Y-82826094D01*
X148266335Y-82826098D01*
X148052171Y-82925964D01*
X148052169Y-82925965D01*
X147858600Y-83061503D01*
X147736284Y-83183819D01*
X147674961Y-83217303D01*
X147605269Y-83212319D01*
X147549336Y-83170447D01*
X147532421Y-83139470D01*
X147483354Y-83007913D01*
X147483350Y-83007906D01*
X147397190Y-82892812D01*
X147397187Y-82892809D01*
X147282093Y-82806649D01*
X147282086Y-82806645D01*
X147147379Y-82756403D01*
X147147372Y-82756401D01*
X147087844Y-82750000D01*
X146440000Y-82750000D01*
X146440000Y-83666988D01*
X146382993Y-83634075D01*
X146255826Y-83600000D01*
X146124174Y-83600000D01*
X145997007Y-83634075D01*
X145940000Y-83666988D01*
X145940000Y-82750000D01*
X145292155Y-82750000D01*
X145232627Y-82756401D01*
X145232620Y-82756403D01*
X145097913Y-82806645D01*
X145097906Y-82806649D01*
X144982812Y-82892809D01*
X144982809Y-82892812D01*
X144896649Y-83007906D01*
X144896645Y-83007913D01*
X144846403Y-83142620D01*
X144846401Y-83142627D01*
X144840000Y-83202155D01*
X139891013Y-83202155D01*
X139843903Y-83026337D01*
X139744035Y-82812171D01*
X139740169Y-82806649D01*
X139608494Y-82618597D01*
X139441402Y-82451506D01*
X139441401Y-82451505D01*
X139255405Y-82321269D01*
X139211781Y-82266692D01*
X139204588Y-82197193D01*
X139236110Y-82134839D01*
X139255405Y-82118119D01*
X139441082Y-81988105D01*
X139608105Y-81821082D01*
X139743600Y-81627578D01*
X139843429Y-81413492D01*
X139843432Y-81413486D01*
X139900636Y-81200000D01*
X139003012Y-81200000D01*
X139035925Y-81142993D01*
X139070000Y-81015826D01*
X139070000Y-80884174D01*
X139035925Y-80757007D01*
X139003012Y-80700000D01*
X139900636Y-80700000D01*
X139900635Y-80699999D01*
X139843432Y-80486513D01*
X139843429Y-80486507D01*
X139743600Y-80272422D01*
X139743599Y-80272420D01*
X139608113Y-80078926D01*
X139608108Y-80078920D01*
X139441078Y-79911890D01*
X139255405Y-79781879D01*
X139211780Y-79727302D01*
X139204588Y-79657804D01*
X139236110Y-79595449D01*
X139255406Y-79578730D01*
X139255842Y-79578425D01*
X139441401Y-79448495D01*
X139608495Y-79281401D01*
X139744035Y-79087830D01*
X139843903Y-78873663D01*
X139905063Y-78645408D01*
X139925659Y-78410000D01*
X139905063Y-78174592D01*
X139843903Y-77946337D01*
X139744035Y-77732171D01*
X139608495Y-77538599D01*
X139486567Y-77416671D01*
X139453084Y-77355351D01*
X139458068Y-77285659D01*
X139499939Y-77229725D01*
X139530915Y-77212810D01*
X139662331Y-77163796D01*
X139777546Y-77077546D01*
X139863796Y-76962331D01*
X139914091Y-76827483D01*
X139920500Y-76767873D01*
X139920499Y-74972128D01*
X139914091Y-74912517D01*
X139863796Y-74777669D01*
X139863795Y-74777668D01*
X139863793Y-74777664D01*
X139777547Y-74662455D01*
X139777544Y-74662452D01*
X139662335Y-74576206D01*
X139662328Y-74576202D01*
X139527482Y-74525908D01*
X139527483Y-74525908D01*
X139467883Y-74519501D01*
X139467881Y-74519500D01*
X139467873Y-74519500D01*
X139467864Y-74519500D01*
X137672129Y-74519500D01*
X137672123Y-74519501D01*
X137612516Y-74525908D01*
X137477671Y-74576202D01*
X137477664Y-74576206D01*
X137362455Y-74662452D01*
X137362452Y-74662455D01*
X137276206Y-74777664D01*
X137276202Y-74777671D01*
X137225908Y-74912517D01*
X137219501Y-74972116D01*
X137219501Y-74972123D01*
X137219500Y-74972135D01*
X137219500Y-76767870D01*
X137219501Y-76767876D01*
X137225908Y-76827483D01*
X137276202Y-76962328D01*
X137276206Y-76962335D01*
X137362452Y-77077544D01*
X137362455Y-77077547D01*
X137477664Y-77163793D01*
X137477671Y-77163797D01*
X137609081Y-77212810D01*
X137665015Y-77254681D01*
X137689432Y-77320145D01*
X137674580Y-77388418D01*
X137653430Y-77416673D01*
X137531503Y-77538600D01*
X137395965Y-77732169D01*
X137395964Y-77732171D01*
X137296098Y-77946335D01*
X137296094Y-77946344D01*
X137234938Y-78174586D01*
X137234936Y-78174596D01*
X137214341Y-78409999D01*
X137214341Y-78410000D01*
X137234936Y-78645403D01*
X137234938Y-78645413D01*
X137296094Y-78873655D01*
X137296096Y-78873659D01*
X137296097Y-78873663D01*
X137395847Y-79087578D01*
X137395965Y-79087830D01*
X137395967Y-79087834D01*
X137531501Y-79281395D01*
X137531506Y-79281402D01*
X137698597Y-79448493D01*
X137698603Y-79448498D01*
X137884594Y-79578730D01*
X137928219Y-79633307D01*
X137935413Y-79702805D01*
X137903890Y-79765160D01*
X137884595Y-79781880D01*
X137698922Y-79911890D01*
X137698920Y-79911891D01*
X137531891Y-80078920D01*
X137531886Y-80078926D01*
X137396400Y-80272420D01*
X137396399Y-80272422D01*
X137296570Y-80486507D01*
X137296567Y-80486513D01*
X137239364Y-80699999D01*
X137239364Y-80700000D01*
X138136988Y-80700000D01*
X138104075Y-80757007D01*
X138070000Y-80884174D01*
X138070000Y-81015826D01*
X138104075Y-81142993D01*
X138136988Y-81200000D01*
X137239364Y-81200000D01*
X137296567Y-81413486D01*
X137296570Y-81413492D01*
X137396399Y-81627578D01*
X137531894Y-81821082D01*
X137698917Y-81988105D01*
X137884595Y-82118119D01*
X137928219Y-82172696D01*
X137935412Y-82242195D01*
X137903890Y-82304549D01*
X137884595Y-82321269D01*
X137698594Y-82451508D01*
X137531505Y-82618597D01*
X137395965Y-82812169D01*
X137395964Y-82812171D01*
X137296098Y-83026335D01*
X137296094Y-83026344D01*
X137234938Y-83254586D01*
X137234936Y-83254596D01*
X137214341Y-83489999D01*
X137214341Y-83490000D01*
X137234936Y-83725403D01*
X137234938Y-83725413D01*
X137296094Y-83953655D01*
X137296096Y-83953659D01*
X137296097Y-83953663D01*
X137333640Y-84034174D01*
X137395965Y-84167830D01*
X137395967Y-84167834D01*
X137483605Y-84292993D01*
X137513304Y-84335408D01*
X137531501Y-84361395D01*
X137531506Y-84361402D01*
X137698597Y-84528493D01*
X137698603Y-84528498D01*
X137884158Y-84658425D01*
X137927783Y-84713002D01*
X137934977Y-84782500D01*
X137903454Y-84844855D01*
X137884158Y-84861575D01*
X137698597Y-84991505D01*
X137531505Y-85158597D01*
X137395965Y-85352169D01*
X137395964Y-85352171D01*
X137296098Y-85566335D01*
X137296094Y-85566344D01*
X137234938Y-85794586D01*
X137234936Y-85794596D01*
X137214341Y-86029999D01*
X137214341Y-86030000D01*
X137234936Y-86265403D01*
X137234938Y-86265413D01*
X137296094Y-86493655D01*
X137296096Y-86493659D01*
X137296097Y-86493663D01*
X137353989Y-86617813D01*
X137395965Y-86707830D01*
X137395967Y-86707834D01*
X137531501Y-86901395D01*
X137531506Y-86901402D01*
X137698597Y-87068493D01*
X137698603Y-87068498D01*
X137884158Y-87198425D01*
X137927783Y-87253002D01*
X137934977Y-87322500D01*
X137903454Y-87384855D01*
X137884158Y-87401575D01*
X137698597Y-87531505D01*
X137531505Y-87698597D01*
X137395965Y-87892169D01*
X137395964Y-87892171D01*
X137296098Y-88106335D01*
X137296094Y-88106344D01*
X137234938Y-88334586D01*
X137234936Y-88334596D01*
X137214341Y-88569999D01*
X137214341Y-88570000D01*
X137234936Y-88805403D01*
X137234938Y-88805413D01*
X137296094Y-89033655D01*
X137296096Y-89033659D01*
X137296097Y-89033663D01*
X137357156Y-89164604D01*
X137395965Y-89247830D01*
X137395967Y-89247834D01*
X137531501Y-89441395D01*
X137531506Y-89441402D01*
X137698597Y-89608493D01*
X137698603Y-89608498D01*
X137884158Y-89738425D01*
X137927783Y-89793002D01*
X137934977Y-89862500D01*
X137903454Y-89924855D01*
X137884158Y-89941575D01*
X137698597Y-90071505D01*
X137531505Y-90238597D01*
X137395965Y-90432169D01*
X137395964Y-90432171D01*
X137296098Y-90646335D01*
X137296094Y-90646344D01*
X137234938Y-90874586D01*
X137234936Y-90874596D01*
X137214341Y-91109999D01*
X137214341Y-91110000D01*
X137234936Y-91345403D01*
X137234938Y-91345413D01*
X137296094Y-91573655D01*
X137296096Y-91573659D01*
X137296097Y-91573663D01*
X137355242Y-91700499D01*
X137395965Y-91787830D01*
X137395967Y-91787834D01*
X137504281Y-91942521D01*
X137531501Y-91981396D01*
X137531506Y-91981402D01*
X137698597Y-92148493D01*
X137698603Y-92148498D01*
X137884158Y-92278425D01*
X137927783Y-92333002D01*
X137934977Y-92402500D01*
X137903454Y-92464855D01*
X137884158Y-92481575D01*
X137698597Y-92611505D01*
X137531505Y-92778597D01*
X137395965Y-92972169D01*
X137395964Y-92972171D01*
X137296098Y-93186335D01*
X137296094Y-93186344D01*
X137234938Y-93414586D01*
X137234936Y-93414596D01*
X137214341Y-93649999D01*
X137214341Y-93650000D01*
X137234936Y-93885403D01*
X137234938Y-93885413D01*
X137296094Y-94113655D01*
X137296096Y-94113659D01*
X137296097Y-94113663D01*
X137386055Y-94306578D01*
X137395965Y-94327830D01*
X137395967Y-94327834D01*
X137460633Y-94420186D01*
X137531501Y-94521396D01*
X137531506Y-94521402D01*
X137698597Y-94688493D01*
X137698603Y-94688498D01*
X137884158Y-94818425D01*
X137927783Y-94873002D01*
X137934977Y-94942500D01*
X137903454Y-95004855D01*
X137884158Y-95021575D01*
X137698597Y-95151505D01*
X137531505Y-95318597D01*
X137395965Y-95512169D01*
X137395964Y-95512171D01*
X137296098Y-95726335D01*
X137296094Y-95726344D01*
X137234938Y-95954586D01*
X137234936Y-95954596D01*
X137214341Y-96189999D01*
X137214341Y-96190000D01*
X137234936Y-96425403D01*
X137234938Y-96425413D01*
X137296094Y-96653655D01*
X137296096Y-96653659D01*
X137296097Y-96653663D01*
X137395965Y-96867830D01*
X137395967Y-96867834D01*
X137531501Y-97061395D01*
X137531506Y-97061402D01*
X137698597Y-97228493D01*
X137698603Y-97228498D01*
X137884158Y-97358425D01*
X137927783Y-97413002D01*
X137934977Y-97482500D01*
X137903454Y-97544855D01*
X137884158Y-97561575D01*
X137698597Y-97691505D01*
X137531505Y-97858597D01*
X137395965Y-98052169D01*
X137395964Y-98052171D01*
X137296098Y-98266335D01*
X137296094Y-98266344D01*
X137234938Y-98494586D01*
X137234936Y-98494596D01*
X137214341Y-98729999D01*
X137214341Y-98730000D01*
X137234936Y-98965403D01*
X137234938Y-98965413D01*
X137296094Y-99193655D01*
X137296096Y-99193659D01*
X137296097Y-99193663D01*
X137381901Y-99377669D01*
X137395965Y-99407830D01*
X137395967Y-99407834D01*
X137531501Y-99601395D01*
X137531506Y-99601402D01*
X137698597Y-99768493D01*
X137698603Y-99768498D01*
X137884158Y-99898425D01*
X137927783Y-99953002D01*
X137934977Y-100022500D01*
X137903454Y-100084855D01*
X137884158Y-100101575D01*
X137698597Y-100231505D01*
X137531505Y-100398597D01*
X137395965Y-100592169D01*
X137395964Y-100592171D01*
X137296098Y-100806335D01*
X137296094Y-100806344D01*
X137234938Y-101034586D01*
X137234936Y-101034596D01*
X137214341Y-101269999D01*
X137214341Y-101270000D01*
X137234936Y-101505403D01*
X137234938Y-101505413D01*
X137296094Y-101733655D01*
X137296096Y-101733659D01*
X137296097Y-101733663D01*
X137362950Y-101877029D01*
X137395965Y-101947830D01*
X137395967Y-101947834D01*
X137531501Y-102141395D01*
X137531506Y-102141402D01*
X137698597Y-102308493D01*
X137698603Y-102308498D01*
X137884158Y-102438425D01*
X137927783Y-102493002D01*
X137934977Y-102562500D01*
X137903454Y-102624855D01*
X137884158Y-102641575D01*
X137698597Y-102771505D01*
X137531505Y-102938597D01*
X137395965Y-103132169D01*
X137395964Y-103132171D01*
X137296098Y-103346335D01*
X137296094Y-103346344D01*
X137234938Y-103574586D01*
X137234936Y-103574596D01*
X137214341Y-103809999D01*
X137214341Y-103810000D01*
X137234936Y-104045403D01*
X137234938Y-104045413D01*
X137296094Y-104273655D01*
X137296096Y-104273659D01*
X137296097Y-104273663D01*
X137333435Y-104353734D01*
X137395965Y-104487830D01*
X137395967Y-104487834D01*
X137531501Y-104681395D01*
X137531506Y-104681402D01*
X137698597Y-104848493D01*
X137698603Y-104848498D01*
X137884158Y-104978425D01*
X137927783Y-105033002D01*
X137934977Y-105102500D01*
X137903454Y-105164855D01*
X137884158Y-105181575D01*
X137698597Y-105311505D01*
X137531505Y-105478597D01*
X137395965Y-105672169D01*
X137395964Y-105672171D01*
X137296098Y-105886335D01*
X137296094Y-105886344D01*
X137234938Y-106114586D01*
X137234936Y-106114596D01*
X137214341Y-106349999D01*
X137214341Y-106350000D01*
X137234936Y-106585403D01*
X137234938Y-106585413D01*
X137296094Y-106813655D01*
X137296096Y-106813659D01*
X137296097Y-106813663D01*
X137376165Y-106985368D01*
X137395965Y-107027830D01*
X137395967Y-107027834D01*
X137436628Y-107085903D01*
X137527540Y-107215739D01*
X137531501Y-107221395D01*
X137531506Y-107221402D01*
X137698597Y-107388493D01*
X137698603Y-107388498D01*
X137884158Y-107518425D01*
X137927783Y-107573002D01*
X137934977Y-107642500D01*
X137903454Y-107704855D01*
X137884158Y-107721575D01*
X137698597Y-107851505D01*
X137531505Y-108018597D01*
X137395965Y-108212169D01*
X137395964Y-108212171D01*
X137296098Y-108426335D01*
X137296094Y-108426344D01*
X137234938Y-108654586D01*
X137234936Y-108654596D01*
X137214341Y-108889999D01*
X137214341Y-108890000D01*
X137234936Y-109125403D01*
X137234938Y-109125413D01*
X137296094Y-109353655D01*
X137296096Y-109353659D01*
X137296097Y-109353663D01*
X137366735Y-109505146D01*
X137395965Y-109567830D01*
X137395967Y-109567834D01*
X137446975Y-109640680D01*
X137531501Y-109761396D01*
X137531506Y-109761402D01*
X137698597Y-109928493D01*
X137698603Y-109928498D01*
X137884158Y-110058425D01*
X137927783Y-110113002D01*
X137934977Y-110182500D01*
X137903454Y-110244855D01*
X137884158Y-110261575D01*
X137698597Y-110391505D01*
X137531505Y-110558597D01*
X137395965Y-110752169D01*
X137395964Y-110752171D01*
X137296098Y-110966335D01*
X137296094Y-110966344D01*
X137234938Y-111194586D01*
X137234936Y-111194596D01*
X137214341Y-111429999D01*
X137214341Y-111430000D01*
X137234936Y-111665403D01*
X137234938Y-111665413D01*
X137296094Y-111893655D01*
X137296096Y-111893659D01*
X137296097Y-111893663D01*
X137363267Y-112037709D01*
X137395965Y-112107830D01*
X137395967Y-112107834D01*
X137531501Y-112301395D01*
X137531506Y-112301402D01*
X137698597Y-112468493D01*
X137698603Y-112468498D01*
X137884158Y-112598425D01*
X137927783Y-112653002D01*
X137934977Y-112722500D01*
X137903454Y-112784855D01*
X137884158Y-112801575D01*
X137698597Y-112931505D01*
X137531505Y-113098597D01*
X137395965Y-113292169D01*
X137395964Y-113292171D01*
X137296098Y-113506335D01*
X137296094Y-113506344D01*
X137234938Y-113734586D01*
X137234936Y-113734596D01*
X137214341Y-113969999D01*
X137214341Y-113970000D01*
X137234936Y-114205403D01*
X137234938Y-114205413D01*
X137296094Y-114433655D01*
X137296096Y-114433659D01*
X137296097Y-114433663D01*
X137343443Y-114535196D01*
X137395965Y-114647830D01*
X137395967Y-114647834D01*
X137531501Y-114841395D01*
X137531506Y-114841402D01*
X137698597Y-115008493D01*
X137698603Y-115008498D01*
X137884594Y-115138730D01*
X137928219Y-115193307D01*
X137935413Y-115262805D01*
X137903890Y-115325160D01*
X137884595Y-115341880D01*
X137698922Y-115471890D01*
X137698920Y-115471891D01*
X137531891Y-115638920D01*
X137531886Y-115638926D01*
X137396400Y-115832420D01*
X137396399Y-115832422D01*
X137296570Y-116046507D01*
X137296567Y-116046513D01*
X137239364Y-116259999D01*
X137239364Y-116260000D01*
X138136988Y-116260000D01*
X138104075Y-116317007D01*
X138070000Y-116444174D01*
X138070000Y-116575826D01*
X138104075Y-116702993D01*
X138136988Y-116760000D01*
X137239364Y-116760000D01*
X137296567Y-116973486D01*
X137296570Y-116973492D01*
X137396399Y-117187578D01*
X137531894Y-117381082D01*
X137698917Y-117548105D01*
X137884595Y-117678119D01*
X137928219Y-117732696D01*
X137935412Y-117802195D01*
X137903890Y-117864549D01*
X137884595Y-117881269D01*
X137698594Y-118011508D01*
X137531505Y-118178597D01*
X137395965Y-118372169D01*
X137395964Y-118372171D01*
X137296098Y-118586335D01*
X137296094Y-118586344D01*
X137234938Y-118814586D01*
X137234936Y-118814596D01*
X137214341Y-119049999D01*
X137214341Y-119050000D01*
X137234936Y-119285403D01*
X137234938Y-119285413D01*
X137296094Y-119513655D01*
X137296096Y-119513659D01*
X137296097Y-119513663D01*
X137350289Y-119629877D01*
X137395965Y-119727830D01*
X137395967Y-119727834D01*
X137504281Y-119882521D01*
X137519447Y-119904181D01*
X137531501Y-119921395D01*
X137531506Y-119921402D01*
X137698597Y-120088493D01*
X137698603Y-120088498D01*
X137884158Y-120218425D01*
X137927783Y-120273002D01*
X137934977Y-120342500D01*
X137903454Y-120404855D01*
X137884158Y-120421575D01*
X137698597Y-120551505D01*
X137531505Y-120718597D01*
X137395965Y-120912169D01*
X137395964Y-120912171D01*
X137296098Y-121126335D01*
X137296094Y-121126344D01*
X137234938Y-121354586D01*
X137234936Y-121354596D01*
X137214341Y-121589999D01*
X137214341Y-121590000D01*
X137234936Y-121825403D01*
X137234938Y-121825413D01*
X137296094Y-122053655D01*
X137296096Y-122053659D01*
X137296097Y-122053663D01*
X137323216Y-122111819D01*
X137395965Y-122267830D01*
X137395967Y-122267834D01*
X137504281Y-122422521D01*
X137506568Y-122425788D01*
X137531501Y-122461395D01*
X137531506Y-122461402D01*
X137698597Y-122628493D01*
X137698603Y-122628498D01*
X137884158Y-122758425D01*
X137927783Y-122813002D01*
X137934977Y-122882500D01*
X137903454Y-122944855D01*
X137884158Y-122961575D01*
X137698597Y-123091505D01*
X137531505Y-123258597D01*
X137395965Y-123452169D01*
X137395964Y-123452171D01*
X137296098Y-123666335D01*
X137296094Y-123666344D01*
X137234938Y-123894586D01*
X137234936Y-123894596D01*
X137214341Y-124129999D01*
X137214341Y-124130000D01*
X137234936Y-124365403D01*
X137234938Y-124365413D01*
X137296094Y-124593655D01*
X137296096Y-124593659D01*
X137296097Y-124593663D01*
X137364249Y-124739815D01*
X137395965Y-124807830D01*
X137395967Y-124807834D01*
X137504281Y-124962521D01*
X137531505Y-125001401D01*
X137698599Y-125168495D01*
X137787207Y-125230539D01*
X137892165Y-125304032D01*
X137892167Y-125304033D01*
X137892170Y-125304035D01*
X138106337Y-125403903D01*
X138334592Y-125465063D01*
X138511034Y-125480500D01*
X138569999Y-125485659D01*
X138570000Y-125485659D01*
X138570001Y-125485659D01*
X138628966Y-125480500D01*
X138805408Y-125465063D01*
X139033663Y-125403903D01*
X139247830Y-125304035D01*
X139441401Y-125168495D01*
X139608495Y-125001401D01*
X139744035Y-124807830D01*
X139843903Y-124593663D01*
X139905063Y-124365408D01*
X139925659Y-124130000D01*
X139923994Y-124110975D01*
X139908453Y-123933341D01*
X139905063Y-123894592D01*
X139893086Y-123849893D01*
X139894749Y-123780045D01*
X139925180Y-123730120D01*
X140143482Y-123511819D01*
X140204805Y-123478334D01*
X140231163Y-123475500D01*
X142966532Y-123475500D01*
X142966533Y-123475499D01*
X143097036Y-123449541D01*
X143219969Y-123398620D01*
X143330606Y-123324695D01*
X144543482Y-122111819D01*
X144604805Y-122078334D01*
X144631163Y-122075500D01*
X145041669Y-122075500D01*
X145041674Y-122075500D01*
X145140185Y-122065436D01*
X145299787Y-122012549D01*
X145442891Y-121924281D01*
X145555353Y-121811819D01*
X145616676Y-121778334D01*
X145643034Y-121775500D01*
X146220774Y-121775500D01*
X146287813Y-121795185D01*
X146333568Y-121847989D01*
X146343512Y-121917147D01*
X146340549Y-121931593D01*
X146289004Y-122123962D01*
X146289002Y-122123972D01*
X146270321Y-122337499D01*
X146270321Y-122337500D01*
X146289002Y-122551027D01*
X146289004Y-122551037D01*
X146344477Y-122758067D01*
X146344481Y-122758076D01*
X146435066Y-122952338D01*
X146435067Y-122952340D01*
X146474825Y-123009120D01*
X146474825Y-123009121D01*
X147078274Y-122405672D01*
X147103963Y-122501544D01*
X147159916Y-122598456D01*
X147239044Y-122677584D01*
X147335956Y-122733537D01*
X147431825Y-122759225D01*
X146828377Y-123362673D01*
X146828435Y-123363335D01*
X146870933Y-123416501D01*
X146878127Y-123485999D01*
X146846605Y-123548354D01*
X146786376Y-123583769D01*
X146756185Y-123587500D01*
X146750000Y-123587500D01*
X146750000Y-124520511D01*
X146740060Y-124503295D01*
X146684205Y-124447440D01*
X146615796Y-124407944D01*
X146539496Y-124387500D01*
X146460504Y-124387500D01*
X146384204Y-124407944D01*
X146315795Y-124447440D01*
X146259940Y-124503295D01*
X146250000Y-124520511D01*
X146250000Y-123613384D01*
X146249999Y-123613384D01*
X146242418Y-123614585D01*
X146242410Y-123614587D01*
X146077742Y-123668091D01*
X145923475Y-123746695D01*
X145783397Y-123848467D01*
X145660967Y-123970897D01*
X145559195Y-124110975D01*
X145480591Y-124265242D01*
X145427085Y-124429915D01*
X145400000Y-124600928D01*
X145400000Y-124787500D01*
X146200000Y-124787500D01*
X146200000Y-125287500D01*
X145400000Y-125287500D01*
X145400000Y-125474071D01*
X145427085Y-125645084D01*
X145480592Y-125809759D01*
X145485405Y-125819204D01*
X145498302Y-125887874D01*
X145472026Y-125952614D01*
X145414920Y-125992872D01*
X145374921Y-125999500D01*
X137306962Y-125999500D01*
X137293078Y-125998720D01*
X137280553Y-125997308D01*
X137202735Y-125988540D01*
X137175666Y-125982362D01*
X137096462Y-125954648D01*
X137071444Y-125942600D01*
X137000395Y-125897957D01*
X136978686Y-125880644D01*
X136919355Y-125821313D01*
X136902042Y-125799604D01*
X136898707Y-125794297D01*
X136857398Y-125728553D01*
X136845351Y-125703537D01*
X136817637Y-125624333D01*
X136811459Y-125597263D01*
X136808579Y-125571705D01*
X136801280Y-125506922D01*
X136800500Y-125493038D01*
X136800500Y-74506961D01*
X136801280Y-74493077D01*
X136801280Y-74493076D01*
X136811459Y-74402731D01*
X136817635Y-74375670D01*
X136845353Y-74296456D01*
X136857396Y-74271450D01*
X136902046Y-74200389D01*
X136919351Y-74178690D01*
X136978690Y-74119351D01*
X137000389Y-74102046D01*
X137071450Y-74057396D01*
X137096456Y-74045353D01*
X137175670Y-74017635D01*
X137202733Y-74011459D01*
X137265419Y-74004396D01*
X137293079Y-74001280D01*
X137306962Y-74000500D01*
X137365892Y-74000500D01*
X162634108Y-74000500D01*
X162693038Y-74000500D01*
X162706922Y-74001280D01*
G37*
%TD.AperFunction*%
%TA.AperFunction,Conductor*%
G36*
X153093039Y-124807185D02*
G01*
X153138794Y-124859989D01*
X153150000Y-124911500D01*
X153150000Y-125163500D01*
X153130315Y-125230539D01*
X153077511Y-125276294D01*
X153026000Y-125287500D01*
X146974000Y-125287500D01*
X146906961Y-125267815D01*
X146861206Y-125215011D01*
X146850000Y-125163500D01*
X146850000Y-124911500D01*
X146869685Y-124844461D01*
X146922489Y-124798706D01*
X146974000Y-124787500D01*
X153026000Y-124787500D01*
X153093039Y-124807185D01*
G37*
%TD.AperFunction*%
%TA.AperFunction,Conductor*%
G36*
X161680000Y-121156988D02*
G01*
X161622993Y-121124075D01*
X161495826Y-121090000D01*
X161364174Y-121090000D01*
X161237007Y-121124075D01*
X161180000Y-121156988D01*
X161180000Y-119483012D01*
X161237007Y-119515925D01*
X161364174Y-119550000D01*
X161495826Y-119550000D01*
X161622993Y-119515925D01*
X161680000Y-119483012D01*
X161680000Y-121156988D01*
G37*
%TD.AperFunction*%
%TA.AperFunction,Conductor*%
G36*
X142405528Y-109535185D02*
G01*
X142451283Y-109587989D01*
X142461227Y-109657147D01*
X142432202Y-109720703D01*
X142388925Y-109752779D01*
X142247270Y-109815848D01*
X142247265Y-109815851D01*
X142094129Y-109927111D01*
X141967466Y-110067785D01*
X141872821Y-110231715D01*
X141872818Y-110231722D01*
X141816933Y-110403719D01*
X141814326Y-110411744D01*
X141794540Y-110600000D01*
X141814326Y-110788256D01*
X141814327Y-110788259D01*
X141872818Y-110968277D01*
X141872820Y-110968281D01*
X141872821Y-110968284D01*
X141910486Y-111033522D01*
X141915940Y-111042968D01*
X141932413Y-111110868D01*
X141909560Y-111176895D01*
X141854639Y-111220086D01*
X141785086Y-111226727D01*
X141758117Y-111218247D01*
X141579807Y-111138857D01*
X141579802Y-111138855D01*
X141434001Y-111107865D01*
X141394646Y-111099500D01*
X141205354Y-111099500D01*
X141172897Y-111106398D01*
X141020197Y-111138855D01*
X141020192Y-111138857D01*
X140847270Y-111215848D01*
X140847265Y-111215851D01*
X140694129Y-111327111D01*
X140567466Y-111467785D01*
X140472821Y-111631715D01*
X140472818Y-111631722D01*
X140414327Y-111811740D01*
X140414326Y-111811744D01*
X140394540Y-112000000D01*
X140414326Y-112188256D01*
X140414327Y-112188259D01*
X140472818Y-112368277D01*
X140472821Y-112368284D01*
X140567467Y-112532216D01*
X140642137Y-112615145D01*
X140676223Y-112653002D01*
X140694129Y-112672888D01*
X140705988Y-112681504D01*
X140731008Y-112699682D01*
X140773673Y-112755013D01*
X140779652Y-112824626D01*
X140747046Y-112886421D01*
X140731008Y-112900318D01*
X140694127Y-112927113D01*
X140567466Y-113067785D01*
X140472821Y-113231715D01*
X140472818Y-113231722D01*
X140414327Y-113411740D01*
X140414326Y-113411744D01*
X140394540Y-113600000D01*
X140414326Y-113788256D01*
X140414327Y-113788259D01*
X140472818Y-113968277D01*
X140472821Y-113968284D01*
X140567467Y-114132216D01*
X140633365Y-114205403D01*
X140694129Y-114272888D01*
X140847265Y-114384148D01*
X140847270Y-114384151D01*
X141020192Y-114461142D01*
X141020197Y-114461144D01*
X141205354Y-114500500D01*
X141205355Y-114500500D01*
X141394644Y-114500500D01*
X141394646Y-114500500D01*
X141579803Y-114461144D01*
X141712826Y-114401917D01*
X141782072Y-114392632D01*
X141845349Y-114422260D01*
X141882335Y-114480601D01*
X141898254Y-114535394D01*
X141898255Y-114535396D01*
X141981917Y-114676862D01*
X141981923Y-114676870D01*
X142098129Y-114793076D01*
X142098133Y-114793079D01*
X142098135Y-114793081D01*
X142239602Y-114876744D01*
X142275523Y-114887180D01*
X142397426Y-114922597D01*
X142397429Y-114922597D01*
X142397431Y-114922598D01*
X142434306Y-114925500D01*
X142434314Y-114925500D01*
X142832105Y-114925500D01*
X142899144Y-114945185D01*
X142944899Y-114997989D01*
X142954843Y-115067147D01*
X142934328Y-115115496D01*
X142935890Y-115116420D01*
X142848255Y-115264603D01*
X142848254Y-115264606D01*
X142802402Y-115422426D01*
X142802401Y-115422432D01*
X142799500Y-115459298D01*
X142799500Y-116615701D01*
X142802401Y-116652567D01*
X142802402Y-116652573D01*
X142848254Y-116810393D01*
X142848255Y-116810396D01*
X142848256Y-116810398D01*
X142889889Y-116880796D01*
X142907232Y-116910121D01*
X142924500Y-116973242D01*
X142924500Y-117014091D01*
X142904815Y-117081130D01*
X142852011Y-117126885D01*
X142833789Y-117132917D01*
X142833821Y-117133014D01*
X142666518Y-117188452D01*
X142666507Y-117188457D01*
X142522271Y-117277424D01*
X142522267Y-117277427D01*
X142402427Y-117397267D01*
X142402424Y-117397271D01*
X142313457Y-117541507D01*
X142313452Y-117541518D01*
X142260144Y-117702393D01*
X142250000Y-117801677D01*
X142250000Y-117850000D01*
X143326000Y-117850000D01*
X143393039Y-117869685D01*
X143438794Y-117922489D01*
X143450000Y-117974000D01*
X143450000Y-118226000D01*
X143430315Y-118293039D01*
X143377511Y-118338794D01*
X143326000Y-118350000D01*
X142250001Y-118350000D01*
X142250001Y-118398322D01*
X142260144Y-118497607D01*
X142313452Y-118658481D01*
X142313457Y-118658492D01*
X142389755Y-118782189D01*
X142408196Y-118849581D01*
X142389756Y-118912383D01*
X142312452Y-119037710D01*
X142312450Y-119037715D01*
X142298880Y-119078666D01*
X142259564Y-119197315D01*
X142259564Y-119197316D01*
X142259563Y-119197316D01*
X142249500Y-119295818D01*
X142249500Y-119904181D01*
X142259563Y-120002683D01*
X142312450Y-120162284D01*
X142312455Y-120162295D01*
X142394331Y-120295035D01*
X142412772Y-120362427D01*
X142394332Y-120425229D01*
X142324952Y-120537710D01*
X142324950Y-120537715D01*
X142320380Y-120551506D01*
X142272064Y-120697315D01*
X142272064Y-120697316D01*
X142272063Y-120697316D01*
X142262000Y-120795818D01*
X142262000Y-121007336D01*
X142242315Y-121074375D01*
X142189511Y-121120130D01*
X142120353Y-121130074D01*
X142056797Y-121101049D01*
X142050319Y-121095017D01*
X142020609Y-121065307D01*
X142020605Y-121065304D01*
X141909975Y-120991383D01*
X141909965Y-120991378D01*
X141787036Y-120940459D01*
X141787028Y-120940457D01*
X141656535Y-120914500D01*
X141656531Y-120914500D01*
X139810216Y-120914500D01*
X139743177Y-120894815D01*
X139708641Y-120861623D01*
X139608494Y-120718597D01*
X139441402Y-120551506D01*
X139441396Y-120551501D01*
X139255842Y-120421575D01*
X139212217Y-120366998D01*
X139205023Y-120297500D01*
X139236546Y-120235145D01*
X139255842Y-120218425D01*
X139336019Y-120162284D01*
X139441401Y-120088495D01*
X139608495Y-119921401D01*
X139744035Y-119727830D01*
X139843903Y-119513663D01*
X139905063Y-119285408D01*
X139925659Y-119050000D01*
X139905063Y-118814592D01*
X139843903Y-118586337D01*
X139744035Y-118372171D01*
X139720665Y-118338794D01*
X139608494Y-118178597D01*
X139441402Y-118011506D01*
X139441401Y-118011505D01*
X139273844Y-117894180D01*
X139255405Y-117881269D01*
X139211781Y-117826692D01*
X139204588Y-117757193D01*
X139236110Y-117694839D01*
X139255405Y-117678119D01*
X139441082Y-117548105D01*
X139608105Y-117381082D01*
X139743600Y-117187578D01*
X139843429Y-116973492D01*
X139843432Y-116973486D01*
X139900636Y-116760000D01*
X139003012Y-116760000D01*
X139035925Y-116702993D01*
X139070000Y-116575826D01*
X139070000Y-116444174D01*
X139035925Y-116317007D01*
X139003012Y-116260000D01*
X139900636Y-116260000D01*
X139900635Y-116259999D01*
X139843432Y-116046513D01*
X139843429Y-116046507D01*
X139743600Y-115832422D01*
X139743599Y-115832420D01*
X139608113Y-115638926D01*
X139608108Y-115638920D01*
X139441078Y-115471890D01*
X139255405Y-115341879D01*
X139211780Y-115287302D01*
X139204588Y-115217804D01*
X139236110Y-115155449D01*
X139255406Y-115138730D01*
X139287268Y-115116420D01*
X139441401Y-115008495D01*
X139608495Y-114841401D01*
X139744035Y-114647830D01*
X139843903Y-114433663D01*
X139905063Y-114205408D01*
X139925659Y-113970000D01*
X139905063Y-113734592D01*
X139843903Y-113506337D01*
X139744035Y-113292171D01*
X139734636Y-113278747D01*
X139608494Y-113098597D01*
X139441402Y-112931506D01*
X139441396Y-112931501D01*
X139255842Y-112801575D01*
X139212217Y-112746998D01*
X139205023Y-112677500D01*
X139236546Y-112615145D01*
X139255842Y-112598425D01*
X139315003Y-112557000D01*
X139441401Y-112468495D01*
X139608495Y-112301401D01*
X139744035Y-112107830D01*
X139843903Y-111893663D01*
X139905063Y-111665408D01*
X139925659Y-111430000D01*
X139905063Y-111194592D01*
X139844425Y-110968284D01*
X139843905Y-110966344D01*
X139843904Y-110966343D01*
X139843903Y-110966337D01*
X139744035Y-110752171D01*
X139705911Y-110697723D01*
X139608494Y-110558597D01*
X139441402Y-110391506D01*
X139441396Y-110391501D01*
X139255842Y-110261575D01*
X139212217Y-110206998D01*
X139205023Y-110137500D01*
X139236546Y-110075145D01*
X139255842Y-110058425D01*
X139295760Y-110030474D01*
X139441401Y-109928495D01*
X139608495Y-109761401D01*
X139743652Y-109568377D01*
X139798229Y-109524752D01*
X139845227Y-109515500D01*
X142338489Y-109515500D01*
X142405528Y-109535185D01*
G37*
%TD.AperFunction*%
%TA.AperFunction,Conductor*%
G36*
X157680802Y-110559345D02*
G01*
X157715120Y-110583594D01*
X159021525Y-111890000D01*
X160251469Y-113119944D01*
X160284954Y-113181267D01*
X160279970Y-113250959D01*
X160265364Y-113278747D01*
X160255966Y-113292168D01*
X160156097Y-113506335D01*
X160156094Y-113506344D01*
X160094938Y-113734586D01*
X160094936Y-113734596D01*
X160074341Y-113969999D01*
X160074341Y-113970000D01*
X160094936Y-114205403D01*
X160094938Y-114205413D01*
X160156094Y-114433655D01*
X160156096Y-114433659D01*
X160156097Y-114433663D01*
X160203443Y-114535196D01*
X160255965Y-114647830D01*
X160255967Y-114647834D01*
X160391501Y-114841395D01*
X160391506Y-114841402D01*
X160558597Y-115008493D01*
X160558603Y-115008498D01*
X160744158Y-115138425D01*
X160787783Y-115193002D01*
X160794977Y-115262500D01*
X160763454Y-115324855D01*
X160744158Y-115341575D01*
X160558597Y-115471505D01*
X160391506Y-115638597D01*
X160391505Y-115638599D01*
X160333370Y-115721624D01*
X160278792Y-115765249D01*
X160231795Y-115774500D01*
X157426568Y-115774500D01*
X157359529Y-115754815D01*
X157338887Y-115738181D01*
X156487886Y-114887180D01*
X156454401Y-114825857D01*
X156459385Y-114756165D01*
X156501257Y-114700232D01*
X156566721Y-114675815D01*
X156575567Y-114675499D01*
X157497871Y-114675499D01*
X157497872Y-114675499D01*
X157557483Y-114669091D01*
X157692331Y-114618796D01*
X157807546Y-114532546D01*
X157893796Y-114417331D01*
X157944091Y-114282483D01*
X157950500Y-114222873D01*
X157950499Y-113327128D01*
X157944091Y-113267517D01*
X157937915Y-113250959D01*
X157893797Y-113132671D01*
X157893793Y-113132664D01*
X157807547Y-113017455D01*
X157807544Y-113017452D01*
X157692335Y-112931206D01*
X157692328Y-112931202D01*
X157557482Y-112880908D01*
X157557483Y-112880908D01*
X157497883Y-112874501D01*
X157497881Y-112874500D01*
X157497873Y-112874500D01*
X157497865Y-112874500D01*
X157324500Y-112874500D01*
X157257461Y-112854815D01*
X157211706Y-112802011D01*
X157200500Y-112750500D01*
X157200500Y-112564546D01*
X157220185Y-112497507D01*
X157247596Y-112467274D01*
X157253032Y-112462975D01*
X157253044Y-112462968D01*
X157372968Y-112343044D01*
X157462003Y-112198697D01*
X157515349Y-112037708D01*
X157525500Y-111938345D01*
X157525499Y-111341656D01*
X157524947Y-111336256D01*
X157515349Y-111242292D01*
X157515348Y-111242289D01*
X157504841Y-111210580D01*
X157462003Y-111081303D01*
X157408335Y-110994295D01*
X157389895Y-110926904D01*
X157407756Y-110865051D01*
X157468478Y-110764606D01*
X157509056Y-110634383D01*
X157547791Y-110576239D01*
X157611816Y-110548264D01*
X157680802Y-110559345D01*
G37*
%TD.AperFunction*%
%TA.AperFunction,Conductor*%
G36*
X152430703Y-107215739D02*
G01*
X152437181Y-107221771D01*
X154313181Y-109097771D01*
X154346666Y-109159094D01*
X154349500Y-109185452D01*
X154349500Y-109308480D01*
X154329815Y-109375519D01*
X154313181Y-109396161D01*
X154219531Y-109489810D01*
X154219530Y-109489811D01*
X154131522Y-109635393D01*
X154080913Y-109797807D01*
X154074500Y-109868386D01*
X154074500Y-110531613D01*
X154080913Y-110602192D01*
X154080913Y-110602194D01*
X154080914Y-110602196D01*
X154131522Y-110764606D01*
X154192533Y-110865530D01*
X154210369Y-110933083D01*
X154191955Y-110994776D01*
X154138454Y-111081513D01*
X154138452Y-111081518D01*
X154085144Y-111242393D01*
X154075000Y-111341677D01*
X154075000Y-111390000D01*
X155151000Y-111390000D01*
X155218039Y-111409685D01*
X155263794Y-111462489D01*
X155275000Y-111514000D01*
X155275000Y-112614999D01*
X155298308Y-112614999D01*
X155298322Y-112614998D01*
X155397607Y-112604855D01*
X155558481Y-112551547D01*
X155558492Y-112551542D01*
X155702731Y-112462573D01*
X155711959Y-112453345D01*
X155773279Y-112419856D01*
X155842971Y-112424835D01*
X155887327Y-112453339D01*
X155896956Y-112462968D01*
X155896963Y-112462972D01*
X155902404Y-112467274D01*
X155942785Y-112524293D01*
X155949500Y-112564546D01*
X155949500Y-112750500D01*
X155929815Y-112817539D01*
X155877011Y-112863294D01*
X155825501Y-112874500D01*
X155702130Y-112874500D01*
X155702123Y-112874501D01*
X155642516Y-112880908D01*
X155507671Y-112931202D01*
X155507664Y-112931206D01*
X155392455Y-113017452D01*
X155392452Y-113017455D01*
X155306206Y-113132664D01*
X155306202Y-113132671D01*
X155255908Y-113267517D01*
X155253258Y-113292171D01*
X155249501Y-113327123D01*
X155249500Y-113327135D01*
X155249500Y-113349432D01*
X155229815Y-113416471D01*
X155177011Y-113462226D01*
X155107853Y-113472170D01*
X155044297Y-113443145D01*
X155037819Y-113437113D01*
X154353089Y-112752383D01*
X154319604Y-112691060D01*
X154324588Y-112621368D01*
X154366460Y-112565435D01*
X154431924Y-112541018D01*
X154484200Y-112550664D01*
X154484661Y-112549275D01*
X154652393Y-112604855D01*
X154751683Y-112614999D01*
X154775000Y-112614998D01*
X154775000Y-111890000D01*
X154075001Y-111890000D01*
X154075001Y-111938322D01*
X154085144Y-112037607D01*
X154140725Y-112205339D01*
X154139058Y-112205891D01*
X154148170Y-112265910D01*
X154119646Y-112329692D01*
X154061167Y-112367928D01*
X153991300Y-112368477D01*
X153937616Y-112336910D01*
X152261819Y-110661113D01*
X152228334Y-110599790D01*
X152225500Y-110573432D01*
X152225500Y-107309452D01*
X152245185Y-107242413D01*
X152297989Y-107196658D01*
X152367147Y-107186714D01*
X152430703Y-107215739D01*
G37*
%TD.AperFunction*%
%TA.AperFunction,Conductor*%
G36*
X154656587Y-104845185D02*
G01*
X154677229Y-104861819D01*
X160310726Y-110495317D01*
X160344211Y-110556640D01*
X160339227Y-110626332D01*
X160324620Y-110654121D01*
X160255963Y-110752173D01*
X160156098Y-110966335D01*
X160156093Y-110966347D01*
X160150599Y-110986852D01*
X160114233Y-111046511D01*
X160051386Y-111077039D01*
X159982011Y-111068743D01*
X159943144Y-111042437D01*
X156943993Y-108043286D01*
X153937886Y-105037180D01*
X153904402Y-104975858D01*
X153909386Y-104906166D01*
X153951258Y-104850233D01*
X154016722Y-104825816D01*
X154025568Y-104825500D01*
X154589548Y-104825500D01*
X154656587Y-104845185D01*
G37*
%TD.AperFunction*%
%TA.AperFunction,Conductor*%
G36*
X148613521Y-105385708D02*
G01*
X148613953Y-105383818D01*
X148620742Y-105385367D01*
X148620745Y-105385368D01*
X148667823Y-105390672D01*
X148732236Y-105417737D01*
X148741621Y-105426211D01*
X150001263Y-106685855D01*
X150001267Y-106685858D01*
X150103715Y-106754312D01*
X150112538Y-106757966D01*
X150152769Y-106784847D01*
X150197738Y-106829816D01*
X150350478Y-106925789D01*
X150520745Y-106985368D01*
X150520750Y-106985369D01*
X150699996Y-107005565D01*
X150700000Y-107005565D01*
X150700003Y-107005565D01*
X150783232Y-106996187D01*
X150836616Y-106990172D01*
X150905438Y-107002226D01*
X150956818Y-107049575D01*
X150974500Y-107113392D01*
X150974500Y-109135619D01*
X150954815Y-109202658D01*
X150902011Y-109248413D01*
X150832853Y-109258357D01*
X150769297Y-109229332D01*
X150762819Y-109223300D01*
X150408821Y-108869303D01*
X150408803Y-108869287D01*
X150331443Y-108806268D01*
X150330088Y-108805391D01*
X150329434Y-108804631D01*
X150326189Y-108801988D01*
X150326660Y-108801409D01*
X150284506Y-108752437D01*
X150274789Y-108683247D01*
X150304021Y-108619786D01*
X150309787Y-108613614D01*
X150594583Y-108328818D01*
X150594589Y-108328811D01*
X150632167Y-108282180D01*
X150632168Y-108282178D01*
X150691894Y-108151397D01*
X150712355Y-108009081D01*
X150712355Y-108009080D01*
X150691894Y-107866764D01*
X150632168Y-107735983D01*
X150594588Y-107689348D01*
X149466286Y-106561046D01*
X149419651Y-106523466D01*
X149288872Y-106463740D01*
X149288867Y-106463739D01*
X149247839Y-106457841D01*
X149184283Y-106428817D01*
X149146508Y-106370039D01*
X149142748Y-106352754D01*
X149136744Y-106310989D01*
X149131092Y-106298614D01*
X149076957Y-106180075D01*
X149076954Y-106180070D01*
X149039340Y-106133395D01*
X149039334Y-106133388D01*
X148791803Y-105885857D01*
X148498149Y-105592203D01*
X148464665Y-105530882D01*
X148469649Y-105461191D01*
X148511520Y-105405257D01*
X148576985Y-105380840D01*
X148613521Y-105385708D01*
G37*
%TD.AperFunction*%
%TA.AperFunction,Conductor*%
G36*
X146906136Y-104079061D02*
G01*
X146950485Y-104107563D01*
X146995926Y-104153005D01*
X147029411Y-104214328D01*
X147024425Y-104284020D01*
X146995925Y-104328366D01*
X146605711Y-104718582D01*
X146445037Y-104879256D01*
X146401273Y-104923018D01*
X146401267Y-104923026D01*
X146314139Y-105010154D01*
X143096113Y-108228181D01*
X143034790Y-108261666D01*
X143008432Y-108264500D01*
X139845227Y-108264500D01*
X139778188Y-108244815D01*
X139743652Y-108211623D01*
X139608494Y-108018597D01*
X139441402Y-107851506D01*
X139441396Y-107851501D01*
X139255842Y-107721575D01*
X139212217Y-107666998D01*
X139205023Y-107597500D01*
X139236546Y-107535145D01*
X139255842Y-107518425D01*
X139278026Y-107502891D01*
X139441401Y-107388495D01*
X139608495Y-107221401D01*
X139744035Y-107027830D01*
X139843903Y-106813663D01*
X139905063Y-106585408D01*
X139925659Y-106350000D01*
X139909637Y-106166874D01*
X143586676Y-106166874D01*
X143602625Y-106180496D01*
X143602635Y-106180503D01*
X143744326Y-106258399D01*
X143744336Y-106258402D01*
X143900947Y-106298613D01*
X143900955Y-106298614D01*
X144062653Y-106298614D01*
X144062658Y-106298613D01*
X144219276Y-106258400D01*
X144352684Y-106185058D01*
X143960590Y-105792964D01*
X143960589Y-105792964D01*
X143586676Y-106166874D01*
X139909637Y-106166874D01*
X139908113Y-106149457D01*
X139921879Y-106080960D01*
X139970494Y-106030777D01*
X140038523Y-106014843D01*
X140055831Y-106017034D01*
X140074966Y-106020840D01*
X140098393Y-106025501D01*
X140098394Y-106025501D01*
X140227721Y-106025501D01*
X140227741Y-106025500D01*
X142361607Y-106025500D01*
X142422029Y-106013481D01*
X142482452Y-106001463D01*
X142518817Y-105986400D01*
X142596286Y-105954312D01*
X142647509Y-105920084D01*
X142698733Y-105885858D01*
X142785858Y-105798733D01*
X142785859Y-105798731D01*
X142792925Y-105791665D01*
X142792927Y-105791661D01*
X142949376Y-105635213D01*
X143010696Y-105601730D01*
X143080388Y-105606714D01*
X143136321Y-105648586D01*
X143145716Y-105663158D01*
X143219500Y-105797370D01*
X143219503Y-105797375D01*
X143233122Y-105813322D01*
X143632165Y-105414283D01*
X143693488Y-105380798D01*
X143719846Y-105377964D01*
X144101630Y-105377964D01*
X144168669Y-105397649D01*
X144189306Y-105414278D01*
X144253465Y-105478437D01*
X144281155Y-105502087D01*
X144281157Y-105502088D01*
X144422963Y-105580046D01*
X144422970Y-105580048D01*
X144432908Y-105582600D01*
X144489755Y-105615024D01*
X144706236Y-105831505D01*
X144779577Y-105698100D01*
X144785412Y-105675375D01*
X144821149Y-105615336D01*
X144874678Y-105586107D01*
X144898282Y-105580047D01*
X145040093Y-105502087D01*
X145067783Y-105478437D01*
X145239733Y-105306485D01*
X145301054Y-105273002D01*
X145345057Y-105271430D01*
X145401040Y-105279479D01*
X145543498Y-105258998D01*
X145674413Y-105199210D01*
X145721096Y-105161591D01*
X146775122Y-104107561D01*
X146836445Y-104074077D01*
X146906136Y-104079061D01*
G37*
%TD.AperFunction*%
%TA.AperFunction,Conductor*%
G36*
X157561587Y-103370185D02*
G01*
X157582229Y-103386819D01*
X160089762Y-105894352D01*
X160123247Y-105955675D01*
X160121856Y-106014126D01*
X160094938Y-106114586D01*
X160094936Y-106114596D01*
X160074341Y-106349999D01*
X160074341Y-106350389D01*
X160074292Y-106350554D01*
X160073869Y-106355394D01*
X160072896Y-106355308D01*
X160054656Y-106417428D01*
X160001852Y-106463183D01*
X159932694Y-106473127D01*
X159869138Y-106444102D01*
X159862660Y-106438070D01*
X156986771Y-103562181D01*
X156953286Y-103500858D01*
X156958270Y-103431166D01*
X157000142Y-103375233D01*
X157065606Y-103350816D01*
X157074452Y-103350500D01*
X157494548Y-103350500D01*
X157561587Y-103370185D01*
G37*
%TD.AperFunction*%
%TA.AperFunction,Conductor*%
G36*
X141716582Y-102845185D02*
G01*
X141762337Y-102897989D01*
X141772306Y-102966972D01*
X141768493Y-102993762D01*
X141984976Y-103210245D01*
X142017399Y-103267087D01*
X142019953Y-103277037D01*
X142097911Y-103418842D01*
X142097914Y-103418846D01*
X142121561Y-103446533D01*
X142121577Y-103446550D01*
X142453449Y-103778422D01*
X142453462Y-103778434D01*
X142453465Y-103778437D01*
X142481155Y-103802087D01*
X142481157Y-103802088D01*
X142622963Y-103880046D01*
X142622970Y-103880048D01*
X142632908Y-103882600D01*
X142689755Y-103915024D01*
X142747455Y-103972724D01*
X142780940Y-104034047D01*
X142775956Y-104103739D01*
X142734084Y-104159672D01*
X142707227Y-104174966D01*
X142651253Y-104198151D01*
X142651243Y-104198156D01*
X142548803Y-104266605D01*
X142548798Y-104266609D01*
X142529195Y-104286212D01*
X142467872Y-104319696D01*
X142398180Y-104314710D01*
X142353835Y-104286210D01*
X142160590Y-104092964D01*
X142160589Y-104092964D01*
X141786676Y-104466874D01*
X141802625Y-104480496D01*
X141802635Y-104480503D01*
X141914202Y-104541838D01*
X141963466Y-104591384D01*
X141978123Y-104659699D01*
X141953519Y-104725094D01*
X141897467Y-104766805D01*
X141854465Y-104774500D01*
X140470453Y-104774500D01*
X140403414Y-104754815D01*
X140382772Y-104738181D01*
X139910237Y-104265647D01*
X139876752Y-104204324D01*
X139878143Y-104145872D01*
X139880147Y-104138393D01*
X139905063Y-104045408D01*
X139925659Y-103810000D01*
X139910553Y-103637341D01*
X141301386Y-103637341D01*
X141301386Y-103799052D01*
X141341597Y-103955663D01*
X141341600Y-103955673D01*
X141419497Y-104097366D01*
X141419503Y-104097375D01*
X141433122Y-104113322D01*
X141807036Y-103739411D01*
X141414940Y-103347315D01*
X141414939Y-103347315D01*
X141341599Y-103480724D01*
X141301386Y-103637341D01*
X139910553Y-103637341D01*
X139905063Y-103574592D01*
X139845103Y-103350816D01*
X139843905Y-103346344D01*
X139843904Y-103346343D01*
X139843903Y-103346337D01*
X139744035Y-103132171D01*
X139665929Y-103020623D01*
X139643602Y-102954417D01*
X139660612Y-102886650D01*
X139711560Y-102838837D01*
X139767504Y-102825500D01*
X141649543Y-102825500D01*
X141716582Y-102845185D01*
G37*
%TD.AperFunction*%
%TA.AperFunction,Conductor*%
G36*
X150613497Y-98355471D02*
G01*
X150634138Y-98372104D01*
X150670972Y-98408937D01*
X150670982Y-98408946D01*
X150759048Y-98476522D01*
X150766084Y-98480584D01*
X150764376Y-98483542D01*
X150806482Y-98517424D01*
X150811775Y-98527109D01*
X150812306Y-98526803D01*
X150816368Y-98533839D01*
X150883949Y-98621913D01*
X150883954Y-98621919D01*
X150920788Y-98658753D01*
X150954273Y-98720076D01*
X150957107Y-98746434D01*
X150957107Y-99042893D01*
X151253566Y-99042893D01*
X151320605Y-99062578D01*
X151341246Y-99079211D01*
X151378078Y-99116042D01*
X151378081Y-99116045D01*
X151424090Y-99151349D01*
X151466164Y-99183634D01*
X151473200Y-99187696D01*
X151471496Y-99190646D01*
X151513631Y-99224593D01*
X151518885Y-99234213D01*
X151519412Y-99233910D01*
X151523474Y-99240946D01*
X151591055Y-99329020D01*
X151591060Y-99329026D01*
X151627895Y-99365861D01*
X151661380Y-99427184D01*
X151664214Y-99453542D01*
X151664214Y-100546457D01*
X151644529Y-100613496D01*
X151627897Y-100634136D01*
X151591062Y-100670972D01*
X151591055Y-100670979D01*
X151523475Y-100759052D01*
X151519413Y-100766089D01*
X151516491Y-100764402D01*
X151482338Y-100806645D01*
X151472905Y-100811795D01*
X151473199Y-100812304D01*
X151466163Y-100816366D01*
X151378086Y-100883949D01*
X151378080Y-100883954D01*
X151341247Y-100920788D01*
X151279924Y-100954273D01*
X151253566Y-100957107D01*
X150957107Y-100957107D01*
X150957107Y-101253565D01*
X150937422Y-101320604D01*
X150920790Y-101341244D01*
X150883956Y-101378079D01*
X150883949Y-101378086D01*
X150816369Y-101466159D01*
X150812303Y-101473202D01*
X150809365Y-101471505D01*
X150775319Y-101513690D01*
X150765799Y-101518889D01*
X150766098Y-101519407D01*
X150759057Y-101523472D01*
X150670976Y-101591057D01*
X150670973Y-101591060D01*
X150634139Y-101627895D01*
X150572816Y-101661380D01*
X150546458Y-101664214D01*
X149453542Y-101664214D01*
X149386503Y-101644529D01*
X149365862Y-101627896D01*
X149329027Y-101591062D01*
X149329020Y-101591055D01*
X149240947Y-101523475D01*
X149233908Y-101519411D01*
X149235609Y-101516464D01*
X149193458Y-101482487D01*
X149188222Y-101472896D01*
X149187696Y-101473200D01*
X149183631Y-101466160D01*
X149128509Y-101394323D01*
X149900000Y-101394323D01*
X149900000Y-101434105D01*
X149915224Y-101470859D01*
X149943355Y-101498990D01*
X149980109Y-101514214D01*
X150019891Y-101514214D01*
X150056645Y-101498990D01*
X150084776Y-101470859D01*
X150100000Y-101434105D01*
X150100000Y-101394323D01*
X150084776Y-101357569D01*
X150056645Y-101329438D01*
X150019891Y-101314214D01*
X149980109Y-101314214D01*
X149943355Y-101329438D01*
X149915224Y-101357569D01*
X149900000Y-101394323D01*
X149128509Y-101394323D01*
X149116047Y-101378082D01*
X149116041Y-101378075D01*
X149079212Y-101341246D01*
X149045727Y-101279923D01*
X149042893Y-101253565D01*
X149042893Y-101164214D01*
X149542893Y-101164214D01*
X149750000Y-101164214D01*
X150250000Y-101164214D01*
X150457107Y-101164214D01*
X150457107Y-100957107D01*
X150250000Y-100957107D01*
X150250000Y-101164214D01*
X149750000Y-101164214D01*
X149750000Y-100957107D01*
X149542893Y-100957107D01*
X149542893Y-101164214D01*
X149042893Y-101164214D01*
X149042893Y-100957107D01*
X148746434Y-100957107D01*
X148679395Y-100937422D01*
X148658754Y-100920789D01*
X148621920Y-100883956D01*
X148621913Y-100883949D01*
X148533840Y-100816369D01*
X148526801Y-100812305D01*
X148528502Y-100809358D01*
X148486351Y-100775381D01*
X148481114Y-100765782D01*
X148480586Y-100766088D01*
X148476523Y-100759050D01*
X148421403Y-100687216D01*
X149192893Y-100687216D01*
X149192893Y-100726998D01*
X149208117Y-100763752D01*
X149236248Y-100791883D01*
X149273002Y-100807107D01*
X149312784Y-100807107D01*
X149349538Y-100791883D01*
X149377669Y-100763752D01*
X149392893Y-100726998D01*
X149392893Y-100687216D01*
X150607107Y-100687216D01*
X150607107Y-100726998D01*
X150622331Y-100763752D01*
X150650462Y-100791883D01*
X150687216Y-100807107D01*
X150726998Y-100807107D01*
X150763752Y-100791883D01*
X150791883Y-100763752D01*
X150807107Y-100726998D01*
X150807107Y-100687216D01*
X150791883Y-100650462D01*
X150763752Y-100622331D01*
X150726998Y-100607107D01*
X150687216Y-100607107D01*
X150650462Y-100622331D01*
X150622331Y-100650462D01*
X150607107Y-100687216D01*
X149392893Y-100687216D01*
X149377669Y-100650462D01*
X149349538Y-100622331D01*
X149312784Y-100607107D01*
X149273002Y-100607107D01*
X149236248Y-100622331D01*
X149208117Y-100650462D01*
X149192893Y-100687216D01*
X148421403Y-100687216D01*
X148408941Y-100670975D01*
X148408935Y-100670968D01*
X148372105Y-100634138D01*
X148338620Y-100572815D01*
X148335786Y-100546457D01*
X148335786Y-100457107D01*
X148835786Y-100457107D01*
X149042893Y-100457107D01*
X149542893Y-100457107D01*
X149750000Y-100457107D01*
X150250000Y-100457107D01*
X150457107Y-100457107D01*
X150957107Y-100457107D01*
X151164214Y-100457107D01*
X151164214Y-100250000D01*
X150957107Y-100250000D01*
X150957107Y-100457107D01*
X150457107Y-100457107D01*
X150457107Y-100250000D01*
X150250000Y-100250000D01*
X150250000Y-100457107D01*
X149750000Y-100457107D01*
X149750000Y-100250000D01*
X149542893Y-100250000D01*
X149542893Y-100457107D01*
X149042893Y-100457107D01*
X149042893Y-100250000D01*
X148835786Y-100250000D01*
X148835786Y-100457107D01*
X148335786Y-100457107D01*
X148335786Y-99980109D01*
X148485786Y-99980109D01*
X148485786Y-100019891D01*
X148501010Y-100056645D01*
X148529141Y-100084776D01*
X148565895Y-100100000D01*
X148605677Y-100100000D01*
X148642431Y-100084776D01*
X148670562Y-100056645D01*
X148685786Y-100019891D01*
X148685786Y-99980109D01*
X149900000Y-99980109D01*
X149900000Y-100019891D01*
X149915224Y-100056645D01*
X149943355Y-100084776D01*
X149980109Y-100100000D01*
X150019891Y-100100000D01*
X150056645Y-100084776D01*
X150084776Y-100056645D01*
X150100000Y-100019891D01*
X150100000Y-99980109D01*
X151314214Y-99980109D01*
X151314214Y-100019891D01*
X151329438Y-100056645D01*
X151357569Y-100084776D01*
X151394323Y-100100000D01*
X151434105Y-100100000D01*
X151470859Y-100084776D01*
X151498990Y-100056645D01*
X151514214Y-100019891D01*
X151514214Y-99980109D01*
X151498990Y-99943355D01*
X151470859Y-99915224D01*
X151434105Y-99900000D01*
X151394323Y-99900000D01*
X151357569Y-99915224D01*
X151329438Y-99943355D01*
X151314214Y-99980109D01*
X150100000Y-99980109D01*
X150084776Y-99943355D01*
X150056645Y-99915224D01*
X150019891Y-99900000D01*
X149980109Y-99900000D01*
X149943355Y-99915224D01*
X149915224Y-99943355D01*
X149900000Y-99980109D01*
X148685786Y-99980109D01*
X148670562Y-99943355D01*
X148642431Y-99915224D01*
X148605677Y-99900000D01*
X148565895Y-99900000D01*
X148529141Y-99915224D01*
X148501010Y-99943355D01*
X148485786Y-99980109D01*
X148335786Y-99980109D01*
X148335786Y-99750000D01*
X148835786Y-99750000D01*
X149042893Y-99750000D01*
X149542893Y-99750000D01*
X149750000Y-99750000D01*
X150250000Y-99750000D01*
X150457107Y-99750000D01*
X150957107Y-99750000D01*
X151164214Y-99750000D01*
X151164214Y-99542893D01*
X150957107Y-99542893D01*
X150957107Y-99750000D01*
X150457107Y-99750000D01*
X150457107Y-99542893D01*
X150250000Y-99542893D01*
X150250000Y-99750000D01*
X149750000Y-99750000D01*
X149750000Y-99542893D01*
X149542893Y-99542893D01*
X149542893Y-99750000D01*
X149042893Y-99750000D01*
X149042893Y-99542893D01*
X148835786Y-99542893D01*
X148835786Y-99750000D01*
X148335786Y-99750000D01*
X148335786Y-99453541D01*
X148355471Y-99386502D01*
X148372106Y-99365859D01*
X148408931Y-99329034D01*
X148408930Y-99329034D01*
X148408939Y-99329026D01*
X148451928Y-99273002D01*
X149192893Y-99273002D01*
X149192893Y-99312784D01*
X149208117Y-99349538D01*
X149236248Y-99377669D01*
X149273002Y-99392893D01*
X149312784Y-99392893D01*
X149349538Y-99377669D01*
X149377669Y-99349538D01*
X149392893Y-99312784D01*
X149392893Y-99273002D01*
X150607107Y-99273002D01*
X150607107Y-99312784D01*
X150622331Y-99349538D01*
X150650462Y-99377669D01*
X150687216Y-99392893D01*
X150726998Y-99392893D01*
X150763752Y-99377669D01*
X150791883Y-99349538D01*
X150807107Y-99312784D01*
X150807107Y-99273002D01*
X150791883Y-99236248D01*
X150763752Y-99208117D01*
X150726998Y-99192893D01*
X150687216Y-99192893D01*
X150650462Y-99208117D01*
X150622331Y-99236248D01*
X150607107Y-99273002D01*
X149392893Y-99273002D01*
X149377669Y-99236248D01*
X149349538Y-99208117D01*
X149312784Y-99192893D01*
X149273002Y-99192893D01*
X149236248Y-99208117D01*
X149208117Y-99236248D01*
X149192893Y-99273002D01*
X148451928Y-99273002D01*
X148476525Y-99240947D01*
X148476526Y-99240943D01*
X148480590Y-99233907D01*
X148483559Y-99235621D01*
X148517364Y-99193560D01*
X148527113Y-99188233D01*
X148526802Y-99187694D01*
X148533834Y-99183633D01*
X148533840Y-99183631D01*
X148621919Y-99116046D01*
X148658753Y-99079212D01*
X148720076Y-99045727D01*
X148746434Y-99042893D01*
X149042893Y-99042893D01*
X149542893Y-99042893D01*
X149750000Y-99042893D01*
X150250000Y-99042893D01*
X150457107Y-99042893D01*
X150457107Y-98835786D01*
X150250000Y-98835786D01*
X150250000Y-99042893D01*
X149750000Y-99042893D01*
X149750000Y-98835786D01*
X149542893Y-98835786D01*
X149542893Y-99042893D01*
X149042893Y-99042893D01*
X149042893Y-98746433D01*
X149062578Y-98679394D01*
X149079213Y-98658751D01*
X149116037Y-98621927D01*
X149116036Y-98621927D01*
X149116045Y-98621919D01*
X149159034Y-98565895D01*
X149900000Y-98565895D01*
X149900000Y-98605677D01*
X149915224Y-98642431D01*
X149943355Y-98670562D01*
X149980109Y-98685786D01*
X150019891Y-98685786D01*
X150056645Y-98670562D01*
X150084776Y-98642431D01*
X150100000Y-98605677D01*
X150100000Y-98565895D01*
X150084776Y-98529141D01*
X150056645Y-98501010D01*
X150019891Y-98485786D01*
X149980109Y-98485786D01*
X149943355Y-98501010D01*
X149915224Y-98529141D01*
X149900000Y-98565895D01*
X149159034Y-98565895D01*
X149183631Y-98533840D01*
X149183633Y-98533834D01*
X149187694Y-98526802D01*
X149190658Y-98528513D01*
X149224505Y-98486430D01*
X149234217Y-98481128D01*
X149233907Y-98480590D01*
X149240943Y-98476526D01*
X149240947Y-98476525D01*
X149329026Y-98408940D01*
X149365861Y-98372105D01*
X149427184Y-98338620D01*
X149453542Y-98335786D01*
X150546458Y-98335786D01*
X150613497Y-98355471D01*
G37*
%TD.AperFunction*%
%TA.AperFunction,Conductor*%
G36*
X160270827Y-99445185D02*
G01*
X160305363Y-99478377D01*
X160391505Y-99601402D01*
X160558597Y-99768493D01*
X160558603Y-99768498D01*
X160744158Y-99898425D01*
X160787783Y-99953002D01*
X160794977Y-100022500D01*
X160763454Y-100084855D01*
X160744158Y-100101575D01*
X160558597Y-100231505D01*
X160391505Y-100398597D01*
X160255965Y-100592169D01*
X160250958Y-100602908D01*
X160204784Y-100655346D01*
X160138577Y-100674500D01*
X154557940Y-100674500D01*
X154490901Y-100654815D01*
X154470259Y-100638181D01*
X154402262Y-100570184D01*
X154243626Y-100470506D01*
X154244931Y-100468428D01*
X154213749Y-100440282D01*
X154172686Y-100445346D01*
X154151843Y-100440030D01*
X154079260Y-100414633D01*
X154079249Y-100414630D01*
X153900004Y-100394435D01*
X153899996Y-100394435D01*
X153818065Y-100403666D01*
X153749243Y-100391611D01*
X153705805Y-100355931D01*
X153674038Y-100314530D01*
X153675021Y-100313775D01*
X153647859Y-100255234D01*
X153657385Y-100186017D01*
X153702821Y-100132938D01*
X153769741Y-100112850D01*
X153770488Y-100112848D01*
X154055145Y-100112848D01*
X154121117Y-100131854D01*
X154256374Y-100216842D01*
X154255066Y-100218923D01*
X154286252Y-100247063D01*
X154327335Y-100242004D01*
X154348157Y-100247317D01*
X154420742Y-100272715D01*
X154420745Y-100272716D01*
X154420746Y-100272716D01*
X154420750Y-100272717D01*
X154599996Y-100292913D01*
X154600000Y-100292913D01*
X154600004Y-100292913D01*
X154779249Y-100272717D01*
X154779252Y-100272716D01*
X154779255Y-100272716D01*
X154949522Y-100213137D01*
X155102262Y-100117164D01*
X155229816Y-99989610D01*
X155325789Y-99836870D01*
X155385368Y-99666603D01*
X155385369Y-99666597D01*
X155400127Y-99535617D01*
X155427193Y-99471203D01*
X155484788Y-99431647D01*
X155523347Y-99425500D01*
X160203788Y-99425500D01*
X160270827Y-99445185D01*
G37*
%TD.AperFunction*%
%TA.AperFunction,Conductor*%
G36*
X142220730Y-98420185D02*
G01*
X142266485Y-98472989D01*
X142276429Y-98542147D01*
X142247404Y-98605703D01*
X142241372Y-98612181D01*
X141735689Y-99117864D01*
X141674366Y-99151349D01*
X141604674Y-99146365D01*
X141560327Y-99117864D01*
X141382136Y-98939673D01*
X141348651Y-98878350D01*
X141353635Y-98808658D01*
X141382136Y-98764311D01*
X141709628Y-98436819D01*
X141770951Y-98403334D01*
X141797309Y-98400500D01*
X142153691Y-98400500D01*
X142220730Y-98420185D01*
G37*
%TD.AperFunction*%
%TA.AperFunction,Conductor*%
G36*
X143565746Y-98420185D02*
G01*
X143586389Y-98436819D01*
X143648007Y-98498437D01*
X143709628Y-98436818D01*
X143770951Y-98403334D01*
X143797308Y-98400500D01*
X144153691Y-98400500D01*
X144220730Y-98420185D01*
X144266485Y-98472989D01*
X144276429Y-98542147D01*
X144247404Y-98605703D01*
X144241372Y-98612181D01*
X143735689Y-99117864D01*
X143674366Y-99151349D01*
X143604674Y-99146365D01*
X143560327Y-99117864D01*
X143054644Y-98612181D01*
X143021159Y-98550858D01*
X143026143Y-98481166D01*
X143068015Y-98425233D01*
X143133479Y-98400816D01*
X143142325Y-98400500D01*
X143498707Y-98400500D01*
X143565746Y-98420185D01*
G37*
%TD.AperFunction*%
%TA.AperFunction,Conductor*%
G36*
X145565746Y-98420185D02*
G01*
X145586388Y-98436819D01*
X145913880Y-98764311D01*
X145947365Y-98825634D01*
X145942381Y-98895326D01*
X145913880Y-98939673D01*
X145735689Y-99117864D01*
X145674366Y-99151349D01*
X145604674Y-99146365D01*
X145560327Y-99117864D01*
X145054644Y-98612181D01*
X145021159Y-98550858D01*
X145026143Y-98481166D01*
X145068015Y-98425233D01*
X145133479Y-98400816D01*
X145142325Y-98400500D01*
X145498707Y-98400500D01*
X145565746Y-98420185D01*
G37*
%TD.AperFunction*%
%TA.AperFunction,Conductor*%
G36*
X160221812Y-94295185D02*
G01*
X160256348Y-94328377D01*
X160391501Y-94521396D01*
X160391506Y-94521402D01*
X160558597Y-94688493D01*
X160558603Y-94688498D01*
X160744158Y-94818425D01*
X160787783Y-94873002D01*
X160794977Y-94942500D01*
X160763454Y-95004855D01*
X160744158Y-95021575D01*
X160558597Y-95151505D01*
X160391505Y-95318597D01*
X160255965Y-95512169D01*
X160255964Y-95512171D01*
X160156098Y-95726335D01*
X160156094Y-95726344D01*
X160094938Y-95954586D01*
X160094936Y-95954596D01*
X160074341Y-96189999D01*
X160074341Y-96190000D01*
X160094936Y-96425403D01*
X160094938Y-96425413D01*
X160121856Y-96525872D01*
X160120193Y-96595722D01*
X160089762Y-96645646D01*
X159297229Y-97438181D01*
X159235906Y-97471666D01*
X159209548Y-97474500D01*
X155325568Y-97474500D01*
X155258529Y-97454815D01*
X155212774Y-97402011D01*
X155202830Y-97332853D01*
X155231855Y-97269297D01*
X155237887Y-97262819D01*
X156662144Y-95838563D01*
X158188888Y-94311819D01*
X158250211Y-94278334D01*
X158276569Y-94275500D01*
X160154773Y-94275500D01*
X160221812Y-94295185D01*
G37*
%TD.AperFunction*%
%TA.AperFunction,Conductor*%
G36*
X160221812Y-91755185D02*
G01*
X160256348Y-91788377D01*
X160391501Y-91981396D01*
X160391506Y-91981402D01*
X160558597Y-92148493D01*
X160558603Y-92148498D01*
X160744158Y-92278425D01*
X160787783Y-92333002D01*
X160794977Y-92402500D01*
X160763454Y-92464855D01*
X160744158Y-92481575D01*
X160558597Y-92611505D01*
X160391505Y-92778597D01*
X160256348Y-92971623D01*
X160201771Y-93015248D01*
X160154773Y-93024500D01*
X158659452Y-93024500D01*
X158592413Y-93004815D01*
X158546658Y-92952011D01*
X158536714Y-92882853D01*
X158565739Y-92819297D01*
X158571771Y-92812819D01*
X159612771Y-91771819D01*
X159674094Y-91738334D01*
X159700452Y-91735500D01*
X160154773Y-91735500D01*
X160221812Y-91755185D01*
G37*
%TD.AperFunction*%
%TA.AperFunction,Conductor*%
G36*
X161680000Y-80516988D02*
G01*
X161622993Y-80484075D01*
X161495826Y-80450000D01*
X161364174Y-80450000D01*
X161237007Y-80484075D01*
X161180000Y-80516988D01*
X161180000Y-78843012D01*
X161237007Y-78875925D01*
X161364174Y-78910000D01*
X161495826Y-78910000D01*
X161622993Y-78875925D01*
X161680000Y-78843012D01*
X161680000Y-80516988D01*
G37*
%TD.AperFunction*%
%TD*%
M02*
