%TF.GenerationSoftware,KiCad,Pcbnew,8.0.4*%
%TF.CreationDate,2025-08-19T18:18:35+02:00*%
%TF.ProjectId,stm32l432kcu6_eval,73746d33-326c-4343-9332-6b6375365f65,rev?*%
%TF.SameCoordinates,Original*%
%TF.FileFunction,Copper,L2,Inr*%
%TF.FilePolarity,Positive*%
%FSLAX46Y46*%
G04 Gerber Fmt 4.6, Leading zero omitted, Abs format (unit mm)*
G04 Created by KiCad (PCBNEW 8.0.4) date 2025-08-19 18:18:35*
%MOMM*%
%LPD*%
G01*
G04 APERTURE LIST*
%TA.AperFunction,ComponentPad*%
%ADD10O,1.200000X1.900000*%
%TD*%
%TA.AperFunction,ComponentPad*%
%ADD11C,1.450000*%
%TD*%
%TA.AperFunction,HeatsinkPad*%
%ADD12C,0.500000*%
%TD*%
%TA.AperFunction,ComponentPad*%
%ADD13R,1.700000X1.700000*%
%TD*%
%TA.AperFunction,ComponentPad*%
%ADD14O,1.700000X1.700000*%
%TD*%
%TA.AperFunction,ViaPad*%
%ADD15C,0.600000*%
%TD*%
%TA.AperFunction,ViaPad*%
%ADD16C,0.800000*%
%TD*%
G04 APERTURE END LIST*
D10*
%TO.N,GND*%
%TO.C,J1*%
X146500000Y-125037500D03*
D11*
X147500000Y-122337500D03*
X152500000Y-122337500D03*
D10*
X153500000Y-125037500D03*
%TD*%
D12*
%TO.N,GND*%
%TO.C,U3*%
X148585786Y-100000000D03*
X149292893Y-100707107D03*
X150000000Y-101414214D03*
X149292893Y-99292893D03*
X150000000Y-100000000D03*
X150707107Y-100707107D03*
X150000000Y-98585786D03*
X150707107Y-99292893D03*
X151414214Y-100000000D03*
%TD*%
D13*
%TO.N,GND*%
%TO.C,J4*%
X146190000Y-84100000D03*
D14*
%TO.N,/connectors_gpios_2_5_4/PA14*%
X148730000Y-84100000D03*
%TO.N,/connectors_gpios_2_5_4/PA13*%
X151270000Y-84100000D03*
%TO.N,+3V3*%
X153810000Y-84100000D03*
%TD*%
D13*
%TO.N,+3V3*%
%TO.C,J2*%
X138570000Y-75870000D03*
D14*
X138570000Y-78410000D03*
%TO.N,GND*%
X138570000Y-80950000D03*
%TO.N,/connectors_gpios_2_5_4/PA15*%
X138570000Y-83490000D03*
%TO.N,/connectors_gpios_2_5_4/PB3*%
X138570000Y-86030000D03*
%TO.N,/connectors_gpios_2_5_4/PB4*%
X138570000Y-88570000D03*
%TO.N,/connectors_gpios_2_5_4/PB5*%
X138570000Y-91110000D03*
%TO.N,/connectors_gpios_2_5_4/PB6*%
X138570000Y-93650000D03*
%TO.N,/connectors_gpios_2_5_4/PB7*%
X138570000Y-96190000D03*
%TO.N,/connectors_gpios_2_5_4/PH3(BOOT0)*%
X138570000Y-98730000D03*
%TO.N,/connectors_gpios_2_5_4/PC14(OSC_IN)*%
X138570000Y-101270000D03*
%TO.N,/connectors_gpios_2_5_4/PC15(OSC_OUT)*%
X138570000Y-103810000D03*
%TO.N,/connectors_gpios_2_5_4/NRST*%
X138570000Y-106350000D03*
%TO.N,/connectors_gpios_2_5_4/PA0*%
X138570000Y-108890000D03*
%TO.N,/connectors_gpios_2_5_4/PA1*%
X138570000Y-111430000D03*
%TO.N,/connectors_gpios_2_5_4/PA2*%
X138570000Y-113970000D03*
%TO.N,GND*%
X138570000Y-116510000D03*
%TO.N,+3V3*%
X138570000Y-119050000D03*
%TO.N,+5V_USB*%
X138570000Y-121590000D03*
X138570000Y-124130000D03*
%TD*%
D13*
%TO.N,+3V3*%
%TO.C,J3*%
X161430000Y-124130000D03*
D14*
%TO.N,GND*%
X161430000Y-121590000D03*
X161430000Y-119050000D03*
%TO.N,/connectors_gpios_2_5_4/PA3*%
X161430000Y-116510000D03*
%TO.N,/connectors_gpios_2_5_4/PA4*%
X161430000Y-113970000D03*
%TO.N,/connectors_gpios_2_5_4/PA5*%
X161430000Y-111430000D03*
%TO.N,/connectors_gpios_2_5_4/PA6*%
X161430000Y-108890000D03*
%TO.N,/connectors_gpios_2_5_4/PA7*%
X161430000Y-106350000D03*
%TO.N,/connectors_gpios_2_5_4/PB0*%
X161430000Y-103810000D03*
%TO.N,/connectors_gpios_2_5_4/PB1*%
X161430000Y-101270000D03*
%TO.N,/connectors_gpios_2_5_4/PA8*%
X161430000Y-98730000D03*
%TO.N,/connectors_gpios_2_5_4/PA9*%
X161430000Y-96190000D03*
%TO.N,/connectors_gpios_2_5_4/PA10*%
X161430000Y-93650000D03*
%TO.N,/connectors_gpios_2_5_4/PA11*%
X161430000Y-91110000D03*
%TO.N,/connectors_gpios_2_5_4/PA12*%
X161430000Y-88570000D03*
%TO.N,/connectors_gpios_2_5_4/PA13*%
X161430000Y-86030000D03*
%TO.N,/connectors_gpios_2_5_4/PA14*%
X161430000Y-83490000D03*
%TO.N,GND*%
X161430000Y-80950000D03*
X161430000Y-78410000D03*
%TO.N,+3V3*%
X161430000Y-75870000D03*
%TD*%
D15*
%TO.N,/connectors_gpios_2_5_4/PH3(BOOT0)*%
X143300000Y-95700000D03*
D16*
%TO.N,GND*%
X153000000Y-119400000D03*
D15*
X149650000Y-115100000D03*
X146304563Y-75141750D03*
X150800000Y-108500000D03*
X159004563Y-80221750D03*
X148844563Y-80221750D03*
X153900000Y-112300000D03*
X156464563Y-75141750D03*
D16*
X145900000Y-112000000D03*
D15*
X146304563Y-115781750D03*
X141224563Y-75141750D03*
X156600000Y-118000000D03*
X143764563Y-75141750D03*
X153924563Y-75141750D03*
X141224563Y-80221750D03*
X151384563Y-75141750D03*
X154500000Y-119481250D03*
X148844563Y-77681750D03*
X143764563Y-77681750D03*
X156464563Y-77681750D03*
X143400000Y-106100000D03*
X159004563Y-75141750D03*
X156464563Y-82761750D03*
X159004563Y-77681750D03*
D16*
X144600000Y-98600000D03*
X152000000Y-118700000D03*
D15*
X146304563Y-80221750D03*
X141224563Y-115781750D03*
X154400000Y-105200000D03*
X144300000Y-91700000D03*
X158500000Y-112600000D03*
X158700000Y-104900000D03*
X141224563Y-77681750D03*
X143764563Y-80221750D03*
X142700000Y-86474999D03*
X154600000Y-100512652D03*
X153924563Y-80221750D03*
X143764563Y-82761750D03*
D16*
X144500000Y-110600000D03*
D15*
X148844563Y-75141750D03*
X146304563Y-77681750D03*
X157400000Y-107900000D03*
X159004563Y-82761750D03*
X141224563Y-92921750D03*
X151384563Y-77681750D03*
X156464563Y-80221750D03*
X158200000Y-96000000D03*
X151384563Y-80221750D03*
X151800000Y-117000000D03*
X152600000Y-85900000D03*
X152700000Y-108000000D03*
D16*
X142100000Y-117600000D03*
D15*
X141224563Y-82761750D03*
X159000000Y-92700000D03*
X153924563Y-115781750D03*
X147300000Y-113000000D03*
X158300000Y-123300000D03*
X153924563Y-77681750D03*
X156464563Y-85301750D03*
D16*
X145900000Y-113600000D03*
X142600000Y-98500000D03*
D15*
X141500000Y-104400000D03*
X141300000Y-94500000D03*
X148900000Y-91800000D03*
D16*
%TO.N,+3V3*%
X141300000Y-112000000D03*
X141500000Y-100200000D03*
D15*
X148500000Y-112000000D03*
D16*
X142700000Y-110600000D03*
D15*
X147575000Y-103600000D03*
X154600000Y-99487348D03*
D16*
X141300000Y-113600000D03*
D15*
X158300000Y-121700000D03*
X147300000Y-86500000D03*
%TO.N,/connectors_gpios_2_5_4/PA14*%
X150100000Y-93800000D03*
%TO.N,/connectors_gpios_2_5_4/PA13*%
X151141542Y-95700000D03*
%TO.N,/connectors_gpios_2_5_4/PA15*%
X149200000Y-96100000D03*
%TO.N,/connectors_gpios_2_5_4/PA11*%
X154500000Y-96025000D03*
X148700001Y-114700001D03*
%TO.N,/connectors_gpios_2_5_4/PA4*%
X158300000Y-124700000D03*
%TO.N,/connectors_gpios_2_5_4/PA2*%
X150000000Y-104700000D03*
%TO.N,/connectors_gpios_2_5_4/PA12*%
X153400000Y-95700000D03*
X150600000Y-114700000D03*
%TO.N,/connectors_gpios_2_5_4/PA1*%
X150700000Y-106200000D03*
X152400000Y-106300000D03*
X148800000Y-104600000D03*
%TO.N,/connectors_gpios_2_5_4/NRST*%
X142700000Y-94100000D03*
X147075000Y-102900000D03*
%TO.N,/connectors_gpios_2_5_4/PB4*%
X147600000Y-95700000D03*
%TO.N,/connectors_gpios_2_5_4/PB1*%
X153900000Y-101200000D03*
X152700000Y-91600000D03*
%TO.N,/connectors_gpios_2_5_4/PB5*%
X146800000Y-96100000D03*
%TO.N,/connectors_gpios_2_5_4/PB3*%
X148399997Y-96100000D03*
%TD*%
%TA.AperFunction,Conductor*%
%TO.N,GND*%
G36*
X161680000Y-121156988D02*
G01*
X161622993Y-121124075D01*
X161495826Y-121090000D01*
X161364174Y-121090000D01*
X161237007Y-121124075D01*
X161180000Y-121156988D01*
X161180000Y-119483012D01*
X161237007Y-119515925D01*
X161364174Y-119550000D01*
X161495826Y-119550000D01*
X161622993Y-119515925D01*
X161680000Y-119483012D01*
X161680000Y-121156988D01*
G37*
%TD.AperFunction*%
%TA.AperFunction,Conductor*%
G36*
X161680000Y-80516988D02*
G01*
X161622993Y-80484075D01*
X161495826Y-80450000D01*
X161364174Y-80450000D01*
X161237007Y-80484075D01*
X161180000Y-80516988D01*
X161180000Y-78843012D01*
X161237007Y-78875925D01*
X161364174Y-78910000D01*
X161495826Y-78910000D01*
X161622993Y-78875925D01*
X161680000Y-78843012D01*
X161680000Y-80516988D01*
G37*
%TD.AperFunction*%
%TA.AperFunction,Conductor*%
G36*
X162706922Y-74001280D02*
G01*
X162797266Y-74011459D01*
X162824331Y-74017636D01*
X162903540Y-74045352D01*
X162928553Y-74057398D01*
X162999606Y-74102043D01*
X163021313Y-74119355D01*
X163080644Y-74178686D01*
X163097957Y-74200395D01*
X163142600Y-74271444D01*
X163154648Y-74296462D01*
X163182362Y-74375666D01*
X163188540Y-74402735D01*
X163198720Y-74493076D01*
X163199500Y-74506961D01*
X163199500Y-125493038D01*
X163198720Y-125506923D01*
X163188540Y-125597264D01*
X163182362Y-125624333D01*
X163154648Y-125703537D01*
X163142600Y-125728555D01*
X163097957Y-125799604D01*
X163080644Y-125821313D01*
X163021313Y-125880644D01*
X162999604Y-125897957D01*
X162928555Y-125942600D01*
X162903537Y-125954648D01*
X162824333Y-125982362D01*
X162797264Y-125988540D01*
X162717075Y-125997576D01*
X162706921Y-125998720D01*
X162693038Y-125999500D01*
X154625079Y-125999500D01*
X154558040Y-125979815D01*
X154512285Y-125927011D01*
X154502341Y-125857853D01*
X154514595Y-125819204D01*
X154519407Y-125809759D01*
X154572914Y-125645084D01*
X154600000Y-125474071D01*
X154600000Y-125287500D01*
X153800000Y-125287500D01*
X153800000Y-124787500D01*
X154600000Y-124787500D01*
X154600000Y-124699996D01*
X157494435Y-124699996D01*
X157494435Y-124700003D01*
X157514630Y-124879249D01*
X157514631Y-124879254D01*
X157574211Y-125049523D01*
X157648967Y-125168495D01*
X157670184Y-125202262D01*
X157797738Y-125329816D01*
X157810042Y-125337547D01*
X157947307Y-125423797D01*
X157950478Y-125425789D01*
X158062711Y-125465061D01*
X158120745Y-125485368D01*
X158120750Y-125485369D01*
X158299996Y-125505565D01*
X158300000Y-125505565D01*
X158300004Y-125505565D01*
X158479249Y-125485369D01*
X158479252Y-125485368D01*
X158479255Y-125485368D01*
X158649522Y-125425789D01*
X158802262Y-125329816D01*
X158929816Y-125202262D01*
X159025789Y-125049522D01*
X159085368Y-124879255D01*
X159093416Y-124807830D01*
X159105565Y-124700003D01*
X159105565Y-124699996D01*
X159085369Y-124520750D01*
X159085368Y-124520745D01*
X159045897Y-124407944D01*
X159025789Y-124350478D01*
X158929816Y-124197738D01*
X158802262Y-124070184D01*
X158649523Y-123974211D01*
X158479254Y-123914631D01*
X158479249Y-123914630D01*
X158300004Y-123894435D01*
X158299996Y-123894435D01*
X158120750Y-123914630D01*
X158120745Y-123914631D01*
X157950476Y-123974211D01*
X157797737Y-124070184D01*
X157670184Y-124197737D01*
X157574211Y-124350476D01*
X157514631Y-124520745D01*
X157514630Y-124520750D01*
X157494435Y-124699996D01*
X154600000Y-124699996D01*
X154600000Y-124600928D01*
X154572914Y-124429915D01*
X154519408Y-124265242D01*
X154440804Y-124110975D01*
X154339032Y-123970897D01*
X154216602Y-123848467D01*
X154076524Y-123746695D01*
X153922257Y-123668091D01*
X153757589Y-123614587D01*
X153757581Y-123614585D01*
X153750000Y-123613384D01*
X153750000Y-124520511D01*
X153740060Y-124503295D01*
X153684205Y-124447440D01*
X153615796Y-124407944D01*
X153539496Y-124387500D01*
X153460504Y-124387500D01*
X153384204Y-124407944D01*
X153315795Y-124447440D01*
X153259940Y-124503295D01*
X153250000Y-124520511D01*
X153250000Y-123613384D01*
X153249999Y-123613384D01*
X153242418Y-123614585D01*
X153242407Y-123614588D01*
X153228169Y-123619214D01*
X153158328Y-123621206D01*
X153098497Y-123585123D01*
X153067671Y-123522421D01*
X153075639Y-123453007D01*
X153118733Y-123399706D01*
X153171621Y-123362673D01*
X152568173Y-122759225D01*
X152664044Y-122733537D01*
X152760956Y-122677584D01*
X152840084Y-122598456D01*
X152896037Y-122501544D01*
X152921725Y-122405672D01*
X153525173Y-123009121D01*
X153564933Y-122952339D01*
X153655518Y-122758076D01*
X153655522Y-122758067D01*
X153710995Y-122551037D01*
X153710997Y-122551027D01*
X153729679Y-122337500D01*
X153729679Y-122337499D01*
X153710997Y-122123972D01*
X153710995Y-122123962D01*
X153655522Y-121916932D01*
X153655518Y-121916923D01*
X153564933Y-121722662D01*
X153549062Y-121699996D01*
X157494435Y-121699996D01*
X157494435Y-121700003D01*
X157514630Y-121879249D01*
X157514631Y-121879254D01*
X157574211Y-122049523D01*
X157620991Y-122123972D01*
X157670184Y-122202262D01*
X157797738Y-122329816D01*
X157950478Y-122425789D01*
X158052254Y-122461402D01*
X158120745Y-122485368D01*
X158120750Y-122485369D01*
X158299996Y-122505565D01*
X158300000Y-122505565D01*
X158300004Y-122505565D01*
X158479249Y-122485369D01*
X158479252Y-122485368D01*
X158479255Y-122485368D01*
X158649522Y-122425789D01*
X158802262Y-122329816D01*
X158929816Y-122202262D01*
X159025789Y-122049522D01*
X159085368Y-121879255D01*
X159089791Y-121840000D01*
X159105565Y-121700003D01*
X159105565Y-121699996D01*
X159085369Y-121520750D01*
X159085368Y-121520745D01*
X159027230Y-121354596D01*
X159025789Y-121350478D01*
X159001816Y-121312326D01*
X158929815Y-121197737D01*
X158802262Y-121070184D01*
X158649523Y-120974211D01*
X158479254Y-120914631D01*
X158479249Y-120914630D01*
X158300004Y-120894435D01*
X158299996Y-120894435D01*
X158120750Y-120914630D01*
X158120745Y-120914631D01*
X157950476Y-120974211D01*
X157797737Y-121070184D01*
X157670184Y-121197737D01*
X157574211Y-121350476D01*
X157514631Y-121520745D01*
X157514630Y-121520750D01*
X157494435Y-121699996D01*
X153549062Y-121699996D01*
X153525172Y-121665879D01*
X152921725Y-122269326D01*
X152896037Y-122173456D01*
X152840084Y-122076544D01*
X152760956Y-121997416D01*
X152664044Y-121941463D01*
X152568173Y-121915774D01*
X153171621Y-121312326D01*
X153171620Y-121312325D01*
X153114840Y-121272567D01*
X153114838Y-121272566D01*
X152920576Y-121181981D01*
X152920567Y-121181977D01*
X152713537Y-121126504D01*
X152713527Y-121126502D01*
X152500001Y-121107821D01*
X152499999Y-121107821D01*
X152286472Y-121126502D01*
X152286462Y-121126504D01*
X152079432Y-121181977D01*
X152079423Y-121181981D01*
X151885162Y-121272566D01*
X151828378Y-121312326D01*
X152431827Y-121915774D01*
X152335956Y-121941463D01*
X152239044Y-121997416D01*
X152159916Y-122076544D01*
X152103963Y-122173456D01*
X152078274Y-122269326D01*
X151474826Y-121665878D01*
X151435066Y-121722662D01*
X151344481Y-121916923D01*
X151344477Y-121916932D01*
X151289004Y-122123962D01*
X151289002Y-122123972D01*
X151270321Y-122337499D01*
X151270321Y-122337500D01*
X151289002Y-122551027D01*
X151289004Y-122551037D01*
X151344477Y-122758067D01*
X151344481Y-122758076D01*
X151435066Y-122952338D01*
X151435067Y-122952340D01*
X151474825Y-123009120D01*
X151474826Y-123009121D01*
X152078274Y-122405672D01*
X152103963Y-122501544D01*
X152159916Y-122598456D01*
X152239044Y-122677584D01*
X152335956Y-122733537D01*
X152431827Y-122759225D01*
X151828377Y-123362673D01*
X151885161Y-123402433D01*
X152079423Y-123493018D01*
X152079432Y-123493022D01*
X152286462Y-123548495D01*
X152286472Y-123548497D01*
X152499999Y-123567179D01*
X152500001Y-123567179D01*
X152713527Y-123548497D01*
X152713533Y-123548496D01*
X152837195Y-123515361D01*
X152907045Y-123517024D01*
X152964908Y-123556186D01*
X152992412Y-123620415D01*
X152980826Y-123689317D01*
X152933827Y-123741017D01*
X152925591Y-123745617D01*
X152923479Y-123746693D01*
X152783397Y-123848467D01*
X152660967Y-123970897D01*
X152559195Y-124110975D01*
X152480591Y-124265242D01*
X152427085Y-124429915D01*
X152400000Y-124600928D01*
X152400000Y-124787500D01*
X153200000Y-124787500D01*
X153200000Y-125287500D01*
X152400000Y-125287500D01*
X152400000Y-125474071D01*
X152427085Y-125645084D01*
X152480592Y-125809759D01*
X152485405Y-125819204D01*
X152498302Y-125887874D01*
X152472026Y-125952614D01*
X152414920Y-125992872D01*
X152374921Y-125999500D01*
X147625079Y-125999500D01*
X147558040Y-125979815D01*
X147512285Y-125927011D01*
X147502341Y-125857853D01*
X147514595Y-125819204D01*
X147519407Y-125809759D01*
X147572914Y-125645084D01*
X147600000Y-125474071D01*
X147600000Y-125287500D01*
X146800000Y-125287500D01*
X146800000Y-124787500D01*
X147600000Y-124787500D01*
X147600000Y-124600928D01*
X147572914Y-124429915D01*
X147519408Y-124265242D01*
X147440804Y-124110975D01*
X147339032Y-123970897D01*
X147216602Y-123848467D01*
X147076522Y-123746694D01*
X147074414Y-123745620D01*
X147073755Y-123744998D01*
X147072373Y-123744151D01*
X147072551Y-123743860D01*
X147023619Y-123697646D01*
X147006824Y-123629825D01*
X147029362Y-123563690D01*
X147084077Y-123520239D01*
X147153598Y-123513267D01*
X147162804Y-123515361D01*
X147286465Y-123548496D01*
X147286472Y-123548497D01*
X147499999Y-123567179D01*
X147500001Y-123567179D01*
X147713527Y-123548497D01*
X147713537Y-123548495D01*
X147920567Y-123493022D01*
X147920576Y-123493018D01*
X148114839Y-123402433D01*
X148171621Y-123362673D01*
X147568173Y-122759225D01*
X147664044Y-122733537D01*
X147760956Y-122677584D01*
X147840084Y-122598456D01*
X147896037Y-122501544D01*
X147921725Y-122405672D01*
X148525173Y-123009121D01*
X148564933Y-122952339D01*
X148655518Y-122758076D01*
X148655522Y-122758067D01*
X148710995Y-122551037D01*
X148710997Y-122551027D01*
X148729679Y-122337500D01*
X148729679Y-122337499D01*
X148710997Y-122123972D01*
X148710995Y-122123962D01*
X148655522Y-121916932D01*
X148655518Y-121916923D01*
X148564933Y-121722662D01*
X148525172Y-121665879D01*
X147921725Y-122269326D01*
X147896037Y-122173456D01*
X147840084Y-122076544D01*
X147760956Y-121997416D01*
X147664044Y-121941463D01*
X147568173Y-121915774D01*
X148171621Y-121312326D01*
X148171620Y-121312325D01*
X148114840Y-121272567D01*
X148114838Y-121272566D01*
X147920576Y-121181981D01*
X147920567Y-121181977D01*
X147713537Y-121126504D01*
X147713527Y-121126502D01*
X147500001Y-121107821D01*
X147499999Y-121107821D01*
X147286472Y-121126502D01*
X147286462Y-121126504D01*
X147079432Y-121181977D01*
X147079423Y-121181981D01*
X146885162Y-121272566D01*
X146828378Y-121312326D01*
X147431827Y-121915774D01*
X147335956Y-121941463D01*
X147239044Y-121997416D01*
X147159916Y-122076544D01*
X147103963Y-122173456D01*
X147078274Y-122269326D01*
X146474826Y-121665878D01*
X146435066Y-121722662D01*
X146344481Y-121916923D01*
X146344477Y-121916932D01*
X146289004Y-122123962D01*
X146289002Y-122123972D01*
X146270321Y-122337499D01*
X146270321Y-122337500D01*
X146289002Y-122551027D01*
X146289004Y-122551037D01*
X146344477Y-122758067D01*
X146344481Y-122758076D01*
X146435066Y-122952338D01*
X146435067Y-122952340D01*
X146474825Y-123009120D01*
X146474826Y-123009121D01*
X147078274Y-122405672D01*
X147103963Y-122501544D01*
X147159916Y-122598456D01*
X147239044Y-122677584D01*
X147335956Y-122733537D01*
X147431827Y-122759225D01*
X146828377Y-123362673D01*
X146828377Y-123362674D01*
X146881267Y-123399707D01*
X146924892Y-123454283D01*
X146932086Y-123523781D01*
X146900564Y-123586136D01*
X146840334Y-123621551D01*
X146771825Y-123619213D01*
X146757589Y-123614587D01*
X146757581Y-123614585D01*
X146750000Y-123613384D01*
X146750000Y-124520511D01*
X146740060Y-124503295D01*
X146684205Y-124447440D01*
X146615796Y-124407944D01*
X146539496Y-124387500D01*
X146460504Y-124387500D01*
X146384204Y-124407944D01*
X146315795Y-124447440D01*
X146259940Y-124503295D01*
X146250000Y-124520511D01*
X146250000Y-123613384D01*
X146249999Y-123613384D01*
X146242418Y-123614585D01*
X146242410Y-123614587D01*
X146077742Y-123668091D01*
X145923475Y-123746695D01*
X145783397Y-123848467D01*
X145660967Y-123970897D01*
X145559195Y-124110975D01*
X145480591Y-124265242D01*
X145427085Y-124429915D01*
X145400000Y-124600928D01*
X145400000Y-124787500D01*
X146200000Y-124787500D01*
X146200000Y-125287500D01*
X145400000Y-125287500D01*
X145400000Y-125474071D01*
X145427085Y-125645084D01*
X145480592Y-125809759D01*
X145485405Y-125819204D01*
X145498302Y-125887874D01*
X145472026Y-125952614D01*
X145414920Y-125992872D01*
X145374921Y-125999500D01*
X137306962Y-125999500D01*
X137293078Y-125998720D01*
X137280553Y-125997308D01*
X137202735Y-125988540D01*
X137175666Y-125982362D01*
X137096462Y-125954648D01*
X137071444Y-125942600D01*
X137000395Y-125897957D01*
X136978686Y-125880644D01*
X136919355Y-125821313D01*
X136902042Y-125799604D01*
X136857399Y-125728555D01*
X136845351Y-125703537D01*
X136817637Y-125624333D01*
X136811459Y-125597263D01*
X136808579Y-125571705D01*
X136801280Y-125506922D01*
X136800500Y-125493038D01*
X136800500Y-78409999D01*
X137214341Y-78409999D01*
X137214341Y-78410000D01*
X137234936Y-78645403D01*
X137234938Y-78645413D01*
X137296094Y-78873655D01*
X137296096Y-78873659D01*
X137296097Y-78873663D01*
X137395847Y-79087578D01*
X137395965Y-79087830D01*
X137395967Y-79087834D01*
X137531501Y-79281395D01*
X137531506Y-79281402D01*
X137698597Y-79448493D01*
X137698603Y-79448498D01*
X137884594Y-79578730D01*
X137928219Y-79633307D01*
X137935413Y-79702805D01*
X137903890Y-79765160D01*
X137884595Y-79781880D01*
X137698922Y-79911890D01*
X137698920Y-79911891D01*
X137531891Y-80078920D01*
X137531886Y-80078926D01*
X137396400Y-80272420D01*
X137396399Y-80272422D01*
X137296570Y-80486507D01*
X137296567Y-80486513D01*
X137239364Y-80699999D01*
X137239364Y-80700000D01*
X138136988Y-80700000D01*
X138104075Y-80757007D01*
X138070000Y-80884174D01*
X138070000Y-81015826D01*
X138104075Y-81142993D01*
X138136988Y-81200000D01*
X137239364Y-81200000D01*
X137296567Y-81413486D01*
X137296570Y-81413492D01*
X137396399Y-81627578D01*
X137531894Y-81821082D01*
X137698917Y-81988105D01*
X137884595Y-82118119D01*
X137928219Y-82172696D01*
X137935412Y-82242195D01*
X137903890Y-82304549D01*
X137884595Y-82321269D01*
X137698594Y-82451508D01*
X137531505Y-82618597D01*
X137395965Y-82812169D01*
X137395964Y-82812171D01*
X137296098Y-83026335D01*
X137296094Y-83026344D01*
X137234938Y-83254586D01*
X137234936Y-83254596D01*
X137214341Y-83489999D01*
X137214341Y-83490000D01*
X137234936Y-83725403D01*
X137234938Y-83725413D01*
X137296094Y-83953655D01*
X137296096Y-83953659D01*
X137296097Y-83953663D01*
X137333640Y-84034174D01*
X137395965Y-84167830D01*
X137395967Y-84167834D01*
X137483605Y-84292993D01*
X137513304Y-84335408D01*
X137531501Y-84361395D01*
X137531506Y-84361402D01*
X137698597Y-84528493D01*
X137698603Y-84528498D01*
X137884158Y-84658425D01*
X137927783Y-84713002D01*
X137934977Y-84782500D01*
X137903454Y-84844855D01*
X137884158Y-84861575D01*
X137698597Y-84991505D01*
X137531505Y-85158597D01*
X137395965Y-85352169D01*
X137395964Y-85352171D01*
X137296098Y-85566335D01*
X137296094Y-85566344D01*
X137234938Y-85794586D01*
X137234936Y-85794596D01*
X137214341Y-86029999D01*
X137214341Y-86030000D01*
X137234936Y-86265403D01*
X137234938Y-86265413D01*
X137296094Y-86493655D01*
X137296096Y-86493659D01*
X137296097Y-86493663D01*
X137382637Y-86679249D01*
X137395965Y-86707830D01*
X137395967Y-86707834D01*
X137531501Y-86901395D01*
X137531506Y-86901402D01*
X137698597Y-87068493D01*
X137698603Y-87068498D01*
X137884158Y-87198425D01*
X137927783Y-87253002D01*
X137934977Y-87322500D01*
X137903454Y-87384855D01*
X137884158Y-87401575D01*
X137698597Y-87531505D01*
X137531505Y-87698597D01*
X137395965Y-87892169D01*
X137395964Y-87892171D01*
X137296098Y-88106335D01*
X137296094Y-88106344D01*
X137234938Y-88334586D01*
X137234936Y-88334596D01*
X137214341Y-88569999D01*
X137214341Y-88570000D01*
X137234936Y-88805403D01*
X137234938Y-88805413D01*
X137296094Y-89033655D01*
X137296096Y-89033659D01*
X137296097Y-89033663D01*
X137395965Y-89247830D01*
X137395967Y-89247834D01*
X137531501Y-89441395D01*
X137531506Y-89441402D01*
X137698597Y-89608493D01*
X137698603Y-89608498D01*
X137884158Y-89738425D01*
X137927783Y-89793002D01*
X137934977Y-89862500D01*
X137903454Y-89924855D01*
X137884158Y-89941575D01*
X137698597Y-90071505D01*
X137531505Y-90238597D01*
X137395965Y-90432169D01*
X137395964Y-90432171D01*
X137296098Y-90646335D01*
X137296094Y-90646344D01*
X137234938Y-90874586D01*
X137234936Y-90874596D01*
X137214341Y-91109999D01*
X137214341Y-91110000D01*
X137234936Y-91345403D01*
X137234938Y-91345413D01*
X137296094Y-91573655D01*
X137296096Y-91573659D01*
X137296097Y-91573663D01*
X137308380Y-91600003D01*
X137395965Y-91787830D01*
X137395967Y-91787834D01*
X137531501Y-91981395D01*
X137531506Y-91981402D01*
X137698597Y-92148493D01*
X137698603Y-92148498D01*
X137884158Y-92278425D01*
X137927783Y-92333002D01*
X137934977Y-92402500D01*
X137903454Y-92464855D01*
X137884158Y-92481575D01*
X137698597Y-92611505D01*
X137531505Y-92778597D01*
X137395965Y-92972169D01*
X137395964Y-92972171D01*
X137296098Y-93186335D01*
X137296094Y-93186344D01*
X137234938Y-93414586D01*
X137234936Y-93414596D01*
X137214341Y-93649999D01*
X137214341Y-93650000D01*
X137234936Y-93885403D01*
X137234938Y-93885413D01*
X137296094Y-94113655D01*
X137296096Y-94113659D01*
X137296097Y-94113663D01*
X137312819Y-94149523D01*
X137395965Y-94327830D01*
X137395967Y-94327834D01*
X137531501Y-94521395D01*
X137531506Y-94521402D01*
X137698597Y-94688493D01*
X137698603Y-94688498D01*
X137884158Y-94818425D01*
X137927783Y-94873002D01*
X137934977Y-94942500D01*
X137903454Y-95004855D01*
X137884158Y-95021575D01*
X137698597Y-95151505D01*
X137531505Y-95318597D01*
X137395965Y-95512169D01*
X137395964Y-95512171D01*
X137296098Y-95726335D01*
X137296094Y-95726344D01*
X137234938Y-95954586D01*
X137234936Y-95954596D01*
X137214341Y-96189999D01*
X137214341Y-96190000D01*
X137234936Y-96425403D01*
X137234938Y-96425413D01*
X137296094Y-96653655D01*
X137296096Y-96653659D01*
X137296097Y-96653663D01*
X137376361Y-96825789D01*
X137395965Y-96867830D01*
X137395967Y-96867834D01*
X137531501Y-97061395D01*
X137531506Y-97061402D01*
X137698597Y-97228493D01*
X137698603Y-97228498D01*
X137884158Y-97358425D01*
X137927783Y-97413002D01*
X137934977Y-97482500D01*
X137903454Y-97544855D01*
X137884158Y-97561575D01*
X137698597Y-97691505D01*
X137531505Y-97858597D01*
X137395965Y-98052169D01*
X137395964Y-98052171D01*
X137296098Y-98266335D01*
X137296094Y-98266344D01*
X137234938Y-98494586D01*
X137234936Y-98494596D01*
X137214341Y-98729999D01*
X137214341Y-98730000D01*
X137234936Y-98965403D01*
X137234938Y-98965413D01*
X137296094Y-99193655D01*
X137296096Y-99193659D01*
X137296097Y-99193663D01*
X137363802Y-99338856D01*
X137395965Y-99407830D01*
X137395967Y-99407834D01*
X137531501Y-99601395D01*
X137531506Y-99601402D01*
X137698597Y-99768493D01*
X137698603Y-99768498D01*
X137884158Y-99898425D01*
X137927783Y-99953002D01*
X137934977Y-100022500D01*
X137903454Y-100084855D01*
X137884158Y-100101575D01*
X137698597Y-100231505D01*
X137531505Y-100398597D01*
X137395965Y-100592169D01*
X137395964Y-100592171D01*
X137296098Y-100806335D01*
X137296094Y-100806344D01*
X137234938Y-101034586D01*
X137234936Y-101034596D01*
X137214341Y-101269999D01*
X137214341Y-101270000D01*
X137234936Y-101505403D01*
X137234938Y-101505413D01*
X137296094Y-101733655D01*
X137296096Y-101733659D01*
X137296097Y-101733663D01*
X137385687Y-101925788D01*
X137395965Y-101947830D01*
X137395967Y-101947834D01*
X137531501Y-102141395D01*
X137531506Y-102141402D01*
X137698597Y-102308493D01*
X137698603Y-102308498D01*
X137884158Y-102438425D01*
X137927783Y-102493002D01*
X137934977Y-102562500D01*
X137903454Y-102624855D01*
X137884158Y-102641575D01*
X137698597Y-102771505D01*
X137531505Y-102938597D01*
X137395965Y-103132169D01*
X137395964Y-103132171D01*
X137296098Y-103346335D01*
X137296094Y-103346344D01*
X137234938Y-103574586D01*
X137234936Y-103574596D01*
X137214341Y-103809999D01*
X137214341Y-103810000D01*
X137234936Y-104045403D01*
X137234938Y-104045413D01*
X137296094Y-104273655D01*
X137296096Y-104273659D01*
X137296097Y-104273663D01*
X137394725Y-104485170D01*
X137395965Y-104487830D01*
X137395967Y-104487834D01*
X137531501Y-104681395D01*
X137531506Y-104681402D01*
X137698597Y-104848493D01*
X137698603Y-104848498D01*
X137884158Y-104978425D01*
X137927783Y-105033002D01*
X137934977Y-105102500D01*
X137903454Y-105164855D01*
X137884158Y-105181575D01*
X137698597Y-105311505D01*
X137531505Y-105478597D01*
X137395965Y-105672169D01*
X137395964Y-105672171D01*
X137296098Y-105886335D01*
X137296094Y-105886344D01*
X137234938Y-106114586D01*
X137234936Y-106114596D01*
X137214341Y-106349999D01*
X137214341Y-106350000D01*
X137234936Y-106585403D01*
X137234938Y-106585413D01*
X137296094Y-106813655D01*
X137296096Y-106813659D01*
X137296097Y-106813663D01*
X137350260Y-106929815D01*
X137395965Y-107027830D01*
X137395967Y-107027834D01*
X137531501Y-107221395D01*
X137531506Y-107221402D01*
X137698597Y-107388493D01*
X137698603Y-107388498D01*
X137884158Y-107518425D01*
X137927783Y-107573002D01*
X137934977Y-107642500D01*
X137903454Y-107704855D01*
X137884158Y-107721575D01*
X137698597Y-107851505D01*
X137531505Y-108018597D01*
X137395965Y-108212169D01*
X137395964Y-108212171D01*
X137296098Y-108426335D01*
X137296094Y-108426344D01*
X137234938Y-108654586D01*
X137234936Y-108654596D01*
X137214341Y-108889999D01*
X137214341Y-108890000D01*
X137234936Y-109125403D01*
X137234938Y-109125413D01*
X137296094Y-109353655D01*
X137296096Y-109353659D01*
X137296097Y-109353663D01*
X137395965Y-109567830D01*
X137395967Y-109567834D01*
X137531501Y-109761395D01*
X137531506Y-109761402D01*
X137698597Y-109928493D01*
X137698603Y-109928498D01*
X137884158Y-110058425D01*
X137927783Y-110113002D01*
X137934977Y-110182500D01*
X137903454Y-110244855D01*
X137884158Y-110261575D01*
X137698597Y-110391505D01*
X137531505Y-110558597D01*
X137395965Y-110752169D01*
X137395964Y-110752171D01*
X137296098Y-110966335D01*
X137296094Y-110966344D01*
X137234938Y-111194586D01*
X137234936Y-111194596D01*
X137214341Y-111429999D01*
X137214341Y-111430000D01*
X137234936Y-111665403D01*
X137234938Y-111665413D01*
X137296094Y-111893655D01*
X137296096Y-111893659D01*
X137296097Y-111893663D01*
X137395965Y-112107830D01*
X137395967Y-112107834D01*
X137531501Y-112301395D01*
X137531506Y-112301402D01*
X137698597Y-112468493D01*
X137698603Y-112468498D01*
X137884158Y-112598425D01*
X137927783Y-112653002D01*
X137934977Y-112722500D01*
X137903454Y-112784855D01*
X137884158Y-112801575D01*
X137698597Y-112931505D01*
X137531505Y-113098597D01*
X137395965Y-113292169D01*
X137395964Y-113292171D01*
X137296098Y-113506335D01*
X137296094Y-113506344D01*
X137234938Y-113734586D01*
X137234936Y-113734596D01*
X137214341Y-113969999D01*
X137214341Y-113970000D01*
X137234936Y-114205403D01*
X137234938Y-114205413D01*
X137296094Y-114433655D01*
X137296096Y-114433659D01*
X137296097Y-114433663D01*
X137336707Y-114520751D01*
X137395965Y-114647830D01*
X137395967Y-114647834D01*
X137531501Y-114841395D01*
X137531506Y-114841402D01*
X137698597Y-115008493D01*
X137698603Y-115008498D01*
X137884594Y-115138730D01*
X137928219Y-115193307D01*
X137935413Y-115262805D01*
X137903890Y-115325160D01*
X137884595Y-115341880D01*
X137698922Y-115471890D01*
X137698920Y-115471891D01*
X137531891Y-115638920D01*
X137531886Y-115638926D01*
X137396400Y-115832420D01*
X137396399Y-115832422D01*
X137296570Y-116046507D01*
X137296567Y-116046513D01*
X137239364Y-116259999D01*
X137239364Y-116260000D01*
X138136988Y-116260000D01*
X138104075Y-116317007D01*
X138070000Y-116444174D01*
X138070000Y-116575826D01*
X138104075Y-116702993D01*
X138136988Y-116760000D01*
X137239364Y-116760000D01*
X137296567Y-116973486D01*
X137296570Y-116973492D01*
X137396399Y-117187578D01*
X137531894Y-117381082D01*
X137698917Y-117548105D01*
X137884595Y-117678119D01*
X137928219Y-117732696D01*
X137935412Y-117802195D01*
X137903890Y-117864549D01*
X137884595Y-117881269D01*
X137698594Y-118011508D01*
X137531505Y-118178597D01*
X137395965Y-118372169D01*
X137395964Y-118372171D01*
X137296098Y-118586335D01*
X137296094Y-118586344D01*
X137234938Y-118814586D01*
X137234936Y-118814596D01*
X137214341Y-119049999D01*
X137214341Y-119050000D01*
X137234936Y-119285403D01*
X137234938Y-119285413D01*
X137296094Y-119513655D01*
X137296096Y-119513659D01*
X137296097Y-119513663D01*
X137395847Y-119727578D01*
X137395965Y-119727830D01*
X137395967Y-119727834D01*
X137531501Y-119921395D01*
X137531506Y-119921402D01*
X137698597Y-120088493D01*
X137698603Y-120088498D01*
X137884158Y-120218425D01*
X137927783Y-120273002D01*
X137934977Y-120342500D01*
X137903454Y-120404855D01*
X137884158Y-120421575D01*
X137698597Y-120551505D01*
X137531505Y-120718597D01*
X137395965Y-120912169D01*
X137395964Y-120912171D01*
X137296098Y-121126335D01*
X137296094Y-121126344D01*
X137234938Y-121354586D01*
X137234936Y-121354596D01*
X137214341Y-121589999D01*
X137214341Y-121590000D01*
X137234936Y-121825403D01*
X137234938Y-121825413D01*
X137296094Y-122053655D01*
X137296096Y-122053659D01*
X137296097Y-122053663D01*
X137328878Y-122123962D01*
X137395965Y-122267830D01*
X137395967Y-122267834D01*
X137504281Y-122422521D01*
X137506568Y-122425788D01*
X137531501Y-122461395D01*
X137531506Y-122461402D01*
X137698597Y-122628493D01*
X137698603Y-122628498D01*
X137884158Y-122758425D01*
X137927783Y-122813002D01*
X137934977Y-122882500D01*
X137903454Y-122944855D01*
X137884158Y-122961575D01*
X137698597Y-123091505D01*
X137531505Y-123258597D01*
X137395965Y-123452169D01*
X137395964Y-123452171D01*
X137296098Y-123666335D01*
X137296094Y-123666344D01*
X137234938Y-123894586D01*
X137234936Y-123894596D01*
X137214341Y-124129999D01*
X137214341Y-124130000D01*
X137234936Y-124365403D01*
X137234938Y-124365413D01*
X137296094Y-124593655D01*
X137296096Y-124593659D01*
X137296097Y-124593663D01*
X137386485Y-124787500D01*
X137395965Y-124807830D01*
X137395967Y-124807834D01*
X137445977Y-124879255D01*
X137531505Y-125001401D01*
X137698599Y-125168495D01*
X137795384Y-125236265D01*
X137892165Y-125304032D01*
X137892167Y-125304033D01*
X137892170Y-125304035D01*
X138106337Y-125403903D01*
X138334592Y-125465063D01*
X138511034Y-125480500D01*
X138569999Y-125485659D01*
X138570000Y-125485659D01*
X138570001Y-125485659D01*
X138628966Y-125480500D01*
X138805408Y-125465063D01*
X139033663Y-125403903D01*
X139247830Y-125304035D01*
X139441401Y-125168495D01*
X139608495Y-125001401D01*
X139744035Y-124807830D01*
X139843903Y-124593663D01*
X139905063Y-124365408D01*
X139925659Y-124130000D01*
X139923994Y-124110975D01*
X139905063Y-123894596D01*
X139905063Y-123894592D01*
X139843903Y-123666337D01*
X139744035Y-123452171D01*
X139709209Y-123402433D01*
X139608494Y-123258597D01*
X139441402Y-123091506D01*
X139441396Y-123091501D01*
X139255842Y-122961575D01*
X139212217Y-122906998D01*
X139205023Y-122837500D01*
X139236546Y-122775145D01*
X139255842Y-122758425D01*
X139291386Y-122733537D01*
X139441401Y-122628495D01*
X139608495Y-122461401D01*
X139744035Y-122267830D01*
X139843903Y-122053663D01*
X139905063Y-121825408D01*
X139925659Y-121590000D01*
X139905063Y-121354592D01*
X139843903Y-121126337D01*
X139744035Y-120912171D01*
X139731617Y-120894435D01*
X139608494Y-120718597D01*
X139441402Y-120551506D01*
X139441396Y-120551501D01*
X139255842Y-120421575D01*
X139212217Y-120366998D01*
X139205023Y-120297500D01*
X139236546Y-120235145D01*
X139255842Y-120218425D01*
X139278026Y-120202891D01*
X139441401Y-120088495D01*
X139608495Y-119921401D01*
X139744035Y-119727830D01*
X139843903Y-119513663D01*
X139905063Y-119285408D01*
X139925659Y-119050000D01*
X139905063Y-118814592D01*
X139843903Y-118586337D01*
X139744035Y-118372171D01*
X139608495Y-118178599D01*
X139608494Y-118178597D01*
X139441402Y-118011506D01*
X139441401Y-118011505D01*
X139273844Y-117894180D01*
X139255405Y-117881269D01*
X139211781Y-117826692D01*
X139204588Y-117757193D01*
X139236110Y-117694839D01*
X139255405Y-117678119D01*
X139441082Y-117548105D01*
X139608105Y-117381082D01*
X139743600Y-117187578D01*
X139843429Y-116973492D01*
X139843432Y-116973486D01*
X139900636Y-116760000D01*
X139003012Y-116760000D01*
X139035925Y-116702993D01*
X139070000Y-116575826D01*
X139070000Y-116444174D01*
X139035925Y-116317007D01*
X139003012Y-116260000D01*
X139900636Y-116260000D01*
X139900635Y-116259999D01*
X139843432Y-116046513D01*
X139843429Y-116046507D01*
X139743600Y-115832422D01*
X139743599Y-115832420D01*
X139608113Y-115638926D01*
X139608108Y-115638920D01*
X139441078Y-115471890D01*
X139255405Y-115341879D01*
X139211780Y-115287302D01*
X139204588Y-115217804D01*
X139236110Y-115155449D01*
X139255406Y-115138730D01*
X139255842Y-115138425D01*
X139441401Y-115008495D01*
X139608495Y-114841401D01*
X139707507Y-114699997D01*
X147894436Y-114699997D01*
X147894436Y-114700004D01*
X147914631Y-114879250D01*
X147914632Y-114879255D01*
X147974212Y-115049524D01*
X148033598Y-115144035D01*
X148070185Y-115202263D01*
X148197739Y-115329817D01*
X148288081Y-115386583D01*
X148350475Y-115425788D01*
X148350479Y-115425790D01*
X148481114Y-115471501D01*
X148520746Y-115485369D01*
X148520751Y-115485370D01*
X148699997Y-115505566D01*
X148700001Y-115505566D01*
X148700005Y-115505566D01*
X148879250Y-115485370D01*
X148879253Y-115485369D01*
X148879256Y-115485369D01*
X149049523Y-115425790D01*
X149202263Y-115329817D01*
X149329817Y-115202263D01*
X149425790Y-115049523D01*
X149485369Y-114879256D01*
X149489634Y-114841402D01*
X149505566Y-114700004D01*
X149505566Y-114699997D01*
X149505566Y-114699996D01*
X149794435Y-114699996D01*
X149794435Y-114700003D01*
X149814630Y-114879249D01*
X149814631Y-114879254D01*
X149874211Y-115049523D01*
X149940578Y-115155145D01*
X149970184Y-115202262D01*
X150097738Y-115329816D01*
X150250478Y-115425789D01*
X150381127Y-115471505D01*
X150420745Y-115485368D01*
X150420750Y-115485369D01*
X150599996Y-115505565D01*
X150600000Y-115505565D01*
X150600004Y-115505565D01*
X150779249Y-115485369D01*
X150779252Y-115485368D01*
X150779255Y-115485368D01*
X150949522Y-115425789D01*
X151102262Y-115329816D01*
X151229816Y-115202262D01*
X151325789Y-115049522D01*
X151385368Y-114879255D01*
X151405565Y-114700000D01*
X151399687Y-114647834D01*
X151385369Y-114520750D01*
X151385368Y-114520745D01*
X151354894Y-114433655D01*
X151325789Y-114350478D01*
X151229816Y-114197738D01*
X151102262Y-114070184D01*
X150949523Y-113974211D01*
X150779254Y-113914631D01*
X150779249Y-113914630D01*
X150600004Y-113894435D01*
X150599996Y-113894435D01*
X150420750Y-113914630D01*
X150420745Y-113914631D01*
X150250476Y-113974211D01*
X150097737Y-114070184D01*
X149970184Y-114197737D01*
X149874211Y-114350476D01*
X149814631Y-114520745D01*
X149814630Y-114520750D01*
X149794435Y-114699996D01*
X149505566Y-114699996D01*
X149485370Y-114520751D01*
X149485369Y-114520746D01*
X149454897Y-114433663D01*
X149425790Y-114350479D01*
X149329817Y-114197739D01*
X149202263Y-114070185D01*
X149202261Y-114070184D01*
X149049524Y-113974212D01*
X148879255Y-113914632D01*
X148879250Y-113914631D01*
X148700005Y-113894436D01*
X148699997Y-113894436D01*
X148520751Y-113914631D01*
X148520746Y-113914632D01*
X148350477Y-113974212D01*
X148197738Y-114070185D01*
X148070185Y-114197738D01*
X147974212Y-114350477D01*
X147914632Y-114520746D01*
X147914631Y-114520751D01*
X147894436Y-114699997D01*
X139707507Y-114699997D01*
X139744035Y-114647830D01*
X139843903Y-114433663D01*
X139905063Y-114205408D01*
X139925659Y-113970000D01*
X139905063Y-113734592D01*
X139843903Y-113506337D01*
X139744035Y-113292171D01*
X139701709Y-113231722D01*
X139608494Y-113098597D01*
X139441402Y-112931506D01*
X139441396Y-112931501D01*
X139255842Y-112801575D01*
X139212217Y-112746998D01*
X139205023Y-112677500D01*
X139236546Y-112615145D01*
X139255842Y-112598425D01*
X139350401Y-112532214D01*
X139441401Y-112468495D01*
X139608495Y-112301401D01*
X139744035Y-112107830D01*
X139794317Y-112000000D01*
X140394540Y-112000000D01*
X140414326Y-112188256D01*
X140414327Y-112188259D01*
X140472818Y-112368277D01*
X140472821Y-112368284D01*
X140567467Y-112532216D01*
X140642137Y-112615145D01*
X140676223Y-112653002D01*
X140694129Y-112672888D01*
X140731008Y-112699682D01*
X140773673Y-112755013D01*
X140779652Y-112824626D01*
X140747046Y-112886421D01*
X140731008Y-112900318D01*
X140694127Y-112927113D01*
X140567466Y-113067785D01*
X140472821Y-113231715D01*
X140472818Y-113231722D01*
X140414327Y-113411740D01*
X140414326Y-113411744D01*
X140394540Y-113600000D01*
X140414326Y-113788256D01*
X140414327Y-113788259D01*
X140472818Y-113968277D01*
X140472821Y-113968284D01*
X140567467Y-114132216D01*
X140633365Y-114205403D01*
X140694129Y-114272888D01*
X140847265Y-114384148D01*
X140847270Y-114384151D01*
X141020192Y-114461142D01*
X141020197Y-114461144D01*
X141205354Y-114500500D01*
X141205355Y-114500500D01*
X141394644Y-114500500D01*
X141394646Y-114500500D01*
X141579803Y-114461144D01*
X141752730Y-114384151D01*
X141905871Y-114272888D01*
X142032533Y-114132216D01*
X142127179Y-113968284D01*
X142185674Y-113788256D01*
X142205460Y-113600000D01*
X142185674Y-113411744D01*
X142127179Y-113231716D01*
X142032533Y-113067784D01*
X141905871Y-112927112D01*
X141868991Y-112900317D01*
X141826326Y-112844989D01*
X141820347Y-112775375D01*
X141852952Y-112713580D01*
X141868992Y-112699682D01*
X141905871Y-112672888D01*
X142032533Y-112532216D01*
X142127179Y-112368284D01*
X142185674Y-112188256D01*
X142205460Y-112000000D01*
X142205460Y-111999996D01*
X147694435Y-111999996D01*
X147694435Y-112000003D01*
X147714630Y-112179249D01*
X147714631Y-112179254D01*
X147774211Y-112349523D01*
X147848967Y-112468495D01*
X147870184Y-112502262D01*
X147997738Y-112629816D01*
X148066287Y-112672888D01*
X148145243Y-112722500D01*
X148150478Y-112725789D01*
X148292187Y-112775375D01*
X148320745Y-112785368D01*
X148320750Y-112785369D01*
X148499996Y-112805565D01*
X148500000Y-112805565D01*
X148500004Y-112805565D01*
X148679249Y-112785369D01*
X148679252Y-112785368D01*
X148679255Y-112785368D01*
X148849522Y-112725789D01*
X149002262Y-112629816D01*
X149129816Y-112502262D01*
X149225789Y-112349522D01*
X149285368Y-112179255D01*
X149305565Y-112000000D01*
X149285368Y-111820745D01*
X149225789Y-111650478D01*
X149213999Y-111631715D01*
X149129815Y-111497737D01*
X149002262Y-111370184D01*
X148849523Y-111274211D01*
X148679254Y-111214631D01*
X148679249Y-111214630D01*
X148500004Y-111194435D01*
X148499996Y-111194435D01*
X148320750Y-111214630D01*
X148320745Y-111214631D01*
X148150476Y-111274211D01*
X147997737Y-111370184D01*
X147870184Y-111497737D01*
X147774211Y-111650476D01*
X147714631Y-111820745D01*
X147714630Y-111820750D01*
X147694435Y-111999996D01*
X142205460Y-111999996D01*
X142185674Y-111811744D01*
X142127179Y-111631716D01*
X142084058Y-111557028D01*
X142067586Y-111489131D01*
X142090438Y-111423104D01*
X142145360Y-111379913D01*
X142214913Y-111373272D01*
X142241882Y-111381752D01*
X142420192Y-111461142D01*
X142420197Y-111461144D01*
X142605354Y-111500500D01*
X142605355Y-111500500D01*
X142794644Y-111500500D01*
X142794646Y-111500500D01*
X142979803Y-111461144D01*
X143152730Y-111384151D01*
X143305871Y-111272888D01*
X143432533Y-111132216D01*
X143527179Y-110968284D01*
X143585674Y-110788256D01*
X143605460Y-110600000D01*
X143585674Y-110411744D01*
X143527179Y-110231716D01*
X143432533Y-110067784D01*
X143305871Y-109927112D01*
X143305870Y-109927111D01*
X143152734Y-109815851D01*
X143152729Y-109815848D01*
X142979807Y-109738857D01*
X142979802Y-109738855D01*
X142834001Y-109707865D01*
X142794646Y-109699500D01*
X142605354Y-109699500D01*
X142572897Y-109706398D01*
X142420197Y-109738855D01*
X142420192Y-109738857D01*
X142247270Y-109815848D01*
X142247265Y-109815851D01*
X142094129Y-109927111D01*
X141967466Y-110067785D01*
X141872821Y-110231715D01*
X141872818Y-110231722D01*
X141814327Y-110411740D01*
X141814326Y-110411744D01*
X141794540Y-110600000D01*
X141814326Y-110788256D01*
X141814327Y-110788259D01*
X141872818Y-110968277D01*
X141872821Y-110968284D01*
X141915940Y-111042968D01*
X141932413Y-111110868D01*
X141909560Y-111176895D01*
X141854639Y-111220086D01*
X141785086Y-111226727D01*
X141758117Y-111218247D01*
X141579807Y-111138857D01*
X141579802Y-111138855D01*
X141434001Y-111107865D01*
X141394646Y-111099500D01*
X141205354Y-111099500D01*
X141172897Y-111106398D01*
X141020197Y-111138855D01*
X141020192Y-111138857D01*
X140847270Y-111215848D01*
X140847265Y-111215851D01*
X140694129Y-111327111D01*
X140567466Y-111467785D01*
X140472821Y-111631715D01*
X140472818Y-111631722D01*
X140414327Y-111811740D01*
X140414326Y-111811744D01*
X140394540Y-112000000D01*
X139794317Y-112000000D01*
X139843903Y-111893663D01*
X139905063Y-111665408D01*
X139925659Y-111430000D01*
X139905063Y-111194592D01*
X139843903Y-110966337D01*
X139744035Y-110752171D01*
X139637485Y-110600000D01*
X139608494Y-110558597D01*
X139441402Y-110391506D01*
X139441396Y-110391501D01*
X139255842Y-110261575D01*
X139212217Y-110206998D01*
X139205023Y-110137500D01*
X139236546Y-110075145D01*
X139255842Y-110058425D01*
X139278026Y-110042891D01*
X139441401Y-109928495D01*
X139608495Y-109761401D01*
X139744035Y-109567830D01*
X139843903Y-109353663D01*
X139905063Y-109125408D01*
X139925659Y-108890000D01*
X139905063Y-108654592D01*
X139843903Y-108426337D01*
X139744035Y-108212171D01*
X139608495Y-108018599D01*
X139608494Y-108018597D01*
X139441402Y-107851506D01*
X139441396Y-107851501D01*
X139255842Y-107721575D01*
X139212217Y-107666998D01*
X139205023Y-107597500D01*
X139236546Y-107535145D01*
X139255842Y-107518425D01*
X139278026Y-107502891D01*
X139441401Y-107388495D01*
X139608495Y-107221401D01*
X139744035Y-107027830D01*
X139843903Y-106813663D01*
X139905063Y-106585408D01*
X139925659Y-106350000D01*
X139905063Y-106114592D01*
X139843903Y-105886337D01*
X139744035Y-105672171D01*
X139672624Y-105570184D01*
X139608494Y-105478597D01*
X139441402Y-105311506D01*
X139441396Y-105311501D01*
X139255842Y-105181575D01*
X139212217Y-105126998D01*
X139205023Y-105057500D01*
X139236546Y-104995145D01*
X139255842Y-104978425D01*
X139397471Y-104879255D01*
X139441401Y-104848495D01*
X139608495Y-104681401D01*
X139744035Y-104487830D01*
X139843903Y-104273663D01*
X139905063Y-104045408D01*
X139925659Y-103810000D01*
X139905063Y-103574592D01*
X139843903Y-103346337D01*
X139744035Y-103132171D01*
X139719925Y-103097737D01*
X139608494Y-102938597D01*
X139569893Y-102899996D01*
X146269435Y-102899996D01*
X146269435Y-102900003D01*
X146289630Y-103079249D01*
X146289631Y-103079254D01*
X146349211Y-103249523D01*
X146445184Y-103402262D01*
X146572737Y-103529815D01*
X146572743Y-103529820D01*
X146725348Y-103625709D01*
X146771639Y-103678043D01*
X146782596Y-103716818D01*
X146789630Y-103779247D01*
X146789631Y-103779252D01*
X146849210Y-103949521D01*
X146864724Y-103974211D01*
X146945184Y-104102262D01*
X147072738Y-104229816D01*
X147225478Y-104325789D01*
X147395742Y-104385367D01*
X147395745Y-104385368D01*
X147395750Y-104385369D01*
X147574996Y-104405565D01*
X147575000Y-104405565D01*
X147575004Y-104405565D01*
X147754249Y-104385369D01*
X147754252Y-104385368D01*
X147754255Y-104385368D01*
X147754256Y-104385367D01*
X147754259Y-104385367D01*
X147813718Y-104364560D01*
X147843196Y-104354245D01*
X147912975Y-104350683D01*
X147973603Y-104385412D01*
X148005830Y-104447405D01*
X148007372Y-104485170D01*
X147994435Y-104599995D01*
X147994435Y-104600003D01*
X148014630Y-104779249D01*
X148014631Y-104779254D01*
X148074211Y-104949523D01*
X148126665Y-105033002D01*
X148170184Y-105102262D01*
X148297738Y-105229816D01*
X148350386Y-105262897D01*
X148428179Y-105311778D01*
X148450478Y-105325789D01*
X148461984Y-105329815D01*
X148620745Y-105385368D01*
X148620750Y-105385369D01*
X148799996Y-105405565D01*
X148800000Y-105405565D01*
X148800004Y-105405565D01*
X148979249Y-105385369D01*
X148979252Y-105385368D01*
X148979255Y-105385368D01*
X149149522Y-105325789D01*
X149171821Y-105311778D01*
X149192469Y-105298803D01*
X149277166Y-105245584D01*
X149344402Y-105226584D01*
X149411237Y-105246951D01*
X149430819Y-105262897D01*
X149497738Y-105329816D01*
X149560691Y-105369372D01*
X149632721Y-105414632D01*
X149650478Y-105425789D01*
X149788860Y-105474211D01*
X149820745Y-105485368D01*
X149820750Y-105485369D01*
X149982205Y-105503560D01*
X150046619Y-105530626D01*
X150086174Y-105588221D01*
X150088312Y-105658058D01*
X150073316Y-105692752D01*
X149974211Y-105850476D01*
X149914631Y-106020745D01*
X149914630Y-106020750D01*
X149894435Y-106199996D01*
X149894435Y-106200003D01*
X149914630Y-106379249D01*
X149914631Y-106379254D01*
X149974211Y-106549523D01*
X150037043Y-106649519D01*
X150070184Y-106702262D01*
X150197738Y-106829816D01*
X150350478Y-106925789D01*
X150361984Y-106929815D01*
X150520745Y-106985368D01*
X150520750Y-106985369D01*
X150699996Y-107005565D01*
X150700000Y-107005565D01*
X150700004Y-107005565D01*
X150879249Y-106985369D01*
X150879252Y-106985368D01*
X150879255Y-106985368D01*
X151049522Y-106925789D01*
X151202262Y-106829816D01*
X151329816Y-106702262D01*
X151425789Y-106549522D01*
X151425789Y-106549520D01*
X151425884Y-106549370D01*
X151478219Y-106503079D01*
X151547272Y-106492431D01*
X151611121Y-106520806D01*
X151647919Y-106574387D01*
X151674209Y-106649519D01*
X151674211Y-106649522D01*
X151770184Y-106802262D01*
X151897738Y-106929816D01*
X152050478Y-107025789D01*
X152220745Y-107085368D01*
X152220750Y-107085369D01*
X152399996Y-107105565D01*
X152400000Y-107105565D01*
X152400004Y-107105565D01*
X152579249Y-107085369D01*
X152579252Y-107085368D01*
X152579255Y-107085368D01*
X152749522Y-107025789D01*
X152902262Y-106929816D01*
X153029816Y-106802262D01*
X153125789Y-106649522D01*
X153185368Y-106479255D01*
X153185369Y-106479249D01*
X153205565Y-106300003D01*
X153205565Y-106299996D01*
X153185369Y-106120750D01*
X153185368Y-106120745D01*
X153150376Y-106020745D01*
X153125789Y-105950478D01*
X153029816Y-105797738D01*
X152902262Y-105670184D01*
X152882964Y-105658058D01*
X152749523Y-105574211D01*
X152579254Y-105514631D01*
X152579249Y-105514630D01*
X152400004Y-105494435D01*
X152399996Y-105494435D01*
X152220750Y-105514630D01*
X152220745Y-105514631D01*
X152050476Y-105574211D01*
X151897737Y-105670184D01*
X151770182Y-105797739D01*
X151674114Y-105950630D01*
X151621779Y-105996920D01*
X151552726Y-106007568D01*
X151488878Y-105979193D01*
X151452079Y-105925611D01*
X151425789Y-105850478D01*
X151392650Y-105797738D01*
X151329816Y-105697738D01*
X151202262Y-105570184D01*
X151113852Y-105514632D01*
X151049523Y-105474211D01*
X150879254Y-105414631D01*
X150879250Y-105414630D01*
X150717793Y-105396439D01*
X150653379Y-105369372D01*
X150613824Y-105311778D01*
X150611687Y-105241941D01*
X150626684Y-105207247D01*
X150725787Y-105049526D01*
X150725787Y-105049524D01*
X150725789Y-105049522D01*
X150785368Y-104879255D01*
X150785369Y-104879249D01*
X150805565Y-104700003D01*
X150805565Y-104699996D01*
X150785369Y-104520750D01*
X150785368Y-104520745D01*
X150773852Y-104487834D01*
X150725789Y-104350478D01*
X150629816Y-104197738D01*
X150502262Y-104070184D01*
X150462839Y-104045413D01*
X150349523Y-103974211D01*
X150179254Y-103914631D01*
X150179249Y-103914630D01*
X150000004Y-103894435D01*
X149999996Y-103894435D01*
X149820750Y-103914630D01*
X149820745Y-103914631D01*
X149650476Y-103974211D01*
X149522833Y-104054415D01*
X149455596Y-104073415D01*
X149388761Y-104053047D01*
X149369180Y-104037102D01*
X149302262Y-103970184D01*
X149149523Y-103874211D01*
X148979254Y-103814631D01*
X148979249Y-103814630D01*
X148800004Y-103794435D01*
X148799996Y-103794435D01*
X148620750Y-103814630D01*
X148620742Y-103814632D01*
X148531801Y-103845754D01*
X148462022Y-103849315D01*
X148401395Y-103814586D01*
X148369168Y-103752592D01*
X148367627Y-103714828D01*
X148380565Y-103600002D01*
X148380565Y-103599996D01*
X148360369Y-103420750D01*
X148360368Y-103420745D01*
X148300789Y-103250478D01*
X148300188Y-103249522D01*
X148261582Y-103188080D01*
X148204816Y-103097738D01*
X148077262Y-102970184D01*
X147924648Y-102874290D01*
X147878359Y-102821957D01*
X147867403Y-102783186D01*
X147860368Y-102720745D01*
X147800789Y-102550478D01*
X147704816Y-102397738D01*
X147577262Y-102270184D01*
X147424523Y-102174211D01*
X147254254Y-102114631D01*
X147254249Y-102114630D01*
X147075004Y-102094435D01*
X147074996Y-102094435D01*
X146895750Y-102114630D01*
X146895745Y-102114631D01*
X146725476Y-102174211D01*
X146572737Y-102270184D01*
X146445184Y-102397737D01*
X146349211Y-102550476D01*
X146289631Y-102720745D01*
X146289630Y-102720750D01*
X146269435Y-102899996D01*
X139569893Y-102899996D01*
X139441402Y-102771506D01*
X139441396Y-102771501D01*
X139255842Y-102641575D01*
X139212217Y-102586998D01*
X139205023Y-102517500D01*
X139236546Y-102455145D01*
X139255842Y-102438425D01*
X139313950Y-102397737D01*
X139441401Y-102308495D01*
X139608495Y-102141401D01*
X139744035Y-101947830D01*
X139843903Y-101733663D01*
X139862512Y-101664214D01*
X149292888Y-101664214D01*
X149319996Y-101741683D01*
X149409915Y-101884789D01*
X149529424Y-102004298D01*
X149672526Y-102094216D01*
X149749999Y-102121324D01*
X149750000Y-102121324D01*
X150250000Y-102121324D01*
X150327473Y-102094216D01*
X150470575Y-102004298D01*
X150590084Y-101884789D01*
X150680003Y-101741683D01*
X150707111Y-101664214D01*
X150250000Y-101664214D01*
X150250000Y-102121324D01*
X149750000Y-102121324D01*
X149750000Y-101664214D01*
X149292888Y-101664214D01*
X139862512Y-101664214D01*
X139905063Y-101505408D01*
X139925659Y-101270000D01*
X139905063Y-101034592D01*
X139843903Y-100806337D01*
X139744035Y-100592171D01*
X139727310Y-100568284D01*
X139608494Y-100398597D01*
X139441402Y-100231506D01*
X139441396Y-100231501D01*
X139396408Y-100200000D01*
X140594540Y-100200000D01*
X140614326Y-100388256D01*
X140614327Y-100388259D01*
X140672818Y-100568277D01*
X140672821Y-100568284D01*
X140767467Y-100732216D01*
X140873949Y-100850476D01*
X140894129Y-100872888D01*
X141047265Y-100984148D01*
X141047270Y-100984151D01*
X141220192Y-101061142D01*
X141220197Y-101061144D01*
X141405354Y-101100500D01*
X141405355Y-101100500D01*
X141594644Y-101100500D01*
X141594646Y-101100500D01*
X141779803Y-101061144D01*
X141952730Y-100984151D01*
X141989953Y-100957107D01*
X148585781Y-100957107D01*
X148612889Y-101034576D01*
X148702808Y-101177682D01*
X148822317Y-101297191D01*
X148965419Y-101387109D01*
X149042892Y-101414217D01*
X149042893Y-101414217D01*
X149042893Y-101394323D01*
X149900000Y-101394323D01*
X149900000Y-101434105D01*
X149915224Y-101470859D01*
X149943355Y-101498990D01*
X149980109Y-101514214D01*
X150019891Y-101514214D01*
X150056645Y-101498990D01*
X150084776Y-101470859D01*
X150100000Y-101434105D01*
X150100000Y-101414217D01*
X150957107Y-101414217D01*
X151034580Y-101387109D01*
X151177682Y-101297191D01*
X151274877Y-101199996D01*
X153094435Y-101199996D01*
X153094435Y-101200003D01*
X153114630Y-101379249D01*
X153114631Y-101379254D01*
X153174211Y-101549523D01*
X153246277Y-101664214D01*
X153270184Y-101702262D01*
X153397738Y-101829816D01*
X153550478Y-101925789D01*
X153720745Y-101985368D01*
X153720750Y-101985369D01*
X153899996Y-102005565D01*
X153900000Y-102005565D01*
X153900004Y-102005565D01*
X154079249Y-101985369D01*
X154079252Y-101985368D01*
X154079255Y-101985368D01*
X154249522Y-101925789D01*
X154402262Y-101829816D01*
X154529816Y-101702262D01*
X154625789Y-101549522D01*
X154685368Y-101379255D01*
X154685369Y-101379249D01*
X154705565Y-101200003D01*
X154705565Y-101199996D01*
X154685369Y-101020750D01*
X154685368Y-101020745D01*
X154663100Y-100957107D01*
X154625789Y-100850478D01*
X154529816Y-100697738D01*
X154402262Y-100570184D01*
X154249522Y-100474211D01*
X154249523Y-100474211D01*
X154243626Y-100470506D01*
X154244931Y-100468428D01*
X154213749Y-100440282D01*
X154172686Y-100445346D01*
X154151843Y-100440030D01*
X154079260Y-100414633D01*
X154079249Y-100414630D01*
X153900004Y-100394435D01*
X153899996Y-100394435D01*
X153720750Y-100414630D01*
X153720745Y-100414631D01*
X153550476Y-100474211D01*
X153397737Y-100570184D01*
X153270184Y-100697737D01*
X153174211Y-100850476D01*
X153114631Y-101020745D01*
X153114630Y-101020750D01*
X153094435Y-101199996D01*
X151274877Y-101199996D01*
X151297191Y-101177682D01*
X151387110Y-101034576D01*
X151414218Y-100957107D01*
X150957107Y-100957107D01*
X150957107Y-101414217D01*
X150100000Y-101414217D01*
X150100000Y-101394323D01*
X150084776Y-101357569D01*
X150056645Y-101329438D01*
X150019891Y-101314214D01*
X149980109Y-101314214D01*
X149943355Y-101329438D01*
X149915224Y-101357569D01*
X149900000Y-101394323D01*
X149042893Y-101394323D01*
X149042893Y-101164214D01*
X149542893Y-101164214D01*
X149750000Y-101164214D01*
X150250000Y-101164214D01*
X150457107Y-101164214D01*
X150457107Y-100957107D01*
X150250000Y-100957107D01*
X150250000Y-101164214D01*
X149750000Y-101164214D01*
X149750000Y-100957107D01*
X149542893Y-100957107D01*
X149542893Y-101164214D01*
X149042893Y-101164214D01*
X149042893Y-100957107D01*
X148585781Y-100957107D01*
X141989953Y-100957107D01*
X142105871Y-100872888D01*
X142232533Y-100732216D01*
X142327179Y-100568284D01*
X142385674Y-100388256D01*
X142400205Y-100250000D01*
X147878674Y-100250000D01*
X147905782Y-100327469D01*
X147995701Y-100470575D01*
X148115210Y-100590084D01*
X148258312Y-100680002D01*
X148335785Y-100707110D01*
X148335786Y-100707110D01*
X148335786Y-100687216D01*
X149192893Y-100687216D01*
X149192893Y-100726998D01*
X149208117Y-100763752D01*
X149236248Y-100791883D01*
X149273002Y-100807107D01*
X149312784Y-100807107D01*
X149349538Y-100791883D01*
X149377669Y-100763752D01*
X149392893Y-100726998D01*
X149392893Y-100687216D01*
X150607107Y-100687216D01*
X150607107Y-100726998D01*
X150622331Y-100763752D01*
X150650462Y-100791883D01*
X150687216Y-100807107D01*
X150726998Y-100807107D01*
X150763752Y-100791883D01*
X150791883Y-100763752D01*
X150807107Y-100726998D01*
X150807107Y-100707110D01*
X151664214Y-100707110D01*
X151741687Y-100680002D01*
X151884789Y-100590084D01*
X152004298Y-100470575D01*
X152094217Y-100327469D01*
X152121325Y-100250000D01*
X151664214Y-100250000D01*
X151664214Y-100707110D01*
X150807107Y-100707110D01*
X150807107Y-100687216D01*
X150791883Y-100650462D01*
X150763752Y-100622331D01*
X150726998Y-100607107D01*
X150687216Y-100607107D01*
X150650462Y-100622331D01*
X150622331Y-100650462D01*
X150607107Y-100687216D01*
X149392893Y-100687216D01*
X149377669Y-100650462D01*
X149349538Y-100622331D01*
X149312784Y-100607107D01*
X149273002Y-100607107D01*
X149236248Y-100622331D01*
X149208117Y-100650462D01*
X149192893Y-100687216D01*
X148335786Y-100687216D01*
X148335786Y-100457107D01*
X148835786Y-100457107D01*
X149042893Y-100457107D01*
X149542893Y-100457107D01*
X149750000Y-100457107D01*
X150250000Y-100457107D01*
X150457107Y-100457107D01*
X150957107Y-100457107D01*
X151164214Y-100457107D01*
X151164214Y-100250000D01*
X150957107Y-100250000D01*
X150957107Y-100457107D01*
X150457107Y-100457107D01*
X150457107Y-100250000D01*
X150250000Y-100250000D01*
X150250000Y-100457107D01*
X149750000Y-100457107D01*
X149750000Y-100250000D01*
X149542893Y-100250000D01*
X149542893Y-100457107D01*
X149042893Y-100457107D01*
X149042893Y-100250000D01*
X148835786Y-100250000D01*
X148835786Y-100457107D01*
X148335786Y-100457107D01*
X148335786Y-100250000D01*
X147878674Y-100250000D01*
X142400205Y-100250000D01*
X142405460Y-100200000D01*
X142385674Y-100011744D01*
X142375395Y-99980109D01*
X148485786Y-99980109D01*
X148485786Y-100019891D01*
X148501010Y-100056645D01*
X148529141Y-100084776D01*
X148565895Y-100100000D01*
X148605677Y-100100000D01*
X148642431Y-100084776D01*
X148670562Y-100056645D01*
X148685786Y-100019891D01*
X148685786Y-99980109D01*
X149900000Y-99980109D01*
X149900000Y-100019891D01*
X149915224Y-100056645D01*
X149943355Y-100084776D01*
X149980109Y-100100000D01*
X150019891Y-100100000D01*
X150056645Y-100084776D01*
X150084776Y-100056645D01*
X150100000Y-100019891D01*
X150100000Y-99980109D01*
X151314214Y-99980109D01*
X151314214Y-100019891D01*
X151329438Y-100056645D01*
X151357569Y-100084776D01*
X151394323Y-100100000D01*
X151434105Y-100100000D01*
X151470859Y-100084776D01*
X151498990Y-100056645D01*
X151514214Y-100019891D01*
X151514214Y-99980109D01*
X151498990Y-99943355D01*
X151470859Y-99915224D01*
X151434105Y-99900000D01*
X151394323Y-99900000D01*
X151357569Y-99915224D01*
X151329438Y-99943355D01*
X151314214Y-99980109D01*
X150100000Y-99980109D01*
X150084776Y-99943355D01*
X150056645Y-99915224D01*
X150019891Y-99900000D01*
X149980109Y-99900000D01*
X149943355Y-99915224D01*
X149915224Y-99943355D01*
X149900000Y-99980109D01*
X148685786Y-99980109D01*
X148670562Y-99943355D01*
X148642431Y-99915224D01*
X148605677Y-99900000D01*
X148565895Y-99900000D01*
X148529141Y-99915224D01*
X148501010Y-99943355D01*
X148485786Y-99980109D01*
X142375395Y-99980109D01*
X142327179Y-99831716D01*
X142280000Y-99749999D01*
X147878674Y-99749999D01*
X147878674Y-99750000D01*
X148335786Y-99750000D01*
X148835786Y-99750000D01*
X149042893Y-99750000D01*
X149542893Y-99750000D01*
X149750000Y-99750000D01*
X150250000Y-99750000D01*
X150457107Y-99750000D01*
X150957107Y-99750000D01*
X151164214Y-99750000D01*
X151664214Y-99750000D01*
X152121326Y-99750000D01*
X152121325Y-99749999D01*
X152094217Y-99672530D01*
X152004298Y-99529424D01*
X151962218Y-99487344D01*
X153794435Y-99487344D01*
X153794435Y-99487351D01*
X153814630Y-99666597D01*
X153814631Y-99666602D01*
X153874211Y-99836871D01*
X153962575Y-99977500D01*
X153970184Y-99989610D01*
X154097738Y-100117164D01*
X154186320Y-100172824D01*
X154256374Y-100216842D01*
X154255066Y-100218923D01*
X154286252Y-100247063D01*
X154327335Y-100242004D01*
X154348157Y-100247317D01*
X154420742Y-100272715D01*
X154420745Y-100272716D01*
X154420746Y-100272716D01*
X154420750Y-100272717D01*
X154599996Y-100292913D01*
X154600000Y-100292913D01*
X154600004Y-100292913D01*
X154779249Y-100272717D01*
X154779252Y-100272716D01*
X154779255Y-100272716D01*
X154949522Y-100213137D01*
X155102262Y-100117164D01*
X155229816Y-99989610D01*
X155325789Y-99836870D01*
X155385368Y-99666603D01*
X155385369Y-99666597D01*
X155405565Y-99487351D01*
X155405565Y-99487344D01*
X155385369Y-99308098D01*
X155385368Y-99308093D01*
X155350385Y-99208117D01*
X155325789Y-99137826D01*
X155229816Y-98985086D01*
X155102262Y-98857532D01*
X154949523Y-98761559D01*
X154779254Y-98701979D01*
X154779249Y-98701978D01*
X154600004Y-98681783D01*
X154599996Y-98681783D01*
X154420750Y-98701978D01*
X154420745Y-98701979D01*
X154250476Y-98761559D01*
X154097737Y-98857532D01*
X153970184Y-98985085D01*
X153874211Y-99137824D01*
X153814631Y-99308093D01*
X153814630Y-99308098D01*
X153794435Y-99487344D01*
X151962218Y-99487344D01*
X151884789Y-99409915D01*
X151741683Y-99319996D01*
X151664214Y-99292888D01*
X151664214Y-99750000D01*
X151164214Y-99750000D01*
X151164214Y-99542893D01*
X150957107Y-99542893D01*
X150957107Y-99750000D01*
X150457107Y-99750000D01*
X150457107Y-99542893D01*
X150250000Y-99542893D01*
X150250000Y-99750000D01*
X149750000Y-99750000D01*
X149750000Y-99542893D01*
X149542893Y-99542893D01*
X149542893Y-99750000D01*
X149042893Y-99750000D01*
X149042893Y-99542893D01*
X148835786Y-99542893D01*
X148835786Y-99750000D01*
X148335786Y-99750000D01*
X148335786Y-99292888D01*
X148335785Y-99292888D01*
X148258316Y-99319996D01*
X148115210Y-99409915D01*
X147995701Y-99529424D01*
X147905782Y-99672530D01*
X147878674Y-99749999D01*
X142280000Y-99749999D01*
X142232533Y-99667784D01*
X142105871Y-99527112D01*
X142105870Y-99527111D01*
X141952734Y-99415851D01*
X141952729Y-99415848D01*
X141779807Y-99338857D01*
X141779802Y-99338855D01*
X141634001Y-99307865D01*
X141594646Y-99299500D01*
X141405354Y-99299500D01*
X141372897Y-99306398D01*
X141220197Y-99338855D01*
X141220192Y-99338857D01*
X141047270Y-99415848D01*
X141047265Y-99415851D01*
X140894129Y-99527111D01*
X140767466Y-99667785D01*
X140672821Y-99831715D01*
X140672818Y-99831722D01*
X140618142Y-100000000D01*
X140614326Y-100011744D01*
X140594540Y-100200000D01*
X139396408Y-100200000D01*
X139255842Y-100101575D01*
X139212217Y-100046998D01*
X139205023Y-99977500D01*
X139236546Y-99915145D01*
X139255842Y-99898425D01*
X139343751Y-99836870D01*
X139441401Y-99768495D01*
X139608495Y-99601401D01*
X139744035Y-99407830D01*
X139806907Y-99273002D01*
X149192893Y-99273002D01*
X149192893Y-99312784D01*
X149208117Y-99349538D01*
X149236248Y-99377669D01*
X149273002Y-99392893D01*
X149312784Y-99392893D01*
X149349538Y-99377669D01*
X149377669Y-99349538D01*
X149392893Y-99312784D01*
X149392893Y-99273002D01*
X150607107Y-99273002D01*
X150607107Y-99312784D01*
X150622331Y-99349538D01*
X150650462Y-99377669D01*
X150687216Y-99392893D01*
X150726998Y-99392893D01*
X150763752Y-99377669D01*
X150791883Y-99349538D01*
X150807107Y-99312784D01*
X150807107Y-99273002D01*
X150791883Y-99236248D01*
X150763752Y-99208117D01*
X150726998Y-99192893D01*
X150687216Y-99192893D01*
X150650462Y-99208117D01*
X150622331Y-99236248D01*
X150607107Y-99273002D01*
X149392893Y-99273002D01*
X149377669Y-99236248D01*
X149349538Y-99208117D01*
X149312784Y-99192893D01*
X149273002Y-99192893D01*
X149236248Y-99208117D01*
X149208117Y-99236248D01*
X149192893Y-99273002D01*
X139806907Y-99273002D01*
X139843903Y-99193663D01*
X139884301Y-99042892D01*
X148585781Y-99042892D01*
X148585781Y-99042893D01*
X149042893Y-99042893D01*
X149542893Y-99042893D01*
X149750000Y-99042893D01*
X150250000Y-99042893D01*
X150457107Y-99042893D01*
X150957107Y-99042893D01*
X151414219Y-99042893D01*
X151414218Y-99042892D01*
X151387110Y-98965423D01*
X151297191Y-98822317D01*
X151177682Y-98702808D01*
X151034576Y-98612889D01*
X150957107Y-98585781D01*
X150957107Y-99042893D01*
X150457107Y-99042893D01*
X150457107Y-98835786D01*
X150250000Y-98835786D01*
X150250000Y-99042893D01*
X149750000Y-99042893D01*
X149750000Y-98835786D01*
X149542893Y-98835786D01*
X149542893Y-99042893D01*
X149042893Y-99042893D01*
X149042893Y-98585781D01*
X149042892Y-98585781D01*
X148965423Y-98612889D01*
X148822317Y-98702808D01*
X148702808Y-98822317D01*
X148612889Y-98965423D01*
X148585781Y-99042892D01*
X139884301Y-99042892D01*
X139905063Y-98965408D01*
X139925659Y-98730000D01*
X139911301Y-98565895D01*
X149900000Y-98565895D01*
X149900000Y-98605677D01*
X149915224Y-98642431D01*
X149943355Y-98670562D01*
X149980109Y-98685786D01*
X150019891Y-98685786D01*
X150056645Y-98670562D01*
X150084776Y-98642431D01*
X150100000Y-98605677D01*
X150100000Y-98565895D01*
X150084776Y-98529141D01*
X150056645Y-98501010D01*
X150019891Y-98485786D01*
X149980109Y-98485786D01*
X149943355Y-98501010D01*
X149915224Y-98529141D01*
X149900000Y-98565895D01*
X139911301Y-98565895D01*
X139905063Y-98494592D01*
X139862511Y-98335785D01*
X149292888Y-98335785D01*
X149292888Y-98335786D01*
X149750000Y-98335786D01*
X150250000Y-98335786D01*
X150707112Y-98335786D01*
X150707111Y-98335785D01*
X150680003Y-98258316D01*
X150590084Y-98115210D01*
X150470575Y-97995701D01*
X150327469Y-97905782D01*
X150250000Y-97878674D01*
X150250000Y-98335786D01*
X149750000Y-98335786D01*
X149750000Y-97878674D01*
X149749999Y-97878674D01*
X149672530Y-97905782D01*
X149529424Y-97995701D01*
X149409915Y-98115210D01*
X149319996Y-98258316D01*
X149292888Y-98335785D01*
X139862511Y-98335785D01*
X139843903Y-98266337D01*
X139744035Y-98052171D01*
X139704495Y-97995701D01*
X139608494Y-97858597D01*
X139441402Y-97691506D01*
X139441396Y-97691501D01*
X139255842Y-97561575D01*
X139212217Y-97506998D01*
X139205023Y-97437500D01*
X139236546Y-97375145D01*
X139255842Y-97358425D01*
X139278026Y-97342891D01*
X139441401Y-97228495D01*
X139608495Y-97061401D01*
X139744035Y-96867830D01*
X139843903Y-96653663D01*
X139905063Y-96425408D01*
X139925659Y-96190000D01*
X139905063Y-95954592D01*
X139858626Y-95781285D01*
X139843905Y-95726344D01*
X139843904Y-95726343D01*
X139843903Y-95726337D01*
X139744035Y-95512171D01*
X139662121Y-95395184D01*
X139608494Y-95318597D01*
X139441402Y-95151506D01*
X139441396Y-95151501D01*
X139255842Y-95021575D01*
X139212217Y-94966998D01*
X139205023Y-94897500D01*
X139236546Y-94835145D01*
X139255842Y-94818425D01*
X139278026Y-94802891D01*
X139441401Y-94688495D01*
X139608495Y-94521401D01*
X139744035Y-94327830D01*
X139843903Y-94113663D01*
X139847565Y-94099996D01*
X141894435Y-94099996D01*
X141894435Y-94100003D01*
X141914630Y-94279249D01*
X141914631Y-94279254D01*
X141974211Y-94449523D01*
X142059569Y-94585368D01*
X142070184Y-94602262D01*
X142197738Y-94729816D01*
X142288080Y-94786582D01*
X142347686Y-94824035D01*
X142350478Y-94825789D01*
X142475766Y-94869629D01*
X142520745Y-94885368D01*
X142520750Y-94885369D01*
X142679919Y-94903303D01*
X142744333Y-94930369D01*
X142783889Y-94987964D01*
X142786026Y-95057801D01*
X142753718Y-95114204D01*
X142670183Y-95197739D01*
X142574211Y-95350476D01*
X142514631Y-95520745D01*
X142514630Y-95520750D01*
X142494435Y-95699996D01*
X142494435Y-95700003D01*
X142514630Y-95879249D01*
X142514631Y-95879254D01*
X142574211Y-96049523D01*
X142605926Y-96099996D01*
X142670184Y-96202262D01*
X142797738Y-96329816D01*
X142868887Y-96374522D01*
X142949879Y-96425413D01*
X142950478Y-96425789D01*
X143018306Y-96449523D01*
X143120745Y-96485368D01*
X143120750Y-96485369D01*
X143299996Y-96505565D01*
X143300000Y-96505565D01*
X143300004Y-96505565D01*
X143479249Y-96485369D01*
X143479252Y-96485368D01*
X143479255Y-96485368D01*
X143649522Y-96425789D01*
X143802262Y-96329816D01*
X143929816Y-96202262D01*
X143994074Y-96099996D01*
X145994435Y-96099996D01*
X145994435Y-96100003D01*
X146014630Y-96279249D01*
X146014631Y-96279254D01*
X146074211Y-96449523D01*
X146115246Y-96514829D01*
X146170184Y-96602262D01*
X146297738Y-96729816D01*
X146388080Y-96786582D01*
X146446817Y-96823489D01*
X146450478Y-96825789D01*
X146570636Y-96867834D01*
X146620745Y-96885368D01*
X146620750Y-96885369D01*
X146799996Y-96905565D01*
X146800000Y-96905565D01*
X146800004Y-96905565D01*
X146979249Y-96885369D01*
X146979252Y-96885368D01*
X146979255Y-96885368D01*
X147149522Y-96825789D01*
X147302262Y-96729816D01*
X147429816Y-96602262D01*
X147456358Y-96560020D01*
X147508689Y-96513732D01*
X147575233Y-96502774D01*
X147600000Y-96505565D01*
X147624761Y-96502775D01*
X147693583Y-96514829D01*
X147743640Y-96560023D01*
X147770181Y-96602262D01*
X147897735Y-96729816D01*
X147988077Y-96786582D01*
X148046814Y-96823489D01*
X148050475Y-96825789D01*
X148170633Y-96867834D01*
X148220742Y-96885368D01*
X148220747Y-96885369D01*
X148399993Y-96905565D01*
X148399997Y-96905565D01*
X148400001Y-96905565D01*
X148579246Y-96885369D01*
X148579248Y-96885368D01*
X148579252Y-96885368D01*
X148579255Y-96885366D01*
X148579259Y-96885366D01*
X148756092Y-96823489D01*
X148756843Y-96825637D01*
X148815125Y-96816035D01*
X148843589Y-96824391D01*
X148843905Y-96823489D01*
X149020745Y-96885368D01*
X149020750Y-96885369D01*
X149199996Y-96905565D01*
X149200000Y-96905565D01*
X149200004Y-96905565D01*
X149379249Y-96885369D01*
X149379252Y-96885368D01*
X149379255Y-96885368D01*
X149549522Y-96825789D01*
X149702262Y-96729816D01*
X149829816Y-96602262D01*
X149925789Y-96449522D01*
X149985368Y-96279255D01*
X149985369Y-96279249D01*
X150005565Y-96100003D01*
X150005565Y-96099996D01*
X149985369Y-95920750D01*
X149985368Y-95920745D01*
X149925788Y-95750476D01*
X149894069Y-95699996D01*
X150335977Y-95699996D01*
X150335977Y-95700003D01*
X150356172Y-95879249D01*
X150356173Y-95879254D01*
X150415753Y-96049523D01*
X150447468Y-96099996D01*
X150511726Y-96202262D01*
X150639280Y-96329816D01*
X150710429Y-96374522D01*
X150791421Y-96425413D01*
X150792020Y-96425789D01*
X150859848Y-96449523D01*
X150962287Y-96485368D01*
X150962292Y-96485369D01*
X151141538Y-96505565D01*
X151141542Y-96505565D01*
X151141546Y-96505565D01*
X151320791Y-96485369D01*
X151320794Y-96485368D01*
X151320797Y-96485368D01*
X151491064Y-96425789D01*
X151643804Y-96329816D01*
X151771358Y-96202262D01*
X151867331Y-96049522D01*
X151926910Y-95879255D01*
X151947107Y-95700000D01*
X151947107Y-95699996D01*
X152594435Y-95699996D01*
X152594435Y-95700003D01*
X152614630Y-95879249D01*
X152614631Y-95879254D01*
X152674211Y-96049523D01*
X152705926Y-96099996D01*
X152770184Y-96202262D01*
X152897738Y-96329816D01*
X152968887Y-96374522D01*
X153049879Y-96425413D01*
X153050478Y-96425789D01*
X153118306Y-96449523D01*
X153220745Y-96485368D01*
X153220750Y-96485369D01*
X153399996Y-96505565D01*
X153400000Y-96505565D01*
X153400004Y-96505565D01*
X153579249Y-96485369D01*
X153579252Y-96485368D01*
X153579255Y-96485368D01*
X153579256Y-96485367D01*
X153579259Y-96485367D01*
X153629296Y-96467857D01*
X153702830Y-96442126D01*
X153772608Y-96438564D01*
X153833236Y-96473293D01*
X153848778Y-96493194D01*
X153870184Y-96527262D01*
X153997738Y-96654816D01*
X154150478Y-96750789D01*
X154274168Y-96794070D01*
X154320745Y-96810368D01*
X154320750Y-96810369D01*
X154499996Y-96830565D01*
X154500000Y-96830565D01*
X154500004Y-96830565D01*
X154679249Y-96810369D01*
X154679252Y-96810368D01*
X154679255Y-96810368D01*
X154849522Y-96750789D01*
X155002262Y-96654816D01*
X155129816Y-96527262D01*
X155225789Y-96374522D01*
X155285368Y-96204255D01*
X155286974Y-96190000D01*
X155305565Y-96025003D01*
X155305565Y-96024996D01*
X155285369Y-95845750D01*
X155285368Y-95845745D01*
X155225789Y-95675478D01*
X155129816Y-95522738D01*
X155002262Y-95395184D01*
X154890317Y-95324844D01*
X154849523Y-95299211D01*
X154679254Y-95239631D01*
X154679249Y-95239630D01*
X154500004Y-95219435D01*
X154499996Y-95219435D01*
X154320750Y-95239630D01*
X154320745Y-95239631D01*
X154197169Y-95282873D01*
X154127390Y-95286434D01*
X154066762Y-95251705D01*
X154051220Y-95231803D01*
X154029816Y-95197739D01*
X154029816Y-95197738D01*
X153902262Y-95070184D01*
X153882555Y-95057801D01*
X153749523Y-94974211D01*
X153579254Y-94914631D01*
X153579249Y-94914630D01*
X153400004Y-94894435D01*
X153399996Y-94894435D01*
X153220750Y-94914630D01*
X153220745Y-94914631D01*
X153050476Y-94974211D01*
X152897737Y-95070184D01*
X152770184Y-95197737D01*
X152674211Y-95350476D01*
X152614631Y-95520745D01*
X152614630Y-95520750D01*
X152594435Y-95699996D01*
X151947107Y-95699996D01*
X151944344Y-95675478D01*
X151926911Y-95520750D01*
X151926910Y-95520745D01*
X151875691Y-95374369D01*
X151867331Y-95350478D01*
X151844807Y-95314632D01*
X151797900Y-95239979D01*
X151771358Y-95197738D01*
X151643804Y-95070184D01*
X151624097Y-95057801D01*
X151491065Y-94974211D01*
X151320796Y-94914631D01*
X151320791Y-94914630D01*
X151141546Y-94894435D01*
X151141538Y-94894435D01*
X150962292Y-94914630D01*
X150962287Y-94914631D01*
X150792018Y-94974211D01*
X150639279Y-95070184D01*
X150511726Y-95197737D01*
X150415753Y-95350476D01*
X150356173Y-95520745D01*
X150356172Y-95520750D01*
X150335977Y-95699996D01*
X149894069Y-95699996D01*
X149829815Y-95597737D01*
X149702262Y-95470184D01*
X149549523Y-95374211D01*
X149379254Y-95314631D01*
X149379249Y-95314630D01*
X149200004Y-95294435D01*
X149199996Y-95294435D01*
X149020750Y-95314630D01*
X149020737Y-95314633D01*
X148843906Y-95376510D01*
X148843157Y-95374369D01*
X148784821Y-95383958D01*
X148756405Y-95375611D01*
X148756091Y-95376510D01*
X148579259Y-95314633D01*
X148579246Y-95314630D01*
X148400001Y-95294435D01*
X148399998Y-95294435D01*
X148399997Y-95294435D01*
X148394233Y-95295084D01*
X148375230Y-95297225D01*
X148306408Y-95285168D01*
X148256357Y-95239977D01*
X148229817Y-95197739D01*
X148102262Y-95070184D01*
X147949523Y-94974211D01*
X147779254Y-94914631D01*
X147779249Y-94914630D01*
X147600004Y-94894435D01*
X147599996Y-94894435D01*
X147420750Y-94914630D01*
X147420745Y-94914631D01*
X147250476Y-94974211D01*
X147097737Y-95070184D01*
X146970185Y-95197736D01*
X146970184Y-95197738D01*
X146943861Y-95239631D01*
X146943642Y-95239979D01*
X146891306Y-95286269D01*
X146824766Y-95297225D01*
X146800003Y-95294435D01*
X146799996Y-95294435D01*
X146620750Y-95314630D01*
X146620745Y-95314631D01*
X146450476Y-95374211D01*
X146297737Y-95470184D01*
X146170184Y-95597737D01*
X146074211Y-95750476D01*
X146014631Y-95920745D01*
X146014630Y-95920750D01*
X145994435Y-96099996D01*
X143994074Y-96099996D01*
X144025789Y-96049522D01*
X144085368Y-95879255D01*
X144105565Y-95700000D01*
X144102802Y-95675478D01*
X144085369Y-95520750D01*
X144085368Y-95520745D01*
X144034149Y-95374369D01*
X144025789Y-95350478D01*
X144003265Y-95314632D01*
X143956358Y-95239979D01*
X143929816Y-95197738D01*
X143802262Y-95070184D01*
X143782555Y-95057801D01*
X143649523Y-94974211D01*
X143479254Y-94914631D01*
X143479250Y-94914630D01*
X143320079Y-94896696D01*
X143255665Y-94869629D01*
X143216110Y-94812034D01*
X143213973Y-94742197D01*
X143246279Y-94685798D01*
X143329816Y-94602262D01*
X143425789Y-94449522D01*
X143485368Y-94279255D01*
X143499985Y-94149523D01*
X143505565Y-94100003D01*
X143505565Y-94099996D01*
X143485369Y-93920750D01*
X143485368Y-93920745D01*
X143473001Y-93885403D01*
X143443116Y-93799996D01*
X149294435Y-93799996D01*
X149294435Y-93800003D01*
X149314630Y-93979249D01*
X149314631Y-93979254D01*
X149374211Y-94149523D01*
X149455724Y-94279249D01*
X149470184Y-94302262D01*
X149597738Y-94429816D01*
X149688080Y-94486582D01*
X149743494Y-94521401D01*
X149750478Y-94525789D01*
X149920745Y-94585368D01*
X149920750Y-94585369D01*
X150099996Y-94605565D01*
X150100000Y-94605565D01*
X150100004Y-94605565D01*
X150279249Y-94585369D01*
X150279252Y-94585368D01*
X150279255Y-94585368D01*
X150449522Y-94525789D01*
X150602262Y-94429816D01*
X150729816Y-94302262D01*
X150825789Y-94149522D01*
X150885368Y-93979255D01*
X150891960Y-93920750D01*
X150905565Y-93800003D01*
X150905565Y-93799996D01*
X150885369Y-93620750D01*
X150885368Y-93620745D01*
X150825789Y-93450478D01*
X150729816Y-93297738D01*
X150602262Y-93170184D01*
X150449523Y-93074211D01*
X150279254Y-93014631D01*
X150279249Y-93014630D01*
X150100004Y-92994435D01*
X150099996Y-92994435D01*
X149920750Y-93014630D01*
X149920745Y-93014631D01*
X149750476Y-93074211D01*
X149597737Y-93170184D01*
X149470184Y-93297737D01*
X149374211Y-93450476D01*
X149314631Y-93620745D01*
X149314630Y-93620750D01*
X149294435Y-93799996D01*
X143443116Y-93799996D01*
X143425789Y-93750478D01*
X143329816Y-93597738D01*
X143202262Y-93470184D01*
X143170897Y-93450476D01*
X143049523Y-93374211D01*
X142879254Y-93314631D01*
X142879249Y-93314630D01*
X142700004Y-93294435D01*
X142699996Y-93294435D01*
X142520750Y-93314630D01*
X142520745Y-93314631D01*
X142350476Y-93374211D01*
X142197737Y-93470184D01*
X142070184Y-93597737D01*
X141974211Y-93750476D01*
X141914631Y-93920745D01*
X141914630Y-93920750D01*
X141894435Y-94099996D01*
X139847565Y-94099996D01*
X139905063Y-93885408D01*
X139925659Y-93650000D01*
X139905063Y-93414592D01*
X139843903Y-93186337D01*
X139744035Y-92972171D01*
X139608495Y-92778599D01*
X139608494Y-92778597D01*
X139441402Y-92611506D01*
X139441396Y-92611501D01*
X139255842Y-92481575D01*
X139212217Y-92426998D01*
X139205023Y-92357500D01*
X139236546Y-92295145D01*
X139255842Y-92278425D01*
X139278026Y-92262891D01*
X139441401Y-92148495D01*
X139608495Y-91981401D01*
X139744035Y-91787830D01*
X139831624Y-91599996D01*
X151894435Y-91599996D01*
X151894435Y-91600003D01*
X151914630Y-91779249D01*
X151914631Y-91779254D01*
X151974211Y-91949523D01*
X152070184Y-92102262D01*
X152197738Y-92229816D01*
X152350478Y-92325789D01*
X152371092Y-92333002D01*
X152520745Y-92385368D01*
X152520750Y-92385369D01*
X152699996Y-92405565D01*
X152700000Y-92405565D01*
X152700004Y-92405565D01*
X152879249Y-92385369D01*
X152879252Y-92385368D01*
X152879255Y-92385368D01*
X153049522Y-92325789D01*
X153202262Y-92229816D01*
X153329816Y-92102262D01*
X153425789Y-91949522D01*
X153485368Y-91779255D01*
X153505565Y-91600000D01*
X153485368Y-91420745D01*
X153425789Y-91250478D01*
X153329816Y-91097738D01*
X153202262Y-90970184D01*
X153049523Y-90874211D01*
X152879254Y-90814631D01*
X152879249Y-90814630D01*
X152700004Y-90794435D01*
X152699996Y-90794435D01*
X152520750Y-90814630D01*
X152520745Y-90814631D01*
X152350476Y-90874211D01*
X152197737Y-90970184D01*
X152070184Y-91097737D01*
X151974211Y-91250476D01*
X151914631Y-91420745D01*
X151914630Y-91420750D01*
X151894435Y-91599996D01*
X139831624Y-91599996D01*
X139843903Y-91573663D01*
X139905063Y-91345408D01*
X139925659Y-91110000D01*
X139905063Y-90874592D01*
X139843903Y-90646337D01*
X139744035Y-90432171D01*
X139608495Y-90238599D01*
X139608494Y-90238597D01*
X139441402Y-90071506D01*
X139441396Y-90071501D01*
X139255842Y-89941575D01*
X139212217Y-89886998D01*
X139205023Y-89817500D01*
X139236546Y-89755145D01*
X139255842Y-89738425D01*
X139278026Y-89722891D01*
X139441401Y-89608495D01*
X139608495Y-89441401D01*
X139744035Y-89247830D01*
X139843903Y-89033663D01*
X139905063Y-88805408D01*
X139925659Y-88570000D01*
X139905063Y-88334592D01*
X139843903Y-88106337D01*
X139744035Y-87892171D01*
X139608495Y-87698599D01*
X139608494Y-87698597D01*
X139441402Y-87531506D01*
X139441396Y-87531501D01*
X139255842Y-87401575D01*
X139212217Y-87346998D01*
X139205023Y-87277500D01*
X139236546Y-87215145D01*
X139255842Y-87198425D01*
X139278026Y-87182891D01*
X139441401Y-87068495D01*
X139608495Y-86901401D01*
X139744035Y-86707830D01*
X139840950Y-86499996D01*
X146494435Y-86499996D01*
X146494435Y-86500003D01*
X146514630Y-86679249D01*
X146514631Y-86679254D01*
X146574211Y-86849523D01*
X146606809Y-86901402D01*
X146670184Y-87002262D01*
X146797738Y-87129816D01*
X146950478Y-87225789D01*
X147098260Y-87277500D01*
X147120745Y-87285368D01*
X147120750Y-87285369D01*
X147299996Y-87305565D01*
X147300000Y-87305565D01*
X147300004Y-87305565D01*
X147479249Y-87285369D01*
X147479252Y-87285368D01*
X147479255Y-87285368D01*
X147649522Y-87225789D01*
X147802262Y-87129816D01*
X147929816Y-87002262D01*
X148025789Y-86849522D01*
X148085368Y-86679255D01*
X148105565Y-86500000D01*
X148104851Y-86493664D01*
X148085369Y-86320750D01*
X148085368Y-86320745D01*
X148025788Y-86150476D01*
X147986582Y-86088080D01*
X147929816Y-85997738D01*
X147802262Y-85870184D01*
X147681965Y-85794596D01*
X147649523Y-85774211D01*
X147479254Y-85714631D01*
X147479249Y-85714630D01*
X147300004Y-85694435D01*
X147299996Y-85694435D01*
X147120750Y-85714630D01*
X147120745Y-85714631D01*
X146950476Y-85774211D01*
X146797737Y-85870184D01*
X146670184Y-85997737D01*
X146574211Y-86150476D01*
X146514631Y-86320745D01*
X146514630Y-86320750D01*
X146494435Y-86499996D01*
X139840950Y-86499996D01*
X139843903Y-86493663D01*
X139905063Y-86265408D01*
X139925659Y-86030000D01*
X139905063Y-85794592D01*
X139843903Y-85566337D01*
X139744035Y-85352171D01*
X139689324Y-85274034D01*
X139608494Y-85158597D01*
X139441402Y-84991506D01*
X139441396Y-84991501D01*
X139255842Y-84861575D01*
X139212217Y-84806998D01*
X139205023Y-84737500D01*
X139236546Y-84675145D01*
X139255842Y-84658425D01*
X139339281Y-84600000D01*
X139441401Y-84528495D01*
X139608495Y-84361401D01*
X139744035Y-84167830D01*
X139843903Y-83953663D01*
X139905063Y-83725408D01*
X139925659Y-83490000D01*
X139905063Y-83254592D01*
X139891013Y-83202155D01*
X144840000Y-83202155D01*
X144840000Y-83850000D01*
X145756988Y-83850000D01*
X145724075Y-83907007D01*
X145690000Y-84034174D01*
X145690000Y-84165826D01*
X145724075Y-84292993D01*
X145756988Y-84350000D01*
X144840000Y-84350000D01*
X144840000Y-84997844D01*
X144846401Y-85057372D01*
X144846403Y-85057379D01*
X144896645Y-85192086D01*
X144896649Y-85192093D01*
X144982809Y-85307187D01*
X144982812Y-85307190D01*
X145097906Y-85393350D01*
X145097913Y-85393354D01*
X145232620Y-85443596D01*
X145232627Y-85443598D01*
X145292155Y-85449999D01*
X145292172Y-85450000D01*
X145940000Y-85450000D01*
X145940000Y-84533012D01*
X145997007Y-84565925D01*
X146124174Y-84600000D01*
X146255826Y-84600000D01*
X146382993Y-84565925D01*
X146440000Y-84533012D01*
X146440000Y-85450000D01*
X147087828Y-85450000D01*
X147087844Y-85449999D01*
X147147372Y-85443598D01*
X147147379Y-85443596D01*
X147282086Y-85393354D01*
X147282093Y-85393350D01*
X147397187Y-85307190D01*
X147397190Y-85307187D01*
X147483350Y-85192093D01*
X147483354Y-85192086D01*
X147532422Y-85060529D01*
X147574293Y-85004595D01*
X147639757Y-84980178D01*
X147708030Y-84995030D01*
X147736285Y-85016181D01*
X147858599Y-85138495D01*
X147935135Y-85192086D01*
X148052165Y-85274032D01*
X148052167Y-85274033D01*
X148052170Y-85274035D01*
X148266337Y-85373903D01*
X148494592Y-85435063D01*
X148665319Y-85450000D01*
X148729999Y-85455659D01*
X148730000Y-85455659D01*
X148730001Y-85455659D01*
X148794681Y-85450000D01*
X148965408Y-85435063D01*
X149193663Y-85373903D01*
X149407830Y-85274035D01*
X149601401Y-85138495D01*
X149768495Y-84971401D01*
X149898425Y-84785842D01*
X149953002Y-84742217D01*
X150022500Y-84735023D01*
X150084855Y-84766546D01*
X150101575Y-84785842D01*
X150231500Y-84971395D01*
X150231505Y-84971401D01*
X150398599Y-85138495D01*
X150475135Y-85192086D01*
X150592165Y-85274032D01*
X150592167Y-85274033D01*
X150592170Y-85274035D01*
X150806337Y-85373903D01*
X151034592Y-85435063D01*
X151205319Y-85450000D01*
X151269999Y-85455659D01*
X151270000Y-85455659D01*
X151270001Y-85455659D01*
X151334681Y-85450000D01*
X151505408Y-85435063D01*
X151733663Y-85373903D01*
X151947830Y-85274035D01*
X152141401Y-85138495D01*
X152308495Y-84971401D01*
X152438425Y-84785842D01*
X152493002Y-84742217D01*
X152562500Y-84735023D01*
X152624855Y-84766546D01*
X152641575Y-84785842D01*
X152771500Y-84971395D01*
X152771505Y-84971401D01*
X152938599Y-85138495D01*
X153015135Y-85192086D01*
X153132165Y-85274032D01*
X153132167Y-85274033D01*
X153132170Y-85274035D01*
X153346337Y-85373903D01*
X153574592Y-85435063D01*
X153745319Y-85450000D01*
X153809999Y-85455659D01*
X153810000Y-85455659D01*
X153810001Y-85455659D01*
X153874681Y-85450000D01*
X154045408Y-85435063D01*
X154273663Y-85373903D01*
X154487830Y-85274035D01*
X154681401Y-85138495D01*
X154848495Y-84971401D01*
X154984035Y-84777830D01*
X155083903Y-84563663D01*
X155145063Y-84335408D01*
X155165659Y-84100000D01*
X155145063Y-83864592D01*
X155083903Y-83636337D01*
X154984035Y-83422171D01*
X154978425Y-83414158D01*
X154848494Y-83228597D01*
X154681402Y-83061506D01*
X154681395Y-83061501D01*
X154487834Y-82925967D01*
X154487830Y-82925965D01*
X154416727Y-82892809D01*
X154273663Y-82826097D01*
X154273659Y-82826096D01*
X154273655Y-82826094D01*
X154045413Y-82764938D01*
X154045403Y-82764936D01*
X153810001Y-82744341D01*
X153809999Y-82744341D01*
X153574596Y-82764936D01*
X153574586Y-82764938D01*
X153346344Y-82826094D01*
X153346335Y-82826098D01*
X153132171Y-82925964D01*
X153132169Y-82925965D01*
X152938597Y-83061505D01*
X152771505Y-83228597D01*
X152641575Y-83414158D01*
X152586998Y-83457783D01*
X152517500Y-83464977D01*
X152455145Y-83433454D01*
X152438425Y-83414158D01*
X152308494Y-83228597D01*
X152141402Y-83061506D01*
X152141395Y-83061501D01*
X151947834Y-82925967D01*
X151947830Y-82925965D01*
X151876727Y-82892809D01*
X151733663Y-82826097D01*
X151733659Y-82826096D01*
X151733655Y-82826094D01*
X151505413Y-82764938D01*
X151505403Y-82764936D01*
X151270001Y-82744341D01*
X151269999Y-82744341D01*
X151034596Y-82764936D01*
X151034586Y-82764938D01*
X150806344Y-82826094D01*
X150806335Y-82826098D01*
X150592171Y-82925964D01*
X150592169Y-82925965D01*
X150398597Y-83061505D01*
X150231505Y-83228597D01*
X150101575Y-83414158D01*
X150046998Y-83457783D01*
X149977500Y-83464977D01*
X149915145Y-83433454D01*
X149898425Y-83414158D01*
X149768494Y-83228597D01*
X149601402Y-83061506D01*
X149601395Y-83061501D01*
X149407834Y-82925967D01*
X149407830Y-82925965D01*
X149336727Y-82892809D01*
X149193663Y-82826097D01*
X149193659Y-82826096D01*
X149193655Y-82826094D01*
X148965413Y-82764938D01*
X148965403Y-82764936D01*
X148730001Y-82744341D01*
X148729999Y-82744341D01*
X148494596Y-82764936D01*
X148494586Y-82764938D01*
X148266344Y-82826094D01*
X148266335Y-82826098D01*
X148052171Y-82925964D01*
X148052169Y-82925965D01*
X147858600Y-83061503D01*
X147736284Y-83183819D01*
X147674961Y-83217303D01*
X147605269Y-83212319D01*
X147549336Y-83170447D01*
X147532421Y-83139470D01*
X147483354Y-83007913D01*
X147483350Y-83007906D01*
X147397190Y-82892812D01*
X147397187Y-82892809D01*
X147282093Y-82806649D01*
X147282086Y-82806645D01*
X147147379Y-82756403D01*
X147147372Y-82756401D01*
X147087844Y-82750000D01*
X146440000Y-82750000D01*
X146440000Y-83666988D01*
X146382993Y-83634075D01*
X146255826Y-83600000D01*
X146124174Y-83600000D01*
X145997007Y-83634075D01*
X145940000Y-83666988D01*
X145940000Y-82750000D01*
X145292155Y-82750000D01*
X145232627Y-82756401D01*
X145232620Y-82756403D01*
X145097913Y-82806645D01*
X145097906Y-82806649D01*
X144982812Y-82892809D01*
X144982809Y-82892812D01*
X144896649Y-83007906D01*
X144896645Y-83007913D01*
X144846403Y-83142620D01*
X144846401Y-83142627D01*
X144840000Y-83202155D01*
X139891013Y-83202155D01*
X139843903Y-83026337D01*
X139744035Y-82812171D01*
X139740169Y-82806649D01*
X139608494Y-82618597D01*
X139441402Y-82451506D01*
X139441401Y-82451505D01*
X139255405Y-82321269D01*
X139211781Y-82266692D01*
X139204588Y-82197193D01*
X139236110Y-82134839D01*
X139255405Y-82118119D01*
X139441082Y-81988105D01*
X139608105Y-81821082D01*
X139743600Y-81627578D01*
X139843429Y-81413492D01*
X139843432Y-81413486D01*
X139900636Y-81200000D01*
X139003012Y-81200000D01*
X139035925Y-81142993D01*
X139070000Y-81015826D01*
X139070000Y-80884174D01*
X139035925Y-80757007D01*
X139003012Y-80700000D01*
X139900636Y-80700000D01*
X139900635Y-80699999D01*
X139843432Y-80486513D01*
X139843429Y-80486507D01*
X139743600Y-80272422D01*
X139743599Y-80272420D01*
X139608113Y-80078926D01*
X139608108Y-80078920D01*
X139441078Y-79911890D01*
X139255405Y-79781879D01*
X139211780Y-79727302D01*
X139204588Y-79657804D01*
X139236110Y-79595449D01*
X139255406Y-79578730D01*
X139255842Y-79578425D01*
X139441401Y-79448495D01*
X139608495Y-79281401D01*
X139744035Y-79087830D01*
X139843903Y-78873663D01*
X139905063Y-78645408D01*
X139925659Y-78410000D01*
X139905063Y-78174592D01*
X139843903Y-77946337D01*
X139744035Y-77732171D01*
X139608495Y-77538599D01*
X139486567Y-77416671D01*
X139453084Y-77355351D01*
X139458068Y-77285659D01*
X139499939Y-77229725D01*
X139530915Y-77212810D01*
X139662331Y-77163796D01*
X139777546Y-77077546D01*
X139863796Y-76962331D01*
X139914091Y-76827483D01*
X139920500Y-76767873D01*
X139920499Y-75869999D01*
X160074341Y-75869999D01*
X160074341Y-75870000D01*
X160094936Y-76105403D01*
X160094938Y-76105413D01*
X160156094Y-76333655D01*
X160156096Y-76333659D01*
X160156097Y-76333663D01*
X160255965Y-76547830D01*
X160255967Y-76547834D01*
X160391501Y-76741395D01*
X160391506Y-76741402D01*
X160558597Y-76908493D01*
X160558603Y-76908498D01*
X160744594Y-77038730D01*
X160788219Y-77093307D01*
X160795413Y-77162805D01*
X160763890Y-77225160D01*
X160744595Y-77241880D01*
X160558922Y-77371890D01*
X160558920Y-77371891D01*
X160391891Y-77538920D01*
X160391886Y-77538926D01*
X160256400Y-77732420D01*
X160256399Y-77732422D01*
X160156570Y-77946507D01*
X160156567Y-77946513D01*
X160099364Y-78159999D01*
X160099364Y-78160000D01*
X160996988Y-78160000D01*
X160964075Y-78217007D01*
X160930000Y-78344174D01*
X160930000Y-78475826D01*
X160964075Y-78602993D01*
X160996988Y-78660000D01*
X160099364Y-78660000D01*
X160156567Y-78873486D01*
X160156570Y-78873492D01*
X160256399Y-79087578D01*
X160391894Y-79281082D01*
X160558917Y-79448105D01*
X160745031Y-79578425D01*
X160788656Y-79633003D01*
X160795848Y-79702501D01*
X160764326Y-79764856D01*
X160745031Y-79781575D01*
X160558922Y-79911890D01*
X160558920Y-79911891D01*
X160391891Y-80078920D01*
X160391886Y-80078926D01*
X160256400Y-80272420D01*
X160256399Y-80272422D01*
X160156570Y-80486507D01*
X160156567Y-80486513D01*
X160099364Y-80699999D01*
X160099364Y-80700000D01*
X160996988Y-80700000D01*
X160964075Y-80757007D01*
X160930000Y-80884174D01*
X160930000Y-81015826D01*
X160964075Y-81142993D01*
X160996988Y-81200000D01*
X160099364Y-81200000D01*
X160156567Y-81413486D01*
X160156570Y-81413492D01*
X160256399Y-81627578D01*
X160391894Y-81821082D01*
X160558917Y-81988105D01*
X160744595Y-82118119D01*
X160788219Y-82172696D01*
X160795412Y-82242195D01*
X160763890Y-82304549D01*
X160744595Y-82321269D01*
X160558594Y-82451508D01*
X160391505Y-82618597D01*
X160255965Y-82812169D01*
X160255964Y-82812171D01*
X160156098Y-83026335D01*
X160156094Y-83026344D01*
X160094938Y-83254586D01*
X160094936Y-83254596D01*
X160074341Y-83489999D01*
X160074341Y-83490000D01*
X160094936Y-83725403D01*
X160094938Y-83725413D01*
X160156094Y-83953655D01*
X160156096Y-83953659D01*
X160156097Y-83953663D01*
X160193640Y-84034174D01*
X160255965Y-84167830D01*
X160255967Y-84167834D01*
X160343605Y-84292993D01*
X160373304Y-84335408D01*
X160391501Y-84361395D01*
X160391506Y-84361402D01*
X160558597Y-84528493D01*
X160558603Y-84528498D01*
X160744158Y-84658425D01*
X160787783Y-84713002D01*
X160794977Y-84782500D01*
X160763454Y-84844855D01*
X160744158Y-84861575D01*
X160558597Y-84991505D01*
X160391505Y-85158597D01*
X160255965Y-85352169D01*
X160255964Y-85352171D01*
X160156098Y-85566335D01*
X160156094Y-85566344D01*
X160094938Y-85794586D01*
X160094936Y-85794596D01*
X160074341Y-86029999D01*
X160074341Y-86030000D01*
X160094936Y-86265403D01*
X160094938Y-86265413D01*
X160156094Y-86493655D01*
X160156096Y-86493659D01*
X160156097Y-86493663D01*
X160242637Y-86679249D01*
X160255965Y-86707830D01*
X160255967Y-86707834D01*
X160391501Y-86901395D01*
X160391506Y-86901402D01*
X160558597Y-87068493D01*
X160558603Y-87068498D01*
X160744158Y-87198425D01*
X160787783Y-87253002D01*
X160794977Y-87322500D01*
X160763454Y-87384855D01*
X160744158Y-87401575D01*
X160558597Y-87531505D01*
X160391505Y-87698597D01*
X160255965Y-87892169D01*
X160255964Y-87892171D01*
X160156098Y-88106335D01*
X160156094Y-88106344D01*
X160094938Y-88334586D01*
X160094936Y-88334596D01*
X160074341Y-88569999D01*
X160074341Y-88570000D01*
X160094936Y-88805403D01*
X160094938Y-88805413D01*
X160156094Y-89033655D01*
X160156096Y-89033659D01*
X160156097Y-89033663D01*
X160255965Y-89247830D01*
X160255967Y-89247834D01*
X160391501Y-89441395D01*
X160391506Y-89441402D01*
X160558597Y-89608493D01*
X160558603Y-89608498D01*
X160744158Y-89738425D01*
X160787783Y-89793002D01*
X160794977Y-89862500D01*
X160763454Y-89924855D01*
X160744158Y-89941575D01*
X160558597Y-90071505D01*
X160391505Y-90238597D01*
X160255965Y-90432169D01*
X160255964Y-90432171D01*
X160156098Y-90646335D01*
X160156094Y-90646344D01*
X160094938Y-90874586D01*
X160094936Y-90874596D01*
X160074341Y-91109999D01*
X160074341Y-91110000D01*
X160094936Y-91345403D01*
X160094938Y-91345413D01*
X160156094Y-91573655D01*
X160156096Y-91573659D01*
X160156097Y-91573663D01*
X160168380Y-91600003D01*
X160255965Y-91787830D01*
X160255967Y-91787834D01*
X160391501Y-91981395D01*
X160391506Y-91981402D01*
X160558597Y-92148493D01*
X160558603Y-92148498D01*
X160744158Y-92278425D01*
X160787783Y-92333002D01*
X160794977Y-92402500D01*
X160763454Y-92464855D01*
X160744158Y-92481575D01*
X160558597Y-92611505D01*
X160391505Y-92778597D01*
X160255965Y-92972169D01*
X160255964Y-92972171D01*
X160156098Y-93186335D01*
X160156094Y-93186344D01*
X160094938Y-93414586D01*
X160094936Y-93414596D01*
X160074341Y-93649999D01*
X160074341Y-93650000D01*
X160094936Y-93885403D01*
X160094938Y-93885413D01*
X160156094Y-94113655D01*
X160156096Y-94113659D01*
X160156097Y-94113663D01*
X160172819Y-94149523D01*
X160255965Y-94327830D01*
X160255967Y-94327834D01*
X160391501Y-94521395D01*
X160391506Y-94521402D01*
X160558597Y-94688493D01*
X160558603Y-94688498D01*
X160744158Y-94818425D01*
X160787783Y-94873002D01*
X160794977Y-94942500D01*
X160763454Y-95004855D01*
X160744158Y-95021575D01*
X160558597Y-95151505D01*
X160391505Y-95318597D01*
X160255965Y-95512169D01*
X160255964Y-95512171D01*
X160156098Y-95726335D01*
X160156094Y-95726344D01*
X160094938Y-95954586D01*
X160094936Y-95954596D01*
X160074341Y-96189999D01*
X160074341Y-96190000D01*
X160094936Y-96425403D01*
X160094938Y-96425413D01*
X160156094Y-96653655D01*
X160156096Y-96653659D01*
X160156097Y-96653663D01*
X160236361Y-96825789D01*
X160255965Y-96867830D01*
X160255967Y-96867834D01*
X160391501Y-97061395D01*
X160391506Y-97061402D01*
X160558597Y-97228493D01*
X160558603Y-97228498D01*
X160744158Y-97358425D01*
X160787783Y-97413002D01*
X160794977Y-97482500D01*
X160763454Y-97544855D01*
X160744158Y-97561575D01*
X160558597Y-97691505D01*
X160391505Y-97858597D01*
X160255965Y-98052169D01*
X160255964Y-98052171D01*
X160156098Y-98266335D01*
X160156094Y-98266344D01*
X160094938Y-98494586D01*
X160094936Y-98494596D01*
X160074341Y-98729999D01*
X160074341Y-98730000D01*
X160094936Y-98965403D01*
X160094938Y-98965413D01*
X160156094Y-99193655D01*
X160156096Y-99193659D01*
X160156097Y-99193663D01*
X160223802Y-99338856D01*
X160255965Y-99407830D01*
X160255967Y-99407834D01*
X160391501Y-99601395D01*
X160391506Y-99601402D01*
X160558597Y-99768493D01*
X160558603Y-99768498D01*
X160744158Y-99898425D01*
X160787783Y-99953002D01*
X160794977Y-100022500D01*
X160763454Y-100084855D01*
X160744158Y-100101575D01*
X160558597Y-100231505D01*
X160391505Y-100398597D01*
X160255965Y-100592169D01*
X160255964Y-100592171D01*
X160156098Y-100806335D01*
X160156094Y-100806344D01*
X160094938Y-101034586D01*
X160094936Y-101034596D01*
X160074341Y-101269999D01*
X160074341Y-101270000D01*
X160094936Y-101505403D01*
X160094938Y-101505413D01*
X160156094Y-101733655D01*
X160156096Y-101733659D01*
X160156097Y-101733663D01*
X160245687Y-101925788D01*
X160255965Y-101947830D01*
X160255967Y-101947834D01*
X160391501Y-102141395D01*
X160391506Y-102141402D01*
X160558597Y-102308493D01*
X160558603Y-102308498D01*
X160744158Y-102438425D01*
X160787783Y-102493002D01*
X160794977Y-102562500D01*
X160763454Y-102624855D01*
X160744158Y-102641575D01*
X160558597Y-102771505D01*
X160391505Y-102938597D01*
X160255965Y-103132169D01*
X160255964Y-103132171D01*
X160156098Y-103346335D01*
X160156094Y-103346344D01*
X160094938Y-103574586D01*
X160094936Y-103574596D01*
X160074341Y-103809999D01*
X160074341Y-103810000D01*
X160094936Y-104045403D01*
X160094938Y-104045413D01*
X160156094Y-104273655D01*
X160156096Y-104273659D01*
X160156097Y-104273663D01*
X160254725Y-104485170D01*
X160255965Y-104487830D01*
X160255967Y-104487834D01*
X160391501Y-104681395D01*
X160391506Y-104681402D01*
X160558597Y-104848493D01*
X160558603Y-104848498D01*
X160744158Y-104978425D01*
X160787783Y-105033002D01*
X160794977Y-105102500D01*
X160763454Y-105164855D01*
X160744158Y-105181575D01*
X160558597Y-105311505D01*
X160391505Y-105478597D01*
X160255965Y-105672169D01*
X160255964Y-105672171D01*
X160156098Y-105886335D01*
X160156094Y-105886344D01*
X160094938Y-106114586D01*
X160094936Y-106114596D01*
X160074341Y-106349999D01*
X160074341Y-106350000D01*
X160094936Y-106585403D01*
X160094938Y-106585413D01*
X160156094Y-106813655D01*
X160156096Y-106813659D01*
X160156097Y-106813663D01*
X160210260Y-106929815D01*
X160255965Y-107027830D01*
X160255967Y-107027834D01*
X160391501Y-107221395D01*
X160391506Y-107221402D01*
X160558597Y-107388493D01*
X160558603Y-107388498D01*
X160744158Y-107518425D01*
X160787783Y-107573002D01*
X160794977Y-107642500D01*
X160763454Y-107704855D01*
X160744158Y-107721575D01*
X160558597Y-107851505D01*
X160391505Y-108018597D01*
X160255965Y-108212169D01*
X160255964Y-108212171D01*
X160156098Y-108426335D01*
X160156094Y-108426344D01*
X160094938Y-108654586D01*
X160094936Y-108654596D01*
X160074341Y-108889999D01*
X160074341Y-108890000D01*
X160094936Y-109125403D01*
X160094938Y-109125413D01*
X160156094Y-109353655D01*
X160156096Y-109353659D01*
X160156097Y-109353663D01*
X160255965Y-109567830D01*
X160255967Y-109567834D01*
X160391501Y-109761395D01*
X160391506Y-109761402D01*
X160558597Y-109928493D01*
X160558603Y-109928498D01*
X160744158Y-110058425D01*
X160787783Y-110113002D01*
X160794977Y-110182500D01*
X160763454Y-110244855D01*
X160744158Y-110261575D01*
X160558597Y-110391505D01*
X160391505Y-110558597D01*
X160255965Y-110752169D01*
X160255964Y-110752171D01*
X160156098Y-110966335D01*
X160156094Y-110966344D01*
X160094938Y-111194586D01*
X160094936Y-111194596D01*
X160074341Y-111429999D01*
X160074341Y-111430000D01*
X160094936Y-111665403D01*
X160094938Y-111665413D01*
X160156094Y-111893655D01*
X160156096Y-111893659D01*
X160156097Y-111893663D01*
X160255965Y-112107830D01*
X160255967Y-112107834D01*
X160391501Y-112301395D01*
X160391506Y-112301402D01*
X160558597Y-112468493D01*
X160558603Y-112468498D01*
X160744158Y-112598425D01*
X160787783Y-112653002D01*
X160794977Y-112722500D01*
X160763454Y-112784855D01*
X160744158Y-112801575D01*
X160558597Y-112931505D01*
X160391505Y-113098597D01*
X160255965Y-113292169D01*
X160255964Y-113292171D01*
X160156098Y-113506335D01*
X160156094Y-113506344D01*
X160094938Y-113734586D01*
X160094936Y-113734596D01*
X160074341Y-113969999D01*
X160074341Y-113970000D01*
X160094936Y-114205403D01*
X160094938Y-114205413D01*
X160156094Y-114433655D01*
X160156096Y-114433659D01*
X160156097Y-114433663D01*
X160196707Y-114520751D01*
X160255965Y-114647830D01*
X160255967Y-114647834D01*
X160391501Y-114841395D01*
X160391506Y-114841402D01*
X160558597Y-115008493D01*
X160558603Y-115008498D01*
X160744158Y-115138425D01*
X160787783Y-115193002D01*
X160794977Y-115262500D01*
X160763454Y-115324855D01*
X160744158Y-115341575D01*
X160558597Y-115471505D01*
X160391505Y-115638597D01*
X160255965Y-115832169D01*
X160255964Y-115832171D01*
X160156098Y-116046335D01*
X160156094Y-116046344D01*
X160094938Y-116274586D01*
X160094936Y-116274596D01*
X160074341Y-116509999D01*
X160074341Y-116510000D01*
X160094936Y-116745403D01*
X160094938Y-116745413D01*
X160156094Y-116973655D01*
X160156096Y-116973659D01*
X160156097Y-116973663D01*
X160255847Y-117187578D01*
X160255965Y-117187830D01*
X160255967Y-117187834D01*
X160391501Y-117381395D01*
X160391506Y-117381402D01*
X160558597Y-117548493D01*
X160558603Y-117548498D01*
X160744594Y-117678730D01*
X160788219Y-117733307D01*
X160795413Y-117802805D01*
X160763890Y-117865160D01*
X160744595Y-117881880D01*
X160558922Y-118011890D01*
X160558920Y-118011891D01*
X160391891Y-118178920D01*
X160391886Y-118178926D01*
X160256400Y-118372420D01*
X160256399Y-118372422D01*
X160156570Y-118586507D01*
X160156567Y-118586513D01*
X160099364Y-118799999D01*
X160099364Y-118800000D01*
X160996988Y-118800000D01*
X160964075Y-118857007D01*
X160930000Y-118984174D01*
X160930000Y-119115826D01*
X160964075Y-119242993D01*
X160996988Y-119300000D01*
X160099364Y-119300000D01*
X160156567Y-119513486D01*
X160156570Y-119513492D01*
X160256399Y-119727578D01*
X160391894Y-119921082D01*
X160558917Y-120088105D01*
X160745031Y-120218425D01*
X160788656Y-120273003D01*
X160795848Y-120342501D01*
X160764326Y-120404856D01*
X160745031Y-120421575D01*
X160558922Y-120551890D01*
X160558920Y-120551891D01*
X160391891Y-120718920D01*
X160391886Y-120718926D01*
X160256400Y-120912420D01*
X160256399Y-120912422D01*
X160156570Y-121126507D01*
X160156567Y-121126513D01*
X160099364Y-121339999D01*
X160099364Y-121340000D01*
X160996988Y-121340000D01*
X160964075Y-121397007D01*
X160930000Y-121524174D01*
X160930000Y-121655826D01*
X160964075Y-121782993D01*
X160996988Y-121840000D01*
X160099364Y-121840000D01*
X160156567Y-122053486D01*
X160156570Y-122053492D01*
X160256399Y-122267578D01*
X160391894Y-122461082D01*
X160513946Y-122583134D01*
X160547431Y-122644457D01*
X160542447Y-122714149D01*
X160500575Y-122770082D01*
X160469598Y-122786997D01*
X160337671Y-122836202D01*
X160337664Y-122836206D01*
X160222455Y-122922452D01*
X160222452Y-122922455D01*
X160136206Y-123037664D01*
X160136202Y-123037671D01*
X160085908Y-123172517D01*
X160079501Y-123232116D01*
X160079501Y-123232123D01*
X160079500Y-123232135D01*
X160079500Y-125027870D01*
X160079501Y-125027876D01*
X160085908Y-125087483D01*
X160136202Y-125222328D01*
X160136206Y-125222335D01*
X160222452Y-125337544D01*
X160222455Y-125337547D01*
X160337664Y-125423793D01*
X160337671Y-125423797D01*
X160472517Y-125474091D01*
X160472516Y-125474091D01*
X160479444Y-125474835D01*
X160532127Y-125480500D01*
X162327872Y-125480499D01*
X162387483Y-125474091D01*
X162522331Y-125423796D01*
X162637546Y-125337546D01*
X162723796Y-125222331D01*
X162774091Y-125087483D01*
X162780500Y-125027873D01*
X162780499Y-123232128D01*
X162774091Y-123172517D01*
X162723796Y-123037669D01*
X162723795Y-123037668D01*
X162723793Y-123037664D01*
X162637547Y-122922455D01*
X162637544Y-122922452D01*
X162522335Y-122836206D01*
X162522328Y-122836202D01*
X162390401Y-122786997D01*
X162334467Y-122745126D01*
X162310050Y-122679662D01*
X162324902Y-122611389D01*
X162346053Y-122583133D01*
X162468108Y-122461078D01*
X162603600Y-122267578D01*
X162703429Y-122053492D01*
X162703432Y-122053486D01*
X162760636Y-121840000D01*
X161863012Y-121840000D01*
X161895925Y-121782993D01*
X161930000Y-121655826D01*
X161930000Y-121524174D01*
X161895925Y-121397007D01*
X161863012Y-121340000D01*
X162760636Y-121340000D01*
X162760635Y-121339999D01*
X162703432Y-121126513D01*
X162703429Y-121126507D01*
X162603600Y-120912422D01*
X162603599Y-120912420D01*
X162468113Y-120718926D01*
X162468108Y-120718920D01*
X162301082Y-120551894D01*
X162114968Y-120421575D01*
X162071344Y-120366998D01*
X162064151Y-120297499D01*
X162095673Y-120235145D01*
X162114968Y-120218425D01*
X162301082Y-120088105D01*
X162468105Y-119921082D01*
X162603600Y-119727578D01*
X162703429Y-119513492D01*
X162703432Y-119513486D01*
X162760636Y-119300000D01*
X161863012Y-119300000D01*
X161895925Y-119242993D01*
X161930000Y-119115826D01*
X161930000Y-118984174D01*
X161895925Y-118857007D01*
X161863012Y-118800000D01*
X162760636Y-118800000D01*
X162760635Y-118799999D01*
X162703432Y-118586513D01*
X162703429Y-118586507D01*
X162603600Y-118372422D01*
X162603599Y-118372420D01*
X162468113Y-118178926D01*
X162468108Y-118178920D01*
X162301078Y-118011890D01*
X162115405Y-117881879D01*
X162071780Y-117827302D01*
X162064588Y-117757804D01*
X162096110Y-117695449D01*
X162115406Y-117678730D01*
X162116279Y-117678119D01*
X162301401Y-117548495D01*
X162468495Y-117381401D01*
X162604035Y-117187830D01*
X162703903Y-116973663D01*
X162765063Y-116745408D01*
X162785659Y-116510000D01*
X162765063Y-116274592D01*
X162703903Y-116046337D01*
X162604035Y-115832171D01*
X162468495Y-115638599D01*
X162468494Y-115638597D01*
X162301402Y-115471506D01*
X162301396Y-115471501D01*
X162115842Y-115341575D01*
X162072217Y-115286998D01*
X162065023Y-115217500D01*
X162096546Y-115155145D01*
X162115842Y-115138425D01*
X162138026Y-115122891D01*
X162301401Y-115008495D01*
X162468495Y-114841401D01*
X162604035Y-114647830D01*
X162703903Y-114433663D01*
X162765063Y-114205408D01*
X162785659Y-113970000D01*
X162765063Y-113734592D01*
X162703903Y-113506337D01*
X162604035Y-113292171D01*
X162561709Y-113231722D01*
X162468494Y-113098597D01*
X162301402Y-112931506D01*
X162301396Y-112931501D01*
X162115842Y-112801575D01*
X162072217Y-112746998D01*
X162065023Y-112677500D01*
X162096546Y-112615145D01*
X162115842Y-112598425D01*
X162210401Y-112532214D01*
X162301401Y-112468495D01*
X162468495Y-112301401D01*
X162604035Y-112107830D01*
X162703903Y-111893663D01*
X162765063Y-111665408D01*
X162785659Y-111430000D01*
X162765063Y-111194592D01*
X162703903Y-110966337D01*
X162604035Y-110752171D01*
X162497485Y-110600000D01*
X162468494Y-110558597D01*
X162301402Y-110391506D01*
X162301396Y-110391501D01*
X162115842Y-110261575D01*
X162072217Y-110206998D01*
X162065023Y-110137500D01*
X162096546Y-110075145D01*
X162115842Y-110058425D01*
X162138026Y-110042891D01*
X162301401Y-109928495D01*
X162468495Y-109761401D01*
X162604035Y-109567830D01*
X162703903Y-109353663D01*
X162765063Y-109125408D01*
X162785659Y-108890000D01*
X162765063Y-108654592D01*
X162703903Y-108426337D01*
X162604035Y-108212171D01*
X162468495Y-108018599D01*
X162468494Y-108018597D01*
X162301402Y-107851506D01*
X162301396Y-107851501D01*
X162115842Y-107721575D01*
X162072217Y-107666998D01*
X162065023Y-107597500D01*
X162096546Y-107535145D01*
X162115842Y-107518425D01*
X162138026Y-107502891D01*
X162301401Y-107388495D01*
X162468495Y-107221401D01*
X162604035Y-107027830D01*
X162703903Y-106813663D01*
X162765063Y-106585408D01*
X162785659Y-106350000D01*
X162765063Y-106114592D01*
X162703903Y-105886337D01*
X162604035Y-105672171D01*
X162532624Y-105570184D01*
X162468494Y-105478597D01*
X162301402Y-105311506D01*
X162301396Y-105311501D01*
X162115842Y-105181575D01*
X162072217Y-105126998D01*
X162065023Y-105057500D01*
X162096546Y-104995145D01*
X162115842Y-104978425D01*
X162257471Y-104879255D01*
X162301401Y-104848495D01*
X162468495Y-104681401D01*
X162604035Y-104487830D01*
X162703903Y-104273663D01*
X162765063Y-104045408D01*
X162785659Y-103810000D01*
X162765063Y-103574592D01*
X162703903Y-103346337D01*
X162604035Y-103132171D01*
X162579925Y-103097737D01*
X162468494Y-102938597D01*
X162301402Y-102771506D01*
X162301396Y-102771501D01*
X162115842Y-102641575D01*
X162072217Y-102586998D01*
X162065023Y-102517500D01*
X162096546Y-102455145D01*
X162115842Y-102438425D01*
X162173950Y-102397737D01*
X162301401Y-102308495D01*
X162468495Y-102141401D01*
X162604035Y-101947830D01*
X162703903Y-101733663D01*
X162765063Y-101505408D01*
X162785659Y-101270000D01*
X162765063Y-101034592D01*
X162703903Y-100806337D01*
X162604035Y-100592171D01*
X162587310Y-100568284D01*
X162468494Y-100398597D01*
X162301402Y-100231506D01*
X162301396Y-100231501D01*
X162115842Y-100101575D01*
X162072217Y-100046998D01*
X162065023Y-99977500D01*
X162096546Y-99915145D01*
X162115842Y-99898425D01*
X162203751Y-99836870D01*
X162301401Y-99768495D01*
X162468495Y-99601401D01*
X162604035Y-99407830D01*
X162703903Y-99193663D01*
X162765063Y-98965408D01*
X162785659Y-98730000D01*
X162765063Y-98494592D01*
X162703903Y-98266337D01*
X162604035Y-98052171D01*
X162564495Y-97995701D01*
X162468494Y-97858597D01*
X162301402Y-97691506D01*
X162301396Y-97691501D01*
X162115842Y-97561575D01*
X162072217Y-97506998D01*
X162065023Y-97437500D01*
X162096546Y-97375145D01*
X162115842Y-97358425D01*
X162138026Y-97342891D01*
X162301401Y-97228495D01*
X162468495Y-97061401D01*
X162604035Y-96867830D01*
X162703903Y-96653663D01*
X162765063Y-96425408D01*
X162785659Y-96190000D01*
X162765063Y-95954592D01*
X162718626Y-95781285D01*
X162703905Y-95726344D01*
X162703904Y-95726343D01*
X162703903Y-95726337D01*
X162604035Y-95512171D01*
X162522121Y-95395184D01*
X162468494Y-95318597D01*
X162301402Y-95151506D01*
X162301396Y-95151501D01*
X162115842Y-95021575D01*
X162072217Y-94966998D01*
X162065023Y-94897500D01*
X162096546Y-94835145D01*
X162115842Y-94818425D01*
X162138026Y-94802891D01*
X162301401Y-94688495D01*
X162468495Y-94521401D01*
X162604035Y-94327830D01*
X162703903Y-94113663D01*
X162765063Y-93885408D01*
X162785659Y-93650000D01*
X162765063Y-93414592D01*
X162703903Y-93186337D01*
X162604035Y-92972171D01*
X162468495Y-92778599D01*
X162468494Y-92778597D01*
X162301402Y-92611506D01*
X162301396Y-92611501D01*
X162115842Y-92481575D01*
X162072217Y-92426998D01*
X162065023Y-92357500D01*
X162096546Y-92295145D01*
X162115842Y-92278425D01*
X162138026Y-92262891D01*
X162301401Y-92148495D01*
X162468495Y-91981401D01*
X162604035Y-91787830D01*
X162703903Y-91573663D01*
X162765063Y-91345408D01*
X162785659Y-91110000D01*
X162765063Y-90874592D01*
X162703903Y-90646337D01*
X162604035Y-90432171D01*
X162468495Y-90238599D01*
X162468494Y-90238597D01*
X162301402Y-90071506D01*
X162301396Y-90071501D01*
X162115842Y-89941575D01*
X162072217Y-89886998D01*
X162065023Y-89817500D01*
X162096546Y-89755145D01*
X162115842Y-89738425D01*
X162138026Y-89722891D01*
X162301401Y-89608495D01*
X162468495Y-89441401D01*
X162604035Y-89247830D01*
X162703903Y-89033663D01*
X162765063Y-88805408D01*
X162785659Y-88570000D01*
X162765063Y-88334592D01*
X162703903Y-88106337D01*
X162604035Y-87892171D01*
X162468495Y-87698599D01*
X162468494Y-87698597D01*
X162301402Y-87531506D01*
X162301396Y-87531501D01*
X162115842Y-87401575D01*
X162072217Y-87346998D01*
X162065023Y-87277500D01*
X162096546Y-87215145D01*
X162115842Y-87198425D01*
X162138026Y-87182891D01*
X162301401Y-87068495D01*
X162468495Y-86901401D01*
X162604035Y-86707830D01*
X162703903Y-86493663D01*
X162765063Y-86265408D01*
X162785659Y-86030000D01*
X162765063Y-85794592D01*
X162703903Y-85566337D01*
X162604035Y-85352171D01*
X162549324Y-85274034D01*
X162468494Y-85158597D01*
X162301402Y-84991506D01*
X162301396Y-84991501D01*
X162115842Y-84861575D01*
X162072217Y-84806998D01*
X162065023Y-84737500D01*
X162096546Y-84675145D01*
X162115842Y-84658425D01*
X162199281Y-84600000D01*
X162301401Y-84528495D01*
X162468495Y-84361401D01*
X162604035Y-84167830D01*
X162703903Y-83953663D01*
X162765063Y-83725408D01*
X162785659Y-83490000D01*
X162765063Y-83254592D01*
X162703903Y-83026337D01*
X162604035Y-82812171D01*
X162600169Y-82806649D01*
X162468494Y-82618597D01*
X162301402Y-82451506D01*
X162301401Y-82451505D01*
X162115405Y-82321269D01*
X162071781Y-82266692D01*
X162064588Y-82197193D01*
X162096110Y-82134839D01*
X162115405Y-82118119D01*
X162301082Y-81988105D01*
X162468105Y-81821082D01*
X162603600Y-81627578D01*
X162703429Y-81413492D01*
X162703432Y-81413486D01*
X162760636Y-81200000D01*
X161863012Y-81200000D01*
X161895925Y-81142993D01*
X161930000Y-81015826D01*
X161930000Y-80884174D01*
X161895925Y-80757007D01*
X161863012Y-80700000D01*
X162760636Y-80700000D01*
X162760635Y-80699999D01*
X162703432Y-80486513D01*
X162703429Y-80486507D01*
X162603600Y-80272422D01*
X162603599Y-80272420D01*
X162468113Y-80078926D01*
X162468108Y-80078920D01*
X162301082Y-79911894D01*
X162114968Y-79781575D01*
X162071344Y-79726998D01*
X162064151Y-79657499D01*
X162095673Y-79595145D01*
X162114968Y-79578425D01*
X162301082Y-79448105D01*
X162468105Y-79281082D01*
X162603600Y-79087578D01*
X162703429Y-78873492D01*
X162703432Y-78873486D01*
X162760636Y-78660000D01*
X161863012Y-78660000D01*
X161895925Y-78602993D01*
X161930000Y-78475826D01*
X161930000Y-78344174D01*
X161895925Y-78217007D01*
X161863012Y-78160000D01*
X162760636Y-78160000D01*
X162760635Y-78159999D01*
X162703432Y-77946513D01*
X162703429Y-77946507D01*
X162603600Y-77732422D01*
X162603599Y-77732420D01*
X162468113Y-77538926D01*
X162468108Y-77538920D01*
X162301078Y-77371890D01*
X162115405Y-77241879D01*
X162071780Y-77187302D01*
X162064588Y-77117804D01*
X162096110Y-77055449D01*
X162115406Y-77038730D01*
X162301401Y-76908495D01*
X162468495Y-76741401D01*
X162604035Y-76547830D01*
X162703903Y-76333663D01*
X162765063Y-76105408D01*
X162785659Y-75870000D01*
X162765063Y-75634592D01*
X162703903Y-75406337D01*
X162604035Y-75192171D01*
X162468495Y-74998599D01*
X162468494Y-74998597D01*
X162301402Y-74831506D01*
X162301395Y-74831501D01*
X162107834Y-74695967D01*
X162107830Y-74695965D01*
X162107828Y-74695964D01*
X161893663Y-74596097D01*
X161893659Y-74596096D01*
X161893655Y-74596094D01*
X161665413Y-74534938D01*
X161665403Y-74534936D01*
X161430001Y-74514341D01*
X161429999Y-74514341D01*
X161194596Y-74534936D01*
X161194586Y-74534938D01*
X160966344Y-74596094D01*
X160966335Y-74596098D01*
X160752171Y-74695964D01*
X160752169Y-74695965D01*
X160558597Y-74831505D01*
X160391505Y-74998597D01*
X160255965Y-75192169D01*
X160255964Y-75192171D01*
X160156098Y-75406335D01*
X160156094Y-75406344D01*
X160094938Y-75634586D01*
X160094936Y-75634596D01*
X160074341Y-75869999D01*
X139920499Y-75869999D01*
X139920499Y-74972128D01*
X139914091Y-74912517D01*
X139863796Y-74777669D01*
X139863795Y-74777668D01*
X139863793Y-74777664D01*
X139777547Y-74662455D01*
X139777544Y-74662452D01*
X139662335Y-74576206D01*
X139662328Y-74576202D01*
X139527482Y-74525908D01*
X139527483Y-74525908D01*
X139467883Y-74519501D01*
X139467881Y-74519500D01*
X139467873Y-74519500D01*
X139467864Y-74519500D01*
X137672129Y-74519500D01*
X137672123Y-74519501D01*
X137612516Y-74525908D01*
X137477671Y-74576202D01*
X137477664Y-74576206D01*
X137362455Y-74662452D01*
X137362452Y-74662455D01*
X137276206Y-74777664D01*
X137276202Y-74777671D01*
X137225908Y-74912517D01*
X137219501Y-74972116D01*
X137219501Y-74972123D01*
X137219500Y-74972135D01*
X137219500Y-76767870D01*
X137219501Y-76767876D01*
X137225908Y-76827483D01*
X137276202Y-76962328D01*
X137276206Y-76962335D01*
X137362452Y-77077544D01*
X137362455Y-77077547D01*
X137477664Y-77163793D01*
X137477671Y-77163797D01*
X137609081Y-77212810D01*
X137665015Y-77254681D01*
X137689432Y-77320145D01*
X137674580Y-77388418D01*
X137653430Y-77416673D01*
X137531503Y-77538600D01*
X137395965Y-77732169D01*
X137395964Y-77732171D01*
X137296098Y-77946335D01*
X137296094Y-77946344D01*
X137234938Y-78174586D01*
X137234936Y-78174596D01*
X137214341Y-78409999D01*
X136800500Y-78409999D01*
X136800500Y-74506961D01*
X136801280Y-74493077D01*
X136801280Y-74493076D01*
X136811459Y-74402731D01*
X136817635Y-74375670D01*
X136845353Y-74296456D01*
X136857396Y-74271450D01*
X136902046Y-74200389D01*
X136919351Y-74178690D01*
X136978690Y-74119351D01*
X137000389Y-74102046D01*
X137071450Y-74057396D01*
X137096456Y-74045353D01*
X137175670Y-74017635D01*
X137202733Y-74011459D01*
X137265419Y-74004396D01*
X137293079Y-74001280D01*
X137306962Y-74000500D01*
X137365892Y-74000500D01*
X162634108Y-74000500D01*
X162693038Y-74000500D01*
X162706922Y-74001280D01*
G37*
%TD.AperFunction*%
%TD*%
M02*
