%TF.GenerationSoftware,KiCad,Pcbnew,8.0.4*%
%TF.CreationDate,2025-08-18T19:06:46+02:00*%
%TF.ProjectId,stm32l432kcu6_eval,73746d33-326c-4343-9332-6b6375365f65,rev?*%
%TF.SameCoordinates,Original*%
%TF.FileFunction,Paste,Top*%
%TF.FilePolarity,Positive*%
%FSLAX46Y46*%
G04 Gerber Fmt 4.6, Leading zero omitted, Abs format (unit mm)*
G04 Created by KiCad (PCBNEW 8.0.4) date 2025-08-18 19:06:46*
%MOMM*%
%LPD*%
G01*
G04 APERTURE LIST*
G04 Aperture macros list*
%AMRoundRect*
0 Rectangle with rounded corners*
0 $1 Rounding radius*
0 $2 $3 $4 $5 $6 $7 $8 $9 X,Y pos of 4 corners*
0 Add a 4 corners polygon primitive as box body*
4,1,4,$2,$3,$4,$5,$6,$7,$8,$9,$2,$3,0*
0 Add four circle primitives for the rounded corners*
1,1,$1+$1,$2,$3*
1,1,$1+$1,$4,$5*
1,1,$1+$1,$6,$7*
1,1,$1+$1,$8,$9*
0 Add four rect primitives between the rounded corners*
20,1,$1+$1,$2,$3,$4,$5,0*
20,1,$1+$1,$4,$5,$6,$7,0*
20,1,$1+$1,$6,$7,$8,$9,0*
20,1,$1+$1,$8,$9,$2,$3,0*%
%AMRotRect*
0 Rectangle, with rotation*
0 The origin of the aperture is its center*
0 $1 length*
0 $2 width*
0 $3 Rotation angle, in degrees counterclockwise*
0 Add horizontal line*
21,1,$1,$2,0,0,$3*%
%AMFreePoly0*
4,1,19,0.301505,0.312223,0.331247,0.260709,0.332568,0.245609,0.332568,-0.173569,0.312223,-0.229465,0.307098,-0.235058,0.235058,-0.307098,0.181148,-0.332237,0.173569,-0.332568,-0.245609,-0.332568,-0.301505,-0.312223,-0.331247,-0.260709,-0.332568,-0.245609,-0.332568,0.245609,-0.312223,0.301505,-0.260709,0.331247,-0.245609,0.332568,0.245609,0.332568,0.301505,0.312223,0.301505,0.312223,
$1*%
%AMFreePoly1*
4,1,21,0.243681,0.385573,0.248503,0.381155,0.310609,0.319048,0.332283,0.272571,0.332568,0.266036,0.332568,-0.266036,0.315028,-0.314226,0.310609,-0.319048,0.248503,-0.381155,0.202025,-0.402828,0.195491,-0.403113,-0.257598,-0.403113,-0.305788,-0.385573,-0.331429,-0.341161,-0.332568,-0.328143,-0.332568,0.328143,-0.315028,0.376333,-0.270616,0.401974,-0.257598,0.403113,0.195491,0.403113,
0.243681,0.385573,0.243681,0.385573,$1*%
%AMFreePoly2*
4,1,19,0.229465,0.312223,0.235058,0.307098,0.307098,0.235058,0.332237,0.181148,0.332568,0.173569,0.332568,-0.245609,0.312223,-0.301505,0.260709,-0.331247,0.245609,-0.332568,-0.245609,-0.332568,-0.301505,-0.312223,-0.331247,-0.260709,-0.332568,-0.245609,-0.332568,0.245609,-0.312223,0.301505,-0.260709,0.331247,-0.245609,0.332568,0.173569,0.332568,0.229465,0.312223,0.229465,0.312223,
$1*%
%AMFreePoly3*
4,1,21,0.376333,0.315028,0.401974,0.270616,0.403113,0.257598,0.403113,-0.195491,0.385573,-0.243681,0.381155,-0.248503,0.319048,-0.310609,0.272571,-0.332283,0.266036,-0.332568,-0.266036,-0.332568,-0.314226,-0.315028,-0.319048,-0.310609,-0.381155,-0.248503,-0.402828,-0.202025,-0.403113,-0.195491,-0.403113,0.257598,-0.385573,0.305788,-0.341161,0.331429,-0.328143,0.332568,0.328143,0.332568,
0.376333,0.315028,0.376333,0.315028,$1*%
%AMFreePoly4*
4,1,21,0.314226,0.315028,0.319048,0.310609,0.381155,0.248503,0.402828,0.202025,0.403113,0.195491,0.403113,-0.257598,0.385573,-0.305788,0.341161,-0.331429,0.328143,-0.332568,-0.328143,-0.332568,-0.376333,-0.315028,-0.401974,-0.270616,-0.403113,-0.257598,-0.403113,0.195491,-0.385573,0.243681,-0.381155,0.248503,-0.319048,0.310609,-0.272571,0.332283,-0.266036,0.332568,0.266036,0.332568,
0.314226,0.315028,0.314226,0.315028,$1*%
%AMFreePoly5*
4,1,19,0.301505,0.312223,0.331247,0.260709,0.332568,0.245609,0.332568,-0.245609,0.312223,-0.301505,0.260709,-0.331247,0.245609,-0.332568,-0.173569,-0.332568,-0.229465,-0.312223,-0.235058,-0.307098,-0.307098,-0.235058,-0.332237,-0.181148,-0.332568,-0.173569,-0.332568,0.245609,-0.312223,0.301505,-0.260709,0.331247,-0.245609,0.332568,0.245609,0.332568,0.301505,0.312223,0.301505,0.312223,
$1*%
%AMFreePoly6*
4,1,21,0.305788,0.385573,0.331429,0.341161,0.332568,0.328143,0.332568,-0.328143,0.315028,-0.376333,0.270616,-0.401974,0.257598,-0.403113,-0.195491,-0.403113,-0.243681,-0.385573,-0.248503,-0.381155,-0.310609,-0.319048,-0.332283,-0.272571,-0.332568,-0.266036,-0.332568,0.266036,-0.315028,0.314226,-0.310609,0.319048,-0.248503,0.381155,-0.202025,0.402828,-0.195491,0.403113,0.257598,0.403113,
0.305788,0.385573,0.305788,0.385573,$1*%
%AMFreePoly7*
4,1,19,0.301505,0.312223,0.331247,0.260709,0.332568,0.245609,0.332568,-0.245609,0.312223,-0.301505,0.260709,-0.331247,0.245609,-0.332568,-0.245609,-0.332568,-0.301505,-0.312223,-0.331247,-0.260709,-0.332568,-0.245609,-0.332568,0.173569,-0.312223,0.229465,-0.307098,0.235058,-0.235058,0.307098,-0.181148,0.332237,-0.173569,0.332568,0.245609,0.332568,0.301505,0.312223,0.301505,0.312223,
$1*%
G04 Aperture macros list end*
%ADD10RotRect,1.500000X1.700000X135.000000*%
%ADD11R,0.400000X1.350000*%
%ADD12R,1.500000X1.900000*%
%ADD13R,1.700000X0.800000*%
%ADD14RoundRect,0.225000X0.225000X0.250000X-0.225000X0.250000X-0.225000X-0.250000X0.225000X-0.250000X0*%
%ADD15RoundRect,0.225000X-0.225000X-0.250000X0.225000X-0.250000X0.225000X0.250000X-0.225000X0.250000X0*%
%ADD16RoundRect,0.225000X0.017678X-0.335876X0.335876X-0.017678X-0.017678X0.335876X-0.335876X0.017678X0*%
%ADD17RoundRect,0.200000X-0.200000X-0.275000X0.200000X-0.275000X0.200000X0.275000X-0.200000X0.275000X0*%
%ADD18RoundRect,0.200000X0.200000X0.275000X-0.200000X0.275000X-0.200000X-0.275000X0.200000X-0.275000X0*%
%ADD19RoundRect,0.218750X-0.218750X-0.256250X0.218750X-0.256250X0.218750X0.256250X-0.218750X0.256250X0*%
%ADD20FreePoly0,45.000000*%
%ADD21FreePoly1,45.000000*%
%ADD22FreePoly2,45.000000*%
%ADD23FreePoly3,45.000000*%
%ADD24RoundRect,0.201557X0.000000X-0.285043X0.285043X0.000000X0.000000X0.285043X-0.285043X0.000000X0*%
%ADD25FreePoly4,45.000000*%
%ADD26FreePoly5,45.000000*%
%ADD27FreePoly6,45.000000*%
%ADD28FreePoly7,45.000000*%
%ADD29RoundRect,0.062500X-0.176777X-0.265165X0.265165X0.176777X0.176777X0.265165X-0.265165X-0.176777X0*%
%ADD30RoundRect,0.062500X0.176777X-0.265165X0.265165X-0.176777X-0.176777X0.265165X-0.265165X0.176777X0*%
%ADD31RoundRect,0.140000X-0.021213X0.219203X-0.219203X0.021213X0.021213X-0.219203X0.219203X-0.021213X0*%
%ADD32RoundRect,0.218750X0.218750X0.256250X-0.218750X0.256250X-0.218750X-0.256250X0.218750X-0.256250X0*%
%ADD33RotRect,1.000000X1.800000X315.000000*%
%ADD34RoundRect,0.150000X-0.150000X0.512500X-0.150000X-0.512500X0.150000X-0.512500X0.150000X0.512500X0*%
G04 APERTURE END LIST*
D10*
%TO.C,Y1*%
X147279792Y-109875843D03*
X149075843Y-108079792D03*
X147520208Y-106524157D03*
X145724157Y-108320208D03*
%TD*%
D11*
%TO.C,J1*%
X148700000Y-122337500D03*
X149350000Y-122337500D03*
X150000000Y-122337500D03*
X150650000Y-122337500D03*
X151300000Y-122337500D03*
D12*
X149000000Y-125037500D03*
X151000000Y-125037500D03*
%TD*%
D13*
%TO.C,S2*%
X147300000Y-87399999D03*
X147300000Y-90800001D03*
%TD*%
%TO.C,S3*%
X156600000Y-117175000D03*
X156600000Y-113775000D03*
%TD*%
D14*
%TO.C,C11*%
X156575000Y-111640000D03*
X155025000Y-111640000D03*
%TD*%
D15*
%TO.C,C9*%
X142700000Y-93000000D03*
X144250000Y-93000000D03*
%TD*%
D16*
%TO.C,C3*%
X148851992Y-110848008D03*
X149948008Y-109751992D03*
%TD*%
D17*
%TO.C,R7*%
X147275000Y-93000000D03*
X148925000Y-93000000D03*
%TD*%
D15*
%TO.C,C2*%
X142825000Y-112000000D03*
X144375000Y-112000000D03*
%TD*%
D16*
%TO.C,C8*%
X140551992Y-99948008D03*
X141648008Y-98851992D03*
%TD*%
D18*
%TO.C,R3*%
X157012500Y-122481250D03*
X155362500Y-122481250D03*
%TD*%
D19*
%TO.C,FB1*%
X143187500Y-119600000D03*
X144762500Y-119600000D03*
%TD*%
D20*
%TO.C,U3*%
X148002423Y-100000000D03*
D21*
X148647658Y-100645235D03*
X149354765Y-101352342D03*
D22*
X150000000Y-101997577D03*
D23*
X148647658Y-99354765D03*
D24*
X149292893Y-100000000D03*
X150000000Y-100707107D03*
D25*
X150645235Y-101352342D03*
D23*
X149354765Y-98647658D03*
D24*
X150000000Y-99292893D03*
X150707107Y-100000000D03*
D25*
X151352342Y-100645235D03*
D26*
X150000000Y-98002423D03*
D27*
X150645235Y-98647658D03*
X151352342Y-99354765D03*
D28*
X151997577Y-100000000D03*
D29*
X147012474Y-100512652D03*
X147366027Y-100866206D03*
X147719581Y-101219759D03*
X148073134Y-101573313D03*
X148426687Y-101926866D03*
X148780241Y-102280419D03*
X149133794Y-102633973D03*
X149487348Y-102987526D03*
D30*
X150512652Y-102987526D03*
X150866206Y-102633973D03*
X151219759Y-102280419D03*
X151573313Y-101926866D03*
X151926866Y-101573313D03*
X152280419Y-101219759D03*
X152633973Y-100866206D03*
X152987526Y-100512652D03*
D29*
X152987526Y-99487348D03*
X152633973Y-99133794D03*
X152280419Y-98780241D03*
X151926866Y-98426687D03*
X151573313Y-98073134D03*
X151219759Y-97719581D03*
X150866206Y-97366027D03*
X150512652Y-97012474D03*
D30*
X149487348Y-97012474D03*
X149133794Y-97366027D03*
X148780241Y-97719581D03*
X148426687Y-98073134D03*
X148073134Y-98426687D03*
X147719581Y-98780241D03*
X147366027Y-99133794D03*
X147012474Y-99487348D03*
%TD*%
D18*
%TO.C,R5*%
X154212500Y-90100000D03*
X152562500Y-90100000D03*
%TD*%
D17*
%TO.C,R1*%
X155362500Y-123950000D03*
X157012500Y-123950000D03*
%TD*%
D31*
%TO.C,C4*%
X144639411Y-104760589D03*
X143960589Y-105439411D03*
%TD*%
D19*
%TO.C,D2*%
X152600000Y-87100000D03*
X154175000Y-87100000D03*
%TD*%
D31*
%TO.C,C5*%
X142839411Y-103060589D03*
X142160589Y-103739411D03*
%TD*%
D17*
%TO.C,R8*%
X154975000Y-110200000D03*
X156625000Y-110200000D03*
%TD*%
D14*
%TO.C,C1*%
X144750000Y-118100000D03*
X143200000Y-118100000D03*
%TD*%
D32*
%TO.C,F1*%
X144775000Y-121100000D03*
X143200000Y-121100000D03*
%TD*%
D17*
%TO.C,R4*%
X155362500Y-120981250D03*
X157012500Y-120981250D03*
%TD*%
%TO.C,R6*%
X152562500Y-88600000D03*
X154212500Y-88600000D03*
%TD*%
D16*
%TO.C,C7*%
X142551992Y-99948008D03*
X143648008Y-98851992D03*
%TD*%
D13*
%TO.C,S1*%
X142700000Y-87374999D03*
X142700000Y-90775001D03*
%TD*%
D33*
%TO.C,Y2*%
X143916117Y-102016117D03*
X145683883Y-103783883D03*
%TD*%
D16*
%TO.C,C6*%
X144551992Y-99948008D03*
X145648008Y-98851992D03*
%TD*%
D34*
%TO.C,U1*%
X150599999Y-116362500D03*
X149650000Y-116362500D03*
X148700001Y-116362500D03*
X148700001Y-118637500D03*
X149650000Y-118637500D03*
X150599999Y-118637500D03*
%TD*%
D15*
%TO.C,C10*%
X147325000Y-94500000D03*
X148875000Y-94500000D03*
%TD*%
D34*
%TO.C,U2*%
X144550000Y-113762500D03*
X142650000Y-113762500D03*
X143600000Y-116037500D03*
%TD*%
D17*
%TO.C,R2*%
X155362500Y-125450000D03*
X157012500Y-125450000D03*
%TD*%
D19*
%TO.C,D1*%
X155400000Y-119481250D03*
X156975000Y-119481250D03*
%TD*%
M02*
