%TF.GenerationSoftware,KiCad,Pcbnew,8.0.4*%
%TF.CreationDate,2025-08-17T17:27:13+02:00*%
%TF.ProjectId,stm32l432kcu6_eval,73746d33-326c-4343-9332-6b6375365f65,rev?*%
%TF.SameCoordinates,Original*%
%TF.FileFunction,Drillmap*%
%TF.FilePolarity,Positive*%
%FSLAX45Y45*%
G04 Gerber Fmt 4.5, Leading zero omitted, Abs format (unit mm)*
G04 Created by KiCad (PCBNEW 8.0.4) date 2025-08-17 17:27:13*
%MOMM*%
%LPD*%
G01*
G04 APERTURE LIST*
%ADD10C,0.050000*%
%ADD11C,0.200000*%
G04 APERTURE END LIST*
D10*
X13630000Y-7450000D02*
G75*
G02*
X13730000Y-7350000I100000J0D01*
G01*
X16370000Y-7450000D02*
X16370000Y-12550000D01*
X16270000Y-7350000D02*
G75*
G02*
X16370000Y-7450000I0J-100000D01*
G01*
X16370000Y-12550000D02*
G75*
G02*
X16270000Y-12650000I-100000J0D01*
G01*
X13730000Y-12650000D02*
G75*
G02*
X13630000Y-12550000I0J100000D01*
G01*
X16270000Y-12650000D02*
X13730000Y-12650000D01*
X13630000Y-12550000D02*
X13630000Y-7450000D01*
X13730000Y-7350000D02*
X16270000Y-7350000D01*
D11*
X13888277Y-12963984D02*
X13888277Y-12763984D01*
X13888277Y-12763984D02*
X13935896Y-12763984D01*
X13935896Y-12763984D02*
X13964467Y-12773508D01*
X13964467Y-12773508D02*
X13983515Y-12792555D01*
X13983515Y-12792555D02*
X13993039Y-12811603D01*
X13993039Y-12811603D02*
X14002562Y-12849698D01*
X14002562Y-12849698D02*
X14002562Y-12878269D01*
X14002562Y-12878269D02*
X13993039Y-12916365D01*
X13993039Y-12916365D02*
X13983515Y-12935412D01*
X13983515Y-12935412D02*
X13964467Y-12954460D01*
X13964467Y-12954460D02*
X13935896Y-12963984D01*
X13935896Y-12963984D02*
X13888277Y-12963984D01*
X14088277Y-12963984D02*
X14088277Y-12830650D01*
X14088277Y-12868746D02*
X14097801Y-12849698D01*
X14097801Y-12849698D02*
X14107324Y-12840174D01*
X14107324Y-12840174D02*
X14126372Y-12830650D01*
X14126372Y-12830650D02*
X14145420Y-12830650D01*
X14212086Y-12963984D02*
X14212086Y-12830650D01*
X14212086Y-12763984D02*
X14202562Y-12773508D01*
X14202562Y-12773508D02*
X14212086Y-12783031D01*
X14212086Y-12783031D02*
X14221610Y-12773508D01*
X14221610Y-12773508D02*
X14212086Y-12763984D01*
X14212086Y-12763984D02*
X14212086Y-12783031D01*
X14335896Y-12963984D02*
X14316848Y-12954460D01*
X14316848Y-12954460D02*
X14307324Y-12935412D01*
X14307324Y-12935412D02*
X14307324Y-12763984D01*
X14440658Y-12963984D02*
X14421610Y-12954460D01*
X14421610Y-12954460D02*
X14412086Y-12935412D01*
X14412086Y-12935412D02*
X14412086Y-12763984D01*
X14669229Y-12963984D02*
X14669229Y-12763984D01*
X14669229Y-12763984D02*
X14735896Y-12906841D01*
X14735896Y-12906841D02*
X14802562Y-12763984D01*
X14802562Y-12763984D02*
X14802562Y-12963984D01*
X14983515Y-12963984D02*
X14983515Y-12859222D01*
X14983515Y-12859222D02*
X14973991Y-12840174D01*
X14973991Y-12840174D02*
X14954943Y-12830650D01*
X14954943Y-12830650D02*
X14916848Y-12830650D01*
X14916848Y-12830650D02*
X14897801Y-12840174D01*
X14983515Y-12954460D02*
X14964467Y-12963984D01*
X14964467Y-12963984D02*
X14916848Y-12963984D01*
X14916848Y-12963984D02*
X14897801Y-12954460D01*
X14897801Y-12954460D02*
X14888277Y-12935412D01*
X14888277Y-12935412D02*
X14888277Y-12916365D01*
X14888277Y-12916365D02*
X14897801Y-12897317D01*
X14897801Y-12897317D02*
X14916848Y-12887793D01*
X14916848Y-12887793D02*
X14964467Y-12887793D01*
X14964467Y-12887793D02*
X14983515Y-12878269D01*
X15078753Y-12830650D02*
X15078753Y-13030650D01*
X15078753Y-12840174D02*
X15097801Y-12830650D01*
X15097801Y-12830650D02*
X15135896Y-12830650D01*
X15135896Y-12830650D02*
X15154943Y-12840174D01*
X15154943Y-12840174D02*
X15164467Y-12849698D01*
X15164467Y-12849698D02*
X15173991Y-12868746D01*
X15173991Y-12868746D02*
X15173991Y-12925888D01*
X15173991Y-12925888D02*
X15164467Y-12944936D01*
X15164467Y-12944936D02*
X15154943Y-12954460D01*
X15154943Y-12954460D02*
X15135896Y-12963984D01*
X15135896Y-12963984D02*
X15097801Y-12963984D01*
X15097801Y-12963984D02*
X15078753Y-12954460D01*
X15259705Y-12944936D02*
X15269229Y-12954460D01*
X15269229Y-12954460D02*
X15259705Y-12963984D01*
X15259705Y-12963984D02*
X15250182Y-12954460D01*
X15250182Y-12954460D02*
X15259705Y-12944936D01*
X15259705Y-12944936D02*
X15259705Y-12963984D01*
X15259705Y-12840174D02*
X15269229Y-12849698D01*
X15269229Y-12849698D02*
X15259705Y-12859222D01*
X15259705Y-12859222D02*
X15250182Y-12849698D01*
X15250182Y-12849698D02*
X15259705Y-12840174D01*
X15259705Y-12840174D02*
X15259705Y-12859222D01*
M02*
