%TF.GenerationSoftware,KiCad,Pcbnew,8.0.4*%
%TF.CreationDate,2025-08-19T18:18:36+02:00*%
%TF.ProjectId,stm32l432kcu6_eval,73746d33-326c-4343-9332-6b6375365f65,rev?*%
%TF.SameCoordinates,Original*%
%TF.FileFunction,Soldermask,Bot*%
%TF.FilePolarity,Negative*%
%FSLAX46Y46*%
G04 Gerber Fmt 4.6, Leading zero omitted, Abs format (unit mm)*
G04 Created by KiCad (PCBNEW 8.0.4) date 2025-08-19 18:18:36*
%MOMM*%
%LPD*%
G01*
G04 APERTURE LIST*
%ADD10O,1.200000X1.900000*%
%ADD11C,1.450000*%
%ADD12R,1.700000X1.700000*%
%ADD13O,1.700000X1.700000*%
G04 APERTURE END LIST*
D10*
%TO.C,J1*%
X146500000Y-125037500D03*
D11*
X147500000Y-122337500D03*
X152500000Y-122337500D03*
D10*
X153500000Y-125037500D03*
%TD*%
D12*
%TO.C,J4*%
X146190000Y-84100000D03*
D13*
X148730000Y-84100000D03*
X151270000Y-84100000D03*
X153810000Y-84100000D03*
%TD*%
D12*
%TO.C,J2*%
X138570000Y-75870000D03*
D13*
X138570000Y-78410000D03*
X138570000Y-80950000D03*
X138570000Y-83490000D03*
X138570000Y-86030000D03*
X138570000Y-88570000D03*
X138570000Y-91110000D03*
X138570000Y-93650000D03*
X138570000Y-96190000D03*
X138570000Y-98730000D03*
X138570000Y-101270000D03*
X138570000Y-103810000D03*
X138570000Y-106350000D03*
X138570000Y-108890000D03*
X138570000Y-111430000D03*
X138570000Y-113970000D03*
X138570000Y-116510000D03*
X138570000Y-119050000D03*
X138570000Y-121590000D03*
X138570000Y-124130000D03*
%TD*%
D12*
%TO.C,J3*%
X161430000Y-124130000D03*
D13*
X161430000Y-121590000D03*
X161430000Y-119050000D03*
X161430000Y-116510000D03*
X161430000Y-113970000D03*
X161430000Y-111430000D03*
X161430000Y-108890000D03*
X161430000Y-106350000D03*
X161430000Y-103810000D03*
X161430000Y-101270000D03*
X161430000Y-98730000D03*
X161430000Y-96190000D03*
X161430000Y-93650000D03*
X161430000Y-91110000D03*
X161430000Y-88570000D03*
X161430000Y-86030000D03*
X161430000Y-83490000D03*
X161430000Y-80950000D03*
X161430000Y-78410000D03*
X161430000Y-75870000D03*
%TD*%
M02*
