%TF.GenerationSoftware,KiCad,Pcbnew,8.0.4*%
%TF.CreationDate,2025-08-18T19:06:46+02:00*%
%TF.ProjectId,stm32l432kcu6_eval,73746d33-326c-4343-9332-6b6375365f65,rev?*%
%TF.SameCoordinates,Original*%
%TF.FileFunction,Plated,1,4,PTH,Mixed*%
%TF.FilePolarity,Positive*%
%FSLAX46Y46*%
G04 Gerber Fmt 4.6, Leading zero omitted, Abs format (unit mm)*
G04 Created by KiCad (PCBNEW 8.0.4) date 2025-08-18 19:06:46*
%MOMM*%
%LPD*%
G01*
G04 APERTURE LIST*
%TA.AperFunction,ComponentDrill*%
%ADD10C,0.200000*%
%TD*%
%TA.AperFunction,ViaDrill*%
%ADD11C,0.300000*%
%TD*%
%TA.AperFunction,ViaDrill*%
%ADD12C,0.400000*%
%TD*%
G04 aperture for slot hole*
%TA.AperFunction,ComponentDrill*%
%ADD13C,0.600000*%
%TD*%
%TA.AperFunction,ComponentDrill*%
%ADD14C,0.850000*%
%TD*%
%TA.AperFunction,ComponentDrill*%
%ADD15C,1.000000*%
%TD*%
G04 APERTURE END LIST*
D10*
%TO.C,U3*%
X148585786Y-100000000D03*
X149292893Y-99292893D03*
X149292893Y-100707107D03*
X150000000Y-98585786D03*
X150000000Y-100000000D03*
X150000000Y-101414214D03*
X150707107Y-99292893D03*
X150707107Y-100707107D03*
X151414214Y-100000000D03*
%TD*%
D11*
X141224563Y-75141750D03*
X141224563Y-77681750D03*
X141224563Y-80221750D03*
X141224563Y-82761750D03*
X141224563Y-92921750D03*
X141224563Y-115781750D03*
X141300000Y-94500000D03*
X141500000Y-104400000D03*
X142700000Y-86474999D03*
X142700000Y-94100000D03*
X143300000Y-95700000D03*
X143400000Y-106100000D03*
X143764563Y-75141750D03*
X143764563Y-77681750D03*
X143764563Y-80221750D03*
X143764563Y-82761750D03*
X144300000Y-91700000D03*
X146304563Y-75141750D03*
X146304563Y-77681750D03*
X146304563Y-80221750D03*
X146304563Y-115781750D03*
X146800000Y-96100000D03*
X147075000Y-102900000D03*
X147300000Y-86500000D03*
X147300000Y-113000000D03*
X147575000Y-103600000D03*
X147600000Y-95700000D03*
X148399997Y-96100000D03*
X148500000Y-112000000D03*
X148700001Y-114700001D03*
X148800000Y-104600000D03*
X148844563Y-75141750D03*
X148844563Y-77681750D03*
X148844563Y-80221750D03*
X148900000Y-91800000D03*
X149200000Y-96100000D03*
X149650000Y-115100000D03*
X150000000Y-104700000D03*
X150100000Y-93800000D03*
X150600000Y-114700000D03*
X150700000Y-106200000D03*
X150800000Y-108500000D03*
X151141542Y-95700000D03*
X151384563Y-75141750D03*
X151384563Y-77681750D03*
X151384563Y-80221750D03*
X151800000Y-117000000D03*
X152400000Y-106300000D03*
X152600000Y-85900000D03*
X152700000Y-91600000D03*
X152700000Y-108000000D03*
X153400000Y-95700000D03*
X153900000Y-101200000D03*
X153900000Y-112300000D03*
X153924563Y-75141750D03*
X153924563Y-77681750D03*
X153924563Y-80221750D03*
X153924563Y-115781750D03*
X154400000Y-105200000D03*
X154500000Y-96025000D03*
X154500000Y-119481250D03*
X154600000Y-99487348D03*
X154600000Y-100512652D03*
X156464563Y-75141750D03*
X156464563Y-77681750D03*
X156464563Y-80221750D03*
X156464563Y-82761750D03*
X156464563Y-85301750D03*
X156600000Y-118000000D03*
X157400000Y-107900000D03*
X158200000Y-96000000D03*
X158300000Y-121700000D03*
X158300000Y-123300000D03*
X158300000Y-124700000D03*
X158500000Y-112600000D03*
X158700000Y-104900000D03*
X159000000Y-92700000D03*
X159004563Y-75141750D03*
X159004563Y-77681750D03*
X159004563Y-80221750D03*
X159004563Y-82761750D03*
D12*
X141300000Y-112000000D03*
X141300000Y-113600000D03*
X141500000Y-100200000D03*
X142100000Y-117600000D03*
X142600000Y-98500000D03*
X142700000Y-110600000D03*
X144500000Y-110600000D03*
X144600000Y-98600000D03*
X145900000Y-112000000D03*
X145900000Y-113600000D03*
X152000000Y-118700000D03*
X153000000Y-119400000D03*
D13*
%TO.C,J1*%
X146500000Y-124687500D02*
X146500000Y-125387500D01*
X153500000Y-125387500D02*
X153500000Y-124687500D01*
D14*
X147500000Y-122337500D03*
X152500000Y-122337500D03*
D15*
%TO.C,J2*%
X138570000Y-75870000D03*
X138570000Y-78410000D03*
X138570000Y-80950000D03*
X138570000Y-83490000D03*
X138570000Y-86030000D03*
X138570000Y-88570000D03*
X138570000Y-91110000D03*
X138570000Y-93650000D03*
X138570000Y-96190000D03*
X138570000Y-98730000D03*
X138570000Y-101270000D03*
X138570000Y-103810000D03*
X138570000Y-106350000D03*
X138570000Y-108890000D03*
X138570000Y-111430000D03*
X138570000Y-113970000D03*
X138570000Y-116510000D03*
X138570000Y-119050000D03*
X138570000Y-121590000D03*
X138570000Y-124130000D03*
%TO.C,J4*%
X146190000Y-84100000D03*
X148730000Y-84100000D03*
X151270000Y-84100000D03*
X153810000Y-84100000D03*
%TO.C,J3*%
X161430000Y-75870000D03*
X161430000Y-78410000D03*
X161430000Y-80950000D03*
X161430000Y-83490000D03*
X161430000Y-86030000D03*
X161430000Y-88570000D03*
X161430000Y-91110000D03*
X161430000Y-93650000D03*
X161430000Y-96190000D03*
X161430000Y-98730000D03*
X161430000Y-101270000D03*
X161430000Y-103810000D03*
X161430000Y-106350000D03*
X161430000Y-108890000D03*
X161430000Y-111430000D03*
X161430000Y-113970000D03*
X161430000Y-116510000D03*
X161430000Y-119050000D03*
X161430000Y-121590000D03*
X161430000Y-124130000D03*
M02*
