%TF.GenerationSoftware,KiCad,Pcbnew,8.0.4*%
%TF.CreationDate,2025-08-17T17:27:16+02:00*%
%TF.ProjectId,stm32l432kcu6_eval,73746d33-326c-4343-9332-6b6375365f65,rev?*%
%TF.SameCoordinates,Original*%
%TF.FileFunction,Copper,L3,Inr*%
%TF.FilePolarity,Positive*%
%FSLAX46Y46*%
G04 Gerber Fmt 4.6, Leading zero omitted, Abs format (unit mm)*
G04 Created by KiCad (PCBNEW 8.0.4) date 2025-08-17 17:27:16*
%MOMM*%
%LPD*%
G01*
G04 APERTURE LIST*
%TA.AperFunction,ComponentPad*%
%ADD10O,1.200000X1.900000*%
%TD*%
%TA.AperFunction,ComponentPad*%
%ADD11C,1.450000*%
%TD*%
%TA.AperFunction,HeatsinkPad*%
%ADD12C,0.500000*%
%TD*%
%TA.AperFunction,ComponentPad*%
%ADD13R,1.700000X1.700000*%
%TD*%
%TA.AperFunction,ComponentPad*%
%ADD14O,1.700000X1.700000*%
%TD*%
%TA.AperFunction,ViaPad*%
%ADD15C,0.600000*%
%TD*%
%TA.AperFunction,ViaPad*%
%ADD16C,0.800000*%
%TD*%
G04 APERTURE END LIST*
D10*
%TO.N,GND*%
%TO.C,J1*%
X146500000Y-125037500D03*
D11*
X147500000Y-122337500D03*
X152500000Y-122337500D03*
D10*
X153500000Y-125037500D03*
%TD*%
D12*
%TO.N,GND*%
%TO.C,U3*%
X148585786Y-100000000D03*
X149292893Y-100707107D03*
X150000000Y-101414214D03*
X149292893Y-99292893D03*
X150000000Y-100000000D03*
X150707107Y-100707107D03*
X150000000Y-98585786D03*
X150707107Y-99292893D03*
X151414214Y-100000000D03*
%TD*%
D13*
%TO.N,GND*%
%TO.C,J4*%
X146190000Y-84100000D03*
D14*
%TO.N,/connectors_gpios_2_5_4/PA14*%
X148730000Y-84100000D03*
%TO.N,/connectors_gpios_2_5_4/PA13*%
X151270000Y-84100000D03*
%TO.N,+3V3*%
X153810000Y-84100000D03*
%TD*%
D13*
%TO.N,+3V3*%
%TO.C,J2*%
X138570000Y-75870000D03*
D14*
X138570000Y-78410000D03*
%TO.N,GND*%
X138570000Y-80950000D03*
%TO.N,/connectors_gpios_2_5_4/PA15*%
X138570000Y-83490000D03*
%TO.N,/connectors_gpios_2_5_4/PB3*%
X138570000Y-86030000D03*
%TO.N,/connectors_gpios_2_5_4/PB4*%
X138570000Y-88570000D03*
%TO.N,/connectors_gpios_2_5_4/PB5*%
X138570000Y-91110000D03*
%TO.N,/connectors_gpios_2_5_4/PB6*%
X138570000Y-93650000D03*
%TO.N,/connectors_gpios_2_5_4/PB7*%
X138570000Y-96190000D03*
%TO.N,/connectors_gpios_2_5_4/PH3(BOOT0)*%
X138570000Y-98730000D03*
%TO.N,/connectors_gpios_2_5_4/PC14(OSC_IN)*%
X138570000Y-101270000D03*
%TO.N,/connectors_gpios_2_5_4/PC15(OSC_OUT)*%
X138570000Y-103810000D03*
%TO.N,/connectors_gpios_2_5_4/NRST*%
X138570000Y-106350000D03*
%TO.N,/connectors_gpios_2_5_4/PA0*%
X138570000Y-108890000D03*
%TO.N,/connectors_gpios_2_5_4/PA1*%
X138570000Y-111430000D03*
%TO.N,/connectors_gpios_2_5_4/PA2*%
X138570000Y-113970000D03*
%TO.N,GND*%
X138570000Y-116510000D03*
%TO.N,+3V3*%
X138570000Y-119050000D03*
%TO.N,+5V_USB*%
X138570000Y-121590000D03*
X138570000Y-124130000D03*
%TD*%
D13*
%TO.N,+3V3*%
%TO.C,J3*%
X161430000Y-124130000D03*
D14*
%TO.N,GND*%
X161430000Y-121590000D03*
X161430000Y-119050000D03*
%TO.N,/connectors_gpios_2_5_4/PA3*%
X161430000Y-116510000D03*
%TO.N,/connectors_gpios_2_5_4/PA4*%
X161430000Y-113970000D03*
%TO.N,/connectors_gpios_2_5_4/PA5*%
X161430000Y-111430000D03*
%TO.N,/connectors_gpios_2_5_4/PA6*%
X161430000Y-108890000D03*
%TO.N,/connectors_gpios_2_5_4/PA7*%
X161430000Y-106350000D03*
%TO.N,/connectors_gpios_2_5_4/PB0*%
X161430000Y-103810000D03*
%TO.N,/connectors_gpios_2_5_4/PB1*%
X161430000Y-101270000D03*
%TO.N,/connectors_gpios_2_5_4/PA8*%
X161430000Y-98730000D03*
%TO.N,/connectors_gpios_2_5_4/PA9*%
X161430000Y-96190000D03*
%TO.N,/connectors_gpios_2_5_4/PA10*%
X161430000Y-93650000D03*
%TO.N,/connectors_gpios_2_5_4/PA11*%
X161430000Y-91110000D03*
%TO.N,/connectors_gpios_2_5_4/PA12*%
X161430000Y-88570000D03*
%TO.N,/connectors_gpios_2_5_4/PA13*%
X161430000Y-86030000D03*
%TO.N,/connectors_gpios_2_5_4/PA14*%
X161430000Y-83490000D03*
%TO.N,GND*%
X161430000Y-80950000D03*
X161430000Y-78410000D03*
%TO.N,+3V3*%
X161430000Y-75870000D03*
%TD*%
D15*
%TO.N,/connectors_gpios_2_5_4/PH3(BOOT0)*%
X143300000Y-95700000D03*
D16*
%TO.N,GND*%
X153000000Y-119400000D03*
D15*
X149650000Y-115100000D03*
X146304563Y-75141750D03*
X150800000Y-108500000D03*
X159004563Y-80221750D03*
X148844563Y-80221750D03*
X153900000Y-112300000D03*
X156464563Y-75141750D03*
D16*
X145900000Y-112000000D03*
D15*
X146304563Y-115781750D03*
X141224563Y-75141750D03*
X156600000Y-118000000D03*
X143764563Y-75141750D03*
X153924563Y-75141750D03*
X141224563Y-80221750D03*
X151384563Y-75141750D03*
X154500000Y-119481250D03*
X148844563Y-77681750D03*
X143764563Y-77681750D03*
X156464563Y-77681750D03*
X143400000Y-106100000D03*
X159004563Y-75141750D03*
X156464563Y-82761750D03*
X159004563Y-77681750D03*
D16*
X144600000Y-98600000D03*
X152000000Y-118700000D03*
D15*
X146304563Y-80221750D03*
X141224563Y-115781750D03*
X154400000Y-105200000D03*
X144300000Y-91700000D03*
X158500000Y-112600000D03*
X158700000Y-104900000D03*
X141224563Y-77681750D03*
X143764563Y-80221750D03*
X142700000Y-86474999D03*
X154800000Y-100512652D03*
X153924563Y-80221750D03*
X143764563Y-82761750D03*
D16*
X144500000Y-110600000D03*
D15*
X148844563Y-75141750D03*
X146304563Y-77681750D03*
X157400000Y-107900000D03*
X159004563Y-82761750D03*
X141224563Y-92921750D03*
X151384563Y-77681750D03*
X156464563Y-80221750D03*
X158200000Y-96000000D03*
X151384563Y-80221750D03*
X151800000Y-117000000D03*
X152600000Y-85900000D03*
X152700000Y-108000000D03*
D16*
X142100000Y-117600000D03*
D15*
X141224563Y-82761750D03*
X159000000Y-92700000D03*
X153924563Y-115781750D03*
X147300000Y-113000000D03*
X158300000Y-123300000D03*
X153924563Y-77681750D03*
X156464563Y-85301750D03*
D16*
X145900000Y-113600000D03*
D15*
X141500000Y-104400000D03*
X141300000Y-94500000D03*
X148900000Y-91800000D03*
D16*
%TO.N,+3V3*%
X141300000Y-112000000D03*
X141500000Y-100200000D03*
X142700000Y-110600000D03*
D15*
X147575000Y-103600000D03*
X154600000Y-99487348D03*
D16*
X141300000Y-113600000D03*
D15*
X158300000Y-121700000D03*
%TO.N,/connectors_gpios_2_5_4/PA14*%
X150100000Y-93800000D03*
%TO.N,/connectors_gpios_2_5_4/PA13*%
X151141542Y-95700000D03*
%TO.N,/connectors_gpios_2_5_4/PA15*%
X149200000Y-96100000D03*
%TO.N,/connectors_gpios_2_5_4/PA11*%
X154500000Y-96025000D03*
X148700001Y-114700001D03*
%TO.N,/connectors_gpios_2_5_4/PA4*%
X158300000Y-124700000D03*
%TO.N,/connectors_gpios_2_5_4/PA2*%
X150000000Y-104700000D03*
%TO.N,/connectors_gpios_2_5_4/PA12*%
X153400000Y-95700000D03*
X150600000Y-114700000D03*
%TO.N,/connectors_gpios_2_5_4/PA1*%
X150700000Y-106200000D03*
X152400000Y-106300000D03*
X148800000Y-104600000D03*
%TO.N,/connectors_gpios_2_5_4/NRST*%
X142700000Y-94100000D03*
X147075000Y-102900000D03*
%TO.N,/connectors_gpios_2_5_4/PB4*%
X147600000Y-95700000D03*
%TO.N,/connectors_gpios_2_5_4/PB1*%
X153900000Y-101200000D03*
X152700000Y-91600000D03*
%TO.N,/connectors_gpios_2_5_4/PB5*%
X146800000Y-96100000D03*
%TO.N,/connectors_gpios_2_5_4/PB3*%
X148399997Y-96100000D03*
%TD*%
%TA.AperFunction,Conductor*%
%TO.N,+3V3*%
G36*
X138820000Y-77976988D02*
G01*
X138762993Y-77944075D01*
X138635826Y-77910000D01*
X138504174Y-77910000D01*
X138377007Y-77944075D01*
X138320000Y-77976988D01*
X138320000Y-76303012D01*
X138377007Y-76335925D01*
X138504174Y-76370000D01*
X138635826Y-76370000D01*
X138762993Y-76335925D01*
X138820000Y-76303012D01*
X138820000Y-77976988D01*
G37*
%TD.AperFunction*%
%TA.AperFunction,Conductor*%
G36*
X162706922Y-74001280D02*
G01*
X162797266Y-74011459D01*
X162824331Y-74017636D01*
X162903540Y-74045352D01*
X162928553Y-74057398D01*
X162999606Y-74102043D01*
X163021313Y-74119355D01*
X163080644Y-74178686D01*
X163097957Y-74200395D01*
X163142600Y-74271444D01*
X163154648Y-74296462D01*
X163182362Y-74375666D01*
X163188540Y-74402735D01*
X163198720Y-74493076D01*
X163199500Y-74506961D01*
X163199500Y-125493038D01*
X163198720Y-125506923D01*
X163188540Y-125597264D01*
X163182362Y-125624333D01*
X163154648Y-125703537D01*
X163142600Y-125728555D01*
X163097957Y-125799604D01*
X163080644Y-125821313D01*
X163021313Y-125880644D01*
X162999604Y-125897957D01*
X162928555Y-125942600D01*
X162903537Y-125954648D01*
X162824333Y-125982362D01*
X162797264Y-125988540D01*
X162717075Y-125997576D01*
X162706921Y-125998720D01*
X162693038Y-125999500D01*
X154625640Y-125999500D01*
X154558601Y-125979815D01*
X154512846Y-125927011D01*
X154502902Y-125857853D01*
X154515155Y-125819206D01*
X154519870Y-125809950D01*
X154519873Y-125809945D01*
X154573402Y-125645201D01*
X154600500Y-125474111D01*
X154600500Y-124600889D01*
X154573402Y-124429799D01*
X154519873Y-124265055D01*
X154441232Y-124110712D01*
X154339414Y-123970572D01*
X154216928Y-123848086D01*
X154076788Y-123746268D01*
X153922445Y-123667627D01*
X153757701Y-123614098D01*
X153757699Y-123614097D01*
X153757698Y-123614097D01*
X153626271Y-123593281D01*
X153586611Y-123587000D01*
X153413389Y-123587000D01*
X153361760Y-123595177D01*
X153242303Y-123614097D01*
X153242300Y-123614097D01*
X153242299Y-123614098D01*
X153231197Y-123617705D01*
X153161358Y-123619699D01*
X153101526Y-123583617D01*
X153070699Y-123520916D01*
X153078665Y-123451501D01*
X153121757Y-123398200D01*
X153262006Y-123299996D01*
X157494435Y-123299996D01*
X157494435Y-123300003D01*
X157514630Y-123479249D01*
X157514631Y-123479254D01*
X157574211Y-123649523D01*
X157670184Y-123802262D01*
X157780241Y-123912319D01*
X157813726Y-123973642D01*
X157808742Y-124043334D01*
X157780241Y-124087681D01*
X157670184Y-124197737D01*
X157574211Y-124350476D01*
X157514631Y-124520745D01*
X157514630Y-124520750D01*
X157494435Y-124699996D01*
X157494435Y-124700003D01*
X157514630Y-124879249D01*
X157514631Y-124879254D01*
X157574211Y-125049523D01*
X157648967Y-125168495D01*
X157670184Y-125202262D01*
X157797738Y-125329816D01*
X157809469Y-125337187D01*
X157946602Y-125423354D01*
X157950478Y-125425789D01*
X158105401Y-125479999D01*
X158120745Y-125485368D01*
X158120750Y-125485369D01*
X158299996Y-125505565D01*
X158300000Y-125505565D01*
X158300004Y-125505565D01*
X158479249Y-125485369D01*
X158479252Y-125485368D01*
X158479255Y-125485368D01*
X158649522Y-125425789D01*
X158802262Y-125329816D01*
X158929816Y-125202262D01*
X159025789Y-125049522D01*
X159085368Y-124879255D01*
X159105565Y-124700000D01*
X159085368Y-124520745D01*
X159025789Y-124350478D01*
X158929816Y-124197738D01*
X158819759Y-124087681D01*
X158786274Y-124026358D01*
X158791258Y-123956666D01*
X158819759Y-123912319D01*
X158852078Y-123880000D01*
X158929816Y-123802262D01*
X159025789Y-123649522D01*
X159085368Y-123479255D01*
X159105565Y-123300000D01*
X159103297Y-123279873D01*
X159085369Y-123120750D01*
X159085368Y-123120745D01*
X159025788Y-122950476D01*
X158954265Y-122836649D01*
X158929816Y-122797738D01*
X158802262Y-122670184D01*
X158762241Y-122645037D01*
X158649523Y-122574211D01*
X158479254Y-122514631D01*
X158479249Y-122514630D01*
X158300004Y-122494435D01*
X158299996Y-122494435D01*
X158120750Y-122514630D01*
X158120745Y-122514631D01*
X157950476Y-122574211D01*
X157797737Y-122670184D01*
X157670184Y-122797737D01*
X157574211Y-122950476D01*
X157514631Y-123120745D01*
X157514630Y-123120750D01*
X157494435Y-123299996D01*
X153262006Y-123299996D01*
X153290745Y-123279873D01*
X153442373Y-123128245D01*
X153565368Y-122952591D01*
X153655992Y-122758247D01*
X153711492Y-122551119D01*
X153730181Y-122337500D01*
X153711492Y-122123881D01*
X153655992Y-121916753D01*
X153565368Y-121722410D01*
X153472653Y-121590000D01*
X153442376Y-121546759D01*
X153442371Y-121546753D01*
X153290745Y-121395127D01*
X153115090Y-121272131D01*
X153017919Y-121226820D01*
X152920747Y-121181508D01*
X152920743Y-121181507D01*
X152920739Y-121181505D01*
X152713624Y-121126009D01*
X152713620Y-121126008D01*
X152713619Y-121126008D01*
X152713618Y-121126007D01*
X152713613Y-121126007D01*
X152500002Y-121107319D01*
X152499998Y-121107319D01*
X152286386Y-121126007D01*
X152286375Y-121126009D01*
X152079260Y-121181505D01*
X152079251Y-121181509D01*
X151884910Y-121272131D01*
X151884908Y-121272132D01*
X151709259Y-121395123D01*
X151709253Y-121395128D01*
X151557628Y-121546753D01*
X151557623Y-121546759D01*
X151434632Y-121722408D01*
X151434631Y-121722410D01*
X151344009Y-121916751D01*
X151344005Y-121916760D01*
X151288509Y-122123875D01*
X151288507Y-122123886D01*
X151269819Y-122337498D01*
X151269819Y-122337501D01*
X151288507Y-122551113D01*
X151288509Y-122551124D01*
X151344005Y-122758239D01*
X151344007Y-122758243D01*
X151344008Y-122758247D01*
X151380964Y-122837500D01*
X151434631Y-122952590D01*
X151494375Y-123037913D01*
X151557627Y-123128245D01*
X151709255Y-123279873D01*
X151884909Y-123402868D01*
X152079253Y-123493492D01*
X152286381Y-123548992D01*
X152438966Y-123562341D01*
X152499998Y-123567681D01*
X152500000Y-123567681D01*
X152500002Y-123567681D01*
X152553404Y-123563008D01*
X152713619Y-123548992D01*
X152832726Y-123517077D01*
X152902573Y-123518740D01*
X152960435Y-123557902D01*
X152987940Y-123622130D01*
X152976354Y-123691032D01*
X152929356Y-123742733D01*
X152925088Y-123745117D01*
X152923218Y-123746263D01*
X152847608Y-123801197D01*
X152783072Y-123848086D01*
X152783070Y-123848088D01*
X152783069Y-123848088D01*
X152660588Y-123970569D01*
X152660588Y-123970570D01*
X152660586Y-123970572D01*
X152620055Y-124026358D01*
X152558768Y-124110711D01*
X152480128Y-124265052D01*
X152426597Y-124429802D01*
X152399500Y-124600889D01*
X152399500Y-125474110D01*
X152426597Y-125645197D01*
X152480129Y-125809950D01*
X152484845Y-125819206D01*
X152497741Y-125887875D01*
X152471464Y-125952615D01*
X152414358Y-125992872D01*
X152374360Y-125999500D01*
X147625640Y-125999500D01*
X147558601Y-125979815D01*
X147512846Y-125927011D01*
X147502902Y-125857853D01*
X147515155Y-125819206D01*
X147519870Y-125809950D01*
X147519873Y-125809945D01*
X147573402Y-125645201D01*
X147600500Y-125474111D01*
X147600500Y-124600889D01*
X147573402Y-124429799D01*
X147519873Y-124265055D01*
X147441232Y-124110712D01*
X147339414Y-123970572D01*
X147216928Y-123848086D01*
X147076788Y-123746268D01*
X147076787Y-123746267D01*
X147076781Y-123746263D01*
X147072636Y-123743723D01*
X147073521Y-123742277D01*
X147028077Y-123699338D01*
X147011297Y-123631513D01*
X147033850Y-123565383D01*
X147088575Y-123521944D01*
X147158097Y-123514988D01*
X147167256Y-123517072D01*
X147286381Y-123548992D01*
X147438966Y-123562341D01*
X147499998Y-123567681D01*
X147500000Y-123567681D01*
X147500002Y-123567681D01*
X147553404Y-123563008D01*
X147713619Y-123548992D01*
X147920747Y-123493492D01*
X148115091Y-123402868D01*
X148290745Y-123279873D01*
X148442373Y-123128245D01*
X148565368Y-122952591D01*
X148655992Y-122758247D01*
X148711492Y-122551119D01*
X148730181Y-122337500D01*
X148711492Y-122123881D01*
X148655992Y-121916753D01*
X148565368Y-121722410D01*
X148472653Y-121590000D01*
X148442376Y-121546759D01*
X148442371Y-121546753D01*
X148290745Y-121395127D01*
X148115090Y-121272131D01*
X148017919Y-121226820D01*
X147920747Y-121181508D01*
X147920743Y-121181507D01*
X147920739Y-121181505D01*
X147713624Y-121126009D01*
X147713620Y-121126008D01*
X147713619Y-121126008D01*
X147713618Y-121126007D01*
X147713613Y-121126007D01*
X147500002Y-121107319D01*
X147499998Y-121107319D01*
X147286386Y-121126007D01*
X147286375Y-121126009D01*
X147079260Y-121181505D01*
X147079251Y-121181509D01*
X146884910Y-121272131D01*
X146884908Y-121272132D01*
X146709259Y-121395123D01*
X146709253Y-121395128D01*
X146557628Y-121546753D01*
X146557623Y-121546759D01*
X146434632Y-121722408D01*
X146434631Y-121722410D01*
X146344009Y-121916751D01*
X146344005Y-121916760D01*
X146288509Y-122123875D01*
X146288507Y-122123886D01*
X146269819Y-122337498D01*
X146269819Y-122337501D01*
X146288507Y-122551113D01*
X146288509Y-122551124D01*
X146344005Y-122758239D01*
X146344007Y-122758243D01*
X146344008Y-122758247D01*
X146380964Y-122837500D01*
X146434631Y-122952590D01*
X146494375Y-123037913D01*
X146557627Y-123128245D01*
X146709255Y-123279873D01*
X146878240Y-123398198D01*
X146921865Y-123452775D01*
X146929057Y-123522274D01*
X146897535Y-123584629D01*
X146837305Y-123620042D01*
X146768799Y-123617704D01*
X146757701Y-123614098D01*
X146757699Y-123614097D01*
X146757698Y-123614097D01*
X146626271Y-123593281D01*
X146586611Y-123587000D01*
X146413389Y-123587000D01*
X146373728Y-123593281D01*
X146242302Y-123614097D01*
X146077552Y-123667628D01*
X145923211Y-123746268D01*
X145846143Y-123802262D01*
X145783072Y-123848086D01*
X145783070Y-123848088D01*
X145783069Y-123848088D01*
X145660588Y-123970569D01*
X145660588Y-123970570D01*
X145660586Y-123970572D01*
X145620055Y-124026358D01*
X145558768Y-124110711D01*
X145480128Y-124265052D01*
X145426597Y-124429802D01*
X145399500Y-124600889D01*
X145399500Y-125474110D01*
X145426597Y-125645197D01*
X145480129Y-125809950D01*
X145484845Y-125819206D01*
X145497741Y-125887875D01*
X145471464Y-125952615D01*
X145414358Y-125992872D01*
X145374360Y-125999500D01*
X137306962Y-125999500D01*
X137293078Y-125998720D01*
X137280553Y-125997308D01*
X137202735Y-125988540D01*
X137175666Y-125982362D01*
X137096462Y-125954648D01*
X137071444Y-125942600D01*
X137000395Y-125897957D01*
X136978686Y-125880644D01*
X136919355Y-125821313D01*
X136902042Y-125799604D01*
X136857399Y-125728555D01*
X136845351Y-125703537D01*
X136824937Y-125645197D01*
X136817636Y-125624331D01*
X136811459Y-125597263D01*
X136801280Y-125506922D01*
X136800500Y-125493038D01*
X136800500Y-80949999D01*
X137214341Y-80949999D01*
X137214341Y-80950000D01*
X137234936Y-81185403D01*
X137234938Y-81185413D01*
X137296094Y-81413655D01*
X137296096Y-81413659D01*
X137296097Y-81413663D01*
X137395965Y-81627830D01*
X137395967Y-81627834D01*
X137531501Y-81821395D01*
X137531506Y-81821402D01*
X137698597Y-81988493D01*
X137698603Y-81988498D01*
X137884158Y-82118425D01*
X137927783Y-82173002D01*
X137934977Y-82242500D01*
X137903454Y-82304855D01*
X137884158Y-82321575D01*
X137698597Y-82451505D01*
X137531505Y-82618597D01*
X137395965Y-82812169D01*
X137395964Y-82812171D01*
X137296098Y-83026335D01*
X137296094Y-83026344D01*
X137234938Y-83254586D01*
X137234936Y-83254596D01*
X137214341Y-83489999D01*
X137214341Y-83490000D01*
X137234936Y-83725403D01*
X137234938Y-83725413D01*
X137296094Y-83953655D01*
X137296096Y-83953659D01*
X137296097Y-83953663D01*
X137333640Y-84034174D01*
X137395965Y-84167830D01*
X137395967Y-84167834D01*
X137483605Y-84292993D01*
X137513304Y-84335408D01*
X137531501Y-84361395D01*
X137531506Y-84361402D01*
X137698597Y-84528493D01*
X137698603Y-84528498D01*
X137884158Y-84658425D01*
X137927783Y-84713002D01*
X137934977Y-84782500D01*
X137903454Y-84844855D01*
X137884158Y-84861575D01*
X137698597Y-84991505D01*
X137531505Y-85158597D01*
X137395965Y-85352169D01*
X137395964Y-85352171D01*
X137296098Y-85566335D01*
X137296094Y-85566344D01*
X137234938Y-85794586D01*
X137234936Y-85794596D01*
X137214341Y-86029999D01*
X137214341Y-86030000D01*
X137234936Y-86265403D01*
X137234938Y-86265413D01*
X137296094Y-86493655D01*
X137296096Y-86493659D01*
X137296097Y-86493663D01*
X137357708Y-86625788D01*
X137395965Y-86707830D01*
X137395967Y-86707834D01*
X137531501Y-86901395D01*
X137531506Y-86901402D01*
X137698597Y-87068493D01*
X137698603Y-87068498D01*
X137884158Y-87198425D01*
X137927783Y-87253002D01*
X137934977Y-87322500D01*
X137903454Y-87384855D01*
X137884158Y-87401575D01*
X137698597Y-87531505D01*
X137531505Y-87698597D01*
X137395965Y-87892169D01*
X137395964Y-87892171D01*
X137296098Y-88106335D01*
X137296094Y-88106344D01*
X137234938Y-88334586D01*
X137234936Y-88334596D01*
X137214341Y-88569999D01*
X137214341Y-88570000D01*
X137234936Y-88805403D01*
X137234938Y-88805413D01*
X137296094Y-89033655D01*
X137296096Y-89033659D01*
X137296097Y-89033663D01*
X137395965Y-89247830D01*
X137395967Y-89247834D01*
X137531501Y-89441395D01*
X137531506Y-89441402D01*
X137698597Y-89608493D01*
X137698603Y-89608498D01*
X137884158Y-89738425D01*
X137927783Y-89793002D01*
X137934977Y-89862500D01*
X137903454Y-89924855D01*
X137884158Y-89941575D01*
X137698597Y-90071505D01*
X137531505Y-90238597D01*
X137395965Y-90432169D01*
X137395964Y-90432171D01*
X137296098Y-90646335D01*
X137296094Y-90646344D01*
X137234938Y-90874586D01*
X137234936Y-90874596D01*
X137214341Y-91109999D01*
X137214341Y-91110000D01*
X137234936Y-91345403D01*
X137234938Y-91345413D01*
X137296094Y-91573655D01*
X137296096Y-91573659D01*
X137296097Y-91573663D01*
X137391964Y-91779249D01*
X137395965Y-91787830D01*
X137395967Y-91787834D01*
X137484751Y-91914630D01*
X137530002Y-91979255D01*
X137531501Y-91981395D01*
X137531506Y-91981402D01*
X137698597Y-92148493D01*
X137698603Y-92148498D01*
X137884158Y-92278425D01*
X137927783Y-92333002D01*
X137934977Y-92402500D01*
X137903454Y-92464855D01*
X137884158Y-92481575D01*
X137698597Y-92611505D01*
X137531505Y-92778597D01*
X137395965Y-92972169D01*
X137395964Y-92972171D01*
X137296098Y-93186335D01*
X137296094Y-93186344D01*
X137234938Y-93414586D01*
X137234936Y-93414596D01*
X137214341Y-93649999D01*
X137214341Y-93650000D01*
X137234936Y-93885403D01*
X137234938Y-93885413D01*
X137296094Y-94113655D01*
X137296096Y-94113659D01*
X137296097Y-94113663D01*
X137373311Y-94279249D01*
X137395965Y-94327830D01*
X137395967Y-94327834D01*
X137531501Y-94521395D01*
X137531506Y-94521402D01*
X137698597Y-94688493D01*
X137698603Y-94688498D01*
X137884158Y-94818425D01*
X137927783Y-94873002D01*
X137934977Y-94942500D01*
X137903454Y-95004855D01*
X137884158Y-95021575D01*
X137698597Y-95151505D01*
X137531505Y-95318597D01*
X137395965Y-95512169D01*
X137395964Y-95512171D01*
X137296098Y-95726335D01*
X137296094Y-95726344D01*
X137234938Y-95954586D01*
X137234936Y-95954596D01*
X137214341Y-96189999D01*
X137214341Y-96190000D01*
X137234936Y-96425403D01*
X137234938Y-96425413D01*
X137296094Y-96653655D01*
X137296096Y-96653659D01*
X137296097Y-96653663D01*
X137376361Y-96825789D01*
X137395965Y-96867830D01*
X137395967Y-96867834D01*
X137531501Y-97061395D01*
X137531506Y-97061402D01*
X137698597Y-97228493D01*
X137698603Y-97228498D01*
X137884158Y-97358425D01*
X137927783Y-97413002D01*
X137934977Y-97482500D01*
X137903454Y-97544855D01*
X137884158Y-97561575D01*
X137698597Y-97691505D01*
X137531505Y-97858597D01*
X137395965Y-98052169D01*
X137395964Y-98052171D01*
X137296098Y-98266335D01*
X137296094Y-98266344D01*
X137234938Y-98494586D01*
X137234936Y-98494596D01*
X137214341Y-98729999D01*
X137214341Y-98730000D01*
X137234936Y-98965403D01*
X137234938Y-98965413D01*
X137296094Y-99193655D01*
X137296096Y-99193659D01*
X137296097Y-99193663D01*
X137354797Y-99319545D01*
X137395965Y-99407830D01*
X137395967Y-99407834D01*
X137531501Y-99601395D01*
X137531506Y-99601402D01*
X137698597Y-99768493D01*
X137698603Y-99768498D01*
X137884158Y-99898425D01*
X137927783Y-99953002D01*
X137934977Y-100022500D01*
X137903454Y-100084855D01*
X137884158Y-100101575D01*
X137698597Y-100231505D01*
X137531505Y-100398597D01*
X137395965Y-100592169D01*
X137395964Y-100592171D01*
X137296098Y-100806335D01*
X137296094Y-100806344D01*
X137234938Y-101034586D01*
X137234936Y-101034596D01*
X137214341Y-101269999D01*
X137214341Y-101270000D01*
X137234936Y-101505403D01*
X137234938Y-101505413D01*
X137296094Y-101733655D01*
X137296096Y-101733659D01*
X137296097Y-101733663D01*
X137340934Y-101829815D01*
X137395965Y-101947830D01*
X137395967Y-101947834D01*
X137531501Y-102141395D01*
X137531506Y-102141402D01*
X137698597Y-102308493D01*
X137698603Y-102308498D01*
X137884158Y-102438425D01*
X137927783Y-102493002D01*
X137934977Y-102562500D01*
X137903454Y-102624855D01*
X137884158Y-102641575D01*
X137698597Y-102771505D01*
X137531505Y-102938597D01*
X137395965Y-103132169D01*
X137395964Y-103132171D01*
X137296098Y-103346335D01*
X137296094Y-103346344D01*
X137234938Y-103574586D01*
X137234936Y-103574596D01*
X137214341Y-103809999D01*
X137214341Y-103810000D01*
X137234936Y-104045403D01*
X137234938Y-104045413D01*
X137296094Y-104273655D01*
X137296096Y-104273659D01*
X137296097Y-104273663D01*
X137361831Y-104414630D01*
X137395965Y-104487830D01*
X137395967Y-104487834D01*
X137531501Y-104681395D01*
X137531506Y-104681402D01*
X137698597Y-104848493D01*
X137698603Y-104848498D01*
X137884158Y-104978425D01*
X137927783Y-105033002D01*
X137934977Y-105102500D01*
X137903454Y-105164855D01*
X137884158Y-105181575D01*
X137698597Y-105311505D01*
X137531505Y-105478597D01*
X137395965Y-105672169D01*
X137395964Y-105672171D01*
X137296098Y-105886335D01*
X137296094Y-105886344D01*
X137234938Y-106114586D01*
X137234936Y-106114596D01*
X137214341Y-106349999D01*
X137214341Y-106350000D01*
X137234936Y-106585403D01*
X137234938Y-106585413D01*
X137296094Y-106813655D01*
X137296096Y-106813659D01*
X137296097Y-106813663D01*
X137350260Y-106929815D01*
X137395965Y-107027830D01*
X137395967Y-107027834D01*
X137531501Y-107221395D01*
X137531506Y-107221402D01*
X137698597Y-107388493D01*
X137698603Y-107388498D01*
X137884158Y-107518425D01*
X137927783Y-107573002D01*
X137934977Y-107642500D01*
X137903454Y-107704855D01*
X137884158Y-107721575D01*
X137698597Y-107851505D01*
X137531505Y-108018597D01*
X137395965Y-108212169D01*
X137395964Y-108212171D01*
X137296098Y-108426335D01*
X137296094Y-108426344D01*
X137234938Y-108654586D01*
X137234936Y-108654596D01*
X137214341Y-108889999D01*
X137214341Y-108890000D01*
X137234936Y-109125403D01*
X137234938Y-109125413D01*
X137296094Y-109353655D01*
X137296096Y-109353659D01*
X137296097Y-109353663D01*
X137395965Y-109567830D01*
X137395967Y-109567834D01*
X137531501Y-109761395D01*
X137531506Y-109761402D01*
X137698597Y-109928493D01*
X137698603Y-109928498D01*
X137884158Y-110058425D01*
X137927783Y-110113002D01*
X137934977Y-110182500D01*
X137903454Y-110244855D01*
X137884158Y-110261575D01*
X137698597Y-110391505D01*
X137531505Y-110558597D01*
X137395965Y-110752169D01*
X137395964Y-110752171D01*
X137296098Y-110966335D01*
X137296094Y-110966344D01*
X137234938Y-111194586D01*
X137234936Y-111194596D01*
X137214341Y-111429999D01*
X137214341Y-111430000D01*
X137234936Y-111665403D01*
X137234938Y-111665413D01*
X137296094Y-111893655D01*
X137296096Y-111893659D01*
X137296097Y-111893663D01*
X137345683Y-112000000D01*
X137395965Y-112107830D01*
X137395967Y-112107834D01*
X137489599Y-112241553D01*
X137513916Y-112276282D01*
X137531501Y-112301395D01*
X137531506Y-112301402D01*
X137698597Y-112468493D01*
X137698603Y-112468498D01*
X137884158Y-112598425D01*
X137927783Y-112653002D01*
X137934977Y-112722500D01*
X137903454Y-112784855D01*
X137884158Y-112801575D01*
X137698597Y-112931505D01*
X137531505Y-113098597D01*
X137395965Y-113292169D01*
X137395964Y-113292171D01*
X137296098Y-113506335D01*
X137296094Y-113506344D01*
X137234938Y-113734586D01*
X137234936Y-113734596D01*
X137214341Y-113969999D01*
X137214341Y-113970000D01*
X137234936Y-114205403D01*
X137234938Y-114205413D01*
X137296094Y-114433655D01*
X137296096Y-114433659D01*
X137296097Y-114433663D01*
X137336707Y-114520751D01*
X137395965Y-114647830D01*
X137395967Y-114647834D01*
X137531501Y-114841395D01*
X137531506Y-114841402D01*
X137698597Y-115008493D01*
X137698603Y-115008498D01*
X137884158Y-115138425D01*
X137927783Y-115193002D01*
X137934977Y-115262500D01*
X137903454Y-115324855D01*
X137884158Y-115341575D01*
X137698597Y-115471505D01*
X137531505Y-115638597D01*
X137395965Y-115832169D01*
X137395964Y-115832171D01*
X137296098Y-116046335D01*
X137296094Y-116046344D01*
X137234938Y-116274586D01*
X137234936Y-116274596D01*
X137214341Y-116509999D01*
X137214341Y-116510000D01*
X137234936Y-116745403D01*
X137234938Y-116745413D01*
X137296094Y-116973655D01*
X137296096Y-116973659D01*
X137296097Y-116973663D01*
X137339987Y-117067785D01*
X137395965Y-117187830D01*
X137395967Y-117187834D01*
X137504281Y-117342521D01*
X137531505Y-117381401D01*
X137698599Y-117548495D01*
X137821155Y-117634310D01*
X137884594Y-117678730D01*
X137928219Y-117733307D01*
X137935413Y-117802805D01*
X137903890Y-117865160D01*
X137884595Y-117881880D01*
X137698922Y-118011890D01*
X137698920Y-118011891D01*
X137531891Y-118178920D01*
X137531886Y-118178926D01*
X137396400Y-118372420D01*
X137396399Y-118372422D01*
X137296570Y-118586507D01*
X137296567Y-118586513D01*
X137239364Y-118799999D01*
X137239364Y-118800000D01*
X138136988Y-118800000D01*
X138104075Y-118857007D01*
X138070000Y-118984174D01*
X138070000Y-119115826D01*
X138104075Y-119242993D01*
X138136988Y-119300000D01*
X137239364Y-119300000D01*
X137296567Y-119513486D01*
X137296570Y-119513492D01*
X137396399Y-119727578D01*
X137531894Y-119921082D01*
X137698917Y-120088105D01*
X137884595Y-120218119D01*
X137928219Y-120272696D01*
X137935412Y-120342195D01*
X137903890Y-120404549D01*
X137884595Y-120421269D01*
X137698594Y-120551508D01*
X137531505Y-120718597D01*
X137395965Y-120912169D01*
X137395964Y-120912171D01*
X137296098Y-121126335D01*
X137296094Y-121126344D01*
X137234938Y-121354586D01*
X137234936Y-121354596D01*
X137214341Y-121589999D01*
X137214341Y-121590000D01*
X137234936Y-121825403D01*
X137234938Y-121825413D01*
X137296094Y-122053655D01*
X137296096Y-122053659D01*
X137296097Y-122053663D01*
X137328843Y-122123886D01*
X137395965Y-122267830D01*
X137395967Y-122267834D01*
X137444749Y-122337501D01*
X137531501Y-122461396D01*
X137531506Y-122461402D01*
X137698597Y-122628493D01*
X137698603Y-122628498D01*
X137884158Y-122758425D01*
X137927783Y-122813002D01*
X137934977Y-122882500D01*
X137903454Y-122944855D01*
X137884158Y-122961575D01*
X137698597Y-123091505D01*
X137531505Y-123258597D01*
X137395965Y-123452169D01*
X137395964Y-123452171D01*
X137296098Y-123666335D01*
X137296094Y-123666344D01*
X137234938Y-123894586D01*
X137234936Y-123894596D01*
X137214341Y-124129999D01*
X137214341Y-124130000D01*
X137234936Y-124365403D01*
X137234938Y-124365413D01*
X137296094Y-124593655D01*
X137296096Y-124593659D01*
X137296097Y-124593663D01*
X137395965Y-124807830D01*
X137395967Y-124807834D01*
X137445977Y-124879255D01*
X137531505Y-125001401D01*
X137698599Y-125168495D01*
X137775135Y-125222086D01*
X137892165Y-125304032D01*
X137892167Y-125304033D01*
X137892170Y-125304035D01*
X138106337Y-125403903D01*
X138334592Y-125465063D01*
X138505319Y-125480000D01*
X138569999Y-125485659D01*
X138570000Y-125485659D01*
X138570001Y-125485659D01*
X138634681Y-125480000D01*
X138805408Y-125465063D01*
X139033663Y-125403903D01*
X139247830Y-125304035D01*
X139441401Y-125168495D01*
X139608495Y-125001401D01*
X139744035Y-124807830D01*
X139843903Y-124593663D01*
X139905063Y-124365408D01*
X139925659Y-124130000D01*
X139923971Y-124110712D01*
X139919900Y-124064174D01*
X139905063Y-123894592D01*
X139858626Y-123721285D01*
X139843905Y-123666344D01*
X139843904Y-123666343D01*
X139843903Y-123666337D01*
X139744035Y-123452171D01*
X139637487Y-123300003D01*
X139608494Y-123258597D01*
X139441402Y-123091506D01*
X139441396Y-123091501D01*
X139255842Y-122961575D01*
X139212217Y-122906998D01*
X139205023Y-122837500D01*
X139236546Y-122775145D01*
X139255842Y-122758425D01*
X139381863Y-122670184D01*
X139441401Y-122628495D01*
X139608495Y-122461401D01*
X139744035Y-122267830D01*
X139843903Y-122053663D01*
X139905063Y-121825408D01*
X139925659Y-121590000D01*
X139905063Y-121354592D01*
X139843903Y-121126337D01*
X139744035Y-120912171D01*
X139608495Y-120718599D01*
X139608494Y-120718597D01*
X139441402Y-120551506D01*
X139441401Y-120551505D01*
X139255405Y-120421269D01*
X139211781Y-120366692D01*
X139204588Y-120297193D01*
X139236110Y-120234839D01*
X139255405Y-120218119D01*
X139441082Y-120088105D01*
X139608105Y-119921082D01*
X139743600Y-119727578D01*
X139843429Y-119513492D01*
X139843432Y-119513486D01*
X139900636Y-119300000D01*
X139003012Y-119300000D01*
X139035925Y-119242993D01*
X139070000Y-119115826D01*
X139070000Y-118984174D01*
X139035925Y-118857007D01*
X139003012Y-118800000D01*
X139900636Y-118800000D01*
X139900635Y-118799999D01*
X139843432Y-118586513D01*
X139843429Y-118586507D01*
X139743600Y-118372422D01*
X139743599Y-118372420D01*
X139608113Y-118178926D01*
X139608108Y-118178920D01*
X139441078Y-118011890D01*
X139255405Y-117881879D01*
X139211780Y-117827302D01*
X139204588Y-117757804D01*
X139236110Y-117695449D01*
X139255406Y-117678730D01*
X139295757Y-117650476D01*
X139367844Y-117600000D01*
X141194540Y-117600000D01*
X141214326Y-117788256D01*
X141214327Y-117788259D01*
X141272818Y-117968277D01*
X141272821Y-117968284D01*
X141367467Y-118132216D01*
X141494129Y-118272888D01*
X141647265Y-118384148D01*
X141647270Y-118384151D01*
X141820192Y-118461142D01*
X141820197Y-118461144D01*
X142005354Y-118500500D01*
X142005355Y-118500500D01*
X142194644Y-118500500D01*
X142194646Y-118500500D01*
X142379803Y-118461144D01*
X142552730Y-118384151D01*
X142705871Y-118272888D01*
X142832533Y-118132216D01*
X142927179Y-117968284D01*
X142985674Y-117788256D01*
X143005460Y-117600000D01*
X142985674Y-117411744D01*
X142927179Y-117231716D01*
X142832533Y-117067784D01*
X142771496Y-116999996D01*
X150994435Y-116999996D01*
X150994435Y-117000003D01*
X151014630Y-117179249D01*
X151014631Y-117179254D01*
X151074211Y-117349523D01*
X151167341Y-117497737D01*
X151170184Y-117502262D01*
X151297738Y-117629816D01*
X151402192Y-117695449D01*
X151450478Y-117725789D01*
X151468893Y-117732233D01*
X151525670Y-117772955D01*
X151551417Y-117837908D01*
X151537961Y-117906469D01*
X151500825Y-117949593D01*
X151394127Y-118027113D01*
X151267466Y-118167785D01*
X151172821Y-118331715D01*
X151172818Y-118331722D01*
X151130767Y-118461144D01*
X151114326Y-118511744D01*
X151094540Y-118700000D01*
X151114326Y-118888256D01*
X151114327Y-118888259D01*
X151172818Y-119068277D01*
X151172821Y-119068284D01*
X151267467Y-119232216D01*
X151330301Y-119302000D01*
X151394129Y-119372888D01*
X151547265Y-119484148D01*
X151547270Y-119484151D01*
X151720192Y-119561142D01*
X151720197Y-119561144D01*
X151905354Y-119600500D01*
X151905355Y-119600500D01*
X152028212Y-119600500D01*
X152095251Y-119620185D01*
X152141006Y-119672989D01*
X152146143Y-119686181D01*
X152172819Y-119768280D01*
X152172821Y-119768284D01*
X152267467Y-119932216D01*
X152313987Y-119983881D01*
X152394129Y-120072888D01*
X152547265Y-120184148D01*
X152547270Y-120184151D01*
X152720192Y-120261142D01*
X152720197Y-120261144D01*
X152905354Y-120300500D01*
X152905355Y-120300500D01*
X153094644Y-120300500D01*
X153094646Y-120300500D01*
X153279803Y-120261144D01*
X153452730Y-120184151D01*
X153605871Y-120072888D01*
X153686014Y-119983880D01*
X153745500Y-119947232D01*
X153815357Y-119948563D01*
X153865844Y-119979172D01*
X153870184Y-119983512D01*
X153997738Y-120111066D01*
X154150478Y-120207039D01*
X154305101Y-120261144D01*
X154320745Y-120266618D01*
X154320750Y-120266619D01*
X154499996Y-120286815D01*
X154500000Y-120286815D01*
X154500004Y-120286815D01*
X154679249Y-120266619D01*
X154679252Y-120266618D01*
X154679255Y-120266618D01*
X154849522Y-120207039D01*
X155002262Y-120111066D01*
X155129816Y-119983512D01*
X155225789Y-119830772D01*
X155285368Y-119660505D01*
X155292659Y-119595796D01*
X155305565Y-119481253D01*
X155305565Y-119481246D01*
X155285369Y-119302000D01*
X155285368Y-119301995D01*
X155260951Y-119232216D01*
X155225789Y-119131728D01*
X155129816Y-118978988D01*
X155002262Y-118851434D01*
X154943635Y-118814596D01*
X154849523Y-118755461D01*
X154679254Y-118695881D01*
X154679249Y-118695880D01*
X154500004Y-118675685D01*
X154499996Y-118675685D01*
X154320750Y-118695880D01*
X154320745Y-118695881D01*
X154150476Y-118755461D01*
X153997739Y-118851433D01*
X153937888Y-118911284D01*
X153876564Y-118944768D01*
X153806873Y-118939783D01*
X153750939Y-118897912D01*
X153742819Y-118885600D01*
X153732533Y-118867784D01*
X153717810Y-118851433D01*
X153605870Y-118727111D01*
X153452734Y-118615851D01*
X153452729Y-118615848D01*
X153279807Y-118538857D01*
X153279802Y-118538855D01*
X153107640Y-118502262D01*
X153094646Y-118499500D01*
X152971787Y-118499500D01*
X152904748Y-118479815D01*
X152858993Y-118427011D01*
X152853856Y-118413818D01*
X152827181Y-118331722D01*
X152827180Y-118331721D01*
X152827179Y-118331716D01*
X152732533Y-118167784D01*
X152605871Y-118027112D01*
X152605870Y-118027111D01*
X152568549Y-117999996D01*
X155794435Y-117999996D01*
X155794435Y-118000003D01*
X155814630Y-118179249D01*
X155814631Y-118179254D01*
X155874211Y-118349523D01*
X155944348Y-118461144D01*
X155970184Y-118502262D01*
X156097738Y-118629816D01*
X156250478Y-118725789D01*
X156335276Y-118755461D01*
X156420745Y-118785368D01*
X156420750Y-118785369D01*
X156599996Y-118805565D01*
X156600000Y-118805565D01*
X156600004Y-118805565D01*
X156779249Y-118785369D01*
X156779252Y-118785368D01*
X156779255Y-118785368D01*
X156949522Y-118725789D01*
X157102262Y-118629816D01*
X157229816Y-118502262D01*
X157325789Y-118349522D01*
X157385368Y-118179255D01*
X157385442Y-118178597D01*
X157405565Y-118000003D01*
X157405565Y-117999996D01*
X157385369Y-117820750D01*
X157385368Y-117820745D01*
X157380056Y-117805565D01*
X157325789Y-117650478D01*
X157229816Y-117497738D01*
X157102262Y-117370184D01*
X157069379Y-117349522D01*
X156949523Y-117274211D01*
X156779254Y-117214631D01*
X156779249Y-117214630D01*
X156600004Y-117194435D01*
X156599996Y-117194435D01*
X156420750Y-117214630D01*
X156420745Y-117214631D01*
X156250476Y-117274211D01*
X156097737Y-117370184D01*
X155970184Y-117497737D01*
X155874211Y-117650476D01*
X155814631Y-117820745D01*
X155814630Y-117820750D01*
X155794435Y-117999996D01*
X152568549Y-117999996D01*
X152452734Y-117915851D01*
X152452732Y-117915850D01*
X152310640Y-117852585D01*
X152257404Y-117807334D01*
X152237083Y-117740485D01*
X152256129Y-117673261D01*
X152295107Y-117634311D01*
X152302262Y-117629816D01*
X152429816Y-117502262D01*
X152525789Y-117349522D01*
X152585368Y-117179255D01*
X152605565Y-117000000D01*
X152597352Y-116927111D01*
X152585369Y-116820750D01*
X152585368Y-116820745D01*
X152556713Y-116738855D01*
X152525789Y-116650478D01*
X152429816Y-116497738D01*
X152302262Y-116370184D01*
X152149523Y-116274211D01*
X151979254Y-116214631D01*
X151979249Y-116214630D01*
X151800004Y-116194435D01*
X151799996Y-116194435D01*
X151620750Y-116214630D01*
X151620745Y-116214631D01*
X151450476Y-116274211D01*
X151297737Y-116370184D01*
X151170184Y-116497737D01*
X151074211Y-116650476D01*
X151014631Y-116820745D01*
X151014630Y-116820750D01*
X150994435Y-116999996D01*
X142771496Y-116999996D01*
X142705871Y-116927112D01*
X142705870Y-116927111D01*
X142552734Y-116815851D01*
X142552729Y-116815848D01*
X142379807Y-116738857D01*
X142379802Y-116738855D01*
X142234001Y-116707865D01*
X142194646Y-116699500D01*
X142005354Y-116699500D01*
X141972897Y-116706398D01*
X141820197Y-116738855D01*
X141820192Y-116738857D01*
X141647270Y-116815848D01*
X141647265Y-116815851D01*
X141494129Y-116927111D01*
X141367466Y-117067785D01*
X141272821Y-117231715D01*
X141272818Y-117231722D01*
X141214327Y-117411740D01*
X141214326Y-117411744D01*
X141194540Y-117600000D01*
X139367844Y-117600000D01*
X139441401Y-117548495D01*
X139608495Y-117381401D01*
X139744035Y-117187830D01*
X139843903Y-116973663D01*
X139905063Y-116745408D01*
X139925659Y-116510000D01*
X139905063Y-116274592D01*
X139843903Y-116046337D01*
X139744035Y-115832171D01*
X139739567Y-115825789D01*
X139608494Y-115638597D01*
X139441402Y-115471506D01*
X139441396Y-115471501D01*
X139255842Y-115341575D01*
X139212217Y-115286998D01*
X139205023Y-115217500D01*
X139236546Y-115155145D01*
X139255842Y-115138425D01*
X139278026Y-115122891D01*
X139441401Y-115008495D01*
X139608495Y-114841401D01*
X139707507Y-114699997D01*
X147894436Y-114699997D01*
X147894436Y-114700004D01*
X147914631Y-114879250D01*
X147914632Y-114879255D01*
X147974212Y-115049524D01*
X148030073Y-115138425D01*
X148070185Y-115202263D01*
X148197739Y-115329817D01*
X148216452Y-115341575D01*
X148350475Y-115425788D01*
X148350479Y-115425790D01*
X148465424Y-115466011D01*
X148520746Y-115485369D01*
X148520751Y-115485370D01*
X148699997Y-115505566D01*
X148700001Y-115505566D01*
X148700004Y-115505566D01*
X148777973Y-115496780D01*
X148864849Y-115486992D01*
X148933670Y-115499046D01*
X148983725Y-115544239D01*
X149020182Y-115602260D01*
X149020184Y-115602262D01*
X149147738Y-115729816D01*
X149300478Y-115825789D01*
X149318717Y-115832171D01*
X149470745Y-115885368D01*
X149470750Y-115885369D01*
X149649996Y-115905565D01*
X149650000Y-115905565D01*
X149650004Y-115905565D01*
X149829249Y-115885369D01*
X149829252Y-115885368D01*
X149829255Y-115885368D01*
X149999522Y-115825789D01*
X150152262Y-115729816D01*
X150279816Y-115602262D01*
X150316274Y-115544237D01*
X150368604Y-115497949D01*
X150435150Y-115486991D01*
X150599997Y-115505565D01*
X150600000Y-115505565D01*
X150600004Y-115505565D01*
X150779249Y-115485369D01*
X150779252Y-115485368D01*
X150779255Y-115485368D01*
X150949522Y-115425789D01*
X151102262Y-115329816D01*
X151229816Y-115202262D01*
X151325789Y-115049522D01*
X151385368Y-114879255D01*
X151405565Y-114700000D01*
X151399687Y-114647834D01*
X151385369Y-114520750D01*
X151385368Y-114520745D01*
X151354894Y-114433655D01*
X151325789Y-114350478D01*
X151303265Y-114314632D01*
X151266274Y-114255760D01*
X151229816Y-114197738D01*
X151102262Y-114070184D01*
X150949523Y-113974211D01*
X150779254Y-113914631D01*
X150779249Y-113914630D01*
X150600004Y-113894435D01*
X150599996Y-113894435D01*
X150420750Y-113914630D01*
X150420745Y-113914631D01*
X150250476Y-113974211D01*
X150097737Y-114070184D01*
X149970182Y-114197739D01*
X149933725Y-114255761D01*
X149881390Y-114302051D01*
X149814849Y-114313008D01*
X149650004Y-114294435D01*
X149649996Y-114294435D01*
X149485151Y-114313008D01*
X149416329Y-114300953D01*
X149366274Y-114255760D01*
X149334639Y-114205413D01*
X149329817Y-114197739D01*
X149202263Y-114070185D01*
X149202261Y-114070184D01*
X149049524Y-113974212D01*
X148879255Y-113914632D01*
X148879250Y-113914631D01*
X148700005Y-113894436D01*
X148699997Y-113894436D01*
X148520751Y-113914631D01*
X148520746Y-113914632D01*
X148350477Y-113974212D01*
X148197738Y-114070185D01*
X148070185Y-114197738D01*
X147974212Y-114350477D01*
X147914632Y-114520746D01*
X147914631Y-114520751D01*
X147894436Y-114699997D01*
X139707507Y-114699997D01*
X139744035Y-114647830D01*
X139843903Y-114433663D01*
X139905063Y-114205408D01*
X139925659Y-113970000D01*
X139905063Y-113734592D01*
X139843903Y-113506337D01*
X139744035Y-113292171D01*
X139701709Y-113231722D01*
X139608494Y-113098597D01*
X139441402Y-112931506D01*
X139441396Y-112931501D01*
X139255842Y-112801575D01*
X139212217Y-112746998D01*
X139205023Y-112677500D01*
X139236546Y-112615145D01*
X139255842Y-112598425D01*
X139350401Y-112532214D01*
X139441401Y-112468495D01*
X139608495Y-112301401D01*
X139744035Y-112107830D01*
X139843903Y-111893663D01*
X139905063Y-111665408D01*
X139925659Y-111430000D01*
X139905063Y-111194592D01*
X139843903Y-110966337D01*
X139744035Y-110752171D01*
X139637485Y-110600000D01*
X143594540Y-110600000D01*
X143614326Y-110788256D01*
X143614327Y-110788259D01*
X143672818Y-110968277D01*
X143672819Y-110968279D01*
X143672821Y-110968284D01*
X143767467Y-111132216D01*
X143826613Y-111197904D01*
X143894129Y-111272888D01*
X144047265Y-111384148D01*
X144047270Y-111384151D01*
X144220192Y-111461142D01*
X144220197Y-111461144D01*
X144405354Y-111500500D01*
X144405355Y-111500500D01*
X144594644Y-111500500D01*
X144594646Y-111500500D01*
X144779803Y-111461144D01*
X144952730Y-111384151D01*
X144952731Y-111384149D01*
X144958117Y-111381752D01*
X145027366Y-111372467D01*
X145090643Y-111402095D01*
X145127857Y-111461229D01*
X145127193Y-111531096D01*
X145115941Y-111557029D01*
X145106022Y-111574211D01*
X145072820Y-111631718D01*
X145072818Y-111631722D01*
X145014327Y-111811740D01*
X145014326Y-111811744D01*
X144994540Y-112000000D01*
X145014326Y-112188256D01*
X145014327Y-112188259D01*
X145072818Y-112368277D01*
X145072821Y-112368284D01*
X145167467Y-112532216D01*
X145242137Y-112615145D01*
X145276223Y-112653002D01*
X145294129Y-112672888D01*
X145331008Y-112699682D01*
X145373673Y-112755013D01*
X145379652Y-112824626D01*
X145347046Y-112886421D01*
X145331008Y-112900318D01*
X145294127Y-112927113D01*
X145167466Y-113067785D01*
X145072821Y-113231715D01*
X145072818Y-113231722D01*
X145014327Y-113411740D01*
X145014326Y-113411744D01*
X144994540Y-113600000D01*
X145014326Y-113788256D01*
X145014327Y-113788259D01*
X145072818Y-113968277D01*
X145072821Y-113968284D01*
X145167467Y-114132216D01*
X145233365Y-114205403D01*
X145294129Y-114272888D01*
X145447265Y-114384148D01*
X145447270Y-114384151D01*
X145620192Y-114461142D01*
X145620197Y-114461144D01*
X145805354Y-114500500D01*
X145805355Y-114500500D01*
X145994644Y-114500500D01*
X145994646Y-114500500D01*
X146179803Y-114461144D01*
X146352730Y-114384151D01*
X146505871Y-114272888D01*
X146632533Y-114132216D01*
X146727179Y-113968284D01*
X146781664Y-113800596D01*
X146821101Y-113742921D01*
X146885460Y-113715723D01*
X146943209Y-113725476D01*
X146943905Y-113723489D01*
X147120745Y-113785368D01*
X147120750Y-113785369D01*
X147299996Y-113805565D01*
X147300000Y-113805565D01*
X147300004Y-113805565D01*
X147479249Y-113785369D01*
X147479252Y-113785368D01*
X147479255Y-113785368D01*
X147649522Y-113725789D01*
X147802262Y-113629816D01*
X147929816Y-113502262D01*
X148025789Y-113349522D01*
X148085368Y-113179255D01*
X148094456Y-113098597D01*
X148105565Y-113000003D01*
X148105565Y-112999996D01*
X148085369Y-112820750D01*
X148085368Y-112820745D01*
X148083655Y-112815849D01*
X148025789Y-112650478D01*
X148025188Y-112649522D01*
X147951480Y-112532216D01*
X147929816Y-112497738D01*
X147802262Y-112370184D01*
X147799227Y-112368277D01*
X147690559Y-112299996D01*
X153094435Y-112299996D01*
X153094435Y-112300003D01*
X153114630Y-112479249D01*
X153114631Y-112479254D01*
X153174211Y-112649523D01*
X153205928Y-112700000D01*
X153270184Y-112802262D01*
X153397738Y-112929816D01*
X153550478Y-113025789D01*
X153670493Y-113067784D01*
X153720745Y-113085368D01*
X153720750Y-113085369D01*
X153899996Y-113105565D01*
X153900000Y-113105565D01*
X153900004Y-113105565D01*
X154079249Y-113085369D01*
X154079252Y-113085368D01*
X154079255Y-113085368D01*
X154249522Y-113025789D01*
X154402262Y-112929816D01*
X154529816Y-112802262D01*
X154625789Y-112649522D01*
X154643119Y-112599996D01*
X157694435Y-112599996D01*
X157694435Y-112600003D01*
X157714630Y-112779249D01*
X157714631Y-112779254D01*
X157774211Y-112949523D01*
X157848520Y-113067784D01*
X157870184Y-113102262D01*
X157997738Y-113229816D01*
X158150478Y-113325789D01*
X158218306Y-113349523D01*
X158320745Y-113385368D01*
X158320750Y-113385369D01*
X158499996Y-113405565D01*
X158500000Y-113405565D01*
X158500004Y-113405565D01*
X158679249Y-113385369D01*
X158679252Y-113385368D01*
X158679255Y-113385368D01*
X158849522Y-113325789D01*
X159002262Y-113229816D01*
X159129816Y-113102262D01*
X159225789Y-112949522D01*
X159285368Y-112779255D01*
X159285369Y-112779249D01*
X159305565Y-112600003D01*
X159305565Y-112599996D01*
X159285369Y-112420750D01*
X159285368Y-112420745D01*
X159243608Y-112301401D01*
X159225789Y-112250478D01*
X159203265Y-112214632D01*
X159144272Y-112120745D01*
X159129816Y-112097738D01*
X159002262Y-111970184D01*
X158970897Y-111950476D01*
X158849523Y-111874211D01*
X158679254Y-111814631D01*
X158679249Y-111814630D01*
X158500004Y-111794435D01*
X158499996Y-111794435D01*
X158320750Y-111814630D01*
X158320745Y-111814631D01*
X158150476Y-111874211D01*
X157997737Y-111970184D01*
X157870184Y-112097737D01*
X157774211Y-112250476D01*
X157714631Y-112420745D01*
X157714630Y-112420750D01*
X157694435Y-112599996D01*
X154643119Y-112599996D01*
X154685368Y-112479255D01*
X154686580Y-112468498D01*
X154705565Y-112300003D01*
X154705565Y-112299996D01*
X154685369Y-112120750D01*
X154685368Y-112120745D01*
X154680849Y-112107830D01*
X154625789Y-111950478D01*
X154529816Y-111797738D01*
X154402262Y-111670184D01*
X154394653Y-111665403D01*
X154249523Y-111574211D01*
X154079254Y-111514631D01*
X154079249Y-111514630D01*
X153900004Y-111494435D01*
X153899996Y-111494435D01*
X153720750Y-111514630D01*
X153720745Y-111514631D01*
X153550476Y-111574211D01*
X153397737Y-111670184D01*
X153270184Y-111797737D01*
X153174211Y-111950476D01*
X153114631Y-112120745D01*
X153114630Y-112120750D01*
X153094435Y-112299996D01*
X147690559Y-112299996D01*
X147649523Y-112274211D01*
X147479254Y-112214631D01*
X147479249Y-112214630D01*
X147300004Y-112194435D01*
X147299996Y-112194435D01*
X147120750Y-112214630D01*
X147120742Y-112214632D01*
X146954734Y-112272721D01*
X146884956Y-112276282D01*
X146824328Y-112241553D01*
X146792101Y-112179560D01*
X146790459Y-112142725D01*
X146805460Y-112000000D01*
X146785674Y-111811744D01*
X146727179Y-111631716D01*
X146632533Y-111467784D01*
X146505871Y-111327112D01*
X146505870Y-111327111D01*
X146352734Y-111215851D01*
X146352729Y-111215848D01*
X146179807Y-111138857D01*
X146179802Y-111138855D01*
X146034001Y-111107865D01*
X145994646Y-111099500D01*
X145805354Y-111099500D01*
X145772897Y-111106398D01*
X145620197Y-111138855D01*
X145620192Y-111138857D01*
X145441882Y-111218247D01*
X145372632Y-111227532D01*
X145309355Y-111197904D01*
X145272142Y-111138769D01*
X145272807Y-111068902D01*
X145284053Y-111042979D01*
X145327179Y-110968284D01*
X145385674Y-110788256D01*
X145405460Y-110600000D01*
X145385674Y-110411744D01*
X145327179Y-110231716D01*
X145232533Y-110067784D01*
X145105871Y-109927112D01*
X145105870Y-109927111D01*
X144952734Y-109815851D01*
X144952729Y-109815848D01*
X144779807Y-109738857D01*
X144779802Y-109738855D01*
X144634001Y-109707865D01*
X144594646Y-109699500D01*
X144405354Y-109699500D01*
X144372897Y-109706398D01*
X144220197Y-109738855D01*
X144220192Y-109738857D01*
X144047270Y-109815848D01*
X144047265Y-109815851D01*
X143894129Y-109927111D01*
X143767466Y-110067785D01*
X143672821Y-110231715D01*
X143672818Y-110231722D01*
X143614327Y-110411740D01*
X143614326Y-110411744D01*
X143594540Y-110600000D01*
X139637485Y-110600000D01*
X139608494Y-110558597D01*
X139441402Y-110391506D01*
X139441396Y-110391501D01*
X139255842Y-110261575D01*
X139212217Y-110206998D01*
X139205023Y-110137500D01*
X139236546Y-110075145D01*
X139255842Y-110058425D01*
X139278026Y-110042891D01*
X139441401Y-109928495D01*
X139608495Y-109761401D01*
X139744035Y-109567830D01*
X139843903Y-109353663D01*
X139905063Y-109125408D01*
X139925659Y-108890000D01*
X139905063Y-108654592D01*
X139863640Y-108499996D01*
X149994435Y-108499996D01*
X149994435Y-108500003D01*
X150014630Y-108679249D01*
X150014631Y-108679254D01*
X150074211Y-108849523D01*
X150099644Y-108889999D01*
X150170184Y-109002262D01*
X150297738Y-109129816D01*
X150450478Y-109225789D01*
X150620745Y-109285368D01*
X150620750Y-109285369D01*
X150799996Y-109305565D01*
X150800000Y-109305565D01*
X150800004Y-109305565D01*
X150979249Y-109285369D01*
X150979252Y-109285368D01*
X150979255Y-109285368D01*
X151149522Y-109225789D01*
X151302262Y-109129816D01*
X151429816Y-109002262D01*
X151525789Y-108849522D01*
X151585368Y-108679255D01*
X151585369Y-108679249D01*
X151605565Y-108500003D01*
X151605565Y-108499996D01*
X151585369Y-108320750D01*
X151585368Y-108320745D01*
X151547376Y-108212171D01*
X151525789Y-108150478D01*
X151429816Y-107997738D01*
X151302262Y-107870184D01*
X151272528Y-107851501D01*
X151149523Y-107774211D01*
X150979254Y-107714631D01*
X150979249Y-107714630D01*
X150800004Y-107694435D01*
X150799996Y-107694435D01*
X150620750Y-107714630D01*
X150620745Y-107714631D01*
X150450476Y-107774211D01*
X150297737Y-107870184D01*
X150170184Y-107997737D01*
X150074211Y-108150476D01*
X150014631Y-108320745D01*
X150014630Y-108320750D01*
X149994435Y-108499996D01*
X139863640Y-108499996D01*
X139843903Y-108426337D01*
X139744035Y-108212171D01*
X139720987Y-108179254D01*
X139608494Y-108018597D01*
X139441402Y-107851506D01*
X139441396Y-107851501D01*
X139255842Y-107721575D01*
X139212217Y-107666998D01*
X139205023Y-107597500D01*
X139236546Y-107535145D01*
X139255842Y-107518425D01*
X139285387Y-107497737D01*
X139441401Y-107388495D01*
X139608495Y-107221401D01*
X139744035Y-107027830D01*
X139843903Y-106813663D01*
X139905063Y-106585408D01*
X139925659Y-106350000D01*
X139905063Y-106114592D01*
X139901152Y-106099996D01*
X142594435Y-106099996D01*
X142594435Y-106100003D01*
X142614630Y-106279249D01*
X142614631Y-106279254D01*
X142674211Y-106449523D01*
X142736950Y-106549370D01*
X142770184Y-106602262D01*
X142897738Y-106729816D01*
X142988080Y-106786582D01*
X143031179Y-106813663D01*
X143050478Y-106825789D01*
X143061984Y-106829815D01*
X143220745Y-106885368D01*
X143220750Y-106885369D01*
X143399996Y-106905565D01*
X143400000Y-106905565D01*
X143400004Y-106905565D01*
X143579249Y-106885369D01*
X143579252Y-106885368D01*
X143579255Y-106885368D01*
X143749522Y-106825789D01*
X143902262Y-106729816D01*
X144029816Y-106602262D01*
X144125789Y-106449522D01*
X144185368Y-106279255D01*
X144185369Y-106279249D01*
X144205565Y-106100003D01*
X144205565Y-106099996D01*
X144185369Y-105920750D01*
X144185368Y-105920745D01*
X144173327Y-105886335D01*
X144125789Y-105750478D01*
X144029816Y-105597738D01*
X143902262Y-105470184D01*
X143831608Y-105425789D01*
X143749523Y-105374211D01*
X143579254Y-105314631D01*
X143579249Y-105314630D01*
X143400004Y-105294435D01*
X143399996Y-105294435D01*
X143220750Y-105314630D01*
X143220745Y-105314631D01*
X143050476Y-105374211D01*
X142897737Y-105470184D01*
X142770184Y-105597737D01*
X142674211Y-105750476D01*
X142614631Y-105920745D01*
X142614630Y-105920750D01*
X142594435Y-106099996D01*
X139901152Y-106099996D01*
X139853124Y-105920750D01*
X139843905Y-105886344D01*
X139843904Y-105886343D01*
X139843903Y-105886337D01*
X139744035Y-105672171D01*
X139711559Y-105625789D01*
X139608494Y-105478597D01*
X139441402Y-105311506D01*
X139441396Y-105311501D01*
X139255842Y-105181575D01*
X139212217Y-105126998D01*
X139205023Y-105057500D01*
X139236546Y-104995145D01*
X139255842Y-104978425D01*
X139297120Y-104949522D01*
X139441401Y-104848495D01*
X139608495Y-104681401D01*
X139744035Y-104487830D01*
X139784993Y-104399996D01*
X140694435Y-104399996D01*
X140694435Y-104400003D01*
X140714630Y-104579249D01*
X140714631Y-104579254D01*
X140774211Y-104749523D01*
X140837646Y-104850478D01*
X140870184Y-104902262D01*
X140997738Y-105029816D01*
X141150478Y-105125789D01*
X141293873Y-105175965D01*
X141320745Y-105185368D01*
X141320750Y-105185369D01*
X141499996Y-105205565D01*
X141500000Y-105205565D01*
X141500004Y-105205565D01*
X141679249Y-105185369D01*
X141679252Y-105185368D01*
X141679255Y-105185368D01*
X141849522Y-105125789D01*
X142002262Y-105029816D01*
X142129816Y-104902262D01*
X142225789Y-104749522D01*
X142278110Y-104599996D01*
X147994435Y-104599996D01*
X147994435Y-104600003D01*
X148014630Y-104779249D01*
X148014631Y-104779254D01*
X148074211Y-104949523D01*
X148124662Y-105029815D01*
X148170184Y-105102262D01*
X148297738Y-105229816D01*
X148350386Y-105262897D01*
X148432721Y-105314632D01*
X148450478Y-105325789D01*
X148461984Y-105329815D01*
X148620745Y-105385368D01*
X148620750Y-105385369D01*
X148799996Y-105405565D01*
X148800000Y-105405565D01*
X148800004Y-105405565D01*
X148979249Y-105385369D01*
X148979252Y-105385368D01*
X148979255Y-105385368D01*
X149149522Y-105325789D01*
X149167282Y-105314630D01*
X149192469Y-105298803D01*
X149277166Y-105245584D01*
X149344402Y-105226584D01*
X149411237Y-105246951D01*
X149430819Y-105262897D01*
X149497738Y-105329816D01*
X149560691Y-105369372D01*
X149632721Y-105414632D01*
X149650478Y-105425789D01*
X149777352Y-105470184D01*
X149820745Y-105485368D01*
X149820750Y-105485369D01*
X149982205Y-105503560D01*
X150046619Y-105530626D01*
X150086174Y-105588221D01*
X150088312Y-105658058D01*
X150073316Y-105692752D01*
X149974211Y-105850476D01*
X149914631Y-106020745D01*
X149914630Y-106020750D01*
X149894435Y-106199996D01*
X149894435Y-106200003D01*
X149914630Y-106379249D01*
X149914631Y-106379254D01*
X149974211Y-106549523D01*
X150037043Y-106649519D01*
X150070184Y-106702262D01*
X150197738Y-106829816D01*
X150350478Y-106925789D01*
X150361984Y-106929815D01*
X150520745Y-106985368D01*
X150520750Y-106985369D01*
X150699996Y-107005565D01*
X150700000Y-107005565D01*
X150700004Y-107005565D01*
X150879249Y-106985369D01*
X150879252Y-106985368D01*
X150879255Y-106985368D01*
X151049522Y-106925789D01*
X151202262Y-106829816D01*
X151329816Y-106702262D01*
X151425789Y-106549522D01*
X151425789Y-106549520D01*
X151425884Y-106549370D01*
X151478219Y-106503079D01*
X151547272Y-106492431D01*
X151611121Y-106520806D01*
X151647919Y-106574387D01*
X151674209Y-106649519D01*
X151674211Y-106649522D01*
X151770184Y-106802262D01*
X151897738Y-106929816D01*
X152050478Y-107025789D01*
X152144524Y-107058697D01*
X152220745Y-107085368D01*
X152220750Y-107085369D01*
X152233449Y-107086800D01*
X152297864Y-107113866D01*
X152337419Y-107171460D01*
X152339558Y-107241297D01*
X152303600Y-107301204D01*
X152285540Y-107315013D01*
X152197740Y-107370182D01*
X152197737Y-107370184D01*
X152070184Y-107497737D01*
X151974211Y-107650476D01*
X151914631Y-107820745D01*
X151914630Y-107820750D01*
X151894435Y-107999996D01*
X151894435Y-108000003D01*
X151914630Y-108179249D01*
X151914631Y-108179254D01*
X151974211Y-108349523D01*
X152068760Y-108499996D01*
X152070184Y-108502262D01*
X152197738Y-108629816D01*
X152350478Y-108725789D01*
X152520745Y-108785368D01*
X152520750Y-108785369D01*
X152699996Y-108805565D01*
X152700000Y-108805565D01*
X152700004Y-108805565D01*
X152879249Y-108785369D01*
X152879252Y-108785368D01*
X152879255Y-108785368D01*
X153049522Y-108725789D01*
X153202262Y-108629816D01*
X153329816Y-108502262D01*
X153425789Y-108349522D01*
X153485368Y-108179255D01*
X153485369Y-108179249D01*
X153505565Y-108000003D01*
X153505565Y-107999996D01*
X153494298Y-107899996D01*
X156594435Y-107899996D01*
X156594435Y-107900003D01*
X156614630Y-108079249D01*
X156614631Y-108079254D01*
X156674211Y-108249523D01*
X156737045Y-108349522D01*
X156770184Y-108402262D01*
X156897738Y-108529816D01*
X157050478Y-108625789D01*
X157132804Y-108654596D01*
X157220745Y-108685368D01*
X157220750Y-108685369D01*
X157399996Y-108705565D01*
X157400000Y-108705565D01*
X157400004Y-108705565D01*
X157579249Y-108685369D01*
X157579252Y-108685368D01*
X157579255Y-108685368D01*
X157749522Y-108625789D01*
X157902262Y-108529816D01*
X158029816Y-108402262D01*
X158125789Y-108249522D01*
X158185368Y-108079255D01*
X158185369Y-108079249D01*
X158205565Y-107900003D01*
X158205565Y-107899996D01*
X158185369Y-107720750D01*
X158185368Y-107720745D01*
X158166561Y-107666998D01*
X158125789Y-107550478D01*
X158029816Y-107397738D01*
X157902262Y-107270184D01*
X157824626Y-107221402D01*
X157749523Y-107174211D01*
X157579254Y-107114631D01*
X157579249Y-107114630D01*
X157400004Y-107094435D01*
X157399996Y-107094435D01*
X157220750Y-107114630D01*
X157220745Y-107114631D01*
X157050476Y-107174211D01*
X156897737Y-107270184D01*
X156770184Y-107397737D01*
X156674211Y-107550476D01*
X156614631Y-107720745D01*
X156614630Y-107720750D01*
X156594435Y-107899996D01*
X153494298Y-107899996D01*
X153485369Y-107820750D01*
X153485368Y-107820745D01*
X153441170Y-107694435D01*
X153425789Y-107650478D01*
X153406638Y-107620000D01*
X153386582Y-107588080D01*
X153329816Y-107497738D01*
X153202262Y-107370184D01*
X153202259Y-107370182D01*
X153049523Y-107274211D01*
X152879253Y-107214631D01*
X152866544Y-107213199D01*
X152802131Y-107186130D01*
X152762578Y-107128534D01*
X152760443Y-107058697D01*
X152796403Y-106998791D01*
X152814454Y-106984988D01*
X152902262Y-106929816D01*
X153029816Y-106802262D01*
X153125789Y-106649522D01*
X153185368Y-106479255D01*
X153188718Y-106449522D01*
X153205565Y-106300003D01*
X153205565Y-106299996D01*
X153185369Y-106120750D01*
X153185368Y-106120745D01*
X153150376Y-106020745D01*
X153125789Y-105950478D01*
X153107106Y-105920745D01*
X153062955Y-105850478D01*
X153029816Y-105797738D01*
X152902262Y-105670184D01*
X152831608Y-105625789D01*
X152749523Y-105574211D01*
X152579254Y-105514631D01*
X152579249Y-105514630D01*
X152400004Y-105494435D01*
X152399996Y-105494435D01*
X152220750Y-105514630D01*
X152220745Y-105514631D01*
X152050476Y-105574211D01*
X151897737Y-105670184D01*
X151770182Y-105797739D01*
X151674114Y-105950630D01*
X151621779Y-105996920D01*
X151552726Y-106007568D01*
X151488878Y-105979193D01*
X151452079Y-105925611D01*
X151425789Y-105850478D01*
X151392650Y-105797738D01*
X151329816Y-105697738D01*
X151202262Y-105570184D01*
X151138017Y-105529816D01*
X151049523Y-105474211D01*
X150879254Y-105414631D01*
X150879250Y-105414630D01*
X150717793Y-105396439D01*
X150653379Y-105369372D01*
X150613824Y-105311778D01*
X150611687Y-105241941D01*
X150626684Y-105207247D01*
X150631240Y-105199996D01*
X153594435Y-105199996D01*
X153594435Y-105200003D01*
X153614630Y-105379249D01*
X153614631Y-105379254D01*
X153674211Y-105549523D01*
X153759569Y-105685368D01*
X153770184Y-105702262D01*
X153897738Y-105829816D01*
X153987687Y-105886335D01*
X154050194Y-105925611D01*
X154050478Y-105925789D01*
X154203098Y-105979193D01*
X154220745Y-105985368D01*
X154220750Y-105985369D01*
X154399996Y-106005565D01*
X154400000Y-106005565D01*
X154400004Y-106005565D01*
X154579249Y-105985369D01*
X154579252Y-105985368D01*
X154579255Y-105985368D01*
X154749522Y-105925789D01*
X154902262Y-105829816D01*
X155029816Y-105702262D01*
X155125789Y-105549522D01*
X155185368Y-105379255D01*
X155185369Y-105379249D01*
X155205565Y-105200003D01*
X155205565Y-105199996D01*
X155185369Y-105020750D01*
X155185368Y-105020745D01*
X155143909Y-104902262D01*
X155143116Y-104899996D01*
X157894435Y-104899996D01*
X157894435Y-104900003D01*
X157914630Y-105079249D01*
X157914631Y-105079254D01*
X157974211Y-105249523D01*
X158024662Y-105329815D01*
X158070184Y-105402262D01*
X158197738Y-105529816D01*
X158261983Y-105570184D01*
X158305833Y-105597737D01*
X158350478Y-105625789D01*
X158483030Y-105672171D01*
X158520745Y-105685368D01*
X158520750Y-105685369D01*
X158699996Y-105705565D01*
X158700000Y-105705565D01*
X158700004Y-105705565D01*
X158879249Y-105685369D01*
X158879252Y-105685368D01*
X158879255Y-105685368D01*
X159049522Y-105625789D01*
X159202262Y-105529816D01*
X159329816Y-105402262D01*
X159425789Y-105249522D01*
X159485368Y-105079255D01*
X159485369Y-105079249D01*
X159505565Y-104900003D01*
X159505565Y-104899996D01*
X159485369Y-104720750D01*
X159485368Y-104720745D01*
X159478108Y-104699996D01*
X159425789Y-104550478D01*
X159407106Y-104520745D01*
X159340431Y-104414632D01*
X159329816Y-104397738D01*
X159202262Y-104270184D01*
X159170897Y-104250476D01*
X159049523Y-104174211D01*
X158879254Y-104114631D01*
X158879249Y-104114630D01*
X158700004Y-104094435D01*
X158699996Y-104094435D01*
X158520750Y-104114630D01*
X158520745Y-104114631D01*
X158350476Y-104174211D01*
X158197737Y-104270184D01*
X158070184Y-104397737D01*
X157974211Y-104550476D01*
X157914631Y-104720745D01*
X157914630Y-104720750D01*
X157894435Y-104899996D01*
X155143116Y-104899996D01*
X155125789Y-104850478D01*
X155029816Y-104697738D01*
X154902262Y-104570184D01*
X154870897Y-104550476D01*
X154749523Y-104474211D01*
X154579254Y-104414631D01*
X154579249Y-104414630D01*
X154400004Y-104394435D01*
X154399996Y-104394435D01*
X154220750Y-104414630D01*
X154220745Y-104414631D01*
X154050476Y-104474211D01*
X153897737Y-104570184D01*
X153770184Y-104697737D01*
X153674211Y-104850476D01*
X153614631Y-105020745D01*
X153614630Y-105020750D01*
X153594435Y-105199996D01*
X150631240Y-105199996D01*
X150725787Y-105049526D01*
X150725787Y-105049524D01*
X150725789Y-105049522D01*
X150785368Y-104879255D01*
X150785369Y-104879249D01*
X150805565Y-104700003D01*
X150805565Y-104699996D01*
X150785369Y-104520750D01*
X150785368Y-104520745D01*
X150773852Y-104487834D01*
X150725789Y-104350478D01*
X150629816Y-104197738D01*
X150502262Y-104070184D01*
X150462839Y-104045413D01*
X150349523Y-103974211D01*
X150179254Y-103914631D01*
X150179249Y-103914630D01*
X150000004Y-103894435D01*
X149999996Y-103894435D01*
X149820750Y-103914630D01*
X149820745Y-103914631D01*
X149650476Y-103974211D01*
X149522833Y-104054415D01*
X149455596Y-104073415D01*
X149388761Y-104053047D01*
X149369180Y-104037102D01*
X149302262Y-103970184D01*
X149149523Y-103874211D01*
X148979254Y-103814631D01*
X148979249Y-103814630D01*
X148800004Y-103794435D01*
X148799996Y-103794435D01*
X148620750Y-103814630D01*
X148620745Y-103814631D01*
X148450476Y-103874211D01*
X148297737Y-103970184D01*
X148170184Y-104097737D01*
X148074211Y-104250476D01*
X148014631Y-104420745D01*
X148014630Y-104420750D01*
X147994435Y-104599996D01*
X142278110Y-104599996D01*
X142285368Y-104579255D01*
X142286390Y-104570184D01*
X142305565Y-104400003D01*
X142305565Y-104399996D01*
X142285369Y-104220750D01*
X142285368Y-104220745D01*
X142225789Y-104050478D01*
X142222606Y-104045413D01*
X142140431Y-103914632D01*
X142129816Y-103897738D01*
X142002262Y-103770184D01*
X141899422Y-103705565D01*
X141849523Y-103674211D01*
X141679254Y-103614631D01*
X141679249Y-103614630D01*
X141500004Y-103594435D01*
X141499996Y-103594435D01*
X141320750Y-103614630D01*
X141320745Y-103614631D01*
X141150476Y-103674211D01*
X140997737Y-103770184D01*
X140870184Y-103897737D01*
X140774211Y-104050476D01*
X140714631Y-104220745D01*
X140714630Y-104220750D01*
X140694435Y-104399996D01*
X139784993Y-104399996D01*
X139843903Y-104273663D01*
X139905063Y-104045408D01*
X139925659Y-103810000D01*
X139905063Y-103574592D01*
X139843903Y-103346337D01*
X139744035Y-103132171D01*
X139706983Y-103079254D01*
X139608494Y-102938597D01*
X139569893Y-102899996D01*
X146269435Y-102899996D01*
X146269435Y-102900003D01*
X146289630Y-103079249D01*
X146289631Y-103079254D01*
X146349211Y-103249523D01*
X146410044Y-103346337D01*
X146445184Y-103402262D01*
X146572738Y-103529816D01*
X146643989Y-103574586D01*
X146707721Y-103614632D01*
X146725478Y-103625789D01*
X146863860Y-103674211D01*
X146895745Y-103685368D01*
X146895750Y-103685369D01*
X147074996Y-103705565D01*
X147075000Y-103705565D01*
X147075004Y-103705565D01*
X147254249Y-103685369D01*
X147254252Y-103685368D01*
X147254255Y-103685368D01*
X147424522Y-103625789D01*
X147577262Y-103529816D01*
X147704816Y-103402262D01*
X147800789Y-103249522D01*
X147860368Y-103079255D01*
X147876216Y-102938599D01*
X147880565Y-102900003D01*
X147880565Y-102899996D01*
X147860369Y-102720750D01*
X147860368Y-102720745D01*
X147830702Y-102635965D01*
X147800789Y-102550478D01*
X147704816Y-102397738D01*
X147577262Y-102270184D01*
X147424523Y-102174211D01*
X147254254Y-102114631D01*
X147254249Y-102114630D01*
X147075004Y-102094435D01*
X147074996Y-102094435D01*
X146895750Y-102114630D01*
X146895745Y-102114631D01*
X146725476Y-102174211D01*
X146572737Y-102270184D01*
X146445184Y-102397737D01*
X146349211Y-102550476D01*
X146289631Y-102720745D01*
X146289630Y-102720750D01*
X146269435Y-102899996D01*
X139569893Y-102899996D01*
X139441402Y-102771506D01*
X139441396Y-102771501D01*
X139255842Y-102641575D01*
X139212217Y-102586998D01*
X139205023Y-102517500D01*
X139236546Y-102455145D01*
X139255842Y-102438425D01*
X139313950Y-102397737D01*
X139441401Y-102308495D01*
X139608495Y-102141401D01*
X139744035Y-101947830D01*
X139843903Y-101733663D01*
X139905063Y-101505408D01*
X139925659Y-101270000D01*
X139905063Y-101034592D01*
X139843903Y-100806337D01*
X139744035Y-100592171D01*
X139742849Y-100590476D01*
X139608494Y-100398597D01*
X139441402Y-100231506D01*
X139441396Y-100231501D01*
X139255842Y-100101575D01*
X139212217Y-100046998D01*
X139207352Y-99999997D01*
X147830537Y-99999997D01*
X147830537Y-100000002D01*
X147849471Y-100168056D01*
X147905331Y-100327694D01*
X147905333Y-100327697D01*
X147995304Y-100470884D01*
X147995309Y-100470890D01*
X148114895Y-100590476D01*
X148114901Y-100590481D01*
X148258088Y-100680452D01*
X148258094Y-100680455D01*
X148258096Y-100680456D01*
X148417727Y-100736313D01*
X148444253Y-100739301D01*
X148508666Y-100766367D01*
X148548222Y-100823962D01*
X148553590Y-100848637D01*
X148556579Y-100875163D01*
X148612438Y-101034801D01*
X148612440Y-101034804D01*
X148702411Y-101177991D01*
X148702416Y-101177997D01*
X148822002Y-101297583D01*
X148822008Y-101297588D01*
X148965195Y-101387559D01*
X148965201Y-101387562D01*
X148965203Y-101387563D01*
X149124834Y-101443420D01*
X149151360Y-101446408D01*
X149215773Y-101473474D01*
X149255329Y-101531069D01*
X149260697Y-101555744D01*
X149263686Y-101582270D01*
X149319545Y-101741908D01*
X149319547Y-101741911D01*
X149409518Y-101885098D01*
X149409523Y-101885104D01*
X149529109Y-102004690D01*
X149529115Y-102004695D01*
X149672302Y-102094666D01*
X149672305Y-102094668D01*
X149672309Y-102094669D01*
X149672310Y-102094670D01*
X149744913Y-102120074D01*
X149831943Y-102150528D01*
X149999997Y-102169463D01*
X150000000Y-102169463D01*
X150000003Y-102169463D01*
X150168056Y-102150528D01*
X150168059Y-102150527D01*
X150327690Y-102094670D01*
X150327692Y-102094668D01*
X150327694Y-102094668D01*
X150327697Y-102094666D01*
X150470884Y-102004695D01*
X150470885Y-102004694D01*
X150470890Y-102004691D01*
X150590477Y-101885104D01*
X150680454Y-101741908D01*
X150680455Y-101741905D01*
X150680456Y-101741904D01*
X150736313Y-101582273D01*
X150739302Y-101555744D01*
X150766367Y-101491333D01*
X150823961Y-101451777D01*
X150848634Y-101446409D01*
X150875166Y-101443420D01*
X151034797Y-101387563D01*
X151034800Y-101387560D01*
X151034804Y-101387559D01*
X151177991Y-101297588D01*
X151177992Y-101297587D01*
X151177997Y-101297584D01*
X151275585Y-101199996D01*
X153094435Y-101199996D01*
X153094435Y-101200003D01*
X153114630Y-101379249D01*
X153114631Y-101379254D01*
X153174211Y-101549523D01*
X153194790Y-101582274D01*
X153270184Y-101702262D01*
X153397738Y-101829816D01*
X153550478Y-101925789D01*
X153720745Y-101985368D01*
X153720750Y-101985369D01*
X153899996Y-102005565D01*
X153900000Y-102005565D01*
X153900004Y-102005565D01*
X154079249Y-101985369D01*
X154079252Y-101985368D01*
X154079255Y-101985368D01*
X154249522Y-101925789D01*
X154402262Y-101829816D01*
X154529816Y-101702262D01*
X154625789Y-101549522D01*
X154677667Y-101401262D01*
X154718389Y-101344487D01*
X154783342Y-101318739D01*
X154794709Y-101318217D01*
X154800004Y-101318217D01*
X154979249Y-101298021D01*
X154979252Y-101298020D01*
X154979255Y-101298020D01*
X155149522Y-101238441D01*
X155302262Y-101142468D01*
X155429816Y-101014914D01*
X155525789Y-100862174D01*
X155585368Y-100691907D01*
X155585369Y-100691901D01*
X155605565Y-100512655D01*
X155605565Y-100512648D01*
X155585369Y-100333402D01*
X155585368Y-100333397D01*
X155549713Y-100231501D01*
X155525789Y-100163130D01*
X155429816Y-100010390D01*
X155302262Y-99882836D01*
X155149523Y-99786863D01*
X154979254Y-99727283D01*
X154979249Y-99727282D01*
X154800004Y-99707087D01*
X154799996Y-99707087D01*
X154620750Y-99727282D01*
X154620745Y-99727283D01*
X154450476Y-99786863D01*
X154297737Y-99882836D01*
X154170184Y-100010389D01*
X154074210Y-100163130D01*
X154022333Y-100311389D01*
X153981611Y-100368165D01*
X153916658Y-100393913D01*
X153905291Y-100394435D01*
X153899996Y-100394435D01*
X153720750Y-100414630D01*
X153720745Y-100414631D01*
X153550476Y-100474211D01*
X153397737Y-100570184D01*
X153270184Y-100697737D01*
X153174211Y-100850476D01*
X153114631Y-101020745D01*
X153114630Y-101020750D01*
X153094435Y-101199996D01*
X151275585Y-101199996D01*
X151297584Y-101177997D01*
X151297588Y-101177991D01*
X151387559Y-101034804D01*
X151387562Y-101034798D01*
X151387563Y-101034797D01*
X151443420Y-100875166D01*
X151446409Y-100848637D01*
X151473474Y-100784226D01*
X151531068Y-100744670D01*
X151555741Y-100739302D01*
X151582273Y-100736313D01*
X151741904Y-100680456D01*
X151741907Y-100680453D01*
X151741911Y-100680452D01*
X151885098Y-100590481D01*
X151885099Y-100590480D01*
X151885104Y-100590477D01*
X152004691Y-100470890D01*
X152004695Y-100470884D01*
X152094666Y-100327697D01*
X152094668Y-100327694D01*
X152094668Y-100327692D01*
X152094670Y-100327690D01*
X152150527Y-100168059D01*
X152150527Y-100168058D01*
X152150528Y-100168056D01*
X152169463Y-100000002D01*
X152169463Y-99999997D01*
X152150528Y-99831943D01*
X152094668Y-99672305D01*
X152094666Y-99672302D01*
X152004695Y-99529115D01*
X152004690Y-99529109D01*
X151885104Y-99409523D01*
X151885098Y-99409518D01*
X151741911Y-99319547D01*
X151741908Y-99319545D01*
X151582270Y-99263686D01*
X151555744Y-99260697D01*
X151491331Y-99233630D01*
X151451776Y-99176035D01*
X151446409Y-99151362D01*
X151443420Y-99124834D01*
X151387563Y-98965203D01*
X151387560Y-98965198D01*
X151387559Y-98965195D01*
X151297588Y-98822008D01*
X151297583Y-98822002D01*
X151177997Y-98702416D01*
X151177991Y-98702411D01*
X151034804Y-98612440D01*
X151034801Y-98612438D01*
X150875163Y-98556579D01*
X150848637Y-98553590D01*
X150784224Y-98526523D01*
X150744669Y-98468928D01*
X150739302Y-98444255D01*
X150736313Y-98417727D01*
X150680456Y-98258096D01*
X150680453Y-98258091D01*
X150680452Y-98258088D01*
X150590481Y-98114901D01*
X150590476Y-98114895D01*
X150470890Y-97995309D01*
X150470884Y-97995304D01*
X150327697Y-97905333D01*
X150327694Y-97905331D01*
X150168056Y-97849471D01*
X150000003Y-97830537D01*
X149999997Y-97830537D01*
X149831943Y-97849471D01*
X149672305Y-97905331D01*
X149672302Y-97905333D01*
X149529115Y-97995304D01*
X149529109Y-97995309D01*
X149409523Y-98114895D01*
X149409518Y-98114901D01*
X149319547Y-98258088D01*
X149319545Y-98258091D01*
X149263686Y-98417729D01*
X149260697Y-98444255D01*
X149233629Y-98508669D01*
X149176034Y-98548223D01*
X149151362Y-98553590D01*
X149124836Y-98556579D01*
X148965198Y-98612438D01*
X148965195Y-98612440D01*
X148822008Y-98702411D01*
X148822002Y-98702416D01*
X148702416Y-98822002D01*
X148702411Y-98822008D01*
X148612440Y-98965195D01*
X148612438Y-98965198D01*
X148556579Y-99124836D01*
X148553590Y-99151362D01*
X148526522Y-99215776D01*
X148468927Y-99255330D01*
X148444255Y-99260697D01*
X148417729Y-99263686D01*
X148258091Y-99319545D01*
X148258088Y-99319547D01*
X148114901Y-99409518D01*
X148114895Y-99409523D01*
X147995309Y-99529109D01*
X147995304Y-99529115D01*
X147905333Y-99672302D01*
X147905331Y-99672305D01*
X147849471Y-99831943D01*
X147830537Y-99999997D01*
X139207352Y-99999997D01*
X139205023Y-99977500D01*
X139236546Y-99915145D01*
X139255842Y-99898425D01*
X139350788Y-99831943D01*
X139441401Y-99768495D01*
X139608495Y-99601401D01*
X139744035Y-99407830D01*
X139843903Y-99193663D01*
X139905063Y-98965408D01*
X139925659Y-98730000D01*
X139914285Y-98600000D01*
X143694540Y-98600000D01*
X143714326Y-98788256D01*
X143714327Y-98788259D01*
X143772818Y-98968277D01*
X143772821Y-98968284D01*
X143867467Y-99132216D01*
X143985844Y-99263687D01*
X143994129Y-99272888D01*
X144147265Y-99384148D01*
X144147270Y-99384151D01*
X144320192Y-99461142D01*
X144320197Y-99461144D01*
X144505354Y-99500500D01*
X144505355Y-99500500D01*
X144694644Y-99500500D01*
X144694646Y-99500500D01*
X144879803Y-99461144D01*
X145052730Y-99384151D01*
X145205871Y-99272888D01*
X145332533Y-99132216D01*
X145427179Y-98968284D01*
X145485674Y-98788256D01*
X145505460Y-98600000D01*
X145485674Y-98411744D01*
X145427179Y-98231716D01*
X145332533Y-98067784D01*
X145205871Y-97927112D01*
X145111571Y-97858599D01*
X145052734Y-97815851D01*
X145052729Y-97815848D01*
X144879807Y-97738857D01*
X144879802Y-97738855D01*
X144734001Y-97707865D01*
X144694646Y-97699500D01*
X144505354Y-97699500D01*
X144472897Y-97706398D01*
X144320197Y-97738855D01*
X144320192Y-97738857D01*
X144147270Y-97815848D01*
X144147265Y-97815851D01*
X143994129Y-97927111D01*
X143867466Y-98067785D01*
X143772821Y-98231715D01*
X143772818Y-98231722D01*
X143714327Y-98411740D01*
X143714326Y-98411744D01*
X143694540Y-98600000D01*
X139914285Y-98600000D01*
X139905063Y-98494592D01*
X139843903Y-98266337D01*
X139744035Y-98052171D01*
X139704217Y-97995304D01*
X139608494Y-97858597D01*
X139441402Y-97691506D01*
X139441396Y-97691501D01*
X139255842Y-97561575D01*
X139212217Y-97506998D01*
X139205023Y-97437500D01*
X139236546Y-97375145D01*
X139255842Y-97358425D01*
X139278026Y-97342891D01*
X139441401Y-97228495D01*
X139608495Y-97061401D01*
X139744035Y-96867830D01*
X139843903Y-96653663D01*
X139905063Y-96425408D01*
X139925659Y-96190000D01*
X139905063Y-95954592D01*
X139858626Y-95781285D01*
X139843905Y-95726344D01*
X139843904Y-95726343D01*
X139843903Y-95726337D01*
X139744035Y-95512171D01*
X139733929Y-95497737D01*
X139608494Y-95318597D01*
X139441402Y-95151506D01*
X139441396Y-95151501D01*
X139255842Y-95021575D01*
X139212217Y-94966998D01*
X139205023Y-94897500D01*
X139236546Y-94835145D01*
X139255842Y-94818425D01*
X139359921Y-94745548D01*
X139441401Y-94688495D01*
X139608495Y-94521401D01*
X139623483Y-94499996D01*
X140494435Y-94499996D01*
X140494435Y-94500003D01*
X140514630Y-94679249D01*
X140514631Y-94679254D01*
X140574211Y-94849523D01*
X140632633Y-94942500D01*
X140670184Y-95002262D01*
X140797738Y-95129816D01*
X140888080Y-95186582D01*
X140940365Y-95219435D01*
X140950478Y-95225789D01*
X140991031Y-95239979D01*
X141120745Y-95285368D01*
X141120750Y-95285369D01*
X141299996Y-95305565D01*
X141300000Y-95305565D01*
X141300004Y-95305565D01*
X141479249Y-95285369D01*
X141479252Y-95285368D01*
X141479255Y-95285368D01*
X141649522Y-95225789D01*
X141802262Y-95129816D01*
X141929816Y-95002262D01*
X142025789Y-94849522D01*
X142039762Y-94809588D01*
X142080483Y-94752813D01*
X142145435Y-94727064D01*
X142213997Y-94740519D01*
X142222768Y-94745543D01*
X142350478Y-94825789D01*
X142475766Y-94869629D01*
X142520745Y-94885368D01*
X142520750Y-94885369D01*
X142679919Y-94903303D01*
X142744333Y-94930369D01*
X142783889Y-94987964D01*
X142786026Y-95057801D01*
X142753718Y-95114204D01*
X142670183Y-95197739D01*
X142574211Y-95350476D01*
X142514631Y-95520745D01*
X142514630Y-95520750D01*
X142494435Y-95699996D01*
X142494435Y-95700003D01*
X142514630Y-95879249D01*
X142514631Y-95879254D01*
X142574211Y-96049523D01*
X142605926Y-96099996D01*
X142670184Y-96202262D01*
X142797738Y-96329816D01*
X142868887Y-96374522D01*
X142949879Y-96425413D01*
X142950478Y-96425789D01*
X143018306Y-96449523D01*
X143120745Y-96485368D01*
X143120750Y-96485369D01*
X143299996Y-96505565D01*
X143300000Y-96505565D01*
X143300004Y-96505565D01*
X143479249Y-96485369D01*
X143479252Y-96485368D01*
X143479255Y-96485368D01*
X143649522Y-96425789D01*
X143802262Y-96329816D01*
X143929816Y-96202262D01*
X143994074Y-96099996D01*
X145994435Y-96099996D01*
X145994435Y-96100003D01*
X146014630Y-96279249D01*
X146014631Y-96279254D01*
X146074211Y-96449523D01*
X146115246Y-96514829D01*
X146170184Y-96602262D01*
X146297738Y-96729816D01*
X146386148Y-96785368D01*
X146446817Y-96823489D01*
X146450478Y-96825789D01*
X146570636Y-96867834D01*
X146620745Y-96885368D01*
X146620750Y-96885369D01*
X146799996Y-96905565D01*
X146800000Y-96905565D01*
X146800004Y-96905565D01*
X146979249Y-96885369D01*
X146979252Y-96885368D01*
X146979255Y-96885368D01*
X147149522Y-96825789D01*
X147302262Y-96729816D01*
X147429816Y-96602262D01*
X147456358Y-96560020D01*
X147508689Y-96513732D01*
X147575233Y-96502774D01*
X147600000Y-96505565D01*
X147624761Y-96502775D01*
X147693583Y-96514829D01*
X147743640Y-96560023D01*
X147770181Y-96602262D01*
X147897735Y-96729816D01*
X147986145Y-96785368D01*
X148046814Y-96823489D01*
X148050475Y-96825789D01*
X148170633Y-96867834D01*
X148220742Y-96885368D01*
X148220747Y-96885369D01*
X148399993Y-96905565D01*
X148399997Y-96905565D01*
X148400001Y-96905565D01*
X148579246Y-96885369D01*
X148579248Y-96885368D01*
X148579252Y-96885368D01*
X148579255Y-96885366D01*
X148579259Y-96885366D01*
X148756092Y-96823489D01*
X148756843Y-96825637D01*
X148815125Y-96816035D01*
X148843589Y-96824391D01*
X148843905Y-96823489D01*
X149020745Y-96885368D01*
X149020750Y-96885369D01*
X149199996Y-96905565D01*
X149200000Y-96905565D01*
X149200004Y-96905565D01*
X149379249Y-96885369D01*
X149379252Y-96885368D01*
X149379255Y-96885368D01*
X149549522Y-96825789D01*
X149702262Y-96729816D01*
X149829816Y-96602262D01*
X149925789Y-96449522D01*
X149985368Y-96279255D01*
X149985369Y-96279249D01*
X150005565Y-96100003D01*
X150005565Y-96099996D01*
X149985369Y-95920750D01*
X149985368Y-95920745D01*
X149925788Y-95750476D01*
X149894069Y-95699996D01*
X150335977Y-95699996D01*
X150335977Y-95700003D01*
X150356172Y-95879249D01*
X150356173Y-95879254D01*
X150415753Y-96049523D01*
X150447468Y-96099996D01*
X150511726Y-96202262D01*
X150639280Y-96329816D01*
X150710429Y-96374522D01*
X150791421Y-96425413D01*
X150792020Y-96425789D01*
X150859848Y-96449523D01*
X150962287Y-96485368D01*
X150962292Y-96485369D01*
X151141538Y-96505565D01*
X151141542Y-96505565D01*
X151141546Y-96505565D01*
X151320791Y-96485369D01*
X151320794Y-96485368D01*
X151320797Y-96485368D01*
X151491064Y-96425789D01*
X151643804Y-96329816D01*
X151771358Y-96202262D01*
X151867331Y-96049522D01*
X151926910Y-95879255D01*
X151933502Y-95820750D01*
X151947107Y-95700003D01*
X151947107Y-95699996D01*
X152594435Y-95699996D01*
X152594435Y-95700003D01*
X152614630Y-95879249D01*
X152614631Y-95879254D01*
X152674211Y-96049523D01*
X152705926Y-96099996D01*
X152770184Y-96202262D01*
X152897738Y-96329816D01*
X152968887Y-96374522D01*
X153049879Y-96425413D01*
X153050478Y-96425789D01*
X153118306Y-96449523D01*
X153220745Y-96485368D01*
X153220750Y-96485369D01*
X153399996Y-96505565D01*
X153400000Y-96505565D01*
X153400004Y-96505565D01*
X153579249Y-96485369D01*
X153579252Y-96485368D01*
X153579255Y-96485368D01*
X153579256Y-96485367D01*
X153579259Y-96485367D01*
X153629296Y-96467857D01*
X153702830Y-96442126D01*
X153772608Y-96438564D01*
X153833236Y-96473293D01*
X153848778Y-96493194D01*
X153870184Y-96527262D01*
X153997738Y-96654816D01*
X154150478Y-96750789D01*
X154249299Y-96785368D01*
X154320745Y-96810368D01*
X154320750Y-96810369D01*
X154499996Y-96830565D01*
X154500000Y-96830565D01*
X154500004Y-96830565D01*
X154679249Y-96810369D01*
X154679252Y-96810368D01*
X154679255Y-96810368D01*
X154849522Y-96750789D01*
X155002262Y-96654816D01*
X155129816Y-96527262D01*
X155225789Y-96374522D01*
X155285368Y-96204255D01*
X155286974Y-96190000D01*
X155305565Y-96025003D01*
X155305565Y-96024996D01*
X155302748Y-95999996D01*
X157394435Y-95999996D01*
X157394435Y-96000003D01*
X157414630Y-96179249D01*
X157414631Y-96179254D01*
X157474211Y-96349523D01*
X157559568Y-96485367D01*
X157570184Y-96502262D01*
X157697738Y-96629816D01*
X157850478Y-96725789D01*
X157921924Y-96750789D01*
X158020745Y-96785368D01*
X158020750Y-96785369D01*
X158199996Y-96805565D01*
X158200000Y-96805565D01*
X158200004Y-96805565D01*
X158379249Y-96785369D01*
X158379252Y-96785368D01*
X158379255Y-96785368D01*
X158549522Y-96725789D01*
X158702262Y-96629816D01*
X158829816Y-96502262D01*
X158925789Y-96349522D01*
X158985368Y-96179255D01*
X158985369Y-96179249D01*
X159005565Y-96000003D01*
X159005565Y-95999996D01*
X158985369Y-95820750D01*
X158985368Y-95820745D01*
X158925789Y-95650478D01*
X158829816Y-95497738D01*
X158702262Y-95370184D01*
X158630104Y-95324844D01*
X158549523Y-95274211D01*
X158379254Y-95214631D01*
X158379249Y-95214630D01*
X158200004Y-95194435D01*
X158199996Y-95194435D01*
X158020750Y-95214630D01*
X158020745Y-95214631D01*
X157850476Y-95274211D01*
X157697737Y-95370184D01*
X157570184Y-95497737D01*
X157474211Y-95650476D01*
X157414631Y-95820745D01*
X157414630Y-95820750D01*
X157394435Y-95999996D01*
X155302748Y-95999996D01*
X155285369Y-95845750D01*
X155285368Y-95845745D01*
X155276620Y-95820745D01*
X155225789Y-95675478D01*
X155210080Y-95650478D01*
X155129815Y-95522737D01*
X155002262Y-95395184D01*
X154849523Y-95299211D01*
X154679254Y-95239631D01*
X154679249Y-95239630D01*
X154500004Y-95219435D01*
X154499996Y-95219435D01*
X154320750Y-95239630D01*
X154320745Y-95239631D01*
X154197169Y-95282873D01*
X154127390Y-95286434D01*
X154066762Y-95251705D01*
X154051220Y-95231803D01*
X154047441Y-95225789D01*
X154029816Y-95197738D01*
X153902262Y-95070184D01*
X153882555Y-95057801D01*
X153749523Y-94974211D01*
X153579254Y-94914631D01*
X153579249Y-94914630D01*
X153400004Y-94894435D01*
X153399996Y-94894435D01*
X153220750Y-94914630D01*
X153220745Y-94914631D01*
X153050476Y-94974211D01*
X152897737Y-95070184D01*
X152770184Y-95197737D01*
X152674211Y-95350476D01*
X152614631Y-95520745D01*
X152614630Y-95520750D01*
X152594435Y-95699996D01*
X151947107Y-95699996D01*
X151926911Y-95520750D01*
X151926910Y-95520745D01*
X151923909Y-95512169D01*
X151867331Y-95350478D01*
X151844807Y-95314632D01*
X151797900Y-95239979D01*
X151771358Y-95197738D01*
X151643804Y-95070184D01*
X151624097Y-95057801D01*
X151491065Y-94974211D01*
X151320796Y-94914631D01*
X151320791Y-94914630D01*
X151141546Y-94894435D01*
X151141538Y-94894435D01*
X150962292Y-94914630D01*
X150962287Y-94914631D01*
X150792018Y-94974211D01*
X150639279Y-95070184D01*
X150511726Y-95197737D01*
X150415753Y-95350476D01*
X150356173Y-95520745D01*
X150356172Y-95520750D01*
X150335977Y-95699996D01*
X149894069Y-95699996D01*
X149862955Y-95650478D01*
X149829816Y-95597738D01*
X149702262Y-95470184D01*
X149549523Y-95374211D01*
X149379254Y-95314631D01*
X149379249Y-95314630D01*
X149200004Y-95294435D01*
X149199996Y-95294435D01*
X149020750Y-95314630D01*
X149020737Y-95314633D01*
X148843906Y-95376510D01*
X148843157Y-95374369D01*
X148784821Y-95383958D01*
X148756405Y-95375611D01*
X148756091Y-95376510D01*
X148579259Y-95314633D01*
X148579246Y-95314630D01*
X148400001Y-95294435D01*
X148399998Y-95294435D01*
X148399997Y-95294435D01*
X148394233Y-95295084D01*
X148375230Y-95297225D01*
X148306408Y-95285168D01*
X148256357Y-95239977D01*
X148229817Y-95197739D01*
X148102262Y-95070184D01*
X147949523Y-94974211D01*
X147779254Y-94914631D01*
X147779249Y-94914630D01*
X147600004Y-94894435D01*
X147599996Y-94894435D01*
X147420750Y-94914630D01*
X147420745Y-94914631D01*
X147250476Y-94974211D01*
X147097737Y-95070184D01*
X146970185Y-95197736D01*
X146970184Y-95197738D01*
X146943861Y-95239631D01*
X146943642Y-95239979D01*
X146891306Y-95286269D01*
X146824766Y-95297225D01*
X146800003Y-95294435D01*
X146799996Y-95294435D01*
X146620750Y-95314630D01*
X146620745Y-95314631D01*
X146450476Y-95374211D01*
X146297737Y-95470184D01*
X146170184Y-95597737D01*
X146074211Y-95750476D01*
X146014631Y-95920745D01*
X146014630Y-95920750D01*
X145994435Y-96099996D01*
X143994074Y-96099996D01*
X144025789Y-96049522D01*
X144085368Y-95879255D01*
X144091960Y-95820750D01*
X144105565Y-95700003D01*
X144105565Y-95699996D01*
X144085369Y-95520750D01*
X144085368Y-95520745D01*
X144082367Y-95512169D01*
X144025789Y-95350478D01*
X144003265Y-95314632D01*
X143956358Y-95239979D01*
X143929816Y-95197738D01*
X143802262Y-95070184D01*
X143782555Y-95057801D01*
X143649523Y-94974211D01*
X143479254Y-94914631D01*
X143479250Y-94914630D01*
X143320079Y-94896696D01*
X143255665Y-94869629D01*
X143216110Y-94812034D01*
X143213973Y-94742197D01*
X143246279Y-94685798D01*
X143329816Y-94602262D01*
X143425789Y-94449522D01*
X143485368Y-94279255D01*
X143499985Y-94149523D01*
X143505565Y-94100003D01*
X143505565Y-94099996D01*
X143485369Y-93920750D01*
X143485368Y-93920745D01*
X143473001Y-93885403D01*
X143443116Y-93799996D01*
X149294435Y-93799996D01*
X149294435Y-93800003D01*
X149314630Y-93979249D01*
X149314631Y-93979254D01*
X149374211Y-94149523D01*
X149455724Y-94279249D01*
X149470184Y-94302262D01*
X149597738Y-94429816D01*
X149688080Y-94486582D01*
X149743494Y-94521401D01*
X149750478Y-94525789D01*
X149920745Y-94585368D01*
X149920750Y-94585369D01*
X150099996Y-94605565D01*
X150100000Y-94605565D01*
X150100004Y-94605565D01*
X150279249Y-94585369D01*
X150279252Y-94585368D01*
X150279255Y-94585368D01*
X150449522Y-94525789D01*
X150602262Y-94429816D01*
X150729816Y-94302262D01*
X150825789Y-94149522D01*
X150885368Y-93979255D01*
X150891960Y-93920750D01*
X150905565Y-93800003D01*
X150905565Y-93799996D01*
X150885369Y-93620750D01*
X150885368Y-93620745D01*
X150825789Y-93450478D01*
X150729816Y-93297738D01*
X150602262Y-93170184D01*
X150449523Y-93074211D01*
X150279254Y-93014631D01*
X150279249Y-93014630D01*
X150100004Y-92994435D01*
X150099996Y-92994435D01*
X149920750Y-93014630D01*
X149920745Y-93014631D01*
X149750476Y-93074211D01*
X149597737Y-93170184D01*
X149470184Y-93297737D01*
X149374211Y-93450476D01*
X149314631Y-93620745D01*
X149314630Y-93620750D01*
X149294435Y-93799996D01*
X143443116Y-93799996D01*
X143425789Y-93750478D01*
X143403265Y-93714632D01*
X143329815Y-93597737D01*
X143202262Y-93470184D01*
X143049523Y-93374211D01*
X142879254Y-93314631D01*
X142879249Y-93314630D01*
X142700004Y-93294435D01*
X142699996Y-93294435D01*
X142520750Y-93314630D01*
X142520745Y-93314631D01*
X142350476Y-93374211D01*
X142197737Y-93470184D01*
X142070184Y-93597737D01*
X141974209Y-93750479D01*
X141960236Y-93790413D01*
X141919514Y-93847188D01*
X141854561Y-93872935D01*
X141785999Y-93859478D01*
X141777223Y-93854451D01*
X141649523Y-93774211D01*
X141479254Y-93714631D01*
X141479249Y-93714630D01*
X141300004Y-93694435D01*
X141299996Y-93694435D01*
X141120750Y-93714630D01*
X141120745Y-93714631D01*
X140950476Y-93774211D01*
X140797737Y-93870184D01*
X140670184Y-93997737D01*
X140574211Y-94150476D01*
X140514631Y-94320745D01*
X140514630Y-94320750D01*
X140494435Y-94499996D01*
X139623483Y-94499996D01*
X139744035Y-94327830D01*
X139843903Y-94113663D01*
X139905063Y-93885408D01*
X139925659Y-93650000D01*
X139905063Y-93414592D01*
X139843903Y-93186337D01*
X139744035Y-92972171D01*
X139608495Y-92778599D01*
X139608494Y-92778597D01*
X139529893Y-92699996D01*
X158194435Y-92699996D01*
X158194435Y-92700003D01*
X158214630Y-92879249D01*
X158214631Y-92879254D01*
X158274211Y-93049523D01*
X158289724Y-93074211D01*
X158370184Y-93202262D01*
X158497738Y-93329816D01*
X158568392Y-93374211D01*
X158632648Y-93414586D01*
X158650478Y-93425789D01*
X158777352Y-93470184D01*
X158820745Y-93485368D01*
X158820750Y-93485369D01*
X158999996Y-93505565D01*
X159000000Y-93505565D01*
X159000004Y-93505565D01*
X159179249Y-93485369D01*
X159179252Y-93485368D01*
X159179255Y-93485368D01*
X159349522Y-93425789D01*
X159502262Y-93329816D01*
X159629816Y-93202262D01*
X159725789Y-93049522D01*
X159785368Y-92879255D01*
X159796709Y-92778599D01*
X159805565Y-92700003D01*
X159805565Y-92699996D01*
X159785369Y-92520750D01*
X159785368Y-92520745D01*
X159765811Y-92464855D01*
X159725789Y-92350478D01*
X159629816Y-92197738D01*
X159502262Y-92070184D01*
X159469379Y-92049522D01*
X159349523Y-91974211D01*
X159179254Y-91914631D01*
X159179249Y-91914630D01*
X159000004Y-91894435D01*
X158999996Y-91894435D01*
X158820750Y-91914630D01*
X158820745Y-91914631D01*
X158650476Y-91974211D01*
X158497737Y-92070184D01*
X158370184Y-92197737D01*
X158274211Y-92350476D01*
X158214631Y-92520745D01*
X158214630Y-92520750D01*
X158194435Y-92699996D01*
X139529893Y-92699996D01*
X139441402Y-92611506D01*
X139441396Y-92611501D01*
X139255842Y-92481575D01*
X139212217Y-92426998D01*
X139205023Y-92357500D01*
X139236546Y-92295145D01*
X139255842Y-92278425D01*
X139278026Y-92262891D01*
X139441401Y-92148495D01*
X139608495Y-91981401D01*
X139744035Y-91787830D01*
X139784993Y-91699996D01*
X143494435Y-91699996D01*
X143494435Y-91700003D01*
X143514630Y-91879249D01*
X143514631Y-91879254D01*
X143574211Y-92049523D01*
X143636400Y-92148495D01*
X143670184Y-92202262D01*
X143797738Y-92329816D01*
X143950478Y-92425789D01*
X144093873Y-92475965D01*
X144120745Y-92485368D01*
X144120750Y-92485369D01*
X144299996Y-92505565D01*
X144300000Y-92505565D01*
X144300004Y-92505565D01*
X144479249Y-92485369D01*
X144479252Y-92485368D01*
X144479255Y-92485368D01*
X144649522Y-92425789D01*
X144802262Y-92329816D01*
X144929816Y-92202262D01*
X145025789Y-92049522D01*
X145085368Y-91879255D01*
X145085369Y-91879249D01*
X145094299Y-91799996D01*
X148094435Y-91799996D01*
X148094435Y-91800003D01*
X148114630Y-91979249D01*
X148114631Y-91979254D01*
X148174211Y-92149523D01*
X148224662Y-92229815D01*
X148270184Y-92302262D01*
X148397738Y-92429816D01*
X148453502Y-92464855D01*
X148542450Y-92520745D01*
X148550478Y-92525789D01*
X148720745Y-92585368D01*
X148720750Y-92585369D01*
X148899996Y-92605565D01*
X148900000Y-92605565D01*
X148900004Y-92605565D01*
X149079249Y-92585369D01*
X149079252Y-92585368D01*
X149079255Y-92585368D01*
X149249522Y-92525789D01*
X149402262Y-92429816D01*
X149529816Y-92302262D01*
X149625789Y-92149522D01*
X149685368Y-91979255D01*
X149685369Y-91979249D01*
X149705565Y-91800003D01*
X149705565Y-91799996D01*
X149685369Y-91620750D01*
X149685368Y-91620745D01*
X149678108Y-91599996D01*
X151894435Y-91599996D01*
X151894435Y-91600003D01*
X151914630Y-91779249D01*
X151914631Y-91779254D01*
X151974211Y-91949523D01*
X152037045Y-92049522D01*
X152070184Y-92102262D01*
X152197738Y-92229816D01*
X152350478Y-92325789D01*
X152441103Y-92357500D01*
X152520745Y-92385368D01*
X152520750Y-92385369D01*
X152699996Y-92405565D01*
X152700000Y-92405565D01*
X152700004Y-92405565D01*
X152879249Y-92385369D01*
X152879252Y-92385368D01*
X152879255Y-92385368D01*
X153049522Y-92325789D01*
X153202262Y-92229816D01*
X153329816Y-92102262D01*
X153425789Y-91949522D01*
X153485368Y-91779255D01*
X153485369Y-91779249D01*
X153505565Y-91600003D01*
X153505565Y-91599996D01*
X153485369Y-91420750D01*
X153485368Y-91420745D01*
X153425789Y-91250478D01*
X153329816Y-91097738D01*
X153202262Y-90970184D01*
X153113852Y-90914632D01*
X153049523Y-90874211D01*
X152879254Y-90814631D01*
X152879249Y-90814630D01*
X152700004Y-90794435D01*
X152699996Y-90794435D01*
X152520750Y-90814630D01*
X152520745Y-90814631D01*
X152350476Y-90874211D01*
X152197737Y-90970184D01*
X152070184Y-91097737D01*
X151974211Y-91250476D01*
X151914631Y-91420745D01*
X151914630Y-91420750D01*
X151894435Y-91599996D01*
X149678108Y-91599996D01*
X149625788Y-91450476D01*
X149562955Y-91350478D01*
X149529816Y-91297738D01*
X149402262Y-91170184D01*
X149306480Y-91110000D01*
X149249523Y-91074211D01*
X149079254Y-91014631D01*
X149079249Y-91014630D01*
X148900004Y-90994435D01*
X148899996Y-90994435D01*
X148720750Y-91014630D01*
X148720745Y-91014631D01*
X148550476Y-91074211D01*
X148397737Y-91170184D01*
X148270184Y-91297737D01*
X148174211Y-91450476D01*
X148114631Y-91620745D01*
X148114630Y-91620750D01*
X148094435Y-91799996D01*
X145094299Y-91799996D01*
X145105565Y-91700003D01*
X145105565Y-91699996D01*
X145085369Y-91520750D01*
X145085368Y-91520745D01*
X145025789Y-91350478D01*
X145022606Y-91345413D01*
X144962955Y-91250478D01*
X144929816Y-91197738D01*
X144802262Y-91070184D01*
X144713852Y-91014632D01*
X144649523Y-90974211D01*
X144479254Y-90914631D01*
X144479249Y-90914630D01*
X144300004Y-90894435D01*
X144299996Y-90894435D01*
X144120750Y-90914630D01*
X144120745Y-90914631D01*
X143950476Y-90974211D01*
X143797737Y-91070184D01*
X143670184Y-91197737D01*
X143574211Y-91350476D01*
X143514631Y-91520745D01*
X143514630Y-91520750D01*
X143494435Y-91699996D01*
X139784993Y-91699996D01*
X139843903Y-91573663D01*
X139905063Y-91345408D01*
X139925659Y-91110000D01*
X139905063Y-90874592D01*
X139843903Y-90646337D01*
X139744035Y-90432171D01*
X139608495Y-90238599D01*
X139608494Y-90238597D01*
X139441402Y-90071506D01*
X139441396Y-90071501D01*
X139255842Y-89941575D01*
X139212217Y-89886998D01*
X139205023Y-89817500D01*
X139236546Y-89755145D01*
X139255842Y-89738425D01*
X139278026Y-89722891D01*
X139441401Y-89608495D01*
X139608495Y-89441401D01*
X139744035Y-89247830D01*
X139843903Y-89033663D01*
X139905063Y-88805408D01*
X139925659Y-88570000D01*
X139905063Y-88334592D01*
X139843903Y-88106337D01*
X139744035Y-87892171D01*
X139608495Y-87698599D01*
X139608494Y-87698597D01*
X139441402Y-87531506D01*
X139441396Y-87531501D01*
X139255842Y-87401575D01*
X139212217Y-87346998D01*
X139205023Y-87277500D01*
X139236546Y-87215145D01*
X139255842Y-87198425D01*
X139278026Y-87182891D01*
X139441401Y-87068495D01*
X139608495Y-86901401D01*
X139744035Y-86707830D01*
X139843903Y-86493663D01*
X139848905Y-86474995D01*
X141894435Y-86474995D01*
X141894435Y-86475002D01*
X141914630Y-86654248D01*
X141914631Y-86654253D01*
X141974211Y-86824522D01*
X142070184Y-86977261D01*
X142197738Y-87104815D01*
X142350478Y-87200788D01*
X142499697Y-87253002D01*
X142520745Y-87260367D01*
X142520750Y-87260368D01*
X142699996Y-87280564D01*
X142700000Y-87280564D01*
X142700004Y-87280564D01*
X142879249Y-87260368D01*
X142879252Y-87260367D01*
X142879255Y-87260367D01*
X143049522Y-87200788D01*
X143202262Y-87104815D01*
X143329816Y-86977261D01*
X143425789Y-86824521D01*
X143485368Y-86654254D01*
X143485369Y-86654248D01*
X143505565Y-86475002D01*
X143505565Y-86474995D01*
X143485369Y-86295749D01*
X143485368Y-86295744D01*
X143474751Y-86265403D01*
X143425789Y-86125477D01*
X143329816Y-85972737D01*
X143202262Y-85845183D01*
X143049523Y-85749210D01*
X142879254Y-85689630D01*
X142879249Y-85689629D01*
X142700004Y-85669434D01*
X142699996Y-85669434D01*
X142520750Y-85689629D01*
X142520745Y-85689630D01*
X142350476Y-85749210D01*
X142197737Y-85845183D01*
X142070184Y-85972736D01*
X141974211Y-86125475D01*
X141914631Y-86295744D01*
X141914630Y-86295749D01*
X141894435Y-86474995D01*
X139848905Y-86474995D01*
X139905063Y-86265408D01*
X139925659Y-86030000D01*
X139905063Y-85794592D01*
X139843903Y-85566337D01*
X139744035Y-85352171D01*
X139712789Y-85307546D01*
X139608494Y-85158597D01*
X139441402Y-84991506D01*
X139441396Y-84991501D01*
X139255842Y-84861575D01*
X139212217Y-84806998D01*
X139205023Y-84737500D01*
X139236546Y-84675145D01*
X139255842Y-84658425D01*
X139339281Y-84600000D01*
X139441401Y-84528495D01*
X139608495Y-84361401D01*
X139744035Y-84167830D01*
X139843903Y-83953663D01*
X139905063Y-83725408D01*
X139925659Y-83490000D01*
X139905063Y-83254592D01*
X139891007Y-83202135D01*
X144839500Y-83202135D01*
X144839500Y-84997870D01*
X144839501Y-84997876D01*
X144845908Y-85057483D01*
X144896202Y-85192328D01*
X144896206Y-85192335D01*
X144982452Y-85307544D01*
X144982455Y-85307547D01*
X145097664Y-85393793D01*
X145097671Y-85393797D01*
X145232517Y-85444091D01*
X145232516Y-85444091D01*
X145239444Y-85444835D01*
X145292127Y-85450500D01*
X147087872Y-85450499D01*
X147147483Y-85444091D01*
X147282331Y-85393796D01*
X147397546Y-85307546D01*
X147483796Y-85192331D01*
X147532810Y-85060916D01*
X147574681Y-85004984D01*
X147640145Y-84980566D01*
X147708418Y-84995417D01*
X147736673Y-85016569D01*
X147858599Y-85138495D01*
X147955384Y-85206265D01*
X148052165Y-85274032D01*
X148052167Y-85274033D01*
X148052170Y-85274035D01*
X148266337Y-85373903D01*
X148494592Y-85435063D01*
X148671034Y-85450500D01*
X148729999Y-85455659D01*
X148730000Y-85455659D01*
X148730001Y-85455659D01*
X148788966Y-85450500D01*
X148965408Y-85435063D01*
X149193663Y-85373903D01*
X149407830Y-85274035D01*
X149601401Y-85138495D01*
X149768495Y-84971401D01*
X149898425Y-84785842D01*
X149953002Y-84742217D01*
X150022500Y-84735023D01*
X150084855Y-84766546D01*
X150101575Y-84785842D01*
X150231281Y-84971082D01*
X150231505Y-84971401D01*
X150398599Y-85138495D01*
X150495384Y-85206265D01*
X150592165Y-85274032D01*
X150592167Y-85274033D01*
X150592170Y-85274035D01*
X150806337Y-85373903D01*
X151034592Y-85435063D01*
X151211034Y-85450500D01*
X151269999Y-85455659D01*
X151270000Y-85455659D01*
X151270001Y-85455659D01*
X151328966Y-85450500D01*
X151505408Y-85435063D01*
X151731572Y-85374463D01*
X151801420Y-85376126D01*
X151859283Y-85415289D01*
X151886787Y-85479517D01*
X151876098Y-85543760D01*
X151876511Y-85543905D01*
X151875678Y-85546285D01*
X151875387Y-85548035D01*
X151874211Y-85550475D01*
X151814631Y-85720745D01*
X151814630Y-85720750D01*
X151794435Y-85899996D01*
X151794435Y-85900003D01*
X151814630Y-86079249D01*
X151814631Y-86079254D01*
X151874211Y-86249523D01*
X151903254Y-86295744D01*
X151970184Y-86402262D01*
X152097738Y-86529816D01*
X152250478Y-86625789D01*
X152420745Y-86685368D01*
X152420750Y-86685369D01*
X152599996Y-86705565D01*
X152600000Y-86705565D01*
X152600004Y-86705565D01*
X152779249Y-86685369D01*
X152779252Y-86685368D01*
X152779255Y-86685368D01*
X152949522Y-86625789D01*
X153102262Y-86529816D01*
X153229816Y-86402262D01*
X153325789Y-86249522D01*
X153385368Y-86079255D01*
X153405565Y-85900000D01*
X153393688Y-85794592D01*
X153385369Y-85720750D01*
X153385368Y-85720745D01*
X153332774Y-85570440D01*
X153329213Y-85500661D01*
X153363942Y-85440033D01*
X153425935Y-85407806D01*
X153481909Y-85409710D01*
X153560000Y-85430634D01*
X153560000Y-84533012D01*
X153617007Y-84565925D01*
X153744174Y-84600000D01*
X153875826Y-84600000D01*
X154002993Y-84565925D01*
X154060000Y-84533012D01*
X154060000Y-85430633D01*
X154273483Y-85373433D01*
X154273492Y-85373429D01*
X154487578Y-85273600D01*
X154681082Y-85138105D01*
X154848105Y-84971082D01*
X154983600Y-84777578D01*
X155083429Y-84563492D01*
X155083432Y-84563486D01*
X155140636Y-84350000D01*
X154243012Y-84350000D01*
X154275925Y-84292993D01*
X154310000Y-84165826D01*
X154310000Y-84034174D01*
X154275925Y-83907007D01*
X154243012Y-83850000D01*
X155140636Y-83850000D01*
X155140635Y-83849999D01*
X155083432Y-83636513D01*
X155083429Y-83636507D01*
X154983600Y-83422422D01*
X154983599Y-83422420D01*
X154848113Y-83228926D01*
X154848108Y-83228920D01*
X154681082Y-83061894D01*
X154487578Y-82926399D01*
X154273492Y-82826570D01*
X154273486Y-82826567D01*
X154060000Y-82769364D01*
X154060000Y-83666988D01*
X154002993Y-83634075D01*
X153875826Y-83600000D01*
X153744174Y-83600000D01*
X153617007Y-83634075D01*
X153560000Y-83666988D01*
X153560000Y-82769364D01*
X153559999Y-82769364D01*
X153346513Y-82826567D01*
X153346507Y-82826570D01*
X153132422Y-82926399D01*
X153132420Y-82926400D01*
X152938926Y-83061886D01*
X152938920Y-83061891D01*
X152771891Y-83228920D01*
X152771890Y-83228922D01*
X152641880Y-83414595D01*
X152587303Y-83458219D01*
X152517804Y-83465412D01*
X152455450Y-83433890D01*
X152438730Y-83414594D01*
X152308494Y-83228597D01*
X152141402Y-83061506D01*
X152141395Y-83061501D01*
X151947834Y-82925967D01*
X151947830Y-82925965D01*
X151947828Y-82925964D01*
X151733663Y-82826097D01*
X151733659Y-82826096D01*
X151733655Y-82826094D01*
X151505413Y-82764938D01*
X151505403Y-82764936D01*
X151270001Y-82744341D01*
X151269999Y-82744341D01*
X151034596Y-82764936D01*
X151034586Y-82764938D01*
X150806344Y-82826094D01*
X150806335Y-82826098D01*
X150592171Y-82925964D01*
X150592169Y-82925965D01*
X150398597Y-83061505D01*
X150231505Y-83228597D01*
X150101575Y-83414158D01*
X150046998Y-83457783D01*
X149977500Y-83464977D01*
X149915145Y-83433454D01*
X149898425Y-83414158D01*
X149768494Y-83228597D01*
X149601402Y-83061506D01*
X149601395Y-83061501D01*
X149407834Y-82925967D01*
X149407830Y-82925965D01*
X149407828Y-82925964D01*
X149193663Y-82826097D01*
X149193659Y-82826096D01*
X149193655Y-82826094D01*
X148965413Y-82764938D01*
X148965403Y-82764936D01*
X148730001Y-82744341D01*
X148729999Y-82744341D01*
X148494596Y-82764936D01*
X148494586Y-82764938D01*
X148266344Y-82826094D01*
X148266335Y-82826098D01*
X148052171Y-82925964D01*
X148052169Y-82925965D01*
X147858600Y-83061503D01*
X147736673Y-83183430D01*
X147675350Y-83216914D01*
X147605658Y-83211930D01*
X147549725Y-83170058D01*
X147532810Y-83139081D01*
X147483797Y-83007671D01*
X147483793Y-83007664D01*
X147397547Y-82892455D01*
X147397544Y-82892452D01*
X147282335Y-82806206D01*
X147282328Y-82806202D01*
X147147482Y-82755908D01*
X147147483Y-82755908D01*
X147087883Y-82749501D01*
X147087881Y-82749500D01*
X147087873Y-82749500D01*
X147087864Y-82749500D01*
X145292129Y-82749500D01*
X145292123Y-82749501D01*
X145232516Y-82755908D01*
X145097671Y-82806202D01*
X145097664Y-82806206D01*
X144982455Y-82892452D01*
X144982452Y-82892455D01*
X144896206Y-83007664D01*
X144896202Y-83007671D01*
X144845908Y-83142517D01*
X144839501Y-83202116D01*
X144839500Y-83202135D01*
X139891007Y-83202135D01*
X139843903Y-83026337D01*
X139744035Y-82812171D01*
X139739859Y-82806206D01*
X139608494Y-82618597D01*
X139441402Y-82451506D01*
X139441396Y-82451501D01*
X139255842Y-82321575D01*
X139212217Y-82266998D01*
X139205023Y-82197500D01*
X139236546Y-82135145D01*
X139255842Y-82118425D01*
X139278026Y-82102891D01*
X139441401Y-81988495D01*
X139608495Y-81821401D01*
X139744035Y-81627830D01*
X139843903Y-81413663D01*
X139905063Y-81185408D01*
X139925659Y-80950000D01*
X139905063Y-80714592D01*
X139843903Y-80486337D01*
X139744035Y-80272171D01*
X139608495Y-80078599D01*
X139608494Y-80078597D01*
X139441402Y-79911506D01*
X139441401Y-79911505D01*
X139255405Y-79781269D01*
X139211781Y-79726692D01*
X139204588Y-79657193D01*
X139236110Y-79594839D01*
X139255405Y-79578119D01*
X139441082Y-79448105D01*
X139608105Y-79281082D01*
X139743600Y-79087578D01*
X139843429Y-78873492D01*
X139843432Y-78873486D01*
X139900636Y-78660000D01*
X139003012Y-78660000D01*
X139035925Y-78602993D01*
X139070000Y-78475826D01*
X139070000Y-78409999D01*
X160074341Y-78409999D01*
X160074341Y-78410000D01*
X160094936Y-78645403D01*
X160094938Y-78645413D01*
X160156094Y-78873655D01*
X160156096Y-78873659D01*
X160156097Y-78873663D01*
X160255847Y-79087578D01*
X160255965Y-79087830D01*
X160255967Y-79087834D01*
X160391501Y-79281395D01*
X160391506Y-79281402D01*
X160558597Y-79448493D01*
X160558603Y-79448498D01*
X160744158Y-79578425D01*
X160787783Y-79633002D01*
X160794977Y-79702500D01*
X160763454Y-79764855D01*
X160744158Y-79781575D01*
X160558597Y-79911505D01*
X160391505Y-80078597D01*
X160255965Y-80272169D01*
X160255964Y-80272171D01*
X160156098Y-80486335D01*
X160156094Y-80486344D01*
X160094938Y-80714586D01*
X160094936Y-80714596D01*
X160074341Y-80949999D01*
X160074341Y-80950000D01*
X160094936Y-81185403D01*
X160094938Y-81185413D01*
X160156094Y-81413655D01*
X160156096Y-81413659D01*
X160156097Y-81413663D01*
X160255965Y-81627830D01*
X160255967Y-81627834D01*
X160391501Y-81821395D01*
X160391506Y-81821402D01*
X160558597Y-81988493D01*
X160558603Y-81988498D01*
X160744158Y-82118425D01*
X160787783Y-82173002D01*
X160794977Y-82242500D01*
X160763454Y-82304855D01*
X160744158Y-82321575D01*
X160558597Y-82451505D01*
X160391505Y-82618597D01*
X160255965Y-82812169D01*
X160255964Y-82812171D01*
X160156098Y-83026335D01*
X160156094Y-83026344D01*
X160094938Y-83254586D01*
X160094936Y-83254596D01*
X160074341Y-83489999D01*
X160074341Y-83490000D01*
X160094936Y-83725403D01*
X160094938Y-83725413D01*
X160156094Y-83953655D01*
X160156096Y-83953659D01*
X160156097Y-83953663D01*
X160193640Y-84034174D01*
X160255965Y-84167830D01*
X160255967Y-84167834D01*
X160343605Y-84292993D01*
X160373304Y-84335408D01*
X160391501Y-84361395D01*
X160391506Y-84361402D01*
X160558597Y-84528493D01*
X160558603Y-84528498D01*
X160744158Y-84658425D01*
X160787783Y-84713002D01*
X160794977Y-84782500D01*
X160763454Y-84844855D01*
X160744158Y-84861575D01*
X160558597Y-84991505D01*
X160391505Y-85158597D01*
X160255965Y-85352169D01*
X160255964Y-85352171D01*
X160156098Y-85566335D01*
X160156094Y-85566344D01*
X160094938Y-85794586D01*
X160094936Y-85794596D01*
X160074341Y-86029999D01*
X160074341Y-86030000D01*
X160094936Y-86265403D01*
X160094938Y-86265413D01*
X160156094Y-86493655D01*
X160156096Y-86493659D01*
X160156097Y-86493663D01*
X160217708Y-86625788D01*
X160255965Y-86707830D01*
X160255967Y-86707834D01*
X160391501Y-86901395D01*
X160391506Y-86901402D01*
X160558597Y-87068493D01*
X160558603Y-87068498D01*
X160744158Y-87198425D01*
X160787783Y-87253002D01*
X160794977Y-87322500D01*
X160763454Y-87384855D01*
X160744158Y-87401575D01*
X160558597Y-87531505D01*
X160391505Y-87698597D01*
X160255965Y-87892169D01*
X160255964Y-87892171D01*
X160156098Y-88106335D01*
X160156094Y-88106344D01*
X160094938Y-88334586D01*
X160094936Y-88334596D01*
X160074341Y-88569999D01*
X160074341Y-88570000D01*
X160094936Y-88805403D01*
X160094938Y-88805413D01*
X160156094Y-89033655D01*
X160156096Y-89033659D01*
X160156097Y-89033663D01*
X160255965Y-89247830D01*
X160255967Y-89247834D01*
X160391501Y-89441395D01*
X160391506Y-89441402D01*
X160558597Y-89608493D01*
X160558603Y-89608498D01*
X160744158Y-89738425D01*
X160787783Y-89793002D01*
X160794977Y-89862500D01*
X160763454Y-89924855D01*
X160744158Y-89941575D01*
X160558597Y-90071505D01*
X160391505Y-90238597D01*
X160255965Y-90432169D01*
X160255964Y-90432171D01*
X160156098Y-90646335D01*
X160156094Y-90646344D01*
X160094938Y-90874586D01*
X160094936Y-90874596D01*
X160074341Y-91109999D01*
X160074341Y-91110000D01*
X160094936Y-91345403D01*
X160094938Y-91345413D01*
X160156094Y-91573655D01*
X160156096Y-91573659D01*
X160156097Y-91573663D01*
X160251964Y-91779249D01*
X160255965Y-91787830D01*
X160255967Y-91787834D01*
X160344751Y-91914630D01*
X160390002Y-91979255D01*
X160391501Y-91981395D01*
X160391506Y-91981402D01*
X160558597Y-92148493D01*
X160558603Y-92148498D01*
X160744158Y-92278425D01*
X160787783Y-92333002D01*
X160794977Y-92402500D01*
X160763454Y-92464855D01*
X160744158Y-92481575D01*
X160558597Y-92611505D01*
X160391505Y-92778597D01*
X160255965Y-92972169D01*
X160255964Y-92972171D01*
X160156098Y-93186335D01*
X160156094Y-93186344D01*
X160094938Y-93414586D01*
X160094936Y-93414596D01*
X160074341Y-93649999D01*
X160074341Y-93650000D01*
X160094936Y-93885403D01*
X160094938Y-93885413D01*
X160156094Y-94113655D01*
X160156096Y-94113659D01*
X160156097Y-94113663D01*
X160233311Y-94279249D01*
X160255965Y-94327830D01*
X160255967Y-94327834D01*
X160391501Y-94521395D01*
X160391506Y-94521402D01*
X160558597Y-94688493D01*
X160558603Y-94688498D01*
X160744158Y-94818425D01*
X160787783Y-94873002D01*
X160794977Y-94942500D01*
X160763454Y-95004855D01*
X160744158Y-95021575D01*
X160558597Y-95151505D01*
X160391505Y-95318597D01*
X160255965Y-95512169D01*
X160255964Y-95512171D01*
X160156098Y-95726335D01*
X160156094Y-95726344D01*
X160094938Y-95954586D01*
X160094936Y-95954596D01*
X160074341Y-96189999D01*
X160074341Y-96190000D01*
X160094936Y-96425403D01*
X160094938Y-96425413D01*
X160156094Y-96653655D01*
X160156096Y-96653659D01*
X160156097Y-96653663D01*
X160236361Y-96825789D01*
X160255965Y-96867830D01*
X160255967Y-96867834D01*
X160391501Y-97061395D01*
X160391506Y-97061402D01*
X160558597Y-97228493D01*
X160558603Y-97228498D01*
X160744158Y-97358425D01*
X160787783Y-97413002D01*
X160794977Y-97482500D01*
X160763454Y-97544855D01*
X160744158Y-97561575D01*
X160558597Y-97691505D01*
X160391505Y-97858597D01*
X160255965Y-98052169D01*
X160255964Y-98052171D01*
X160156098Y-98266335D01*
X160156094Y-98266344D01*
X160094938Y-98494586D01*
X160094936Y-98494596D01*
X160074341Y-98729999D01*
X160074341Y-98730000D01*
X160094936Y-98965403D01*
X160094938Y-98965413D01*
X160156094Y-99193655D01*
X160156096Y-99193659D01*
X160156097Y-99193663D01*
X160214797Y-99319545D01*
X160255965Y-99407830D01*
X160255967Y-99407834D01*
X160391501Y-99601395D01*
X160391506Y-99601402D01*
X160558597Y-99768493D01*
X160558603Y-99768498D01*
X160744158Y-99898425D01*
X160787783Y-99953002D01*
X160794977Y-100022500D01*
X160763454Y-100084855D01*
X160744158Y-100101575D01*
X160558597Y-100231505D01*
X160391505Y-100398597D01*
X160255965Y-100592169D01*
X160255964Y-100592171D01*
X160156098Y-100806335D01*
X160156094Y-100806344D01*
X160094938Y-101034586D01*
X160094936Y-101034596D01*
X160074341Y-101269999D01*
X160074341Y-101270000D01*
X160094936Y-101505403D01*
X160094938Y-101505413D01*
X160156094Y-101733655D01*
X160156096Y-101733659D01*
X160156097Y-101733663D01*
X160200934Y-101829815D01*
X160255965Y-101947830D01*
X160255967Y-101947834D01*
X160391501Y-102141395D01*
X160391506Y-102141402D01*
X160558597Y-102308493D01*
X160558603Y-102308498D01*
X160744158Y-102438425D01*
X160787783Y-102493002D01*
X160794977Y-102562500D01*
X160763454Y-102624855D01*
X160744158Y-102641575D01*
X160558597Y-102771505D01*
X160391505Y-102938597D01*
X160255965Y-103132169D01*
X160255964Y-103132171D01*
X160156098Y-103346335D01*
X160156094Y-103346344D01*
X160094938Y-103574586D01*
X160094936Y-103574596D01*
X160074341Y-103809999D01*
X160074341Y-103810000D01*
X160094936Y-104045403D01*
X160094938Y-104045413D01*
X160156094Y-104273655D01*
X160156096Y-104273659D01*
X160156097Y-104273663D01*
X160221831Y-104414630D01*
X160255965Y-104487830D01*
X160255967Y-104487834D01*
X160391501Y-104681395D01*
X160391506Y-104681402D01*
X160558597Y-104848493D01*
X160558603Y-104848498D01*
X160744158Y-104978425D01*
X160787783Y-105033002D01*
X160794977Y-105102500D01*
X160763454Y-105164855D01*
X160744158Y-105181575D01*
X160558597Y-105311505D01*
X160391505Y-105478597D01*
X160255965Y-105672169D01*
X160255964Y-105672171D01*
X160156098Y-105886335D01*
X160156094Y-105886344D01*
X160094938Y-106114586D01*
X160094936Y-106114596D01*
X160074341Y-106349999D01*
X160074341Y-106350000D01*
X160094936Y-106585403D01*
X160094938Y-106585413D01*
X160156094Y-106813655D01*
X160156096Y-106813659D01*
X160156097Y-106813663D01*
X160210260Y-106929815D01*
X160255965Y-107027830D01*
X160255967Y-107027834D01*
X160391501Y-107221395D01*
X160391506Y-107221402D01*
X160558597Y-107388493D01*
X160558603Y-107388498D01*
X160744158Y-107518425D01*
X160787783Y-107573002D01*
X160794977Y-107642500D01*
X160763454Y-107704855D01*
X160744158Y-107721575D01*
X160558597Y-107851505D01*
X160391505Y-108018597D01*
X160255965Y-108212169D01*
X160255964Y-108212171D01*
X160156098Y-108426335D01*
X160156094Y-108426344D01*
X160094938Y-108654586D01*
X160094936Y-108654596D01*
X160074341Y-108889999D01*
X160074341Y-108890000D01*
X160094936Y-109125403D01*
X160094938Y-109125413D01*
X160156094Y-109353655D01*
X160156096Y-109353659D01*
X160156097Y-109353663D01*
X160255965Y-109567830D01*
X160255967Y-109567834D01*
X160391501Y-109761395D01*
X160391506Y-109761402D01*
X160558597Y-109928493D01*
X160558603Y-109928498D01*
X160744158Y-110058425D01*
X160787783Y-110113002D01*
X160794977Y-110182500D01*
X160763454Y-110244855D01*
X160744158Y-110261575D01*
X160558597Y-110391505D01*
X160391505Y-110558597D01*
X160255965Y-110752169D01*
X160255964Y-110752171D01*
X160156098Y-110966335D01*
X160156094Y-110966344D01*
X160094938Y-111194586D01*
X160094936Y-111194596D01*
X160074341Y-111429999D01*
X160074341Y-111430000D01*
X160094936Y-111665403D01*
X160094938Y-111665413D01*
X160156094Y-111893655D01*
X160156096Y-111893659D01*
X160156097Y-111893663D01*
X160205683Y-112000000D01*
X160255965Y-112107830D01*
X160255967Y-112107834D01*
X160349599Y-112241553D01*
X160373916Y-112276282D01*
X160391501Y-112301395D01*
X160391506Y-112301402D01*
X160558597Y-112468493D01*
X160558603Y-112468498D01*
X160744158Y-112598425D01*
X160787783Y-112653002D01*
X160794977Y-112722500D01*
X160763454Y-112784855D01*
X160744158Y-112801575D01*
X160558597Y-112931505D01*
X160391505Y-113098597D01*
X160255965Y-113292169D01*
X160255964Y-113292171D01*
X160156098Y-113506335D01*
X160156094Y-113506344D01*
X160094938Y-113734586D01*
X160094936Y-113734596D01*
X160074341Y-113969999D01*
X160074341Y-113970000D01*
X160094936Y-114205403D01*
X160094938Y-114205413D01*
X160156094Y-114433655D01*
X160156096Y-114433659D01*
X160156097Y-114433663D01*
X160196707Y-114520751D01*
X160255965Y-114647830D01*
X160255967Y-114647834D01*
X160391501Y-114841395D01*
X160391506Y-114841402D01*
X160558597Y-115008493D01*
X160558603Y-115008498D01*
X160744158Y-115138425D01*
X160787783Y-115193002D01*
X160794977Y-115262500D01*
X160763454Y-115324855D01*
X160744158Y-115341575D01*
X160558597Y-115471505D01*
X160391505Y-115638597D01*
X160255965Y-115832169D01*
X160255964Y-115832171D01*
X160156098Y-116046335D01*
X160156094Y-116046344D01*
X160094938Y-116274586D01*
X160094936Y-116274596D01*
X160074341Y-116509999D01*
X160074341Y-116510000D01*
X160094936Y-116745403D01*
X160094938Y-116745413D01*
X160156094Y-116973655D01*
X160156096Y-116973659D01*
X160156097Y-116973663D01*
X160199987Y-117067785D01*
X160255965Y-117187830D01*
X160255967Y-117187834D01*
X160391501Y-117381395D01*
X160391506Y-117381402D01*
X160558597Y-117548493D01*
X160558603Y-117548498D01*
X160744158Y-117678425D01*
X160787783Y-117733002D01*
X160794977Y-117802500D01*
X160763454Y-117864855D01*
X160744158Y-117881575D01*
X160558597Y-118011505D01*
X160391505Y-118178597D01*
X160255965Y-118372169D01*
X160255964Y-118372171D01*
X160156098Y-118586335D01*
X160156094Y-118586344D01*
X160094938Y-118814586D01*
X160094936Y-118814596D01*
X160074341Y-119049999D01*
X160074341Y-119050000D01*
X160094936Y-119285403D01*
X160094938Y-119285413D01*
X160156094Y-119513655D01*
X160156096Y-119513659D01*
X160156097Y-119513663D01*
X160196590Y-119600500D01*
X160255965Y-119727830D01*
X160255967Y-119727834D01*
X160391501Y-119921395D01*
X160391506Y-119921402D01*
X160558597Y-120088493D01*
X160558603Y-120088498D01*
X160744158Y-120218425D01*
X160787783Y-120273002D01*
X160794977Y-120342500D01*
X160763454Y-120404855D01*
X160744158Y-120421575D01*
X160558597Y-120551505D01*
X160391505Y-120718597D01*
X160255965Y-120912169D01*
X160255964Y-120912171D01*
X160156098Y-121126335D01*
X160156094Y-121126344D01*
X160094938Y-121354586D01*
X160094936Y-121354596D01*
X160074341Y-121589999D01*
X160074341Y-121590000D01*
X160094936Y-121825403D01*
X160094938Y-121825413D01*
X160156094Y-122053655D01*
X160156096Y-122053659D01*
X160156097Y-122053663D01*
X160188843Y-122123886D01*
X160255965Y-122267830D01*
X160255967Y-122267834D01*
X160304749Y-122337501D01*
X160391501Y-122461396D01*
X160391506Y-122461402D01*
X160513818Y-122583714D01*
X160547303Y-122645037D01*
X160542319Y-122714729D01*
X160500447Y-122770662D01*
X160469471Y-122787577D01*
X160337912Y-122836646D01*
X160337906Y-122836649D01*
X160222812Y-122922809D01*
X160222809Y-122922812D01*
X160136649Y-123037906D01*
X160136645Y-123037913D01*
X160086403Y-123172620D01*
X160086401Y-123172627D01*
X160080000Y-123232155D01*
X160080000Y-123880000D01*
X160996988Y-123880000D01*
X160964075Y-123937007D01*
X160930000Y-124064174D01*
X160930000Y-124195826D01*
X160964075Y-124322993D01*
X160996988Y-124380000D01*
X160080000Y-124380000D01*
X160080000Y-125027844D01*
X160086401Y-125087372D01*
X160086403Y-125087379D01*
X160136645Y-125222086D01*
X160136649Y-125222093D01*
X160222809Y-125337187D01*
X160222812Y-125337190D01*
X160337906Y-125423350D01*
X160337913Y-125423354D01*
X160472620Y-125473596D01*
X160472627Y-125473598D01*
X160532155Y-125479999D01*
X160532172Y-125480000D01*
X161180000Y-125480000D01*
X161180000Y-124563012D01*
X161237007Y-124595925D01*
X161364174Y-124630000D01*
X161495826Y-124630000D01*
X161622993Y-124595925D01*
X161680000Y-124563012D01*
X161680000Y-125480000D01*
X162327828Y-125480000D01*
X162327844Y-125479999D01*
X162387372Y-125473598D01*
X162387379Y-125473596D01*
X162522086Y-125423354D01*
X162522093Y-125423350D01*
X162637187Y-125337190D01*
X162637190Y-125337187D01*
X162723350Y-125222093D01*
X162723354Y-125222086D01*
X162773596Y-125087379D01*
X162773598Y-125087372D01*
X162779999Y-125027844D01*
X162780000Y-125027827D01*
X162780000Y-124380000D01*
X161863012Y-124380000D01*
X161895925Y-124322993D01*
X161930000Y-124195826D01*
X161930000Y-124064174D01*
X161895925Y-123937007D01*
X161863012Y-123880000D01*
X162780000Y-123880000D01*
X162780000Y-123232172D01*
X162779999Y-123232155D01*
X162773598Y-123172627D01*
X162773596Y-123172620D01*
X162723354Y-123037913D01*
X162723350Y-123037906D01*
X162637190Y-122922812D01*
X162637187Y-122922809D01*
X162522093Y-122836649D01*
X162522088Y-122836646D01*
X162390528Y-122787577D01*
X162334595Y-122745705D01*
X162310178Y-122680241D01*
X162325030Y-122611968D01*
X162346175Y-122583720D01*
X162468495Y-122461401D01*
X162604035Y-122267830D01*
X162703903Y-122053663D01*
X162765063Y-121825408D01*
X162785659Y-121590000D01*
X162765063Y-121354592D01*
X162703903Y-121126337D01*
X162604035Y-120912171D01*
X162468495Y-120718599D01*
X162468494Y-120718597D01*
X162301402Y-120551506D01*
X162301396Y-120551501D01*
X162115842Y-120421575D01*
X162072217Y-120366998D01*
X162065023Y-120297500D01*
X162096546Y-120235145D01*
X162115842Y-120218425D01*
X162269166Y-120111066D01*
X162301401Y-120088495D01*
X162468495Y-119921401D01*
X162604035Y-119727830D01*
X162703903Y-119513663D01*
X162765063Y-119285408D01*
X162785659Y-119050000D01*
X162784965Y-119042073D01*
X162776016Y-118939783D01*
X162765063Y-118814592D01*
X162703903Y-118586337D01*
X162604035Y-118372171D01*
X162575713Y-118331722D01*
X162468494Y-118178597D01*
X162301402Y-118011506D01*
X162301396Y-118011501D01*
X162115842Y-117881575D01*
X162072217Y-117826998D01*
X162065023Y-117757500D01*
X162096546Y-117695145D01*
X162115842Y-117678425D01*
X162155757Y-117650476D01*
X162301401Y-117548495D01*
X162468495Y-117381401D01*
X162604035Y-117187830D01*
X162703903Y-116973663D01*
X162765063Y-116745408D01*
X162785659Y-116510000D01*
X162765063Y-116274592D01*
X162703903Y-116046337D01*
X162604035Y-115832171D01*
X162599567Y-115825789D01*
X162468494Y-115638597D01*
X162301402Y-115471506D01*
X162301396Y-115471501D01*
X162115842Y-115341575D01*
X162072217Y-115286998D01*
X162065023Y-115217500D01*
X162096546Y-115155145D01*
X162115842Y-115138425D01*
X162138026Y-115122891D01*
X162301401Y-115008495D01*
X162468495Y-114841401D01*
X162604035Y-114647830D01*
X162703903Y-114433663D01*
X162765063Y-114205408D01*
X162785659Y-113970000D01*
X162765063Y-113734592D01*
X162703903Y-113506337D01*
X162604035Y-113292171D01*
X162561709Y-113231722D01*
X162468494Y-113098597D01*
X162301402Y-112931506D01*
X162301396Y-112931501D01*
X162115842Y-112801575D01*
X162072217Y-112746998D01*
X162065023Y-112677500D01*
X162096546Y-112615145D01*
X162115842Y-112598425D01*
X162210401Y-112532214D01*
X162301401Y-112468495D01*
X162468495Y-112301401D01*
X162604035Y-112107830D01*
X162703903Y-111893663D01*
X162765063Y-111665408D01*
X162785659Y-111430000D01*
X162765063Y-111194592D01*
X162703903Y-110966337D01*
X162604035Y-110752171D01*
X162497485Y-110600000D01*
X162468494Y-110558597D01*
X162301402Y-110391506D01*
X162301396Y-110391501D01*
X162115842Y-110261575D01*
X162072217Y-110206998D01*
X162065023Y-110137500D01*
X162096546Y-110075145D01*
X162115842Y-110058425D01*
X162138026Y-110042891D01*
X162301401Y-109928495D01*
X162468495Y-109761401D01*
X162604035Y-109567830D01*
X162703903Y-109353663D01*
X162765063Y-109125408D01*
X162785659Y-108890000D01*
X162765063Y-108654592D01*
X162703903Y-108426337D01*
X162604035Y-108212171D01*
X162580987Y-108179254D01*
X162468494Y-108018597D01*
X162301402Y-107851506D01*
X162301396Y-107851501D01*
X162115842Y-107721575D01*
X162072217Y-107666998D01*
X162065023Y-107597500D01*
X162096546Y-107535145D01*
X162115842Y-107518425D01*
X162145387Y-107497737D01*
X162301401Y-107388495D01*
X162468495Y-107221401D01*
X162604035Y-107027830D01*
X162703903Y-106813663D01*
X162765063Y-106585408D01*
X162785659Y-106350000D01*
X162765063Y-106114592D01*
X162713124Y-105920750D01*
X162703905Y-105886344D01*
X162703904Y-105886343D01*
X162703903Y-105886337D01*
X162604035Y-105672171D01*
X162571559Y-105625789D01*
X162468494Y-105478597D01*
X162301402Y-105311506D01*
X162301396Y-105311501D01*
X162115842Y-105181575D01*
X162072217Y-105126998D01*
X162065023Y-105057500D01*
X162096546Y-104995145D01*
X162115842Y-104978425D01*
X162157120Y-104949522D01*
X162301401Y-104848495D01*
X162468495Y-104681401D01*
X162604035Y-104487830D01*
X162703903Y-104273663D01*
X162765063Y-104045408D01*
X162785659Y-103810000D01*
X162765063Y-103574592D01*
X162703903Y-103346337D01*
X162604035Y-103132171D01*
X162566983Y-103079254D01*
X162468494Y-102938597D01*
X162301402Y-102771506D01*
X162301396Y-102771501D01*
X162115842Y-102641575D01*
X162072217Y-102586998D01*
X162065023Y-102517500D01*
X162096546Y-102455145D01*
X162115842Y-102438425D01*
X162173950Y-102397737D01*
X162301401Y-102308495D01*
X162468495Y-102141401D01*
X162604035Y-101947830D01*
X162703903Y-101733663D01*
X162765063Y-101505408D01*
X162785659Y-101270000D01*
X162765063Y-101034592D01*
X162703903Y-100806337D01*
X162604035Y-100592171D01*
X162602849Y-100590476D01*
X162468494Y-100398597D01*
X162301402Y-100231506D01*
X162301396Y-100231501D01*
X162115842Y-100101575D01*
X162072217Y-100046998D01*
X162065023Y-99977500D01*
X162096546Y-99915145D01*
X162115842Y-99898425D01*
X162210788Y-99831943D01*
X162301401Y-99768495D01*
X162468495Y-99601401D01*
X162604035Y-99407830D01*
X162703903Y-99193663D01*
X162765063Y-98965408D01*
X162785659Y-98730000D01*
X162765063Y-98494592D01*
X162703903Y-98266337D01*
X162604035Y-98052171D01*
X162564217Y-97995304D01*
X162468494Y-97858597D01*
X162301402Y-97691506D01*
X162301396Y-97691501D01*
X162115842Y-97561575D01*
X162072217Y-97506998D01*
X162065023Y-97437500D01*
X162096546Y-97375145D01*
X162115842Y-97358425D01*
X162138026Y-97342891D01*
X162301401Y-97228495D01*
X162468495Y-97061401D01*
X162604035Y-96867830D01*
X162703903Y-96653663D01*
X162765063Y-96425408D01*
X162785659Y-96190000D01*
X162765063Y-95954592D01*
X162718626Y-95781285D01*
X162703905Y-95726344D01*
X162703904Y-95726343D01*
X162703903Y-95726337D01*
X162604035Y-95512171D01*
X162593929Y-95497737D01*
X162468494Y-95318597D01*
X162301402Y-95151506D01*
X162301396Y-95151501D01*
X162115842Y-95021575D01*
X162072217Y-94966998D01*
X162065023Y-94897500D01*
X162096546Y-94835145D01*
X162115842Y-94818425D01*
X162219921Y-94745548D01*
X162301401Y-94688495D01*
X162468495Y-94521401D01*
X162604035Y-94327830D01*
X162703903Y-94113663D01*
X162765063Y-93885408D01*
X162785659Y-93650000D01*
X162765063Y-93414592D01*
X162703903Y-93186337D01*
X162604035Y-92972171D01*
X162468495Y-92778599D01*
X162468494Y-92778597D01*
X162301402Y-92611506D01*
X162301396Y-92611501D01*
X162115842Y-92481575D01*
X162072217Y-92426998D01*
X162065023Y-92357500D01*
X162096546Y-92295145D01*
X162115842Y-92278425D01*
X162138026Y-92262891D01*
X162301401Y-92148495D01*
X162468495Y-91981401D01*
X162604035Y-91787830D01*
X162703903Y-91573663D01*
X162765063Y-91345408D01*
X162785659Y-91110000D01*
X162765063Y-90874592D01*
X162703903Y-90646337D01*
X162604035Y-90432171D01*
X162468495Y-90238599D01*
X162468494Y-90238597D01*
X162301402Y-90071506D01*
X162301396Y-90071501D01*
X162115842Y-89941575D01*
X162072217Y-89886998D01*
X162065023Y-89817500D01*
X162096546Y-89755145D01*
X162115842Y-89738425D01*
X162138026Y-89722891D01*
X162301401Y-89608495D01*
X162468495Y-89441401D01*
X162604035Y-89247830D01*
X162703903Y-89033663D01*
X162765063Y-88805408D01*
X162785659Y-88570000D01*
X162765063Y-88334592D01*
X162703903Y-88106337D01*
X162604035Y-87892171D01*
X162468495Y-87698599D01*
X162468494Y-87698597D01*
X162301402Y-87531506D01*
X162301396Y-87531501D01*
X162115842Y-87401575D01*
X162072217Y-87346998D01*
X162065023Y-87277500D01*
X162096546Y-87215145D01*
X162115842Y-87198425D01*
X162138026Y-87182891D01*
X162301401Y-87068495D01*
X162468495Y-86901401D01*
X162604035Y-86707830D01*
X162703903Y-86493663D01*
X162765063Y-86265408D01*
X162785659Y-86030000D01*
X162765063Y-85794592D01*
X162703903Y-85566337D01*
X162604035Y-85352171D01*
X162572789Y-85307546D01*
X162468494Y-85158597D01*
X162301402Y-84991506D01*
X162301396Y-84991501D01*
X162115842Y-84861575D01*
X162072217Y-84806998D01*
X162065023Y-84737500D01*
X162096546Y-84675145D01*
X162115842Y-84658425D01*
X162199281Y-84600000D01*
X162301401Y-84528495D01*
X162468495Y-84361401D01*
X162604035Y-84167830D01*
X162703903Y-83953663D01*
X162765063Y-83725408D01*
X162785659Y-83490000D01*
X162765063Y-83254592D01*
X162703903Y-83026337D01*
X162604035Y-82812171D01*
X162599859Y-82806206D01*
X162468494Y-82618597D01*
X162301402Y-82451506D01*
X162301396Y-82451501D01*
X162115842Y-82321575D01*
X162072217Y-82266998D01*
X162065023Y-82197500D01*
X162096546Y-82135145D01*
X162115842Y-82118425D01*
X162138026Y-82102891D01*
X162301401Y-81988495D01*
X162468495Y-81821401D01*
X162604035Y-81627830D01*
X162703903Y-81413663D01*
X162765063Y-81185408D01*
X162785659Y-80950000D01*
X162765063Y-80714592D01*
X162703903Y-80486337D01*
X162604035Y-80272171D01*
X162468495Y-80078599D01*
X162468494Y-80078597D01*
X162301402Y-79911506D01*
X162301396Y-79911501D01*
X162115842Y-79781575D01*
X162072217Y-79726998D01*
X162065023Y-79657500D01*
X162096546Y-79595145D01*
X162115842Y-79578425D01*
X162138026Y-79562891D01*
X162301401Y-79448495D01*
X162468495Y-79281401D01*
X162604035Y-79087830D01*
X162703903Y-78873663D01*
X162765063Y-78645408D01*
X162785659Y-78410000D01*
X162765063Y-78174592D01*
X162703903Y-77946337D01*
X162604035Y-77732171D01*
X162468495Y-77538599D01*
X162468494Y-77538597D01*
X162301402Y-77371506D01*
X162301401Y-77371505D01*
X162115405Y-77241269D01*
X162071781Y-77186692D01*
X162064588Y-77117193D01*
X162096110Y-77054839D01*
X162115405Y-77038119D01*
X162301082Y-76908105D01*
X162468105Y-76741082D01*
X162603600Y-76547578D01*
X162703429Y-76333492D01*
X162703432Y-76333486D01*
X162760636Y-76120000D01*
X161863012Y-76120000D01*
X161895925Y-76062993D01*
X161930000Y-75935826D01*
X161930000Y-75804174D01*
X161895925Y-75677007D01*
X161863012Y-75620000D01*
X162760636Y-75620000D01*
X162760635Y-75619999D01*
X162703432Y-75406513D01*
X162703429Y-75406507D01*
X162603600Y-75192422D01*
X162603599Y-75192420D01*
X162468113Y-74998926D01*
X162468108Y-74998920D01*
X162301082Y-74831894D01*
X162107578Y-74696399D01*
X161893492Y-74596570D01*
X161893486Y-74596567D01*
X161680000Y-74539364D01*
X161680000Y-75436988D01*
X161622993Y-75404075D01*
X161495826Y-75370000D01*
X161364174Y-75370000D01*
X161237007Y-75404075D01*
X161180000Y-75436988D01*
X161180000Y-74539364D01*
X161179999Y-74539364D01*
X160966513Y-74596567D01*
X160966507Y-74596570D01*
X160752422Y-74696399D01*
X160752420Y-74696400D01*
X160558926Y-74831886D01*
X160558920Y-74831891D01*
X160391891Y-74998920D01*
X160391886Y-74998926D01*
X160256400Y-75192420D01*
X160256399Y-75192422D01*
X160156570Y-75406507D01*
X160156567Y-75406513D01*
X160099364Y-75619999D01*
X160099364Y-75620000D01*
X160996988Y-75620000D01*
X160964075Y-75677007D01*
X160930000Y-75804174D01*
X160930000Y-75935826D01*
X160964075Y-76062993D01*
X160996988Y-76120000D01*
X160099364Y-76120000D01*
X160156567Y-76333486D01*
X160156570Y-76333492D01*
X160256399Y-76547578D01*
X160391894Y-76741082D01*
X160558917Y-76908105D01*
X160744595Y-77038119D01*
X160788219Y-77092696D01*
X160795412Y-77162195D01*
X160763890Y-77224549D01*
X160744595Y-77241269D01*
X160558594Y-77371508D01*
X160391505Y-77538597D01*
X160255965Y-77732169D01*
X160255964Y-77732171D01*
X160156098Y-77946335D01*
X160156094Y-77946344D01*
X160094938Y-78174586D01*
X160094936Y-78174596D01*
X160074341Y-78409999D01*
X139070000Y-78409999D01*
X139070000Y-78344174D01*
X139035925Y-78217007D01*
X139003012Y-78160000D01*
X139900636Y-78160000D01*
X139900635Y-78159999D01*
X139843432Y-77946513D01*
X139843429Y-77946507D01*
X139743600Y-77732422D01*
X139743599Y-77732420D01*
X139608113Y-77538926D01*
X139608108Y-77538920D01*
X139485665Y-77416477D01*
X139452180Y-77355154D01*
X139457164Y-77285462D01*
X139499036Y-77229529D01*
X139530013Y-77212614D01*
X139662086Y-77163354D01*
X139662093Y-77163350D01*
X139777187Y-77077190D01*
X139777190Y-77077187D01*
X139863350Y-76962093D01*
X139863354Y-76962086D01*
X139913596Y-76827379D01*
X139913598Y-76827372D01*
X139919999Y-76767844D01*
X139920000Y-76767827D01*
X139920000Y-76120000D01*
X139003012Y-76120000D01*
X139035925Y-76062993D01*
X139070000Y-75935826D01*
X139070000Y-75804174D01*
X139035925Y-75677007D01*
X139003012Y-75620000D01*
X139920000Y-75620000D01*
X139920000Y-74972172D01*
X139919999Y-74972155D01*
X139913598Y-74912627D01*
X139913596Y-74912620D01*
X139863354Y-74777913D01*
X139863350Y-74777906D01*
X139777190Y-74662812D01*
X139777187Y-74662809D01*
X139662093Y-74576649D01*
X139662086Y-74576645D01*
X139527379Y-74526403D01*
X139527372Y-74526401D01*
X139467844Y-74520000D01*
X138820000Y-74520000D01*
X138820000Y-75436988D01*
X138762993Y-75404075D01*
X138635826Y-75370000D01*
X138504174Y-75370000D01*
X138377007Y-75404075D01*
X138320000Y-75436988D01*
X138320000Y-74520000D01*
X137672155Y-74520000D01*
X137612627Y-74526401D01*
X137612620Y-74526403D01*
X137477913Y-74576645D01*
X137477906Y-74576649D01*
X137362812Y-74662809D01*
X137362809Y-74662812D01*
X137276649Y-74777906D01*
X137276645Y-74777913D01*
X137226403Y-74912620D01*
X137226401Y-74912627D01*
X137220000Y-74972155D01*
X137220000Y-75620000D01*
X138136988Y-75620000D01*
X138104075Y-75677007D01*
X138070000Y-75804174D01*
X138070000Y-75935826D01*
X138104075Y-76062993D01*
X138136988Y-76120000D01*
X137220000Y-76120000D01*
X137220000Y-76767844D01*
X137226401Y-76827372D01*
X137226403Y-76827379D01*
X137276645Y-76962086D01*
X137276649Y-76962093D01*
X137362809Y-77077187D01*
X137362812Y-77077190D01*
X137477906Y-77163350D01*
X137477913Y-77163354D01*
X137609986Y-77212614D01*
X137665920Y-77254485D01*
X137690337Y-77319949D01*
X137675486Y-77388222D01*
X137654335Y-77416477D01*
X137531886Y-77538926D01*
X137396400Y-77732420D01*
X137396399Y-77732422D01*
X137296570Y-77946507D01*
X137296567Y-77946513D01*
X137239364Y-78159999D01*
X137239364Y-78160000D01*
X138136988Y-78160000D01*
X138104075Y-78217007D01*
X138070000Y-78344174D01*
X138070000Y-78475826D01*
X138104075Y-78602993D01*
X138136988Y-78660000D01*
X137239364Y-78660000D01*
X137296567Y-78873486D01*
X137296570Y-78873492D01*
X137396399Y-79087578D01*
X137531894Y-79281082D01*
X137698917Y-79448105D01*
X137884595Y-79578119D01*
X137928219Y-79632696D01*
X137935412Y-79702195D01*
X137903890Y-79764549D01*
X137884595Y-79781269D01*
X137698594Y-79911508D01*
X137531505Y-80078597D01*
X137395965Y-80272169D01*
X137395964Y-80272171D01*
X137296098Y-80486335D01*
X137296094Y-80486344D01*
X137234938Y-80714586D01*
X137234936Y-80714596D01*
X137214341Y-80949999D01*
X136800500Y-80949999D01*
X136800500Y-74506961D01*
X136801280Y-74493077D01*
X136801280Y-74493076D01*
X136811459Y-74402731D01*
X136817635Y-74375670D01*
X136845353Y-74296456D01*
X136857396Y-74271450D01*
X136902046Y-74200389D01*
X136919351Y-74178690D01*
X136978690Y-74119351D01*
X137000389Y-74102046D01*
X137071450Y-74057396D01*
X137096456Y-74045353D01*
X137175670Y-74017635D01*
X137202733Y-74011459D01*
X137265419Y-74004396D01*
X137293079Y-74001280D01*
X137306962Y-74000500D01*
X137365892Y-74000500D01*
X162634108Y-74000500D01*
X162693038Y-74000500D01*
X162706922Y-74001280D01*
G37*
%TD.AperFunction*%
%TD*%
M02*
